<svg xmlns="http://www.w3.org/2000/svg" width="16" height="16" viewBox="0 0 16 16"><defs><style>.a{fill:#141428;}</style></defs><path class="a" d="M6,1A2,2,0,1,0,8,3,2.006,2.006,0,0,0,6,1ZM6,7A2,2,0,1,0,8,9,2.006,2.006,0,0,0,6,7Zm0,6a2,2,0,1,0,2,2A2.006,2.006,0,0,0,6,13ZM18,5a2,2,0,1,0-2-2A2.006,2.006,0,0,0,18,5Zm-6,8a2,2,0,1,0,2,2A2.006,2.006,0,0,0,12,13Zm6,0a2,2,0,1,0,2,2A2.006,2.006,0,0,0,18,13Zm0-6a2,2,0,1,0,2,2A2.006,2.006,0,0,0,18,7ZM12,7a2,2,0,1,0,2,2A2.006,2.006,0,0,0,12,7Zm0-6a2,2,0,1,0,2,2A2.006,2.006,0,0,0,12,1Z" transform="translate(-4 -1)"/></svg>