<svg xmlns="http://www.w3.org/2000/svg" width="31.726" height="21.264" viewBox="0 0 31.726 21.264"><defs><style>.a{fill:#141428;}</style></defs><path class="a" d="M2445.234,2421.185c-2.114.2-5.68.162-7.5-1.372a3.978,3.978,0,0,1,0-5.706c2.2-1.851,6.97-1.514,8.622-1.233l.428-2.463c-.29-.051-7.116-1.2-10.657,1.781a6.465,6.465,0,0,0,0,9.534c1.976,1.662,4.975,2.039,7.291,2.039.681,0,1.3-.033,1.822-.075v4.031l5.316-5.316-5.316-5.316Z" transform="translate(-2434.023 -2406.457)"/><path class="a" d="M2463.651,2412.192c-2.562-2.155-6.832-2.149-9.113-1.963v-3.772l-5.316,5.316,5.316,5.316v-4.356c2.114-.2,5.68-.163,7.5,1.372a3.978,3.978,0,0,1,0,5.706c-2.195,1.851-6.969,1.515-8.622,1.232l-.428,2.463a21.377,21.377,0,0,0,3.366.259c2.316,0,5.316-.377,7.291-2.039a6.465,6.465,0,0,0,0-9.534Z" transform="translate(-2434.023 -2406.457)"/></svg>