<svg xmlns="http://www.w3.org/2000/svg" width="26.412" height="24" viewBox="0 0 26.412 24"><defs><style>.a{fill:#fff;}</style></defs><path class="a" d="M15.5,23.286a5.778,5.778,0,0,0-2.056-.714c-1.763.025-6.619,3-8.78-.213C1.345,17.418,7.892,13.6,7.892,13.6s2.09-3.846,5.556-3.914c4.107-.079,4.268,3.593,5.878,4.4s5.615,6.035,1.993,8.772A5.024,5.024,0,0,1,18.235,24,6.636,6.636,0,0,1,15.5,23.286Zm4.548-13.226c0-2.224,1.424-4.027,3.181-4.027s3.181,1.8,3.181,4.027-1.425,4.026-3.181,4.026S20.051,12.283,20.051,10.059ZM0,10.059C0,7.835,1.424,6.033,3.181,6.033s3.181,1.8,3.181,4.027-1.424,4.026-3.181,4.026S0,12.282,0,10.059ZM6.362,4.189c0-2.223,1.424-4.026,3.18-4.026s3.181,1.8,3.181,4.026S11.3,8.216,9.542,8.216,6.362,6.413,6.362,4.189Zm7.649-.162C14.011,1.8,15.436,0,17.192,0s3.181,1.8,3.181,4.027-1.425,4.026-3.181,4.026S14.011,6.25,14.011,4.027Z"/></svg>