<svg xmlns="http://www.w3.org/2000/svg" xmlns:xlink="http://www.w3.org/1999/xlink" width="364.111" height="126" viewBox="0 0 364.111 126"><defs><style>.a{fill:url(#a);}.b{fill:#be8c64;}.c{fill:#7d4b32;}.d{fill:#412d23;}.e{fill:#42352a;}.f,.i{opacity:0.6;}.f{fill:url(#b);}.g{fill:#fff;}.h{fill:url(#g);}.i{fill:url(#h);}</style><linearGradient id="a" x1="0.423" y1="0.022" x2="0.536" y2="0.775" gradientUnits="objectBoundingBox"><stop offset="0" stop-color="#a06946"/><stop offset="1" stop-color="#412d23"/></linearGradient><linearGradient id="b" x1="0.423" y1="0.022" x2="0.536" y2="0.775" gradientUnits="objectBoundingBox"><stop offset="0" stop-color="#412d23" stop-opacity="0"/><stop offset="1" stop-color="#412d23"/></linearGradient><linearGradient id="g" x1="0.577" y1="0.022" x2="0.464" y2="0.775" xlink:href="#a"/><linearGradient id="h" x1="0.577" y1="0.022" x2="0.464" y2="0.775" xlink:href="#b"/></defs><g transform="translate(-1045.944 -369)"><g transform="translate(1347.833 431)"><path class="a" d="M3842.524,459.663a30.277,30.277,0,0,0,4.6.529c.349-.344.708-.685,1.086-1.018-2.863-1.429-7.615-1.11-4.854-4.618,3.4-4.326,10.995-.421,11.294-1.7,1.014-4.337-1.579-3.876-7.713-3.684-6.8.213-3.439-6.35-.643-8.133,3.914-2.5,9.42,3.157,9.209-.427a5.708,5.708,0,0,0-3.484-4.825s0-3.939,3.677-4.73,7.041,6.142,7.041,6.142,2.431-6.665,10.32-5.352,5.26,7.878,2.163,6.8-3.338,7.468-.155,5.351,7.378-3.667,9.736-1.041-5.333,4.637-5.333,4.637a2.77,2.77,0,0,0-.841,2.176,33.442,33.442,0,0,1,5.062.792,41.446,41.446,0,0,1,6.3-3.572c4.294-1.8,6.689,9.9,2.63,6.565-1.033-.85-2.916.987-3.859,1.218,3.552,1.925,6.862,2.671,7.629,6.051,1.865,8.2-6.8,17.3-19.794,21.389a8.311,8.311,0,0,1,.381,5.939c-2.269,5.485-8.333,2.4-8.333,2.4a16.745,16.745,0,0,0,.311-6.619c-13.393,1.847-25.016-2.61-26.87-10.769a11.029,11.029,0,0,1,.584-6.493,3.4,3.4,0,0,0-1.7-.108C3835.845,467.762,3838,458.568,3842.524,459.663Z" transform="translate(-3836.208 -429.206)"/><path class="b" d="M3848.217,456.022c1.7.424.246-7.179-2.474-7.759-2.069-.441-6.67,3.321-5.416,3.469C3843.365,452.092,3846.059,455.482,3848.217,456.022Z" transform="translate(-3790.411 -431.014)"/><path class="b" d="M3896.7,443.192c.685-1.609-7.2-2.5-8.645-.971-3.184,3.373-2.082,7.679-.968,7.084C3889.385,448.079,3895.842,445.22,3896.7,443.192Z" transform="translate(-3879.251 -430.301)"/><path class="c" d="M3848,461.285c-.071-1.246-9.219.61-9.8,2-.418,1,4.913,3.738,5.861,3.935C3845.881,467.592,3848.09,462.857,3848,461.285Z" transform="translate(-3787.738 -432.341)"/><path class="b" d="M3868.091,438.571c2.628-1.68.057-6.45-3.689-6.892-1.635-.192-6.907,0-5.96.838C3860.091,433.975,3866.33,436.891,3868.091,438.571Z" transform="translate(-3826.932 -429.27)"/><path class="b" d="M3887.119,433.97c1.745-.106-1.982-4.154-5.217-2.8-1.4.588-4.209,5.1-2.968,4.869C3881.938,435.47,3884.9,434.1,3887.119,433.97Z" transform="translate(-3863.499 -429.195)"/><path class="c" d="M3902.475,465.1c1.226-1.539-3.942-2.455-5.943-1.807-2.723.883-2.319,6.481-1.16,5.979C3898.179,468.052,3901.09,466.837,3902.475,465.1Z" transform="translate(-3892.79 -432.573)"/><path class="b" d="M3857.915,448.015c1.72.316.806-4.53-1.137-5.334-2.144-.886-7.21.682-6.269,1.388C3852.957,445.9,3855.728,447.613,3857.915,448.015Z" transform="translate(-3809.491 -430.404)"/><path class="c" d="M3897.6,456.456c1.3-1.173-5.188-2.87-6.359-1.122-.846,1.264-.622,6.032.2,5.072C3893.428,458.083,3895.948,457.949,3897.6,456.456Z" transform="translate(-3884.513 -431.681)"/><path class="c" d="M3848.3,471.373a18.328,18.328,0,0,1-4.113,6.227c-1.868-.618-5.576-2.258-5.315-3.11C3839.287,473.143,3847.176,470.652,3848.3,471.373Z" transform="translate(-3788.642 -433.429)"/><path class="c" d="M3887.628,480.442c2.229-.638,9.678.333,9.392,1.418a9.48,9.48,0,0,1-3.869,4.227A13.316,13.316,0,0,1,3887.628,480.442Z" transform="translate(-3881.021 -434.373)"/><path class="c" d="M3898.593,476.709c-.479.912-2.767,1.315-4.652,1.823-.091-.284-.174-.571-.24-.865a10.273,10.273,0,0,1-.138-3.731C3896.158,474.739,3898.933,476.06,3898.593,476.709Z" transform="translate(-3887.829 -433.712)"/><path class="d" d="M3878.426,450.409s-.376,11.061,1.1,12.833,4.874,22.682,1.757,22.455-11.11-32.748-12.4-34.51" transform="translate(-3849.777 -431.243)"/><path class="d" d="M3868,448.615s-.265,10.636-.492,13.605c-.176,2.3-2.306,20.536-5.43,20.549s-.48-29.784-1.9-31.443Z" transform="translate(-3827.416 -431.055)"/><path class="d" d="M3877.409,443.392s.775,7.8.9,12.14c.065,2.308.971,24.164-2.155,24.177s-4.956-33.716-6.38-35.374Z" transform="translate(-3846.49 -430.507)"/><path class="e" d="M3884.095,466.363s.041,8.9-.186,11.872c-.176,2.3,2.954,9.124-.171,9.138s-6.946-19.18-8.37-20.838Z" transform="translate(-3858.15 -432.917)"/><path class="d" d="M3860.106,459.611s-1.262,8.813-1.922,11.716c-.511,2.253-3.151,13.037-6.245,12.593s.674-23.567-.492-25.416Z" transform="translate(-3811.036 -432.092)"/><path class="d" d="M3887.347,461.123s2.189,8.63,2.685,11.566c.385,2.277,2.051,13.254-.978,14.021s-7.277-23.11-9.06-24.374Z" transform="translate(-3867.997 -432.367)"/><path class="c" d="M3892.572,472.811c.181-1.235-8.823-1.322-9.669-.081-.612.9,3.6,5.837,4.018,5.036C3887.733,476.2,3892.343,474.369,3892.572,472.811Z" transform="translate(-3872.285 -433.492)"/><path class="b" d="M3883.561,450.3c.182-1.235-9.152-1.261-10-.02-.611.9,3.5,2.636,4.948,5.036C3879.471,456.9,3883.332,451.856,3883.561,450.3Z" transform="translate(-3854.912 -431.133)"/><path class="c" d="M3886.492,477.912c.182-1.236-9.152-1.261-10-.021-.611.9,4.058,4.652,4.948,5.036C3883.145,483.662,3886.263,479.468,3886.492,477.912Z" transform="translate(-3860.473 -434.03)"/><path class="c" d="M3885.47,465.394c.182-1.235-9.152-1.26-10-.02-.611.9,4.059,4.652,4.948,5.036C3882.123,471.145,3885.241,466.951,3885.47,465.394Z" transform="translate(-3858.536 -432.717)"/><path class="c" d="M3856.754,468.69c-.2-1.232-8.806,1.433-9.233,2.873-.308,1.041,5.213,4.458,5.363,3.569C3853.18,473.392,3857.011,470.243,3856.754,468.69Z" transform="translate(-3804.851 -433.128)"/><path class="b" d="M3868.863,448.16c-.178-1.236-8.833,1.25-9.29,2.681-.33,1.035,5.119,4.566,5.288,3.68C3865.193,452.786,3869.088,449.718,3868.863,448.16Z" transform="translate(-3827.742 -430.972)"/><path class="c" d="M3864.864,466.49c-.2-1.233-8.806,1.433-9.233,2.873-.308,1.041,5.213,4.458,5.363,3.569C3861.29,471.192,3865.121,468.042,3864.864,466.49Z" transform="translate(-3820.218 -432.897)"/><path class="c" d="M3876.145,481.408c.182-1.235-9.152-1.261-10-.02-.611.9,3.5,2.636,4.948,5.036C3872.055,488.011,3875.916,482.965,3876.145,481.408Z" transform="translate(-3840.858 -434.397)"/><path class="b" d="M3859.539,458.322c.182-1.235-9.153-1.261-10-.02-.612.9,4.058,4.652,4.947,5.036C3856.191,464.073,3859.31,459.879,3859.539,458.322Z" transform="translate(-3809.395 -431.975)"/><path class="c" d="M3867.735,476.366c.183-1.235-9.152-1.261-10-.021-.611.9,4.059,4.652,4.948,5.036C3864.388,482.117,3867.506,477.922,3867.735,476.366Z" transform="translate(-3824.927 -433.868)"/><path class="c" d="M3874.56,460.043c.255-1.73-11.516-1.767-12.7-.029-.856,1.258,4.7,7.911,5.628,7.053C3869.394,465.3,3874.239,462.223,3874.56,460.043Z" transform="translate(-3835.412 -432.116)"/><path class="c" d="M3878.976,472.747c.182-1.235-9.153-1.261-10-.021-.612.9,3.5,2.636,4.947,5.036C3874.885,479.349,3878.746,474.3,3878.976,472.747Z" transform="translate(-3846.223 -433.488)"/><path class="c" d="M3854.031,485.6c.761-.947,6.774-.612,8.9.2a43.386,43.386,0,0,1-5.764,2.267C3857.488,488.935,3853.351,486.446,3854.031,485.6Z" transform="translate(-3816.782 -434.875)"/><path class="c" d="M3847.213,480.413c.533-1.4,9.618-3.551,9.729-2.307a8.833,8.833,0,0,1-1.3,4.036q-1.431.965-3.034,1.833C3850.907,483.339,3846.878,481.294,3847.213,480.413Z" transform="translate(-3804.75 -434.11)"/><path class="b" d="M3878.933,443.318c.1-1.02-7.282-.731-7.926.32-.466.76,3.186,4.638,3.493,3.966C3875.1,446.287,3878.807,444.6,3878.933,443.318Z" transform="translate(-3848.013 -430.432)"/><path class="c" d="M3876.456,486.135c.94-1.172,9.911-.382,9.633.835-.219.962-2.165,1.9-3.815,2.831a31.58,31.58,0,0,1-4.818-.952C3876.706,487.681,3876.163,486.5,3876.456,486.135Z" transform="translate(-3860.016 -434.931)"/><path class="c" d="M3892.133,460.922c.1-1.02-7.283-.731-7.927.32-.465.76,3.186,4.638,3.494,3.966C3888.3,463.891,3892.007,462.207,3892.133,460.922Z" transform="translate(-3873.027 -432.28)"/><path class="f" d="M3842.524,459.663a30.277,30.277,0,0,0,4.6.529c.349-.344.708-.685,1.086-1.018-2.863-1.429-7.615-1.11-4.854-4.618,3.4-4.326,10.995-.421,11.294-1.7,1.014-4.337-1.579-3.876-7.713-3.684-6.8.213-3.439-6.35-.643-8.133,3.914-2.5,9.42,3.157,9.209-.427a5.708,5.708,0,0,0-3.484-4.825s0-3.939,3.677-4.73,7.041,6.142,7.041,6.142,2.431-6.665,10.32-5.352,5.26,7.878,2.163,6.8-3.338,7.468-.155,5.351,7.378-3.667,9.736-1.041-5.333,4.637-5.333,4.637a2.77,2.77,0,0,0-.841,2.176,33.442,33.442,0,0,1,5.062.792,41.446,41.446,0,0,1,6.3-3.572c4.294-1.8,6.689,9.9,2.63,6.565-1.033-.85-2.916.987-3.859,1.218,3.552,1.925,6.862,2.671,7.629,6.051,1.865,8.2-6.8,17.3-19.794,21.389a8.311,8.311,0,0,1,.381,5.939c-2.269,5.485-8.333,2.4-8.333,2.4a16.745,16.745,0,0,0,.311-6.619c-13.393,1.847-25.016-2.61-26.87-10.769a11.029,11.029,0,0,1,.584-6.493,3.4,3.4,0,0,0-1.7-.108C3835.845,467.762,3838,458.568,3842.524,459.663Z" transform="translate(-3836.208 -429.206)"/><path class="g" d="M3856.07,430.786a2.781,2.781,0,0,0-.592.064c-3.677.789-3.677,4.729-3.677,4.729a5.708,5.708,0,0,1,3.484,4.825c.054.916-.265,1.228-.835,1.228-1.233,0-3.637-1.461-5.985-1.461a4.346,4.346,0,0,0-2.389.66c-2.751,1.754-6.048,8.138.327,8.138q.155,0,.317-.005c1.564-.049,2.9-.115,4-.115,3.222,0,4.468.567,3.713,3.8-.046.2-.266.271-.616.271-1.056,0-3.305-.673-5.595-.673a6.1,6.1,0,0,0-5.083,2.1c-2.76,3.508,1.991,3.189,4.855,4.618-.379.333-.738.674-1.087,1.018a30.281,30.281,0,0,1-4.6-.529,3.1,3.1,0,0,0-.742-.091c-3.74,0-5.423,7.1-1.683,7.1a3.824,3.824,0,0,0,.864-.108,2.54,2.54,0,0,1,.584-.064,4.083,4.083,0,0,1,1.115.173,11.029,11.029,0,0,0-.584,6.493c1.573,6.926,10.186,11.184,20.945,11.184a43.427,43.427,0,0,0,5.925-.414,16.745,16.745,0,0,1-.311,6.619,9.021,9.021,0,0,0,3.637.866,4.79,4.79,0,0,0,4.7-3.264,8.311,8.311,0,0,0-.381-5.939c12.995-4.089,21.659-13.184,19.794-21.389-.768-3.38-4.078-4.125-7.629-6.051.769-.188,2.16-1.441,3.208-1.441a.989.989,0,0,1,.652.223,2.134,2.134,0,0,0,1.237.6c2.007,0,.235-7.357-2.97-7.357a2.316,2.316,0,0,0-.9.189,41.344,41.344,0,0,0-6.3,3.572,33.356,33.356,0,0,0-5.062-.792,2.77,2.77,0,0,1,.841-2.176s7.691-2.011,5.333-4.637a4.215,4.215,0,0,0-3.279-1.383,12.691,12.691,0,0,0-6.457,2.424,1.72,1.72,0,0,1-.935.339c-2.015,0-1.718-5.785.564-5.785a1.6,1.6,0,0,1,.525.095,2.083,2.083,0,0,0,.688.12c2.744,0,4.441-5.7-2.852-6.918a12.184,12.184,0,0,0-1.993-.171,8.926,8.926,0,0,0-8.327,5.523s-3.011-6.2-6.449-6.2m0-1.79c2.766,0,5.043,2.44,6.482,4.522a10.355,10.355,0,0,1,8.295-3.84,13.986,13.986,0,0,1,2.287.2c3.28.546,7,2.538,6.683,6.354a4.336,4.336,0,0,1-4.124,4.12,3.839,3.839,0,0,1-1.043-.146,3.856,3.856,0,0,0-.285,1.769,13.854,13.854,0,0,1,6.941-2.4,6.011,6.011,0,0,1,4.612,1.977,3.117,3.117,0,0,1,.78,3.072c-.511,1.7-2.548,2.892-4.415,3.646q.427.079.844.168a39.463,39.463,0,0,1,5.955-3.31,4.1,4.1,0,0,1,1.586-.327c1.66,0,3.178,1.045,4.274,2.942,1.151,1.992,1.845,5.025.867,6.719a2.5,2.5,0,0,1-1.346,1.139,7.193,7.193,0,0,1,3.454,4.616c1.992,8.765-6.066,18.219-19.314,22.927a8.729,8.729,0,0,1-.19,5.48A6.586,6.586,0,0,1,3872.06,493a10.691,10.691,0,0,1-4.448-1.061l-1.307-.665.395-1.412a15.78,15.78,0,0,0,.443-4.148c-1.459.142-2.911.215-4.334.215-12.049,0-20.954-4.937-22.69-12.578a12.159,12.159,0,0,1-.052-5.1c-.061,0-.122,0-.182,0-2.327,0-3.892-1.693-3.892-4.214,0-2.854,2-6.014,4.935-6.419a2.978,2.978,0,0,1-.272-.6c-.557-1.7.67-3.263,1.073-3.775a7.034,7.034,0,0,1,3.985-2.5c-3.258-.222-4.279-2.01-4.6-3.1-.878-3.011,1.736-6.87,4-8.312a6.128,6.128,0,0,1,3.35-.94,13.515,13.515,0,0,1,4.5,1.008l.334.118a4.061,4.061,0,0,0-2.153-2.261l-1.119-.453-.019-1.215a6.581,6.581,0,0,1,5.09-6.479,4.623,4.623,0,0,1,.968-.1Zm-2.57,11.653Zm-.661,10.207a5.793,5.793,0,0,0-2.121-.218h-.076c.609.084,1.18.185,1.694.277l.517.09a1.142,1.142,0,0,0-.015-.149Z" transform="translate(-3835.994 -428.996)"/></g><g transform="translate(1295.944 369)"><path class="a" d="M3841.394,452.5a22.686,22.686,0,0,0,3.446.4c.262-.258.531-.513.814-.763-2.147-1.071-5.711-.832-3.641-3.463,2.554-3.244,8.246-.315,8.47-1.275.761-3.253-1.184-2.907-5.784-2.763-5.1.16-2.58-4.763-.482-6.1,2.936-1.872,7.065,2.368,6.907-.32a4.28,4.28,0,0,0-2.613-3.619,3.659,3.659,0,0,1,2.758-3.547c2.757-.593,5.28,4.606,5.28,4.606a6.761,6.761,0,0,1,7.74-4.014c5.917.985,3.945,5.909,1.623,5.1s-2.5,5.6-.116,4.013,5.534-2.75,7.3-.781-4,3.478-4,3.478a2.079,2.079,0,0,0-.631,1.632,25.085,25.085,0,0,1,3.8.594,31.081,31.081,0,0,1,4.723-2.679c3.221-1.347,5.017,7.429,1.973,4.924-.775-.638-2.187.74-2.9.914,2.664,1.444,5.146,2,5.722,4.538,1.4,6.153-5.1,12.975-14.846,16.041a6.234,6.234,0,0,1,.286,4.454c-1.7,4.114-6.25,1.8-6.25,1.8a12.562,12.562,0,0,0,.233-4.964c-10.044,1.385-18.762-1.958-20.152-8.077a8.268,8.268,0,0,1,.438-4.87,2.551,2.551,0,0,0-1.275-.081C3836.384,458.57,3838,451.675,3841.394,452.5Z" transform="translate(-3836.656 -429.653)"/><path class="b" d="M3846.192,454.073c1.272.318.185-5.385-1.855-5.82-1.551-.331-5,2.491-4.061,2.6C3842.553,451.126,3844.573,453.668,3846.192,454.073Z" transform="translate(-3802.837 -435.317)"/><path class="b" d="M3894.02,442.751c.514-1.207-5.4-1.876-6.483-.728-2.388,2.529-1.562,5.759-.726,5.313C3888.53,446.417,3893.373,444.272,3894.02,442.751Z" transform="translate(-3880.929 -433.083)"/><path class="c" d="M3845.546,461.182c-.053-.934-6.914.458-7.348,1.5-.313.752,3.685,2.8,4.4,2.951C3843.957,465.913,3845.612,462.361,3845.546,461.182Z" transform="translate(-3800.349 -439.474)"/><path class="b" d="M3865.65,436.831c1.971-1.26.043-4.837-2.767-5.169-1.226-.144-5.181,0-4.47.628C3859.65,433.384,3864.33,435.571,3865.65,436.831Z" transform="translate(-3834.781 -429.855)"/><path class="b" d="M3885,433.2c1.309-.079-1.487-3.116-3.913-2.1-1.052.441-3.157,3.828-2.226,3.652C3881.11,434.326,3883.33,433.3,3885,433.2Z" transform="translate(-3867.28 -429.62)"/><path class="c" d="M3900.477,464.593c.919-1.154-2.957-1.841-4.458-1.355-2.042.662-1.739,4.861-.87,4.484C3897.255,466.809,3899.438,465.9,3900.477,464.593Z" transform="translate(-3893.213 -440.199)"/><path class="b" d="M3856.036,446.615c1.29.237.6-3.4-.853-4-1.608-.665-5.408.512-4.7,1.041A15.47,15.47,0,0,0,3856.036,446.615Z" transform="translate(-3819.718 -433.407)"/><path class="c" d="M3895.874,455.988c.972-.88-3.892-2.153-4.77-.842-.634.948-.467,4.524.15,3.8C3892.746,457.208,3894.636,457.108,3895.874,455.988Z" transform="translate(-3886.061 -437.407)"/><path class="c" d="M3845.939,471.341a13.75,13.75,0,0,1-3.085,4.67c-1.4-.463-4.182-1.694-3.986-2.333C3839.179,472.668,3845.1,470.8,3845.939,471.341Z" transform="translate(-3801.196 -442.883)"/><path class="c" d="M3887.628,480.391c1.672-.479,7.259.25,7.044,1.063a7.111,7.111,0,0,1-2.9,3.171A9.99,9.99,0,0,1,3887.628,480.391Z" transform="translate(-3882.673 -445.839)"/><path class="c" d="M3897.308,476.016c-.359.684-2.075.986-3.489,1.367-.068-.213-.131-.428-.18-.648a7.7,7.7,0,0,1-.1-2.8C3895.482,474.539,3897.563,475.529,3897.308,476.016Z" transform="translate(-3889.236 -443.768)"/><path class="d" d="M3876.04,450.409s-.282,8.3.828,9.625,3.655,17.011,1.318,16.841-8.333-24.561-9.3-25.883" transform="translate(-3854.554 -436.034)"/><path class="d" d="M3866.042,448.615s-.2,7.977-.369,10.2c-.132,1.727-1.729,15.4-4.073,15.412s-.36-22.338-1.428-23.582Z" transform="translate(-3835.605 -435.445)"/><path class="d" d="M3875.5,443.392s.581,5.848.673,9.1c.049,1.731.729,18.123-1.616,18.133s-3.717-25.287-4.785-26.53Z" transform="translate(-3852.311 -433.728)"/><path class="e" d="M3881.913,466.363s.031,6.677-.14,8.9c-.132,1.727,2.215,6.843-.128,6.853s-5.209-14.385-6.278-15.629Z" transform="translate(-3862.454 -441.279)"/><path class="d" d="M3857.751,459.334s-.947,6.61-1.441,8.787c-.383,1.69-2.364,9.777-4.684,9.445s.505-17.675-.369-19.062Z" transform="translate(-3820.949 -438.695)"/><path class="d" d="M3885.509,461.123s1.642,6.473,2.014,8.675c.289,1.708,1.538,9.941-.734,10.516s-5.458-17.332-6.794-18.281Z" transform="translate(-3870.996 -439.556)"/><path class="c" d="M3890.14,472.569c.136-.926-6.617-.992-7.251-.061-.459.673,2.7,4.378,3.013,3.777C3886.511,475.109,3889.968,473.737,3890.14,472.569Z" transform="translate(-3874.925 -443.079)"/><path class="b" d="M3881.046,450.064c.136-.926-6.864-.946-7.5-.015-.458.673,2.621,1.977,3.711,3.777C3877.979,455.016,3880.874,451.232,3881.046,450.064Z" transform="translate(-3859.56 -435.69)"/><path class="c" d="M3883.979,477.677c.136-.927-6.864-.946-7.5-.015-.458.673,3.044,3.489,3.711,3.777C3881.468,481.99,3883.807,478.845,3883.979,477.677Z" transform="translate(-3864.465 -444.766)"/><path class="c" d="M3882.957,465.159c.137-.926-6.864-.945-7.5-.015-.458.673,3.044,3.489,3.711,3.777C3880.447,469.473,3882.785,466.327,3882.957,465.159Z" transform="translate(-3862.757 -440.652)"/><path class="c" d="M3854.443,468.611c-.153-.924-6.6,1.075-6.924,2.155-.231.781,3.91,3.344,4.022,2.676C3851.762,472.137,3854.635,469.775,3854.443,468.611Z" transform="translate(-3815.516 -441.939)"/><path class="b" d="M3866.537,448.076c-.134-.927-6.625.938-6.968,2.011-.248.776,3.839,3.424,3.966,2.76C3863.784,451.546,3866.706,449.245,3866.537,448.076Z" transform="translate(-3835.697 -435.185)"/><path class="c" d="M3862.552,466.411c-.153-.924-6.6,1.075-6.924,2.155-.231.781,3.909,3.344,4.022,2.676C3859.871,469.937,3862.744,467.575,3862.552,466.411Z" transform="translate(-3829.068 -441.216)"/><path class="c" d="M3873.63,481.173c.137-.926-6.864-.946-7.5-.015-.458.673,2.622,1.977,3.711,3.777C3870.563,486.125,3873.458,482.341,3873.63,481.173Z" transform="translate(-3847.165 -445.915)"/><path class="b" d="M3857.026,458.087c.137-.926-6.865-.946-7.5-.015-.459.673,3.043,3.489,3.71,3.777C3854.516,462.4,3856.854,459.255,3857.026,458.087Z" transform="translate(-3819.418 -438.327)"/><path class="c" d="M3865.222,476.131c.137-.926-6.864-.946-7.5-.016-.459.673,3.044,3.489,3.711,3.777C3862.712,480.444,3865.05,477.3,3865.222,476.131Z" transform="translate(-3833.116 -444.258)"/><path class="c" d="M3871.362,459.714c.191-1.3-8.637-1.325-9.526-.021-.642.943,3.526,5.933,4.221,5.29C3867.488,463.659,3871.122,461.349,3871.362,459.714Z" transform="translate(-3842.002 -438.769)"/><path class="c" d="M3876.461,472.512c.136-.926-6.865-.946-7.5-.015-.459.673,2.621,1.977,3.71,3.777C3873.393,477.464,3876.289,473.68,3876.461,472.512Z" transform="translate(-3851.897 -443.068)"/><path class="c" d="M3854.012,485.455c.571-.71,5.081-.459,6.673.146a32.547,32.547,0,0,1-4.323,1.7C3856.6,487.957,3853.5,486.091,3854.012,485.455Z" transform="translate(-3826.076 -447.412)"/><path class="c" d="M3847.208,479.743c.4-1.053,7.214-2.663,7.3-1.731a6.632,6.632,0,0,1-.978,3.027q-1.074.724-2.276,1.375C3849.979,481.937,3846.957,480.4,3847.208,479.743Z" transform="translate(-3815.362 -445.016)"/><path class="b" d="M3876.941,443.16c.075-.765-5.461-.548-5.944.24-.349.57,2.389,3.479,2.62,2.975C3874.07,445.386,3876.848,444.124,3876.941,443.16Z" transform="translate(-3853.752 -433.495)"/><path class="c" d="M3876.436,485.991c.7-.879,7.433-.287,7.225.626-.165.722-1.624,1.423-2.862,2.123a23.682,23.682,0,0,1-3.614-.714C3876.623,487.151,3876.216,486.265,3876.436,485.991Z" transform="translate(-3864.106 -447.588)"/><path class="c" d="M3890.141,460.763c.074-.765-5.462-.548-5.945.24-.349.57,2.389,3.479,2.62,2.974C3887.268,462.99,3890.046,461.727,3890.141,460.763Z" transform="translate(-3875.812 -439.282)"/><path class="f" d="M3841.394,452.5a22.686,22.686,0,0,0,3.446.4c.262-.258.531-.513.814-.763-2.147-1.071-5.711-.832-3.641-3.463,2.554-3.244,8.246-.315,8.47-1.275.761-3.253-1.184-2.907-5.784-2.763-5.1.16-2.58-4.763-.482-6.1,2.936-1.872,7.065,2.368,6.907-.32a4.28,4.28,0,0,0-2.613-3.619,3.659,3.659,0,0,1,2.758-3.547c2.757-.593,5.28,4.606,5.28,4.606a6.761,6.761,0,0,1,7.74-4.014c5.917.985,3.945,5.909,1.623,5.1s-2.5,5.6-.116,4.013,5.534-2.75,7.3-.781-4,3.478-4,3.478a2.079,2.079,0,0,0-.631,1.632,25.085,25.085,0,0,1,3.8.594,31.081,31.081,0,0,1,4.723-2.679c3.221-1.347,5.017,7.429,1.973,4.924-.775-.638-2.187.74-2.9.914,2.664,1.444,5.146,2,5.722,4.538,1.4,6.153-5.1,12.975-14.846,16.041a6.234,6.234,0,0,1,.286,4.454c-1.7,4.114-6.25,1.8-6.25,1.8a12.562,12.562,0,0,0,.233-4.964c-10.044,1.385-18.762-1.958-20.152-8.077a8.268,8.268,0,0,1,.438-4.87,2.551,2.551,0,0,0-1.275-.081C3836.384,458.57,3838,451.675,3841.394,452.5Z" transform="translate(-3836.656 -429.653)"/><path class="g" d="M3851.051,430.339a2.089,2.089,0,0,0-.444.048,3.658,3.658,0,0,0-2.758,3.547,4.28,4.28,0,0,1,2.613,3.619c.04.687-.2.921-.626.921-.924,0-2.728-1.1-4.489-1.1a3.26,3.26,0,0,0-1.792.495c-2.063,1.316-4.536,6.1.245,6.1.077,0,.156,0,.238,0,1.173-.037,2.172-.087,3-.087,2.416,0,3.351.426,2.784,2.85-.034.148-.2.2-.462.2-.792,0-2.479-.5-4.2-.5a4.578,4.578,0,0,0-3.812,1.576c-2.07,2.631,1.493,2.392,3.641,3.463-.284.25-.553.505-.815.763a22.694,22.694,0,0,1-3.446-.4,2.332,2.332,0,0,0-.557-.068c-2.805,0-4.067,5.323-1.262,5.323a2.864,2.864,0,0,0,.648-.081,1.909,1.909,0,0,1,.438-.048,3.065,3.065,0,0,1,.836.13,8.27,8.27,0,0,0-.438,4.87c1.18,5.195,7.639,8.388,15.708,8.388a32.569,32.569,0,0,0,4.444-.311,12.562,12.562,0,0,1-.233,4.964,6.764,6.764,0,0,0,2.727.649,3.593,3.593,0,0,0,3.522-2.448,6.234,6.234,0,0,0-.286-4.454c9.746-3.067,16.244-9.888,14.846-16.041-.576-2.535-3.058-3.094-5.722-4.538.577-.141,1.62-1.081,2.406-1.081a.742.742,0,0,1,.489.167,1.6,1.6,0,0,0,.927.452c1.505,0,.176-5.517-2.228-5.517a1.739,1.739,0,0,0-.672.142,31.019,31.019,0,0,0-4.723,2.679,25.017,25.017,0,0,0-3.8-.594,2.078,2.078,0,0,1,.631-1.632s5.768-1.508,4-3.478a3.161,3.161,0,0,0-2.459-1.037,9.518,9.518,0,0,0-4.843,1.818,1.29,1.29,0,0,1-.7.254c-1.511,0-1.289-4.339.423-4.339a1.2,1.2,0,0,1,.394.071,1.561,1.561,0,0,0,.516.09c2.058,0,3.331-4.278-2.139-5.188a9.142,9.142,0,0,0-1.5-.128,6.7,6.7,0,0,0-6.245,4.142s-2.258-4.653-4.837-4.653m0-1.343c2.074,0,3.782,1.83,4.862,3.391a7.766,7.766,0,0,1,6.221-2.88,10.49,10.49,0,0,1,1.715.146c2.46.409,5.249,1.9,5.012,4.766a3.253,3.253,0,0,1-3.094,3.09,2.88,2.88,0,0,1-.782-.109,2.89,2.89,0,0,0-.214,1.326,10.39,10.39,0,0,1,5.205-1.8,4.508,4.508,0,0,1,3.459,1.483,2.339,2.339,0,0,1,.585,2.3c-.383,1.277-1.911,2.169-3.311,2.735q.32.059.633.126a29.6,29.6,0,0,1,4.466-2.482,3.076,3.076,0,0,1,1.19-.245,3.815,3.815,0,0,1,3.205,2.207c.863,1.494,1.384,3.769.65,5.039a1.873,1.873,0,0,1-1.01.855,5.394,5.394,0,0,1,2.591,3.462c1.494,6.573-4.549,13.664-14.486,17.2a6.544,6.544,0,0,1-.142,4.11,4.939,4.939,0,0,1-4.763,3.278,8.016,8.016,0,0,1-3.336-.8l-.98-.5.3-1.059a11.84,11.84,0,0,0,.332-3.111c-1.094.107-2.183.161-3.25.161-9.036,0-15.716-3.7-17.018-9.433a9.122,9.122,0,0,1-.039-3.827l-.136,0a2.884,2.884,0,0,1-2.919-3.161c0-2.141,1.5-4.51,3.7-4.815a2.228,2.228,0,0,1-.2-.45,3.184,3.184,0,0,1,.8-2.832,5.276,5.276,0,0,1,2.989-1.878c-2.444-.167-3.209-1.508-3.449-2.328-.658-2.258,1.3-5.152,3-6.234a4.6,4.6,0,0,1,2.512-.7,10.137,10.137,0,0,1,3.378.756l.25.089a3.044,3.044,0,0,0-1.615-1.7l-.839-.34-.014-.911a4.935,4.935,0,0,1,3.818-4.86,3.469,3.469,0,0,1,.726-.077Zm-1.927,8.74Zm-.5,7.656a4.344,4.344,0,0,0-1.59-.164h-.057c.457.063.885.139,1.271.207l.388.068a.875.875,0,0,0-.011-.111Z" transform="translate(-3835.994 -428.996)"/></g><g transform="translate(1045.944 431)"><path class="a" d="M3841.394,452.5a22.686,22.686,0,0,0,3.446.4c.262-.258.531-.513.814-.763-2.147-1.071-5.711-.832-3.641-3.463,2.554-3.244,8.246-.315,8.47-1.275.761-3.253-1.184-2.907-5.784-2.763-5.1.16-2.58-4.763-.482-6.1,2.936-1.872,7.065,2.368,6.907-.32a4.28,4.28,0,0,0-2.613-3.619,3.659,3.659,0,0,1,2.758-3.547c2.757-.593,5.28,4.606,5.28,4.606a6.761,6.761,0,0,1,7.74-4.014c5.917.985,3.945,5.909,1.623,5.1s-2.5,5.6-.116,4.013,5.534-2.75,7.3-.781-4,3.478-4,3.478a2.079,2.079,0,0,0-.631,1.632,25.085,25.085,0,0,1,3.8.594,31.081,31.081,0,0,1,4.723-2.679c3.221-1.347,5.017,7.429,1.973,4.924-.775-.638-2.187.74-2.9.914,2.664,1.444,5.146,2,5.722,4.538,1.4,6.153-5.1,12.975-14.846,16.041a6.234,6.234,0,0,1,.286,4.454c-1.7,4.114-6.25,1.8-6.25,1.8a12.562,12.562,0,0,0,.233-4.964c-10.044,1.385-18.762-1.958-20.152-8.077a8.268,8.268,0,0,1,.438-4.87,2.551,2.551,0,0,0-1.275-.081C3836.384,458.57,3838,451.675,3841.394,452.5Z" transform="translate(-3836.656 -429.653)"/><path class="b" d="M3846.192,454.073c1.272.318.185-5.385-1.855-5.82-1.551-.331-5,2.491-4.061,2.6C3842.553,451.126,3844.573,453.668,3846.192,454.073Z" transform="translate(-3802.837 -435.317)"/><path class="b" d="M3894.02,442.751c.514-1.207-5.4-1.876-6.483-.728-2.388,2.529-1.562,5.759-.726,5.313C3888.53,446.417,3893.373,444.272,3894.02,442.751Z" transform="translate(-3880.929 -433.083)"/><path class="c" d="M3845.546,461.182c-.053-.934-6.914.458-7.348,1.5-.313.752,3.685,2.8,4.4,2.951C3843.957,465.913,3845.612,462.361,3845.546,461.182Z" transform="translate(-3800.349 -439.474)"/><path class="b" d="M3865.65,436.831c1.971-1.26.043-4.837-2.767-5.169-1.226-.144-5.181,0-4.47.628C3859.65,433.384,3864.33,435.571,3865.65,436.831Z" transform="translate(-3834.781 -429.855)"/><path class="b" d="M3885,433.2c1.309-.079-1.487-3.116-3.913-2.1-1.052.441-3.157,3.828-2.226,3.652C3881.11,434.326,3883.33,433.3,3885,433.2Z" transform="translate(-3867.28 -429.62)"/><path class="c" d="M3900.477,464.593c.919-1.154-2.957-1.841-4.458-1.355-2.042.662-1.739,4.861-.87,4.484C3897.255,466.809,3899.438,465.9,3900.477,464.593Z" transform="translate(-3893.213 -440.199)"/><path class="b" d="M3856.036,446.615c1.29.237.6-3.4-.853-4-1.608-.665-5.408.512-4.7,1.041A15.47,15.47,0,0,0,3856.036,446.615Z" transform="translate(-3819.718 -433.407)"/><path class="c" d="M3895.874,455.988c.972-.88-3.892-2.153-4.77-.842-.634.948-.467,4.524.15,3.8C3892.746,457.208,3894.636,457.108,3895.874,455.988Z" transform="translate(-3886.061 -437.407)"/><path class="c" d="M3845.939,471.341a13.75,13.75,0,0,1-3.085,4.67c-1.4-.463-4.182-1.694-3.986-2.333C3839.179,472.668,3845.1,470.8,3845.939,471.341Z" transform="translate(-3801.196 -442.883)"/><path class="c" d="M3887.628,480.391c1.672-.479,7.259.25,7.044,1.063a7.111,7.111,0,0,1-2.9,3.171A9.99,9.99,0,0,1,3887.628,480.391Z" transform="translate(-3882.673 -445.839)"/><path class="c" d="M3897.308,476.016c-.359.684-2.075.986-3.489,1.367-.068-.213-.131-.428-.18-.648a7.7,7.7,0,0,1-.1-2.8C3895.482,474.539,3897.563,475.529,3897.308,476.016Z" transform="translate(-3889.236 -443.768)"/><path class="d" d="M3876.04,450.409s-.282,8.3.828,9.625,3.655,17.011,1.318,16.841-8.333-24.561-9.3-25.883" transform="translate(-3854.554 -436.034)"/><path class="d" d="M3866.042,448.615s-.2,7.977-.369,10.2c-.132,1.727-1.729,15.4-4.073,15.412s-.36-22.338-1.428-23.582Z" transform="translate(-3835.605 -435.445)"/><path class="d" d="M3875.5,443.392s.581,5.848.673,9.1c.049,1.731.729,18.123-1.616,18.133s-3.717-25.287-4.785-26.53Z" transform="translate(-3852.311 -433.728)"/><path class="e" d="M3881.913,466.363s.031,6.677-.14,8.9c-.132,1.727,2.215,6.843-.128,6.853s-5.209-14.385-6.278-15.629Z" transform="translate(-3862.454 -441.279)"/><path class="d" d="M3857.751,459.334s-.947,6.61-1.441,8.787c-.383,1.69-2.364,9.777-4.684,9.445s.505-17.675-.369-19.062Z" transform="translate(-3820.949 -438.695)"/><path class="d" d="M3885.509,461.123s1.642,6.473,2.014,8.675c.289,1.708,1.538,9.941-.734,10.516s-5.458-17.332-6.794-18.281Z" transform="translate(-3870.996 -439.556)"/><path class="c" d="M3890.14,472.569c.136-.926-6.617-.992-7.251-.061-.459.673,2.7,4.378,3.013,3.777C3886.511,475.109,3889.968,473.737,3890.14,472.569Z" transform="translate(-3874.925 -443.079)"/><path class="b" d="M3881.046,450.064c.136-.926-6.864-.946-7.5-.015-.458.673,2.621,1.977,3.711,3.777C3877.979,455.016,3880.874,451.232,3881.046,450.064Z" transform="translate(-3859.56 -435.69)"/><path class="c" d="M3883.979,477.677c.136-.927-6.864-.946-7.5-.015-.458.673,3.044,3.489,3.711,3.777C3881.468,481.99,3883.807,478.845,3883.979,477.677Z" transform="translate(-3864.465 -444.766)"/><path class="c" d="M3882.957,465.159c.137-.926-6.864-.945-7.5-.015-.458.673,3.044,3.489,3.711,3.777C3880.447,469.473,3882.785,466.327,3882.957,465.159Z" transform="translate(-3862.757 -440.652)"/><path class="c" d="M3854.443,468.611c-.153-.924-6.6,1.075-6.924,2.155-.231.781,3.91,3.344,4.022,2.676C3851.762,472.137,3854.635,469.775,3854.443,468.611Z" transform="translate(-3815.516 -441.939)"/><path class="b" d="M3866.537,448.076c-.134-.927-6.625.938-6.968,2.011-.248.776,3.839,3.424,3.966,2.76C3863.784,451.546,3866.706,449.245,3866.537,448.076Z" transform="translate(-3835.697 -435.185)"/><path class="c" d="M3862.552,466.411c-.153-.924-6.6,1.075-6.924,2.155-.231.781,3.909,3.344,4.022,2.676C3859.871,469.937,3862.744,467.575,3862.552,466.411Z" transform="translate(-3829.068 -441.216)"/><path class="c" d="M3873.63,481.173c.137-.926-6.864-.946-7.5-.015-.458.673,2.622,1.977,3.711,3.777C3870.563,486.125,3873.458,482.341,3873.63,481.173Z" transform="translate(-3847.165 -445.915)"/><path class="b" d="M3857.026,458.087c.137-.926-6.865-.946-7.5-.015-.459.673,3.043,3.489,3.71,3.777C3854.516,462.4,3856.854,459.255,3857.026,458.087Z" transform="translate(-3819.418 -438.327)"/><path class="c" d="M3865.222,476.131c.137-.926-6.864-.946-7.5-.016-.459.673,3.044,3.489,3.711,3.777C3862.712,480.444,3865.05,477.3,3865.222,476.131Z" transform="translate(-3833.116 -444.258)"/><path class="c" d="M3871.362,459.714c.191-1.3-8.637-1.325-9.526-.021-.642.943,3.526,5.933,4.221,5.29C3867.488,463.659,3871.122,461.349,3871.362,459.714Z" transform="translate(-3842.002 -438.769)"/><path class="c" d="M3876.461,472.512c.136-.926-6.865-.946-7.5-.015-.459.673,2.621,1.977,3.71,3.777C3873.393,477.464,3876.289,473.68,3876.461,472.512Z" transform="translate(-3851.897 -443.068)"/><path class="c" d="M3854.012,485.455c.571-.71,5.081-.459,6.673.146a32.547,32.547,0,0,1-4.323,1.7C3856.6,487.957,3853.5,486.091,3854.012,485.455Z" transform="translate(-3826.076 -447.412)"/><path class="c" d="M3847.208,479.743c.4-1.053,7.214-2.663,7.3-1.731a6.632,6.632,0,0,1-.978,3.027q-1.074.724-2.276,1.375C3849.979,481.937,3846.957,480.4,3847.208,479.743Z" transform="translate(-3815.362 -445.016)"/><path class="b" d="M3876.941,443.16c.075-.765-5.461-.548-5.944.24-.349.57,2.389,3.479,2.62,2.975C3874.07,445.386,3876.848,444.124,3876.941,443.16Z" transform="translate(-3853.752 -433.495)"/><path class="c" d="M3876.436,485.991c.7-.879,7.433-.287,7.225.626-.165.722-1.624,1.423-2.862,2.123a23.682,23.682,0,0,1-3.614-.714C3876.623,487.151,3876.216,486.265,3876.436,485.991Z" transform="translate(-3864.106 -447.588)"/><path class="c" d="M3890.141,460.763c.074-.765-5.462-.548-5.945.24-.349.57,2.389,3.479,2.62,2.974C3887.268,462.99,3890.046,461.727,3890.141,460.763Z" transform="translate(-3875.812 -439.282)"/><path class="f" d="M3841.394,452.5a22.686,22.686,0,0,0,3.446.4c.262-.258.531-.513.814-.763-2.147-1.071-5.711-.832-3.641-3.463,2.554-3.244,8.246-.315,8.47-1.275.761-3.253-1.184-2.907-5.784-2.763-5.1.16-2.58-4.763-.482-6.1,2.936-1.872,7.065,2.368,6.907-.32a4.28,4.28,0,0,0-2.613-3.619,3.659,3.659,0,0,1,2.758-3.547c2.757-.593,5.28,4.606,5.28,4.606a6.761,6.761,0,0,1,7.74-4.014c5.917.985,3.945,5.909,1.623,5.1s-2.5,5.6-.116,4.013,5.534-2.75,7.3-.781-4,3.478-4,3.478a2.079,2.079,0,0,0-.631,1.632,25.085,25.085,0,0,1,3.8.594,31.081,31.081,0,0,1,4.723-2.679c3.221-1.347,5.017,7.429,1.973,4.924-.775-.638-2.187.74-2.9.914,2.664,1.444,5.146,2,5.722,4.538,1.4,6.153-5.1,12.975-14.846,16.041a6.234,6.234,0,0,1,.286,4.454c-1.7,4.114-6.25,1.8-6.25,1.8a12.562,12.562,0,0,0,.233-4.964c-10.044,1.385-18.762-1.958-20.152-8.077a8.268,8.268,0,0,1,.438-4.87,2.551,2.551,0,0,0-1.275-.081C3836.384,458.57,3838,451.675,3841.394,452.5Z" transform="translate(-3836.656 -429.653)"/><path class="g" d="M3851.051,430.339a2.089,2.089,0,0,0-.444.048,3.658,3.658,0,0,0-2.758,3.547,4.28,4.28,0,0,1,2.613,3.619c.04.687-.2.921-.626.921-.924,0-2.728-1.1-4.489-1.1a3.26,3.26,0,0,0-1.792.495c-2.063,1.316-4.536,6.1.245,6.1.077,0,.156,0,.238,0,1.173-.037,2.172-.087,3-.087,2.416,0,3.351.426,2.784,2.85-.034.148-.2.2-.462.2-.792,0-2.479-.5-4.2-.5a4.578,4.578,0,0,0-3.812,1.576c-2.07,2.631,1.493,2.392,3.641,3.463-.284.25-.553.505-.815.763a22.694,22.694,0,0,1-3.446-.4,2.332,2.332,0,0,0-.557-.068c-2.805,0-4.067,5.323-1.262,5.323a2.864,2.864,0,0,0,.648-.081,1.909,1.909,0,0,1,.438-.048,3.065,3.065,0,0,1,.836.13,8.27,8.27,0,0,0-.438,4.87c1.18,5.195,7.639,8.388,15.708,8.388a32.569,32.569,0,0,0,4.444-.311,12.562,12.562,0,0,1-.233,4.964,6.764,6.764,0,0,0,2.727.649,3.593,3.593,0,0,0,3.522-2.448,6.234,6.234,0,0,0-.286-4.454c9.746-3.067,16.244-9.888,14.846-16.041-.576-2.535-3.058-3.094-5.722-4.538.577-.141,1.62-1.081,2.406-1.081a.742.742,0,0,1,.489.167,1.6,1.6,0,0,0,.927.452c1.505,0,.176-5.517-2.228-5.517a1.739,1.739,0,0,0-.672.142,31.019,31.019,0,0,0-4.723,2.679,25.017,25.017,0,0,0-3.8-.594,2.078,2.078,0,0,1,.631-1.632s5.768-1.508,4-3.478a3.161,3.161,0,0,0-2.459-1.037,9.518,9.518,0,0,0-4.843,1.818,1.29,1.29,0,0,1-.7.254c-1.511,0-1.289-4.339.423-4.339a1.2,1.2,0,0,1,.394.071,1.561,1.561,0,0,0,.516.09c2.058,0,3.331-4.278-2.139-5.188a9.142,9.142,0,0,0-1.5-.128,6.7,6.7,0,0,0-6.245,4.142s-2.258-4.653-4.837-4.653m0-1.343c2.074,0,3.782,1.83,4.862,3.391a7.766,7.766,0,0,1,6.221-2.88,10.49,10.49,0,0,1,1.715.146c2.46.409,5.249,1.9,5.012,4.766a3.253,3.253,0,0,1-3.094,3.09,2.88,2.88,0,0,1-.782-.109,2.89,2.89,0,0,0-.214,1.326,10.39,10.39,0,0,1,5.205-1.8,4.508,4.508,0,0,1,3.459,1.483,2.339,2.339,0,0,1,.585,2.3c-.383,1.277-1.911,2.169-3.311,2.735q.32.059.633.126a29.6,29.6,0,0,1,4.466-2.482,3.076,3.076,0,0,1,1.19-.245,3.815,3.815,0,0,1,3.205,2.207c.863,1.494,1.384,3.769.65,5.039a1.873,1.873,0,0,1-1.01.855,5.394,5.394,0,0,1,2.591,3.462c1.494,6.573-4.549,13.664-14.486,17.2a6.544,6.544,0,0,1-.142,4.11,4.939,4.939,0,0,1-4.763,3.278,8.016,8.016,0,0,1-3.336-.8l-.98-.5.3-1.059a11.84,11.84,0,0,0,.332-3.111c-1.094.107-2.183.161-3.25.161-9.036,0-15.716-3.7-17.018-9.433a9.122,9.122,0,0,1-.039-3.827l-.136,0a2.884,2.884,0,0,1-2.919-3.161c0-2.141,1.5-4.51,3.7-4.815a2.228,2.228,0,0,1-.2-.45,3.184,3.184,0,0,1,.8-2.832,5.276,5.276,0,0,1,2.989-1.878c-2.444-.167-3.209-1.508-3.449-2.328-.658-2.258,1.3-5.152,3-6.234a4.6,4.6,0,0,1,2.512-.7,10.137,10.137,0,0,1,3.378.756l.25.089a3.044,3.044,0,0,0-1.615-1.7l-.839-.34-.014-.911a4.935,4.935,0,0,1,3.818-4.86,3.469,3.469,0,0,1,.726-.077Zm-1.927,8.74Zm-.5,7.656a4.344,4.344,0,0,0-1.59-.164h-.057c.457.063.885.139,1.271.207l.388.068a.875.875,0,0,0-.011-.111Z" transform="translate(-3835.994 -428.996)"/></g><g transform="translate(-2700.05 -52.499)"><g transform="translate(3835.994 428.996)"><path class="h" d="M3892.11,459.663a30.277,30.277,0,0,1-4.6.529c-.349-.344-.708-.685-1.086-1.018,2.863-1.429,7.615-1.11,4.854-4.618-3.4-4.326-10.995-.421-11.294-1.7-1.014-4.337,1.579-3.876,7.713-3.684,6.8.213,3.439-6.35.643-8.133-3.914-2.5-9.42,3.157-9.209-.427a5.708,5.708,0,0,1,3.484-4.825s0-3.939-3.677-4.73-7.041,6.142-7.041,6.142-2.431-6.665-10.32-5.352-5.26,7.878-2.163,6.8,3.338,7.468.155,5.351-7.378-3.667-9.736-1.041,5.333,4.637,5.333,4.637a2.77,2.77,0,0,1,.841,2.176,33.442,33.442,0,0,0-5.062.792,41.446,41.446,0,0,0-6.3-3.572c-4.294-1.8-6.689,9.9-2.63,6.565,1.033-.85,2.916.987,3.859,1.218-3.552,1.925-6.862,2.671-7.629,6.051-1.865,8.2,6.8,17.3,19.794,21.389a8.311,8.311,0,0,0-.381,5.939c2.269,5.485,8.333,2.4,8.333,2.4a16.745,16.745,0,0,1-.311-6.619c13.393,1.847,25.016-2.61,26.87-10.769a11.029,11.029,0,0,0-.584-6.493,3.4,3.4,0,0,1,1.7-.108C3898.789,467.762,3896.634,458.568,3892.11,459.663Z" transform="translate(-3836.204 -429.206)"/><path class="b" d="M3840.843,456.022c-1.7.424-.246-7.179,2.474-7.759,2.069-.441,6.67,3.321,5.416,3.469C3845.695,452.092,3843,455.482,3840.843,456.022Z" transform="translate(-3836.426 -431.014)"/><path class="b" d="M3886.006,443.192c-.685-1.609,7.2-2.5,8.645-.971,3.184,3.373,2.082,7.679.968,7.084C3893.326,448.079,3886.869,445.22,3886.006,443.192Z" transform="translate(-3841.237 -430.301)"/><path class="c" d="M3838.183,461.285c.071-1.246,9.219.61,9.8,2,.418,1-4.913,3.738-5.861,3.935C3840.3,467.592,3838.094,462.857,3838.183,461.285Z" transform="translate(-3836.223 -432.341)"/><path class="b" d="M3859.4,438.571c-2.628-1.68-.057-6.45,3.689-6.892,1.635-.192,6.907,0,5.96.838C3867.4,433.975,3861.162,436.891,3859.4,438.571Z" transform="translate(-3838.338 -429.27)"/><path class="b" d="M3879.07,433.97c-1.745-.106,1.982-4.154,5.217-2.8,1.4.588,4.209,5.1,2.968,4.869C3884.25,435.47,3881.291,434.1,3879.07,433.97Z" transform="translate(-3840.467 -429.195)"/><path class="c" d="M3894.668,465.1c-1.226-1.539,3.942-2.455,5.943-1.807,2.723.883,2.319,6.481,1.16,5.979C3898.965,468.052,3896.054,466.837,3894.668,465.1Z" transform="translate(-3842.131 -432.573)"/><path class="b" d="M3851.3,448.015c-1.72.316-.806-4.53,1.137-5.334,2.144-.886,7.21.682,6.269,1.388C3856.262,445.9,3853.491,447.613,3851.3,448.015Z" transform="translate(-3837.505 -430.404)"/><path class="c" d="M3890.873,456.456c-1.3-1.173,5.188-2.87,6.359-1.122.846,1.264.622,6.032-.2,5.072C3895.043,458.083,3892.523,457.949,3890.873,456.456Z" transform="translate(-3841.735 -431.681)"/><path class="c" d="M3838.859,471.373a18.328,18.328,0,0,0,4.113,6.227c1.868-.618,5.576-2.258,5.315-3.11C3847.872,473.143,3839.983,470.652,3838.859,471.373Z" transform="translate(-3836.294 -433.429)"/><path class="c" d="M3897.028,480.442c-2.229-.638-9.678.333-9.392,1.418a9.48,9.48,0,0,0,3.869,4.227A13.316,13.316,0,0,0,3897.028,480.442Z" transform="translate(-3841.412 -434.373)"/><path class="c" d="M3893.483,476.709c.479.912,2.767,1.315,4.652,1.823.091-.284.174-.571.24-.865a10.273,10.273,0,0,0,.138-3.731C3895.917,474.739,3893.143,476.06,3893.483,476.709Z" transform="translate(-3842.023 -433.712)"/><path class="d" d="M3873.019,450.409s.376,11.061-1.1,12.833-4.874,22.682-1.757,22.455,11.11-32.748,12.4-34.51" transform="translate(-3839.445 -431.243)"/><path class="d" d="M3860.171,448.615s.265,10.636.492,13.605c.176,2.3,2.306,20.536,5.43,20.549s.48-29.784,1.9-31.443Z" transform="translate(-3838.531 -431.055)"/><path class="d" d="M3870.842,443.392s-.775,7.8-.9,12.14c-.065,2.308-.971,24.164,2.155,24.177s4.956-33.716,6.38-35.374Z" transform="translate(-3839.538 -430.507)"/><path class="e" d="M3876.4,466.363s-.041,8.9.186,11.872c.176,2.3-2.954,9.124.171,9.138s6.946-19.18,8.37-20.838Z" transform="translate(-3840.125 -432.917)"/><path class="d" d="M3850.689,459.611s1.262,8.813,1.922,11.716c.511,2.253,3.151,13.037,6.245,12.593s-.674-23.567.492-25.416Z" transform="translate(-3837.536 -432.092)"/><path class="d" d="M3883.483,461.123s-2.189,8.63-2.685,11.566c-.385,2.277-2.051,13.254.978,14.021s7.277-23.11,9.06-24.374Z" transform="translate(-3840.611 -432.367)"/><path class="c" d="M3882.845,472.811c-.181-1.235,8.823-1.322,9.669-.081.612.9-3.6,5.837-4.018,5.036C3887.684,476.2,3883.075,474.369,3882.845,472.811Z" transform="translate(-3840.91 -433.492)"/><path class="b" d="M3873.5,450.3c-.182-1.235,9.152-1.261,10-.02.611.9-3.5,2.636-4.948,5.036C3877.593,456.9,3873.733,451.856,3873.5,450.3Z" transform="translate(-3839.93 -431.133)"/><path class="c" d="M3876.442,477.912c-.182-1.236,9.152-1.261,10-.021.611.9-4.058,4.652-4.948,5.036C3879.789,483.662,3876.671,479.468,3876.442,477.912Z" transform="translate(-3840.238 -434.03)"/><path class="c" d="M3875.42,465.394c-.182-1.235,9.152-1.26,10-.02.611.9-4.059,4.652-4.948,5.036C3878.766,471.145,3875.649,466.951,3875.42,465.394Z" transform="translate(-3840.131 -432.717)"/><path class="c" d="M3847.521,468.69c.2-1.232,8.806,1.433,9.233,2.873.308,1.041-5.213,4.458-5.363,3.569C3851.1,473.392,3847.265,470.243,3847.521,468.69Z" transform="translate(-3837.202 -433.128)"/><path class="b" d="M3859.568,448.16c.178-1.236,8.833,1.25,9.29,2.681.33,1.035-5.119,4.566-5.288,3.68C3863.239,452.786,3859.344,449.718,3859.568,448.16Z" transform="translate(-3838.467 -430.972)"/><path class="c" d="M3855.631,466.49c.2-1.233,8.806,1.433,9.233,2.873.308,1.041-5.213,4.458-5.363,3.569C3859.2,471.192,3855.374,468.042,3855.631,466.49Z" transform="translate(-3838.053 -432.897)"/><path class="c" d="M3866.088,481.408c-.182-1.235,9.152-1.261,10-.02.611.9-3.5,2.636-4.948,5.036C3870.177,488.011,3866.317,482.965,3866.088,481.408Z" transform="translate(-3839.151 -434.397)"/><path class="b" d="M3849.489,458.322c-.182-1.235,9.153-1.261,10-.02.612.9-4.058,4.652-4.947,5.036C3852.836,464.073,3849.718,459.879,3849.489,458.322Z" transform="translate(-3837.409 -431.975)"/><path class="c" d="M3857.685,476.366c-.183-1.235,9.152-1.261,10-.021.611.9-4.059,4.652-4.948,5.036C3861.031,482.117,3857.914,477.922,3857.685,476.366Z" transform="translate(-3838.27 -433.868)"/><path class="c" d="M3861.773,460.043c-.255-1.73,11.516-1.767,12.7-.029.856,1.258-4.7,7.911-5.628,7.053C3866.939,465.3,3862.094,462.223,3861.773,460.043Z" transform="translate(-3838.698 -432.116)"/><path class="c" d="M3868.918,472.747c-.182-1.235,9.153-1.261,10-.021.612.9-3.5,2.636-4.947,5.036C3873.009,479.349,3869.148,474.3,3868.918,472.747Z" transform="translate(-3839.448 -433.488)"/><path class="c" d="M3862.853,485.6c-.761-.947-6.774-.612-8.9.2a43.386,43.386,0,0,0,5.764,2.267C3859.4,488.935,3863.532,486.446,3862.853,485.6Z" transform="translate(-3837.879 -434.875)"/><path class="c" d="M3856.929,480.413c-.533-1.4-9.618-3.551-9.729-2.307a8.833,8.833,0,0,0,1.3,4.036q1.431.965,3.034,1.833C3853.235,483.339,3857.263,481.294,3856.929,480.413Z" transform="translate(-3837.169 -434.11)"/><path class="b" d="M3870.967,443.318c-.1-1.02,7.282-.731,7.926.32.466.76-3.186,4.638-3.493,3.966C3874.8,446.287,3871.092,444.6,3870.967,443.318Z" transform="translate(-3839.664 -430.432)"/><path class="c" d="M3886.014,486.135c-.94-1.172-9.911-.382-9.633.835.219.962,2.165,1.9,3.815,2.831a31.58,31.58,0,0,0,4.818-.952C3885.764,487.681,3886.307,486.5,3886.014,486.135Z" transform="translate(-3840.231 -434.931)"/><path class="c" d="M3884.166,460.922c-.1-1.02,7.283-.731,7.927.32.465.76-3.186,4.638-3.494,3.966C3888,463.891,3884.292,462.207,3884.166,460.922Z" transform="translate(-3841.049 -432.28)"/><path class="i" d="M3892.11,459.663a30.277,30.277,0,0,1-4.6.529c-.349-.344-.708-.685-1.086-1.018,2.863-1.429,7.615-1.11,4.854-4.618-3.4-4.326-10.995-.421-11.294-1.7-1.014-4.337,1.579-3.876,7.713-3.684,6.8.213,3.439-6.35.643-8.133-3.914-2.5-9.42,3.157-9.209-.427a5.708,5.708,0,0,1,3.484-4.825s0-3.939-3.677-4.73-7.041,6.142-7.041,6.142-2.431-6.665-10.32-5.352-5.26,7.878-2.163,6.8,3.338,7.468.155,5.351-7.378-3.667-9.736-1.041,5.333,4.637,5.333,4.637a2.77,2.77,0,0,1,.841,2.176,33.442,33.442,0,0,0-5.062.792,41.446,41.446,0,0,0-6.3-3.572c-4.294-1.8-6.689,9.9-2.63,6.565,1.033-.85,2.916.987,3.859,1.218-3.552,1.925-6.862,2.671-7.629,6.051-1.865,8.2,6.8,17.3,19.794,21.389a8.311,8.311,0,0,0-.381,5.939c2.269,5.485,8.333,2.4,8.333,2.4a16.745,16.745,0,0,1-.311-6.619c13.393,1.847,25.016-2.61,26.87-10.769a11.029,11.029,0,0,0-.584-6.493,3.4,3.4,0,0,1,1.7-.108C3898.789,467.762,3896.634,458.568,3892.11,459.663Z" transform="translate(-3836.204 -429.206)"/><path class="g" d="M3878.14,430.786a2.781,2.781,0,0,1,.592.064c3.677.789,3.677,4.729,3.677,4.729a5.708,5.708,0,0,0-3.484,4.825c-.054.916.265,1.228.835,1.228,1.233,0,3.637-1.461,5.985-1.461a4.346,4.346,0,0,1,2.389.66c2.751,1.754,6.048,8.138-.327,8.138q-.155,0-.317-.005c-1.564-.049-2.9-.115-4-.115-3.222,0-4.468.567-3.713,3.8.046.2.266.271.616.271,1.056,0,3.305-.673,5.595-.673a6.1,6.1,0,0,1,5.083,2.1c2.76,3.508-1.991,3.189-4.855,4.618.379.333.738.674,1.087,1.018a30.281,30.281,0,0,0,4.6-.529,3.1,3.1,0,0,1,.742-.091c3.74,0,5.423,7.1,1.683,7.1a3.824,3.824,0,0,1-.864-.108,2.54,2.54,0,0,0-.584-.064,4.083,4.083,0,0,0-1.115.173,11.029,11.029,0,0,1,.584,6.493c-1.573,6.926-10.186,11.184-20.945,11.184a43.427,43.427,0,0,1-5.925-.414,16.745,16.745,0,0,0,.311,6.619,9.021,9.021,0,0,1-3.637.866,4.79,4.79,0,0,1-4.7-3.264,8.311,8.311,0,0,1,.381-5.939c-12.995-4.089-21.659-13.184-19.794-21.389.768-3.38,4.078-4.125,7.629-6.051-.769-.188-2.16-1.441-3.208-1.441a.989.989,0,0,0-.652.223,2.134,2.134,0,0,1-1.237.6c-2.007,0-.235-7.357,2.97-7.357a2.316,2.316,0,0,1,.9.189,41.344,41.344,0,0,1,6.3,3.572,33.356,33.356,0,0,1,5.063-.792,2.77,2.77,0,0,0-.841-2.176s-7.691-2.011-5.333-4.637a4.215,4.215,0,0,1,3.279-1.383,12.691,12.691,0,0,1,6.457,2.424,1.72,1.72,0,0,0,.935.339c2.015,0,1.718-5.785-.564-5.785a1.6,1.6,0,0,0-.525.095,2.083,2.083,0,0,1-.688.12c-2.744,0-4.441-5.7,2.852-6.918a12.184,12.184,0,0,1,1.993-.171,8.926,8.926,0,0,1,8.327,5.523s3.011-6.2,6.449-6.2m0-1.79c-2.766,0-5.043,2.44-6.482,4.522a10.355,10.355,0,0,0-8.295-3.84,13.986,13.986,0,0,0-2.287.2c-3.28.546-7,2.538-6.683,6.354a4.336,4.336,0,0,0,4.124,4.12,3.839,3.839,0,0,0,1.043-.146,3.856,3.856,0,0,1,.285,1.769,13.854,13.854,0,0,0-6.941-2.4,6.011,6.011,0,0,0-4.612,1.977,3.117,3.117,0,0,0-.78,3.072c.511,1.7,2.548,2.892,4.415,3.646q-.427.079-.844.168a39.463,39.463,0,0,0-5.955-3.31,4.1,4.1,0,0,0-1.586-.327c-1.66,0-3.178,1.045-4.274,2.942-1.151,1.992-1.845,5.025-.867,6.719a2.5,2.5,0,0,0,1.346,1.139,7.193,7.193,0,0,0-3.454,4.616c-1.992,8.765,6.066,18.219,19.314,22.927a8.729,8.729,0,0,0,.19,5.48A6.586,6.586,0,0,0,3862.15,493a10.691,10.691,0,0,0,4.448-1.061l1.307-.665-.395-1.412a15.78,15.78,0,0,1-.443-4.148c1.459.142,2.911.215,4.334.215,12.049,0,20.954-4.937,22.69-12.578a12.159,12.159,0,0,0,.052-5.1c.061,0,.122,0,.182,0,2.327,0,3.892-1.693,3.892-4.214,0-2.854-2-6.014-4.935-6.419a2.978,2.978,0,0,0,.272-.6c.557-1.7-.67-3.263-1.073-3.775a7.034,7.034,0,0,0-3.985-2.5c3.258-.222,4.279-2.01,4.6-3.1.878-3.011-1.736-6.87-4-8.312a6.128,6.128,0,0,0-3.35-.94,13.515,13.515,0,0,0-4.5,1.008l-.334.118a4.061,4.061,0,0,1,2.153-2.261l1.119-.453.019-1.215a6.581,6.581,0,0,0-5.09-6.479,4.623,4.623,0,0,0-.968-.1Zm2.57,11.653Zm.661,10.207a5.793,5.793,0,0,1,2.121-.218h.076c-.609.084-1.18.185-1.694.277l-.517.09a1.142,1.142,0,0,1,.015-.149Z" transform="translate(-3835.994 -428.996)"/></g></g><g transform="translate(1211.277 421)"><path class="a" d="M3841.394,452.5a22.686,22.686,0,0,0,3.446.4c.262-.258.531-.513.814-.763-2.147-1.071-5.711-.832-3.641-3.463,2.554-3.244,8.246-.315,8.47-1.275.761-3.253-1.184-2.907-5.784-2.763-5.1.16-2.58-4.763-.482-6.1,2.936-1.872,7.065,2.368,6.907-.32a4.28,4.28,0,0,0-2.613-3.619,3.659,3.659,0,0,1,2.758-3.547c2.757-.593,5.28,4.606,5.28,4.606a6.761,6.761,0,0,1,7.74-4.014c5.917.985,3.945,5.909,1.623,5.1s-2.5,5.6-.116,4.013,5.534-2.75,7.3-.781-4,3.478-4,3.478a2.079,2.079,0,0,0-.631,1.632,25.085,25.085,0,0,1,3.8.594,31.081,31.081,0,0,1,4.723-2.679c3.221-1.347,5.017,7.429,1.973,4.924-.775-.638-2.187.74-2.9.914,2.664,1.444,5.146,2,5.722,4.538,1.4,6.153-5.1,12.975-14.846,16.041a6.234,6.234,0,0,1,.286,4.454c-1.7,4.114-6.25,1.8-6.25,1.8a12.562,12.562,0,0,0,.233-4.964c-10.044,1.385-18.762-1.958-20.152-8.077a8.268,8.268,0,0,1,.438-4.87,2.551,2.551,0,0,0-1.275-.081C3836.384,458.57,3838,451.675,3841.394,452.5Z" transform="translate(-3836.656 -429.653)"/><path class="b" d="M3846.192,454.073c1.272.318.185-5.385-1.855-5.82-1.551-.331-5,2.491-4.061,2.6C3842.553,451.126,3844.573,453.668,3846.192,454.073Z" transform="translate(-3802.837 -435.317)"/><path class="b" d="M3894.02,442.751c.514-1.207-5.4-1.876-6.483-.728-2.388,2.529-1.562,5.759-.726,5.313C3888.53,446.417,3893.373,444.272,3894.02,442.751Z" transform="translate(-3880.929 -433.083)"/><path class="c" d="M3845.546,461.182c-.053-.934-6.914.458-7.348,1.5-.313.752,3.685,2.8,4.4,2.951C3843.957,465.913,3845.612,462.361,3845.546,461.182Z" transform="translate(-3800.349 -439.474)"/><path class="b" d="M3865.65,436.831c1.971-1.26.043-4.837-2.767-5.169-1.226-.144-5.181,0-4.47.628C3859.65,433.384,3864.33,435.571,3865.65,436.831Z" transform="translate(-3834.781 -429.855)"/><path class="b" d="M3885,433.2c1.309-.079-1.487-3.116-3.913-2.1-1.052.441-3.157,3.828-2.226,3.652C3881.11,434.326,3883.33,433.3,3885,433.2Z" transform="translate(-3867.28 -429.62)"/><path class="c" d="M3900.477,464.593c.919-1.154-2.957-1.841-4.458-1.355-2.042.662-1.739,4.861-.87,4.484C3897.255,466.809,3899.438,465.9,3900.477,464.593Z" transform="translate(-3893.213 -440.199)"/><path class="b" d="M3856.036,446.615c1.29.237.6-3.4-.853-4-1.608-.665-5.408.512-4.7,1.041A15.47,15.47,0,0,0,3856.036,446.615Z" transform="translate(-3819.718 -433.407)"/><path class="c" d="M3895.874,455.988c.972-.88-3.892-2.153-4.77-.842-.634.948-.467,4.524.15,3.8C3892.746,457.208,3894.636,457.108,3895.874,455.988Z" transform="translate(-3886.061 -437.407)"/><path class="c" d="M3845.939,471.341a13.75,13.75,0,0,1-3.085,4.67c-1.4-.463-4.182-1.694-3.986-2.333C3839.179,472.668,3845.1,470.8,3845.939,471.341Z" transform="translate(-3801.196 -442.883)"/><path class="c" d="M3887.628,480.391c1.672-.479,7.259.25,7.044,1.063a7.111,7.111,0,0,1-2.9,3.171A9.99,9.99,0,0,1,3887.628,480.391Z" transform="translate(-3882.673 -445.839)"/><path class="c" d="M3897.308,476.016c-.359.684-2.075.986-3.489,1.367-.068-.213-.131-.428-.18-.648a7.7,7.7,0,0,1-.1-2.8C3895.482,474.539,3897.563,475.529,3897.308,476.016Z" transform="translate(-3889.236 -443.768)"/><path class="d" d="M3876.04,450.409s-.282,8.3.828,9.625,3.655,17.011,1.318,16.841-8.333-24.561-9.3-25.883" transform="translate(-3854.554 -436.034)"/><path class="d" d="M3866.042,448.615s-.2,7.977-.369,10.2c-.132,1.727-1.729,15.4-4.073,15.412s-.36-22.338-1.428-23.582Z" transform="translate(-3835.605 -435.445)"/><path class="d" d="M3875.5,443.392s.581,5.848.673,9.1c.049,1.731.729,18.123-1.616,18.133s-3.717-25.287-4.785-26.53Z" transform="translate(-3852.311 -433.728)"/><path class="e" d="M3881.913,466.363s.031,6.677-.14,8.9c-.132,1.727,2.215,6.843-.128,6.853s-5.209-14.385-6.278-15.629Z" transform="translate(-3862.454 -441.279)"/><path class="d" d="M3857.751,459.334s-.947,6.61-1.441,8.787c-.383,1.69-2.364,9.777-4.684,9.445s.505-17.675-.369-19.062Z" transform="translate(-3820.949 -438.695)"/><path class="d" d="M3885.509,461.123s1.642,6.473,2.014,8.675c.289,1.708,1.538,9.941-.734,10.516s-5.458-17.332-6.794-18.281Z" transform="translate(-3870.996 -439.556)"/><path class="c" d="M3890.14,472.569c.136-.926-6.617-.992-7.251-.061-.459.673,2.7,4.378,3.013,3.777C3886.511,475.109,3889.968,473.737,3890.14,472.569Z" transform="translate(-3874.925 -443.079)"/><path class="b" d="M3881.046,450.064c.136-.926-6.864-.946-7.5-.015-.458.673,2.621,1.977,3.711,3.777C3877.979,455.016,3880.874,451.232,3881.046,450.064Z" transform="translate(-3859.56 -435.69)"/><path class="c" d="M3883.979,477.677c.136-.927-6.864-.946-7.5-.015-.458.673,3.044,3.489,3.711,3.777C3881.468,481.99,3883.807,478.845,3883.979,477.677Z" transform="translate(-3864.465 -444.766)"/><path class="c" d="M3882.957,465.159c.137-.926-6.864-.945-7.5-.015-.458.673,3.044,3.489,3.711,3.777C3880.447,469.473,3882.785,466.327,3882.957,465.159Z" transform="translate(-3862.757 -440.652)"/><path class="c" d="M3854.443,468.611c-.153-.924-6.6,1.075-6.924,2.155-.231.781,3.91,3.344,4.022,2.676C3851.762,472.137,3854.635,469.775,3854.443,468.611Z" transform="translate(-3815.516 -441.939)"/><path class="b" d="M3866.537,448.076c-.134-.927-6.625.938-6.968,2.011-.248.776,3.839,3.424,3.966,2.76C3863.784,451.546,3866.706,449.245,3866.537,448.076Z" transform="translate(-3835.697 -435.185)"/><path class="c" d="M3862.552,466.411c-.153-.924-6.6,1.075-6.924,2.155-.231.781,3.909,3.344,4.022,2.676C3859.871,469.937,3862.744,467.575,3862.552,466.411Z" transform="translate(-3829.068 -441.216)"/><path class="c" d="M3873.63,481.173c.137-.926-6.864-.946-7.5-.015-.458.673,2.622,1.977,3.711,3.777C3870.563,486.125,3873.458,482.341,3873.63,481.173Z" transform="translate(-3847.165 -445.915)"/><path class="b" d="M3857.026,458.087c.137-.926-6.865-.946-7.5-.015-.459.673,3.043,3.489,3.71,3.777C3854.516,462.4,3856.854,459.255,3857.026,458.087Z" transform="translate(-3819.418 -438.327)"/><path class="c" d="M3865.222,476.131c.137-.926-6.864-.946-7.5-.016-.459.673,3.044,3.489,3.711,3.777C3862.712,480.444,3865.05,477.3,3865.222,476.131Z" transform="translate(-3833.116 -444.258)"/><path class="c" d="M3871.362,459.714c.191-1.3-8.637-1.325-9.526-.021-.642.943,3.526,5.933,4.221,5.29C3867.488,463.659,3871.122,461.349,3871.362,459.714Z" transform="translate(-3842.002 -438.769)"/><path class="c" d="M3876.461,472.512c.136-.926-6.865-.946-7.5-.015-.459.673,2.621,1.977,3.71,3.777C3873.393,477.464,3876.289,473.68,3876.461,472.512Z" transform="translate(-3851.897 -443.068)"/><path class="c" d="M3854.012,485.455c.571-.71,5.081-.459,6.673.146a32.547,32.547,0,0,1-4.323,1.7C3856.6,487.957,3853.5,486.091,3854.012,485.455Z" transform="translate(-3826.076 -447.412)"/><path class="c" d="M3847.208,479.743c.4-1.053,7.214-2.663,7.3-1.731a6.632,6.632,0,0,1-.978,3.027q-1.074.724-2.276,1.375C3849.979,481.937,3846.957,480.4,3847.208,479.743Z" transform="translate(-3815.362 -445.016)"/><path class="b" d="M3876.941,443.16c.075-.765-5.461-.548-5.944.24-.349.57,2.389,3.479,2.62,2.975C3874.07,445.386,3876.848,444.124,3876.941,443.16Z" transform="translate(-3853.752 -433.495)"/><path class="c" d="M3876.436,485.991c.7-.879,7.433-.287,7.225.626-.165.722-1.624,1.423-2.862,2.123a23.682,23.682,0,0,1-3.614-.714C3876.623,487.151,3876.216,486.265,3876.436,485.991Z" transform="translate(-3864.106 -447.588)"/><path class="c" d="M3890.141,460.763c.074-.765-5.462-.548-5.945.24-.349.57,2.389,3.479,2.62,2.974C3887.268,462.99,3890.046,461.727,3890.141,460.763Z" transform="translate(-3875.812 -439.282)"/><path class="f" d="M3841.394,452.5a22.686,22.686,0,0,0,3.446.4c.262-.258.531-.513.814-.763-2.147-1.071-5.711-.832-3.641-3.463,2.554-3.244,8.246-.315,8.47-1.275.761-3.253-1.184-2.907-5.784-2.763-5.1.16-2.58-4.763-.482-6.1,2.936-1.872,7.065,2.368,6.907-.32a4.28,4.28,0,0,0-2.613-3.619,3.659,3.659,0,0,1,2.758-3.547c2.757-.593,5.28,4.606,5.28,4.606a6.761,6.761,0,0,1,7.74-4.014c5.917.985,3.945,5.909,1.623,5.1s-2.5,5.6-.116,4.013,5.534-2.75,7.3-.781-4,3.478-4,3.478a2.079,2.079,0,0,0-.631,1.632,25.085,25.085,0,0,1,3.8.594,31.081,31.081,0,0,1,4.723-2.679c3.221-1.347,5.017,7.429,1.973,4.924-.775-.638-2.187.74-2.9.914,2.664,1.444,5.146,2,5.722,4.538,1.4,6.153-5.1,12.975-14.846,16.041a6.234,6.234,0,0,1,.286,4.454c-1.7,4.114-6.25,1.8-6.25,1.8a12.562,12.562,0,0,0,.233-4.964c-10.044,1.385-18.762-1.958-20.152-8.077a8.268,8.268,0,0,1,.438-4.87,2.551,2.551,0,0,0-1.275-.081C3836.384,458.57,3838,451.675,3841.394,452.5Z" transform="translate(-3836.656 -429.653)"/><path class="g" d="M3851.051,430.339a2.089,2.089,0,0,0-.444.048,3.658,3.658,0,0,0-2.758,3.547,4.28,4.28,0,0,1,2.613,3.619c.04.687-.2.921-.626.921-.924,0-2.728-1.1-4.489-1.1a3.26,3.26,0,0,0-1.792.495c-2.063,1.316-4.536,6.1.245,6.1.077,0,.156,0,.238,0,1.173-.037,2.172-.087,3-.087,2.416,0,3.351.426,2.784,2.85-.034.148-.2.2-.462.2-.792,0-2.479-.5-4.2-.5a4.578,4.578,0,0,0-3.812,1.576c-2.07,2.631,1.493,2.392,3.641,3.463-.284.25-.553.505-.815.763a22.694,22.694,0,0,1-3.446-.4,2.332,2.332,0,0,0-.557-.068c-2.805,0-4.067,5.323-1.262,5.323a2.864,2.864,0,0,0,.648-.081,1.909,1.909,0,0,1,.438-.048,3.065,3.065,0,0,1,.836.13,8.27,8.27,0,0,0-.438,4.87c1.18,5.195,7.639,8.388,15.708,8.388a32.569,32.569,0,0,0,4.444-.311,12.562,12.562,0,0,1-.233,4.964,6.764,6.764,0,0,0,2.727.649,3.593,3.593,0,0,0,3.522-2.448,6.234,6.234,0,0,0-.286-4.454c9.746-3.067,16.244-9.888,14.846-16.041-.576-2.535-3.058-3.094-5.722-4.538.577-.141,1.62-1.081,2.406-1.081a.742.742,0,0,1,.489.167,1.6,1.6,0,0,0,.927.452c1.505,0,.176-5.517-2.228-5.517a1.739,1.739,0,0,0-.672.142,31.019,31.019,0,0,0-4.723,2.679,25.017,25.017,0,0,0-3.8-.594,2.078,2.078,0,0,1,.631-1.632s5.768-1.508,4-3.478a3.161,3.161,0,0,0-2.459-1.037,9.518,9.518,0,0,0-4.843,1.818,1.29,1.29,0,0,1-.7.254c-1.511,0-1.289-4.339.423-4.339a1.2,1.2,0,0,1,.394.071,1.561,1.561,0,0,0,.516.09c2.058,0,3.331-4.278-2.139-5.188a9.142,9.142,0,0,0-1.5-.128,6.7,6.7,0,0,0-6.245,4.142s-2.258-4.653-4.837-4.653m0-1.343c2.074,0,3.782,1.83,4.862,3.391a7.766,7.766,0,0,1,6.221-2.88,10.49,10.49,0,0,1,1.715.146c2.46.409,5.249,1.9,5.012,4.766a3.253,3.253,0,0,1-3.094,3.09,2.88,2.88,0,0,1-.782-.109,2.89,2.89,0,0,0-.214,1.326,10.39,10.39,0,0,1,5.205-1.8,4.508,4.508,0,0,1,3.459,1.483,2.339,2.339,0,0,1,.585,2.3c-.383,1.277-1.911,2.169-3.311,2.735q.32.059.633.126a29.6,29.6,0,0,1,4.466-2.482,3.076,3.076,0,0,1,1.19-.245,3.815,3.815,0,0,1,3.205,2.207c.863,1.494,1.384,3.769.65,5.039a1.873,1.873,0,0,1-1.01.855,5.394,5.394,0,0,1,2.591,3.462c1.494,6.573-4.549,13.664-14.486,17.2a6.544,6.544,0,0,1-.142,4.11,4.939,4.939,0,0,1-4.763,3.278,8.016,8.016,0,0,1-3.336-.8l-.98-.5.3-1.059a11.84,11.84,0,0,0,.332-3.111c-1.094.107-2.183.161-3.25.161-9.036,0-15.716-3.7-17.018-9.433a9.122,9.122,0,0,1-.039-3.827l-.136,0a2.884,2.884,0,0,1-2.919-3.161c0-2.141,1.5-4.51,3.7-4.815a2.228,2.228,0,0,1-.2-.45,3.184,3.184,0,0,1,.8-2.832,5.276,5.276,0,0,1,2.989-1.878c-2.444-.167-3.209-1.508-3.449-2.328-.658-2.258,1.3-5.152,3-6.234a4.6,4.6,0,0,1,2.512-.7,10.137,10.137,0,0,1,3.378.756l.25.089a3.044,3.044,0,0,0-1.615-1.7l-.839-.34-.014-.911a4.935,4.935,0,0,1,3.818-4.86,3.469,3.469,0,0,1,.726-.077Zm-1.927,8.74Zm-.5,7.656a4.344,4.344,0,0,0-1.59-.164h-.057c.457.063.885.139,1.271.207l.388.068a.875.875,0,0,0-.011-.111Z" transform="translate(-3835.994 -428.996)"/></g></g></svg>