<svg width="45" height="60" viewBox="0 0 45 60" fill="none" xmlns="../../../www.w3.org/2000/svg.html">
<path fill-rule="evenodd" clip-rule="evenodd" d="M31.8972 0H31.883H5C2.23858 0 0 2.23858 0 5V55C0 57.7614 2.23858 60 5 60H40C42.7614 60 45 57.7614 45 55V13.5275L41 9.39788V9.47914L35.7302 4H35.7716L31.8972 0ZM30 4H30.1803L40.7601 15H32C30.8954 15 30 14.1046 30 13V4ZM26 4H6C4.89543 4 4 4.89543 4 6V54C4 55.1046 4.89543 56 6 56H39C40.1046 56 41 55.1046 41 54V19H31C28.2386 19 26 16.7614 26 14V4Z" fill="#282A35"/>
<path fill-rule="evenodd" clip-rule="evenodd" d="M13.0388 35.3154L16.9125 39.2109C17.3019 39.6025 17.3001 40.2356 16.9085 40.6251L14.7812 42.7404C14.3896 43.1299 13.7565 43.1281 13.367 42.7365L6.79871 36.1312C6.75231 36.0845 6.71146 36.0344 6.67616 35.9817C6.3181 35.5908 6.32677 34.9834 6.70408 34.6028L13.2628 27.988C13.6517 27.5959 14.2848 27.5932 14.677 27.982L16.8073 30.0943C17.1995 30.4832 17.2022 31.1163 16.8134 31.5085L13.0388 35.3154Z" fill="#282A35"/>
<path fill-rule="evenodd" clip-rule="evenodd" d="M31.4385 35.9057L27.566 32.0089C27.1767 31.6172 27.1787 30.984 27.5704 30.5947L29.6984 28.48C30.0901 28.0907 30.7233 28.0927 31.1126 28.4845L37.6788 35.0918C37.7252 35.1385 37.766 35.1886 37.8013 35.2413C38.1592 35.6324 38.1504 36.2398 37.7729 36.6202L31.2121 43.2329C30.8231 43.625 30.1899 43.6275 29.7979 43.2385L27.6682 41.1255C27.2762 40.7365 27.2737 40.1034 27.6627 39.7113L31.4385 35.9057Z" fill="#282A35"/>
<rect x="23.95" y="22.446" width="4.44649" height="26.0147" rx="1" transform="rotate(16.5498 23.95 22.446)" fill="#282A35"/>
</svg>
