<svg width="151" height="132" viewBox="0 0 151 132" fill="none" xmlns="../../../www.w3.org/2000/svg.html">
<path fill-rule="evenodd" clip-rule="evenodd" d="M18 0C8.05887 0 0 8.05887 0 18V114C0 123.941 8.05887 132 18 132H133C142.941 132 151 123.941 151 114V18C151 8.05888 142.941 0 133 0H18ZM19 9C13.4772 9 9 13.4772 9 19V113C9 118.523 13.4772 123 19 123H132C137.523 123 142 118.523 142 113V19C142 13.4772 137.523 9 132 9H19Z" fill="#282A35"/>
<circle cx="24" cy="23" r="5" fill="#282A35"/>
<circle cx="52" cy="23" r="5" fill="#282A35"/>
<circle cx="38" cy="23" r="5" fill="#282A35"/>
<path fill-rule="evenodd" clip-rule="evenodd" d="M89.1798 30.6704C90.1618 28.4432 93.3219 28.4432 94.3039 30.6704L99.8098 43.1584H99.7948L102.942 50.1622L110.465 53.5681V53.4704L122.915 59.048C125.121 60.0367 125.121 63.1698 122.915 64.1585L112.463 68.8411C112.276 68.967 112.076 69.079 111.863 69.1751L102.937 73.2159L100.095 79.5419H100.214L100.016 79.9902L94.307 92.9395C93.325 95.1667 90.1649 95.1667 89.1829 92.9395L83.4736 79.9902L83.276 79.5419H83.4458L80.6036 73.2159L73.2442 69.8843V69.9857L73.1378 69.9381L60.2308 64.1555C58.0239 63.1667 58.0239 60.0337 60.2308 59.0449L73.1378 53.2623L73.2442 53.2146V53.3948L80.6036 50.0632L83.7059 43.1584H83.674L89.1798 30.6704ZM84.7141 57.0789C84.5017 57.2301 84.2718 57.363 84.0256 57.4744L74.9994 61.5605C74.9375 61.5885 74.8753 61.6149 74.8129 61.6396C74.8753 61.6642 74.9375 61.6906 74.9994 61.7186L84.0256 65.8047C84.2718 65.9161 84.5017 66.049 84.7141 66.2002C86.6711 67.1544 87.6248 68.5124 88.4105 70.7795L91.7704 78.258L95.1304 70.7795C95.9161 68.5124 96.8697 67.1544 98.8268 66.2002C99.0392 66.049 99.2691 65.9161 99.5153 65.8047L108.541 61.7186C108.564 61.7082 108.587 61.698 108.61 61.6881C108.589 61.6788 108.567 61.6692 108.546 61.6595L99.5195 57.5734C99.2734 57.4619 99.0435 57.329 98.8311 57.1779C96.874 56.2237 95.9204 54.8657 95.1347 52.5986L91.7503 45.0659L88.4105 52.4996C87.6248 54.7667 86.6711 56.1247 84.7141 57.0789Z" fill="#282A35"/>
<path fill-rule="evenodd" clip-rule="evenodd" d="M54.492 77.5684C55.1089 76.1632 57.0789 76.1632 57.6959 77.5684L60.5723 84.1202H60.564L62.3107 88.0245L66.487 89.923V89.8686L72.9589 92.7805C74.347 93.405 74.347 95.3993 72.9589 96.0239L67.6051 98.4327C67.5017 98.5026 67.3912 98.5648 67.274 98.618L62.3083 100.876L60.7307 104.402H60.7966L60.6869 104.652L57.6976 111.461C57.0806 112.866 55.1106 112.866 54.4936 111.461L51.5043 104.652L51.3946 104.402H51.4889L49.9112 100.876L45.8261 99.0184V99.0749L45.7671 99.0483L39.0411 96.0221C37.653 95.3976 37.653 93.4033 39.0411 92.7787L45.7671 89.7525L45.8261 89.726V89.8264L49.9112 87.9693L51.6332 84.1202H51.6155L54.492 77.5684ZM52.203 91.8752C52.0855 91.9595 51.9581 92.0336 51.8217 92.0956L46.7895 94.3833C46.7592 94.3971 46.7288 94.4101 46.6983 94.4224C46.7288 94.4347 46.7592 94.4477 46.7895 94.4615L51.8217 96.7492C51.9581 96.8113 52.0855 96.8853 52.203 96.9696C53.2825 97.5013 53.81 98.2576 54.2447 99.5175L56.1098 103.686L57.9748 99.5175C58.4096 98.2576 58.937 97.5013 60.0165 96.9696C60.1341 96.8853 60.2615 96.8113 60.3979 96.7492L65.4301 94.4615L65.457 94.4495L65.4325 94.4385L60.4003 92.1508C60.2638 92.0887 60.1365 92.0147 60.0189 91.9303C58.9394 91.3986 58.4119 90.6424 57.9772 89.3825L56.0986 85.1836L54.2447 89.3274C53.81 90.5872 53.2825 91.3435 52.203 91.8752Z" fill="#282A35"/>
<rect width="15.9008" height="15.7588" transform="matrix(-0.683493 0.729957 0.729957 0.683493 56.057 83.2645)" fill="#282A35"/>
<path fill-rule="evenodd" clip-rule="evenodd" d="M37.5365 45.1878C37.9307 44.2901 39.1893 44.2901 39.5835 45.1878L41.4212 49.3737H41.4159L42.5318 51.8681L45.2 53.0811V53.0463L49.3349 54.9066C50.2217 55.3057 50.2217 56.5798 49.3349 56.9788L45.9144 58.5178C45.8483 58.5625 45.7777 58.6022 45.7028 58.6362L42.5303 60.0785L41.5224 62.3314H41.5645L41.4944 62.4911L39.5846 66.8412C39.1904 67.739 37.9318 67.739 37.5376 66.8412L35.6278 62.4911L35.5577 62.3314H35.6179L34.6099 60.0785L32 58.892V58.9281L31.9623 58.9111L27.6651 56.9777C26.7783 56.5787 26.7783 55.3046 27.6651 54.9056L31.9623 52.9721L32 52.9552V53.0194L34.6099 51.8329L35.7101 49.3737H35.6988L37.5365 45.1878ZM36.0742 54.3283C35.999 54.3821 35.9177 54.4295 35.8305 54.4691L32.6155 55.9307C32.5961 55.9395 32.5767 55.9478 32.5572 55.9557C32.5767 55.9635 32.5961 55.9719 32.6155 55.9806L35.8305 57.4422C35.9177 57.4819 35.999 57.5292 36.0742 57.5831C36.7638 57.9228 37.1008 58.4059 37.3786 59.2109L38.5701 61.8742L39.7617 59.2109C40.0395 58.4059 40.3764 57.9228 41.0661 57.5831C41.1412 57.5292 41.2226 57.4819 41.3098 57.4422L44.5248 55.9806L44.542 55.973L44.5263 55.9659L41.3113 54.5044C41.2241 54.4647 41.1428 54.4174 41.0676 54.3635C40.3779 54.0238 40.041 53.5407 39.7632 52.7357L38.563 50.0531L37.3786 52.7005C37.1008 53.5054 36.7638 53.9886 36.0742 54.3283Z" fill="#282A35"/>
<rect width="10.1588" height="10.0681" transform="matrix(-0.683493 0.729957 0.729957 0.683493 38.5364 48.827)" fill="#282A35"/>
</svg>
