<svg width="152" height="134" viewBox="0 0 152 134" fill="none" xmlns="../../../www.w3.org/2000/svg.html">
<rect x="52.4805" y="6.37085" width="9" height="37.0804" rx="4.5" transform="rotate(-45.0617 52.4805 6.37085)" fill="#282A35"/>
<path fill-rule="evenodd" clip-rule="evenodd" d="M7.5 25.4423C3.24194 28.7343 0.5 33.8925 0.5 39.6912V115.691C0.5 125.632 8.55887 133.691 18.5 133.691H133.5C143.441 133.691 151.5 125.632 151.5 115.691V39.6912C151.5 29.75 143.441 21.6912 133.5 21.6912H78.5V30.6912H132.5C138.023 30.6912 142.5 35.1683 142.5 40.6912V115.691C142.5 121.214 138.023 125.691 132.5 125.691H19.5C13.9772 125.691 9.5 121.214 9.5 115.691V46.6912H7.5V25.4423Z" fill="#282A35"/>
<rect x="43.9" y="1.69116" width="19" height="9" rx="4.5" fill="#282A35"/>
<path fill-rule="evenodd" clip-rule="evenodd" d="M55.5 1.69116H18.5C8.55887 1.69116 0.5 9.75004 0.5 19.6912V115.691C0.5 125.632 8.55887 133.691 18.5 133.691H133.5C143.441 133.691 151.5 125.632 151.5 115.691V39.6912H142.5V114.691C142.5 120.214 138.023 124.691 132.5 124.691H19.5C13.9772 124.691 9.5 120.214 9.5 114.691V20.6912C9.5 15.1683 13.9772 10.6912 19.5 10.6912H55.5V1.69116Z" fill="#282A35"/>
<path fill-rule="evenodd" clip-rule="evenodd" d="M58.5 8.69116H53.5V10.7072C53.665 10.6966 53.8318 10.6912 54 10.6912C55.7465 10.6912 57.3321 11.274 58.5 12.2223V8.69116Z" fill="#282A35"/>
<path fill-rule="evenodd" clip-rule="evenodd" d="M76 92.5C84.0081 92.5 90.5 86.0081 90.5 78C90.5 69.9919 84.0081 63.5 76 63.5C67.9919 63.5 61.5 69.9919 61.5 78C61.5 86.0081 67.9919 92.5 76 92.5ZM76 83.5C79.0376 83.5 81.5 81.0376 81.5 78C81.5 74.9624 79.0376 72.5 76 72.5C72.9624 72.5 70.5 74.9624 70.5 78C70.5 81.0376 72.9624 83.5 76 83.5Z" fill="#282A35"/>
<path fill-rule="evenodd" clip-rule="evenodd" d="M54.1933 50.7856C51.0827 50.0773 47.7581 50.9164 45.7436 53.3902C43.322 56.3638 41.33 59.7012 39.8622 63.3078C38.615 66.3722 39.5822 69.809 41.8577 72.2109L42.7806 73.1851C43.8847 74.3505 44.5 75.8947 44.5 77.5V77.5C44.5 79.1053 43.8847 80.6495 42.7806 81.8149L41.7366 82.917C39.4089 85.3739 38.3815 88.8711 39.5993 92.0288C40.9167 95.4449 42.7012 98.6289 44.8744 101.502C46.9704 104.274 50.5846 105.255 53.9835 104.533L55.5549 104.199C57.1251 103.865 58.7635 104.146 60.133 104.983V104.983C61.5024 105.821 62.4987 107.152 62.9168 108.702L63.2858 110.069C64.1701 113.347 66.6718 116.03 70.0277 116.546C71.9747 116.845 73.9692 117 76 117C78.0041 117 79.9729 116.849 81.8956 116.557C85.2537 116.048 87.7747 113.389 88.7081 110.124L89.112 108.711C89.5532 107.167 90.5692 105.851 91.951 105.034V105.034C93.3328 104.217 94.9752 103.961 96.5403 104.318L97.9799 104.647C101.291 105.402 104.835 104.478 106.908 101.788C109.108 98.9337 110.921 95.7665 112.269 92.3644C113.503 89.2522 112.506 85.7837 110.203 83.3534L109.219 82.3149C108.115 81.1495 107.5 79.6053 107.5 78V78C107.5 76.3947 108.115 74.8505 109.219 73.6851L110.203 72.6466C112.506 70.2163 113.503 66.7477 112.269 63.6355C110.793 59.9111 108.76 56.4681 106.272 53.4094C104.288 50.9705 101.016 50.1339 97.9483 50.8225L96.7233 51.0974C95.157 51.449 93.5155 51.1869 92.1366 50.3649V50.3649C90.7577 49.5429 89.7464 48.2236 89.3107 46.6786L88.9954 45.5604C88.1523 42.5707 85.868 40.131 82.8088 39.5923C80.5978 39.203 78.3226 39 76 39C73.7873 39 71.6176 39.1843 69.5054 39.5383C66.4072 40.0577 64.0838 42.5155 63.2219 45.5365L62.8956 46.6801C62.4552 48.2237 61.4398 49.5399 60.0584 50.3577V50.3577C58.6771 51.1754 57.0348 51.4326 55.4695 51.0762L54.1933 50.7856ZM102.334 84.7553C100.654 83.0774 99.9677 80.687 99.998 78.3126C99.9993 78.2085 100 78.1044 100 78C100 77.6984 99.9944 77.3981 99.9834 77.0992C99.8928 74.6438 100.567 72.1519 102.308 70.4183L102.473 70.2539C104.753 67.9846 105.195 64.4552 103.546 61.6935V61.6935C101.912 58.956 98.6362 57.6662 95.5742 58.5548L95.3413 58.6224C92.9768 59.3086 90.4656 58.6902 88.356 57.4208C88.0486 57.2359 87.7368 57.0576 87.4206 56.8862C85.2648 55.7177 83.4675 53.8701 82.8728 51.4911L82.8273 51.3094C82.0472 48.189 79.2436 46 76.0272 46V46C72.8389 46 70.0523 48.1516 69.2457 51.2362L69.1787 51.4923C68.5564 53.8722 66.7445 55.7129 64.5818 56.8849C64.2301 57.0755 63.8837 57.2746 63.5429 57.482C61.5325 58.7052 59.1174 59.2924 56.8533 58.6509V58.6509C53.7587 57.7741 50.4394 59.1088 48.8382 61.8983L48.7514 62.0496C47.2154 64.7256 47.6788 68.1011 49.8791 70.2642V70.2642C51.5393 71.8962 52.1758 74.2634 52.0409 76.5875C52.0137 77.0548 52 77.5258 52 78C52 78.2396 52.0035 78.4783 52.0105 78.7162C52.078 81.0208 51.4094 83.3473 49.7599 84.9583V84.9583C47.4885 87.1767 47.0184 90.6563 48.6197 93.3979L48.7998 93.7062C50.3226 96.3135 53.4132 97.5647 56.3209 96.751V96.751C58.522 96.1351 60.8485 96.7532 62.7534 98.0163C63.5311 98.5321 64.3407 99.0037 65.1785 99.4276C67.1954 100.448 68.8642 102.146 69.4124 104.339V104.339C70.1437 107.265 72.7727 109.318 75.7888 109.318L76.288 109.318C79.383 109.318 82.0882 107.23 82.8713 104.236V104.236C83.4479 102.031 85.1239 100.322 87.1415 99.2626C87.8958 98.8666 88.6264 98.4316 89.3307 97.9603C91.2633 96.667 93.6362 96.041 95.8685 96.6924V96.6924C98.7884 97.5444 101.913 96.2999 103.448 93.6738L103.598 93.4171C105.207 90.6644 104.755 87.1729 102.499 84.9201L102.334 84.7553Z" fill="#282A35"/>
</svg>
