<svg width="59" height="60" viewBox="0 0 59 60" fill="none" xmlns="../../../www.w3.org/2000/svg.html">
<g clip-path="url(#clip0)">
<path d="M29.0625 0.9375C13.0078 0.9375 0 13.9453 0 30C0 46.0547 13.0078 59.0625 29.0625 59.0625C45.1172 59.0625 58.125 46.0547 58.125 30C58.125 13.9453 45.1172 0.9375 29.0625 0.9375ZM25.3125 6.89062V8.21484C25.3125 9.60938 23.8477 10.5117 22.5938 9.89062L19.7812 8.48438C21.5273 7.73438 23.3789 7.20703 25.3125 6.89062ZM29.0625 50.2266V53.4375C16.1367 53.4375 5.625 42.9258 5.625 30C5.625 26.5898 6.375 23.3555 7.6875 20.4258C8.84766 22.1484 10.6406 24.8086 11.7422 26.4141C12.3516 27.3047 13.0547 28.125 13.8633 28.8398L13.957 28.9219C15.0703 29.9297 16.3242 30.7969 17.6602 31.4766C19.3008 32.2969 21.6914 33.6094 23.3789 34.5352C24.5742 35.1914 25.3125 36.4453 25.3125 37.8164V41.5664C25.3125 42.5625 25.7109 43.5117 26.4141 44.2148C28.1719 45.9844 29.2617 48.75 29.0625 50.2266ZM34.0664 52.8867L36.1055 47.3906C36.3398 46.7461 36.4922 46.0781 36.668 45.4102C36.7969 44.9414 37.043 44.5078 37.3945 44.1562L38.7188 42.832C39.75 41.8125 40.3242 40.418 40.3242 38.9648C40.3242 38.0156 39.9492 37.1016 39.2812 36.4336L37.6758 34.8281C36.9727 34.125 36.0234 33.7266 35.0273 33.7266H27.1875C26.0859 33.1758 24.668 29.9766 23.4375 29.9766C22.207 29.9766 20.9883 29.6836 19.8867 29.1328L18.5859 28.4883C18.1172 28.2539 17.8125 27.7617 17.8125 27.2344C17.8125 26.6367 18.1992 26.0977 18.7734 25.9102L22.4297 24.6914C23.0625 24.4805 23.7539 24.6211 24.2461 25.0547L25.3359 26.0039C25.5117 26.1562 25.7227 26.2383 25.9453 26.2383H26.6016C27.3047 26.2383 27.75 25.5 27.4453 24.8789L25.6172 21.2227C25.4297 20.8594 25.5117 20.4141 25.8047 20.1328L26.9648 19.0078C27.1406 18.832 27.375 18.7383 27.6211 18.7383H28.6758C28.9219 18.7383 29.168 18.6445 29.3438 18.4688L30.2812 17.5312C30.6445 17.168 30.6445 16.5703 30.2812 16.207L29.7305 15.6563C29.3672 15.293 29.3672 14.6953 29.7305 14.332L30.9375 13.125L31.4883 12.5742C32.2148 11.8477 32.2148 10.6523 31.4883 9.92578L28.1719 6.60938C28.4648 6.59766 28.7578 6.5625 29.0625 6.5625C38.2266 6.5625 46.1484 11.8594 50.0039 19.5352L48.4805 20.2969C48.0469 20.5195 47.6719 20.8477 47.4023 21.2461L45.1055 24.6914C44.4727 25.6406 44.4727 26.8711 45.1055 27.8086L47.2148 30.9727C47.6016 31.5586 48.1992 31.9687 48.8672 32.1445L52.2891 33C51.0234 42.8438 43.6289 50.8008 34.0664 52.8867Z" fill="#D9EEE1"/>
</g>
<defs>
<clipPath id="clip0">
<rect width="58.125" height="60" fill="white"/>
</clipPath>
</defs>
</svg>
