<svg width="45" height="60" viewBox="0 0 45 60" fill="none" xmlns="../../../www.w3.org/2000/svg.html">
<path d="M43.3525 11.4775L33.5225 1.64754C32.4677 0.592645 31.0369 7.8009e-06 29.5451 0H5.625C2.51836 0 0 2.51836 0 5.625V54.375C0 57.4816 2.51836 60 5.625 60H39.375C42.4816 60 45 57.4816 45 54.375V15.4549C45 13.9631 44.4074 12.5323 43.3525 11.4775ZM40.7009 14.1292C40.9411 14.3692 41.1111 14.6703 41.1925 15H30V3.80754C30.3297 3.88889 30.6308 4.05889 30.8708 4.29914L40.7009 14.1292ZM39.375 56.25H5.625C4.58941 56.25 3.75 55.4106 3.75 54.375V5.625C3.75 4.58941 4.58941 3.75 5.625 3.75H26.25V15.9375C26.25 17.4908 27.5092 18.75 29.0625 18.75H41.25V54.375C41.25 55.4106 40.4106 56.25 39.375 56.25ZM20.4526 48.3511L17.4142 47.469C17.3388 47.4471 17.2685 47.4106 17.2072 47.3616C17.1459 47.3125 17.0949 47.2519 17.0571 47.1831C17.0193 47.1143 16.9954 47.0388 16.9867 46.9607C16.9781 46.8827 16.9849 46.8038 17.0068 46.7284L23.8069 23.3063C23.8288 23.2309 23.8653 23.1605 23.9143 23.0993C23.9634 23.038 24.024 22.987 24.0928 22.9492C24.1616 22.9114 24.2371 22.8874 24.3152 22.8788C24.3932 22.8702 24.4721 22.877 24.5475 22.8989L27.5858 23.781C27.6612 23.8029 27.7315 23.8394 27.7928 23.8884C27.8541 23.9375 27.9051 23.9981 27.9429 24.0669C27.9807 24.1357 28.0046 24.2112 28.0133 24.2893C28.0219 24.3673 28.0151 24.4462 27.9932 24.5216L21.1932 47.9437C21.1714 48.0191 21.1348 48.0895 21.0858 48.1507C21.0367 48.212 20.9761 48.263 20.9073 48.3008C20.8385 48.3386 20.763 48.3626 20.685 48.3712C20.6069 48.3798 20.528 48.373 20.4526 48.3511ZM14.7754 42.7643L16.9424 40.4529C16.9971 40.3945 17.0396 40.3256 17.0672 40.2505C17.0949 40.1754 17.1072 40.0954 17.1033 40.0155C17.0995 39.9355 17.0796 39.8571 17.0449 39.7849C17.0102 39.7128 16.9613 39.6483 16.9012 39.5954L12.3896 35.625L16.9011 31.6546C16.9612 31.6017 17.0101 31.5372 17.0448 31.4651C17.0796 31.3929 17.0994 31.3145 17.1033 31.2345C17.1071 31.1546 17.0948 31.0746 17.0672 30.9995C17.0395 30.9243 16.997 30.8555 16.9423 30.7971L14.7752 28.4857C14.7216 28.4284 14.6571 28.3823 14.5856 28.3499C14.5141 28.3176 14.4369 28.2996 14.3585 28.2971C14.28 28.2945 14.2019 28.3075 14.1284 28.3352C14.055 28.3628 13.9877 28.4047 13.9304 28.4584L6.75117 35.1889C6.69155 35.2448 6.64403 35.3124 6.61154 35.3874C6.57906 35.4624 6.56229 35.5432 6.56229 35.6249C6.56229 35.7067 6.57906 35.7875 6.61154 35.8625C6.64403 35.9375 6.69155 36.005 6.75117 36.0609L13.9304 42.7915C13.9877 42.8452 14.055 42.8871 14.1284 42.9148C14.2019 42.9425 14.2801 42.9554 14.3585 42.9529C14.437 42.9504 14.5142 42.9324 14.5857 42.9001C14.6572 42.8677 14.7217 42.8216 14.7754 42.7643ZM31.0695 42.7915L38.2486 36.0609C38.3082 36.005 38.3557 35.9375 38.3882 35.8625C38.4207 35.7875 38.4375 35.7067 38.4375 35.6249C38.4375 35.5432 38.4207 35.4624 38.3882 35.3874C38.3557 35.3124 38.3082 35.2448 38.2486 35.1889L31.0695 28.4584C31.0122 28.4047 30.9449 28.3628 30.8715 28.3352C30.798 28.3075 30.7198 28.2945 30.6414 28.2971C30.5629 28.2996 30.4858 28.3176 30.4143 28.3499C30.3428 28.3823 30.2783 28.4284 30.2246 28.4857L28.0576 30.7971C28.0029 30.8555 27.9604 30.9244 27.9328 30.9995C27.9051 31.0746 27.8928 31.1546 27.8967 31.2345C27.9005 31.3145 27.9204 31.3929 27.9551 31.4651C27.9898 31.5372 28.0387 31.6017 28.0988 31.6546L32.6104 35.625L28.0988 39.5954C28.0386 39.6483 27.9898 39.7128 27.955 39.7849C27.9203 39.8571 27.9005 39.9355 27.8966 40.0154C27.8928 40.0954 27.9051 40.1754 27.9327 40.2505C27.9604 40.3257 28.0028 40.3945 28.0576 40.4529L30.2246 42.7643C30.2783 42.8216 30.3428 42.8677 30.4143 42.9C30.4858 42.9324 30.563 42.9503 30.6414 42.9529C30.7199 42.9554 30.798 42.9424 30.8715 42.9147C30.9449 42.8871 31.0122 42.8452 31.0695 42.7915Z" fill="#FFF4A3"/>
</svg>
