<svg width="60" height="60" viewBox="0 0 60 60" fill="none" xmlns="../../../www.w3.org/2000/svg.html">
<g clip-path="url(#clip0)">
<path d="M18.75 3.75V33.75H3.75V3.75H18.75ZM3.75 0C2.75544 0 1.80161 0.395088 1.09835 1.09835C0.395088 1.80161 0 2.75544 0 3.75L0 33.75C0 34.7446 0.395088 35.6984 1.09835 36.4016C1.80161 37.1049 2.75544 37.5 3.75 37.5H18.75C19.7446 37.5 20.6984 37.1049 21.4016 36.4016C22.1049 35.6984 22.5 34.7446 22.5 33.75V3.75C22.5 2.75544 22.1049 1.80161 21.4016 1.09835C20.6984 0.395088 19.7446 0 18.75 0L3.75 0ZM52.5 7.5V26.25H33.75V7.5H52.5ZM33.75 3.75C32.7554 3.75 31.8016 4.14509 31.0984 4.84835C30.3951 5.55161 30 6.50544 30 7.5V26.25C30 27.2446 30.3951 28.1984 31.0984 28.9016C31.8016 29.6049 32.7554 30 33.75 30H52.5C53.4946 30 54.4484 29.6049 55.1517 28.9016C55.8549 28.1984 56.25 27.2446 56.25 26.25V7.5C56.25 6.50544 55.8549 5.55161 55.1517 4.84835C54.4484 4.14509 53.4946 3.75 52.5 3.75H33.75ZM18.75 48.75V56.25H11.25V48.75H18.75ZM11.25 45C10.2554 45 9.30161 45.3951 8.59835 46.0984C7.89509 46.8016 7.5 47.7554 7.5 48.75V56.25C7.5 57.2446 7.89509 58.1984 8.59835 58.9017C9.30161 59.6049 10.2554 60 11.25 60H18.75C19.7446 60 20.6984 59.6049 21.4016 58.9017C22.1049 58.1984 22.5 57.2446 22.5 56.25V48.75C22.5 47.7554 22.1049 46.8016 21.4016 46.0984C20.6984 45.3951 19.7446 45 18.75 45H11.25ZM56.25 41.25V48.75H33.75V41.25H56.25ZM33.75 37.5C32.7554 37.5 31.8016 37.8951 31.0984 38.5984C30.3951 39.3016 30 40.2554 30 41.25V48.75C30 49.7446 30.3951 50.6984 31.0984 51.4017C31.8016 52.1049 32.7554 52.5 33.75 52.5H56.25C57.2446 52.5 58.1984 52.1049 58.9017 51.4017C59.6049 50.6984 60 49.7446 60 48.75V41.25C60 40.2554 59.6049 39.3016 58.9017 38.5984C58.1984 37.8951 57.2446 37.5 56.25 37.5H33.75Z" fill="#FFC0C7"/>
</g>
<defs>
<clipPath id="clip0">
<rect width="60" height="60" fill="white"/>
</clipPath>
</defs>
</svg>
