<svg width="67" height="64" viewBox="0 0 67 64" fill="none" xmlns="../../../www.w3.org/2000/svg.html">
<circle cx="14.939" cy="14.0427" r="2" transform="rotate(-7.63749 14.939 14.0427)" fill="#282A35"/>
<circle cx="20.8858" cy="13.2453" r="2" transform="rotate(-7.63749 20.8858 13.2453)" fill="#282A35"/>
<path fill-rule="evenodd" clip-rule="evenodd" d="M0.664525 12.93C0.297518 10.1931 2.21872 7.67685 4.95564 7.30984L54.5121 0.66459C57.249 0.297583 59.7652 2.21878 60.1323 4.95571L62.5245 22.796C62.8916 25.533 60.9704 28.0492 58.2334 28.4162L8.67698 35.0614C5.94006 35.4285 3.42382 33.5073 3.05682 30.7703L0.664525 12.93ZM4.89485 14.3806C4.67465 12.7385 5.82737 11.2287 7.46952 11.0085L53.0614 4.89492C54.7036 4.67471 56.2133 5.82743 56.4335 7.46959L58.2942 21.3454C58.5144 22.9875 57.3617 24.4973 55.7195 24.7175L10.1276 30.8311C8.48546 31.0513 6.97572 29.8986 6.75552 28.2565L4.89485 14.3806ZM23.206 23.0237C22.1112 23.1705 21.3427 24.177 21.4895 25.2717C21.6364 26.3665 22.6428 27.135 23.7376 26.9882L41.5779 24.5959C42.6727 24.4491 43.4412 23.4426 43.2944 22.3478C43.1476 21.2531 42.1411 20.4846 41.0463 20.6314L23.206 23.0237Z" fill="#282A35"/>
<circle cx="8.99227" cy="14.8401" r="2" transform="rotate(-7.63749 8.99227 14.8401)" fill="#282A35"/>
<circle cx="15.7365" cy="19.9895" r="2" transform="rotate(-7.63749 15.7365 19.9895)" fill="#282A35"/>
<circle cx="21.6832" cy="19.192" r="2" transform="rotate(-7.63749 21.6832 19.192)" fill="#282A35"/>
<circle cx="9.78969" cy="20.7869" r="2" transform="rotate(-7.63749 9.78969 20.7869)" fill="#282A35"/>
<circle cx="48.25" cy="21.6834" r="2" transform="rotate(-7.63749 48.25 21.6834)" fill="#282A35"/>
<circle cx="16.5339" cy="25.9363" r="2" transform="rotate(-7.63749 16.5339 25.9363)" fill="#282A35"/>
<circle cx="10.5871" cy="26.7337" r="2" transform="rotate(-7.63749 10.5871 26.7337)" fill="#282A35"/>
<circle cx="32.7793" cy="11.6504" r="2" transform="rotate(-7.63749 32.7793 11.6504)" fill="#282A35"/>
<circle cx="38.7261" cy="10.853" r="2" transform="rotate(-7.63749 38.7261 10.853)" fill="#282A35"/>
<circle cx="26.8326" cy="12.4479" r="2" transform="rotate(-7.63749 26.8326 12.4479)" fill="#282A35"/>
<circle cx="44.6729" cy="10.0556" r="2" transform="rotate(-7.63749 44.6729 10.0556)" fill="#282A35"/>
<circle cx="32.7793" cy="11.6504" r="2" transform="rotate(-7.63749 32.7793 11.6504)" fill="#282A35"/>
<circle cx="38.7261" cy="10.853" r="2" transform="rotate(-7.63749 38.7261 10.853)" fill="#282A35"/>
<circle cx="26.8326" cy="12.4479" r="2" transform="rotate(-7.63749 26.8326 12.4479)" fill="#282A35"/>
<circle cx="44.6729" cy="10.0556" r="2" transform="rotate(-7.63749 44.6729 10.0556)" fill="#282A35"/>
<circle cx="33.5768" cy="17.5972" r="2" transform="rotate(-7.63749 33.5768 17.5972)" fill="#282A35"/>
<circle cx="39.5235" cy="16.7998" r="2" transform="rotate(-7.63749 39.5235 16.7998)" fill="#282A35"/>
<circle cx="27.63" cy="18.3947" r="2" transform="rotate(-7.63749 27.63 18.3947)" fill="#282A35"/>
<circle cx="45.4703" cy="16.0023" r="2" transform="rotate(-7.63749 45.4703 16.0023)" fill="#282A35"/>
<rect x="48.3716" y="7.54175" width="6" height="4" rx="2" transform="rotate(-7.63749 48.3716 7.54175)" fill="#282A35"/>
<rect x="52.2145" y="21.1517" width="8" height="4" rx="2" transform="rotate(-97.6375 52.2145 21.1517)" fill="#282A35"/>
<rect x="49.169" y="13.4885" width="6" height="4" rx="2" transform="rotate(-7.63749 49.169 13.4885)" fill="#282A35"/>
<path fill-rule="evenodd" clip-rule="evenodd" d="M58.6634 55.6C62.2664 52.491 61.8179 46.0661 57.6617 41.2497C53.5056 36.4333 47.2155 35.0492 43.6126 38.1583C40.0096 41.2673 40.458 47.6922 44.6142 52.5086C48.7704 57.325 55.0604 58.7091 58.6634 55.6ZM56.2919 52.5913C58.3582 50.8082 57.6999 46.6587 54.8216 43.3232C51.9433 39.9876 47.9349 38.729 45.8686 40.512C43.8023 42.2951 44.4606 46.4445 47.3389 49.7801C50.2172 53.1157 54.2256 54.3743 56.2919 52.5913Z" fill="#282A35"/>
<path fill-rule="evenodd" clip-rule="evenodd" d="M6.85389 38.0928C5.669 36.2926 4.46825 34.1337 3.24521 31.5679L7.43933 31.0417C8.38838 32.9388 9.30672 34.5439 10.1951 35.8937C12.2118 38.9577 13.9986 40.5901 15.5241 41.3913C18.316 42.8577 20.9634 41.8684 24.3539 39.5967C25.1604 39.0563 25.9652 38.4739 26.8016 37.8687L26.8019 37.8685L26.802 37.8684L26.862 37.825C27.7085 37.2124 28.5885 36.5767 29.4753 35.9892C31.2248 34.83 33.1812 33.7317 35.2888 33.3077C37.4965 32.8636 39.778 33.1782 42.03 34.6582C43.7257 35.7726 45.3375 37.5027 46.912 39.9142C46.5278 40.048 46.1766 40.2462 45.8686 40.512C44.9627 41.2937 44.5805 42.5301 44.6794 43.9535C42.8609 40.7069 41.2306 38.9194 39.8331 38.0009C38.5035 37.1271 37.3033 36.9826 36.0776 37.2291C34.7519 37.4958 33.3234 38.2379 31.6847 39.3236C30.8773 39.8585 30.0625 40.4464 29.2069 41.0656L29.1236 41.1258L29.1236 41.1258C28.3046 41.7185 27.4481 42.3383 26.5804 42.9197C23.0786 45.266 18.6147 47.5328 13.6641 44.9325C11.3182 43.7004 9.07582 41.4687 6.85389 38.0928Z" fill="#282A35"/>
<rect x="44.5458" y="48.4364" width="12.8852" height="4" transform="rotate(-40.6675 44.5458 48.4364)" fill="#282A35"/>
<rect x="45.6153" y="37.1709" width="9.73148" height="4" transform="rotate(48.7251 45.6153 37.1709)" fill="#282A35"/>
</svg>
