<svg width="60" height="60" viewBox="0 0 60 60" fill="none" xmlns="../../../www.w3.org/2000/svg.html">
<path fill-rule="evenodd" clip-rule="evenodd" d="M12.0001 45C9.23864 45 7.00006 47.2386 7.00006 50V55C7.00006 57.7614 9.23864 60 12.0001 60H18.0001C20.7615 60 23.0001 57.7614 23.0001 55V50C23.0001 47.2386 20.7615 45 18.0001 45H12.0001ZM13 49C11.8954 49 11 49.8954 11 51V54C11 55.1046 11.8954 56 13 56H17C18.1046 56 19 55.1046 19 54V51C19 49.8954 18.1046 49 17 49H13Z" fill="#282A35"/>
<path fill-rule="evenodd" clip-rule="evenodd" d="M5 0C2.23858 0 0 2.23858 0 5V33C0 35.7614 2.23858 38 5 38H18C20.7614 38 23 35.7614 23 33V5C23 2.23858 20.7614 0 18 0H5ZM6 4C4.89543 4 4 4.89543 4 6V32C4 33.1046 4.89543 34 6 34H17C18.1046 34 19 33.1046 19 32V6C19 4.89543 18.1046 4 17 4H6Z" fill="#282A35"/>
<path fill-rule="evenodd" clip-rule="evenodd" d="M35 3C32.2386 3 30 5.23858 30 8V25C30 27.7614 32.2386 30 35 30H52C54.7614 30 57 27.7614 57 25V8C57 5.23858 54.7614 3 52 3H35ZM36 7C34.8954 7 34 7.89543 34 9V24C34 25.1046 34.8954 26 36 26H51C52.1046 26 53 25.1046 53 24V9C53 7.89543 52.1046 7 51 7H36Z" fill="#282A35"/>
<path fill-rule="evenodd" clip-rule="evenodd" d="M35 37C32.2386 37 30 39.2386 30 42V48C30 50.7614 32.2386 53 35 53H55C57.7614 53 60 50.7614 60 48V42C60 39.2386 57.7614 37 55 37H35ZM36 41C34.8954 41 34 41.8954 34 43V47C34 48.1046 34.8954 49 36 49H54C55.1046 49 56 48.1046 56 47V43C56 41.8954 55.1046 41 54 41H36Z" fill="#282A35"/>
</svg>
