<svg width="60" height="60" viewBox="0 0 60 60" fill="none" xmlns="../../../www.w3.org/2000/svg.html">
<path fill-rule="evenodd" clip-rule="evenodd" d="M52.5 7.5H7.5C5.42893 7.5 3.75 9.17893 3.75 11.25V48.75C3.75 50.8211 5.42893 52.5 7.5 52.5H52.5C54.5711 52.5 56.25 50.8211 56.25 48.75V11.25C56.25 9.17893 54.5711 7.5 52.5 7.5ZM7.5 3.75C3.35786 3.75 0 7.10786 0 11.25V48.75C0 52.8921 3.35786 56.25 7.5 56.25H52.5C56.6421 56.25 60 52.8921 60 48.75V11.25C60 7.10786 56.6421 3.75 52.5 3.75H7.5Z" fill="#96D4D4"/>
<path fill-rule="evenodd" clip-rule="evenodd" d="M56.25 22.5H3.75V18.75H56.25V22.5Z" fill="#96D4D4"/>
<path d="M11.25 13.125C11.25 14.1605 10.4105 15 9.375 15C8.33947 15 7.5 14.1605 7.5 13.125C7.5 12.0895 8.33947 11.25 9.375 11.25C10.4105 11.25 11.25 12.0895 11.25 13.125Z" fill="#96D4D4"/>
<path d="M16.875 13.125C16.875 14.1605 16.0355 15 15 15C13.9645 15 13.125 14.1605 13.125 13.125C13.125 12.0895 13.9645 11.25 15 11.25C16.0355 11.25 16.875 12.0895 16.875 13.125Z" fill="#96D4D4"/>
<path d="M22.5 13.125C22.5 14.1605 21.6605 15 20.625 15C19.5895 15 18.75 14.1605 18.75 13.125C18.75 12.0895 19.5895 11.25 20.625 11.25C21.6605 11.25 22.5 12.0895 22.5 13.125Z" fill="#96D4D4"/>
</svg>
