<?xml version="1.0" encoding="utf-8" standalone="no"?>
<!DOCTYPE svg PUBLIC "-//W3C//DTD SVG 1.1//EN"
  "http://www.w3.org/Graphics/SVG/1.1/DTD/svg11.dtd">
<svg height="446.4pt" version="1.1" viewBox="0 0 460.8 446.4" width="460.8pt" xmlns="http://www.w3.org/2000/svg" xmlns:xlink="http://www.w3.org/1999/xlink">
 <metadata>
  <rdf:RDF xmlns:cc="http://creativecommons.org/ns#" xmlns:dc="http://purl.org/dc/elements/1.1/" xmlns:rdf="http://www.w3.org/1999/02/22-rdf-syntax-ns#">
   <cc:Work>
    <dc:type rdf:resource="http://purl.org/dc/dcmitype/StillImage"/>
    <dc:date>2021-07-15T20:59:08.213816</dc:date>
    <dc:format>image/svg+xml</dc:format>
    <dc:creator>
     <cc:Agent>
      <dc:title>Matplotlib v3.4.2, https://matplotlib.org/</dc:title>
     </cc:Agent>
    </dc:creator>
   </cc:Work>
  </rdf:RDF>
 </metadata>
 <defs>
  <style type="text/css">*{stroke-linecap:butt;stroke-linejoin:round;}</style>
 </defs>
 <g id="figure_1">
  <g id="patch_1">
   <path d="M 0 446.4 
L 460.8 446.4 
L 460.8 0 
L 0 0 
z
" style="fill:#ffffff;"/>
  </g>
  <g id="axes_1">
   <g id="patch_2">
    <path d="M 33.64 202.08 
L 450 202.08 
L 450 26.88 
L 33.64 26.88 
z
" style="fill:#ffffff;"/>
   </g>
   <g id="PolyCollection_1">
    <defs>
     <path d="M 327.426407 -244.32 
L 327.426407 -282.067694 
L 328.664524 -280.608882 
L 329.902641 -279.186709 
L 331.140758 -277.801319 
L 332.378875 -276.452786 
L 333.616993 -275.14112 
L 334.85511 -273.86627 
L 336.093227 -272.628127 
L 337.331344 -271.426524 
L 338.569461 -270.26124 
L 339.807578 -269.132005 
L 341.045695 -268.038499 
L 342.283812 -266.980358 
L 343.521929 -265.957174 
L 344.760046 -264.968501 
L 345.998164 -264.013856 
L 347.236281 -263.092719 
L 348.474398 -262.204543 
L 349.712515 -261.348748 
L 350.950632 -260.52473 
L 352.188749 -259.731862 
L 353.426866 -258.969494 
L 354.664983 -258.23696 
L 355.9031 -257.533575 
L 357.141217 -256.858642 
L 358.379335 -256.211453 
L 359.617452 -255.591288 
L 360.855569 -254.997421 
L 362.093686 -254.429122 
L 363.331803 -253.885654 
L 364.56992 -253.366283 
L 365.808037 -252.870271 
L 367.046154 -252.396883 
L 368.284271 -251.945388 
L 369.522388 -251.515058 
L 370.760506 -251.105173 
L 371.998623 -250.715017 
L 373.23674 -250.343886 
L 374.474857 -249.991082 
L 375.712974 -249.655921 
L 376.951091 -249.337727 
L 378.189208 -249.035839 
L 379.427325 -248.749606 
L 380.665442 -248.478392 
L 381.903559 -248.221575 
L 383.141677 -247.978547 
L 384.379794 -247.748717 
L 385.617911 -247.531507 
L 386.856028 -247.326355 
L 388.094145 -247.132716 
L 389.332262 -246.950061 
L 390.570379 -246.777875 
L 391.808496 -246.615663 
L 393.046613 -246.462943 
L 394.28473 -246.319251 
L 395.522848 -246.184139 
L 396.760965 -246.057175 
L 397.999082 -245.937942 
L 399.237199 -245.82604 
L 400.475316 -245.721084 
L 401.713433 -245.622706 
L 402.95155 -245.53055 
L 404.189667 -245.444276 
L 405.427784 -245.363561 
L 406.665901 -245.288092 
L 407.904019 -245.217573 
L 409.142136 -245.15172 
L 410.380253 -245.090262 
L 411.61837 -245.032942 
L 412.856487 -244.979515 
L 414.094604 -244.929746 
L 415.332721 -244.883413 
L 416.570838 -244.840307 
L 417.808955 -244.800227 
L 419.047072 -244.762984 
L 420.28519 -244.728397 
L 421.523307 -244.696299 
L 422.761424 -244.666526 
L 423.999541 -244.638929 
L 425.237658 -244.613364 
L 426.475775 -244.589695 
L 427.713892 -244.567796 
L 428.952009 -244.547546 
L 430.190126 -244.528832 
L 431.428243 -244.511549 
L 432.666361 -244.495597 
L 433.904478 -244.480883 
L 435.142595 -244.467318 
L 436.380712 -244.45482 
L 437.618829 -244.443313 
L 438.856946 -244.432725 
L 440.095063 -244.422987 
L 441.33318 -244.414037 
L 442.571297 -244.405816 
L 443.809414 -244.39827 
L 445.047532 -244.391347 
L 446.285649 -244.384999 
L 447.523766 -244.379183 
L 448.761883 -244.373857 
L 450 -244.368982 
L 450 -244.32 
L 450 -244.32 
L 448.761883 -244.32 
L 447.523766 -244.32 
L 446.285649 -244.32 
L 445.047532 -244.32 
L 443.809414 -244.32 
L 442.571297 -244.32 
L 441.33318 -244.32 
L 440.095063 -244.32 
L 438.856946 -244.32 
L 437.618829 -244.32 
L 436.380712 -244.32 
L 435.142595 -244.32 
L 433.904478 -244.32 
L 432.666361 -244.32 
L 431.428243 -244.32 
L 430.190126 -244.32 
L 428.952009 -244.32 
L 427.713892 -244.32 
L 426.475775 -244.32 
L 425.237658 -244.32 
L 423.999541 -244.32 
L 422.761424 -244.32 
L 421.523307 -244.32 
L 420.28519 -244.32 
L 419.047072 -244.32 
L 417.808955 -244.32 
L 416.570838 -244.32 
L 415.332721 -244.32 
L 414.094604 -244.32 
L 412.856487 -244.32 
L 411.61837 -244.32 
L 410.380253 -244.32 
L 409.142136 -244.32 
L 407.904019 -244.32 
L 406.665901 -244.32 
L 405.427784 -244.32 
L 404.189667 -244.32 
L 402.95155 -244.32 
L 401.713433 -244.32 
L 400.475316 -244.32 
L 399.237199 -244.32 
L 397.999082 -244.32 
L 396.760965 -244.32 
L 395.522848 -244.32 
L 394.28473 -244.32 
L 393.046613 -244.32 
L 391.808496 -244.32 
L 390.570379 -244.32 
L 389.332262 -244.32 
L 388.094145 -244.32 
L 386.856028 -244.32 
L 385.617911 -244.32 
L 384.379794 -244.32 
L 383.141677 -244.32 
L 381.903559 -244.32 
L 380.665442 -244.32 
L 379.427325 -244.32 
L 378.189208 -244.32 
L 376.951091 -244.32 
L 375.712974 -244.32 
L 374.474857 -244.32 
L 373.23674 -244.32 
L 371.998623 -244.32 
L 370.760506 -244.32 
L 369.522388 -244.32 
L 368.284271 -244.32 
L 367.046154 -244.32 
L 365.808037 -244.32 
L 364.56992 -244.32 
L 363.331803 -244.32 
L 362.093686 -244.32 
L 360.855569 -244.32 
L 359.617452 -244.32 
L 358.379335 -244.32 
L 357.141217 -244.32 
L 355.9031 -244.32 
L 354.664983 -244.32 
L 353.426866 -244.32 
L 352.188749 -244.32 
L 350.950632 -244.32 
L 349.712515 -244.32 
L 348.474398 -244.32 
L 347.236281 -244.32 
L 345.998164 -244.32 
L 344.760046 -244.32 
L 343.521929 -244.32 
L 342.283812 -244.32 
L 341.045695 -244.32 
L 339.807578 -244.32 
L 338.569461 -244.32 
L 337.331344 -244.32 
L 336.093227 -244.32 
L 334.85511 -244.32 
L 333.616993 -244.32 
L 332.378875 -244.32 
L 331.140758 -244.32 
L 329.902641 -244.32 
L 328.664524 -244.32 
L 327.426407 -244.32 
z
" id="m307d8c5737" style="stroke:#d62728;stroke-opacity:0.7;"/>
    </defs>
    <g clip-path="url(#pabadaf4818)">
     <use style="fill:#d62728;fill-opacity:0.7;stroke:#d62728;stroke-opacity:0.7;" x="0" xlink:href="#m307d8c5737" y="446.4"/>
    </g>
   </g>
   <g id="matplotlib.axis_1">
    <g id="xtick_1">
     <g id="line2d_1">
      <defs>
       <path d="M 0 0 
L 0 3.5 
" id="m0fa91c1c58" style="stroke:#000000;stroke-width:0.8;"/>
      </defs>
      <g>
       <use style="stroke:#000000;stroke-width:0.8;" x="327.426407" xlink:href="#m0fa91c1c58" y="202.08"/>
      </g>
     </g>
     <g id="text_1">
      <!-- CV -->
      <g transform="translate(320.514688 216.678438)scale(0.1 -0.1)">
       <defs>
        <path d="M 4122 4306 
L 4122 3641 
Q 3803 3938 3442 4084 
Q 3081 4231 2675 4231 
Q 1875 4231 1450 3742 
Q 1025 3253 1025 2328 
Q 1025 1406 1450 917 
Q 1875 428 2675 428 
Q 3081 428 3442 575 
Q 3803 722 4122 1019 
L 4122 359 
Q 3791 134 3420 21 
Q 3050 -91 2638 -91 
Q 1578 -91 968 557 
Q 359 1206 359 2328 
Q 359 3453 968 4101 
Q 1578 4750 2638 4750 
Q 3056 4750 3426 4639 
Q 3797 4528 4122 4306 
z
" id="DejaVuSans-43" transform="scale(0.015625)"/>
        <path d="M 1831 0 
L 50 4666 
L 709 4666 
L 2188 738 
L 3669 4666 
L 4325 4666 
L 2547 0 
L 1831 0 
z
" id="DejaVuSans-56" transform="scale(0.015625)"/>
       </defs>
       <use xlink:href="#DejaVuSans-43"/>
       <use x="69.824219" xlink:href="#DejaVuSans-56"/>
      </g>
     </g>
    </g>
    <g id="xtick_2">
     <g id="line2d_2">
      <g>
       <use style="stroke:#000000;stroke-width:0.8;" x="241.82" xlink:href="#m0fa91c1c58" y="202.08"/>
      </g>
     </g>
     <g id="text_2">
      <!-- 0 -->
      <g transform="translate(238.63875 216.678438)scale(0.1 -0.1)">
       <defs>
        <path d="M 2034 4250 
Q 1547 4250 1301 3770 
Q 1056 3291 1056 2328 
Q 1056 1369 1301 889 
Q 1547 409 2034 409 
Q 2525 409 2770 889 
Q 3016 1369 3016 2328 
Q 3016 3291 2770 3770 
Q 2525 4250 2034 4250 
z
M 2034 4750 
Q 2819 4750 3233 4129 
Q 3647 3509 3647 2328 
Q 3647 1150 3233 529 
Q 2819 -91 2034 -91 
Q 1250 -91 836 529 
Q 422 1150 422 2328 
Q 422 3509 836 4129 
Q 1250 4750 2034 4750 
z
" id="DejaVuSans-30" transform="scale(0.015625)"/>
       </defs>
       <use xlink:href="#DejaVuSans-30"/>
      </g>
     </g>
    </g>
   </g>
   <g id="matplotlib.axis_2">
    <g id="ytick_1">
     <g id="line2d_3">
      <defs>
       <path d="M 0 0 
L -3.5 0 
" id="mdf526bea3b" style="stroke:#000000;stroke-width:0.8;"/>
      </defs>
      <g>
       <use style="stroke:#000000;stroke-width:0.8;" x="33.64" xlink:href="#mdf526bea3b" y="202.08"/>
      </g>
     </g>
     <g id="text_3">
      <!-- 0.0 -->
      <g transform="translate(10.736875 205.879219)scale(0.1 -0.1)">
       <defs>
        <path d="M 684 794 
L 1344 794 
L 1344 0 
L 684 0 
L 684 794 
z
" id="DejaVuSans-2e" transform="scale(0.015625)"/>
       </defs>
       <use xlink:href="#DejaVuSans-30"/>
       <use x="63.623047" xlink:href="#DejaVuSans-2e"/>
       <use x="95.410156" xlink:href="#DejaVuSans-30"/>
      </g>
     </g>
    </g>
    <g id="ytick_2">
     <g id="line2d_4">
      <g>
       <use style="stroke:#000000;stroke-width:0.8;" x="33.64" xlink:href="#mdf526bea3b" y="165.479952"/>
      </g>
     </g>
     <g id="text_4">
      <!-- 0.1 -->
      <g transform="translate(10.736875 169.279171)scale(0.1 -0.1)">
       <defs>
        <path d="M 794 531 
L 1825 531 
L 1825 4091 
L 703 3866 
L 703 4441 
L 1819 4666 
L 2450 4666 
L 2450 531 
L 3481 531 
L 3481 0 
L 794 0 
L 794 531 
z
" id="DejaVuSans-31" transform="scale(0.015625)"/>
       </defs>
       <use xlink:href="#DejaVuSans-30"/>
       <use x="63.623047" xlink:href="#DejaVuSans-2e"/>
       <use x="95.410156" xlink:href="#DejaVuSans-31"/>
      </g>
     </g>
    </g>
    <g id="ytick_3">
     <g id="line2d_5">
      <g>
       <use style="stroke:#000000;stroke-width:0.8;" x="33.64" xlink:href="#mdf526bea3b" y="128.879904"/>
      </g>
     </g>
     <g id="text_5">
      <!-- 0.2 -->
      <g transform="translate(10.736875 132.679123)scale(0.1 -0.1)">
       <defs>
        <path d="M 1228 531 
L 3431 531 
L 3431 0 
L 469 0 
L 469 531 
Q 828 903 1448 1529 
Q 2069 2156 2228 2338 
Q 2531 2678 2651 2914 
Q 2772 3150 2772 3378 
Q 2772 3750 2511 3984 
Q 2250 4219 1831 4219 
Q 1534 4219 1204 4116 
Q 875 4013 500 3803 
L 500 4441 
Q 881 4594 1212 4672 
Q 1544 4750 1819 4750 
Q 2544 4750 2975 4387 
Q 3406 4025 3406 3419 
Q 3406 3131 3298 2873 
Q 3191 2616 2906 2266 
Q 2828 2175 2409 1742 
Q 1991 1309 1228 531 
z
" id="DejaVuSans-32" transform="scale(0.015625)"/>
       </defs>
       <use xlink:href="#DejaVuSans-30"/>
       <use x="63.623047" xlink:href="#DejaVuSans-2e"/>
       <use x="95.410156" xlink:href="#DejaVuSans-32"/>
      </g>
     </g>
    </g>
    <g id="ytick_4">
     <g id="line2d_6">
      <g>
       <use style="stroke:#000000;stroke-width:0.8;" x="33.64" xlink:href="#mdf526bea3b" y="92.279857"/>
      </g>
     </g>
     <g id="text_6">
      <!-- 0.3 -->
      <g transform="translate(10.736875 96.079075)scale(0.1 -0.1)">
       <defs>
        <path d="M 2597 2516 
Q 3050 2419 3304 2112 
Q 3559 1806 3559 1356 
Q 3559 666 3084 287 
Q 2609 -91 1734 -91 
Q 1441 -91 1130 -33 
Q 819 25 488 141 
L 488 750 
Q 750 597 1062 519 
Q 1375 441 1716 441 
Q 2309 441 2620 675 
Q 2931 909 2931 1356 
Q 2931 1769 2642 2001 
Q 2353 2234 1838 2234 
L 1294 2234 
L 1294 2753 
L 1863 2753 
Q 2328 2753 2575 2939 
Q 2822 3125 2822 3475 
Q 2822 3834 2567 4026 
Q 2313 4219 1838 4219 
Q 1578 4219 1281 4162 
Q 984 4106 628 3988 
L 628 4550 
Q 988 4650 1302 4700 
Q 1616 4750 1894 4750 
Q 2613 4750 3031 4423 
Q 3450 4097 3450 3541 
Q 3450 3153 3228 2886 
Q 3006 2619 2597 2516 
z
" id="DejaVuSans-33" transform="scale(0.015625)"/>
       </defs>
       <use xlink:href="#DejaVuSans-30"/>
       <use x="63.623047" xlink:href="#DejaVuSans-2e"/>
       <use x="95.410156" xlink:href="#DejaVuSans-33"/>
      </g>
     </g>
    </g>
    <g id="ytick_5">
     <g id="line2d_7">
      <g>
       <use style="stroke:#000000;stroke-width:0.8;" x="33.64" xlink:href="#mdf526bea3b" y="55.679809"/>
      </g>
     </g>
     <g id="text_7">
      <!-- 0.4 -->
      <g transform="translate(10.736875 59.479028)scale(0.1 -0.1)">
       <defs>
        <path d="M 2419 4116 
L 825 1625 
L 2419 1625 
L 2419 4116 
z
M 2253 4666 
L 3047 4666 
L 3047 1625 
L 3713 1625 
L 3713 1100 
L 3047 1100 
L 3047 0 
L 2419 0 
L 2419 1100 
L 313 1100 
L 313 1709 
L 2253 4666 
z
" id="DejaVuSans-34" transform="scale(0.015625)"/>
       </defs>
       <use xlink:href="#DejaVuSans-30"/>
       <use x="63.623047" xlink:href="#DejaVuSans-2e"/>
       <use x="95.410156" xlink:href="#DejaVuSans-34"/>
      </g>
     </g>
    </g>
   </g>
   <g id="LineCollection_1">
    <path clip-path="url(#pabadaf4818)" d="M 327.426407 202.08 
L 327.426407 164.332306 
" style="fill:none;stroke:#000000;"/>
   </g>
   <g id="line2d_8">
    <path clip-path="url(#pabadaf4818)" d="M 33.64 202.031018 
L 55.920134 201.832306 
L 68.452709 201.511316 
L 78.200268 201.037192 
L 85.162809 200.506118 
L 92.125351 199.746715 
L 97.695385 198.923775 
L 103.265418 197.859211 
L 107.442943 196.870471 
L 111.620468 195.691407 
L 115.797993 194.295802 
L 119.975518 192.656236 
L 124.153043 190.744601 
L 128.330569 188.53275 
L 132.508094 185.993286 
L 136.685619 183.100471 
L 140.863144 179.83126 
L 145.040669 176.166427 
L 149.218194 172.091753 
L 153.395719 167.599247 
L 157.573244 162.688338 
L 161.750769 157.367006 
L 165.928294 151.652772 
L 170.105819 145.57351 
L 175.675853 136.96865 
L 181.245886 127.907887 
L 189.600936 113.81479 
L 199.348495 97.419222 
L 204.918528 88.519667 
L 209.096054 82.255887 
L 213.273579 76.458586 
L 216.058595 72.901924 
L 218.843612 69.624395 
L 221.628629 66.652062 
L 224.413645 64.008962 
L 227.198662 61.716784 
L 229.983679 59.794572 
L 232.768696 58.258459 
L 235.553712 57.121446 
L 238.338729 56.393217 
L 241.123746 56.08 
L 243.908763 56.18448 
L 246.693779 56.705762 
L 249.478796 57.63938 
L 252.263813 58.977365 
L 255.048829 60.708353 
L 257.833846 62.817753 
L 260.618863 65.287944 
L 263.40388 68.098525 
L 266.188896 71.226596 
L 268.973913 74.647062 
L 271.75893 78.332977 
L 275.936455 84.297003 
L 280.11398 90.693557 
L 285.684013 99.716286 
L 294.039064 113.81479 
L 303.786622 130.207787 
L 309.356656 139.168005 
L 314.926689 147.638324 
L 319.104214 153.599672 
L 323.281739 159.185511 
L 327.459264 164.371492 
L 331.636789 169.143375 
L 335.814314 173.49615 
L 339.991839 177.43299 
L 344.169365 180.964097 
L 348.34689 184.105494 
L 352.524415 186.877809 
L 356.70194 189.305107 
L 360.879465 191.413787 
L 365.05699 193.231592 
L 369.234515 194.786737 
L 373.41204 196.107164 
L 377.589565 197.219946 
L 383.159599 198.424872 
L 388.729632 199.362374 
L 394.299666 200.082429 
L 401.262207 200.74218 
L 409.617258 201.27237 
L 419.364816 201.646139 
L 431.897391 201.894647 
L 450 202.031018 
L 450 202.031018 
" style="fill:none;stroke:#000000;stroke-linecap:square;"/>
   </g>
   <g id="patch_3">
    <path d="M 33.64 202.08 
L 33.64 26.88 
" style="fill:none;stroke:#000000;stroke-linecap:square;stroke-linejoin:miter;stroke-width:0.8;"/>
   </g>
   <g id="patch_4">
    <path d="M 450 202.08 
L 450 26.88 
" style="fill:none;stroke:#000000;stroke-linecap:square;stroke-linejoin:miter;stroke-width:0.8;"/>
   </g>
   <g id="patch_5">
    <path d="M 33.64 202.08 
L 450 202.08 
" style="fill:none;stroke:#000000;stroke-linecap:square;stroke-linejoin:miter;stroke-width:0.8;"/>
   </g>
   <g id="patch_6">
    <path d="M 33.64 26.88 
L 450 26.88 
" style="fill:none;stroke:#000000;stroke-linecap:square;stroke-linejoin:miter;stroke-width:0.8;"/>
   </g>
   <g id="patch_7">
    <path d="M 387.518241 182.096205 
Q 378.742977 187.734577 370.626137 192.949892 
" style="fill:none;stroke:#000000;stroke-linecap:round;stroke-width:0.7;"/>
    <path d="M 375.072478 192.470247 
L 370.626137 192.949892 
L 372.910226 189.105033 
" style="fill:none;stroke:#000000;stroke-linecap:round;stroke-width:0.7;"/>
   </g>
   <g id="text_8">
    <!-- 0.05 -->
    <g style="fill:#d62728;" transform="translate(388.713204 176.934612)scale(0.1 -0.1)">
     <defs>
      <path d="M 691 4666 
L 3169 4666 
L 3169 4134 
L 1269 4134 
L 1269 2991 
Q 1406 3038 1543 3061 
Q 1681 3084 1819 3084 
Q 2600 3084 3056 2656 
Q 3513 2228 3513 1497 
Q 3513 744 3044 326 
Q 2575 -91 1722 -91 
Q 1428 -91 1123 -41 
Q 819 9 494 109 
L 494 744 
Q 775 591 1075 516 
Q 1375 441 1709 441 
Q 2250 441 2565 725 
Q 2881 1009 2881 1497 
Q 2881 1984 2565 2268 
Q 2250 2553 1709 2553 
Q 1456 2553 1204 2497 
Q 953 2441 691 2322 
L 691 4666 
z
" id="DejaVuSans-35" transform="scale(0.015625)"/>
     </defs>
     <use xlink:href="#DejaVuSans-30"/>
     <use x="63.623047" xlink:href="#DejaVuSans-2e"/>
     <use x="95.410156" xlink:href="#DejaVuSans-30"/>
     <use x="159.033203" xlink:href="#DejaVuSans-35"/>
    </g>
   </g>
   <g id="text_9">
    <!-- Significance Level ($\alpha$) = 0.05 -->
    <g style="fill:#d62728;" transform="translate(39.8854 39.144)scale(0.09 -0.09)">
     <defs>
      <path d="M 3425 4513 
L 3425 3897 
Q 3066 4069 2747 4153 
Q 2428 4238 2131 4238 
Q 1616 4238 1336 4038 
Q 1056 3838 1056 3469 
Q 1056 3159 1242 3001 
Q 1428 2844 1947 2747 
L 2328 2669 
Q 3034 2534 3370 2195 
Q 3706 1856 3706 1288 
Q 3706 609 3251 259 
Q 2797 -91 1919 -91 
Q 1588 -91 1214 -16 
Q 841 59 441 206 
L 441 856 
Q 825 641 1194 531 
Q 1563 422 1919 422 
Q 2459 422 2753 634 
Q 3047 847 3047 1241 
Q 3047 1584 2836 1778 
Q 2625 1972 2144 2069 
L 1759 2144 
Q 1053 2284 737 2584 
Q 422 2884 422 3419 
Q 422 4038 858 4394 
Q 1294 4750 2059 4750 
Q 2388 4750 2728 4690 
Q 3069 4631 3425 4513 
z
" id="DejaVuSans-53" transform="scale(0.015625)"/>
      <path d="M 603 3500 
L 1178 3500 
L 1178 0 
L 603 0 
L 603 3500 
z
M 603 4863 
L 1178 4863 
L 1178 4134 
L 603 4134 
L 603 4863 
z
" id="DejaVuSans-69" transform="scale(0.015625)"/>
      <path d="M 2906 1791 
Q 2906 2416 2648 2759 
Q 2391 3103 1925 3103 
Q 1463 3103 1205 2759 
Q 947 2416 947 1791 
Q 947 1169 1205 825 
Q 1463 481 1925 481 
Q 2391 481 2648 825 
Q 2906 1169 2906 1791 
z
M 3481 434 
Q 3481 -459 3084 -895 
Q 2688 -1331 1869 -1331 
Q 1566 -1331 1297 -1286 
Q 1028 -1241 775 -1147 
L 775 -588 
Q 1028 -725 1275 -790 
Q 1522 -856 1778 -856 
Q 2344 -856 2625 -561 
Q 2906 -266 2906 331 
L 2906 616 
Q 2728 306 2450 153 
Q 2172 0 1784 0 
Q 1141 0 747 490 
Q 353 981 353 1791 
Q 353 2603 747 3093 
Q 1141 3584 1784 3584 
Q 2172 3584 2450 3431 
Q 2728 3278 2906 2969 
L 2906 3500 
L 3481 3500 
L 3481 434 
z
" id="DejaVuSans-67" transform="scale(0.015625)"/>
      <path d="M 3513 2113 
L 3513 0 
L 2938 0 
L 2938 2094 
Q 2938 2591 2744 2837 
Q 2550 3084 2163 3084 
Q 1697 3084 1428 2787 
Q 1159 2491 1159 1978 
L 1159 0 
L 581 0 
L 581 3500 
L 1159 3500 
L 1159 2956 
Q 1366 3272 1645 3428 
Q 1925 3584 2291 3584 
Q 2894 3584 3203 3211 
Q 3513 2838 3513 2113 
z
" id="DejaVuSans-6e" transform="scale(0.015625)"/>
      <path d="M 2375 4863 
L 2375 4384 
L 1825 4384 
Q 1516 4384 1395 4259 
Q 1275 4134 1275 3809 
L 1275 3500 
L 2222 3500 
L 2222 3053 
L 1275 3053 
L 1275 0 
L 697 0 
L 697 3053 
L 147 3053 
L 147 3500 
L 697 3500 
L 697 3744 
Q 697 4328 969 4595 
Q 1241 4863 1831 4863 
L 2375 4863 
z
" id="DejaVuSans-66" transform="scale(0.015625)"/>
      <path d="M 3122 3366 
L 3122 2828 
Q 2878 2963 2633 3030 
Q 2388 3097 2138 3097 
Q 1578 3097 1268 2742 
Q 959 2388 959 1747 
Q 959 1106 1268 751 
Q 1578 397 2138 397 
Q 2388 397 2633 464 
Q 2878 531 3122 666 
L 3122 134 
Q 2881 22 2623 -34 
Q 2366 -91 2075 -91 
Q 1284 -91 818 406 
Q 353 903 353 1747 
Q 353 2603 823 3093 
Q 1294 3584 2113 3584 
Q 2378 3584 2631 3529 
Q 2884 3475 3122 3366 
z
" id="DejaVuSans-63" transform="scale(0.015625)"/>
      <path d="M 2194 1759 
Q 1497 1759 1228 1600 
Q 959 1441 959 1056 
Q 959 750 1161 570 
Q 1363 391 1709 391 
Q 2188 391 2477 730 
Q 2766 1069 2766 1631 
L 2766 1759 
L 2194 1759 
z
M 3341 1997 
L 3341 0 
L 2766 0 
L 2766 531 
Q 2569 213 2275 61 
Q 1981 -91 1556 -91 
Q 1019 -91 701 211 
Q 384 513 384 1019 
Q 384 1609 779 1909 
Q 1175 2209 1959 2209 
L 2766 2209 
L 2766 2266 
Q 2766 2663 2505 2880 
Q 2244 3097 1772 3097 
Q 1472 3097 1187 3025 
Q 903 2953 641 2809 
L 641 3341 
Q 956 3463 1253 3523 
Q 1550 3584 1831 3584 
Q 2591 3584 2966 3190 
Q 3341 2797 3341 1997 
z
" id="DejaVuSans-61" transform="scale(0.015625)"/>
      <path d="M 3597 1894 
L 3597 1613 
L 953 1613 
Q 991 1019 1311 708 
Q 1631 397 2203 397 
Q 2534 397 2845 478 
Q 3156 559 3463 722 
L 3463 178 
Q 3153 47 2828 -22 
Q 2503 -91 2169 -91 
Q 1331 -91 842 396 
Q 353 884 353 1716 
Q 353 2575 817 3079 
Q 1281 3584 2069 3584 
Q 2775 3584 3186 3129 
Q 3597 2675 3597 1894 
z
M 3022 2063 
Q 3016 2534 2758 2815 
Q 2500 3097 2075 3097 
Q 1594 3097 1305 2825 
Q 1016 2553 972 2059 
L 3022 2063 
z
" id="DejaVuSans-65" transform="scale(0.015625)"/>
      <path id="DejaVuSans-20" transform="scale(0.015625)"/>
      <path d="M 628 4666 
L 1259 4666 
L 1259 531 
L 3531 531 
L 3531 0 
L 628 0 
L 628 4666 
z
" id="DejaVuSans-4c" transform="scale(0.015625)"/>
      <path d="M 191 3500 
L 800 3500 
L 1894 563 
L 2988 3500 
L 3597 3500 
L 2284 0 
L 1503 0 
L 191 3500 
z
" id="DejaVuSans-76" transform="scale(0.015625)"/>
      <path d="M 603 4863 
L 1178 4863 
L 1178 0 
L 603 0 
L 603 4863 
z
" id="DejaVuSans-6c" transform="scale(0.015625)"/>
      <path d="M 1984 4856 
Q 1566 4138 1362 3434 
Q 1159 2731 1159 2009 
Q 1159 1288 1364 580 
Q 1569 -128 1984 -844 
L 1484 -844 
Q 1016 -109 783 600 
Q 550 1309 550 2009 
Q 550 2706 781 3412 
Q 1013 4119 1484 4856 
L 1984 4856 
z
" id="DejaVuSans-28" transform="scale(0.015625)"/>
      <path d="M 2619 1628 
L 2622 2350 
Q 2625 3088 2069 3091 
Q 1653 3094 1394 2747 
Q 1069 2319 959 1747 
Q 825 1059 994 731 
Q 1169 397 1547 397 
Q 1966 397 2319 1063 
L 2619 1628 
z
M 2166 3578 
Q 3141 3594 3128 2584 
Q 3128 2584 3616 3500 
L 4128 3500 
L 3119 1603 
L 3109 919 
Q 3109 766 3194 638 
Q 3291 488 3391 488 
L 3669 488 
L 3575 0 
L 3228 0 
Q 2934 0 2722 263 
Q 2622 394 2619 669 
Q 2416 334 2066 50 
Q 1900 -81 1453 -78 
Q 722 -72 456 397 
Q 184 884 353 1747 
Q 534 2675 1009 3097 
Q 1544 3569 2166 3578 
z
" id="DejaVuSans-Oblique-3b1" transform="scale(0.015625)"/>
      <path d="M 513 4856 
L 1013 4856 
Q 1481 4119 1714 3412 
Q 1947 2706 1947 2009 
Q 1947 1309 1714 600 
Q 1481 -109 1013 -844 
L 513 -844 
Q 928 -128 1133 580 
Q 1338 1288 1338 2009 
Q 1338 2731 1133 3434 
Q 928 4138 513 4856 
z
" id="DejaVuSans-29" transform="scale(0.015625)"/>
      <path d="M 678 2906 
L 4684 2906 
L 4684 2381 
L 678 2381 
L 678 2906 
z
M 678 1631 
L 4684 1631 
L 4684 1100 
L 678 1100 
L 678 1631 
z
" id="DejaVuSans-3d" transform="scale(0.015625)"/>
     </defs>
     <use transform="translate(0 0.015625)" xlink:href="#DejaVuSans-53"/>
     <use transform="translate(63.476562 0.015625)" xlink:href="#DejaVuSans-69"/>
     <use transform="translate(91.259766 0.015625)" xlink:href="#DejaVuSans-67"/>
     <use transform="translate(154.736328 0.015625)" xlink:href="#DejaVuSans-6e"/>
     <use transform="translate(218.115234 0.015625)" xlink:href="#DejaVuSans-69"/>
     <use transform="translate(245.898438 0.015625)" xlink:href="#DejaVuSans-66"/>
     <use transform="translate(281.103516 0.015625)" xlink:href="#DejaVuSans-69"/>
     <use transform="translate(308.886719 0.015625)" xlink:href="#DejaVuSans-63"/>
     <use transform="translate(363.867188 0.015625)" xlink:href="#DejaVuSans-61"/>
     <use transform="translate(425.146484 0.015625)" xlink:href="#DejaVuSans-6e"/>
     <use transform="translate(488.525391 0.015625)" xlink:href="#DejaVuSans-63"/>
     <use transform="translate(543.505859 0.015625)" xlink:href="#DejaVuSans-65"/>
     <use transform="translate(605.029297 0.015625)" xlink:href="#DejaVuSans-20"/>
     <use transform="translate(636.816406 0.015625)" xlink:href="#DejaVuSans-4c"/>
     <use transform="translate(692.529297 0.015625)" xlink:href="#DejaVuSans-65"/>
     <use transform="translate(754.052734 0.015625)" xlink:href="#DejaVuSans-76"/>
     <use transform="translate(813.232422 0.015625)" xlink:href="#DejaVuSans-65"/>
     <use transform="translate(874.755859 0.015625)" xlink:href="#DejaVuSans-6c"/>
     <use transform="translate(902.539062 0.015625)" xlink:href="#DejaVuSans-20"/>
     <use transform="translate(934.326172 0.015625)" xlink:href="#DejaVuSans-28"/>
     <use transform="translate(973.339844 0.015625)" xlink:href="#DejaVuSans-Oblique-3b1"/>
     <use transform="translate(1039.257812 0.015625)" xlink:href="#DejaVuSans-29"/>
     <use transform="translate(1078.271484 0.015625)" xlink:href="#DejaVuSans-20"/>
     <use transform="translate(1110.058594 0.015625)" xlink:href="#DejaVuSans-3d"/>
     <use transform="translate(1193.847656 0.015625)" xlink:href="#DejaVuSans-20"/>
     <use transform="translate(1225.634766 0.015625)" xlink:href="#DejaVuSans-30"/>
     <use transform="translate(1289.257812 0.015625)" xlink:href="#DejaVuSans-2e"/>
     <use transform="translate(1321.044922 0.015625)" xlink:href="#DejaVuSans-30"/>
     <use transform="translate(1384.667969 0.015625)" xlink:href="#DejaVuSans-35"/>
    </g>
   </g>
   <g id="text_10">
    <!-- Standard Normal Distribution (Z) -->
    <g transform="translate(143.298125 20.88)scale(0.12 -0.12)">
     <defs>
      <path d="M 1172 4494 
L 1172 3500 
L 2356 3500 
L 2356 3053 
L 1172 3053 
L 1172 1153 
Q 1172 725 1289 603 
Q 1406 481 1766 481 
L 2356 481 
L 2356 0 
L 1766 0 
Q 1100 0 847 248 
Q 594 497 594 1153 
L 594 3053 
L 172 3053 
L 172 3500 
L 594 3500 
L 594 4494 
L 1172 4494 
z
" id="DejaVuSans-74" transform="scale(0.015625)"/>
      <path d="M 2906 2969 
L 2906 4863 
L 3481 4863 
L 3481 0 
L 2906 0 
L 2906 525 
Q 2725 213 2448 61 
Q 2172 -91 1784 -91 
Q 1150 -91 751 415 
Q 353 922 353 1747 
Q 353 2572 751 3078 
Q 1150 3584 1784 3584 
Q 2172 3584 2448 3432 
Q 2725 3281 2906 2969 
z
M 947 1747 
Q 947 1113 1208 752 
Q 1469 391 1925 391 
Q 2381 391 2643 752 
Q 2906 1113 2906 1747 
Q 2906 2381 2643 2742 
Q 2381 3103 1925 3103 
Q 1469 3103 1208 2742 
Q 947 2381 947 1747 
z
" id="DejaVuSans-64" transform="scale(0.015625)"/>
      <path d="M 2631 2963 
Q 2534 3019 2420 3045 
Q 2306 3072 2169 3072 
Q 1681 3072 1420 2755 
Q 1159 2438 1159 1844 
L 1159 0 
L 581 0 
L 581 3500 
L 1159 3500 
L 1159 2956 
Q 1341 3275 1631 3429 
Q 1922 3584 2338 3584 
Q 2397 3584 2469 3576 
Q 2541 3569 2628 3553 
L 2631 2963 
z
" id="DejaVuSans-72" transform="scale(0.015625)"/>
      <path d="M 628 4666 
L 1478 4666 
L 3547 763 
L 3547 4666 
L 4159 4666 
L 4159 0 
L 3309 0 
L 1241 3903 
L 1241 0 
L 628 0 
L 628 4666 
z
" id="DejaVuSans-4e" transform="scale(0.015625)"/>
      <path d="M 1959 3097 
Q 1497 3097 1228 2736 
Q 959 2375 959 1747 
Q 959 1119 1226 758 
Q 1494 397 1959 397 
Q 2419 397 2687 759 
Q 2956 1122 2956 1747 
Q 2956 2369 2687 2733 
Q 2419 3097 1959 3097 
z
M 1959 3584 
Q 2709 3584 3137 3096 
Q 3566 2609 3566 1747 
Q 3566 888 3137 398 
Q 2709 -91 1959 -91 
Q 1206 -91 779 398 
Q 353 888 353 1747 
Q 353 2609 779 3096 
Q 1206 3584 1959 3584 
z
" id="DejaVuSans-6f" transform="scale(0.015625)"/>
      <path d="M 3328 2828 
Q 3544 3216 3844 3400 
Q 4144 3584 4550 3584 
Q 5097 3584 5394 3201 
Q 5691 2819 5691 2113 
L 5691 0 
L 5113 0 
L 5113 2094 
Q 5113 2597 4934 2840 
Q 4756 3084 4391 3084 
Q 3944 3084 3684 2787 
Q 3425 2491 3425 1978 
L 3425 0 
L 2847 0 
L 2847 2094 
Q 2847 2600 2669 2842 
Q 2491 3084 2119 3084 
Q 1678 3084 1418 2786 
Q 1159 2488 1159 1978 
L 1159 0 
L 581 0 
L 581 3500 
L 1159 3500 
L 1159 2956 
Q 1356 3278 1631 3431 
Q 1906 3584 2284 3584 
Q 2666 3584 2933 3390 
Q 3200 3197 3328 2828 
z
" id="DejaVuSans-6d" transform="scale(0.015625)"/>
      <path d="M 1259 4147 
L 1259 519 
L 2022 519 
Q 2988 519 3436 956 
Q 3884 1394 3884 2338 
Q 3884 3275 3436 3711 
Q 2988 4147 2022 4147 
L 1259 4147 
z
M 628 4666 
L 1925 4666 
Q 3281 4666 3915 4102 
Q 4550 3538 4550 2338 
Q 4550 1131 3912 565 
Q 3275 0 1925 0 
L 628 0 
L 628 4666 
z
" id="DejaVuSans-44" transform="scale(0.015625)"/>
      <path d="M 2834 3397 
L 2834 2853 
Q 2591 2978 2328 3040 
Q 2066 3103 1784 3103 
Q 1356 3103 1142 2972 
Q 928 2841 928 2578 
Q 928 2378 1081 2264 
Q 1234 2150 1697 2047 
L 1894 2003 
Q 2506 1872 2764 1633 
Q 3022 1394 3022 966 
Q 3022 478 2636 193 
Q 2250 -91 1575 -91 
Q 1294 -91 989 -36 
Q 684 19 347 128 
L 347 722 
Q 666 556 975 473 
Q 1284 391 1588 391 
Q 1994 391 2212 530 
Q 2431 669 2431 922 
Q 2431 1156 2273 1281 
Q 2116 1406 1581 1522 
L 1381 1569 
Q 847 1681 609 1914 
Q 372 2147 372 2553 
Q 372 3047 722 3315 
Q 1072 3584 1716 3584 
Q 2034 3584 2315 3537 
Q 2597 3491 2834 3397 
z
" id="DejaVuSans-73" transform="scale(0.015625)"/>
      <path d="M 3116 1747 
Q 3116 2381 2855 2742 
Q 2594 3103 2138 3103 
Q 1681 3103 1420 2742 
Q 1159 2381 1159 1747 
Q 1159 1113 1420 752 
Q 1681 391 2138 391 
Q 2594 391 2855 752 
Q 3116 1113 3116 1747 
z
M 1159 2969 
Q 1341 3281 1617 3432 
Q 1894 3584 2278 3584 
Q 2916 3584 3314 3078 
Q 3713 2572 3713 1747 
Q 3713 922 3314 415 
Q 2916 -91 2278 -91 
Q 1894 -91 1617 61 
Q 1341 213 1159 525 
L 1159 0 
L 581 0 
L 581 4863 
L 1159 4863 
L 1159 2969 
z
" id="DejaVuSans-62" transform="scale(0.015625)"/>
      <path d="M 544 1381 
L 544 3500 
L 1119 3500 
L 1119 1403 
Q 1119 906 1312 657 
Q 1506 409 1894 409 
Q 2359 409 2629 706 
Q 2900 1003 2900 1516 
L 2900 3500 
L 3475 3500 
L 3475 0 
L 2900 0 
L 2900 538 
Q 2691 219 2414 64 
Q 2138 -91 1772 -91 
Q 1169 -91 856 284 
Q 544 659 544 1381 
z
M 1991 3584 
L 1991 3584 
z
" id="DejaVuSans-75" transform="scale(0.015625)"/>
      <path d="M 359 4666 
L 4025 4666 
L 4025 4184 
L 1075 531 
L 4097 531 
L 4097 0 
L 288 0 
L 288 481 
L 3238 4134 
L 359 4134 
L 359 4666 
z
" id="DejaVuSans-5a" transform="scale(0.015625)"/>
     </defs>
     <use xlink:href="#DejaVuSans-53"/>
     <use x="63.476562" xlink:href="#DejaVuSans-74"/>
     <use x="102.685547" xlink:href="#DejaVuSans-61"/>
     <use x="163.964844" xlink:href="#DejaVuSans-6e"/>
     <use x="227.34375" xlink:href="#DejaVuSans-64"/>
     <use x="290.820312" xlink:href="#DejaVuSans-61"/>
     <use x="352.099609" xlink:href="#DejaVuSans-72"/>
     <use x="391.462891" xlink:href="#DejaVuSans-64"/>
     <use x="454.939453" xlink:href="#DejaVuSans-20"/>
     <use x="486.726562" xlink:href="#DejaVuSans-4e"/>
     <use x="561.53125" xlink:href="#DejaVuSans-6f"/>
     <use x="622.712891" xlink:href="#DejaVuSans-72"/>
     <use x="662.076172" xlink:href="#DejaVuSans-6d"/>
     <use x="759.488281" xlink:href="#DejaVuSans-61"/>
     <use x="820.767578" xlink:href="#DejaVuSans-6c"/>
     <use x="848.550781" xlink:href="#DejaVuSans-20"/>
     <use x="880.337891" xlink:href="#DejaVuSans-44"/>
     <use x="957.339844" xlink:href="#DejaVuSans-69"/>
     <use x="985.123047" xlink:href="#DejaVuSans-73"/>
     <use x="1037.222656" xlink:href="#DejaVuSans-74"/>
     <use x="1076.431641" xlink:href="#DejaVuSans-72"/>
     <use x="1117.544922" xlink:href="#DejaVuSans-69"/>
     <use x="1145.328125" xlink:href="#DejaVuSans-62"/>
     <use x="1208.804688" xlink:href="#DejaVuSans-75"/>
     <use x="1272.183594" xlink:href="#DejaVuSans-74"/>
     <use x="1311.392578" xlink:href="#DejaVuSans-69"/>
     <use x="1339.175781" xlink:href="#DejaVuSans-6f"/>
     <use x="1400.357422" xlink:href="#DejaVuSans-6e"/>
     <use x="1463.736328" xlink:href="#DejaVuSans-20"/>
     <use x="1495.523438" xlink:href="#DejaVuSans-28"/>
     <use x="1534.537109" xlink:href="#DejaVuSans-5a"/>
     <use x="1603.042969" xlink:href="#DejaVuSans-29"/>
    </g>
   </g>
  </g>
  <g id="axes_2">
   <g id="patch_8">
    <path d="M 33.64 405.16 
L 450 405.16 
L 450 229.96 
L 33.64 229.96 
z
" style="fill:#ffffff;"/>
   </g>
   <g id="PolyCollection_2">
    <defs>
     <path d="M 282.987595 -41.24 
L 282.987595 -148.029073 
L 284.674589 -145.271182 
L 286.361583 -142.478091 
L 288.048577 -139.656533 
L 289.735571 -136.813143 
L 291.422565 -133.954439 
L 293.109559 -131.086792 
L 294.796553 -128.21641 
L 296.483547 -125.349311 
L 298.170541 -122.491309 
L 299.857535 -119.647997 
L 301.544529 -116.824726 
L 303.231523 -114.026599 
L 304.918517 -111.258453 
L 306.605511 -108.52485 
L 308.292505 -105.830071 
L 309.979499 -103.178108 
L 311.666493 -100.572658 
L 313.353487 -98.017122 
L 315.040481 -95.514601 
L 316.727475 -93.067898 
L 318.414469 -90.679521 
L 320.101463 -88.351682 
L 321.788457 -86.086304 
L 323.475451 -83.885028 
L 325.162445 -81.749217 
L 326.849439 -79.679966 
L 328.536433 -77.678109 
L 330.223427 -75.744232 
L 331.910421 -73.878681 
L 333.597415 -72.081574 
L 335.284409 -70.352812 
L 336.971403 -68.692094 
L 338.658397 -67.098927 
L 340.345391 -65.572639 
L 342.032385 -64.112395 
L 343.719379 -62.717204 
L 345.406373 -61.385941 
L 347.093367 -60.117351 
L 348.780361 -58.91007 
L 350.467355 -57.762629 
L 352.154349 -56.673476 
L 353.841343 -55.64098 
L 355.528337 -54.663447 
L 357.215331 -53.739128 
L 358.902325 -52.866235 
L 360.589319 -52.042946 
L 362.276313 -51.267415 
L 363.963307 -50.537784 
L 365.650301 -49.85219 
L 367.337294 -49.208774 
L 369.024288 -48.605684 
L 370.711282 -48.041087 
L 372.398276 -47.513173 
L 374.08527 -47.020161 
L 375.772264 -46.560302 
L 377.459258 -46.131886 
L 379.146252 -45.733245 
L 380.833246 -45.362755 
L 382.52024 -45.018842 
L 384.207234 -44.699979 
L 385.894228 -44.404696 
L 387.581222 -44.131574 
L 389.268216 -43.879248 
L 390.95521 -43.646411 
L 392.642204 -43.431811 
L 394.329198 -43.234253 
L 396.016192 -43.052596 
L 397.703186 -42.885756 
L 399.39018 -42.732703 
L 401.077174 -42.592463 
L 402.764168 -42.464111 
L 404.451162 -42.346777 
L 406.138156 -42.239638 
L 407.82515 -42.141923 
L 409.512144 -42.052905 
L 411.199138 -41.971903 
L 412.886132 -41.898281 
L 414.573126 -41.831443 
L 416.26012 -41.770833 
L 417.947114 -41.715934 
L 419.634108 -41.666264 
L 421.321102 -41.621378 
L 423.008096 -41.580859 
L 424.69509 -41.544326 
L 426.382084 -41.511423 
L 428.069078 -41.481823 
L 429.756072 -41.455224 
L 431.443066 -41.431351 
L 433.13006 -41.409946 
L 434.817054 -41.390778 
L 436.504048 -41.373631 
L 438.191042 -41.35831 
L 439.878036 -41.344635 
L 441.56503 -41.332444 
L 443.252024 -41.321587 
L 444.939018 -41.31193 
L 446.626012 -41.303349 
L 448.313006 -41.295734 
L 450 -41.288982 
L 450 -41.24 
L 450 -41.24 
L 448.313006 -41.24 
L 446.626012 -41.24 
L 444.939018 -41.24 
L 443.252024 -41.24 
L 441.56503 -41.24 
L 439.878036 -41.24 
L 438.191042 -41.24 
L 436.504048 -41.24 
L 434.817054 -41.24 
L 433.13006 -41.24 
L 431.443066 -41.24 
L 429.756072 -41.24 
L 428.069078 -41.24 
L 426.382084 -41.24 
L 424.69509 -41.24 
L 423.008096 -41.24 
L 421.321102 -41.24 
L 419.634108 -41.24 
L 417.947114 -41.24 
L 416.26012 -41.24 
L 414.573126 -41.24 
L 412.886132 -41.24 
L 411.199138 -41.24 
L 409.512144 -41.24 
L 407.82515 -41.24 
L 406.138156 -41.24 
L 404.451162 -41.24 
L 402.764168 -41.24 
L 401.077174 -41.24 
L 399.39018 -41.24 
L 397.703186 -41.24 
L 396.016192 -41.24 
L 394.329198 -41.24 
L 392.642204 -41.24 
L 390.95521 -41.24 
L 389.268216 -41.24 
L 387.581222 -41.24 
L 385.894228 -41.24 
L 384.207234 -41.24 
L 382.52024 -41.24 
L 380.833246 -41.24 
L 379.146252 -41.24 
L 377.459258 -41.24 
L 375.772264 -41.24 
L 374.08527 -41.24 
L 372.398276 -41.24 
L 370.711282 -41.24 
L 369.024288 -41.24 
L 367.337294 -41.24 
L 365.650301 -41.24 
L 363.963307 -41.24 
L 362.276313 -41.24 
L 360.589319 -41.24 
L 358.902325 -41.24 
L 357.215331 -41.24 
L 355.528337 -41.24 
L 353.841343 -41.24 
L 352.154349 -41.24 
L 350.467355 -41.24 
L 348.780361 -41.24 
L 347.093367 -41.24 
L 345.406373 -41.24 
L 343.719379 -41.24 
L 342.032385 -41.24 
L 340.345391 -41.24 
L 338.658397 -41.24 
L 336.971403 -41.24 
L 335.284409 -41.24 
L 333.597415 -41.24 
L 331.910421 -41.24 
L 330.223427 -41.24 
L 328.536433 -41.24 
L 326.849439 -41.24 
L 325.162445 -41.24 
L 323.475451 -41.24 
L 321.788457 -41.24 
L 320.101463 -41.24 
L 318.414469 -41.24 
L 316.727475 -41.24 
L 315.040481 -41.24 
L 313.353487 -41.24 
L 311.666493 -41.24 
L 309.979499 -41.24 
L 308.292505 -41.24 
L 306.605511 -41.24 
L 304.918517 -41.24 
L 303.231523 -41.24 
L 301.544529 -41.24 
L 299.857535 -41.24 
L 298.170541 -41.24 
L 296.483547 -41.24 
L 294.796553 -41.24 
L 293.109559 -41.24 
L 291.422565 -41.24 
L 289.735571 -41.24 
L 288.048577 -41.24 
L 286.361583 -41.24 
L 284.674589 -41.24 
L 282.987595 -41.24 
z
" id="mc96136a499" style="stroke:#1f77b4;stroke-opacity:0.7;"/>
    </defs>
    <g clip-path="url(#p55e199caea)">
     <use style="fill:#1f77b4;fill-opacity:0.7;stroke:#1f77b4;stroke-opacity:0.7;" x="0" xlink:href="#mc96136a499" y="446.4"/>
    </g>
   </g>
   <g id="PolyCollection_3">
    <defs>
     <path d="M 327.426407 -41.24 
L 327.426407 -78.987694 
L 326.97753 -79.525594 
L 326.528653 -80.068271 
L 326.079776 -80.615711 
L 325.630899 -81.167899 
L 325.182023 -81.72482 
L 324.733146 -82.286454 
L 324.284269 -82.852785 
L 323.835392 -83.423791 
L 323.386515 -83.999452 
L 322.937638 -84.579745 
L 322.488761 -85.164645 
L 322.039884 -85.754128 
L 321.591007 -86.348165 
L 321.142131 -86.946731 
L 320.693254 -87.549794 
L 320.244377 -88.157323 
L 319.7955 -88.769287 
L 319.346623 -89.385652 
L 318.897746 -90.006382 
L 318.448869 -90.631441 
L 317.999992 -91.26079 
L 317.551115 -91.894391 
L 317.102239 -92.532201 
L 316.653362 -93.174179 
L 316.204485 -93.820281 
L 315.755608 -94.470461 
L 315.306731 -95.124672 
L 314.857854 -95.782866 
L 314.408977 -96.444993 
L 313.9601 -97.111002 
L 313.511223 -97.78084 
L 313.062347 -98.454452 
L 312.61347 -99.131783 
L 312.164593 -99.812775 
L 311.715716 -100.49737 
L 311.266839 -101.185507 
L 310.817962 -101.877124 
L 310.369085 -102.572159 
L 309.920208 -103.270545 
L 309.471331 -103.972218 
L 309.022455 -104.677108 
L 308.573578 -105.385147 
L 308.124701 -106.096265 
L 307.675824 -106.810388 
L 307.226947 -107.527443 
L 306.77807 -108.247354 
L 306.329193 -108.970046 
L 305.880316 -109.69544 
L 305.431439 -110.423457 
L 304.982563 -111.154015 
L 304.533686 -111.887032 
L 304.084809 -112.622424 
L 303.635932 -113.360106 
L 303.187055 -114.099992 
L 302.738178 -114.841993 
L 302.289301 -115.58602 
L 301.840424 -116.331981 
L 301.391547 -117.079786 
L 300.942671 -117.829341 
L 300.493794 -118.58055 
L 300.044917 -119.333319 
L 299.59604 -120.087548 
L 299.147163 -120.84314 
L 298.698286 -121.599995 
L 298.249409 -122.358012 
L 297.800532 -123.117088 
L 297.351655 -123.87712 
L 296.902779 -124.638003 
L 296.453902 -125.399632 
L 296.005025 -126.161898 
L 295.556148 -126.924695 
L 295.107271 -127.687913 
L 294.658394 -128.451441 
L 294.209517 -129.215168 
L 293.76064 -129.978982 
L 293.311763 -130.74277 
L 292.862887 -131.506417 
L 292.41401 -132.269807 
L 291.965133 -133.032826 
L 291.516256 -133.795354 
L 291.067379 -134.557276 
L 290.618502 -135.318471 
L 290.169625 -136.07882 
L 289.720748 -136.838202 
L 289.271871 -137.596498 
L 288.822995 -138.353584 
L 288.374118 -139.109338 
L 287.925241 -139.863636 
L 287.476364 -140.616356 
L 287.027487 -141.367372 
L 286.57861 -142.11656 
L 286.129733 -142.863794 
L 285.680856 -143.608947 
L 285.231979 -144.351894 
L 284.783103 -145.092507 
L 284.334226 -145.83066 
L 283.885349 -146.566223 
L 283.436472 -147.299071 
L 282.987595 -148.029073 
L 282.987595 -41.24 
L 282.987595 -41.24 
L 283.436472 -41.24 
L 283.885349 -41.24 
L 284.334226 -41.24 
L 284.783103 -41.24 
L 285.231979 -41.24 
L 285.680856 -41.24 
L 286.129733 -41.24 
L 286.57861 -41.24 
L 287.027487 -41.24 
L 287.476364 -41.24 
L 287.925241 -41.24 
L 288.374118 -41.24 
L 288.822995 -41.24 
L 289.271871 -41.24 
L 289.720748 -41.24 
L 290.169625 -41.24 
L 290.618502 -41.24 
L 291.067379 -41.24 
L 291.516256 -41.24 
L 291.965133 -41.24 
L 292.41401 -41.24 
L 292.862887 -41.24 
L 293.311763 -41.24 
L 293.76064 -41.24 
L 294.209517 -41.24 
L 294.658394 -41.24 
L 295.107271 -41.24 
L 295.556148 -41.24 
L 296.005025 -41.24 
L 296.453902 -41.24 
L 296.902779 -41.24 
L 297.351655 -41.24 
L 297.800532 -41.24 
L 298.249409 -41.24 
L 298.698286 -41.24 
L 299.147163 -41.24 
L 299.59604 -41.24 
L 300.044917 -41.24 
L 300.493794 -41.24 
L 300.942671 -41.24 
L 301.391547 -41.24 
L 301.840424 -41.24 
L 302.289301 -41.24 
L 302.738178 -41.24 
L 303.187055 -41.24 
L 303.635932 -41.24 
L 304.084809 -41.24 
L 304.533686 -41.24 
L 304.982563 -41.24 
L 305.431439 -41.24 
L 305.880316 -41.24 
L 306.329193 -41.24 
L 306.77807 -41.24 
L 307.226947 -41.24 
L 307.675824 -41.24 
L 308.124701 -41.24 
L 308.573578 -41.24 
L 309.022455 -41.24 
L 309.471331 -41.24 
L 309.920208 -41.24 
L 310.369085 -41.24 
L 310.817962 -41.24 
L 311.266839 -41.24 
L 311.715716 -41.24 
L 312.164593 -41.24 
L 312.61347 -41.24 
L 313.062347 -41.24 
L 313.511223 -41.24 
L 313.9601 -41.24 
L 314.408977 -41.24 
L 314.857854 -41.24 
L 315.306731 -41.24 
L 315.755608 -41.24 
L 316.204485 -41.24 
L 316.653362 -41.24 
L 317.102239 -41.24 
L 317.551115 -41.24 
L 317.999992 -41.24 
L 318.448869 -41.24 
L 318.897746 -41.24 
L 319.346623 -41.24 
L 319.7955 -41.24 
L 320.244377 -41.24 
L 320.693254 -41.24 
L 321.142131 -41.24 
L 321.591007 -41.24 
L 322.039884 -41.24 
L 322.488761 -41.24 
L 322.937638 -41.24 
L 323.386515 -41.24 
L 323.835392 -41.24 
L 324.284269 -41.24 
L 324.733146 -41.24 
L 325.182023 -41.24 
L 325.630899 -41.24 
L 326.079776 -41.24 
L 326.528653 -41.24 
L 326.97753 -41.24 
L 327.426407 -41.24 
z
" id="m7e564ea59d" style="stroke:#d62728;stroke-opacity:0.2;"/>
    </defs>
    <g clip-path="url(#p55e199caea)">
     <use style="fill:#d62728;fill-opacity:0.2;stroke:#d62728;stroke-opacity:0.2;" x="0" xlink:href="#m7e564ea59d" y="446.4"/>
    </g>
   </g>
   <g id="matplotlib.axis_3">
    <g id="xtick_3">
     <g id="line2d_9">
      <g>
       <use style="stroke:#000000;stroke-width:0.8;" x="282.987595" xlink:href="#m0fa91c1c58" y="405.16"/>
      </g>
     </g>
     <g id="text_11">
      <!-- 0.791 -->
      <g transform="translate(268.673533 419.758438)scale(0.1 -0.1)">
       <defs>
        <path d="M 525 4666 
L 3525 4666 
L 3525 4397 
L 1831 0 
L 1172 0 
L 2766 4134 
L 525 4134 
L 525 4666 
z
" id="DejaVuSans-37" transform="scale(0.015625)"/>
        <path d="M 703 97 
L 703 672 
Q 941 559 1184 500 
Q 1428 441 1663 441 
Q 2288 441 2617 861 
Q 2947 1281 2994 2138 
Q 2813 1869 2534 1725 
Q 2256 1581 1919 1581 
Q 1219 1581 811 2004 
Q 403 2428 403 3163 
Q 403 3881 828 4315 
Q 1253 4750 1959 4750 
Q 2769 4750 3195 4129 
Q 3622 3509 3622 2328 
Q 3622 1225 3098 567 
Q 2575 -91 1691 -91 
Q 1453 -91 1209 -44 
Q 966 3 703 97 
z
M 1959 2075 
Q 2384 2075 2632 2365 
Q 2881 2656 2881 3163 
Q 2881 3666 2632 3958 
Q 2384 4250 1959 4250 
Q 1534 4250 1286 3958 
Q 1038 3666 1038 3163 
Q 1038 2656 1286 2365 
Q 1534 2075 1959 2075 
z
" id="DejaVuSans-39" transform="scale(0.015625)"/>
       </defs>
       <use xlink:href="#DejaVuSans-30"/>
       <use x="63.623047" xlink:href="#DejaVuSans-2e"/>
       <use x="95.410156" xlink:href="#DejaVuSans-37"/>
       <use x="159.033203" xlink:href="#DejaVuSans-39"/>
       <use x="222.65625" xlink:href="#DejaVuSans-31"/>
      </g>
     </g>
    </g>
    <g id="xtick_4">
     <g id="line2d_10">
      <g>
       <use style="stroke:#000000;stroke-width:0.8;" x="241.82" xlink:href="#m0fa91c1c58" y="405.16"/>
      </g>
     </g>
     <g id="text_12">
      <!-- 0 -->
      <g transform="translate(238.63875 419.758438)scale(0.1 -0.1)">
       <use xlink:href="#DejaVuSans-30"/>
      </g>
     </g>
    </g>
    <g id="text_13">
     <!-- z-value -->
     <g transform="translate(225.660781 432.676719)scale(0.09 -0.09)">
      <defs>
       <path d="M 353 3500 
L 3084 3500 
L 3084 2975 
L 922 459 
L 3084 459 
L 3084 0 
L 275 0 
L 275 525 
L 2438 3041 
L 353 3041 
L 353 3500 
z
" id="DejaVuSans-7a" transform="scale(0.015625)"/>
       <path d="M 313 2009 
L 1997 2009 
L 1997 1497 
L 313 1497 
L 313 2009 
z
" id="DejaVuSans-2d" transform="scale(0.015625)"/>
      </defs>
      <use xlink:href="#DejaVuSans-7a"/>
      <use x="52.490234" xlink:href="#DejaVuSans-2d"/>
      <use x="85.949219" xlink:href="#DejaVuSans-76"/>
      <use x="145.128906" xlink:href="#DejaVuSans-61"/>
      <use x="206.408203" xlink:href="#DejaVuSans-6c"/>
      <use x="234.191406" xlink:href="#DejaVuSans-75"/>
      <use x="297.570312" xlink:href="#DejaVuSans-65"/>
     </g>
    </g>
   </g>
   <g id="matplotlib.axis_4">
    <g id="ytick_6">
     <g id="line2d_11">
      <g>
       <use style="stroke:#000000;stroke-width:0.8;" x="33.64" xlink:href="#mdf526bea3b" y="405.16"/>
      </g>
     </g>
     <g id="text_14">
      <!-- 0.0 -->
      <g transform="translate(10.736875 408.959219)scale(0.1 -0.1)">
       <use xlink:href="#DejaVuSans-30"/>
       <use x="63.623047" xlink:href="#DejaVuSans-2e"/>
       <use x="95.410156" xlink:href="#DejaVuSans-30"/>
      </g>
     </g>
    </g>
    <g id="ytick_7">
     <g id="line2d_12">
      <g>
       <use style="stroke:#000000;stroke-width:0.8;" x="33.64" xlink:href="#mdf526bea3b" y="368.559952"/>
      </g>
     </g>
     <g id="text_15">
      <!-- 0.1 -->
      <g transform="translate(10.736875 372.359171)scale(0.1 -0.1)">
       <use xlink:href="#DejaVuSans-30"/>
       <use x="63.623047" xlink:href="#DejaVuSans-2e"/>
       <use x="95.410156" xlink:href="#DejaVuSans-31"/>
      </g>
     </g>
    </g>
    <g id="ytick_8">
     <g id="line2d_13">
      <g>
       <use style="stroke:#000000;stroke-width:0.8;" x="33.64" xlink:href="#mdf526bea3b" y="331.959904"/>
      </g>
     </g>
     <g id="text_16">
      <!-- 0.2 -->
      <g transform="translate(10.736875 335.759123)scale(0.1 -0.1)">
       <use xlink:href="#DejaVuSans-30"/>
       <use x="63.623047" xlink:href="#DejaVuSans-2e"/>
       <use x="95.410156" xlink:href="#DejaVuSans-32"/>
      </g>
     </g>
    </g>
    <g id="ytick_9">
     <g id="line2d_14">
      <g>
       <use style="stroke:#000000;stroke-width:0.8;" x="33.64" xlink:href="#mdf526bea3b" y="295.359857"/>
      </g>
     </g>
     <g id="text_17">
      <!-- 0.3 -->
      <g transform="translate(10.736875 299.159075)scale(0.1 -0.1)">
       <use xlink:href="#DejaVuSans-30"/>
       <use x="63.623047" xlink:href="#DejaVuSans-2e"/>
       <use x="95.410156" xlink:href="#DejaVuSans-33"/>
      </g>
     </g>
    </g>
    <g id="ytick_10">
     <g id="line2d_15">
      <g>
       <use style="stroke:#000000;stroke-width:0.8;" x="33.64" xlink:href="#mdf526bea3b" y="258.759809"/>
      </g>
     </g>
     <g id="text_18">
      <!-- 0.4 -->
      <g transform="translate(10.736875 262.559028)scale(0.1 -0.1)">
       <use xlink:href="#DejaVuSans-30"/>
       <use x="63.623047" xlink:href="#DejaVuSans-2e"/>
       <use x="95.410156" xlink:href="#DejaVuSans-34"/>
      </g>
     </g>
    </g>
   </g>
   <g id="LineCollection_2">
    <path clip-path="url(#p55e199caea)" d="M 327.426407 405.16 
L 327.426407 367.412306 
" style="fill:none;stroke:#000000;stroke-dasharray:1,1.65;stroke-dashoffset:0;"/>
   </g>
   <g id="LineCollection_3">
    <path clip-path="url(#p55e199caea)" d="M 282.987595 405.16 
L 282.987595 298.370927 
" style="fill:none;stroke:#000000;"/>
   </g>
   <g id="line2d_16">
    <path clip-path="url(#p55e199caea)" d="M 33.64 405.111018 
L 55.920134 404.912306 
L 68.452709 404.591316 
L 78.200268 404.117192 
L 85.162809 403.586118 
L 92.125351 402.826715 
L 97.695385 402.003775 
L 103.265418 400.939211 
L 107.442943 399.950471 
L 111.620468 398.771407 
L 115.797993 397.375802 
L 119.975518 395.736236 
L 124.153043 393.824601 
L 128.330569 391.61275 
L 132.508094 389.073286 
L 136.685619 386.180471 
L 140.863144 382.91126 
L 145.040669 379.246427 
L 149.218194 375.171753 
L 153.395719 370.679247 
L 157.573244 365.768338 
L 161.750769 360.447006 
L 165.928294 354.732772 
L 170.105819 348.65351 
L 175.675853 340.04865 
L 181.245886 330.987887 
L 189.600936 316.89479 
L 199.348495 300.499222 
L 204.918528 291.599667 
L 209.096054 285.335887 
L 213.273579 279.538586 
L 216.058595 275.981924 
L 218.843612 272.704395 
L 221.628629 269.732062 
L 224.413645 267.088962 
L 227.198662 264.796784 
L 229.983679 262.874572 
L 232.768696 261.338459 
L 235.553712 260.201446 
L 238.338729 259.473217 
L 241.123746 259.16 
L 243.908763 259.26448 
L 246.693779 259.785762 
L 249.478796 260.71938 
L 252.263813 262.057365 
L 255.048829 263.788353 
L 257.833846 265.897753 
L 260.618863 268.367944 
L 263.40388 271.178525 
L 266.188896 274.306596 
L 268.973913 277.727062 
L 271.75893 281.412977 
L 275.936455 287.377003 
L 280.11398 293.773557 
L 285.684013 302.796286 
L 294.039064 316.89479 
L 303.786622 333.287787 
L 309.356656 342.248005 
L 314.926689 350.718324 
L 319.104214 356.679672 
L 323.281739 362.265511 
L 327.459264 367.451492 
L 331.636789 372.223375 
L 335.814314 376.57615 
L 339.991839 380.51299 
L 344.169365 384.044097 
L 348.34689 387.185494 
L 352.524415 389.957809 
L 356.70194 392.385107 
L 360.879465 394.493787 
L 365.05699 396.311592 
L 369.234515 397.866737 
L 373.41204 399.187164 
L 377.589565 400.299946 
L 383.159599 401.504872 
L 388.729632 402.442374 
L 394.299666 403.162429 
L 401.262207 403.82218 
L 409.617258 404.35237 
L 419.364816 404.726139 
L 431.897391 404.974647 
L 450 405.111018 
L 450 405.111018 
" style="fill:none;stroke:#000000;stroke-linecap:square;"/>
   </g>
   <g id="patch_9">
    <path d="M 33.64 405.16 
L 33.64 229.96 
" style="fill:none;stroke:#000000;stroke-linecap:square;stroke-linejoin:miter;stroke-width:0.8;"/>
   </g>
   <g id="patch_10">
    <path d="M 450 405.16 
L 450 229.96 
" style="fill:none;stroke:#000000;stroke-linecap:square;stroke-linejoin:miter;stroke-width:0.8;"/>
   </g>
   <g id="patch_11">
    <path d="M 33.64 405.16 
L 450 405.16 
" style="fill:none;stroke:#000000;stroke-linecap:square;stroke-linejoin:miter;stroke-width:0.8;"/>
   </g>
   <g id="patch_12">
    <path d="M 33.64 229.96 
L 450 229.96 
" style="fill:none;stroke:#000000;stroke-linecap:square;stroke-linejoin:miter;stroke-width:0.8;"/>
   </g>
   <g id="patch_13">
    <path d="M 384.795981 365.450004 
Q 362.686042 372.087679 341.325676 378.500323 
" style="fill:none;stroke:#000000;stroke-linecap:round;stroke-width:0.7;"/>
    <path d="M 345.731827 379.265726 
L 341.325676 378.500323 
L 344.581689 375.434645 
" style="fill:none;stroke:#000000;stroke-linecap:round;stroke-width:0.7;"/>
   </g>
   <g id="text_19">
    <!-- 0.2145 -->
    <g style="fill:#1f77b4;" transform="translate(388.713204 361.781073)scale(0.1 -0.1)">
     <use xlink:href="#DejaVuSans-30"/>
     <use x="63.623047" xlink:href="#DejaVuSans-2e"/>
     <use x="95.410156" xlink:href="#DejaVuSans-32"/>
     <use x="159.033203" xlink:href="#DejaVuSans-31"/>
     <use x="222.65625" xlink:href="#DejaVuSans-34"/>
     <use x="286.279297" xlink:href="#DejaVuSans-35"/>
    </g>
   </g>
   <g id="text_20">
    <!-- P-Value = 0.2145 -->
    <g style="fill:#1f77b4;" transform="translate(39.8854 242.224)scale(0.09 -0.09)">
     <defs>
      <path d="M 1259 4147 
L 1259 2394 
L 2053 2394 
Q 2494 2394 2734 2622 
Q 2975 2850 2975 3272 
Q 2975 3691 2734 3919 
Q 2494 4147 2053 4147 
L 1259 4147 
z
M 628 4666 
L 2053 4666 
Q 2838 4666 3239 4311 
Q 3641 3956 3641 3272 
Q 3641 2581 3239 2228 
Q 2838 1875 2053 1875 
L 1259 1875 
L 1259 0 
L 628 0 
L 628 4666 
z
" id="DejaVuSans-50" transform="scale(0.015625)"/>
     </defs>
     <use xlink:href="#DejaVuSans-50"/>
     <use x="58.052734" xlink:href="#DejaVuSans-2d"/>
     <use x="88.261719" xlink:href="#DejaVuSans-56"/>
     <use x="148.919922" xlink:href="#DejaVuSans-61"/>
     <use x="210.199219" xlink:href="#DejaVuSans-6c"/>
     <use x="237.982422" xlink:href="#DejaVuSans-75"/>
     <use x="301.361328" xlink:href="#DejaVuSans-65"/>
     <use x="362.884766" xlink:href="#DejaVuSans-20"/>
     <use x="394.671875" xlink:href="#DejaVuSans-3d"/>
     <use x="478.460938" xlink:href="#DejaVuSans-20"/>
     <use x="510.248047" xlink:href="#DejaVuSans-30"/>
     <use x="573.871094" xlink:href="#DejaVuSans-2e"/>
     <use x="605.658203" xlink:href="#DejaVuSans-32"/>
     <use x="669.28125" xlink:href="#DejaVuSans-31"/>
     <use x="732.904297" xlink:href="#DejaVuSans-34"/>
     <use x="796.527344" xlink:href="#DejaVuSans-35"/>
    </g>
   </g>
   <g id="text_21">
    <!-- Test Statistic (TS) = 0.791 -->
    <g transform="translate(39.8854 254.488)scale(0.09 -0.09)">
     <defs>
      <path d="M -19 4666 
L 3928 4666 
L 3928 4134 
L 2272 4134 
L 2272 0 
L 1638 0 
L 1638 4134 
L -19 4134 
L -19 4666 
z
" id="DejaVuSans-54" transform="scale(0.015625)"/>
     </defs>
     <use xlink:href="#DejaVuSans-54"/>
     <use x="44.083984" xlink:href="#DejaVuSans-65"/>
     <use x="105.607422" xlink:href="#DejaVuSans-73"/>
     <use x="157.707031" xlink:href="#DejaVuSans-74"/>
     <use x="196.916016" xlink:href="#DejaVuSans-20"/>
     <use x="228.703125" xlink:href="#DejaVuSans-53"/>
     <use x="292.179688" xlink:href="#DejaVuSans-74"/>
     <use x="331.388672" xlink:href="#DejaVuSans-61"/>
     <use x="392.667969" xlink:href="#DejaVuSans-74"/>
     <use x="431.876953" xlink:href="#DejaVuSans-69"/>
     <use x="459.660156" xlink:href="#DejaVuSans-73"/>
     <use x="511.759766" xlink:href="#DejaVuSans-74"/>
     <use x="550.96875" xlink:href="#DejaVuSans-69"/>
     <use x="578.751953" xlink:href="#DejaVuSans-63"/>
     <use x="633.732422" xlink:href="#DejaVuSans-20"/>
     <use x="665.519531" xlink:href="#DejaVuSans-28"/>
     <use x="704.533203" xlink:href="#DejaVuSans-54"/>
     <use x="765.617188" xlink:href="#DejaVuSans-53"/>
     <use x="829.09375" xlink:href="#DejaVuSans-29"/>
     <use x="868.107422" xlink:href="#DejaVuSans-20"/>
     <use x="899.894531" xlink:href="#DejaVuSans-3d"/>
     <use x="983.683594" xlink:href="#DejaVuSans-20"/>
     <use x="1015.470703" xlink:href="#DejaVuSans-30"/>
     <use x="1079.09375" xlink:href="#DejaVuSans-2e"/>
     <use x="1110.880859" xlink:href="#DejaVuSans-37"/>
     <use x="1174.503906" xlink:href="#DejaVuSans-39"/>
     <use x="1238.126953" xlink:href="#DejaVuSans-31"/>
    </g>
   </g>
  </g>
 </g>
 <defs>
  <clipPath id="pabadaf4818">
   <rect height="175.2" width="416.36" x="33.64" y="26.88"/>
  </clipPath>
  <clipPath id="p55e199caea">
   <rect height="175.2" width="416.36" x="33.64" y="229.96"/>
  </clipPath>
 </defs>
</svg>
