<?xml version="1.0" encoding="utf-8" standalone="no"?>
<!DOCTYPE svg PUBLIC "-//W3C//DTD SVG 1.1//EN"
  "http://www.w3.org/Graphics/SVG/1.1/DTD/svg11.dtd">
<svg height="345.6pt" version="1.1" viewBox="0 0 863.28 345.6" width="863.28pt" xmlns="http://www.w3.org/2000/svg" xmlns:xlink="http://www.w3.org/1999/xlink">
 <metadata>
  <rdf:RDF xmlns:cc="http://creativecommons.org/ns#" xmlns:dc="http://purl.org/dc/elements/1.1/" xmlns:rdf="http://www.w3.org/1999/02/22-rdf-syntax-ns#">
   <cc:Work>
    <dc:type rdf:resource="http://purl.org/dc/dcmitype/StillImage"/>
    <dc:date>2021-07-01T17:34:21.711233</dc:date>
    <dc:format>image/svg+xml</dc:format>
    <dc:creator>
     <cc:Agent>
      <dc:title>Matplotlib v3.4.2, https://matplotlib.org/</dc:title>
     </cc:Agent>
    </dc:creator>
   </cc:Work>
  </rdf:RDF>
 </metadata>
 <defs>
  <style type="text/css">*{stroke-linecap:butt;stroke-linejoin:round;}</style>
 </defs>
 <g id="figure_1">
  <g id="patch_1">
   <path d="M 0 345.6 
L 863.28 345.6 
L 863.28 0 
L 0 0 
z
" style="fill:#ffffff;"/>
  </g>
  <g id="axes_1">
   <g id="patch_2">
    <path d="M 33.64 302.92 
L 280.735389 302.92 
L 280.735389 28.32 
L 33.64 28.32 
z
" style="fill:#ffffff;"/>
   </g>
   <g id="PolyCollection_1">
    <defs>
     <path d="M 33.64 -42.68 
L 33.64 -42.756772 
L 34.37478 -42.764412 
L 35.10956 -42.772761 
L 35.84434 -42.781877 
L 36.57912 -42.791826 
L 37.3139 -42.802677 
L 38.04868 -42.814504 
L 38.78346 -42.827389 
L 39.518241 -42.841417 
L 40.253021 -42.856679 
L 40.987801 -42.873275 
L 41.722581 -42.891311 
L 42.457361 -42.910899 
L 43.192141 -42.93216 
L 43.926921 -42.955223 
L 44.661701 -42.980225 
L 45.396481 -43.007313 
L 46.131261 -43.036644 
L 46.866041 -43.068383 
L 47.600821 -43.102707 
L 48.335601 -43.139804 
L 49.070381 -43.179874 
L 49.805161 -43.223129 
L 50.539941 -43.269792 
L 51.274722 -43.320102 
L 52.009502 -43.374311 
L 52.744282 -43.432685 
L 53.479062 -43.495504 
L 54.213842 -43.563067 
L 54.948622 -43.635686 
L 55.683402 -43.713691 
L 56.418182 -43.797431 
L 57.152962 -43.887272 
L 57.887742 -43.983598 
L 58.622522 -44.086812 
L 59.357302 -44.197341 
L 60.092082 -44.315627 
L 60.826862 -44.442136 
L 61.561642 -44.577357 
L 62.296422 -44.721798 
L 63.031203 -44.875992 
L 63.765983 -45.040494 
L 64.500763 -45.215883 
L 65.235543 -45.402763 
L 65.970323 -45.601761 
L 66.705103 -45.81353 
L 67.439883 -46.038745 
L 68.174663 -46.278111 
L 68.909443 -46.532355 
L 69.644223 -46.80223 
L 70.379003 -47.088515 
L 71.113783 -47.392016 
L 71.848563 -47.713561 
L 72.583343 -48.054006 
L 73.318123 -48.41423 
L 74.052903 -48.795139 
L 74.787684 -49.197662 
L 75.522464 -49.62275 
L 76.257244 -50.071378 
L 76.992024 -50.544543 
L 77.726804 -51.043264 
L 78.461584 -51.56858 
L 79.196364 -52.121547 
L 79.931144 -52.70324 
L 80.665924 -53.314751 
L 81.400704 -53.957186 
L 82.135484 -54.631664 
L 82.870264 -55.339316 
L 83.605044 -56.081281 
L 84.339824 -56.858706 
L 85.074604 -57.672744 
L 85.809384 -58.524548 
L 86.544165 -59.415273 
L 87.278945 -60.346071 
L 88.013725 -61.318088 
L 88.748505 -62.332461 
L 89.483285 -63.390318 
L 90.218065 -64.492769 
L 90.952845 -65.640908 
L 91.687625 -66.835806 
L 92.422405 -68.078509 
L 93.157185 -69.370035 
L 93.891965 -70.711367 
L 94.626745 -72.103452 
L 95.361525 -73.547196 
L 96.096305 -75.043462 
L 96.831085 -76.593059 
L 97.565866 -78.196748 
L 98.300646 -79.855227 
L 99.035426 -81.569135 
L 99.770206 -83.339044 
L 100.504986 -85.165453 
L 101.239766 -87.048788 
L 101.974546 -88.989394 
L 102.709326 -90.987531 
L 103.444106 -93.043373 
L 104.178886 -95.156999 
L 104.913666 -97.328393 
L 105.648446 -99.557437 
L 106.383226 -101.843908 
L 106.383226 -42.68 
L 106.383226 -42.68 
L 105.648446 -42.68 
L 104.913666 -42.68 
L 104.178886 -42.68 
L 103.444106 -42.68 
L 102.709326 -42.68 
L 101.974546 -42.68 
L 101.239766 -42.68 
L 100.504986 -42.68 
L 99.770206 -42.68 
L 99.035426 -42.68 
L 98.300646 -42.68 
L 97.565866 -42.68 
L 96.831085 -42.68 
L 96.096305 -42.68 
L 95.361525 -42.68 
L 94.626745 -42.68 
L 93.891965 -42.68 
L 93.157185 -42.68 
L 92.422405 -42.68 
L 91.687625 -42.68 
L 90.952845 -42.68 
L 90.218065 -42.68 
L 89.483285 -42.68 
L 88.748505 -42.68 
L 88.013725 -42.68 
L 87.278945 -42.68 
L 86.544165 -42.68 
L 85.809384 -42.68 
L 85.074604 -42.68 
L 84.339824 -42.68 
L 83.605044 -42.68 
L 82.870264 -42.68 
L 82.135484 -42.68 
L 81.400704 -42.68 
L 80.665924 -42.68 
L 79.931144 -42.68 
L 79.196364 -42.68 
L 78.461584 -42.68 
L 77.726804 -42.68 
L 76.992024 -42.68 
L 76.257244 -42.68 
L 75.522464 -42.68 
L 74.787684 -42.68 
L 74.052903 -42.68 
L 73.318123 -42.68 
L 72.583343 -42.68 
L 71.848563 -42.68 
L 71.113783 -42.68 
L 70.379003 -42.68 
L 69.644223 -42.68 
L 68.909443 -42.68 
L 68.174663 -42.68 
L 67.439883 -42.68 
L 66.705103 -42.68 
L 65.970323 -42.68 
L 65.235543 -42.68 
L 64.500763 -42.68 
L 63.765983 -42.68 
L 63.031203 -42.68 
L 62.296422 -42.68 
L 61.561642 -42.68 
L 60.826862 -42.68 
L 60.092082 -42.68 
L 59.357302 -42.68 
L 58.622522 -42.68 
L 57.887742 -42.68 
L 57.152962 -42.68 
L 56.418182 -42.68 
L 55.683402 -42.68 
L 54.948622 -42.68 
L 54.213842 -42.68 
L 53.479062 -42.68 
L 52.744282 -42.68 
L 52.009502 -42.68 
L 51.274722 -42.68 
L 50.539941 -42.68 
L 49.805161 -42.68 
L 49.070381 -42.68 
L 48.335601 -42.68 
L 47.600821 -42.68 
L 46.866041 -42.68 
L 46.131261 -42.68 
L 45.396481 -42.68 
L 44.661701 -42.68 
L 43.926921 -42.68 
L 43.192141 -42.68 
L 42.457361 -42.68 
L 41.722581 -42.68 
L 40.987801 -42.68 
L 40.253021 -42.68 
L 39.518241 -42.68 
L 38.78346 -42.68 
L 38.04868 -42.68 
L 37.3139 -42.68 
L 36.57912 -42.68 
L 35.84434 -42.68 
L 35.10956 -42.68 
L 34.37478 -42.68 
L 33.64 -42.68 
z
" id="m503161c8b8" style="stroke:#1f77b4;stroke-opacity:0.7;"/>
    </defs>
    <g clip-path="url(#p9e6a3a5d81)">
     <use style="fill:#1f77b4;fill-opacity:0.7;stroke:#1f77b4;stroke-opacity:0.7;" x="0" xlink:href="#m503161c8b8" y="345.6"/>
    </g>
   </g>
   <g id="PolyCollection_2">
    <defs>
     <path d="M 207.992163 -42.68 
L 207.992163 -101.843908 
L 208.726943 -99.557437 
L 209.461723 -97.328393 
L 210.196503 -95.156999 
L 210.931283 -93.043373 
L 211.666063 -90.987531 
L 212.400844 -88.989394 
L 213.135624 -87.048788 
L 213.870404 -85.165453 
L 214.605184 -83.339044 
L 215.339964 -81.569135 
L 216.074744 -79.855227 
L 216.809524 -78.196748 
L 217.544304 -76.593059 
L 218.279084 -75.043462 
L 219.013864 -73.547196 
L 219.748644 -72.103452 
L 220.483424 -70.711367 
L 221.218204 -69.370035 
L 221.952984 -68.078509 
L 222.687764 -66.835806 
L 223.422544 -65.640908 
L 224.157325 -64.492769 
L 224.892105 -63.390318 
L 225.626885 -62.332461 
L 226.361665 -61.318088 
L 227.096445 -60.346071 
L 227.831225 -59.415273 
L 228.566005 -58.524548 
L 229.300785 -57.672744 
L 230.035565 -56.858706 
L 230.770345 -56.081281 
L 231.505125 -55.339316 
L 232.239905 -54.631664 
L 232.974685 -53.957186 
L 233.709465 -53.314751 
L 234.444245 -52.70324 
L 235.179025 -52.121547 
L 235.913806 -51.56858 
L 236.648586 -51.043264 
L 237.383366 -50.544543 
L 238.118146 -50.071378 
L 238.852926 -49.62275 
L 239.587706 -49.197662 
L 240.322486 -48.795139 
L 241.057266 -48.41423 
L 241.792046 -48.054006 
L 242.526826 -47.713561 
L 243.261606 -47.392016 
L 243.996386 -47.088515 
L 244.731166 -46.80223 
L 245.465946 -46.532355 
L 246.200726 -46.278111 
L 246.935506 -46.038745 
L 247.670287 -45.81353 
L 248.405067 -45.601761 
L 249.139847 -45.402763 
L 249.874627 -45.215883 
L 250.609407 -45.040494 
L 251.344187 -44.875992 
L 252.078967 -44.721798 
L 252.813747 -44.577357 
L 253.548527 -44.442136 
L 254.283307 -44.315627 
L 255.018087 -44.197341 
L 255.752867 -44.086812 
L 256.487647 -43.983598 
L 257.222427 -43.887272 
L 257.957207 -43.797431 
L 258.691988 -43.713691 
L 259.426768 -43.635686 
L 260.161548 -43.563067 
L 260.896328 -43.495504 
L 261.631108 -43.432685 
L 262.365888 -43.374311 
L 263.100668 -43.320102 
L 263.835448 -43.269792 
L 264.570228 -43.223129 
L 265.305008 -43.179874 
L 266.039788 -43.139804 
L 266.774568 -43.102707 
L 267.509348 -43.068383 
L 268.244128 -43.036644 
L 268.978908 -43.007313 
L 269.713688 -42.980225 
L 270.448469 -42.955223 
L 271.183249 -42.93216 
L 271.918029 -42.910899 
L 272.652809 -42.891311 
L 273.387589 -42.873275 
L 274.122369 -42.856679 
L 274.857149 -42.841417 
L 275.591929 -42.827389 
L 276.326709 -42.814504 
L 277.061489 -42.802677 
L 277.796269 -42.791826 
L 278.531049 -42.781877 
L 279.265829 -42.772761 
L 280.000609 -42.764412 
L 280.735389 -42.756772 
L 280.735389 -42.68 
L 280.735389 -42.68 
L 280.000609 -42.68 
L 279.265829 -42.68 
L 278.531049 -42.68 
L 277.796269 -42.68 
L 277.061489 -42.68 
L 276.326709 -42.68 
L 275.591929 -42.68 
L 274.857149 -42.68 
L 274.122369 -42.68 
L 273.387589 -42.68 
L 272.652809 -42.68 
L 271.918029 -42.68 
L 271.183249 -42.68 
L 270.448469 -42.68 
L 269.713688 -42.68 
L 268.978908 -42.68 
L 268.244128 -42.68 
L 267.509348 -42.68 
L 266.774568 -42.68 
L 266.039788 -42.68 
L 265.305008 -42.68 
L 264.570228 -42.68 
L 263.835448 -42.68 
L 263.100668 -42.68 
L 262.365888 -42.68 
L 261.631108 -42.68 
L 260.896328 -42.68 
L 260.161548 -42.68 
L 259.426768 -42.68 
L 258.691988 -42.68 
L 257.957207 -42.68 
L 257.222427 -42.68 
L 256.487647 -42.68 
L 255.752867 -42.68 
L 255.018087 -42.68 
L 254.283307 -42.68 
L 253.548527 -42.68 
L 252.813747 -42.68 
L 252.078967 -42.68 
L 251.344187 -42.68 
L 250.609407 -42.68 
L 249.874627 -42.68 
L 249.139847 -42.68 
L 248.405067 -42.68 
L 247.670287 -42.68 
L 246.935506 -42.68 
L 246.200726 -42.68 
L 245.465946 -42.68 
L 244.731166 -42.68 
L 243.996386 -42.68 
L 243.261606 -42.68 
L 242.526826 -42.68 
L 241.792046 -42.68 
L 241.057266 -42.68 
L 240.322486 -42.68 
L 239.587706 -42.68 
L 238.852926 -42.68 
L 238.118146 -42.68 
L 237.383366 -42.68 
L 236.648586 -42.68 
L 235.913806 -42.68 
L 235.179025 -42.68 
L 234.444245 -42.68 
L 233.709465 -42.68 
L 232.974685 -42.68 
L 232.239905 -42.68 
L 231.505125 -42.68 
L 230.770345 -42.68 
L 230.035565 -42.68 
L 229.300785 -42.68 
L 228.566005 -42.68 
L 227.831225 -42.68 
L 227.096445 -42.68 
L 226.361665 -42.68 
L 225.626885 -42.68 
L 224.892105 -42.68 
L 224.157325 -42.68 
L 223.422544 -42.68 
L 222.687764 -42.68 
L 221.952984 -42.68 
L 221.218204 -42.68 
L 220.483424 -42.68 
L 219.748644 -42.68 
L 219.013864 -42.68 
L 218.279084 -42.68 
L 217.544304 -42.68 
L 216.809524 -42.68 
L 216.074744 -42.68 
L 215.339964 -42.68 
L 214.605184 -42.68 
L 213.870404 -42.68 
L 213.135624 -42.68 
L 212.400844 -42.68 
L 211.666063 -42.68 
L 210.931283 -42.68 
L 210.196503 -42.68 
L 209.461723 -42.68 
L 208.726943 -42.68 
L 207.992163 -42.68 
z
" id="m6f3b5713fd" style="stroke:#1f77b4;stroke-opacity:0.7;"/>
    </defs>
    <g clip-path="url(#p9e6a3a5d81)">
     <use style="fill:#1f77b4;fill-opacity:0.7;stroke:#1f77b4;stroke-opacity:0.7;" x="0" xlink:href="#m6f3b5713fd" y="345.6"/>
    </g>
   </g>
   <g id="matplotlib.axis_1">
    <g id="xtick_1">
     <g id="line2d_1">
      <defs>
       <path d="M 0 0 
L 0 3.5 
" id="m77c63b09fe" style="stroke:#000000;stroke-width:0.8;"/>
      </defs>
      <g>
       <use style="stroke:#000000;stroke-width:0.8;" x="106.383226" xlink:href="#m77c63b09fe" y="302.92"/>
      </g>
     </g>
     <g id="text_1">
      <!-- -1.64 -->
      <g transform="translate(93.446508 317.518437)scale(0.1 -0.1)">
       <defs>
        <path d="M 313 2009 
L 1997 2009 
L 1997 1497 
L 313 1497 
L 313 2009 
z
" id="DejaVuSans-2d" transform="scale(0.015625)"/>
        <path d="M 794 531 
L 1825 531 
L 1825 4091 
L 703 3866 
L 703 4441 
L 1819 4666 
L 2450 4666 
L 2450 531 
L 3481 531 
L 3481 0 
L 794 0 
L 794 531 
z
" id="DejaVuSans-31" transform="scale(0.015625)"/>
        <path d="M 684 794 
L 1344 794 
L 1344 0 
L 684 0 
L 684 794 
z
" id="DejaVuSans-2e" transform="scale(0.015625)"/>
        <path d="M 2113 2584 
Q 1688 2584 1439 2293 
Q 1191 2003 1191 1497 
Q 1191 994 1439 701 
Q 1688 409 2113 409 
Q 2538 409 2786 701 
Q 3034 994 3034 1497 
Q 3034 2003 2786 2293 
Q 2538 2584 2113 2584 
z
M 3366 4563 
L 3366 3988 
Q 3128 4100 2886 4159 
Q 2644 4219 2406 4219 
Q 1781 4219 1451 3797 
Q 1122 3375 1075 2522 
Q 1259 2794 1537 2939 
Q 1816 3084 2150 3084 
Q 2853 3084 3261 2657 
Q 3669 2231 3669 1497 
Q 3669 778 3244 343 
Q 2819 -91 2113 -91 
Q 1303 -91 875 529 
Q 447 1150 447 2328 
Q 447 3434 972 4092 
Q 1497 4750 2381 4750 
Q 2619 4750 2861 4703 
Q 3103 4656 3366 4563 
z
" id="DejaVuSans-36" transform="scale(0.015625)"/>
        <path d="M 2419 4116 
L 825 1625 
L 2419 1625 
L 2419 4116 
z
M 2253 4666 
L 3047 4666 
L 3047 1625 
L 3713 1625 
L 3713 1100 
L 3047 1100 
L 3047 0 
L 2419 0 
L 2419 1100 
L 313 1100 
L 313 1709 
L 2253 4666 
z
" id="DejaVuSans-34" transform="scale(0.015625)"/>
       </defs>
       <use xlink:href="#DejaVuSans-2d"/>
       <use x="36.083984" xlink:href="#DejaVuSans-31"/>
       <use x="99.707031" xlink:href="#DejaVuSans-2e"/>
       <use x="131.494141" xlink:href="#DejaVuSans-36"/>
       <use x="195.117188" xlink:href="#DejaVuSans-34"/>
      </g>
     </g>
    </g>
    <g id="xtick_2">
     <g id="line2d_2">
      <g>
       <use style="stroke:#000000;stroke-width:0.8;" x="207.992163" xlink:href="#m77c63b09fe" y="302.92"/>
      </g>
     </g>
     <g id="text_2">
      <!-- 1.64 -->
      <g transform="translate(196.859351 317.518437)scale(0.1 -0.1)">
       <use xlink:href="#DejaVuSans-31"/>
       <use x="63.623047" xlink:href="#DejaVuSans-2e"/>
       <use x="95.410156" xlink:href="#DejaVuSans-36"/>
       <use x="159.033203" xlink:href="#DejaVuSans-34"/>
      </g>
     </g>
    </g>
    <g id="xtick_3">
     <g id="line2d_3">
      <g>
       <use style="stroke:#000000;stroke-width:0.8;" x="157.187695" xlink:href="#m77c63b09fe" y="302.92"/>
      </g>
     </g>
     <g id="text_3">
      <!-- 0 -->
      <g transform="translate(154.006445 317.518437)scale(0.1 -0.1)">
       <defs>
        <path d="M 2034 4250 
Q 1547 4250 1301 3770 
Q 1056 3291 1056 2328 
Q 1056 1369 1301 889 
Q 1547 409 2034 409 
Q 2525 409 2770 889 
Q 3016 1369 3016 2328 
Q 3016 3291 2770 3770 
Q 2525 4250 2034 4250 
z
M 2034 4750 
Q 2819 4750 3233 4129 
Q 3647 3509 3647 2328 
Q 3647 1150 3233 529 
Q 2819 -91 2034 -91 
Q 1250 -91 836 529 
Q 422 1150 422 2328 
Q 422 3509 836 4129 
Q 1250 4750 2034 4750 
z
" id="DejaVuSans-30" transform="scale(0.015625)"/>
       </defs>
       <use xlink:href="#DejaVuSans-30"/>
      </g>
     </g>
    </g>
    <g id="text_4">
     <!-- z-value -->
     <g transform="translate(137.437538 331.956406)scale(0.11 -0.11)">
      <defs>
       <path d="M 353 3500 
L 3084 3500 
L 3084 2975 
L 922 459 
L 3084 459 
L 3084 0 
L 275 0 
L 275 525 
L 2438 3041 
L 353 3041 
L 353 3500 
z
" id="DejaVuSans-7a" transform="scale(0.015625)"/>
       <path d="M 191 3500 
L 800 3500 
L 1894 563 
L 2988 3500 
L 3597 3500 
L 2284 0 
L 1503 0 
L 191 3500 
z
" id="DejaVuSans-76" transform="scale(0.015625)"/>
       <path d="M 2194 1759 
Q 1497 1759 1228 1600 
Q 959 1441 959 1056 
Q 959 750 1161 570 
Q 1363 391 1709 391 
Q 2188 391 2477 730 
Q 2766 1069 2766 1631 
L 2766 1759 
L 2194 1759 
z
M 3341 1997 
L 3341 0 
L 2766 0 
L 2766 531 
Q 2569 213 2275 61 
Q 1981 -91 1556 -91 
Q 1019 -91 701 211 
Q 384 513 384 1019 
Q 384 1609 779 1909 
Q 1175 2209 1959 2209 
L 2766 2209 
L 2766 2266 
Q 2766 2663 2505 2880 
Q 2244 3097 1772 3097 
Q 1472 3097 1187 3025 
Q 903 2953 641 2809 
L 641 3341 
Q 956 3463 1253 3523 
Q 1550 3584 1831 3584 
Q 2591 3584 2966 3190 
Q 3341 2797 3341 1997 
z
" id="DejaVuSans-61" transform="scale(0.015625)"/>
       <path d="M 603 4863 
L 1178 4863 
L 1178 0 
L 603 0 
L 603 4863 
z
" id="DejaVuSans-6c" transform="scale(0.015625)"/>
       <path d="M 544 1381 
L 544 3500 
L 1119 3500 
L 1119 1403 
Q 1119 906 1312 657 
Q 1506 409 1894 409 
Q 2359 409 2629 706 
Q 2900 1003 2900 1516 
L 2900 3500 
L 3475 3500 
L 3475 0 
L 2900 0 
L 2900 538 
Q 2691 219 2414 64 
Q 2138 -91 1772 -91 
Q 1169 -91 856 284 
Q 544 659 544 1381 
z
M 1991 3584 
L 1991 3584 
z
" id="DejaVuSans-75" transform="scale(0.015625)"/>
       <path d="M 3597 1894 
L 3597 1613 
L 953 1613 
Q 991 1019 1311 708 
Q 1631 397 2203 397 
Q 2534 397 2845 478 
Q 3156 559 3463 722 
L 3463 178 
Q 3153 47 2828 -22 
Q 2503 -91 2169 -91 
Q 1331 -91 842 396 
Q 353 884 353 1716 
Q 353 2575 817 3079 
Q 1281 3584 2069 3584 
Q 2775 3584 3186 3129 
Q 3597 2675 3597 1894 
z
M 3022 2063 
Q 3016 2534 2758 2815 
Q 2500 3097 2075 3097 
Q 1594 3097 1305 2825 
Q 1016 2553 972 2059 
L 3022 2063 
z
" id="DejaVuSans-65" transform="scale(0.015625)"/>
      </defs>
      <use xlink:href="#DejaVuSans-7a"/>
      <use x="52.490234" xlink:href="#DejaVuSans-2d"/>
      <use x="85.949219" xlink:href="#DejaVuSans-76"/>
      <use x="145.128906" xlink:href="#DejaVuSans-61"/>
      <use x="206.408203" xlink:href="#DejaVuSans-6c"/>
      <use x="234.191406" xlink:href="#DejaVuSans-75"/>
      <use x="297.570312" xlink:href="#DejaVuSans-65"/>
     </g>
    </g>
   </g>
   <g id="matplotlib.axis_2">
    <g id="ytick_1">
     <g id="line2d_4">
      <defs>
       <path d="M 0 0 
L -3.5 0 
" id="me43dd2ee6f" style="stroke:#000000;stroke-width:0.8;"/>
      </defs>
      <g>
       <use style="stroke:#000000;stroke-width:0.8;" x="33.64" xlink:href="#me43dd2ee6f" y="302.92"/>
      </g>
     </g>
     <g id="text_5">
      <!-- 0.0 -->
      <g transform="translate(10.736875 306.719219)scale(0.1 -0.1)">
       <use xlink:href="#DejaVuSans-30"/>
       <use x="63.623047" xlink:href="#DejaVuSans-2e"/>
       <use x="95.410156" xlink:href="#DejaVuSans-30"/>
      </g>
     </g>
    </g>
    <g id="ytick_2">
     <g id="line2d_5">
      <g>
       <use style="stroke:#000000;stroke-width:0.8;" x="33.64" xlink:href="#me43dd2ee6f" y="245.554857"/>
      </g>
     </g>
     <g id="text_6">
      <!-- 0.1 -->
      <g transform="translate(10.736875 249.354075)scale(0.1 -0.1)">
       <use xlink:href="#DejaVuSans-30"/>
       <use x="63.623047" xlink:href="#DejaVuSans-2e"/>
       <use x="95.410156" xlink:href="#DejaVuSans-31"/>
      </g>
     </g>
    </g>
    <g id="ytick_3">
     <g id="line2d_6">
      <g>
       <use style="stroke:#000000;stroke-width:0.8;" x="33.64" xlink:href="#me43dd2ee6f" y="188.189713"/>
      </g>
     </g>
     <g id="text_7">
      <!-- 0.2 -->
      <g transform="translate(10.736875 191.988932)scale(0.1 -0.1)">
       <defs>
        <path d="M 1228 531 
L 3431 531 
L 3431 0 
L 469 0 
L 469 531 
Q 828 903 1448 1529 
Q 2069 2156 2228 2338 
Q 2531 2678 2651 2914 
Q 2772 3150 2772 3378 
Q 2772 3750 2511 3984 
Q 2250 4219 1831 4219 
Q 1534 4219 1204 4116 
Q 875 4013 500 3803 
L 500 4441 
Q 881 4594 1212 4672 
Q 1544 4750 1819 4750 
Q 2544 4750 2975 4387 
Q 3406 4025 3406 3419 
Q 3406 3131 3298 2873 
Q 3191 2616 2906 2266 
Q 2828 2175 2409 1742 
Q 1991 1309 1228 531 
z
" id="DejaVuSans-32" transform="scale(0.015625)"/>
       </defs>
       <use xlink:href="#DejaVuSans-30"/>
       <use x="63.623047" xlink:href="#DejaVuSans-2e"/>
       <use x="95.410156" xlink:href="#DejaVuSans-32"/>
      </g>
     </g>
    </g>
    <g id="ytick_4">
     <g id="line2d_7">
      <g>
       <use style="stroke:#000000;stroke-width:0.8;" x="33.64" xlink:href="#me43dd2ee6f" y="130.82457"/>
      </g>
     </g>
     <g id="text_8">
      <!-- 0.3 -->
      <g transform="translate(10.736875 134.623789)scale(0.1 -0.1)">
       <defs>
        <path d="M 2597 2516 
Q 3050 2419 3304 2112 
Q 3559 1806 3559 1356 
Q 3559 666 3084 287 
Q 2609 -91 1734 -91 
Q 1441 -91 1130 -33 
Q 819 25 488 141 
L 488 750 
Q 750 597 1062 519 
Q 1375 441 1716 441 
Q 2309 441 2620 675 
Q 2931 909 2931 1356 
Q 2931 1769 2642 2001 
Q 2353 2234 1838 2234 
L 1294 2234 
L 1294 2753 
L 1863 2753 
Q 2328 2753 2575 2939 
Q 2822 3125 2822 3475 
Q 2822 3834 2567 4026 
Q 2313 4219 1838 4219 
Q 1578 4219 1281 4162 
Q 984 4106 628 3988 
L 628 4550 
Q 988 4650 1302 4700 
Q 1616 4750 1894 4750 
Q 2613 4750 3031 4423 
Q 3450 4097 3450 3541 
Q 3450 3153 3228 2886 
Q 3006 2619 2597 2516 
z
" id="DejaVuSans-33" transform="scale(0.015625)"/>
       </defs>
       <use xlink:href="#DejaVuSans-30"/>
       <use x="63.623047" xlink:href="#DejaVuSans-2e"/>
       <use x="95.410156" xlink:href="#DejaVuSans-33"/>
      </g>
     </g>
    </g>
    <g id="ytick_5">
     <g id="line2d_8">
      <g>
       <use style="stroke:#000000;stroke-width:0.8;" x="33.64" xlink:href="#me43dd2ee6f" y="73.459426"/>
      </g>
     </g>
     <g id="text_9">
      <!-- 0.4 -->
      <g transform="translate(10.736875 77.258645)scale(0.1 -0.1)">
       <use xlink:href="#DejaVuSans-30"/>
       <use x="63.623047" xlink:href="#DejaVuSans-2e"/>
       <use x="95.410156" xlink:href="#DejaVuSans-34"/>
      </g>
     </g>
    </g>
   </g>
   <g id="LineCollection_1">
    <path clip-path="url(#p9e6a3a5d81)" d="M 106.383226 302.92 
L 106.383226 243.756092 
" style="fill:none;stroke:#000000;"/>
   </g>
   <g id="LineCollection_2">
    <path clip-path="url(#p9e6a3a5d81)" d="M 207.992163 302.92 
L 207.992163 243.756092 
" style="fill:none;stroke:#000000;"/>
   </g>
   <g id="line2d_9">
    <path clip-path="url(#p9e6a3a5d81)" d="M 33.64 302.843228 
L 44.383278 302.629486 
L 50.994526 302.299528 
L 55.952962 301.856273 
L 60.084992 301.285553 
L 63.390615 300.644866 
L 66.696239 299.789104 
L 70.001863 298.660525 
L 72.481081 297.59454 
L 74.960299 296.304539 
L 77.439517 294.754836 
L 79.918735 292.906828 
L 82.397953 290.719425 
L 84.877171 288.149648 
L 87.356389 285.153444 
L 89.835607 281.686697 
L 92.314825 277.706463 
L 94.794043 273.172405 
L 97.273261 268.048402 
L 99.752479 262.304319 
L 102.231697 255.917873 
L 104.710915 248.876536 
L 107.190133 241.179416 
L 109.669351 232.839017 
L 112.974975 220.767616 
L 116.280598 207.713687 
L 120.412628 190.270973 
L 126.19747 164.577382 
L 132.808718 135.318687 
L 136.114342 121.58714 
L 138.59356 111.995627 
L 141.072778 103.187782 
L 143.551996 95.315496 
L 145.204808 90.656805 
L 146.85762 86.514138 
L 148.510432 82.92149 
L 150.163244 79.908707 
L 151.816056 77.501078 
L 153.468868 75.718979 
L 154.295274 75.067456 
L 155.12168 74.577588 
L 155.948086 74.250424 
L 156.774492 74.086667 
L 157.600898 74.086667 
L 158.427304 74.250424 
L 159.25371 74.577588 
L 160.080116 75.067456 
L 160.906522 75.718979 
L 161.732928 76.530764 
L 163.38574 78.627856 
L 165.038552 81.340923 
L 166.691364 84.647094 
L 168.344175 88.518752 
L 169.996987 92.923921 
L 171.649799 97.826708 
L 174.129017 106.027076 
L 176.608235 115.113486 
L 179.913859 128.338281 
L 184.045889 146.113653 
L 197.268385 204.314784 
L 200.574009 217.590752 
L 203.879633 229.920223 
L 206.358851 238.469724 
L 208.838069 246.383369 
L 211.317287 253.643828 
L 213.796505 260.247715 
L 216.275723 266.203885 
L 218.754941 271.531582 
L 221.234159 276.258533 
L 223.713376 280.419067 
L 226.192594 284.052302 
L 228.671812 287.200483 
L 231.15103 289.907481 
L 233.630248 292.217495 
L 236.109466 294.173961 
L 238.588684 295.818677 
L 241.067902 297.191129 
L 243.54712 298.328013 
L 246.026338 299.262922 
L 249.331962 300.247242 
L 252.637586 300.988874 
L 256.769616 301.654159 
L 261.728052 302.175265 
L 267.512894 302.531777 
L 275.776954 302.77596 
L 280.735389 302.843228 
L 280.735389 302.843228 
" style="fill:none;stroke:#000000;stroke-linecap:square;"/>
   </g>
   <g id="patch_3">
    <path d="M 33.64 302.92 
L 33.64 28.32 
" style="fill:none;stroke:#000000;stroke-linecap:square;stroke-linejoin:miter;stroke-width:0.8;"/>
   </g>
   <g id="patch_4">
    <path d="M 280.735389 302.92 
L 280.735389 28.32 
" style="fill:none;stroke:#000000;stroke-linecap:square;stroke-linejoin:miter;stroke-width:0.8;"/>
   </g>
   <g id="patch_5">
    <path d="M 33.64 302.92 
L 280.735389 302.92 
" style="fill:none;stroke:#000000;stroke-linecap:square;stroke-linejoin:miter;stroke-width:0.8;"/>
   </g>
   <g id="patch_6">
    <path d="M 33.64 28.32 
L 280.735389 28.32 
" style="fill:none;stroke:#000000;stroke-linecap:square;stroke-linejoin:miter;stroke-width:0.8;"/>
   </g>
   <g id="patch_7">
    <path d="M 65.358595 269.168705 
Q 73.137771 279.276847 80.439632 288.764771 
" style="fill:none;stroke:#000000;stroke-linecap:round;stroke-width:0.7;"/>
    <path d="M 79.585032 284.375049 
L 80.439632 288.764771 
L 76.415094 286.814618 
" style="fill:none;stroke:#000000;stroke-linecap:round;stroke-width:0.7;"/>
   </g>
   <g id="text_10">
    <!-- 0.05 -->
    <g transform="translate(47.745988 263.508336)scale(0.1 -0.1)">
     <defs>
      <path d="M 691 4666 
L 3169 4666 
L 3169 4134 
L 1269 4134 
L 1269 2991 
Q 1406 3038 1543 3061 
Q 1681 3084 1819 3084 
Q 2600 3084 3056 2656 
Q 3513 2228 3513 1497 
Q 3513 744 3044 326 
Q 2575 -91 1722 -91 
Q 1428 -91 1123 -41 
Q 819 9 494 109 
L 494 744 
Q 775 591 1075 516 
Q 1375 441 1709 441 
Q 2250 441 2565 725 
Q 2881 1009 2881 1497 
Q 2881 1984 2565 2268 
Q 2250 2553 1709 2553 
Q 1456 2553 1204 2497 
Q 953 2441 691 2322 
L 691 4666 
z
" id="DejaVuSans-35" transform="scale(0.015625)"/>
     </defs>
     <use xlink:href="#DejaVuSans-30"/>
     <use x="63.623047" xlink:href="#DejaVuSans-2e"/>
     <use x="95.410156" xlink:href="#DejaVuSans-30"/>
     <use x="159.033203" xlink:href="#DejaVuSans-35"/>
    </g>
   </g>
   <g id="patch_8">
    <path d="M 249.016795 269.168705 
Q 241.237618 279.276847 233.935758 288.764771 
" style="fill:none;stroke:#000000;stroke-linecap:round;stroke-width:0.7;"/>
    <path d="M 237.960295 286.814618 
L 233.935758 288.764771 
L 234.790357 284.375049 
" style="fill:none;stroke:#000000;stroke-linecap:round;stroke-width:0.7;"/>
   </g>
   <g id="text_11">
    <!-- 0.05 -->
    <g transform="translate(244.363776 263.508336)scale(0.1 -0.1)">
     <use xlink:href="#DejaVuSans-30"/>
     <use x="63.623047" xlink:href="#DejaVuSans-2e"/>
     <use x="95.410156" xlink:href="#DejaVuSans-30"/>
     <use x="159.033203" xlink:href="#DejaVuSans-35"/>
    </g>
   </g>
   <g id="text_12">
    <!-- Confidence level: 90%, $\alpha$ = 0.1 -->
    <g transform="translate(63.827695 22.32)scale(0.12 -0.12)">
     <defs>
      <path d="M 4122 4306 
L 4122 3641 
Q 3803 3938 3442 4084 
Q 3081 4231 2675 4231 
Q 1875 4231 1450 3742 
Q 1025 3253 1025 2328 
Q 1025 1406 1450 917 
Q 1875 428 2675 428 
Q 3081 428 3442 575 
Q 3803 722 4122 1019 
L 4122 359 
Q 3791 134 3420 21 
Q 3050 -91 2638 -91 
Q 1578 -91 968 557 
Q 359 1206 359 2328 
Q 359 3453 968 4101 
Q 1578 4750 2638 4750 
Q 3056 4750 3426 4639 
Q 3797 4528 4122 4306 
z
" id="DejaVuSans-43" transform="scale(0.015625)"/>
      <path d="M 1959 3097 
Q 1497 3097 1228 2736 
Q 959 2375 959 1747 
Q 959 1119 1226 758 
Q 1494 397 1959 397 
Q 2419 397 2687 759 
Q 2956 1122 2956 1747 
Q 2956 2369 2687 2733 
Q 2419 3097 1959 3097 
z
M 1959 3584 
Q 2709 3584 3137 3096 
Q 3566 2609 3566 1747 
Q 3566 888 3137 398 
Q 2709 -91 1959 -91 
Q 1206 -91 779 398 
Q 353 888 353 1747 
Q 353 2609 779 3096 
Q 1206 3584 1959 3584 
z
" id="DejaVuSans-6f" transform="scale(0.015625)"/>
      <path d="M 3513 2113 
L 3513 0 
L 2938 0 
L 2938 2094 
Q 2938 2591 2744 2837 
Q 2550 3084 2163 3084 
Q 1697 3084 1428 2787 
Q 1159 2491 1159 1978 
L 1159 0 
L 581 0 
L 581 3500 
L 1159 3500 
L 1159 2956 
Q 1366 3272 1645 3428 
Q 1925 3584 2291 3584 
Q 2894 3584 3203 3211 
Q 3513 2838 3513 2113 
z
" id="DejaVuSans-6e" transform="scale(0.015625)"/>
      <path d="M 2375 4863 
L 2375 4384 
L 1825 4384 
Q 1516 4384 1395 4259 
Q 1275 4134 1275 3809 
L 1275 3500 
L 2222 3500 
L 2222 3053 
L 1275 3053 
L 1275 0 
L 697 0 
L 697 3053 
L 147 3053 
L 147 3500 
L 697 3500 
L 697 3744 
Q 697 4328 969 4595 
Q 1241 4863 1831 4863 
L 2375 4863 
z
" id="DejaVuSans-66" transform="scale(0.015625)"/>
      <path d="M 603 3500 
L 1178 3500 
L 1178 0 
L 603 0 
L 603 3500 
z
M 603 4863 
L 1178 4863 
L 1178 4134 
L 603 4134 
L 603 4863 
z
" id="DejaVuSans-69" transform="scale(0.015625)"/>
      <path d="M 2906 2969 
L 2906 4863 
L 3481 4863 
L 3481 0 
L 2906 0 
L 2906 525 
Q 2725 213 2448 61 
Q 2172 -91 1784 -91 
Q 1150 -91 751 415 
Q 353 922 353 1747 
Q 353 2572 751 3078 
Q 1150 3584 1784 3584 
Q 2172 3584 2448 3432 
Q 2725 3281 2906 2969 
z
M 947 1747 
Q 947 1113 1208 752 
Q 1469 391 1925 391 
Q 2381 391 2643 752 
Q 2906 1113 2906 1747 
Q 2906 2381 2643 2742 
Q 2381 3103 1925 3103 
Q 1469 3103 1208 2742 
Q 947 2381 947 1747 
z
" id="DejaVuSans-64" transform="scale(0.015625)"/>
      <path d="M 3122 3366 
L 3122 2828 
Q 2878 2963 2633 3030 
Q 2388 3097 2138 3097 
Q 1578 3097 1268 2742 
Q 959 2388 959 1747 
Q 959 1106 1268 751 
Q 1578 397 2138 397 
Q 2388 397 2633 464 
Q 2878 531 3122 666 
L 3122 134 
Q 2881 22 2623 -34 
Q 2366 -91 2075 -91 
Q 1284 -91 818 406 
Q 353 903 353 1747 
Q 353 2603 823 3093 
Q 1294 3584 2113 3584 
Q 2378 3584 2631 3529 
Q 2884 3475 3122 3366 
z
" id="DejaVuSans-63" transform="scale(0.015625)"/>
      <path id="DejaVuSans-20" transform="scale(0.015625)"/>
      <path d="M 750 794 
L 1409 794 
L 1409 0 
L 750 0 
L 750 794 
z
M 750 3309 
L 1409 3309 
L 1409 2516 
L 750 2516 
L 750 3309 
z
" id="DejaVuSans-3a" transform="scale(0.015625)"/>
      <path d="M 703 97 
L 703 672 
Q 941 559 1184 500 
Q 1428 441 1663 441 
Q 2288 441 2617 861 
Q 2947 1281 2994 2138 
Q 2813 1869 2534 1725 
Q 2256 1581 1919 1581 
Q 1219 1581 811 2004 
Q 403 2428 403 3163 
Q 403 3881 828 4315 
Q 1253 4750 1959 4750 
Q 2769 4750 3195 4129 
Q 3622 3509 3622 2328 
Q 3622 1225 3098 567 
Q 2575 -91 1691 -91 
Q 1453 -91 1209 -44 
Q 966 3 703 97 
z
M 1959 2075 
Q 2384 2075 2632 2365 
Q 2881 2656 2881 3163 
Q 2881 3666 2632 3958 
Q 2384 4250 1959 4250 
Q 1534 4250 1286 3958 
Q 1038 3666 1038 3163 
Q 1038 2656 1286 2365 
Q 1534 2075 1959 2075 
z
" id="DejaVuSans-39" transform="scale(0.015625)"/>
      <path d="M 4653 2053 
Q 4381 2053 4226 1822 
Q 4072 1591 4072 1178 
Q 4072 772 4226 539 
Q 4381 306 4653 306 
Q 4919 306 5073 539 
Q 5228 772 5228 1178 
Q 5228 1588 5073 1820 
Q 4919 2053 4653 2053 
z
M 4653 2450 
Q 5147 2450 5437 2106 
Q 5728 1763 5728 1178 
Q 5728 594 5436 251 
Q 5144 -91 4653 -91 
Q 4153 -91 3862 251 
Q 3572 594 3572 1178 
Q 3572 1766 3864 2108 
Q 4156 2450 4653 2450 
z
M 1428 4353 
Q 1159 4353 1004 4120 
Q 850 3888 850 3481 
Q 850 3069 1003 2837 
Q 1156 2606 1428 2606 
Q 1700 2606 1854 2837 
Q 2009 3069 2009 3481 
Q 2009 3884 1853 4118 
Q 1697 4353 1428 4353 
z
M 4250 4750 
L 4750 4750 
L 1831 -91 
L 1331 -91 
L 4250 4750 
z
M 1428 4750 
Q 1922 4750 2215 4408 
Q 2509 4066 2509 3481 
Q 2509 2891 2217 2550 
Q 1925 2209 1428 2209 
Q 931 2209 642 2551 
Q 353 2894 353 3481 
Q 353 4063 643 4406 
Q 934 4750 1428 4750 
z
" id="DejaVuSans-25" transform="scale(0.015625)"/>
      <path d="M 750 794 
L 1409 794 
L 1409 256 
L 897 -744 
L 494 -744 
L 750 256 
L 750 794 
z
" id="DejaVuSans-2c" transform="scale(0.015625)"/>
      <path d="M 2619 1628 
L 2622 2350 
Q 2625 3088 2069 3091 
Q 1653 3094 1394 2747 
Q 1069 2319 959 1747 
Q 825 1059 994 731 
Q 1169 397 1547 397 
Q 1966 397 2319 1063 
L 2619 1628 
z
M 2166 3578 
Q 3141 3594 3128 2584 
Q 3128 2584 3616 3500 
L 4128 3500 
L 3119 1603 
L 3109 919 
Q 3109 766 3194 638 
Q 3291 488 3391 488 
L 3669 488 
L 3575 0 
L 3228 0 
Q 2934 0 2722 263 
Q 2622 394 2619 669 
Q 2416 334 2066 50 
Q 1900 -81 1453 -78 
Q 722 -72 456 397 
Q 184 884 353 1747 
Q 534 2675 1009 3097 
Q 1544 3569 2166 3578 
z
" id="DejaVuSans-Oblique-3b1" transform="scale(0.015625)"/>
      <path d="M 678 2906 
L 4684 2906 
L 4684 2381 
L 678 2381 
L 678 2906 
z
M 678 1631 
L 4684 1631 
L 4684 1100 
L 678 1100 
L 678 1631 
z
" id="DejaVuSans-3d" transform="scale(0.015625)"/>
     </defs>
     <use transform="translate(0 0.015625)" xlink:href="#DejaVuSans-43"/>
     <use transform="translate(69.824219 0.015625)" xlink:href="#DejaVuSans-6f"/>
     <use transform="translate(131.005859 0.015625)" xlink:href="#DejaVuSans-6e"/>
     <use transform="translate(194.384766 0.015625)" xlink:href="#DejaVuSans-66"/>
     <use transform="translate(229.589844 0.015625)" xlink:href="#DejaVuSans-69"/>
     <use transform="translate(257.373047 0.015625)" xlink:href="#DejaVuSans-64"/>
     <use transform="translate(320.849609 0.015625)" xlink:href="#DejaVuSans-65"/>
     <use transform="translate(382.373047 0.015625)" xlink:href="#DejaVuSans-6e"/>
     <use transform="translate(445.751953 0.015625)" xlink:href="#DejaVuSans-63"/>
     <use transform="translate(500.732422 0.015625)" xlink:href="#DejaVuSans-65"/>
     <use transform="translate(562.255859 0.015625)" xlink:href="#DejaVuSans-20"/>
     <use transform="translate(594.042969 0.015625)" xlink:href="#DejaVuSans-6c"/>
     <use transform="translate(621.826172 0.015625)" xlink:href="#DejaVuSans-65"/>
     <use transform="translate(683.349609 0.015625)" xlink:href="#DejaVuSans-76"/>
     <use transform="translate(742.529297 0.015625)" xlink:href="#DejaVuSans-65"/>
     <use transform="translate(804.052734 0.015625)" xlink:href="#DejaVuSans-6c"/>
     <use transform="translate(831.835938 0.015625)" xlink:href="#DejaVuSans-3a"/>
     <use transform="translate(865.527344 0.015625)" xlink:href="#DejaVuSans-20"/>
     <use transform="translate(897.314453 0.015625)" xlink:href="#DejaVuSans-39"/>
     <use transform="translate(960.9375 0.015625)" xlink:href="#DejaVuSans-30"/>
     <use transform="translate(1024.560547 0.015625)" xlink:href="#DejaVuSans-25"/>
     <use transform="translate(1119.580078 0.015625)" xlink:href="#DejaVuSans-2c"/>
     <use transform="translate(1151.367188 0.015625)" xlink:href="#DejaVuSans-20"/>
     <use transform="translate(1183.154297 0.015625)" xlink:href="#DejaVuSans-Oblique-3b1"/>
     <use transform="translate(1249.072266 0.015625)" xlink:href="#DejaVuSans-20"/>
     <use transform="translate(1280.859375 0.015625)" xlink:href="#DejaVuSans-3d"/>
     <use transform="translate(1364.648438 0.015625)" xlink:href="#DejaVuSans-20"/>
     <use transform="translate(1396.435547 0.015625)" xlink:href="#DejaVuSans-30"/>
     <use transform="translate(1460.058594 0.015625)" xlink:href="#DejaVuSans-2e"/>
     <use transform="translate(1491.845703 0.015625)" xlink:href="#DejaVuSans-31"/>
    </g>
   </g>
  </g>
  <g id="axes_2">
   <g id="patch_9">
    <path d="M 317.635871 302.92 
L 564.731261 302.92 
L 564.731261 28.32 
L 317.635871 28.32 
z
" style="fill:#ffffff;"/>
   </g>
   <g id="PolyCollection_3">
    <defs>
     <path d="M 317.635871 -42.68 
L 317.635871 -42.756772 
L 318.272341 -42.76335 
L 318.90881 -42.770454 
L 319.545279 -42.778121 
L 320.181748 -42.786394 
L 320.818217 -42.795314 
L 321.454686 -42.80493 
L 322.091155 -42.815289 
L 322.727624 -42.826446 
L 323.364093 -42.838455 
L 324.000562 -42.851377 
L 324.637031 -42.865273 
L 325.2735 -42.880211 
L 325.909969 -42.896262 
L 326.546438 -42.913501 
L 327.182907 -42.932006 
L 327.819376 -42.951863 
L 328.455845 -42.97316 
L 329.092315 -42.99599 
L 329.728784 -43.020455 
L 330.365253 -43.046657 
L 331.001722 -43.074709 
L 331.638191 -43.104726 
L 332.27466 -43.136832 
L 332.911129 -43.171157 
L 333.547598 -43.207836 
L 334.184067 -43.247014 
L 334.820536 -43.288841 
L 335.457005 -43.333476 
L 336.093474 -43.381085 
L 336.729943 -43.431844 
L 337.366412 -43.485935 
L 338.002881 -43.543551 
L 338.63935 -43.604893 
L 339.275819 -43.670173 
L 339.912288 -43.739609 
L 340.548758 -43.813434 
L 341.185227 -43.891887 
L 341.821696 -43.97522 
L 342.458165 -44.063696 
L 343.094634 -44.157589 
L 343.731103 -44.257182 
L 344.367572 -44.362774 
L 345.004041 -44.474673 
L 345.64051 -44.5932 
L 346.276979 -44.71869 
L 346.913448 -44.851488 
L 347.549917 -44.991954 
L 348.186386 -45.140462 
L 348.822855 -45.297398 
L 349.459324 -45.463161 
L 350.095793 -45.638166 
L 350.732262 -45.822841 
L 351.368732 -46.017627 
L 352.005201 -46.22298 
L 352.64167 -46.439372 
L 353.278139 -46.667286 
L 353.914608 -46.907223 
L 354.551077 -47.159696 
L 355.187546 -47.425232 
L 355.824015 -47.704373 
L 356.460484 -47.997678 
L 357.096953 -48.305714 
L 357.733422 -48.629068 
L 358.369891 -48.968337 
L 359.00636 -49.324132 
L 359.642829 -49.697077 
L 360.279298 -50.087811 
L 360.915767 -50.496982 
L 361.552236 -50.925251 
L 362.188706 -51.373292 
L 362.825175 -51.841788 
L 363.461644 -52.331433 
L 364.098113 -52.84293 
L 364.734582 -53.376992 
L 365.371051 -53.934338 
L 366.00752 -54.515698 
L 366.643989 -55.121805 
L 367.280458 -55.753397 
L 367.916927 -56.41122 
L 368.553396 -57.09602 
L 369.189865 -57.808547 
L 369.826334 -58.549552 
L 370.462803 -59.319784 
L 371.099272 -60.119992 
L 371.735741 -60.950923 
L 372.37221 -61.813317 
L 373.008679 -62.707911 
L 373.645149 -63.635431 
L 374.281618 -64.596599 
L 374.918087 -65.592121 
L 375.554556 -66.622694 
L 376.191025 -67.689 
L 376.827494 -68.791705 
L 377.463963 -69.931456 
L 378.100432 -71.108882 
L 378.736901 -72.32459 
L 379.37337 -73.579162 
L 380.009839 -74.873155 
L 380.646308 -76.207098 
L 380.646308 -42.68 
L 380.646308 -42.68 
L 380.009839 -42.68 
L 379.37337 -42.68 
L 378.736901 -42.68 
L 378.100432 -42.68 
L 377.463963 -42.68 
L 376.827494 -42.68 
L 376.191025 -42.68 
L 375.554556 -42.68 
L 374.918087 -42.68 
L 374.281618 -42.68 
L 373.645149 -42.68 
L 373.008679 -42.68 
L 372.37221 -42.68 
L 371.735741 -42.68 
L 371.099272 -42.68 
L 370.462803 -42.68 
L 369.826334 -42.68 
L 369.189865 -42.68 
L 368.553396 -42.68 
L 367.916927 -42.68 
L 367.280458 -42.68 
L 366.643989 -42.68 
L 366.00752 -42.68 
L 365.371051 -42.68 
L 364.734582 -42.68 
L 364.098113 -42.68 
L 363.461644 -42.68 
L 362.825175 -42.68 
L 362.188706 -42.68 
L 361.552236 -42.68 
L 360.915767 -42.68 
L 360.279298 -42.68 
L 359.642829 -42.68 
L 359.00636 -42.68 
L 358.369891 -42.68 
L 357.733422 -42.68 
L 357.096953 -42.68 
L 356.460484 -42.68 
L 355.824015 -42.68 
L 355.187546 -42.68 
L 354.551077 -42.68 
L 353.914608 -42.68 
L 353.278139 -42.68 
L 352.64167 -42.68 
L 352.005201 -42.68 
L 351.368732 -42.68 
L 350.732262 -42.68 
L 350.095793 -42.68 
L 349.459324 -42.68 
L 348.822855 -42.68 
L 348.186386 -42.68 
L 347.549917 -42.68 
L 346.913448 -42.68 
L 346.276979 -42.68 
L 345.64051 -42.68 
L 345.004041 -42.68 
L 344.367572 -42.68 
L 343.731103 -42.68 
L 343.094634 -42.68 
L 342.458165 -42.68 
L 341.821696 -42.68 
L 341.185227 -42.68 
L 340.548758 -42.68 
L 339.912288 -42.68 
L 339.275819 -42.68 
L 338.63935 -42.68 
L 338.002881 -42.68 
L 337.366412 -42.68 
L 336.729943 -42.68 
L 336.093474 -42.68 
L 335.457005 -42.68 
L 334.820536 -42.68 
L 334.184067 -42.68 
L 333.547598 -42.68 
L 332.911129 -42.68 
L 332.27466 -42.68 
L 331.638191 -42.68 
L 331.001722 -42.68 
L 330.365253 -42.68 
L 329.728784 -42.68 
L 329.092315 -42.68 
L 328.455845 -42.68 
L 327.819376 -42.68 
L 327.182907 -42.68 
L 326.546438 -42.68 
L 325.909969 -42.68 
L 325.2735 -42.68 
L 324.637031 -42.68 
L 324.000562 -42.68 
L 323.364093 -42.68 
L 322.727624 -42.68 
L 322.091155 -42.68 
L 321.454686 -42.68 
L 320.818217 -42.68 
L 320.181748 -42.68 
L 319.545279 -42.68 
L 318.90881 -42.68 
L 318.272341 -42.68 
L 317.635871 -42.68 
z
" id="md18d1e9e59" style="stroke:#1f77b4;stroke-opacity:0.7;"/>
    </defs>
    <g clip-path="url(#p2768cf88ab)">
     <use style="fill:#1f77b4;fill-opacity:0.7;stroke:#1f77b4;stroke-opacity:0.7;" x="0" xlink:href="#md18d1e9e59" y="345.6"/>
    </g>
   </g>
   <g id="PolyCollection_4">
    <defs>
     <path d="M 501.720824 -42.68 
L 501.720824 -76.207098 
L 502.357293 -74.873155 
L 502.993762 -73.579162 
L 503.630231 -72.32459 
L 504.2667 -71.108882 
L 504.903169 -69.931456 
L 505.539639 -68.791705 
L 506.176108 -67.689 
L 506.812577 -66.622694 
L 507.449046 -65.592121 
L 508.085515 -64.596599 
L 508.721984 -63.635431 
L 509.358453 -62.707911 
L 509.994922 -61.813317 
L 510.631391 -60.950923 
L 511.26786 -60.119992 
L 511.904329 -59.319784 
L 512.540798 -58.549552 
L 513.177267 -57.808547 
L 513.813736 -57.09602 
L 514.450205 -56.41122 
L 515.086674 -55.753397 
L 515.723143 -55.121805 
L 516.359613 -54.515698 
L 516.996082 -53.934338 
L 517.632551 -53.376992 
L 518.26902 -52.84293 
L 518.905489 -52.331433 
L 519.541958 -51.841788 
L 520.178427 -51.373292 
L 520.814896 -50.925251 
L 521.451365 -50.496982 
L 522.087834 -50.087811 
L 522.724303 -49.697077 
L 523.360772 -49.324132 
L 523.997241 -48.968337 
L 524.63371 -48.629068 
L 525.270179 -48.305714 
L 525.906648 -47.997678 
L 526.543117 -47.704373 
L 527.179586 -47.425232 
L 527.816056 -47.159696 
L 528.452525 -46.907223 
L 529.088994 -46.667286 
L 529.725463 -46.439372 
L 530.361932 -46.22298 
L 530.998401 -46.017627 
L 531.63487 -45.822841 
L 532.271339 -45.638166 
L 532.907808 -45.463161 
L 533.544277 -45.297398 
L 534.180746 -45.140462 
L 534.817215 -44.991954 
L 535.453684 -44.851488 
L 536.090153 -44.71869 
L 536.726622 -44.5932 
L 537.363091 -44.474673 
L 537.99956 -44.362774 
L 538.63603 -44.257182 
L 539.272499 -44.157589 
L 539.908968 -44.063696 
L 540.545437 -43.97522 
L 541.181906 -43.891887 
L 541.818375 -43.813434 
L 542.454844 -43.739609 
L 543.091313 -43.670173 
L 543.727782 -43.604893 
L 544.364251 -43.543551 
L 545.00072 -43.485935 
L 545.637189 -43.431844 
L 546.273658 -43.381085 
L 546.910127 -43.333476 
L 547.546596 -43.288841 
L 548.183065 -43.247014 
L 548.819534 -43.207836 
L 549.456003 -43.171157 
L 550.092473 -43.136832 
L 550.728942 -43.104726 
L 551.365411 -43.074709 
L 552.00188 -43.046657 
L 552.638349 -43.020455 
L 553.274818 -42.99599 
L 553.911287 -42.97316 
L 554.547756 -42.951863 
L 555.184225 -42.932006 
L 555.820694 -42.913501 
L 556.457163 -42.896262 
L 557.093632 -42.880211 
L 557.730101 -42.865273 
L 558.36657 -42.851377 
L 559.003039 -42.838455 
L 559.639508 -42.826446 
L 560.275977 -42.815289 
L 560.912447 -42.80493 
L 561.548916 -42.795314 
L 562.185385 -42.786394 
L 562.821854 -42.778121 
L 563.458323 -42.770454 
L 564.094792 -42.76335 
L 564.731261 -42.756772 
L 564.731261 -42.68 
L 564.731261 -42.68 
L 564.094792 -42.68 
L 563.458323 -42.68 
L 562.821854 -42.68 
L 562.185385 -42.68 
L 561.548916 -42.68 
L 560.912447 -42.68 
L 560.275977 -42.68 
L 559.639508 -42.68 
L 559.003039 -42.68 
L 558.36657 -42.68 
L 557.730101 -42.68 
L 557.093632 -42.68 
L 556.457163 -42.68 
L 555.820694 -42.68 
L 555.184225 -42.68 
L 554.547756 -42.68 
L 553.911287 -42.68 
L 553.274818 -42.68 
L 552.638349 -42.68 
L 552.00188 -42.68 
L 551.365411 -42.68 
L 550.728942 -42.68 
L 550.092473 -42.68 
L 549.456003 -42.68 
L 548.819534 -42.68 
L 548.183065 -42.68 
L 547.546596 -42.68 
L 546.910127 -42.68 
L 546.273658 -42.68 
L 545.637189 -42.68 
L 545.00072 -42.68 
L 544.364251 -42.68 
L 543.727782 -42.68 
L 543.091313 -42.68 
L 542.454844 -42.68 
L 541.818375 -42.68 
L 541.181906 -42.68 
L 540.545437 -42.68 
L 539.908968 -42.68 
L 539.272499 -42.68 
L 538.63603 -42.68 
L 537.99956 -42.68 
L 537.363091 -42.68 
L 536.726622 -42.68 
L 536.090153 -42.68 
L 535.453684 -42.68 
L 534.817215 -42.68 
L 534.180746 -42.68 
L 533.544277 -42.68 
L 532.907808 -42.68 
L 532.271339 -42.68 
L 531.63487 -42.68 
L 530.998401 -42.68 
L 530.361932 -42.68 
L 529.725463 -42.68 
L 529.088994 -42.68 
L 528.452525 -42.68 
L 527.816056 -42.68 
L 527.179586 -42.68 
L 526.543117 -42.68 
L 525.906648 -42.68 
L 525.270179 -42.68 
L 524.63371 -42.68 
L 523.997241 -42.68 
L 523.360772 -42.68 
L 522.724303 -42.68 
L 522.087834 -42.68 
L 521.451365 -42.68 
L 520.814896 -42.68 
L 520.178427 -42.68 
L 519.541958 -42.68 
L 518.905489 -42.68 
L 518.26902 -42.68 
L 517.632551 -42.68 
L 516.996082 -42.68 
L 516.359613 -42.68 
L 515.723143 -42.68 
L 515.086674 -42.68 
L 514.450205 -42.68 
L 513.813736 -42.68 
L 513.177267 -42.68 
L 512.540798 -42.68 
L 511.904329 -42.68 
L 511.26786 -42.68 
L 510.631391 -42.68 
L 509.994922 -42.68 
L 509.358453 -42.68 
L 508.721984 -42.68 
L 508.085515 -42.68 
L 507.449046 -42.68 
L 506.812577 -42.68 
L 506.176108 -42.68 
L 505.539639 -42.68 
L 504.903169 -42.68 
L 504.2667 -42.68 
L 503.630231 -42.68 
L 502.993762 -42.68 
L 502.357293 -42.68 
L 501.720824 -42.68 
z
" id="m0dd9ea3ee6" style="stroke:#1f77b4;stroke-opacity:0.7;"/>
    </defs>
    <g clip-path="url(#p2768cf88ab)">
     <use style="fill:#1f77b4;fill-opacity:0.7;stroke:#1f77b4;stroke-opacity:0.7;" x="0" xlink:href="#m0dd9ea3ee6" y="345.6"/>
    </g>
   </g>
   <g id="matplotlib.axis_3">
    <g id="xtick_4">
     <g id="line2d_10">
      <g>
       <use style="stroke:#000000;stroke-width:0.8;" x="380.646308" xlink:href="#m77c63b09fe" y="302.92"/>
      </g>
     </g>
     <g id="text_13">
      <!-- -1.96 -->
      <g transform="translate(367.709589 317.518437)scale(0.1 -0.1)">
       <use xlink:href="#DejaVuSans-2d"/>
       <use x="36.083984" xlink:href="#DejaVuSans-31"/>
       <use x="99.707031" xlink:href="#DejaVuSans-2e"/>
       <use x="131.494141" xlink:href="#DejaVuSans-39"/>
       <use x="195.117188" xlink:href="#DejaVuSans-36"/>
      </g>
     </g>
    </g>
    <g id="xtick_5">
     <g id="line2d_11">
      <g>
       <use style="stroke:#000000;stroke-width:0.8;" x="501.720824" xlink:href="#m77c63b09fe" y="302.92"/>
      </g>
     </g>
     <g id="text_14">
      <!-- 1.96 -->
      <g transform="translate(490.588012 317.518437)scale(0.1 -0.1)">
       <use xlink:href="#DejaVuSans-31"/>
       <use x="63.623047" xlink:href="#DejaVuSans-2e"/>
       <use x="95.410156" xlink:href="#DejaVuSans-39"/>
       <use x="159.033203" xlink:href="#DejaVuSans-36"/>
      </g>
     </g>
    </g>
    <g id="xtick_6">
     <g id="line2d_12">
      <g>
       <use style="stroke:#000000;stroke-width:0.8;" x="441.183566" xlink:href="#m77c63b09fe" y="302.92"/>
      </g>
     </g>
     <g id="text_15">
      <!-- 0 -->
      <g transform="translate(438.002316 317.518437)scale(0.1 -0.1)">
       <use xlink:href="#DejaVuSans-30"/>
      </g>
     </g>
    </g>
    <g id="text_16">
     <!-- z-value -->
     <g transform="translate(421.43341 331.956406)scale(0.11 -0.11)">
      <use xlink:href="#DejaVuSans-7a"/>
      <use x="52.490234" xlink:href="#DejaVuSans-2d"/>
      <use x="85.949219" xlink:href="#DejaVuSans-76"/>
      <use x="145.128906" xlink:href="#DejaVuSans-61"/>
      <use x="206.408203" xlink:href="#DejaVuSans-6c"/>
      <use x="234.191406" xlink:href="#DejaVuSans-75"/>
      <use x="297.570312" xlink:href="#DejaVuSans-65"/>
     </g>
    </g>
   </g>
   <g id="matplotlib.axis_4">
    <g id="ytick_6">
     <g id="line2d_13">
      <g>
       <use style="stroke:#000000;stroke-width:0.8;" x="317.635871" xlink:href="#me43dd2ee6f" y="302.92"/>
      </g>
     </g>
     <g id="text_17">
      <!-- 0.0 -->
      <g transform="translate(294.732746 306.719219)scale(0.1 -0.1)">
       <use xlink:href="#DejaVuSans-30"/>
       <use x="63.623047" xlink:href="#DejaVuSans-2e"/>
       <use x="95.410156" xlink:href="#DejaVuSans-30"/>
      </g>
     </g>
    </g>
    <g id="ytick_7">
     <g id="line2d_14">
      <g>
       <use style="stroke:#000000;stroke-width:0.8;" x="317.635871" xlink:href="#me43dd2ee6f" y="245.554857"/>
      </g>
     </g>
     <g id="text_18">
      <!-- 0.1 -->
      <g transform="translate(294.732746 249.354075)scale(0.1 -0.1)">
       <use xlink:href="#DejaVuSans-30"/>
       <use x="63.623047" xlink:href="#DejaVuSans-2e"/>
       <use x="95.410156" xlink:href="#DejaVuSans-31"/>
      </g>
     </g>
    </g>
    <g id="ytick_8">
     <g id="line2d_15">
      <g>
       <use style="stroke:#000000;stroke-width:0.8;" x="317.635871" xlink:href="#me43dd2ee6f" y="188.189713"/>
      </g>
     </g>
     <g id="text_19">
      <!-- 0.2 -->
      <g transform="translate(294.732746 191.988932)scale(0.1 -0.1)">
       <use xlink:href="#DejaVuSans-30"/>
       <use x="63.623047" xlink:href="#DejaVuSans-2e"/>
       <use x="95.410156" xlink:href="#DejaVuSans-32"/>
      </g>
     </g>
    </g>
    <g id="ytick_9">
     <g id="line2d_16">
      <g>
       <use style="stroke:#000000;stroke-width:0.8;" x="317.635871" xlink:href="#me43dd2ee6f" y="130.82457"/>
      </g>
     </g>
     <g id="text_20">
      <!-- 0.3 -->
      <g transform="translate(294.732746 134.623789)scale(0.1 -0.1)">
       <use xlink:href="#DejaVuSans-30"/>
       <use x="63.623047" xlink:href="#DejaVuSans-2e"/>
       <use x="95.410156" xlink:href="#DejaVuSans-33"/>
      </g>
     </g>
    </g>
    <g id="ytick_10">
     <g id="line2d_17">
      <g>
       <use style="stroke:#000000;stroke-width:0.8;" x="317.635871" xlink:href="#me43dd2ee6f" y="73.459426"/>
      </g>
     </g>
     <g id="text_21">
      <!-- 0.4 -->
      <g transform="translate(294.732746 77.258645)scale(0.1 -0.1)">
       <use xlink:href="#DejaVuSans-30"/>
       <use x="63.623047" xlink:href="#DejaVuSans-2e"/>
       <use x="95.410156" xlink:href="#DejaVuSans-34"/>
      </g>
     </g>
    </g>
   </g>
   <g id="LineCollection_3">
    <path clip-path="url(#p2768cf88ab)" d="M 380.646308 302.92 
L 380.646308 269.392902 
" style="fill:none;stroke:#000000;"/>
   </g>
   <g id="LineCollection_4">
    <path clip-path="url(#p2768cf88ab)" d="M 501.720824 302.92 
L 501.720824 269.392902 
" style="fill:none;stroke:#000000;"/>
   </g>
   <g id="line2d_18">
    <path clip-path="url(#p2768cf88ab)" d="M 317.635871 302.843228 
L 328.379149 302.629486 
L 334.990397 302.299528 
L 339.948833 301.856273 
L 344.080863 301.285553 
L 347.386487 300.644866 
L 350.692111 299.789104 
L 353.997735 298.660525 
L 356.476953 297.59454 
L 358.956171 296.304539 
L 361.435389 294.754836 
L 363.914607 292.906828 
L 366.393825 290.719425 
L 368.873043 288.149648 
L 371.35226 285.153444 
L 373.831478 281.686697 
L 376.310696 277.706463 
L 378.789914 273.172405 
L 381.269132 268.048402 
L 383.74835 262.304319 
L 386.227568 255.917873 
L 388.706786 248.876536 
L 391.186004 241.179416 
L 393.665222 232.839017 
L 396.970846 220.767616 
L 400.27647 207.713687 
L 404.4085 190.270973 
L 410.193342 164.577382 
L 416.80459 135.318687 
L 420.110214 121.58714 
L 422.589432 111.995627 
L 425.068649 103.187782 
L 427.547867 95.315496 
L 429.200679 90.656805 
L 430.853491 86.514138 
L 432.506303 82.92149 
L 434.159115 79.908707 
L 435.811927 77.501078 
L 437.464739 75.718979 
L 438.291145 75.067456 
L 439.117551 74.577588 
L 439.943957 74.250424 
L 440.770363 74.086667 
L 441.596769 74.086667 
L 442.423175 74.250424 
L 443.249581 74.577588 
L 444.075987 75.067456 
L 444.902393 75.718979 
L 445.728799 76.530764 
L 447.381611 78.627856 
L 449.034423 81.340923 
L 450.687235 84.647094 
L 452.340047 88.518752 
L 453.992859 92.923921 
L 455.645671 97.826708 
L 458.124889 106.027076 
L 460.604107 115.113486 
L 463.909731 128.338281 
L 468.041761 146.113653 
L 481.264256 204.314784 
L 484.56988 217.590752 
L 487.875504 229.920223 
L 490.354722 238.469724 
L 492.83394 246.383369 
L 495.313158 253.643828 
L 497.792376 260.247715 
L 500.271594 266.203885 
L 502.750812 271.531582 
L 505.23003 276.258533 
L 507.709248 280.419067 
L 510.188466 284.052302 
L 512.667684 287.200483 
L 515.146902 289.907481 
L 517.62612 292.217495 
L 520.105338 294.173961 
L 522.584556 295.818677 
L 525.063774 297.191129 
L 527.542992 298.328013 
L 530.02221 299.262922 
L 533.327833 300.247242 
L 536.633457 300.988874 
L 540.765487 301.654159 
L 545.723923 302.175265 
L 551.508765 302.531777 
L 559.772825 302.77596 
L 564.731261 302.843228 
L 564.731261 302.843228 
" style="fill:none;stroke:#000000;stroke-linecap:square;"/>
   </g>
   <g id="patch_10">
    <path d="M 317.635871 302.92 
L 317.635871 28.32 
" style="fill:none;stroke:#000000;stroke-linecap:square;stroke-linejoin:miter;stroke-width:0.8;"/>
   </g>
   <g id="patch_11">
    <path d="M 564.731261 302.92 
L 564.731261 28.32 
" style="fill:none;stroke:#000000;stroke-linecap:square;stroke-linejoin:miter;stroke-width:0.8;"/>
   </g>
   <g id="patch_12">
    <path d="M 317.635871 302.92 
L 564.731261 302.92 
" style="fill:none;stroke:#000000;stroke-linecap:square;stroke-linejoin:miter;stroke-width:0.8;"/>
   </g>
   <g id="patch_13">
    <path d="M 317.635871 28.32 
L 564.731261 28.32 
" style="fill:none;stroke:#000000;stroke-linecap:square;stroke-linejoin:miter;stroke-width:0.8;"/>
   </g>
   <g id="patch_14">
    <path d="M 341.708407 274.063329 
Q 350.041827 284.211329 357.878572 293.754503 
" style="fill:none;stroke:#000000;stroke-linecap:round;stroke-width:0.7;"/>
    <path d="M 356.885692 289.393977 
L 357.878572 293.754503 
L 353.794423 291.932491 
" style="fill:none;stroke:#000000;stroke-linecap:round;stroke-width:0.7;"/>
   </g>
   <g id="text_22">
    <!-- 0.025 -->
    <g transform="translate(320.512965 268.442923)scale(0.1 -0.1)">
     <use xlink:href="#DejaVuSans-30"/>
     <use x="63.623047" xlink:href="#DejaVuSans-2e"/>
     <use x="95.410156" xlink:href="#DejaVuSans-30"/>
     <use x="159.033203" xlink:href="#DejaVuSans-32"/>
     <use x="222.65625" xlink:href="#DejaVuSans-35"/>
    </g>
   </g>
   <g id="patch_15">
    <path d="M 540.658725 274.063329 
Q 532.325305 284.211329 524.48856 293.754503 
" style="fill:none;stroke:#000000;stroke-linecap:round;stroke-width:0.7;"/>
    <path d="M 528.572709 291.932491 
L 524.48856 293.754503 
L 525.48144 289.393977 
" style="fill:none;stroke:#000000;stroke-linecap:round;stroke-width:0.7;"/>
   </g>
   <g id="text_23">
    <!-- 0.025 -->
    <g transform="translate(533.226043 268.442923)scale(0.1 -0.1)">
     <use xlink:href="#DejaVuSans-30"/>
     <use x="63.623047" xlink:href="#DejaVuSans-2e"/>
     <use x="95.410156" xlink:href="#DejaVuSans-30"/>
     <use x="159.033203" xlink:href="#DejaVuSans-32"/>
     <use x="222.65625" xlink:href="#DejaVuSans-35"/>
    </g>
   </g>
   <g id="text_24">
    <!-- Confidence level: 95%, $\alpha$ = 0.05 -->
    <g transform="translate(343.983566 22.32)scale(0.12 -0.12)">
     <use transform="translate(0 0.015625)" xlink:href="#DejaVuSans-43"/>
     <use transform="translate(69.824219 0.015625)" xlink:href="#DejaVuSans-6f"/>
     <use transform="translate(131.005859 0.015625)" xlink:href="#DejaVuSans-6e"/>
     <use transform="translate(194.384766 0.015625)" xlink:href="#DejaVuSans-66"/>
     <use transform="translate(229.589844 0.015625)" xlink:href="#DejaVuSans-69"/>
     <use transform="translate(257.373047 0.015625)" xlink:href="#DejaVuSans-64"/>
     <use transform="translate(320.849609 0.015625)" xlink:href="#DejaVuSans-65"/>
     <use transform="translate(382.373047 0.015625)" xlink:href="#DejaVuSans-6e"/>
     <use transform="translate(445.751953 0.015625)" xlink:href="#DejaVuSans-63"/>
     <use transform="translate(500.732422 0.015625)" xlink:href="#DejaVuSans-65"/>
     <use transform="translate(562.255859 0.015625)" xlink:href="#DejaVuSans-20"/>
     <use transform="translate(594.042969 0.015625)" xlink:href="#DejaVuSans-6c"/>
     <use transform="translate(621.826172 0.015625)" xlink:href="#DejaVuSans-65"/>
     <use transform="translate(683.349609 0.015625)" xlink:href="#DejaVuSans-76"/>
     <use transform="translate(742.529297 0.015625)" xlink:href="#DejaVuSans-65"/>
     <use transform="translate(804.052734 0.015625)" xlink:href="#DejaVuSans-6c"/>
     <use transform="translate(831.835938 0.015625)" xlink:href="#DejaVuSans-3a"/>
     <use transform="translate(865.527344 0.015625)" xlink:href="#DejaVuSans-20"/>
     <use transform="translate(897.314453 0.015625)" xlink:href="#DejaVuSans-39"/>
     <use transform="translate(960.9375 0.015625)" xlink:href="#DejaVuSans-35"/>
     <use transform="translate(1024.560547 0.015625)" xlink:href="#DejaVuSans-25"/>
     <use transform="translate(1119.580078 0.015625)" xlink:href="#DejaVuSans-2c"/>
     <use transform="translate(1151.367188 0.015625)" xlink:href="#DejaVuSans-20"/>
     <use transform="translate(1183.154297 0.015625)" xlink:href="#DejaVuSans-Oblique-3b1"/>
     <use transform="translate(1249.072266 0.015625)" xlink:href="#DejaVuSans-20"/>
     <use transform="translate(1280.859375 0.015625)" xlink:href="#DejaVuSans-3d"/>
     <use transform="translate(1364.648438 0.015625)" xlink:href="#DejaVuSans-20"/>
     <use transform="translate(1396.435547 0.015625)" xlink:href="#DejaVuSans-30"/>
     <use transform="translate(1460.058594 0.015625)" xlink:href="#DejaVuSans-2e"/>
     <use transform="translate(1491.845703 0.015625)" xlink:href="#DejaVuSans-30"/>
     <use transform="translate(1555.46875 0.015625)" xlink:href="#DejaVuSans-35"/>
    </g>
   </g>
  </g>
  <g id="axes_3">
   <g id="patch_16">
    <path d="M 601.631743 302.92 
L 848.727132 302.92 
L 848.727132 28.32 
L 601.631743 28.32 
z
" style="fill:#ffffff;"/>
   </g>
   <g id="PolyCollection_5">
    <defs>
     <path d="M 601.631743 -42.68 
L 601.631743 -42.756772 
L 602.076069 -42.761311 
L 602.520394 -42.7661 
L 602.96472 -42.771153 
L 603.409046 -42.776482 
L 603.853372 -42.782101 
L 604.297698 -42.788025 
L 604.742023 -42.79427 
L 605.186349 -42.800851 
L 605.630675 -42.807784 
L 606.075001 -42.815086 
L 606.519326 -42.822777 
L 606.963652 -42.830874 
L 607.407978 -42.839398 
L 607.852304 -42.848368 
L 608.29663 -42.857806 
L 608.740955 -42.867734 
L 609.185281 -42.878176 
L 609.629607 -42.889155 
L 610.073933 -42.900696 
L 610.518258 -42.912827 
L 610.962584 -42.925573 
L 611.40691 -42.938964 
L 611.851236 -42.953028 
L 612.295562 -42.967796 
L 612.739887 -42.983301 
L 613.184213 -42.999574 
L 613.628539 -43.016651 
L 614.072865 -43.034568 
L 614.51719 -43.05336 
L 614.961516 -43.073067 
L 615.405842 -43.093729 
L 615.850168 -43.115387 
L 616.294493 -43.138084 
L 616.738819 -43.161864 
L 617.183145 -43.186773 
L 617.627471 -43.212861 
L 618.071797 -43.240175 
L 618.516122 -43.268767 
L 618.960448 -43.298691 
L 619.404774 -43.330001 
L 619.8491 -43.362754 
L 620.293425 -43.397009 
L 620.737751 -43.432827 
L 621.182077 -43.470271 
L 621.626403 -43.509405 
L 622.070729 -43.550297 
L 622.515054 -43.593017 
L 622.95938 -43.637635 
L 623.403706 -43.684226 
L 623.848032 -43.732865 
L 624.292357 -43.783632 
L 624.736683 -43.836608 
L 625.181009 -43.891876 
L 625.625335 -43.949521 
L 626.069661 -44.009634 
L 626.513986 -44.072305 
L 626.958312 -44.137628 
L 627.402638 -44.2057 
L 627.846964 -44.276621 
L 628.291289 -44.350493 
L 628.735615 -44.42742 
L 629.179941 -44.507513 
L 629.624267 -44.59088 
L 630.068592 -44.677638 
L 630.512918 -44.767902 
L 630.957244 -44.861793 
L 631.40157 -44.959435 
L 631.845896 -45.060953 
L 632.290221 -45.166479 
L 632.734547 -45.276144 
L 633.178873 -45.390084 
L 633.623199 -45.508441 
L 634.067524 -45.631355 
L 634.51185 -45.758973 
L 634.956176 -45.891445 
L 635.400502 -46.028924 
L 635.844828 -46.171565 
L 636.289153 -46.319528 
L 636.733479 -46.472977 
L 637.177805 -46.632077 
L 637.622131 -46.796999 
L 638.066456 -46.967916 
L 638.510782 -47.145004 
L 638.955108 -47.328444 
L 639.399434 -47.518419 
L 639.843759 -47.715116 
L 640.288085 -47.918725 
L 640.732411 -48.129439 
L 641.176737 -48.347456 
L 641.621063 -48.572976 
L 642.065388 -48.806201 
L 642.509714 -49.047339 
L 642.95404 -49.2966 
L 643.398366 -49.554195 
L 643.842691 -49.820341 
L 644.287017 -50.095257 
L 644.731343 -50.379164 
L 645.175669 -50.672287 
L 645.619995 -50.974852 
L 645.619995 -42.68 
L 645.619995 -42.68 
L 645.175669 -42.68 
L 644.731343 -42.68 
L 644.287017 -42.68 
L 643.842691 -42.68 
L 643.398366 -42.68 
L 642.95404 -42.68 
L 642.509714 -42.68 
L 642.065388 -42.68 
L 641.621063 -42.68 
L 641.176737 -42.68 
L 640.732411 -42.68 
L 640.288085 -42.68 
L 639.843759 -42.68 
L 639.399434 -42.68 
L 638.955108 -42.68 
L 638.510782 -42.68 
L 638.066456 -42.68 
L 637.622131 -42.68 
L 637.177805 -42.68 
L 636.733479 -42.68 
L 636.289153 -42.68 
L 635.844828 -42.68 
L 635.400502 -42.68 
L 634.956176 -42.68 
L 634.51185 -42.68 
L 634.067524 -42.68 
L 633.623199 -42.68 
L 633.178873 -42.68 
L 632.734547 -42.68 
L 632.290221 -42.68 
L 631.845896 -42.68 
L 631.40157 -42.68 
L 630.957244 -42.68 
L 630.512918 -42.68 
L 630.068592 -42.68 
L 629.624267 -42.68 
L 629.179941 -42.68 
L 628.735615 -42.68 
L 628.291289 -42.68 
L 627.846964 -42.68 
L 627.402638 -42.68 
L 626.958312 -42.68 
L 626.513986 -42.68 
L 626.069661 -42.68 
L 625.625335 -42.68 
L 625.181009 -42.68 
L 624.736683 -42.68 
L 624.292357 -42.68 
L 623.848032 -42.68 
L 623.403706 -42.68 
L 622.95938 -42.68 
L 622.515054 -42.68 
L 622.070729 -42.68 
L 621.626403 -42.68 
L 621.182077 -42.68 
L 620.737751 -42.68 
L 620.293425 -42.68 
L 619.8491 -42.68 
L 619.404774 -42.68 
L 618.960448 -42.68 
L 618.516122 -42.68 
L 618.071797 -42.68 
L 617.627471 -42.68 
L 617.183145 -42.68 
L 616.738819 -42.68 
L 616.294493 -42.68 
L 615.850168 -42.68 
L 615.405842 -42.68 
L 614.961516 -42.68 
L 614.51719 -42.68 
L 614.072865 -42.68 
L 613.628539 -42.68 
L 613.184213 -42.68 
L 612.739887 -42.68 
L 612.295562 -42.68 
L 611.851236 -42.68 
L 611.40691 -42.68 
L 610.962584 -42.68 
L 610.518258 -42.68 
L 610.073933 -42.68 
L 609.629607 -42.68 
L 609.185281 -42.68 
L 608.740955 -42.68 
L 608.29663 -42.68 
L 607.852304 -42.68 
L 607.407978 -42.68 
L 606.963652 -42.68 
L 606.519326 -42.68 
L 606.075001 -42.68 
L 605.630675 -42.68 
L 605.186349 -42.68 
L 604.742023 -42.68 
L 604.297698 -42.68 
L 603.853372 -42.68 
L 603.409046 -42.68 
L 602.96472 -42.68 
L 602.520394 -42.68 
L 602.076069 -42.68 
L 601.631743 -42.68 
z
" id="m5d0844a733" style="stroke:#1f77b4;stroke-opacity:0.7;"/>
    </defs>
    <g clip-path="url(#p766f358638)">
     <use style="fill:#1f77b4;fill-opacity:0.7;stroke:#1f77b4;stroke-opacity:0.7;" x="0" xlink:href="#m5d0844a733" y="345.6"/>
    </g>
   </g>
   <g id="PolyCollection_6">
    <defs>
     <path d="M 804.738881 -42.68 
L 804.738881 -50.974852 
L 805.183207 -50.672287 
L 805.627532 -50.379164 
L 806.071858 -50.095257 
L 806.516184 -49.820341 
L 806.96051 -49.554195 
L 807.404835 -49.2966 
L 807.849161 -49.047339 
L 808.293487 -48.806201 
L 808.737813 -48.572976 
L 809.182138 -48.347456 
L 809.626464 -48.129439 
L 810.07079 -47.918725 
L 810.515116 -47.715116 
L 810.959442 -47.518419 
L 811.403767 -47.328444 
L 811.848093 -47.145004 
L 812.292419 -46.967916 
L 812.736745 -46.796999 
L 813.18107 -46.632077 
L 813.625396 -46.472977 
L 814.069722 -46.319528 
L 814.514048 -46.171565 
L 814.958374 -46.028924 
L 815.402699 -45.891445 
L 815.847025 -45.758973 
L 816.291351 -45.631355 
L 816.735677 -45.508441 
L 817.180002 -45.390084 
L 817.624328 -45.276144 
L 818.068654 -45.166479 
L 818.51298 -45.060953 
L 818.957306 -44.959435 
L 819.401631 -44.861793 
L 819.845957 -44.767902 
L 820.290283 -44.677638 
L 820.734609 -44.59088 
L 821.178934 -44.507513 
L 821.62326 -44.42742 
L 822.067586 -44.350493 
L 822.511912 -44.276621 
L 822.956237 -44.2057 
L 823.400563 -44.137628 
L 823.844889 -44.072305 
L 824.289215 -44.009634 
L 824.733541 -43.949521 
L 825.177866 -43.891876 
L 825.622192 -43.836608 
L 826.066518 -43.783632 
L 826.510844 -43.732865 
L 826.955169 -43.684226 
L 827.399495 -43.637635 
L 827.843821 -43.593017 
L 828.288147 -43.550297 
L 828.732473 -43.509405 
L 829.176798 -43.470271 
L 829.621124 -43.432827 
L 830.06545 -43.397009 
L 830.509776 -43.362754 
L 830.954101 -43.330001 
L 831.398427 -43.298691 
L 831.842753 -43.268767 
L 832.287079 -43.240175 
L 832.731404 -43.212861 
L 833.17573 -43.186773 
L 833.620056 -43.161864 
L 834.064382 -43.138084 
L 834.508708 -43.115387 
L 834.953033 -43.093729 
L 835.397359 -43.073067 
L 835.841685 -43.05336 
L 836.286011 -43.034568 
L 836.730336 -43.016651 
L 837.174662 -42.999574 
L 837.618988 -42.983301 
L 838.063314 -42.967796 
L 838.50764 -42.953028 
L 838.951965 -42.938964 
L 839.396291 -42.925573 
L 839.840617 -42.912827 
L 840.284943 -42.900696 
L 840.729268 -42.889155 
L 841.173594 -42.878176 
L 841.61792 -42.867734 
L 842.062246 -42.857806 
L 842.506572 -42.848368 
L 842.950897 -42.839398 
L 843.395223 -42.830874 
L 843.839549 -42.822777 
L 844.283875 -42.815086 
L 844.7282 -42.807784 
L 845.172526 -42.800851 
L 845.616852 -42.79427 
L 846.061178 -42.788025 
L 846.505503 -42.782101 
L 846.949829 -42.776482 
L 847.394155 -42.771153 
L 847.838481 -42.7661 
L 848.282807 -42.761311 
L 848.727132 -42.756772 
L 848.727132 -42.68 
L 848.727132 -42.68 
L 848.282807 -42.68 
L 847.838481 -42.68 
L 847.394155 -42.68 
L 846.949829 -42.68 
L 846.505503 -42.68 
L 846.061178 -42.68 
L 845.616852 -42.68 
L 845.172526 -42.68 
L 844.7282 -42.68 
L 844.283875 -42.68 
L 843.839549 -42.68 
L 843.395223 -42.68 
L 842.950897 -42.68 
L 842.506572 -42.68 
L 842.062246 -42.68 
L 841.61792 -42.68 
L 841.173594 -42.68 
L 840.729268 -42.68 
L 840.284943 -42.68 
L 839.840617 -42.68 
L 839.396291 -42.68 
L 838.951965 -42.68 
L 838.50764 -42.68 
L 838.063314 -42.68 
L 837.618988 -42.68 
L 837.174662 -42.68 
L 836.730336 -42.68 
L 836.286011 -42.68 
L 835.841685 -42.68 
L 835.397359 -42.68 
L 834.953033 -42.68 
L 834.508708 -42.68 
L 834.064382 -42.68 
L 833.620056 -42.68 
L 833.17573 -42.68 
L 832.731404 -42.68 
L 832.287079 -42.68 
L 831.842753 -42.68 
L 831.398427 -42.68 
L 830.954101 -42.68 
L 830.509776 -42.68 
L 830.06545 -42.68 
L 829.621124 -42.68 
L 829.176798 -42.68 
L 828.732473 -42.68 
L 828.288147 -42.68 
L 827.843821 -42.68 
L 827.399495 -42.68 
L 826.955169 -42.68 
L 826.510844 -42.68 
L 826.066518 -42.68 
L 825.622192 -42.68 
L 825.177866 -42.68 
L 824.733541 -42.68 
L 824.289215 -42.68 
L 823.844889 -42.68 
L 823.400563 -42.68 
L 822.956237 -42.68 
L 822.511912 -42.68 
L 822.067586 -42.68 
L 821.62326 -42.68 
L 821.178934 -42.68 
L 820.734609 -42.68 
L 820.290283 -42.68 
L 819.845957 -42.68 
L 819.401631 -42.68 
L 818.957306 -42.68 
L 818.51298 -42.68 
L 818.068654 -42.68 
L 817.624328 -42.68 
L 817.180002 -42.68 
L 816.735677 -42.68 
L 816.291351 -42.68 
L 815.847025 -42.68 
L 815.402699 -42.68 
L 814.958374 -42.68 
L 814.514048 -42.68 
L 814.069722 -42.68 
L 813.625396 -42.68 
L 813.18107 -42.68 
L 812.736745 -42.68 
L 812.292419 -42.68 
L 811.848093 -42.68 
L 811.403767 -42.68 
L 810.959442 -42.68 
L 810.515116 -42.68 
L 810.07079 -42.68 
L 809.626464 -42.68 
L 809.182138 -42.68 
L 808.737813 -42.68 
L 808.293487 -42.68 
L 807.849161 -42.68 
L 807.404835 -42.68 
L 806.96051 -42.68 
L 806.516184 -42.68 
L 806.071858 -42.68 
L 805.627532 -42.68 
L 805.183207 -42.68 
L 804.738881 -42.68 
z
" id="m843aa0d949" style="stroke:#1f77b4;stroke-opacity:0.7;"/>
    </defs>
    <g clip-path="url(#p766f358638)">
     <use style="fill:#1f77b4;fill-opacity:0.7;stroke:#1f77b4;stroke-opacity:0.7;" x="0" xlink:href="#m843aa0d949" y="345.6"/>
    </g>
   </g>
   <g id="matplotlib.axis_5">
    <g id="xtick_7">
     <g id="line2d_19">
      <g>
       <use style="stroke:#000000;stroke-width:0.8;" x="645.619995" xlink:href="#m77c63b09fe" y="302.92"/>
      </g>
     </g>
     <g id="text_25">
      <!-- -2.58 -->
      <g transform="translate(632.683276 317.518437)scale(0.1 -0.1)">
       <defs>
        <path d="M 2034 2216 
Q 1584 2216 1326 1975 
Q 1069 1734 1069 1313 
Q 1069 891 1326 650 
Q 1584 409 2034 409 
Q 2484 409 2743 651 
Q 3003 894 3003 1313 
Q 3003 1734 2745 1975 
Q 2488 2216 2034 2216 
z
M 1403 2484 
Q 997 2584 770 2862 
Q 544 3141 544 3541 
Q 544 4100 942 4425 
Q 1341 4750 2034 4750 
Q 2731 4750 3128 4425 
Q 3525 4100 3525 3541 
Q 3525 3141 3298 2862 
Q 3072 2584 2669 2484 
Q 3125 2378 3379 2068 
Q 3634 1759 3634 1313 
Q 3634 634 3220 271 
Q 2806 -91 2034 -91 
Q 1263 -91 848 271 
Q 434 634 434 1313 
Q 434 1759 690 2068 
Q 947 2378 1403 2484 
z
M 1172 3481 
Q 1172 3119 1398 2916 
Q 1625 2713 2034 2713 
Q 2441 2713 2670 2916 
Q 2900 3119 2900 3481 
Q 2900 3844 2670 4047 
Q 2441 4250 2034 4250 
Q 1625 4250 1398 4047 
Q 1172 3844 1172 3481 
z
" id="DejaVuSans-38" transform="scale(0.015625)"/>
       </defs>
       <use xlink:href="#DejaVuSans-2d"/>
       <use x="36.083984" xlink:href="#DejaVuSans-32"/>
       <use x="99.707031" xlink:href="#DejaVuSans-2e"/>
       <use x="131.494141" xlink:href="#DejaVuSans-35"/>
       <use x="195.117188" xlink:href="#DejaVuSans-38"/>
      </g>
     </g>
    </g>
    <g id="xtick_8">
     <g id="line2d_20">
      <g>
       <use style="stroke:#000000;stroke-width:0.8;" x="804.738881" xlink:href="#m77c63b09fe" y="302.92"/>
      </g>
     </g>
     <g id="text_26">
      <!-- 2.58 -->
      <g transform="translate(793.606068 317.518437)scale(0.1 -0.1)">
       <use xlink:href="#DejaVuSans-32"/>
       <use x="63.623047" xlink:href="#DejaVuSans-2e"/>
       <use x="95.410156" xlink:href="#DejaVuSans-35"/>
       <use x="159.033203" xlink:href="#DejaVuSans-38"/>
      </g>
     </g>
    </g>
    <g id="xtick_9">
     <g id="line2d_21">
      <g>
       <use style="stroke:#000000;stroke-width:0.8;" x="725.179438" xlink:href="#m77c63b09fe" y="302.92"/>
      </g>
     </g>
     <g id="text_27">
      <!-- 0 -->
      <g transform="translate(721.998188 317.518437)scale(0.1 -0.1)">
       <use xlink:href="#DejaVuSans-30"/>
      </g>
     </g>
    </g>
    <g id="text_28">
     <!-- z-value -->
     <g transform="translate(705.429281 331.956406)scale(0.11 -0.11)">
      <use xlink:href="#DejaVuSans-7a"/>
      <use x="52.490234" xlink:href="#DejaVuSans-2d"/>
      <use x="85.949219" xlink:href="#DejaVuSans-76"/>
      <use x="145.128906" xlink:href="#DejaVuSans-61"/>
      <use x="206.408203" xlink:href="#DejaVuSans-6c"/>
      <use x="234.191406" xlink:href="#DejaVuSans-75"/>
      <use x="297.570312" xlink:href="#DejaVuSans-65"/>
     </g>
    </g>
   </g>
   <g id="matplotlib.axis_6">
    <g id="ytick_11">
     <g id="line2d_22">
      <g>
       <use style="stroke:#000000;stroke-width:0.8;" x="601.631743" xlink:href="#me43dd2ee6f" y="302.92"/>
      </g>
     </g>
     <g id="text_29">
      <!-- 0.0 -->
      <g transform="translate(578.728618 306.719219)scale(0.1 -0.1)">
       <use xlink:href="#DejaVuSans-30"/>
       <use x="63.623047" xlink:href="#DejaVuSans-2e"/>
       <use x="95.410156" xlink:href="#DejaVuSans-30"/>
      </g>
     </g>
    </g>
    <g id="ytick_12">
     <g id="line2d_23">
      <g>
       <use style="stroke:#000000;stroke-width:0.8;" x="601.631743" xlink:href="#me43dd2ee6f" y="245.554857"/>
      </g>
     </g>
     <g id="text_30">
      <!-- 0.1 -->
      <g transform="translate(578.728618 249.354075)scale(0.1 -0.1)">
       <use xlink:href="#DejaVuSans-30"/>
       <use x="63.623047" xlink:href="#DejaVuSans-2e"/>
       <use x="95.410156" xlink:href="#DejaVuSans-31"/>
      </g>
     </g>
    </g>
    <g id="ytick_13">
     <g id="line2d_24">
      <g>
       <use style="stroke:#000000;stroke-width:0.8;" x="601.631743" xlink:href="#me43dd2ee6f" y="188.189713"/>
      </g>
     </g>
     <g id="text_31">
      <!-- 0.2 -->
      <g transform="translate(578.728618 191.988932)scale(0.1 -0.1)">
       <use xlink:href="#DejaVuSans-30"/>
       <use x="63.623047" xlink:href="#DejaVuSans-2e"/>
       <use x="95.410156" xlink:href="#DejaVuSans-32"/>
      </g>
     </g>
    </g>
    <g id="ytick_14">
     <g id="line2d_25">
      <g>
       <use style="stroke:#000000;stroke-width:0.8;" x="601.631743" xlink:href="#me43dd2ee6f" y="130.82457"/>
      </g>
     </g>
     <g id="text_32">
      <!-- 0.3 -->
      <g transform="translate(578.728618 134.623789)scale(0.1 -0.1)">
       <use xlink:href="#DejaVuSans-30"/>
       <use x="63.623047" xlink:href="#DejaVuSans-2e"/>
       <use x="95.410156" xlink:href="#DejaVuSans-33"/>
      </g>
     </g>
    </g>
    <g id="ytick_15">
     <g id="line2d_26">
      <g>
       <use style="stroke:#000000;stroke-width:0.8;" x="601.631743" xlink:href="#me43dd2ee6f" y="73.459426"/>
      </g>
     </g>
     <g id="text_33">
      <!-- 0.4 -->
      <g transform="translate(578.728618 77.258645)scale(0.1 -0.1)">
       <use xlink:href="#DejaVuSans-30"/>
       <use x="63.623047" xlink:href="#DejaVuSans-2e"/>
       <use x="95.410156" xlink:href="#DejaVuSans-34"/>
      </g>
     </g>
    </g>
   </g>
   <g id="LineCollection_5">
    <path clip-path="url(#p766f358638)" d="M 645.619995 302.92 
L 645.619995 294.625148 
" style="fill:none;stroke:#000000;"/>
   </g>
   <g id="LineCollection_6">
    <path clip-path="url(#p766f358638)" d="M 804.738881 302.92 
L 804.738881 294.625148 
" style="fill:none;stroke:#000000;"/>
   </g>
   <g id="line2d_27">
    <path clip-path="url(#p766f358638)" d="M 601.631743 302.843228 
L 612.375021 302.629486 
L 618.986269 302.299528 
L 623.944705 301.856273 
L 628.076734 301.285553 
L 631.382358 300.644866 
L 634.687982 299.789104 
L 637.993606 298.660525 
L 640.472824 297.59454 
L 642.952042 296.304539 
L 645.43126 294.754836 
L 647.910478 292.906828 
L 650.389696 290.719425 
L 652.868914 288.149648 
L 655.348132 285.153444 
L 657.82735 281.686697 
L 660.306568 277.706463 
L 662.785786 273.172405 
L 665.265004 268.048402 
L 667.744222 262.304319 
L 670.22344 255.917873 
L 672.702658 248.876536 
L 675.181876 241.179416 
L 677.661094 232.839017 
L 680.966717 220.767616 
L 684.272341 207.713687 
L 688.404371 190.270973 
L 694.189213 164.577382 
L 700.800461 135.318687 
L 704.106085 121.58714 
L 706.585303 111.995627 
L 709.064521 103.187782 
L 711.543739 95.315496 
L 713.196551 90.656805 
L 714.849363 86.514138 
L 716.502175 82.92149 
L 718.154987 79.908707 
L 719.807799 77.501078 
L 721.460611 75.718979 
L 722.287017 75.067456 
L 723.113423 74.577588 
L 723.939829 74.250424 
L 724.766235 74.086667 
L 725.592641 74.086667 
L 726.419047 74.250424 
L 727.245453 74.577588 
L 728.071859 75.067456 
L 728.898265 75.718979 
L 729.724671 76.530764 
L 731.377483 78.627856 
L 733.030295 81.340923 
L 734.683106 84.647094 
L 736.335918 88.518752 
L 737.98873 92.923921 
L 739.641542 97.826708 
L 742.12076 106.027076 
L 744.599978 115.113486 
L 747.905602 128.338281 
L 752.037632 146.113653 
L 765.260128 204.314784 
L 768.565752 217.590752 
L 771.871376 229.920223 
L 774.350594 238.469724 
L 776.829812 246.383369 
L 779.30903 253.643828 
L 781.788248 260.247715 
L 784.267466 266.203885 
L 786.746684 271.531582 
L 789.225901 276.258533 
L 791.705119 280.419067 
L 794.184337 284.052302 
L 796.663555 287.200483 
L 799.142773 289.907481 
L 801.621991 292.217495 
L 804.101209 294.173961 
L 806.580427 295.818677 
L 809.059645 297.191129 
L 811.538863 298.328013 
L 814.018081 299.262922 
L 817.323705 300.247242 
L 820.629329 300.988874 
L 824.761359 301.654159 
L 829.719795 302.175265 
L 835.504637 302.531777 
L 843.768696 302.77596 
L 848.727132 302.843228 
L 848.727132 302.843228 
" style="fill:none;stroke:#000000;stroke-linecap:square;"/>
   </g>
   <g id="patch_17">
    <path d="M 601.631743 302.92 
L 601.631743 28.32 
" style="fill:none;stroke:#000000;stroke-linecap:square;stroke-linejoin:miter;stroke-width:0.8;"/>
   </g>
   <g id="patch_18">
    <path d="M 848.727132 302.92 
L 848.727132 28.32 
" style="fill:none;stroke:#000000;stroke-linecap:square;stroke-linejoin:miter;stroke-width:0.8;"/>
   </g>
   <g id="patch_19">
    <path d="M 601.631743 302.92 
L 848.727132 302.92 
" style="fill:none;stroke:#000000;stroke-linecap:square;stroke-linejoin:miter;stroke-width:0.8;"/>
   </g>
   <g id="patch_20">
    <path d="M 601.631743 28.32 
L 848.727132 28.32 
" style="fill:none;stroke:#000000;stroke-linecap:square;stroke-linejoin:miter;stroke-width:0.8;"/>
   </g>
   <g id="patch_21">
    <path d="M 621.866168 279.195479 
Q 626.022738 289.045124 629.875025 298.173719 
" style="fill:none;stroke:#000000;stroke-linecap:round;stroke-width:0.7;"/>
    <path d="M 630.16247 293.710831 
L 629.875025 298.173719 
L 626.477181 295.26603 
" style="fill:none;stroke:#000000;stroke-linecap:round;stroke-width:0.7;"/>
   </g>
   <g id="text_34">
    <!-- 0.005 -->
    <g transform="translate(603.890542 273.278207)scale(0.1 -0.1)">
     <use xlink:href="#DejaVuSans-30"/>
     <use x="63.623047" xlink:href="#DejaVuSans-2e"/>
     <use x="95.410156" xlink:href="#DejaVuSans-30"/>
     <use x="159.033203" xlink:href="#DejaVuSans-30"/>
     <use x="222.65625" xlink:href="#DejaVuSans-35"/>
    </g>
   </g>
   <g id="patch_22">
    <path d="M 828.492708 279.195479 
Q 824.336137 289.045124 820.48385 298.173719 
" style="fill:none;stroke:#000000;stroke-linecap:round;stroke-width:0.7;"/>
    <path d="M 823.881695 295.26603 
L 820.48385 298.173719 
L 820.196406 293.710831 
" style="fill:none;stroke:#000000;stroke-linecap:round;stroke-width:0.7;"/>
   </g>
   <g id="text_35">
    <!-- 0.005 -->
    <g transform="translate(817.840209 273.278207)scale(0.1 -0.1)">
     <use xlink:href="#DejaVuSans-30"/>
     <use x="63.623047" xlink:href="#DejaVuSans-2e"/>
     <use x="95.410156" xlink:href="#DejaVuSans-30"/>
     <use x="159.033203" xlink:href="#DejaVuSans-30"/>
     <use x="222.65625" xlink:href="#DejaVuSans-35"/>
    </g>
   </g>
   <g id="text_36">
    <!-- Confidence level: 99%, $\alpha$ = 0.01 -->
    <g transform="translate(627.979438 22.32)scale(0.12 -0.12)">
     <use transform="translate(0 0.015625)" xlink:href="#DejaVuSans-43"/>
     <use transform="translate(69.824219 0.015625)" xlink:href="#DejaVuSans-6f"/>
     <use transform="translate(131.005859 0.015625)" xlink:href="#DejaVuSans-6e"/>
     <use transform="translate(194.384766 0.015625)" xlink:href="#DejaVuSans-66"/>
     <use transform="translate(229.589844 0.015625)" xlink:href="#DejaVuSans-69"/>
     <use transform="translate(257.373047 0.015625)" xlink:href="#DejaVuSans-64"/>
     <use transform="translate(320.849609 0.015625)" xlink:href="#DejaVuSans-65"/>
     <use transform="translate(382.373047 0.015625)" xlink:href="#DejaVuSans-6e"/>
     <use transform="translate(445.751953 0.015625)" xlink:href="#DejaVuSans-63"/>
     <use transform="translate(500.732422 0.015625)" xlink:href="#DejaVuSans-65"/>
     <use transform="translate(562.255859 0.015625)" xlink:href="#DejaVuSans-20"/>
     <use transform="translate(594.042969 0.015625)" xlink:href="#DejaVuSans-6c"/>
     <use transform="translate(621.826172 0.015625)" xlink:href="#DejaVuSans-65"/>
     <use transform="translate(683.349609 0.015625)" xlink:href="#DejaVuSans-76"/>
     <use transform="translate(742.529297 0.015625)" xlink:href="#DejaVuSans-65"/>
     <use transform="translate(804.052734 0.015625)" xlink:href="#DejaVuSans-6c"/>
     <use transform="translate(831.835938 0.015625)" xlink:href="#DejaVuSans-3a"/>
     <use transform="translate(865.527344 0.015625)" xlink:href="#DejaVuSans-20"/>
     <use transform="translate(897.314453 0.015625)" xlink:href="#DejaVuSans-39"/>
     <use transform="translate(960.9375 0.015625)" xlink:href="#DejaVuSans-39"/>
     <use transform="translate(1024.560547 0.015625)" xlink:href="#DejaVuSans-25"/>
     <use transform="translate(1119.580078 0.015625)" xlink:href="#DejaVuSans-2c"/>
     <use transform="translate(1151.367188 0.015625)" xlink:href="#DejaVuSans-20"/>
     <use transform="translate(1183.154297 0.015625)" xlink:href="#DejaVuSans-Oblique-3b1"/>
     <use transform="translate(1249.072266 0.015625)" xlink:href="#DejaVuSans-20"/>
     <use transform="translate(1280.859375 0.015625)" xlink:href="#DejaVuSans-3d"/>
     <use transform="translate(1364.648438 0.015625)" xlink:href="#DejaVuSans-20"/>
     <use transform="translate(1396.435547 0.015625)" xlink:href="#DejaVuSans-30"/>
     <use transform="translate(1460.058594 0.015625)" xlink:href="#DejaVuSans-2e"/>
     <use transform="translate(1491.845703 0.015625)" xlink:href="#DejaVuSans-30"/>
     <use transform="translate(1555.46875 0.015625)" xlink:href="#DejaVuSans-31"/>
    </g>
   </g>
  </g>
 </g>
 <defs>
  <clipPath id="p9e6a3a5d81">
   <rect height="274.6" width="247.095389" x="33.64" y="28.32"/>
  </clipPath>
  <clipPath id="p2768cf88ab">
   <rect height="274.6" width="247.095389" x="317.635871" y="28.32"/>
  </clipPath>
  <clipPath id="p766f358638">
   <rect height="274.6" width="247.095389" x="601.631743" y="28.32"/>
  </clipPath>
 </defs>
</svg>
