<?xml version="1.0" encoding="utf-8" standalone="no"?>
<!DOCTYPE svg PUBLIC "-//W3C//DTD SVG 1.1//EN"
  "http://www.w3.org/Graphics/SVG/1.1/DTD/svg11.dtd">
<svg height="230.4pt" version="1.1" viewBox="0 0 460.8 230.4" width="460.8pt" xmlns="http://www.w3.org/2000/svg" xmlns:xlink="http://www.w3.org/1999/xlink">
 <metadata>
  <rdf:RDF xmlns:cc="http://creativecommons.org/ns#" xmlns:dc="http://purl.org/dc/elements/1.1/" xmlns:rdf="http://www.w3.org/1999/02/22-rdf-syntax-ns#">
   <cc:Work>
    <dc:type rdf:resource="http://purl.org/dc/dcmitype/StillImage"/>
    <dc:date>2021-07-19T07:15:12.179435</dc:date>
    <dc:format>image/svg+xml</dc:format>
    <dc:creator>
     <cc:Agent>
      <dc:title>Matplotlib v3.4.2, https://matplotlib.org/</dc:title>
     </cc:Agent>
    </dc:creator>
   </cc:Work>
  </rdf:RDF>
 </metadata>
 <defs>
  <style type="text/css">*{stroke-linecap:butt;stroke-linejoin:round;}</style>
 </defs>
 <g id="figure_1">
  <g id="patch_1">
   <path d="M 0 230.4 
L 460.8 230.4 
L 460.8 0 
L 0 0 
z
" style="fill:#ffffff;"/>
  </g>
  <g id="axes_1">
   <g id="patch_2">
    <path d="M 33.64 189.16 
L 450 189.16 
L 450 26.88 
L 33.64 26.88 
z
" style="fill:#ffffff;"/>
   </g>
   <g id="PolyCollection_1">
    <defs>
     <path d="M 33.64 -41.24 
L 33.64 -41.42574 
L 34.667637 -41.435775 
L 35.695273 -41.446336 
L 36.72291 -41.457449 
L 37.750546 -41.469144 
L 38.778183 -41.481447 
L 39.80582 -41.49439 
L 40.833456 -41.508004 
L 41.861093 -41.522323 
L 42.888729 -41.537381 
L 43.916366 -41.553214 
L 44.944003 -41.569861 
L 45.971639 -41.587361 
L 46.999276 -41.605755 
L 48.026912 -41.625086 
L 49.054549 -41.6454 
L 50.082186 -41.666744 
L 51.109822 -41.689167 
L 52.137459 -41.712721 
L 53.165095 -41.737458 
L 54.192732 -41.763435 
L 55.220369 -41.79071 
L 56.248005 -41.819344 
L 57.275642 -41.8494 
L 58.303278 -41.880944 
L 59.330915 -41.914045 
L 60.358552 -41.948774 
L 61.386188 -41.985206 
L 62.413825 -42.023418 
L 63.441461 -42.06349 
L 64.469098 -42.105507 
L 65.496735 -42.149556 
L 66.524371 -42.195727 
L 67.552008 -42.244115 
L 68.579644 -42.294816 
L 69.607281 -42.347933 
L 70.634918 -42.403571 
L 71.662554 -42.461839 
L 72.690191 -42.522851 
L 73.717827 -42.586723 
L 74.745464 -42.653578 
L 75.773101 -42.723542 
L 76.800737 -42.796746 
L 77.828374 -42.873324 
L 78.85601 -42.953418 
L 79.883647 -43.03717 
L 80.911284 -43.124732 
L 81.93892 -43.216258 
L 82.966557 -43.311908 
L 83.994193 -43.411846 
L 85.02183 -43.516244 
L 86.049467 -43.625276 
L 87.077103 -43.739125 
L 88.10474 -43.857976 
L 89.132376 -43.982022 
L 90.160013 -44.111462 
L 91.18765 -44.246499 
L 92.215286 -44.387343 
L 93.242923 -44.534209 
L 94.270559 -44.68732 
L 95.298196 -44.846902 
L 96.325833 -45.013189 
L 97.353469 -45.186422 
L 98.381106 -45.366844 
L 99.408742 -45.554708 
L 100.436379 -45.750272 
L 101.464016 -45.953799 
L 102.491652 -46.165559 
L 103.519289 -46.385827 
L 104.546925 -46.614885 
L 105.574562 -46.853019 
L 106.602199 -47.100523 
L 107.629835 -47.357695 
L 108.657472 -47.624838 
L 109.685108 -47.902262 
L 110.712745 -48.190281 
L 111.740382 -48.489213 
L 112.768018 -48.799383 
L 113.795655 -49.121119 
L 114.823291 -49.454753 
L 115.850928 -49.800622 
L 116.878564 -50.159067 
L 117.906201 -50.530431 
L 118.933838 -50.91506 
L 119.961474 -51.313304 
L 120.989111 -51.725515 
L 122.016747 -52.152046 
L 123.044384 -52.593251 
L 124.072021 -53.049487 
L 125.099657 -53.52111 
L 126.127294 -54.008476 
L 127.15493 -54.511941 
L 128.182567 -55.031858 
L 129.210204 -55.568581 
L 130.23784 -56.122459 
L 131.265477 -56.693839 
L 132.293113 -57.283064 
L 133.32075 -57.890472 
L 134.348387 -58.516397 
L 135.376023 -59.161165 
L 135.376023 -41.24 
L 135.376023 -41.24 
L 134.348387 -41.24 
L 133.32075 -41.24 
L 132.293113 -41.24 
L 131.265477 -41.24 
L 130.23784 -41.24 
L 129.210204 -41.24 
L 128.182567 -41.24 
L 127.15493 -41.24 
L 126.127294 -41.24 
L 125.099657 -41.24 
L 124.072021 -41.24 
L 123.044384 -41.24 
L 122.016747 -41.24 
L 120.989111 -41.24 
L 119.961474 -41.24 
L 118.933838 -41.24 
L 117.906201 -41.24 
L 116.878564 -41.24 
L 115.850928 -41.24 
L 114.823291 -41.24 
L 113.795655 -41.24 
L 112.768018 -41.24 
L 111.740382 -41.24 
L 110.712745 -41.24 
L 109.685108 -41.24 
L 108.657472 -41.24 
L 107.629835 -41.24 
L 106.602199 -41.24 
L 105.574562 -41.24 
L 104.546925 -41.24 
L 103.519289 -41.24 
L 102.491652 -41.24 
L 101.464016 -41.24 
L 100.436379 -41.24 
L 99.408742 -41.24 
L 98.381106 -41.24 
L 97.353469 -41.24 
L 96.325833 -41.24 
L 95.298196 -41.24 
L 94.270559 -41.24 
L 93.242923 -41.24 
L 92.215286 -41.24 
L 91.18765 -41.24 
L 90.160013 -41.24 
L 89.132376 -41.24 
L 88.10474 -41.24 
L 87.077103 -41.24 
L 86.049467 -41.24 
L 85.02183 -41.24 
L 83.994193 -41.24 
L 82.966557 -41.24 
L 81.93892 -41.24 
L 80.911284 -41.24 
L 79.883647 -41.24 
L 78.85601 -41.24 
L 77.828374 -41.24 
L 76.800737 -41.24 
L 75.773101 -41.24 
L 74.745464 -41.24 
L 73.717827 -41.24 
L 72.690191 -41.24 
L 71.662554 -41.24 
L 70.634918 -41.24 
L 69.607281 -41.24 
L 68.579644 -41.24 
L 67.552008 -41.24 
L 66.524371 -41.24 
L 65.496735 -41.24 
L 64.469098 -41.24 
L 63.441461 -41.24 
L 62.413825 -41.24 
L 61.386188 -41.24 
L 60.358552 -41.24 
L 59.330915 -41.24 
L 58.303278 -41.24 
L 57.275642 -41.24 
L 56.248005 -41.24 
L 55.220369 -41.24 
L 54.192732 -41.24 
L 53.165095 -41.24 
L 52.137459 -41.24 
L 51.109822 -41.24 
L 50.082186 -41.24 
L 49.054549 -41.24 
L 48.026912 -41.24 
L 46.999276 -41.24 
L 45.971639 -41.24 
L 44.944003 -41.24 
L 43.916366 -41.24 
L 42.888729 -41.24 
L 41.861093 -41.24 
L 40.833456 -41.24 
L 39.80582 -41.24 
L 38.778183 -41.24 
L 37.750546 -41.24 
L 36.72291 -41.24 
L 35.695273 -41.24 
L 34.667637 -41.24 
L 33.64 -41.24 
z
" id="m4b28d76d5a" style="stroke:#d62728;stroke-opacity:0.7;"/>
    </defs>
    <g clip-path="url(#p9ea2c7f695)">
     <use style="fill:#d62728;fill-opacity:0.7;stroke:#d62728;stroke-opacity:0.7;" x="0" xlink:href="#m4b28d76d5a" y="230.4"/>
    </g>
   </g>
   <g id="PolyCollection_2">
    <defs>
     <path d="M 348.263977 -41.24 
L 348.263977 -59.161165 
L 349.291613 -58.516397 
L 350.31925 -57.890472 
L 351.346887 -57.283064 
L 352.374523 -56.693839 
L 353.40216 -56.122459 
L 354.429796 -55.568581 
L 355.457433 -55.031858 
L 356.48507 -54.511941 
L 357.512706 -54.008476 
L 358.540343 -53.52111 
L 359.567979 -53.049487 
L 360.595616 -52.593251 
L 361.623253 -52.152046 
L 362.650889 -51.725515 
L 363.678526 -51.313304 
L 364.706162 -50.91506 
L 365.733799 -50.530431 
L 366.761436 -50.159067 
L 367.789072 -49.800622 
L 368.816709 -49.454753 
L 369.844345 -49.121119 
L 370.871982 -48.799383 
L 371.899618 -48.489213 
L 372.927255 -48.190281 
L 373.954892 -47.902262 
L 374.982528 -47.624838 
L 376.010165 -47.357695 
L 377.037801 -47.100523 
L 378.065438 -46.853019 
L 379.093075 -46.614885 
L 380.120711 -46.385827 
L 381.148348 -46.165559 
L 382.175984 -45.953799 
L 383.203621 -45.750272 
L 384.231258 -45.554708 
L 385.258894 -45.366844 
L 386.286531 -45.186422 
L 387.314167 -45.013189 
L 388.341804 -44.846902 
L 389.369441 -44.68732 
L 390.397077 -44.534209 
L 391.424714 -44.387343 
L 392.45235 -44.246499 
L 393.479987 -44.111462 
L 394.507624 -43.982022 
L 395.53526 -43.857976 
L 396.562897 -43.739125 
L 397.590533 -43.625276 
L 398.61817 -43.516244 
L 399.645807 -43.411846 
L 400.673443 -43.311908 
L 401.70108 -43.216258 
L 402.728716 -43.124732 
L 403.756353 -43.03717 
L 404.78399 -42.953418 
L 405.811626 -42.873324 
L 406.839263 -42.796746 
L 407.866899 -42.723542 
L 408.894536 -42.653578 
L 409.922173 -42.586723 
L 410.949809 -42.522851 
L 411.977446 -42.461839 
L 413.005082 -42.403571 
L 414.032719 -42.347933 
L 415.060356 -42.294816 
L 416.087992 -42.244115 
L 417.115629 -42.195727 
L 418.143265 -42.149556 
L 419.170902 -42.105507 
L 420.198539 -42.06349 
L 421.226175 -42.023418 
L 422.253812 -41.985206 
L 423.281448 -41.948774 
L 424.309085 -41.914045 
L 425.336722 -41.880944 
L 426.364358 -41.8494 
L 427.391995 -41.819344 
L 428.419631 -41.79071 
L 429.447268 -41.763435 
L 430.474905 -41.737458 
L 431.502541 -41.712721 
L 432.530178 -41.689167 
L 433.557814 -41.666744 
L 434.585451 -41.6454 
L 435.613088 -41.625086 
L 436.640724 -41.605755 
L 437.668361 -41.587361 
L 438.695997 -41.569861 
L 439.723634 -41.553214 
L 440.751271 -41.537381 
L 441.778907 -41.522323 
L 442.806544 -41.508004 
L 443.83418 -41.49439 
L 444.861817 -41.481447 
L 445.889454 -41.469144 
L 446.91709 -41.457449 
L 447.944727 -41.446336 
L 448.972363 -41.435775 
L 450 -41.42574 
L 450 -41.24 
L 450 -41.24 
L 448.972363 -41.24 
L 447.944727 -41.24 
L 446.91709 -41.24 
L 445.889454 -41.24 
L 444.861817 -41.24 
L 443.83418 -41.24 
L 442.806544 -41.24 
L 441.778907 -41.24 
L 440.751271 -41.24 
L 439.723634 -41.24 
L 438.695997 -41.24 
L 437.668361 -41.24 
L 436.640724 -41.24 
L 435.613088 -41.24 
L 434.585451 -41.24 
L 433.557814 -41.24 
L 432.530178 -41.24 
L 431.502541 -41.24 
L 430.474905 -41.24 
L 429.447268 -41.24 
L 428.419631 -41.24 
L 427.391995 -41.24 
L 426.364358 -41.24 
L 425.336722 -41.24 
L 424.309085 -41.24 
L 423.281448 -41.24 
L 422.253812 -41.24 
L 421.226175 -41.24 
L 420.198539 -41.24 
L 419.170902 -41.24 
L 418.143265 -41.24 
L 417.115629 -41.24 
L 416.087992 -41.24 
L 415.060356 -41.24 
L 414.032719 -41.24 
L 413.005082 -41.24 
L 411.977446 -41.24 
L 410.949809 -41.24 
L 409.922173 -41.24 
L 408.894536 -41.24 
L 407.866899 -41.24 
L 406.839263 -41.24 
L 405.811626 -41.24 
L 404.78399 -41.24 
L 403.756353 -41.24 
L 402.728716 -41.24 
L 401.70108 -41.24 
L 400.673443 -41.24 
L 399.645807 -41.24 
L 398.61817 -41.24 
L 397.590533 -41.24 
L 396.562897 -41.24 
L 395.53526 -41.24 
L 394.507624 -41.24 
L 393.479987 -41.24 
L 392.45235 -41.24 
L 391.424714 -41.24 
L 390.397077 -41.24 
L 389.369441 -41.24 
L 388.341804 -41.24 
L 387.314167 -41.24 
L 386.286531 -41.24 
L 385.258894 -41.24 
L 384.231258 -41.24 
L 383.203621 -41.24 
L 382.175984 -41.24 
L 381.148348 -41.24 
L 380.120711 -41.24 
L 379.093075 -41.24 
L 378.065438 -41.24 
L 377.037801 -41.24 
L 376.010165 -41.24 
L 374.982528 -41.24 
L 373.954892 -41.24 
L 372.927255 -41.24 
L 371.899618 -41.24 
L 370.871982 -41.24 
L 369.844345 -41.24 
L 368.816709 -41.24 
L 367.789072 -41.24 
L 366.761436 -41.24 
L 365.733799 -41.24 
L 364.706162 -41.24 
L 363.678526 -41.24 
L 362.650889 -41.24 
L 361.623253 -41.24 
L 360.595616 -41.24 
L 359.567979 -41.24 
L 358.540343 -41.24 
L 357.512706 -41.24 
L 356.48507 -41.24 
L 355.457433 -41.24 
L 354.429796 -41.24 
L 353.40216 -41.24 
L 352.374523 -41.24 
L 351.346887 -41.24 
L 350.31925 -41.24 
L 349.291613 -41.24 
L 348.263977 -41.24 
z
" id="m95e8d5f95f" style="stroke:#d62728;stroke-opacity:0.7;"/>
    </defs>
    <g clip-path="url(#p9ea2c7f695)">
     <use style="fill:#d62728;fill-opacity:0.7;stroke:#d62728;stroke-opacity:0.7;" x="0" xlink:href="#m95e8d5f95f" y="230.4"/>
    </g>
   </g>
   <g id="matplotlib.axis_1">
    <g id="xtick_1">
     <g id="line2d_1">
      <defs>
       <path d="M 0 0 
L 0 3.5 
" id="m92066ae860" style="stroke:#000000;stroke-width:0.8;"/>
      </defs>
      <g>
       <use style="stroke:#000000;stroke-width:0.8;" x="135.376023" xlink:href="#m92066ae860" y="189.16"/>
      </g>
     </g>
     <g id="text_1">
      <!-- -2.045 -->
      <g transform="translate(119.258055 203.758438)scale(0.1 -0.1)">
       <defs>
        <path d="M 313 2009 
L 1997 2009 
L 1997 1497 
L 313 1497 
L 313 2009 
z
" id="DejaVuSans-2d" transform="scale(0.015625)"/>
        <path d="M 1228 531 
L 3431 531 
L 3431 0 
L 469 0 
L 469 531 
Q 828 903 1448 1529 
Q 2069 2156 2228 2338 
Q 2531 2678 2651 2914 
Q 2772 3150 2772 3378 
Q 2772 3750 2511 3984 
Q 2250 4219 1831 4219 
Q 1534 4219 1204 4116 
Q 875 4013 500 3803 
L 500 4441 
Q 881 4594 1212 4672 
Q 1544 4750 1819 4750 
Q 2544 4750 2975 4387 
Q 3406 4025 3406 3419 
Q 3406 3131 3298 2873 
Q 3191 2616 2906 2266 
Q 2828 2175 2409 1742 
Q 1991 1309 1228 531 
z
" id="DejaVuSans-32" transform="scale(0.015625)"/>
        <path d="M 684 794 
L 1344 794 
L 1344 0 
L 684 0 
L 684 794 
z
" id="DejaVuSans-2e" transform="scale(0.015625)"/>
        <path d="M 2034 4250 
Q 1547 4250 1301 3770 
Q 1056 3291 1056 2328 
Q 1056 1369 1301 889 
Q 1547 409 2034 409 
Q 2525 409 2770 889 
Q 3016 1369 3016 2328 
Q 3016 3291 2770 3770 
Q 2525 4250 2034 4250 
z
M 2034 4750 
Q 2819 4750 3233 4129 
Q 3647 3509 3647 2328 
Q 3647 1150 3233 529 
Q 2819 -91 2034 -91 
Q 1250 -91 836 529 
Q 422 1150 422 2328 
Q 422 3509 836 4129 
Q 1250 4750 2034 4750 
z
" id="DejaVuSans-30" transform="scale(0.015625)"/>
        <path d="M 2419 4116 
L 825 1625 
L 2419 1625 
L 2419 4116 
z
M 2253 4666 
L 3047 4666 
L 3047 1625 
L 3713 1625 
L 3713 1100 
L 3047 1100 
L 3047 0 
L 2419 0 
L 2419 1100 
L 313 1100 
L 313 1709 
L 2253 4666 
z
" id="DejaVuSans-34" transform="scale(0.015625)"/>
        <path d="M 691 4666 
L 3169 4666 
L 3169 4134 
L 1269 4134 
L 1269 2991 
Q 1406 3038 1543 3061 
Q 1681 3084 1819 3084 
Q 2600 3084 3056 2656 
Q 3513 2228 3513 1497 
Q 3513 744 3044 326 
Q 2575 -91 1722 -91 
Q 1428 -91 1123 -41 
Q 819 9 494 109 
L 494 744 
Q 775 591 1075 516 
Q 1375 441 1709 441 
Q 2250 441 2565 725 
Q 2881 1009 2881 1497 
Q 2881 1984 2565 2268 
Q 2250 2553 1709 2553 
Q 1456 2553 1204 2497 
Q 953 2441 691 2322 
L 691 4666 
z
" id="DejaVuSans-35" transform="scale(0.015625)"/>
       </defs>
       <use xlink:href="#DejaVuSans-2d"/>
       <use x="36.083984" xlink:href="#DejaVuSans-32"/>
       <use x="99.707031" xlink:href="#DejaVuSans-2e"/>
       <use x="131.494141" xlink:href="#DejaVuSans-30"/>
       <use x="195.117188" xlink:href="#DejaVuSans-34"/>
       <use x="258.740234" xlink:href="#DejaVuSans-35"/>
      </g>
     </g>
    </g>
    <g id="xtick_2">
     <g id="line2d_2">
      <g>
       <use style="stroke:#000000;stroke-width:0.8;" x="348.263977" xlink:href="#m92066ae860" y="189.16"/>
      </g>
     </g>
     <g id="text_2">
      <!-- 2.045 -->
      <g transform="translate(333.949914 203.758438)scale(0.1 -0.1)">
       <use xlink:href="#DejaVuSans-32"/>
       <use x="63.623047" xlink:href="#DejaVuSans-2e"/>
       <use x="95.410156" xlink:href="#DejaVuSans-30"/>
       <use x="159.033203" xlink:href="#DejaVuSans-34"/>
       <use x="222.65625" xlink:href="#DejaVuSans-35"/>
      </g>
     </g>
    </g>
    <g id="xtick_3">
     <g id="line2d_3">
      <g>
       <use style="stroke:#000000;stroke-width:0.8;" x="241.82" xlink:href="#m92066ae860" y="189.16"/>
      </g>
     </g>
     <g id="text_3">
      <!-- 0 -->
      <g transform="translate(238.63875 203.758438)scale(0.1 -0.1)">
       <use xlink:href="#DejaVuSans-30"/>
      </g>
     </g>
    </g>
    <g id="text_4">
     <!-- t-value -->
     <g transform="translate(226.258437 216.676719)scale(0.09 -0.09)">
      <defs>
       <path d="M 1172 4494 
L 1172 3500 
L 2356 3500 
L 2356 3053 
L 1172 3053 
L 1172 1153 
Q 1172 725 1289 603 
Q 1406 481 1766 481 
L 2356 481 
L 2356 0 
L 1766 0 
Q 1100 0 847 248 
Q 594 497 594 1153 
L 594 3053 
L 172 3053 
L 172 3500 
L 594 3500 
L 594 4494 
L 1172 4494 
z
" id="DejaVuSans-74" transform="scale(0.015625)"/>
       <path d="M 191 3500 
L 800 3500 
L 1894 563 
L 2988 3500 
L 3597 3500 
L 2284 0 
L 1503 0 
L 191 3500 
z
" id="DejaVuSans-76" transform="scale(0.015625)"/>
       <path d="M 2194 1759 
Q 1497 1759 1228 1600 
Q 959 1441 959 1056 
Q 959 750 1161 570 
Q 1363 391 1709 391 
Q 2188 391 2477 730 
Q 2766 1069 2766 1631 
L 2766 1759 
L 2194 1759 
z
M 3341 1997 
L 3341 0 
L 2766 0 
L 2766 531 
Q 2569 213 2275 61 
Q 1981 -91 1556 -91 
Q 1019 -91 701 211 
Q 384 513 384 1019 
Q 384 1609 779 1909 
Q 1175 2209 1959 2209 
L 2766 2209 
L 2766 2266 
Q 2766 2663 2505 2880 
Q 2244 3097 1772 3097 
Q 1472 3097 1187 3025 
Q 903 2953 641 2809 
L 641 3341 
Q 956 3463 1253 3523 
Q 1550 3584 1831 3584 
Q 2591 3584 2966 3190 
Q 3341 2797 3341 1997 
z
" id="DejaVuSans-61" transform="scale(0.015625)"/>
       <path d="M 603 4863 
L 1178 4863 
L 1178 0 
L 603 0 
L 603 4863 
z
" id="DejaVuSans-6c" transform="scale(0.015625)"/>
       <path d="M 544 1381 
L 544 3500 
L 1119 3500 
L 1119 1403 
Q 1119 906 1312 657 
Q 1506 409 1894 409 
Q 2359 409 2629 706 
Q 2900 1003 2900 1516 
L 2900 3500 
L 3475 3500 
L 3475 0 
L 2900 0 
L 2900 538 
Q 2691 219 2414 64 
Q 2138 -91 1772 -91 
Q 1169 -91 856 284 
Q 544 659 544 1381 
z
M 1991 3584 
L 1991 3584 
z
" id="DejaVuSans-75" transform="scale(0.015625)"/>
       <path d="M 3597 1894 
L 3597 1613 
L 953 1613 
Q 991 1019 1311 708 
Q 1631 397 2203 397 
Q 2534 397 2845 478 
Q 3156 559 3463 722 
L 3463 178 
Q 3153 47 2828 -22 
Q 2503 -91 2169 -91 
Q 1331 -91 842 396 
Q 353 884 353 1716 
Q 353 2575 817 3079 
Q 1281 3584 2069 3584 
Q 2775 3584 3186 3129 
Q 3597 2675 3597 1894 
z
M 3022 2063 
Q 3016 2534 2758 2815 
Q 2500 3097 2075 3097 
Q 1594 3097 1305 2825 
Q 1016 2553 972 2059 
L 3022 2063 
z
" id="DejaVuSans-65" transform="scale(0.015625)"/>
      </defs>
      <use xlink:href="#DejaVuSans-74"/>
      <use x="39.208984" xlink:href="#DejaVuSans-2d"/>
      <use x="72.667969" xlink:href="#DejaVuSans-76"/>
      <use x="131.847656" xlink:href="#DejaVuSans-61"/>
      <use x="193.126953" xlink:href="#DejaVuSans-6c"/>
      <use x="220.910156" xlink:href="#DejaVuSans-75"/>
      <use x="284.289062" xlink:href="#DejaVuSans-65"/>
     </g>
    </g>
   </g>
   <g id="matplotlib.axis_2">
    <g id="ytick_1">
     <g id="line2d_4">
      <defs>
       <path d="M 0 0 
L -3.5 0 
" id="mc45d7e65f4" style="stroke:#000000;stroke-width:0.8;"/>
      </defs>
      <g>
       <use style="stroke:#000000;stroke-width:0.8;" x="33.64" xlink:href="#mc45d7e65f4" y="189.16"/>
      </g>
     </g>
     <g id="text_5">
      <!-- 0.0 -->
      <g transform="translate(10.736875 192.959219)scale(0.1 -0.1)">
       <use xlink:href="#DejaVuSans-30"/>
       <use x="63.623047" xlink:href="#DejaVuSans-2e"/>
       <use x="95.410156" xlink:href="#DejaVuSans-30"/>
      </g>
     </g>
    </g>
    <g id="ytick_2">
     <g id="line2d_5">
      <g>
       <use style="stroke:#000000;stroke-width:0.8;" x="33.64" xlink:href="#mc45d7e65f4" y="154.965436"/>
      </g>
     </g>
     <g id="text_6">
      <!-- 0.1 -->
      <g transform="translate(10.736875 158.764655)scale(0.1 -0.1)">
       <defs>
        <path d="M 794 531 
L 1825 531 
L 1825 4091 
L 703 3866 
L 703 4441 
L 1819 4666 
L 2450 4666 
L 2450 531 
L 3481 531 
L 3481 0 
L 794 0 
L 794 531 
z
" id="DejaVuSans-31" transform="scale(0.015625)"/>
       </defs>
       <use xlink:href="#DejaVuSans-30"/>
       <use x="63.623047" xlink:href="#DejaVuSans-2e"/>
       <use x="95.410156" xlink:href="#DejaVuSans-31"/>
      </g>
     </g>
    </g>
    <g id="ytick_3">
     <g id="line2d_6">
      <g>
       <use style="stroke:#000000;stroke-width:0.8;" x="33.64" xlink:href="#mc45d7e65f4" y="120.770873"/>
      </g>
     </g>
     <g id="text_7">
      <!-- 0.2 -->
      <g transform="translate(10.736875 124.570091)scale(0.1 -0.1)">
       <use xlink:href="#DejaVuSans-30"/>
       <use x="63.623047" xlink:href="#DejaVuSans-2e"/>
       <use x="95.410156" xlink:href="#DejaVuSans-32"/>
      </g>
     </g>
    </g>
    <g id="ytick_4">
     <g id="line2d_7">
      <g>
       <use style="stroke:#000000;stroke-width:0.8;" x="33.64" xlink:href="#mc45d7e65f4" y="86.576309"/>
      </g>
     </g>
     <g id="text_8">
      <!-- 0.3 -->
      <g transform="translate(10.736875 90.375528)scale(0.1 -0.1)">
       <defs>
        <path d="M 2597 2516 
Q 3050 2419 3304 2112 
Q 3559 1806 3559 1356 
Q 3559 666 3084 287 
Q 2609 -91 1734 -91 
Q 1441 -91 1130 -33 
Q 819 25 488 141 
L 488 750 
Q 750 597 1062 519 
Q 1375 441 1716 441 
Q 2309 441 2620 675 
Q 2931 909 2931 1356 
Q 2931 1769 2642 2001 
Q 2353 2234 1838 2234 
L 1294 2234 
L 1294 2753 
L 1863 2753 
Q 2328 2753 2575 2939 
Q 2822 3125 2822 3475 
Q 2822 3834 2567 4026 
Q 2313 4219 1838 4219 
Q 1578 4219 1281 4162 
Q 984 4106 628 3988 
L 628 4550 
Q 988 4650 1302 4700 
Q 1616 4750 1894 4750 
Q 2613 4750 3031 4423 
Q 3450 4097 3450 3541 
Q 3450 3153 3228 2886 
Q 3006 2619 2597 2516 
z
" id="DejaVuSans-33" transform="scale(0.015625)"/>
       </defs>
       <use xlink:href="#DejaVuSans-30"/>
       <use x="63.623047" xlink:href="#DejaVuSans-2e"/>
       <use x="95.410156" xlink:href="#DejaVuSans-33"/>
      </g>
     </g>
    </g>
    <g id="ytick_5">
     <g id="line2d_8">
      <g>
       <use style="stroke:#000000;stroke-width:0.8;" x="33.64" xlink:href="#mc45d7e65f4" y="52.381745"/>
      </g>
     </g>
     <g id="text_9">
      <!-- 0.4 -->
      <g transform="translate(10.736875 56.180964)scale(0.1 -0.1)">
       <use xlink:href="#DejaVuSans-30"/>
       <use x="63.623047" xlink:href="#DejaVuSans-2e"/>
       <use x="95.410156" xlink:href="#DejaVuSans-34"/>
      </g>
     </g>
    </g>
   </g>
   <g id="LineCollection_1">
    <path clip-path="url(#p9ea2c7f695)" d="M 135.376023 189.16 
L 135.376023 171.238835 
" style="fill:none;stroke:#000000;"/>
   </g>
   <g id="LineCollection_2">
    <path clip-path="url(#p9ea2c7f695)" d="M 348.263977 189.16 
L 348.263977 171.238835 
" style="fill:none;stroke:#000000;"/>
   </g>
   <g id="line2d_9">
    <path clip-path="url(#p9ea2c7f695)" d="M 33.64 188.97426 
L 51.742609 188.696466 
L 64.275184 188.302574 
L 74.022742 187.793757 
L 82.377793 187.143407 
L 89.340334 186.392225 
L 96.302876 185.3906 
L 101.87291 184.362943 
L 107.442943 183.089809 
L 111.620468 181.946242 
L 115.797993 180.617498 
L 119.975518 179.081157 
L 124.153043 177.313891 
L 128.330569 175.291886 
L 132.508094 172.991383 
L 136.685619 170.389345 
L 140.863144 167.464258 
L 145.040669 164.197045 
L 149.218194 160.572091 
L 153.395719 156.578368 
L 157.573244 152.210595 
L 161.750769 147.470429 
L 165.928294 142.36761 
L 170.105819 136.921011 
L 174.283344 131.159517 
L 179.853378 123.057632 
L 186.81592 112.436186 
L 202.133512 88.745219 
L 206.311037 82.650804 
L 210.488562 76.901822 
L 214.666087 71.599653 
L 217.451104 68.361685 
L 220.23612 65.393452 
L 223.021137 62.720748 
L 225.806154 60.367264 
L 228.591171 58.354223 
L 231.376187 56.700039 
L 234.161204 55.420023 
L 236.946221 54.526133 
L 239.731237 54.026775 
L 242.516254 53.926667 
L 245.301271 54.226755 
L 248.086288 54.924201 
L 250.871304 56.012431 
L 253.656321 57.481241 
L 256.441338 59.316968 
L 259.226355 61.502715 
L 262.011371 64.018624 
L 264.796388 66.842195 
L 267.581405 69.948636 
L 270.366421 73.311248 
L 274.543946 78.773468 
L 278.721472 84.648941 
L 284.291505 92.949719 
L 292.646555 105.920153 
L 302.394114 120.969663 
L 307.964147 129.175563 
L 313.534181 136.921011 
L 317.711706 142.36761 
L 321.889231 147.470429 
L 326.066756 152.210595 
L 330.244281 156.578368 
L 334.421806 160.572091 
L 338.599331 164.197045 
L 342.776856 167.464258 
L 346.954381 170.389345 
L 351.131906 172.991383 
L 355.309431 175.291886 
L 359.486957 177.313891 
L 363.664482 179.081157 
L 367.842007 180.617498 
L 372.019532 181.946242 
L 377.589565 183.43355 
L 383.159599 184.641174 
L 388.729632 185.614099 
L 395.692174 186.560503 
L 402.654716 187.268811 
L 411.009766 187.880786 
L 420.757324 188.358535 
L 433.2899 188.727516 
L 450 188.97426 
L 450 188.97426 
" style="fill:none;stroke:#000000;stroke-linecap:square;"/>
   </g>
   <g id="patch_3">
    <path d="M 33.64 189.16 
L 33.64 26.88 
" style="fill:none;stroke:#000000;stroke-linecap:square;stroke-linejoin:miter;stroke-width:0.8;"/>
   </g>
   <g id="patch_4">
    <path d="M 450 189.16 
L 450 26.88 
" style="fill:none;stroke:#000000;stroke-linecap:square;stroke-linejoin:miter;stroke-width:0.8;"/>
   </g>
   <g id="patch_5">
    <path d="M 33.64 189.16 
L 450 189.16 
" style="fill:none;stroke:#000000;stroke-linecap:square;stroke-linejoin:miter;stroke-width:0.8;"/>
   </g>
   <g id="patch_6">
    <path d="M 33.64 26.88 
L 450 26.88 
" style="fill:none;stroke:#000000;stroke-linecap:square;stroke-linejoin:miter;stroke-width:0.8;"/>
   </g>
   <g id="patch_7">
    <path d="M 83.17026 173.338121 
Q 91.462968 178.373503 99.086717 183.002691 
" style="fill:none;stroke:#000000;stroke-linecap:round;stroke-width:0.7;"/>
    <path d="M 96.705698 179.217093 
L 99.086717 183.002691 
L 94.629628 182.636147 
" style="fill:none;stroke:#000000;stroke-linecap:round;stroke-width:0.7;"/>
   </g>
   <g id="text_10">
    <!-- 0.025 -->
    <g style="fill:#d62728;" transform="translate(55.879887 168.218201)scale(0.1 -0.1)">
     <use xlink:href="#DejaVuSans-30"/>
     <use x="63.623047" xlink:href="#DejaVuSans-2e"/>
     <use x="95.410156" xlink:href="#DejaVuSans-30"/>
     <use x="159.033203" xlink:href="#DejaVuSans-32"/>
     <use x="222.65625" xlink:href="#DejaVuSans-35"/>
    </g>
   </g>
   <g id="patch_8">
    <path d="M 400.46974 173.338121 
Q 392.177032 178.373503 384.553283 183.002691 
" style="fill:none;stroke:#000000;stroke-linecap:round;stroke-width:0.7;"/>
    <path d="M 389.010372 182.636147 
L 384.553283 183.002691 
L 386.934302 179.217093 
" style="fill:none;stroke:#000000;stroke-linecap:round;stroke-width:0.7;"/>
   </g>
   <g id="text_11">
    <!-- 0.025 -->
    <g style="fill:#d62728;" transform="translate(399.131988 168.218201)scale(0.1 -0.1)">
     <use xlink:href="#DejaVuSans-30"/>
     <use x="63.623047" xlink:href="#DejaVuSans-2e"/>
     <use x="95.410156" xlink:href="#DejaVuSans-30"/>
     <use x="159.033203" xlink:href="#DejaVuSans-32"/>
     <use x="222.65625" xlink:href="#DejaVuSans-35"/>
    </g>
   </g>
   <g id="patch_9">
    <path d="M 286.318475 77.803748 
Q 286.318475 132.481068 286.318475 186.375764 
" style="fill:none;stroke:#000000;stroke-linecap:round;stroke-width:0.7;"/>
    <path d="M 288.318475 182.375764 
L 286.318475 186.375764 
L 284.318475 182.375764 
" style="fill:none;stroke:#000000;stroke-linecap:round;stroke-width:0.7;"/>
   </g>
   <g id="text_12">
    <!-- 0.855 -->
    <g style="fill:#1f77b4;" transform="translate(272.004413 71.718855)scale(0.1 -0.1)">
     <defs>
      <path d="M 2034 2216 
Q 1584 2216 1326 1975 
Q 1069 1734 1069 1313 
Q 1069 891 1326 650 
Q 1584 409 2034 409 
Q 2484 409 2743 651 
Q 3003 894 3003 1313 
Q 3003 1734 2745 1975 
Q 2488 2216 2034 2216 
z
M 1403 2484 
Q 997 2584 770 2862 
Q 544 3141 544 3541 
Q 544 4100 942 4425 
Q 1341 4750 2034 4750 
Q 2731 4750 3128 4425 
Q 3525 4100 3525 3541 
Q 3525 3141 3298 2862 
Q 3072 2584 2669 2484 
Q 3125 2378 3379 2068 
Q 3634 1759 3634 1313 
Q 3634 634 3220 271 
Q 2806 -91 2034 -91 
Q 1263 -91 848 271 
Q 434 634 434 1313 
Q 434 1759 690 2068 
Q 947 2378 1403 2484 
z
M 1172 3481 
Q 1172 3119 1398 2916 
Q 1625 2713 2034 2713 
Q 2441 2713 2670 2916 
Q 2900 3119 2900 3481 
Q 2900 3844 2670 4047 
Q 2441 4250 2034 4250 
Q 1625 4250 1398 4047 
Q 1172 3844 1172 3481 
z
" id="DejaVuSans-38" transform="scale(0.015625)"/>
     </defs>
     <use xlink:href="#DejaVuSans-30"/>
     <use x="63.623047" xlink:href="#DejaVuSans-2e"/>
     <use x="95.410156" xlink:href="#DejaVuSans-38"/>
     <use x="159.033203" xlink:href="#DejaVuSans-35"/>
     <use x="222.65625" xlink:href="#DejaVuSans-35"/>
    </g>
   </g>
   <g id="text_13">
    <!-- Rejection Region ($\alpha$) = 2*0.025 = 0.05 -->
    <g style="fill:#d62728;" transform="translate(39.8854 38.2396)scale(0.09 -0.09)">
     <defs>
      <path d="M 2841 2188 
Q 3044 2119 3236 1894 
Q 3428 1669 3622 1275 
L 4263 0 
L 3584 0 
L 2988 1197 
Q 2756 1666 2539 1819 
Q 2322 1972 1947 1972 
L 1259 1972 
L 1259 0 
L 628 0 
L 628 4666 
L 2053 4666 
Q 2853 4666 3247 4331 
Q 3641 3997 3641 3322 
Q 3641 2881 3436 2590 
Q 3231 2300 2841 2188 
z
M 1259 4147 
L 1259 2491 
L 2053 2491 
Q 2509 2491 2742 2702 
Q 2975 2913 2975 3322 
Q 2975 3731 2742 3939 
Q 2509 4147 2053 4147 
L 1259 4147 
z
" id="DejaVuSans-52" transform="scale(0.015625)"/>
      <path d="M 603 3500 
L 1178 3500 
L 1178 -63 
Q 1178 -731 923 -1031 
Q 669 -1331 103 -1331 
L -116 -1331 
L -116 -844 
L 38 -844 
Q 366 -844 484 -692 
Q 603 -541 603 -63 
L 603 3500 
z
M 603 4863 
L 1178 4863 
L 1178 4134 
L 603 4134 
L 603 4863 
z
" id="DejaVuSans-6a" transform="scale(0.015625)"/>
      <path d="M 3122 3366 
L 3122 2828 
Q 2878 2963 2633 3030 
Q 2388 3097 2138 3097 
Q 1578 3097 1268 2742 
Q 959 2388 959 1747 
Q 959 1106 1268 751 
Q 1578 397 2138 397 
Q 2388 397 2633 464 
Q 2878 531 3122 666 
L 3122 134 
Q 2881 22 2623 -34 
Q 2366 -91 2075 -91 
Q 1284 -91 818 406 
Q 353 903 353 1747 
Q 353 2603 823 3093 
Q 1294 3584 2113 3584 
Q 2378 3584 2631 3529 
Q 2884 3475 3122 3366 
z
" id="DejaVuSans-63" transform="scale(0.015625)"/>
      <path d="M 603 3500 
L 1178 3500 
L 1178 0 
L 603 0 
L 603 3500 
z
M 603 4863 
L 1178 4863 
L 1178 4134 
L 603 4134 
L 603 4863 
z
" id="DejaVuSans-69" transform="scale(0.015625)"/>
      <path d="M 1959 3097 
Q 1497 3097 1228 2736 
Q 959 2375 959 1747 
Q 959 1119 1226 758 
Q 1494 397 1959 397 
Q 2419 397 2687 759 
Q 2956 1122 2956 1747 
Q 2956 2369 2687 2733 
Q 2419 3097 1959 3097 
z
M 1959 3584 
Q 2709 3584 3137 3096 
Q 3566 2609 3566 1747 
Q 3566 888 3137 398 
Q 2709 -91 1959 -91 
Q 1206 -91 779 398 
Q 353 888 353 1747 
Q 353 2609 779 3096 
Q 1206 3584 1959 3584 
z
" id="DejaVuSans-6f" transform="scale(0.015625)"/>
      <path d="M 3513 2113 
L 3513 0 
L 2938 0 
L 2938 2094 
Q 2938 2591 2744 2837 
Q 2550 3084 2163 3084 
Q 1697 3084 1428 2787 
Q 1159 2491 1159 1978 
L 1159 0 
L 581 0 
L 581 3500 
L 1159 3500 
L 1159 2956 
Q 1366 3272 1645 3428 
Q 1925 3584 2291 3584 
Q 2894 3584 3203 3211 
Q 3513 2838 3513 2113 
z
" id="DejaVuSans-6e" transform="scale(0.015625)"/>
      <path id="DejaVuSans-20" transform="scale(0.015625)"/>
      <path d="M 2906 1791 
Q 2906 2416 2648 2759 
Q 2391 3103 1925 3103 
Q 1463 3103 1205 2759 
Q 947 2416 947 1791 
Q 947 1169 1205 825 
Q 1463 481 1925 481 
Q 2391 481 2648 825 
Q 2906 1169 2906 1791 
z
M 3481 434 
Q 3481 -459 3084 -895 
Q 2688 -1331 1869 -1331 
Q 1566 -1331 1297 -1286 
Q 1028 -1241 775 -1147 
L 775 -588 
Q 1028 -725 1275 -790 
Q 1522 -856 1778 -856 
Q 2344 -856 2625 -561 
Q 2906 -266 2906 331 
L 2906 616 
Q 2728 306 2450 153 
Q 2172 0 1784 0 
Q 1141 0 747 490 
Q 353 981 353 1791 
Q 353 2603 747 3093 
Q 1141 3584 1784 3584 
Q 2172 3584 2450 3431 
Q 2728 3278 2906 2969 
L 2906 3500 
L 3481 3500 
L 3481 434 
z
" id="DejaVuSans-67" transform="scale(0.015625)"/>
      <path d="M 1984 4856 
Q 1566 4138 1362 3434 
Q 1159 2731 1159 2009 
Q 1159 1288 1364 580 
Q 1569 -128 1984 -844 
L 1484 -844 
Q 1016 -109 783 600 
Q 550 1309 550 2009 
Q 550 2706 781 3412 
Q 1013 4119 1484 4856 
L 1984 4856 
z
" id="DejaVuSans-28" transform="scale(0.015625)"/>
      <path d="M 2619 1628 
L 2622 2350 
Q 2625 3088 2069 3091 
Q 1653 3094 1394 2747 
Q 1069 2319 959 1747 
Q 825 1059 994 731 
Q 1169 397 1547 397 
Q 1966 397 2319 1063 
L 2619 1628 
z
M 2166 3578 
Q 3141 3594 3128 2584 
Q 3128 2584 3616 3500 
L 4128 3500 
L 3119 1603 
L 3109 919 
Q 3109 766 3194 638 
Q 3291 488 3391 488 
L 3669 488 
L 3575 0 
L 3228 0 
Q 2934 0 2722 263 
Q 2622 394 2619 669 
Q 2416 334 2066 50 
Q 1900 -81 1453 -78 
Q 722 -72 456 397 
Q 184 884 353 1747 
Q 534 2675 1009 3097 
Q 1544 3569 2166 3578 
z
" id="DejaVuSans-Oblique-3b1" transform="scale(0.015625)"/>
      <path d="M 513 4856 
L 1013 4856 
Q 1481 4119 1714 3412 
Q 1947 2706 1947 2009 
Q 1947 1309 1714 600 
Q 1481 -109 1013 -844 
L 513 -844 
Q 928 -128 1133 580 
Q 1338 1288 1338 2009 
Q 1338 2731 1133 3434 
Q 928 4138 513 4856 
z
" id="DejaVuSans-29" transform="scale(0.015625)"/>
      <path d="M 678 2906 
L 4684 2906 
L 4684 2381 
L 678 2381 
L 678 2906 
z
M 678 1631 
L 4684 1631 
L 4684 1100 
L 678 1100 
L 678 1631 
z
" id="DejaVuSans-3d" transform="scale(0.015625)"/>
      <path d="M 3009 3897 
L 1888 3291 
L 3009 2681 
L 2828 2375 
L 1778 3009 
L 1778 1831 
L 1422 1831 
L 1422 3009 
L 372 2375 
L 191 2681 
L 1313 3291 
L 191 3897 
L 372 4206 
L 1422 3572 
L 1422 4750 
L 1778 4750 
L 1778 3572 
L 2828 4206 
L 3009 3897 
z
" id="DejaVuSans-2a" transform="scale(0.015625)"/>
     </defs>
     <use transform="translate(0 0.015625)" xlink:href="#DejaVuSans-52"/>
     <use transform="translate(69.482422 0.015625)" xlink:href="#DejaVuSans-65"/>
     <use transform="translate(131.005859 0.015625)" xlink:href="#DejaVuSans-6a"/>
     <use transform="translate(158.789062 0.015625)" xlink:href="#DejaVuSans-65"/>
     <use transform="translate(220.3125 0.015625)" xlink:href="#DejaVuSans-63"/>
     <use transform="translate(275.292969 0.015625)" xlink:href="#DejaVuSans-74"/>
     <use transform="translate(314.501953 0.015625)" xlink:href="#DejaVuSans-69"/>
     <use transform="translate(342.285156 0.015625)" xlink:href="#DejaVuSans-6f"/>
     <use transform="translate(403.466797 0.015625)" xlink:href="#DejaVuSans-6e"/>
     <use transform="translate(466.845703 0.015625)" xlink:href="#DejaVuSans-20"/>
     <use transform="translate(498.632812 0.015625)" xlink:href="#DejaVuSans-52"/>
     <use transform="translate(568.115234 0.015625)" xlink:href="#DejaVuSans-65"/>
     <use transform="translate(629.638672 0.015625)" xlink:href="#DejaVuSans-67"/>
     <use transform="translate(693.115234 0.015625)" xlink:href="#DejaVuSans-69"/>
     <use transform="translate(720.898438 0.015625)" xlink:href="#DejaVuSans-6f"/>
     <use transform="translate(782.080078 0.015625)" xlink:href="#DejaVuSans-6e"/>
     <use transform="translate(845.458984 0.015625)" xlink:href="#DejaVuSans-20"/>
     <use transform="translate(877.246094 0.015625)" xlink:href="#DejaVuSans-28"/>
     <use transform="translate(916.259766 0.015625)" xlink:href="#DejaVuSans-Oblique-3b1"/>
     <use transform="translate(982.177734 0.015625)" xlink:href="#DejaVuSans-29"/>
     <use transform="translate(1021.191406 0.015625)" xlink:href="#DejaVuSans-20"/>
     <use transform="translate(1052.978516 0.015625)" xlink:href="#DejaVuSans-3d"/>
     <use transform="translate(1136.767578 0.015625)" xlink:href="#DejaVuSans-20"/>
     <use transform="translate(1168.554688 0.015625)" xlink:href="#DejaVuSans-32"/>
     <use transform="translate(1232.177734 0.015625)" xlink:href="#DejaVuSans-2a"/>
     <use transform="translate(1282.177734 0.015625)" xlink:href="#DejaVuSans-30"/>
     <use transform="translate(1345.800781 0.015625)" xlink:href="#DejaVuSans-2e"/>
     <use transform="translate(1377.587891 0.015625)" xlink:href="#DejaVuSans-30"/>
     <use transform="translate(1441.210938 0.015625)" xlink:href="#DejaVuSans-32"/>
     <use transform="translate(1504.833984 0.015625)" xlink:href="#DejaVuSans-35"/>
     <use transform="translate(1568.457031 0.015625)" xlink:href="#DejaVuSans-20"/>
     <use transform="translate(1600.244141 0.015625)" xlink:href="#DejaVuSans-3d"/>
     <use transform="translate(1684.033203 0.015625)" xlink:href="#DejaVuSans-20"/>
     <use transform="translate(1715.820312 0.015625)" xlink:href="#DejaVuSans-30"/>
     <use transform="translate(1779.443359 0.015625)" xlink:href="#DejaVuSans-2e"/>
     <use transform="translate(1811.230469 0.015625)" xlink:href="#DejaVuSans-30"/>
     <use transform="translate(1874.853516 0.015625)" xlink:href="#DejaVuSans-35"/>
    </g>
   </g>
   <g id="text_14">
    <!-- Critical Values (CV) = $\pm$2.045 -->
    <g transform="translate(39.8854 49.5992)scale(0.09 -0.09)">
     <defs>
      <path d="M 4122 4306 
L 4122 3641 
Q 3803 3938 3442 4084 
Q 3081 4231 2675 4231 
Q 1875 4231 1450 3742 
Q 1025 3253 1025 2328 
Q 1025 1406 1450 917 
Q 1875 428 2675 428 
Q 3081 428 3442 575 
Q 3803 722 4122 1019 
L 4122 359 
Q 3791 134 3420 21 
Q 3050 -91 2638 -91 
Q 1578 -91 968 557 
Q 359 1206 359 2328 
Q 359 3453 968 4101 
Q 1578 4750 2638 4750 
Q 3056 4750 3426 4639 
Q 3797 4528 4122 4306 
z
" id="DejaVuSans-43" transform="scale(0.015625)"/>
      <path d="M 2631 2963 
Q 2534 3019 2420 3045 
Q 2306 3072 2169 3072 
Q 1681 3072 1420 2755 
Q 1159 2438 1159 1844 
L 1159 0 
L 581 0 
L 581 3500 
L 1159 3500 
L 1159 2956 
Q 1341 3275 1631 3429 
Q 1922 3584 2338 3584 
Q 2397 3584 2469 3576 
Q 2541 3569 2628 3553 
L 2631 2963 
z
" id="DejaVuSans-72" transform="scale(0.015625)"/>
      <path d="M 1831 0 
L 50 4666 
L 709 4666 
L 2188 738 
L 3669 4666 
L 4325 4666 
L 2547 0 
L 1831 0 
z
" id="DejaVuSans-56" transform="scale(0.015625)"/>
      <path d="M 2834 3397 
L 2834 2853 
Q 2591 2978 2328 3040 
Q 2066 3103 1784 3103 
Q 1356 3103 1142 2972 
Q 928 2841 928 2578 
Q 928 2378 1081 2264 
Q 1234 2150 1697 2047 
L 1894 2003 
Q 2506 1872 2764 1633 
Q 3022 1394 3022 966 
Q 3022 478 2636 193 
Q 2250 -91 1575 -91 
Q 1294 -91 989 -36 
Q 684 19 347 128 
L 347 722 
Q 666 556 975 473 
Q 1284 391 1588 391 
Q 1994 391 2212 530 
Q 2431 669 2431 922 
Q 2431 1156 2273 1281 
Q 2116 1406 1581 1522 
L 1381 1569 
Q 847 1681 609 1914 
Q 372 2147 372 2553 
Q 372 3047 722 3315 
Q 1072 3584 1716 3584 
Q 2034 3584 2315 3537 
Q 2597 3491 2834 3397 
z
" id="DejaVuSans-73" transform="scale(0.015625)"/>
      <path d="M 2944 4013 
L 2944 2803 
L 4684 2803 
L 4684 2272 
L 2944 2272 
L 2944 1063 
L 2419 1063 
L 2419 2272 
L 678 2272 
L 678 2803 
L 2419 2803 
L 2419 4013 
L 2944 4013 
z
M 678 531 
L 4684 531 
L 4684 0 
L 678 0 
L 678 531 
z
" id="DejaVuSans-b1" transform="scale(0.015625)"/>
     </defs>
     <use transform="translate(0 0.015625)" xlink:href="#DejaVuSans-43"/>
     <use transform="translate(69.824219 0.015625)" xlink:href="#DejaVuSans-72"/>
     <use transform="translate(110.9375 0.015625)" xlink:href="#DejaVuSans-69"/>
     <use transform="translate(138.720703 0.015625)" xlink:href="#DejaVuSans-74"/>
     <use transform="translate(177.929688 0.015625)" xlink:href="#DejaVuSans-69"/>
     <use transform="translate(205.712891 0.015625)" xlink:href="#DejaVuSans-63"/>
     <use transform="translate(260.693359 0.015625)" xlink:href="#DejaVuSans-61"/>
     <use transform="translate(321.972656 0.015625)" xlink:href="#DejaVuSans-6c"/>
     <use transform="translate(349.755859 0.015625)" xlink:href="#DejaVuSans-20"/>
     <use transform="translate(381.542969 0.015625)" xlink:href="#DejaVuSans-56"/>
     <use transform="translate(449.951172 0.015625)" xlink:href="#DejaVuSans-61"/>
     <use transform="translate(511.230469 0.015625)" xlink:href="#DejaVuSans-6c"/>
     <use transform="translate(539.013672 0.015625)" xlink:href="#DejaVuSans-75"/>
     <use transform="translate(602.392578 0.015625)" xlink:href="#DejaVuSans-65"/>
     <use transform="translate(663.916016 0.015625)" xlink:href="#DejaVuSans-73"/>
     <use transform="translate(716.015625 0.015625)" xlink:href="#DejaVuSans-20"/>
     <use transform="translate(747.802734 0.015625)" xlink:href="#DejaVuSans-28"/>
     <use transform="translate(786.816406 0.015625)" xlink:href="#DejaVuSans-43"/>
     <use transform="translate(856.640625 0.015625)" xlink:href="#DejaVuSans-56"/>
     <use transform="translate(925.048828 0.015625)" xlink:href="#DejaVuSans-29"/>
     <use transform="translate(964.0625 0.015625)" xlink:href="#DejaVuSans-20"/>
     <use transform="translate(995.849609 0.015625)" xlink:href="#DejaVuSans-3d"/>
     <use transform="translate(1079.638672 0.015625)" xlink:href="#DejaVuSans-20"/>
     <use transform="translate(1111.425781 0.015625)" xlink:href="#DejaVuSans-b1"/>
     <use transform="translate(1195.214844 0.015625)" xlink:href="#DejaVuSans-32"/>
     <use transform="translate(1258.837891 0.015625)" xlink:href="#DejaVuSans-2e"/>
     <use transform="translate(1290.625 0.015625)" xlink:href="#DejaVuSans-30"/>
     <use transform="translate(1354.248047 0.015625)" xlink:href="#DejaVuSans-34"/>
     <use transform="translate(1417.871094 0.015625)" xlink:href="#DejaVuSans-35"/>
    </g>
   </g>
   <g id="text_15">
    <!-- Test Statistic (TS) = 0.855 -->
    <g style="fill:#1f77b4;" transform="translate(39.8854 61.7702)scale(0.09 -0.09)">
     <defs>
      <path d="M -19 4666 
L 3928 4666 
L 3928 4134 
L 2272 4134 
L 2272 0 
L 1638 0 
L 1638 4134 
L -19 4134 
L -19 4666 
z
" id="DejaVuSans-54" transform="scale(0.015625)"/>
      <path d="M 3425 4513 
L 3425 3897 
Q 3066 4069 2747 4153 
Q 2428 4238 2131 4238 
Q 1616 4238 1336 4038 
Q 1056 3838 1056 3469 
Q 1056 3159 1242 3001 
Q 1428 2844 1947 2747 
L 2328 2669 
Q 3034 2534 3370 2195 
Q 3706 1856 3706 1288 
Q 3706 609 3251 259 
Q 2797 -91 1919 -91 
Q 1588 -91 1214 -16 
Q 841 59 441 206 
L 441 856 
Q 825 641 1194 531 
Q 1563 422 1919 422 
Q 2459 422 2753 634 
Q 3047 847 3047 1241 
Q 3047 1584 2836 1778 
Q 2625 1972 2144 2069 
L 1759 2144 
Q 1053 2284 737 2584 
Q 422 2884 422 3419 
Q 422 4038 858 4394 
Q 1294 4750 2059 4750 
Q 2388 4750 2728 4690 
Q 3069 4631 3425 4513 
z
" id="DejaVuSans-53" transform="scale(0.015625)"/>
     </defs>
     <use xlink:href="#DejaVuSans-54"/>
     <use x="44.083984" xlink:href="#DejaVuSans-65"/>
     <use x="105.607422" xlink:href="#DejaVuSans-73"/>
     <use x="157.707031" xlink:href="#DejaVuSans-74"/>
     <use x="196.916016" xlink:href="#DejaVuSans-20"/>
     <use x="228.703125" xlink:href="#DejaVuSans-53"/>
     <use x="292.179688" xlink:href="#DejaVuSans-74"/>
     <use x="331.388672" xlink:href="#DejaVuSans-61"/>
     <use x="392.667969" xlink:href="#DejaVuSans-74"/>
     <use x="431.876953" xlink:href="#DejaVuSans-69"/>
     <use x="459.660156" xlink:href="#DejaVuSans-73"/>
     <use x="511.759766" xlink:href="#DejaVuSans-74"/>
     <use x="550.96875" xlink:href="#DejaVuSans-69"/>
     <use x="578.751953" xlink:href="#DejaVuSans-63"/>
     <use x="633.732422" xlink:href="#DejaVuSans-20"/>
     <use x="665.519531" xlink:href="#DejaVuSans-28"/>
     <use x="704.533203" xlink:href="#DejaVuSans-54"/>
     <use x="765.617188" xlink:href="#DejaVuSans-53"/>
     <use x="829.09375" xlink:href="#DejaVuSans-29"/>
     <use x="868.107422" xlink:href="#DejaVuSans-20"/>
     <use x="899.894531" xlink:href="#DejaVuSans-3d"/>
     <use x="983.683594" xlink:href="#DejaVuSans-20"/>
     <use x="1015.470703" xlink:href="#DejaVuSans-30"/>
     <use x="1079.09375" xlink:href="#DejaVuSans-2e"/>
     <use x="1110.880859" xlink:href="#DejaVuSans-38"/>
     <use x="1174.503906" xlink:href="#DejaVuSans-35"/>
     <use x="1238.126953" xlink:href="#DejaVuSans-35"/>
    </g>
   </g>
   <g id="text_16">
    <!-- Student's T-Distribution, df=29 -->
    <g transform="translate(148.836875 20.88)scale(0.12 -0.12)">
     <defs>
      <path d="M 2906 2969 
L 2906 4863 
L 3481 4863 
L 3481 0 
L 2906 0 
L 2906 525 
Q 2725 213 2448 61 
Q 2172 -91 1784 -91 
Q 1150 -91 751 415 
Q 353 922 353 1747 
Q 353 2572 751 3078 
Q 1150 3584 1784 3584 
Q 2172 3584 2448 3432 
Q 2725 3281 2906 2969 
z
M 947 1747 
Q 947 1113 1208 752 
Q 1469 391 1925 391 
Q 2381 391 2643 752 
Q 2906 1113 2906 1747 
Q 2906 2381 2643 2742 
Q 2381 3103 1925 3103 
Q 1469 3103 1208 2742 
Q 947 2381 947 1747 
z
" id="DejaVuSans-64" transform="scale(0.015625)"/>
      <path d="M 1147 4666 
L 1147 2931 
L 616 2931 
L 616 4666 
L 1147 4666 
z
" id="DejaVuSans-27" transform="scale(0.015625)"/>
      <path d="M 1259 4147 
L 1259 519 
L 2022 519 
Q 2988 519 3436 956 
Q 3884 1394 3884 2338 
Q 3884 3275 3436 3711 
Q 2988 4147 2022 4147 
L 1259 4147 
z
M 628 4666 
L 1925 4666 
Q 3281 4666 3915 4102 
Q 4550 3538 4550 2338 
Q 4550 1131 3912 565 
Q 3275 0 1925 0 
L 628 0 
L 628 4666 
z
" id="DejaVuSans-44" transform="scale(0.015625)"/>
      <path d="M 3116 1747 
Q 3116 2381 2855 2742 
Q 2594 3103 2138 3103 
Q 1681 3103 1420 2742 
Q 1159 2381 1159 1747 
Q 1159 1113 1420 752 
Q 1681 391 2138 391 
Q 2594 391 2855 752 
Q 3116 1113 3116 1747 
z
M 1159 2969 
Q 1341 3281 1617 3432 
Q 1894 3584 2278 3584 
Q 2916 3584 3314 3078 
Q 3713 2572 3713 1747 
Q 3713 922 3314 415 
Q 2916 -91 2278 -91 
Q 1894 -91 1617 61 
Q 1341 213 1159 525 
L 1159 0 
L 581 0 
L 581 4863 
L 1159 4863 
L 1159 2969 
z
" id="DejaVuSans-62" transform="scale(0.015625)"/>
      <path d="M 750 794 
L 1409 794 
L 1409 256 
L 897 -744 
L 494 -744 
L 750 256 
L 750 794 
z
" id="DejaVuSans-2c" transform="scale(0.015625)"/>
      <path d="M 2375 4863 
L 2375 4384 
L 1825 4384 
Q 1516 4384 1395 4259 
Q 1275 4134 1275 3809 
L 1275 3500 
L 2222 3500 
L 2222 3053 
L 1275 3053 
L 1275 0 
L 697 0 
L 697 3053 
L 147 3053 
L 147 3500 
L 697 3500 
L 697 3744 
Q 697 4328 969 4595 
Q 1241 4863 1831 4863 
L 2375 4863 
z
" id="DejaVuSans-66" transform="scale(0.015625)"/>
      <path d="M 703 97 
L 703 672 
Q 941 559 1184 500 
Q 1428 441 1663 441 
Q 2288 441 2617 861 
Q 2947 1281 2994 2138 
Q 2813 1869 2534 1725 
Q 2256 1581 1919 1581 
Q 1219 1581 811 2004 
Q 403 2428 403 3163 
Q 403 3881 828 4315 
Q 1253 4750 1959 4750 
Q 2769 4750 3195 4129 
Q 3622 3509 3622 2328 
Q 3622 1225 3098 567 
Q 2575 -91 1691 -91 
Q 1453 -91 1209 -44 
Q 966 3 703 97 
z
M 1959 2075 
Q 2384 2075 2632 2365 
Q 2881 2656 2881 3163 
Q 2881 3666 2632 3958 
Q 2384 4250 1959 4250 
Q 1534 4250 1286 3958 
Q 1038 3666 1038 3163 
Q 1038 2656 1286 2365 
Q 1534 2075 1959 2075 
z
" id="DejaVuSans-39" transform="scale(0.015625)"/>
     </defs>
     <use xlink:href="#DejaVuSans-53"/>
     <use x="63.476562" xlink:href="#DejaVuSans-74"/>
     <use x="102.685547" xlink:href="#DejaVuSans-75"/>
     <use x="166.064453" xlink:href="#DejaVuSans-64"/>
     <use x="229.541016" xlink:href="#DejaVuSans-65"/>
     <use x="291.064453" xlink:href="#DejaVuSans-6e"/>
     <use x="354.443359" xlink:href="#DejaVuSans-74"/>
     <use x="393.652344" xlink:href="#DejaVuSans-27"/>
     <use x="421.142578" xlink:href="#DejaVuSans-73"/>
     <use x="473.242188" xlink:href="#DejaVuSans-20"/>
     <use x="505.029297" xlink:href="#DejaVuSans-54"/>
     <use x="556.988281" xlink:href="#DejaVuSans-2d"/>
     <use x="593.072266" xlink:href="#DejaVuSans-44"/>
     <use x="670.074219" xlink:href="#DejaVuSans-69"/>
     <use x="697.857422" xlink:href="#DejaVuSans-73"/>
     <use x="749.957031" xlink:href="#DejaVuSans-74"/>
     <use x="789.166016" xlink:href="#DejaVuSans-72"/>
     <use x="830.279297" xlink:href="#DejaVuSans-69"/>
     <use x="858.0625" xlink:href="#DejaVuSans-62"/>
     <use x="921.539062" xlink:href="#DejaVuSans-75"/>
     <use x="984.917969" xlink:href="#DejaVuSans-74"/>
     <use x="1024.126953" xlink:href="#DejaVuSans-69"/>
     <use x="1051.910156" xlink:href="#DejaVuSans-6f"/>
     <use x="1113.091797" xlink:href="#DejaVuSans-6e"/>
     <use x="1176.470703" xlink:href="#DejaVuSans-2c"/>
     <use x="1208.257812" xlink:href="#DejaVuSans-20"/>
     <use x="1240.044922" xlink:href="#DejaVuSans-64"/>
     <use x="1303.521484" xlink:href="#DejaVuSans-66"/>
     <use x="1338.726562" xlink:href="#DejaVuSans-3d"/>
     <use x="1422.515625" xlink:href="#DejaVuSans-32"/>
     <use x="1486.138672" xlink:href="#DejaVuSans-39"/>
    </g>
   </g>
  </g>
 </g>
 <defs>
  <clipPath id="p9ea2c7f695">
   <rect height="162.28" width="416.36" x="33.64" y="26.88"/>
  </clipPath>
 </defs>
</svg>
