<?xml version="1.0" encoding="utf-8" standalone="no"?>
<!DOCTYPE svg PUBLIC "-//W3C//DTD SVG 1.1//EN"
  "http://www.w3.org/Graphics/SVG/1.1/DTD/svg11.dtd">
<svg height="230.4pt" version="1.1" viewBox="0 0 460.8 230.4" width="460.8pt" xmlns="http://www.w3.org/2000/svg" xmlns:xlink="http://www.w3.org/1999/xlink">
 <metadata>
  <rdf:RDF xmlns:cc="http://creativecommons.org/ns#" xmlns:dc="http://purl.org/dc/elements/1.1/" xmlns:rdf="http://www.w3.org/1999/02/22-rdf-syntax-ns#">
   <cc:Work>
    <dc:type rdf:resource="http://purl.org/dc/dcmitype/StillImage"/>
    <dc:date>2021-07-19T05:03:00.100661</dc:date>
    <dc:format>image/svg+xml</dc:format>
    <dc:creator>
     <cc:Agent>
      <dc:title>Matplotlib v3.4.2, https://matplotlib.org/</dc:title>
     </cc:Agent>
    </dc:creator>
   </cc:Work>
  </rdf:RDF>
 </metadata>
 <defs>
  <style type="text/css">*{stroke-linecap:butt;stroke-linejoin:round;}</style>
 </defs>
 <g id="figure_1">
  <g id="patch_1">
   <path d="M 0 230.4 
L 460.8 230.4 
L 460.8 0 
L 0 0 
z
" style="fill:#ffffff;"/>
  </g>
  <g id="axes_1">
   <g id="patch_2">
    <path d="M 33.64 189.16 
L 450 189.16 
L 450 26.88 
L 33.64 26.88 
z
" style="fill:#ffffff;"/>
   </g>
   <g id="PolyCollection_1">
    <defs>
     <path d="M 33.64 -41.24 
L 33.64 -41.24 
L 35.140992 -41.24 
L 36.641984 -41.24 
L 38.142976 -41.24 
L 39.643968 -41.24 
L 41.14496 -41.24 
L 42.645952 -41.24 
L 44.146944 -41.24 
L 45.647936 -41.24 
L 47.148928 -41.24 
L 48.64992 -41.24 
L 50.150912 -41.24 
L 51.651904 -41.24 
L 53.152896 -41.24 
L 54.653888 -41.24 
L 56.15488 -41.24 
L 57.655872 -41.24 
L 59.156864 -41.24 
L 60.657856 -41.24 
L 62.158848 -41.24 
L 63.65984 -41.24 
L 65.160832 -41.24 
L 66.661824 -41.24 
L 68.162816 -41.24 
L 69.663808 -41.24 
L 71.1648 -41.24 
L 72.665792 -41.24 
L 74.166784 -41.24 
L 75.667775 -41.24 
L 77.168767 -41.24 
L 78.669759 -41.24 
L 80.170751 -41.24 
L 81.671743 -41.24 
L 83.172735 -41.24 
L 84.673727 -41.24 
L 86.174719 -41.24 
L 87.675711 -41.24 
L 89.176703 -41.24 
L 90.677695 -41.24 
L 92.178687 -41.24 
L 93.679679 -41.24 
L 95.180671 -41.24 
L 96.681663 -41.24 
L 98.182655 -41.240001 
L 99.683647 -41.240001 
L 101.184639 -41.240001 
L 102.685631 -41.240002 
L 104.186623 -41.240003 
L 105.687615 -41.240004 
L 107.188607 -41.240006 
L 108.689599 -41.240009 
L 110.190591 -41.240013 
L 111.691583 -41.240018 
L 113.192575 -41.240026 
L 114.693567 -41.240037 
L 116.194559 -41.240053 
L 117.695551 -41.240076 
L 119.196543 -41.240107 
L 120.697535 -41.24015 
L 122.198527 -41.240211 
L 123.699519 -41.240294 
L 125.200511 -41.240409 
L 126.701503 -41.240566 
L 128.202495 -41.24078 
L 129.703487 -41.241071 
L 131.204479 -41.241464 
L 132.705471 -41.241992 
L 134.206463 -41.2427 
L 135.707455 -41.243643 
L 137.208447 -41.244896 
L 138.709439 -41.246553 
L 140.210431 -41.248732 
L 141.711423 -41.251588 
L 143.212415 -41.255313 
L 144.713407 -41.26015 
L 146.214399 -41.266404 
L 147.715391 -41.274454 
L 149.216383 -41.284769 
L 150.717375 -41.297927 
L 152.218367 -41.314639 
L 153.719359 -41.335767 
L 155.220351 -41.36236 
L 156.721342 -41.39568 
L 158.222334 -41.437241 
L 159.723326 -41.488848 
L 161.224318 -41.552637 
L 162.72531 -41.631129 
L 164.226302 -41.72727 
L 165.727294 -41.844493 
L 167.228286 -41.986765 
L 168.729278 -42.158646 
L 170.23027 -42.365339 
L 171.731262 -42.612744 
L 173.232254 -42.907506 
L 174.733246 -43.257049 
L 176.234238 -43.669612 
L 177.73523 -44.154261 
L 179.236222 -44.720899 
L 180.737214 -45.38024 
L 182.238206 -46.14378 
L 182.238206 -41.24 
L 182.238206 -41.24 
L 180.737214 -41.24 
L 179.236222 -41.24 
L 177.73523 -41.24 
L 176.234238 -41.24 
L 174.733246 -41.24 
L 173.232254 -41.24 
L 171.731262 -41.24 
L 170.23027 -41.24 
L 168.729278 -41.24 
L 167.228286 -41.24 
L 165.727294 -41.24 
L 164.226302 -41.24 
L 162.72531 -41.24 
L 161.224318 -41.24 
L 159.723326 -41.24 
L 158.222334 -41.24 
L 156.721342 -41.24 
L 155.220351 -41.24 
L 153.719359 -41.24 
L 152.218367 -41.24 
L 150.717375 -41.24 
L 149.216383 -41.24 
L 147.715391 -41.24 
L 146.214399 -41.24 
L 144.713407 -41.24 
L 143.212415 -41.24 
L 141.711423 -41.24 
L 140.210431 -41.24 
L 138.709439 -41.24 
L 137.208447 -41.24 
L 135.707455 -41.24 
L 134.206463 -41.24 
L 132.705471 -41.24 
L 131.204479 -41.24 
L 129.703487 -41.24 
L 128.202495 -41.24 
L 126.701503 -41.24 
L 125.200511 -41.24 
L 123.699519 -41.24 
L 122.198527 -41.24 
L 120.697535 -41.24 
L 119.196543 -41.24 
L 117.695551 -41.24 
L 116.194559 -41.24 
L 114.693567 -41.24 
L 113.192575 -41.24 
L 111.691583 -41.24 
L 110.190591 -41.24 
L 108.689599 -41.24 
L 107.188607 -41.24 
L 105.687615 -41.24 
L 104.186623 -41.24 
L 102.685631 -41.24 
L 101.184639 -41.24 
L 99.683647 -41.24 
L 98.182655 -41.24 
L 96.681663 -41.24 
L 95.180671 -41.24 
L 93.679679 -41.24 
L 92.178687 -41.24 
L 90.677695 -41.24 
L 89.176703 -41.24 
L 87.675711 -41.24 
L 86.174719 -41.24 
L 84.673727 -41.24 
L 83.172735 -41.24 
L 81.671743 -41.24 
L 80.170751 -41.24 
L 78.669759 -41.24 
L 77.168767 -41.24 
L 75.667775 -41.24 
L 74.166784 -41.24 
L 72.665792 -41.24 
L 71.1648 -41.24 
L 69.663808 -41.24 
L 68.162816 -41.24 
L 66.661824 -41.24 
L 65.160832 -41.24 
L 63.65984 -41.24 
L 62.158848 -41.24 
L 60.657856 -41.24 
L 59.156864 -41.24 
L 57.655872 -41.24 
L 56.15488 -41.24 
L 54.653888 -41.24 
L 53.152896 -41.24 
L 51.651904 -41.24 
L 50.150912 -41.24 
L 48.64992 -41.24 
L 47.148928 -41.24 
L 45.647936 -41.24 
L 44.146944 -41.24 
L 42.645952 -41.24 
L 41.14496 -41.24 
L 39.643968 -41.24 
L 38.142976 -41.24 
L 36.641984 -41.24 
L 35.140992 -41.24 
L 33.64 -41.24 
z
" id="m8f0f7f54f1" style="stroke:#d62728;stroke-opacity:0.7;"/>
    </defs>
    <g clip-path="url(#p1018dbe395)">
     <use style="fill:#d62728;fill-opacity:0.7;stroke:#d62728;stroke-opacity:0.7;" x="0" xlink:href="#m8f0f7f54f1" y="230.4"/>
    </g>
   </g>
   <g id="PolyCollection_2">
    <defs>
     <path d="M 301.401794 -41.24 
L 301.401794 -46.14378 
L 302.902786 -45.38024 
L 304.403778 -44.720899 
L 305.90477 -44.154261 
L 307.405762 -43.669612 
L 308.906754 -43.257049 
L 310.407746 -42.907506 
L 311.908738 -42.612744 
L 313.40973 -42.365339 
L 314.910722 -42.158646 
L 316.411714 -41.986765 
L 317.912706 -41.844493 
L 319.413698 -41.72727 
L 320.91469 -41.631129 
L 322.415682 -41.552637 
L 323.916674 -41.488848 
L 325.417666 -41.437241 
L 326.918658 -41.39568 
L 328.419649 -41.36236 
L 329.920641 -41.335767 
L 331.421633 -41.314639 
L 332.922625 -41.297927 
L 334.423617 -41.284769 
L 335.924609 -41.274454 
L 337.425601 -41.266404 
L 338.926593 -41.26015 
L 340.427585 -41.255313 
L 341.928577 -41.251588 
L 343.429569 -41.248732 
L 344.930561 -41.246553 
L 346.431553 -41.244896 
L 347.932545 -41.243643 
L 349.433537 -41.2427 
L 350.934529 -41.241992 
L 352.435521 -41.241464 
L 353.936513 -41.241071 
L 355.437505 -41.24078 
L 356.938497 -41.240566 
L 358.439489 -41.240409 
L 359.940481 -41.240294 
L 361.441473 -41.240211 
L 362.942465 -41.24015 
L 364.443457 -41.240107 
L 365.944449 -41.240076 
L 367.445441 -41.240053 
L 368.946433 -41.240037 
L 370.447425 -41.240026 
L 371.948417 -41.240018 
L 373.449409 -41.240013 
L 374.950401 -41.240009 
L 376.451393 -41.240006 
L 377.952385 -41.240004 
L 379.453377 -41.240003 
L 380.954369 -41.240002 
L 382.455361 -41.240001 
L 383.956353 -41.240001 
L 385.457345 -41.240001 
L 386.958337 -41.24 
L 388.459329 -41.24 
L 389.960321 -41.24 
L 391.461313 -41.24 
L 392.962305 -41.24 
L 394.463297 -41.24 
L 395.964289 -41.24 
L 397.465281 -41.24 
L 398.966273 -41.24 
L 400.467265 -41.24 
L 401.968257 -41.24 
L 403.469249 -41.24 
L 404.970241 -41.24 
L 406.471233 -41.24 
L 407.972225 -41.24 
L 409.473216 -41.24 
L 410.974208 -41.24 
L 412.4752 -41.24 
L 413.976192 -41.24 
L 415.477184 -41.24 
L 416.978176 -41.24 
L 418.479168 -41.24 
L 419.98016 -41.24 
L 421.481152 -41.24 
L 422.982144 -41.24 
L 424.483136 -41.24 
L 425.984128 -41.24 
L 427.48512 -41.24 
L 428.986112 -41.24 
L 430.487104 -41.24 
L 431.988096 -41.24 
L 433.489088 -41.24 
L 434.99008 -41.24 
L 436.491072 -41.24 
L 437.992064 -41.24 
L 439.493056 -41.24 
L 440.994048 -41.24 
L 442.49504 -41.24 
L 443.996032 -41.24 
L 445.497024 -41.24 
L 446.998016 -41.24 
L 448.499008 -41.24 
L 450 -41.24 
L 450 -41.24 
L 450 -41.24 
L 448.499008 -41.24 
L 446.998016 -41.24 
L 445.497024 -41.24 
L 443.996032 -41.24 
L 442.49504 -41.24 
L 440.994048 -41.24 
L 439.493056 -41.24 
L 437.992064 -41.24 
L 436.491072 -41.24 
L 434.99008 -41.24 
L 433.489088 -41.24 
L 431.988096 -41.24 
L 430.487104 -41.24 
L 428.986112 -41.24 
L 427.48512 -41.24 
L 425.984128 -41.24 
L 424.483136 -41.24 
L 422.982144 -41.24 
L 421.481152 -41.24 
L 419.98016 -41.24 
L 418.479168 -41.24 
L 416.978176 -41.24 
L 415.477184 -41.24 
L 413.976192 -41.24 
L 412.4752 -41.24 
L 410.974208 -41.24 
L 409.473216 -41.24 
L 407.972225 -41.24 
L 406.471233 -41.24 
L 404.970241 -41.24 
L 403.469249 -41.24 
L 401.968257 -41.24 
L 400.467265 -41.24 
L 398.966273 -41.24 
L 397.465281 -41.24 
L 395.964289 -41.24 
L 394.463297 -41.24 
L 392.962305 -41.24 
L 391.461313 -41.24 
L 389.960321 -41.24 
L 388.459329 -41.24 
L 386.958337 -41.24 
L 385.457345 -41.24 
L 383.956353 -41.24 
L 382.455361 -41.24 
L 380.954369 -41.24 
L 379.453377 -41.24 
L 377.952385 -41.24 
L 376.451393 -41.24 
L 374.950401 -41.24 
L 373.449409 -41.24 
L 371.948417 -41.24 
L 370.447425 -41.24 
L 368.946433 -41.24 
L 367.445441 -41.24 
L 365.944449 -41.24 
L 364.443457 -41.24 
L 362.942465 -41.24 
L 361.441473 -41.24 
L 359.940481 -41.24 
L 358.439489 -41.24 
L 356.938497 -41.24 
L 355.437505 -41.24 
L 353.936513 -41.24 
L 352.435521 -41.24 
L 350.934529 -41.24 
L 349.433537 -41.24 
L 347.932545 -41.24 
L 346.431553 -41.24 
L 344.930561 -41.24 
L 343.429569 -41.24 
L 341.928577 -41.24 
L 340.427585 -41.24 
L 338.926593 -41.24 
L 337.425601 -41.24 
L 335.924609 -41.24 
L 334.423617 -41.24 
L 332.922625 -41.24 
L 331.421633 -41.24 
L 329.920641 -41.24 
L 328.419649 -41.24 
L 326.918658 -41.24 
L 325.417666 -41.24 
L 323.916674 -41.24 
L 322.415682 -41.24 
L 320.91469 -41.24 
L 319.413698 -41.24 
L 317.912706 -41.24 
L 316.411714 -41.24 
L 314.910722 -41.24 
L 313.40973 -41.24 
L 311.908738 -41.24 
L 310.407746 -41.24 
L 308.906754 -41.24 
L 307.405762 -41.24 
L 305.90477 -41.24 
L 304.403778 -41.24 
L 302.902786 -41.24 
L 301.401794 -41.24 
z
" id="m95d93c9385" style="stroke:#d62728;stroke-opacity:0.7;"/>
    </defs>
    <g clip-path="url(#p1018dbe395)">
     <use style="fill:#d62728;fill-opacity:0.7;stroke:#d62728;stroke-opacity:0.7;" x="0" xlink:href="#m95d93c9385" y="230.4"/>
    </g>
   </g>
   <g id="matplotlib.axis_1">
    <g id="xtick_1">
     <g id="line2d_1">
      <defs>
       <path d="M 0 0 
L 0 3.5 
" id="mb0f7444b8c" style="stroke:#000000;stroke-width:0.8;"/>
      </defs>
      <g>
       <use style="stroke:#000000;stroke-width:0.8;" x="182.238206" xlink:href="#mb0f7444b8c" y="189.16"/>
      </g>
     </g>
     <g id="text_1">
      <!-- -2.5758 -->
      <g transform="translate(162.938987 203.758438)scale(0.1 -0.1)">
       <defs>
        <path d="M 313 2009 
L 1997 2009 
L 1997 1497 
L 313 1497 
L 313 2009 
z
" id="DejaVuSans-2d" transform="scale(0.015625)"/>
        <path d="M 1228 531 
L 3431 531 
L 3431 0 
L 469 0 
L 469 531 
Q 828 903 1448 1529 
Q 2069 2156 2228 2338 
Q 2531 2678 2651 2914 
Q 2772 3150 2772 3378 
Q 2772 3750 2511 3984 
Q 2250 4219 1831 4219 
Q 1534 4219 1204 4116 
Q 875 4013 500 3803 
L 500 4441 
Q 881 4594 1212 4672 
Q 1544 4750 1819 4750 
Q 2544 4750 2975 4387 
Q 3406 4025 3406 3419 
Q 3406 3131 3298 2873 
Q 3191 2616 2906 2266 
Q 2828 2175 2409 1742 
Q 1991 1309 1228 531 
z
" id="DejaVuSans-32" transform="scale(0.015625)"/>
        <path d="M 684 794 
L 1344 794 
L 1344 0 
L 684 0 
L 684 794 
z
" id="DejaVuSans-2e" transform="scale(0.015625)"/>
        <path d="M 691 4666 
L 3169 4666 
L 3169 4134 
L 1269 4134 
L 1269 2991 
Q 1406 3038 1543 3061 
Q 1681 3084 1819 3084 
Q 2600 3084 3056 2656 
Q 3513 2228 3513 1497 
Q 3513 744 3044 326 
Q 2575 -91 1722 -91 
Q 1428 -91 1123 -41 
Q 819 9 494 109 
L 494 744 
Q 775 591 1075 516 
Q 1375 441 1709 441 
Q 2250 441 2565 725 
Q 2881 1009 2881 1497 
Q 2881 1984 2565 2268 
Q 2250 2553 1709 2553 
Q 1456 2553 1204 2497 
Q 953 2441 691 2322 
L 691 4666 
z
" id="DejaVuSans-35" transform="scale(0.015625)"/>
        <path d="M 525 4666 
L 3525 4666 
L 3525 4397 
L 1831 0 
L 1172 0 
L 2766 4134 
L 525 4134 
L 525 4666 
z
" id="DejaVuSans-37" transform="scale(0.015625)"/>
        <path d="M 2034 2216 
Q 1584 2216 1326 1975 
Q 1069 1734 1069 1313 
Q 1069 891 1326 650 
Q 1584 409 2034 409 
Q 2484 409 2743 651 
Q 3003 894 3003 1313 
Q 3003 1734 2745 1975 
Q 2488 2216 2034 2216 
z
M 1403 2484 
Q 997 2584 770 2862 
Q 544 3141 544 3541 
Q 544 4100 942 4425 
Q 1341 4750 2034 4750 
Q 2731 4750 3128 4425 
Q 3525 4100 3525 3541 
Q 3525 3141 3298 2862 
Q 3072 2584 2669 2484 
Q 3125 2378 3379 2068 
Q 3634 1759 3634 1313 
Q 3634 634 3220 271 
Q 2806 -91 2034 -91 
Q 1263 -91 848 271 
Q 434 634 434 1313 
Q 434 1759 690 2068 
Q 947 2378 1403 2484 
z
M 1172 3481 
Q 1172 3119 1398 2916 
Q 1625 2713 2034 2713 
Q 2441 2713 2670 2916 
Q 2900 3119 2900 3481 
Q 2900 3844 2670 4047 
Q 2441 4250 2034 4250 
Q 1625 4250 1398 4047 
Q 1172 3844 1172 3481 
z
" id="DejaVuSans-38" transform="scale(0.015625)"/>
       </defs>
       <use xlink:href="#DejaVuSans-2d"/>
       <use x="36.083984" xlink:href="#DejaVuSans-32"/>
       <use x="99.707031" xlink:href="#DejaVuSans-2e"/>
       <use x="131.494141" xlink:href="#DejaVuSans-35"/>
       <use x="195.117188" xlink:href="#DejaVuSans-37"/>
       <use x="258.740234" xlink:href="#DejaVuSans-35"/>
       <use x="322.363281" xlink:href="#DejaVuSans-38"/>
      </g>
     </g>
    </g>
    <g id="xtick_2">
     <g id="line2d_2">
      <g>
       <use style="stroke:#000000;stroke-width:0.8;" x="301.401794" xlink:href="#mb0f7444b8c" y="189.16"/>
      </g>
     </g>
     <g id="text_2">
      <!-- 2.5758 -->
      <g transform="translate(283.906481 203.758438)scale(0.1 -0.1)">
       <use xlink:href="#DejaVuSans-32"/>
       <use x="63.623047" xlink:href="#DejaVuSans-2e"/>
       <use x="95.410156" xlink:href="#DejaVuSans-35"/>
       <use x="159.033203" xlink:href="#DejaVuSans-37"/>
       <use x="222.65625" xlink:href="#DejaVuSans-35"/>
       <use x="286.279297" xlink:href="#DejaVuSans-38"/>
      </g>
     </g>
    </g>
    <g id="xtick_3">
     <g id="line2d_3">
      <g>
       <use style="stroke:#000000;stroke-width:0.8;" x="241.82" xlink:href="#mb0f7444b8c" y="189.16"/>
      </g>
     </g>
     <g id="text_3">
      <!-- 0 -->
      <g transform="translate(238.63875 203.758438)scale(0.1 -0.1)">
       <defs>
        <path d="M 2034 4250 
Q 1547 4250 1301 3770 
Q 1056 3291 1056 2328 
Q 1056 1369 1301 889 
Q 1547 409 2034 409 
Q 2525 409 2770 889 
Q 3016 1369 3016 2328 
Q 3016 3291 2770 3770 
Q 2525 4250 2034 4250 
z
M 2034 4750 
Q 2819 4750 3233 4129 
Q 3647 3509 3647 2328 
Q 3647 1150 3233 529 
Q 2819 -91 2034 -91 
Q 1250 -91 836 529 
Q 422 1150 422 2328 
Q 422 3509 836 4129 
Q 1250 4750 2034 4750 
z
" id="DejaVuSans-30" transform="scale(0.015625)"/>
       </defs>
       <use xlink:href="#DejaVuSans-30"/>
      </g>
     </g>
    </g>
    <g id="text_4">
     <!-- z-value -->
     <g transform="translate(225.660781 216.676719)scale(0.09 -0.09)">
      <defs>
       <path d="M 353 3500 
L 3084 3500 
L 3084 2975 
L 922 459 
L 3084 459 
L 3084 0 
L 275 0 
L 275 525 
L 2438 3041 
L 353 3041 
L 353 3500 
z
" id="DejaVuSans-7a" transform="scale(0.015625)"/>
       <path d="M 191 3500 
L 800 3500 
L 1894 563 
L 2988 3500 
L 3597 3500 
L 2284 0 
L 1503 0 
L 191 3500 
z
" id="DejaVuSans-76" transform="scale(0.015625)"/>
       <path d="M 2194 1759 
Q 1497 1759 1228 1600 
Q 959 1441 959 1056 
Q 959 750 1161 570 
Q 1363 391 1709 391 
Q 2188 391 2477 730 
Q 2766 1069 2766 1631 
L 2766 1759 
L 2194 1759 
z
M 3341 1997 
L 3341 0 
L 2766 0 
L 2766 531 
Q 2569 213 2275 61 
Q 1981 -91 1556 -91 
Q 1019 -91 701 211 
Q 384 513 384 1019 
Q 384 1609 779 1909 
Q 1175 2209 1959 2209 
L 2766 2209 
L 2766 2266 
Q 2766 2663 2505 2880 
Q 2244 3097 1772 3097 
Q 1472 3097 1187 3025 
Q 903 2953 641 2809 
L 641 3341 
Q 956 3463 1253 3523 
Q 1550 3584 1831 3584 
Q 2591 3584 2966 3190 
Q 3341 2797 3341 1997 
z
" id="DejaVuSans-61" transform="scale(0.015625)"/>
       <path d="M 603 4863 
L 1178 4863 
L 1178 0 
L 603 0 
L 603 4863 
z
" id="DejaVuSans-6c" transform="scale(0.015625)"/>
       <path d="M 544 1381 
L 544 3500 
L 1119 3500 
L 1119 1403 
Q 1119 906 1312 657 
Q 1506 409 1894 409 
Q 2359 409 2629 706 
Q 2900 1003 2900 1516 
L 2900 3500 
L 3475 3500 
L 3475 0 
L 2900 0 
L 2900 538 
Q 2691 219 2414 64 
Q 2138 -91 1772 -91 
Q 1169 -91 856 284 
Q 544 659 544 1381 
z
M 1991 3584 
L 1991 3584 
z
" id="DejaVuSans-75" transform="scale(0.015625)"/>
       <path d="M 3597 1894 
L 3597 1613 
L 953 1613 
Q 991 1019 1311 708 
Q 1631 397 2203 397 
Q 2534 397 2845 478 
Q 3156 559 3463 722 
L 3463 178 
Q 3153 47 2828 -22 
Q 2503 -91 2169 -91 
Q 1331 -91 842 396 
Q 353 884 353 1716 
Q 353 2575 817 3079 
Q 1281 3584 2069 3584 
Q 2775 3584 3186 3129 
Q 3597 2675 3597 1894 
z
M 3022 2063 
Q 3016 2534 2758 2815 
Q 2500 3097 2075 3097 
Q 1594 3097 1305 2825 
Q 1016 2553 972 2059 
L 3022 2063 
z
" id="DejaVuSans-65" transform="scale(0.015625)"/>
      </defs>
      <use xlink:href="#DejaVuSans-7a"/>
      <use x="52.490234" xlink:href="#DejaVuSans-2d"/>
      <use x="85.949219" xlink:href="#DejaVuSans-76"/>
      <use x="145.128906" xlink:href="#DejaVuSans-61"/>
      <use x="206.408203" xlink:href="#DejaVuSans-6c"/>
      <use x="234.191406" xlink:href="#DejaVuSans-75"/>
      <use x="297.570312" xlink:href="#DejaVuSans-65"/>
     </g>
    </g>
   </g>
   <g id="matplotlib.axis_2">
    <g id="ytick_1">
     <g id="line2d_4">
      <defs>
       <path d="M 0 0 
L -3.5 0 
" id="m16b65eef42" style="stroke:#000000;stroke-width:0.8;"/>
      </defs>
      <g>
       <use style="stroke:#000000;stroke-width:0.8;" x="33.64" xlink:href="#m16b65eef42" y="189.16"/>
      </g>
     </g>
     <g id="text_5">
      <!-- 0.0 -->
      <g transform="translate(10.736875 192.959219)scale(0.1 -0.1)">
       <use xlink:href="#DejaVuSans-30"/>
       <use x="63.623047" xlink:href="#DejaVuSans-2e"/>
       <use x="95.410156" xlink:href="#DejaVuSans-30"/>
      </g>
     </g>
    </g>
    <g id="ytick_2">
     <g id="line2d_5">
      <g>
       <use style="stroke:#000000;stroke-width:0.8;" x="33.64" xlink:href="#m16b65eef42" y="155.246671"/>
      </g>
     </g>
     <g id="text_6">
      <!-- 0.1 -->
      <g transform="translate(10.736875 159.045889)scale(0.1 -0.1)">
       <defs>
        <path d="M 794 531 
L 1825 531 
L 1825 4091 
L 703 3866 
L 703 4441 
L 1819 4666 
L 2450 4666 
L 2450 531 
L 3481 531 
L 3481 0 
L 794 0 
L 794 531 
z
" id="DejaVuSans-31" transform="scale(0.015625)"/>
       </defs>
       <use xlink:href="#DejaVuSans-30"/>
       <use x="63.623047" xlink:href="#DejaVuSans-2e"/>
       <use x="95.410156" xlink:href="#DejaVuSans-31"/>
      </g>
     </g>
    </g>
    <g id="ytick_3">
     <g id="line2d_6">
      <g>
       <use style="stroke:#000000;stroke-width:0.8;" x="33.64" xlink:href="#m16b65eef42" y="121.333341"/>
      </g>
     </g>
     <g id="text_7">
      <!-- 0.2 -->
      <g transform="translate(10.736875 125.13256)scale(0.1 -0.1)">
       <use xlink:href="#DejaVuSans-30"/>
       <use x="63.623047" xlink:href="#DejaVuSans-2e"/>
       <use x="95.410156" xlink:href="#DejaVuSans-32"/>
      </g>
     </g>
    </g>
    <g id="ytick_4">
     <g id="line2d_7">
      <g>
       <use style="stroke:#000000;stroke-width:0.8;" x="33.64" xlink:href="#m16b65eef42" y="87.420012"/>
      </g>
     </g>
     <g id="text_8">
      <!-- 0.3 -->
      <g transform="translate(10.736875 91.21923)scale(0.1 -0.1)">
       <defs>
        <path d="M 2597 2516 
Q 3050 2419 3304 2112 
Q 3559 1806 3559 1356 
Q 3559 666 3084 287 
Q 2609 -91 1734 -91 
Q 1441 -91 1130 -33 
Q 819 25 488 141 
L 488 750 
Q 750 597 1062 519 
Q 1375 441 1716 441 
Q 2309 441 2620 675 
Q 2931 909 2931 1356 
Q 2931 1769 2642 2001 
Q 2353 2234 1838 2234 
L 1294 2234 
L 1294 2753 
L 1863 2753 
Q 2328 2753 2575 2939 
Q 2822 3125 2822 3475 
Q 2822 3834 2567 4026 
Q 2313 4219 1838 4219 
Q 1578 4219 1281 4162 
Q 984 4106 628 3988 
L 628 4550 
Q 988 4650 1302 4700 
Q 1616 4750 1894 4750 
Q 2613 4750 3031 4423 
Q 3450 4097 3450 3541 
Q 3450 3153 3228 2886 
Q 3006 2619 2597 2516 
z
" id="DejaVuSans-33" transform="scale(0.015625)"/>
       </defs>
       <use xlink:href="#DejaVuSans-30"/>
       <use x="63.623047" xlink:href="#DejaVuSans-2e"/>
       <use x="95.410156" xlink:href="#DejaVuSans-33"/>
      </g>
     </g>
    </g>
    <g id="ytick_5">
     <g id="line2d_8">
      <g>
       <use style="stroke:#000000;stroke-width:0.8;" x="33.64" xlink:href="#m16b65eef42" y="53.506682"/>
      </g>
     </g>
     <g id="text_9">
      <!-- 0.4 -->
      <g transform="translate(10.736875 57.305901)scale(0.1 -0.1)">
       <defs>
        <path d="M 2419 4116 
L 825 1625 
L 2419 1625 
L 2419 4116 
z
M 2253 4666 
L 3047 4666 
L 3047 1625 
L 3713 1625 
L 3713 1100 
L 3047 1100 
L 3047 0 
L 2419 0 
L 2419 1100 
L 313 1100 
L 313 1709 
L 2253 4666 
z
" id="DejaVuSans-34" transform="scale(0.015625)"/>
       </defs>
       <use xlink:href="#DejaVuSans-30"/>
       <use x="63.623047" xlink:href="#DejaVuSans-2e"/>
       <use x="95.410156" xlink:href="#DejaVuSans-34"/>
      </g>
     </g>
    </g>
   </g>
   <g id="LineCollection_1">
    <path clip-path="url(#p1018dbe395)" d="M 182.238206 189.16 
L 182.238206 184.25622 
" style="fill:none;stroke:#000000;"/>
   </g>
   <g id="LineCollection_2">
    <path clip-path="url(#p1018dbe395)" d="M 301.401794 189.16 
L 301.401794 184.25622 
" style="fill:none;stroke:#000000;"/>
   </g>
   <g id="line2d_9">
    <path clip-path="url(#p1018dbe395)" d="M 33.64 189.16 
L 153.395719 189.069212 
L 161.750769 188.821648 
L 167.320803 188.403547 
L 171.498328 187.828577 
L 174.283344 187.253944 
L 177.068361 186.470575 
L 179.853378 185.419863 
L 182.638395 184.033512 
L 185.423411 182.234413 
L 188.208428 179.938586 
L 189.600936 178.577042 
L 190.993445 177.058403 
L 192.385953 175.371902 
L 193.778462 173.507198 
L 196.563478 169.205273 
L 199.348495 164.087149 
L 202.133512 158.109691 
L 204.918528 151.260596 
L 207.703545 143.566484 
L 210.488562 135.099749 
L 213.273579 125.983249 
L 217.451104 111.486726 
L 223.021137 91.917611 
L 225.806154 82.695699 
L 228.591171 74.276766 
L 231.376187 66.97622 
L 232.768696 63.836907 
L 234.161204 61.081946 
L 235.553712 58.739939 
L 236.946221 56.835537 
L 238.338729 55.389008 
L 239.731237 54.415882 
L 241.123746 53.926667 
L 242.516254 53.926667 
L 243.908763 54.415882 
L 245.301271 55.389008 
L 246.693779 56.835537 
L 248.086288 58.739939 
L 249.478796 61.081946 
L 250.871304 63.836907 
L 252.263813 66.97622 
L 253.656321 70.467829 
L 256.441338 78.365731 
L 259.226355 87.226537 
L 263.40388 101.619003 
L 270.366421 125.983249 
L 273.151438 135.099749 
L 275.936455 143.566484 
L 278.721472 151.260596 
L 281.506488 158.109691 
L 284.291505 164.087149 
L 287.076522 169.205273 
L 289.861538 173.507198 
L 292.646555 177.058403 
L 295.431572 179.938586 
L 298.216589 182.234413 
L 301.001605 184.033512 
L 303.786622 185.419863 
L 306.571639 186.470575 
L 309.356656 187.253944 
L 312.141672 187.828577 
L 316.319197 188.403547 
L 320.496722 188.74401 
L 326.066756 188.981852 
L 335.814314 189.124872 
L 362.271973 189.159825 
L 450 189.16 
L 450 189.16 
" style="fill:none;stroke:#000000;stroke-linecap:square;"/>
   </g>
   <g id="patch_3">
    <path d="M 33.64 189.16 
L 33.64 26.88 
" style="fill:none;stroke:#000000;stroke-linecap:square;stroke-linejoin:miter;stroke-width:0.8;"/>
   </g>
   <g id="patch_4">
    <path d="M 450 189.16 
L 450 26.88 
" style="fill:none;stroke:#000000;stroke-linecap:square;stroke-linejoin:miter;stroke-width:0.8;"/>
   </g>
   <g id="patch_5">
    <path d="M 33.64 189.16 
L 450 189.16 
" style="fill:none;stroke:#000000;stroke-linecap:square;stroke-linejoin:miter;stroke-width:0.8;"/>
   </g>
   <g id="patch_6">
    <path d="M 33.64 26.88 
L 450 26.88 
" style="fill:none;stroke:#000000;stroke-linecap:square;stroke-linejoin:miter;stroke-width:0.8;"/>
   </g>
   <g id="patch_7">
    <path d="M 109.498416 177.882773 
Q 120.2025 183.083392 130.202646 187.942001 
" style="fill:none;stroke:#000000;stroke-linecap:round;stroke-width:0.7;"/>
    <path d="M 127.478822 184.395062 
L 130.202646 187.942001 
L 125.7308 187.992897 
" style="fill:none;stroke:#000000;stroke-linecap:round;stroke-width:0.7;"/>
   </g>
   <g id="text_10">
    <!-- 0.005 -->
    <g style="fill:#d62728;" transform="translate(79.310978 172.930008)scale(0.1 -0.1)">
     <use xlink:href="#DejaVuSans-30"/>
     <use x="63.623047" xlink:href="#DejaVuSans-2e"/>
     <use x="95.410156" xlink:href="#DejaVuSans-30"/>
     <use x="159.033203" xlink:href="#DejaVuSans-30"/>
     <use x="222.65625" xlink:href="#DejaVuSans-35"/>
    </g>
   </g>
   <g id="patch_8">
    <path d="M 374.141584 177.882773 
Q 363.4375 183.083392 353.437354 187.942001 
" style="fill:none;stroke:#000000;stroke-linecap:round;stroke-width:0.7;"/>
    <path d="M 357.9092 187.992897 
L 353.437354 187.942001 
L 356.161178 184.395062 
" style="fill:none;stroke:#000000;stroke-linecap:round;stroke-width:0.7;"/>
   </g>
   <g id="text_11">
    <!-- 0.005 -->
    <g style="fill:#d62728;" transform="translate(375.700897 172.930008)scale(0.1 -0.1)">
     <use xlink:href="#DejaVuSans-30"/>
     <use x="63.623047" xlink:href="#DejaVuSans-2e"/>
     <use x="95.410156" xlink:href="#DejaVuSans-30"/>
     <use x="159.033203" xlink:href="#DejaVuSans-30"/>
     <use x="222.65625" xlink:href="#DejaVuSans-35"/>
    </g>
   </g>
   <g id="patch_9">
    <path d="M 56.771111 170.900387 
Q 56.771111 179.029392 56.771111 186.375773 
" style="fill:none;stroke:#000000;stroke-linecap:round;stroke-width:0.7;"/>
    <path d="M 58.771111 182.375773 
L 56.771111 186.375773 
L 54.771111 182.375773 
" style="fill:none;stroke:#000000;stroke-linecap:round;stroke-width:0.7;"/>
   </g>
   <g id="text_12">
    <!-- -8 -->
    <g style="fill:#1f77b4;" transform="translate(51.785955 164.818)scale(0.1 -0.1)">
     <use xlink:href="#DejaVuSans-2d"/>
     <use x="36.083984" xlink:href="#DejaVuSans-38"/>
    </g>
   </g>
   <g id="text_13">
    <!-- Rejection Region ($\alpha$) = 2*0.005 = 0.01 -->
    <g style="fill:#d62728;" transform="translate(39.8854 38.2396)scale(0.09 -0.09)">
     <defs>
      <path d="M 2841 2188 
Q 3044 2119 3236 1894 
Q 3428 1669 3622 1275 
L 4263 0 
L 3584 0 
L 2988 1197 
Q 2756 1666 2539 1819 
Q 2322 1972 1947 1972 
L 1259 1972 
L 1259 0 
L 628 0 
L 628 4666 
L 2053 4666 
Q 2853 4666 3247 4331 
Q 3641 3997 3641 3322 
Q 3641 2881 3436 2590 
Q 3231 2300 2841 2188 
z
M 1259 4147 
L 1259 2491 
L 2053 2491 
Q 2509 2491 2742 2702 
Q 2975 2913 2975 3322 
Q 2975 3731 2742 3939 
Q 2509 4147 2053 4147 
L 1259 4147 
z
" id="DejaVuSans-52" transform="scale(0.015625)"/>
      <path d="M 603 3500 
L 1178 3500 
L 1178 -63 
Q 1178 -731 923 -1031 
Q 669 -1331 103 -1331 
L -116 -1331 
L -116 -844 
L 38 -844 
Q 366 -844 484 -692 
Q 603 -541 603 -63 
L 603 3500 
z
M 603 4863 
L 1178 4863 
L 1178 4134 
L 603 4134 
L 603 4863 
z
" id="DejaVuSans-6a" transform="scale(0.015625)"/>
      <path d="M 3122 3366 
L 3122 2828 
Q 2878 2963 2633 3030 
Q 2388 3097 2138 3097 
Q 1578 3097 1268 2742 
Q 959 2388 959 1747 
Q 959 1106 1268 751 
Q 1578 397 2138 397 
Q 2388 397 2633 464 
Q 2878 531 3122 666 
L 3122 134 
Q 2881 22 2623 -34 
Q 2366 -91 2075 -91 
Q 1284 -91 818 406 
Q 353 903 353 1747 
Q 353 2603 823 3093 
Q 1294 3584 2113 3584 
Q 2378 3584 2631 3529 
Q 2884 3475 3122 3366 
z
" id="DejaVuSans-63" transform="scale(0.015625)"/>
      <path d="M 1172 4494 
L 1172 3500 
L 2356 3500 
L 2356 3053 
L 1172 3053 
L 1172 1153 
Q 1172 725 1289 603 
Q 1406 481 1766 481 
L 2356 481 
L 2356 0 
L 1766 0 
Q 1100 0 847 248 
Q 594 497 594 1153 
L 594 3053 
L 172 3053 
L 172 3500 
L 594 3500 
L 594 4494 
L 1172 4494 
z
" id="DejaVuSans-74" transform="scale(0.015625)"/>
      <path d="M 603 3500 
L 1178 3500 
L 1178 0 
L 603 0 
L 603 3500 
z
M 603 4863 
L 1178 4863 
L 1178 4134 
L 603 4134 
L 603 4863 
z
" id="DejaVuSans-69" transform="scale(0.015625)"/>
      <path d="M 1959 3097 
Q 1497 3097 1228 2736 
Q 959 2375 959 1747 
Q 959 1119 1226 758 
Q 1494 397 1959 397 
Q 2419 397 2687 759 
Q 2956 1122 2956 1747 
Q 2956 2369 2687 2733 
Q 2419 3097 1959 3097 
z
M 1959 3584 
Q 2709 3584 3137 3096 
Q 3566 2609 3566 1747 
Q 3566 888 3137 398 
Q 2709 -91 1959 -91 
Q 1206 -91 779 398 
Q 353 888 353 1747 
Q 353 2609 779 3096 
Q 1206 3584 1959 3584 
z
" id="DejaVuSans-6f" transform="scale(0.015625)"/>
      <path d="M 3513 2113 
L 3513 0 
L 2938 0 
L 2938 2094 
Q 2938 2591 2744 2837 
Q 2550 3084 2163 3084 
Q 1697 3084 1428 2787 
Q 1159 2491 1159 1978 
L 1159 0 
L 581 0 
L 581 3500 
L 1159 3500 
L 1159 2956 
Q 1366 3272 1645 3428 
Q 1925 3584 2291 3584 
Q 2894 3584 3203 3211 
Q 3513 2838 3513 2113 
z
" id="DejaVuSans-6e" transform="scale(0.015625)"/>
      <path id="DejaVuSans-20" transform="scale(0.015625)"/>
      <path d="M 2906 1791 
Q 2906 2416 2648 2759 
Q 2391 3103 1925 3103 
Q 1463 3103 1205 2759 
Q 947 2416 947 1791 
Q 947 1169 1205 825 
Q 1463 481 1925 481 
Q 2391 481 2648 825 
Q 2906 1169 2906 1791 
z
M 3481 434 
Q 3481 -459 3084 -895 
Q 2688 -1331 1869 -1331 
Q 1566 -1331 1297 -1286 
Q 1028 -1241 775 -1147 
L 775 -588 
Q 1028 -725 1275 -790 
Q 1522 -856 1778 -856 
Q 2344 -856 2625 -561 
Q 2906 -266 2906 331 
L 2906 616 
Q 2728 306 2450 153 
Q 2172 0 1784 0 
Q 1141 0 747 490 
Q 353 981 353 1791 
Q 353 2603 747 3093 
Q 1141 3584 1784 3584 
Q 2172 3584 2450 3431 
Q 2728 3278 2906 2969 
L 2906 3500 
L 3481 3500 
L 3481 434 
z
" id="DejaVuSans-67" transform="scale(0.015625)"/>
      <path d="M 1984 4856 
Q 1566 4138 1362 3434 
Q 1159 2731 1159 2009 
Q 1159 1288 1364 580 
Q 1569 -128 1984 -844 
L 1484 -844 
Q 1016 -109 783 600 
Q 550 1309 550 2009 
Q 550 2706 781 3412 
Q 1013 4119 1484 4856 
L 1984 4856 
z
" id="DejaVuSans-28" transform="scale(0.015625)"/>
      <path d="M 2619 1628 
L 2622 2350 
Q 2625 3088 2069 3091 
Q 1653 3094 1394 2747 
Q 1069 2319 959 1747 
Q 825 1059 994 731 
Q 1169 397 1547 397 
Q 1966 397 2319 1063 
L 2619 1628 
z
M 2166 3578 
Q 3141 3594 3128 2584 
Q 3128 2584 3616 3500 
L 4128 3500 
L 3119 1603 
L 3109 919 
Q 3109 766 3194 638 
Q 3291 488 3391 488 
L 3669 488 
L 3575 0 
L 3228 0 
Q 2934 0 2722 263 
Q 2622 394 2619 669 
Q 2416 334 2066 50 
Q 1900 -81 1453 -78 
Q 722 -72 456 397 
Q 184 884 353 1747 
Q 534 2675 1009 3097 
Q 1544 3569 2166 3578 
z
" id="DejaVuSans-Oblique-3b1" transform="scale(0.015625)"/>
      <path d="M 513 4856 
L 1013 4856 
Q 1481 4119 1714 3412 
Q 1947 2706 1947 2009 
Q 1947 1309 1714 600 
Q 1481 -109 1013 -844 
L 513 -844 
Q 928 -128 1133 580 
Q 1338 1288 1338 2009 
Q 1338 2731 1133 3434 
Q 928 4138 513 4856 
z
" id="DejaVuSans-29" transform="scale(0.015625)"/>
      <path d="M 678 2906 
L 4684 2906 
L 4684 2381 
L 678 2381 
L 678 2906 
z
M 678 1631 
L 4684 1631 
L 4684 1100 
L 678 1100 
L 678 1631 
z
" id="DejaVuSans-3d" transform="scale(0.015625)"/>
      <path d="M 3009 3897 
L 1888 3291 
L 3009 2681 
L 2828 2375 
L 1778 3009 
L 1778 1831 
L 1422 1831 
L 1422 3009 
L 372 2375 
L 191 2681 
L 1313 3291 
L 191 3897 
L 372 4206 
L 1422 3572 
L 1422 4750 
L 1778 4750 
L 1778 3572 
L 2828 4206 
L 3009 3897 
z
" id="DejaVuSans-2a" transform="scale(0.015625)"/>
     </defs>
     <use transform="translate(0 0.015625)" xlink:href="#DejaVuSans-52"/>
     <use transform="translate(69.482422 0.015625)" xlink:href="#DejaVuSans-65"/>
     <use transform="translate(131.005859 0.015625)" xlink:href="#DejaVuSans-6a"/>
     <use transform="translate(158.789062 0.015625)" xlink:href="#DejaVuSans-65"/>
     <use transform="translate(220.3125 0.015625)" xlink:href="#DejaVuSans-63"/>
     <use transform="translate(275.292969 0.015625)" xlink:href="#DejaVuSans-74"/>
     <use transform="translate(314.501953 0.015625)" xlink:href="#DejaVuSans-69"/>
     <use transform="translate(342.285156 0.015625)" xlink:href="#DejaVuSans-6f"/>
     <use transform="translate(403.466797 0.015625)" xlink:href="#DejaVuSans-6e"/>
     <use transform="translate(466.845703 0.015625)" xlink:href="#DejaVuSans-20"/>
     <use transform="translate(498.632812 0.015625)" xlink:href="#DejaVuSans-52"/>
     <use transform="translate(568.115234 0.015625)" xlink:href="#DejaVuSans-65"/>
     <use transform="translate(629.638672 0.015625)" xlink:href="#DejaVuSans-67"/>
     <use transform="translate(693.115234 0.015625)" xlink:href="#DejaVuSans-69"/>
     <use transform="translate(720.898438 0.015625)" xlink:href="#DejaVuSans-6f"/>
     <use transform="translate(782.080078 0.015625)" xlink:href="#DejaVuSans-6e"/>
     <use transform="translate(845.458984 0.015625)" xlink:href="#DejaVuSans-20"/>
     <use transform="translate(877.246094 0.015625)" xlink:href="#DejaVuSans-28"/>
     <use transform="translate(916.259766 0.015625)" xlink:href="#DejaVuSans-Oblique-3b1"/>
     <use transform="translate(982.177734 0.015625)" xlink:href="#DejaVuSans-29"/>
     <use transform="translate(1021.191406 0.015625)" xlink:href="#DejaVuSans-20"/>
     <use transform="translate(1052.978516 0.015625)" xlink:href="#DejaVuSans-3d"/>
     <use transform="translate(1136.767578 0.015625)" xlink:href="#DejaVuSans-20"/>
     <use transform="translate(1168.554688 0.015625)" xlink:href="#DejaVuSans-32"/>
     <use transform="translate(1232.177734 0.015625)" xlink:href="#DejaVuSans-2a"/>
     <use transform="translate(1282.177734 0.015625)" xlink:href="#DejaVuSans-30"/>
     <use transform="translate(1345.800781 0.015625)" xlink:href="#DejaVuSans-2e"/>
     <use transform="translate(1377.587891 0.015625)" xlink:href="#DejaVuSans-30"/>
     <use transform="translate(1441.210938 0.015625)" xlink:href="#DejaVuSans-30"/>
     <use transform="translate(1504.833984 0.015625)" xlink:href="#DejaVuSans-35"/>
     <use transform="translate(1568.457031 0.015625)" xlink:href="#DejaVuSans-20"/>
     <use transform="translate(1600.244141 0.015625)" xlink:href="#DejaVuSans-3d"/>
     <use transform="translate(1684.033203 0.015625)" xlink:href="#DejaVuSans-20"/>
     <use transform="translate(1715.820312 0.015625)" xlink:href="#DejaVuSans-30"/>
     <use transform="translate(1779.443359 0.015625)" xlink:href="#DejaVuSans-2e"/>
     <use transform="translate(1811.230469 0.015625)" xlink:href="#DejaVuSans-30"/>
     <use transform="translate(1874.853516 0.015625)" xlink:href="#DejaVuSans-31"/>
    </g>
   </g>
   <g id="text_14">
    <!-- Critical Values (CV) = $\pm$2.5758 -->
    <g transform="translate(39.8854 49.5992)scale(0.09 -0.09)">
     <defs>
      <path d="M 4122 4306 
L 4122 3641 
Q 3803 3938 3442 4084 
Q 3081 4231 2675 4231 
Q 1875 4231 1450 3742 
Q 1025 3253 1025 2328 
Q 1025 1406 1450 917 
Q 1875 428 2675 428 
Q 3081 428 3442 575 
Q 3803 722 4122 1019 
L 4122 359 
Q 3791 134 3420 21 
Q 3050 -91 2638 -91 
Q 1578 -91 968 557 
Q 359 1206 359 2328 
Q 359 3453 968 4101 
Q 1578 4750 2638 4750 
Q 3056 4750 3426 4639 
Q 3797 4528 4122 4306 
z
" id="DejaVuSans-43" transform="scale(0.015625)"/>
      <path d="M 2631 2963 
Q 2534 3019 2420 3045 
Q 2306 3072 2169 3072 
Q 1681 3072 1420 2755 
Q 1159 2438 1159 1844 
L 1159 0 
L 581 0 
L 581 3500 
L 1159 3500 
L 1159 2956 
Q 1341 3275 1631 3429 
Q 1922 3584 2338 3584 
Q 2397 3584 2469 3576 
Q 2541 3569 2628 3553 
L 2631 2963 
z
" id="DejaVuSans-72" transform="scale(0.015625)"/>
      <path d="M 1831 0 
L 50 4666 
L 709 4666 
L 2188 738 
L 3669 4666 
L 4325 4666 
L 2547 0 
L 1831 0 
z
" id="DejaVuSans-56" transform="scale(0.015625)"/>
      <path d="M 2834 3397 
L 2834 2853 
Q 2591 2978 2328 3040 
Q 2066 3103 1784 3103 
Q 1356 3103 1142 2972 
Q 928 2841 928 2578 
Q 928 2378 1081 2264 
Q 1234 2150 1697 2047 
L 1894 2003 
Q 2506 1872 2764 1633 
Q 3022 1394 3022 966 
Q 3022 478 2636 193 
Q 2250 -91 1575 -91 
Q 1294 -91 989 -36 
Q 684 19 347 128 
L 347 722 
Q 666 556 975 473 
Q 1284 391 1588 391 
Q 1994 391 2212 530 
Q 2431 669 2431 922 
Q 2431 1156 2273 1281 
Q 2116 1406 1581 1522 
L 1381 1569 
Q 847 1681 609 1914 
Q 372 2147 372 2553 
Q 372 3047 722 3315 
Q 1072 3584 1716 3584 
Q 2034 3584 2315 3537 
Q 2597 3491 2834 3397 
z
" id="DejaVuSans-73" transform="scale(0.015625)"/>
      <path d="M 2944 4013 
L 2944 2803 
L 4684 2803 
L 4684 2272 
L 2944 2272 
L 2944 1063 
L 2419 1063 
L 2419 2272 
L 678 2272 
L 678 2803 
L 2419 2803 
L 2419 4013 
L 2944 4013 
z
M 678 531 
L 4684 531 
L 4684 0 
L 678 0 
L 678 531 
z
" id="DejaVuSans-b1" transform="scale(0.015625)"/>
     </defs>
     <use transform="translate(0 0.015625)" xlink:href="#DejaVuSans-43"/>
     <use transform="translate(69.824219 0.015625)" xlink:href="#DejaVuSans-72"/>
     <use transform="translate(110.9375 0.015625)" xlink:href="#DejaVuSans-69"/>
     <use transform="translate(138.720703 0.015625)" xlink:href="#DejaVuSans-74"/>
     <use transform="translate(177.929688 0.015625)" xlink:href="#DejaVuSans-69"/>
     <use transform="translate(205.712891 0.015625)" xlink:href="#DejaVuSans-63"/>
     <use transform="translate(260.693359 0.015625)" xlink:href="#DejaVuSans-61"/>
     <use transform="translate(321.972656 0.015625)" xlink:href="#DejaVuSans-6c"/>
     <use transform="translate(349.755859 0.015625)" xlink:href="#DejaVuSans-20"/>
     <use transform="translate(381.542969 0.015625)" xlink:href="#DejaVuSans-56"/>
     <use transform="translate(449.951172 0.015625)" xlink:href="#DejaVuSans-61"/>
     <use transform="translate(511.230469 0.015625)" xlink:href="#DejaVuSans-6c"/>
     <use transform="translate(539.013672 0.015625)" xlink:href="#DejaVuSans-75"/>
     <use transform="translate(602.392578 0.015625)" xlink:href="#DejaVuSans-65"/>
     <use transform="translate(663.916016 0.015625)" xlink:href="#DejaVuSans-73"/>
     <use transform="translate(716.015625 0.015625)" xlink:href="#DejaVuSans-20"/>
     <use transform="translate(747.802734 0.015625)" xlink:href="#DejaVuSans-28"/>
     <use transform="translate(786.816406 0.015625)" xlink:href="#DejaVuSans-43"/>
     <use transform="translate(856.640625 0.015625)" xlink:href="#DejaVuSans-56"/>
     <use transform="translate(925.048828 0.015625)" xlink:href="#DejaVuSans-29"/>
     <use transform="translate(964.0625 0.015625)" xlink:href="#DejaVuSans-20"/>
     <use transform="translate(995.849609 0.015625)" xlink:href="#DejaVuSans-3d"/>
     <use transform="translate(1079.638672 0.015625)" xlink:href="#DejaVuSans-20"/>
     <use transform="translate(1111.425781 0.015625)" xlink:href="#DejaVuSans-b1"/>
     <use transform="translate(1195.214844 0.015625)" xlink:href="#DejaVuSans-32"/>
     <use transform="translate(1258.837891 0.015625)" xlink:href="#DejaVuSans-2e"/>
     <use transform="translate(1290.625 0.015625)" xlink:href="#DejaVuSans-35"/>
     <use transform="translate(1346.998047 0.015625)" xlink:href="#DejaVuSans-37"/>
     <use transform="translate(1410.621094 0.015625)" xlink:href="#DejaVuSans-35"/>
     <use transform="translate(1474.244141 0.015625)" xlink:href="#DejaVuSans-38"/>
    </g>
   </g>
   <g id="text_15">
    <!-- Test Statistic (TS) = -8 -->
    <g style="fill:#1f77b4;" transform="translate(39.8854 61.7702)scale(0.09 -0.09)">
     <defs>
      <path d="M -19 4666 
L 3928 4666 
L 3928 4134 
L 2272 4134 
L 2272 0 
L 1638 0 
L 1638 4134 
L -19 4134 
L -19 4666 
z
" id="DejaVuSans-54" transform="scale(0.015625)"/>
      <path d="M 3425 4513 
L 3425 3897 
Q 3066 4069 2747 4153 
Q 2428 4238 2131 4238 
Q 1616 4238 1336 4038 
Q 1056 3838 1056 3469 
Q 1056 3159 1242 3001 
Q 1428 2844 1947 2747 
L 2328 2669 
Q 3034 2534 3370 2195 
Q 3706 1856 3706 1288 
Q 3706 609 3251 259 
Q 2797 -91 1919 -91 
Q 1588 -91 1214 -16 
Q 841 59 441 206 
L 441 856 
Q 825 641 1194 531 
Q 1563 422 1919 422 
Q 2459 422 2753 634 
Q 3047 847 3047 1241 
Q 3047 1584 2836 1778 
Q 2625 1972 2144 2069 
L 1759 2144 
Q 1053 2284 737 2584 
Q 422 2884 422 3419 
Q 422 4038 858 4394 
Q 1294 4750 2059 4750 
Q 2388 4750 2728 4690 
Q 3069 4631 3425 4513 
z
" id="DejaVuSans-53" transform="scale(0.015625)"/>
     </defs>
     <use xlink:href="#DejaVuSans-54"/>
     <use x="44.083984" xlink:href="#DejaVuSans-65"/>
     <use x="105.607422" xlink:href="#DejaVuSans-73"/>
     <use x="157.707031" xlink:href="#DejaVuSans-74"/>
     <use x="196.916016" xlink:href="#DejaVuSans-20"/>
     <use x="228.703125" xlink:href="#DejaVuSans-53"/>
     <use x="292.179688" xlink:href="#DejaVuSans-74"/>
     <use x="331.388672" xlink:href="#DejaVuSans-61"/>
     <use x="392.667969" xlink:href="#DejaVuSans-74"/>
     <use x="431.876953" xlink:href="#DejaVuSans-69"/>
     <use x="459.660156" xlink:href="#DejaVuSans-73"/>
     <use x="511.759766" xlink:href="#DejaVuSans-74"/>
     <use x="550.96875" xlink:href="#DejaVuSans-69"/>
     <use x="578.751953" xlink:href="#DejaVuSans-63"/>
     <use x="633.732422" xlink:href="#DejaVuSans-20"/>
     <use x="665.519531" xlink:href="#DejaVuSans-28"/>
     <use x="704.533203" xlink:href="#DejaVuSans-54"/>
     <use x="765.617188" xlink:href="#DejaVuSans-53"/>
     <use x="829.09375" xlink:href="#DejaVuSans-29"/>
     <use x="868.107422" xlink:href="#DejaVuSans-20"/>
     <use x="899.894531" xlink:href="#DejaVuSans-3d"/>
     <use x="983.683594" xlink:href="#DejaVuSans-20"/>
     <use x="1015.470703" xlink:href="#DejaVuSans-2d"/>
     <use x="1051.554688" xlink:href="#DejaVuSans-38"/>
    </g>
   </g>
   <g id="text_16">
    <!-- Standard Normal Distribution (Z) -->
    <g transform="translate(143.298125 20.88)scale(0.12 -0.12)">
     <defs>
      <path d="M 2906 2969 
L 2906 4863 
L 3481 4863 
L 3481 0 
L 2906 0 
L 2906 525 
Q 2725 213 2448 61 
Q 2172 -91 1784 -91 
Q 1150 -91 751 415 
Q 353 922 353 1747 
Q 353 2572 751 3078 
Q 1150 3584 1784 3584 
Q 2172 3584 2448 3432 
Q 2725 3281 2906 2969 
z
M 947 1747 
Q 947 1113 1208 752 
Q 1469 391 1925 391 
Q 2381 391 2643 752 
Q 2906 1113 2906 1747 
Q 2906 2381 2643 2742 
Q 2381 3103 1925 3103 
Q 1469 3103 1208 2742 
Q 947 2381 947 1747 
z
" id="DejaVuSans-64" transform="scale(0.015625)"/>
      <path d="M 628 4666 
L 1478 4666 
L 3547 763 
L 3547 4666 
L 4159 4666 
L 4159 0 
L 3309 0 
L 1241 3903 
L 1241 0 
L 628 0 
L 628 4666 
z
" id="DejaVuSans-4e" transform="scale(0.015625)"/>
      <path d="M 3328 2828 
Q 3544 3216 3844 3400 
Q 4144 3584 4550 3584 
Q 5097 3584 5394 3201 
Q 5691 2819 5691 2113 
L 5691 0 
L 5113 0 
L 5113 2094 
Q 5113 2597 4934 2840 
Q 4756 3084 4391 3084 
Q 3944 3084 3684 2787 
Q 3425 2491 3425 1978 
L 3425 0 
L 2847 0 
L 2847 2094 
Q 2847 2600 2669 2842 
Q 2491 3084 2119 3084 
Q 1678 3084 1418 2786 
Q 1159 2488 1159 1978 
L 1159 0 
L 581 0 
L 581 3500 
L 1159 3500 
L 1159 2956 
Q 1356 3278 1631 3431 
Q 1906 3584 2284 3584 
Q 2666 3584 2933 3390 
Q 3200 3197 3328 2828 
z
" id="DejaVuSans-6d" transform="scale(0.015625)"/>
      <path d="M 1259 4147 
L 1259 519 
L 2022 519 
Q 2988 519 3436 956 
Q 3884 1394 3884 2338 
Q 3884 3275 3436 3711 
Q 2988 4147 2022 4147 
L 1259 4147 
z
M 628 4666 
L 1925 4666 
Q 3281 4666 3915 4102 
Q 4550 3538 4550 2338 
Q 4550 1131 3912 565 
Q 3275 0 1925 0 
L 628 0 
L 628 4666 
z
" id="DejaVuSans-44" transform="scale(0.015625)"/>
      <path d="M 3116 1747 
Q 3116 2381 2855 2742 
Q 2594 3103 2138 3103 
Q 1681 3103 1420 2742 
Q 1159 2381 1159 1747 
Q 1159 1113 1420 752 
Q 1681 391 2138 391 
Q 2594 391 2855 752 
Q 3116 1113 3116 1747 
z
M 1159 2969 
Q 1341 3281 1617 3432 
Q 1894 3584 2278 3584 
Q 2916 3584 3314 3078 
Q 3713 2572 3713 1747 
Q 3713 922 3314 415 
Q 2916 -91 2278 -91 
Q 1894 -91 1617 61 
Q 1341 213 1159 525 
L 1159 0 
L 581 0 
L 581 4863 
L 1159 4863 
L 1159 2969 
z
" id="DejaVuSans-62" transform="scale(0.015625)"/>
      <path d="M 359 4666 
L 4025 4666 
L 4025 4184 
L 1075 531 
L 4097 531 
L 4097 0 
L 288 0 
L 288 481 
L 3238 4134 
L 359 4134 
L 359 4666 
z
" id="DejaVuSans-5a" transform="scale(0.015625)"/>
     </defs>
     <use xlink:href="#DejaVuSans-53"/>
     <use x="63.476562" xlink:href="#DejaVuSans-74"/>
     <use x="102.685547" xlink:href="#DejaVuSans-61"/>
     <use x="163.964844" xlink:href="#DejaVuSans-6e"/>
     <use x="227.34375" xlink:href="#DejaVuSans-64"/>
     <use x="290.820312" xlink:href="#DejaVuSans-61"/>
     <use x="352.099609" xlink:href="#DejaVuSans-72"/>
     <use x="391.462891" xlink:href="#DejaVuSans-64"/>
     <use x="454.939453" xlink:href="#DejaVuSans-20"/>
     <use x="486.726562" xlink:href="#DejaVuSans-4e"/>
     <use x="561.53125" xlink:href="#DejaVuSans-6f"/>
     <use x="622.712891" xlink:href="#DejaVuSans-72"/>
     <use x="662.076172" xlink:href="#DejaVuSans-6d"/>
     <use x="759.488281" xlink:href="#DejaVuSans-61"/>
     <use x="820.767578" xlink:href="#DejaVuSans-6c"/>
     <use x="848.550781" xlink:href="#DejaVuSans-20"/>
     <use x="880.337891" xlink:href="#DejaVuSans-44"/>
     <use x="957.339844" xlink:href="#DejaVuSans-69"/>
     <use x="985.123047" xlink:href="#DejaVuSans-73"/>
     <use x="1037.222656" xlink:href="#DejaVuSans-74"/>
     <use x="1076.431641" xlink:href="#DejaVuSans-72"/>
     <use x="1117.544922" xlink:href="#DejaVuSans-69"/>
     <use x="1145.328125" xlink:href="#DejaVuSans-62"/>
     <use x="1208.804688" xlink:href="#DejaVuSans-75"/>
     <use x="1272.183594" xlink:href="#DejaVuSans-74"/>
     <use x="1311.392578" xlink:href="#DejaVuSans-69"/>
     <use x="1339.175781" xlink:href="#DejaVuSans-6f"/>
     <use x="1400.357422" xlink:href="#DejaVuSans-6e"/>
     <use x="1463.736328" xlink:href="#DejaVuSans-20"/>
     <use x="1495.523438" xlink:href="#DejaVuSans-28"/>
     <use x="1534.537109" xlink:href="#DejaVuSans-5a"/>
     <use x="1603.042969" xlink:href="#DejaVuSans-29"/>
    </g>
   </g>
  </g>
 </g>
 <defs>
  <clipPath id="p1018dbe395">
   <rect height="162.28" width="416.36" x="33.64" y="26.88"/>
  </clipPath>
 </defs>
</svg>
