<?xml version="1.0" encoding="utf-8" standalone="no"?>
<!DOCTYPE svg PUBLIC "-//W3C//DTD SVG 1.1//EN"
  "http://www.w3.org/Graphics/SVG/1.1/DTD/svg11.dtd">
<svg height="345.6pt" version="1.1" viewBox="0 0 863.28 345.6" width="863.28pt" xmlns="http://www.w3.org/2000/svg" xmlns:xlink="http://www.w3.org/1999/xlink">
 <metadata>
  <rdf:RDF xmlns:cc="http://creativecommons.org/ns#" xmlns:dc="http://purl.org/dc/elements/1.1/" xmlns:rdf="http://www.w3.org/1999/02/22-rdf-syntax-ns#">
   <cc:Work>
    <dc:type rdf:resource="http://purl.org/dc/dcmitype/StillImage"/>
    <dc:date>2021-07-01T21:40:38.426174</dc:date>
    <dc:format>image/svg+xml</dc:format>
    <dc:creator>
     <cc:Agent>
      <dc:title>Matplotlib v3.4.2, https://matplotlib.org/</dc:title>
     </cc:Agent>
    </dc:creator>
   </cc:Work>
  </rdf:RDF>
 </metadata>
 <defs>
  <style type="text/css">*{stroke-linecap:butt;stroke-linejoin:round;}</style>
 </defs>
 <g id="figure_1">
  <g id="patch_1">
   <path d="M 0 345.6 
L 863.28 345.6 
L 863.28 0 
L 0 0 
z
" style="fill:#ffffff;"/>
  </g>
  <g id="axes_1">
   <g id="patch_2">
    <path d="M 33.611967 302.92 
L 280.062918 302.92 
L 280.062918 28.32 
L 33.611967 28.32 
z
" style="fill:#ffffff;"/>
   </g>
   <g id="PolyCollection_1">
    <defs>
     <path d="M 33.611967 -42.68 
L 33.611967 -42.994298 
L 34.327942 -43.014376 
L 35.043917 -43.035698 
L 35.759892 -43.05834 
L 36.475867 -43.082377 
L 37.191843 -43.107893 
L 37.907818 -43.134975 
L 38.623793 -43.163713 
L 39.339768 -43.194204 
L 40.055743 -43.22655 
L 40.771718 -43.260857 
L 41.487694 -43.297238 
L 42.203669 -43.335812 
L 42.919644 -43.376703 
L 43.635619 -43.420043 
L 44.351594 -43.46597 
L 45.067569 -43.514628 
L 45.783545 -43.566172 
L 46.49952 -43.62076 
L 47.215495 -43.678561 
L 47.93147 -43.739751 
L 48.647445 -43.804517 
L 49.36342 -43.873052 
L 50.079396 -43.945561 
L 50.795371 -44.022256 
L 51.511346 -44.103363 
L 52.227321 -44.189114 
L 52.943296 -44.279756 
L 53.659271 -44.375546 
L 54.375247 -44.47675 
L 55.091222 -44.583651 
L 55.807197 -44.69654 
L 56.523172 -44.815725 
L 57.239147 -44.941524 
L 57.955122 -45.07427 
L 58.671098 -45.214311 
L 59.387073 -45.362009 
L 60.103048 -45.517741 
L 60.819023 -45.681898 
L 61.534998 -45.85489 
L 62.250973 -46.03714 
L 62.966949 -46.229089 
L 63.682924 -46.431196 
L 64.398899 -46.643935 
L 65.114874 -46.867799 
L 65.830849 -47.1033 
L 66.546824 -47.350965 
L 67.2628 -47.611344 
L 67.978775 -47.885001 
L 68.69475 -48.172523 
L 69.410725 -48.474514 
L 70.1267 -48.791598 
L 70.842675 -49.124419 
L 71.558651 -49.473639 
L 72.274626 -49.839942 
L 72.990601 -50.224028 
L 73.706576 -50.626621 
L 74.422551 -51.048461 
L 75.138526 -51.490308 
L 75.854502 -51.952941 
L 76.570477 -52.437159 
L 77.286452 -52.943778 
L 78.002427 -53.473631 
L 78.718402 -54.027569 
L 79.434377 -54.606461 
L 80.150353 -55.211189 
L 80.866328 -55.842654 
L 81.582303 -56.501767 
L 82.298278 -57.189456 
L 83.014253 -57.906658 
L 83.730228 -58.654323 
L 84.446204 -59.43341 
L 85.162179 -60.244885 
L 85.878154 -61.089723 
L 86.594129 -61.968903 
L 87.310104 -62.883405 
L 88.026079 -63.834212 
L 88.742055 -64.822309 
L 89.45803 -65.848672 
L 90.174005 -66.914277 
L 90.88998 -68.02009 
L 91.605955 -69.167067 
L 92.32193 -70.356152 
L 93.037906 -71.588271 
L 93.753881 -72.864335 
L 94.469856 -74.18523 
L 95.185831 -75.551818 
L 95.901806 -76.964934 
L 96.617781 -78.425381 
L 97.333757 -79.933926 
L 98.049732 -81.491298 
L 98.765707 -83.098184 
L 99.481682 -84.755224 
L 100.197657 -86.463008 
L 100.913632 -88.222073 
L 101.629608 -90.032898 
L 102.345583 -91.895898 
L 103.061558 -93.811423 
L 103.777533 -95.779755 
L 104.493508 -97.801098 
L 104.493508 -42.68 
L 104.493508 -42.68 
L 103.777533 -42.68 
L 103.061558 -42.68 
L 102.345583 -42.68 
L 101.629608 -42.68 
L 100.913632 -42.68 
L 100.197657 -42.68 
L 99.481682 -42.68 
L 98.765707 -42.68 
L 98.049732 -42.68 
L 97.333757 -42.68 
L 96.617781 -42.68 
L 95.901806 -42.68 
L 95.185831 -42.68 
L 94.469856 -42.68 
L 93.753881 -42.68 
L 93.037906 -42.68 
L 92.32193 -42.68 
L 91.605955 -42.68 
L 90.88998 -42.68 
L 90.174005 -42.68 
L 89.45803 -42.68 
L 88.742055 -42.68 
L 88.026079 -42.68 
L 87.310104 -42.68 
L 86.594129 -42.68 
L 85.878154 -42.68 
L 85.162179 -42.68 
L 84.446204 -42.68 
L 83.730228 -42.68 
L 83.014253 -42.68 
L 82.298278 -42.68 
L 81.582303 -42.68 
L 80.866328 -42.68 
L 80.150353 -42.68 
L 79.434377 -42.68 
L 78.718402 -42.68 
L 78.002427 -42.68 
L 77.286452 -42.68 
L 76.570477 -42.68 
L 75.854502 -42.68 
L 75.138526 -42.68 
L 74.422551 -42.68 
L 73.706576 -42.68 
L 72.990601 -42.68 
L 72.274626 -42.68 
L 71.558651 -42.68 
L 70.842675 -42.68 
L 70.1267 -42.68 
L 69.410725 -42.68 
L 68.69475 -42.68 
L 67.978775 -42.68 
L 67.2628 -42.68 
L 66.546824 -42.68 
L 65.830849 -42.68 
L 65.114874 -42.68 
L 64.398899 -42.68 
L 63.682924 -42.68 
L 62.966949 -42.68 
L 62.250973 -42.68 
L 61.534998 -42.68 
L 60.819023 -42.68 
L 60.103048 -42.68 
L 59.387073 -42.68 
L 58.671098 -42.68 
L 57.955122 -42.68 
L 57.239147 -42.68 
L 56.523172 -42.68 
L 55.807197 -42.68 
L 55.091222 -42.68 
L 54.375247 -42.68 
L 53.659271 -42.68 
L 52.943296 -42.68 
L 52.227321 -42.68 
L 51.511346 -42.68 
L 50.795371 -42.68 
L 50.079396 -42.68 
L 49.36342 -42.68 
L 48.647445 -42.68 
L 47.93147 -42.68 
L 47.215495 -42.68 
L 46.49952 -42.68 
L 45.783545 -42.68 
L 45.067569 -42.68 
L 44.351594 -42.68 
L 43.635619 -42.68 
L 42.919644 -42.68 
L 42.203669 -42.68 
L 41.487694 -42.68 
L 40.771718 -42.68 
L 40.055743 -42.68 
L 39.339768 -42.68 
L 38.623793 -42.68 
L 37.907818 -42.68 
L 37.191843 -42.68 
L 36.475867 -42.68 
L 35.759892 -42.68 
L 35.043917 -42.68 
L 34.327942 -42.68 
L 33.611967 -42.68 
z
" id="m426dbfd792" style="stroke:#1f77b4;stroke-opacity:0.7;"/>
    </defs>
    <g clip-path="url(#pe9c07e964b)">
     <use style="fill:#1f77b4;fill-opacity:0.7;stroke:#1f77b4;stroke-opacity:0.7;" x="0" xlink:href="#m426dbfd792" y="345.6"/>
    </g>
   </g>
   <g id="PolyCollection_2">
    <defs>
     <path d="M 209.181376 -42.68 
L 209.181376 -97.801098 
L 209.897351 -95.779755 
L 210.613326 -93.811423 
L 211.329302 -91.895898 
L 212.045277 -90.032898 
L 212.761252 -88.222073 
L 213.477227 -86.463008 
L 214.193202 -84.755224 
L 214.909177 -83.098184 
L 215.625153 -81.491298 
L 216.341128 -79.933926 
L 217.057103 -78.425381 
L 217.773078 -76.964934 
L 218.489053 -75.551818 
L 219.205028 -74.18523 
L 219.921004 -72.864335 
L 220.636979 -71.588271 
L 221.352954 -70.356152 
L 222.068929 -69.167067 
L 222.784904 -68.02009 
L 223.500879 -66.914277 
L 224.216855 -65.848672 
L 224.93283 -64.822309 
L 225.648805 -63.834212 
L 226.36478 -62.883405 
L 227.080755 -61.968903 
L 227.79673 -61.089723 
L 228.512706 -60.244885 
L 229.228681 -59.43341 
L 229.944656 -58.654323 
L 230.660631 -57.906658 
L 231.376606 -57.189456 
L 232.092581 -56.501767 
L 232.808557 -55.842654 
L 233.524532 -55.211189 
L 234.240507 -54.606461 
L 234.956482 -54.027569 
L 235.672457 -53.473631 
L 236.388432 -52.943778 
L 237.104408 -52.437159 
L 237.820383 -51.952941 
L 238.536358 -51.490308 
L 239.252333 -51.048461 
L 239.968308 -50.626621 
L 240.684283 -50.224028 
L 241.400259 -49.839942 
L 242.116234 -49.473639 
L 242.832209 -49.124419 
L 243.548184 -48.791598 
L 244.264159 -48.474514 
L 244.980134 -48.172523 
L 245.69611 -47.885001 
L 246.412085 -47.611344 
L 247.12806 -47.350965 
L 247.844035 -47.1033 
L 248.56001 -46.867799 
L 249.275985 -46.643935 
L 249.991961 -46.431196 
L 250.707936 -46.229089 
L 251.423911 -46.03714 
L 252.139886 -45.85489 
L 252.855861 -45.681898 
L 253.571836 -45.517741 
L 254.287812 -45.362009 
L 255.003787 -45.214311 
L 255.719762 -45.07427 
L 256.435737 -44.941524 
L 257.151712 -44.815725 
L 257.867687 -44.69654 
L 258.583663 -44.583651 
L 259.299638 -44.47675 
L 260.015613 -44.375546 
L 260.731588 -44.279756 
L 261.447563 -44.189114 
L 262.163538 -44.103363 
L 262.879514 -44.022256 
L 263.595489 -43.945561 
L 264.311464 -43.873052 
L 265.027439 -43.804517 
L 265.743414 -43.739751 
L 266.459389 -43.678561 
L 267.175365 -43.62076 
L 267.89134 -43.566172 
L 268.607315 -43.514628 
L 269.32329 -43.46597 
L 270.039265 -43.420043 
L 270.75524 -43.376703 
L 271.471216 -43.335812 
L 272.187191 -43.297238 
L 272.903166 -43.260857 
L 273.619141 -43.22655 
L 274.335116 -43.194204 
L 275.051091 -43.163713 
L 275.767067 -43.134975 
L 276.483042 -43.107893 
L 277.199017 -43.082377 
L 277.914992 -43.05834 
L 278.630967 -43.035698 
L 279.346942 -43.014376 
L 280.062918 -42.994298 
L 280.062918 -42.68 
L 280.062918 -42.68 
L 279.346942 -42.68 
L 278.630967 -42.68 
L 277.914992 -42.68 
L 277.199017 -42.68 
L 276.483042 -42.68 
L 275.767067 -42.68 
L 275.051091 -42.68 
L 274.335116 -42.68 
L 273.619141 -42.68 
L 272.903166 -42.68 
L 272.187191 -42.68 
L 271.471216 -42.68 
L 270.75524 -42.68 
L 270.039265 -42.68 
L 269.32329 -42.68 
L 268.607315 -42.68 
L 267.89134 -42.68 
L 267.175365 -42.68 
L 266.459389 -42.68 
L 265.743414 -42.68 
L 265.027439 -42.68 
L 264.311464 -42.68 
L 263.595489 -42.68 
L 262.879514 -42.68 
L 262.163538 -42.68 
L 261.447563 -42.68 
L 260.731588 -42.68 
L 260.015613 -42.68 
L 259.299638 -42.68 
L 258.583663 -42.68 
L 257.867687 -42.68 
L 257.151712 -42.68 
L 256.435737 -42.68 
L 255.719762 -42.68 
L 255.003787 -42.68 
L 254.287812 -42.68 
L 253.571836 -42.68 
L 252.855861 -42.68 
L 252.139886 -42.68 
L 251.423911 -42.68 
L 250.707936 -42.68 
L 249.991961 -42.68 
L 249.275985 -42.68 
L 248.56001 -42.68 
L 247.844035 -42.68 
L 247.12806 -42.68 
L 246.412085 -42.68 
L 245.69611 -42.68 
L 244.980134 -42.68 
L 244.264159 -42.68 
L 243.548184 -42.68 
L 242.832209 -42.68 
L 242.116234 -42.68 
L 241.400259 -42.68 
L 240.684283 -42.68 
L 239.968308 -42.68 
L 239.252333 -42.68 
L 238.536358 -42.68 
L 237.820383 -42.68 
L 237.104408 -42.68 
L 236.388432 -42.68 
L 235.672457 -42.68 
L 234.956482 -42.68 
L 234.240507 -42.68 
L 233.524532 -42.68 
L 232.808557 -42.68 
L 232.092581 -42.68 
L 231.376606 -42.68 
L 230.660631 -42.68 
L 229.944656 -42.68 
L 229.228681 -42.68 
L 228.512706 -42.68 
L 227.79673 -42.68 
L 227.080755 -42.68 
L 226.36478 -42.68 
L 225.648805 -42.68 
L 224.93283 -42.68 
L 224.216855 -42.68 
L 223.500879 -42.68 
L 222.784904 -42.68 
L 222.068929 -42.68 
L 221.352954 -42.68 
L 220.636979 -42.68 
L 219.921004 -42.68 
L 219.205028 -42.68 
L 218.489053 -42.68 
L 217.773078 -42.68 
L 217.057103 -42.68 
L 216.341128 -42.68 
L 215.625153 -42.68 
L 214.909177 -42.68 
L 214.193202 -42.68 
L 213.477227 -42.68 
L 212.761252 -42.68 
L 212.045277 -42.68 
L 211.329302 -42.68 
L 210.613326 -42.68 
L 209.897351 -42.68 
L 209.181376 -42.68 
z
" id="m2848a85f89" style="stroke:#1f77b4;stroke-opacity:0.7;"/>
    </defs>
    <g clip-path="url(#pe9c07e964b)">
     <use style="fill:#1f77b4;fill-opacity:0.7;stroke:#1f77b4;stroke-opacity:0.7;" x="0" xlink:href="#m2848a85f89" y="345.6"/>
    </g>
   </g>
   <g id="matplotlib.axis_1">
    <g id="xtick_1">
     <g id="line2d_1">
      <defs>
       <path d="M 0 0 
L 0 3.5 
" id="m57f21c1419" style="stroke:#000000;stroke-width:0.8;"/>
      </defs>
      <g>
       <use style="stroke:#000000;stroke-width:0.8;" x="104.493508" xlink:href="#m57f21c1419" y="302.92"/>
      </g>
     </g>
     <g id="text_1">
      <!-- -1.7 -->
      <g transform="translate(94.738039 317.518437)scale(0.1 -0.1)">
       <defs>
        <path d="M 313 2009 
L 1997 2009 
L 1997 1497 
L 313 1497 
L 313 2009 
z
" id="DejaVuSans-2d" transform="scale(0.015625)"/>
        <path d="M 794 531 
L 1825 531 
L 1825 4091 
L 703 3866 
L 703 4441 
L 1819 4666 
L 2450 4666 
L 2450 531 
L 3481 531 
L 3481 0 
L 794 0 
L 794 531 
z
" id="DejaVuSans-31" transform="scale(0.015625)"/>
        <path d="M 684 794 
L 1344 794 
L 1344 0 
L 684 0 
L 684 794 
z
" id="DejaVuSans-2e" transform="scale(0.015625)"/>
        <path d="M 525 4666 
L 3525 4666 
L 3525 4397 
L 1831 0 
L 1172 0 
L 2766 4134 
L 525 4134 
L 525 4666 
z
" id="DejaVuSans-37" transform="scale(0.015625)"/>
       </defs>
       <use xlink:href="#DejaVuSans-2d"/>
       <use x="36.083984" xlink:href="#DejaVuSans-31"/>
       <use x="99.707031" xlink:href="#DejaVuSans-2e"/>
       <use x="131.494141" xlink:href="#DejaVuSans-37"/>
      </g>
     </g>
    </g>
    <g id="xtick_2">
     <g id="line2d_2">
      <g>
       <use style="stroke:#000000;stroke-width:0.8;" x="209.181376" xlink:href="#m57f21c1419" y="302.92"/>
      </g>
     </g>
     <g id="text_2">
      <!-- 1.7 -->
      <g transform="translate(201.229814 317.518437)scale(0.1 -0.1)">
       <use xlink:href="#DejaVuSans-31"/>
       <use x="63.623047" xlink:href="#DejaVuSans-2e"/>
       <use x="95.410156" xlink:href="#DejaVuSans-37"/>
      </g>
     </g>
    </g>
    <g id="xtick_3">
     <g id="line2d_3">
      <g>
       <use style="stroke:#000000;stroke-width:0.8;" x="156.837442" xlink:href="#m57f21c1419" y="302.92"/>
      </g>
     </g>
     <g id="text_3">
      <!-- 0 -->
      <g transform="translate(153.656192 317.518437)scale(0.1 -0.1)">
       <defs>
        <path d="M 2034 4250 
Q 1547 4250 1301 3770 
Q 1056 3291 1056 2328 
Q 1056 1369 1301 889 
Q 1547 409 2034 409 
Q 2525 409 2770 889 
Q 3016 1369 3016 2328 
Q 3016 3291 2770 3770 
Q 2525 4250 2034 4250 
z
M 2034 4750 
Q 2819 4750 3233 4129 
Q 3647 3509 3647 2328 
Q 3647 1150 3233 529 
Q 2819 -91 2034 -91 
Q 1250 -91 836 529 
Q 422 1150 422 2328 
Q 422 3509 836 4129 
Q 1250 4750 2034 4750 
z
" id="DejaVuSans-30" transform="scale(0.015625)"/>
       </defs>
       <use xlink:href="#DejaVuSans-30"/>
      </g>
     </g>
    </g>
    <g id="text_4">
     <!-- t-value -->
     <g transform="translate(137.817755 331.956406)scale(0.11 -0.11)">
      <defs>
       <path d="M 1172 4494 
L 1172 3500 
L 2356 3500 
L 2356 3053 
L 1172 3053 
L 1172 1153 
Q 1172 725 1289 603 
Q 1406 481 1766 481 
L 2356 481 
L 2356 0 
L 1766 0 
Q 1100 0 847 248 
Q 594 497 594 1153 
L 594 3053 
L 172 3053 
L 172 3500 
L 594 3500 
L 594 4494 
L 1172 4494 
z
" id="DejaVuSans-74" transform="scale(0.015625)"/>
       <path d="M 191 3500 
L 800 3500 
L 1894 563 
L 2988 3500 
L 3597 3500 
L 2284 0 
L 1503 0 
L 191 3500 
z
" id="DejaVuSans-76" transform="scale(0.015625)"/>
       <path d="M 2194 1759 
Q 1497 1759 1228 1600 
Q 959 1441 959 1056 
Q 959 750 1161 570 
Q 1363 391 1709 391 
Q 2188 391 2477 730 
Q 2766 1069 2766 1631 
L 2766 1759 
L 2194 1759 
z
M 3341 1997 
L 3341 0 
L 2766 0 
L 2766 531 
Q 2569 213 2275 61 
Q 1981 -91 1556 -91 
Q 1019 -91 701 211 
Q 384 513 384 1019 
Q 384 1609 779 1909 
Q 1175 2209 1959 2209 
L 2766 2209 
L 2766 2266 
Q 2766 2663 2505 2880 
Q 2244 3097 1772 3097 
Q 1472 3097 1187 3025 
Q 903 2953 641 2809 
L 641 3341 
Q 956 3463 1253 3523 
Q 1550 3584 1831 3584 
Q 2591 3584 2966 3190 
Q 3341 2797 3341 1997 
z
" id="DejaVuSans-61" transform="scale(0.015625)"/>
       <path d="M 603 4863 
L 1178 4863 
L 1178 0 
L 603 0 
L 603 4863 
z
" id="DejaVuSans-6c" transform="scale(0.015625)"/>
       <path d="M 544 1381 
L 544 3500 
L 1119 3500 
L 1119 1403 
Q 1119 906 1312 657 
Q 1506 409 1894 409 
Q 2359 409 2629 706 
Q 2900 1003 2900 1516 
L 2900 3500 
L 3475 3500 
L 3475 0 
L 2900 0 
L 2900 538 
Q 2691 219 2414 64 
Q 2138 -91 1772 -91 
Q 1169 -91 856 284 
Q 544 659 544 1381 
z
M 1991 3584 
L 1991 3584 
z
" id="DejaVuSans-75" transform="scale(0.015625)"/>
       <path d="M 3597 1894 
L 3597 1613 
L 953 1613 
Q 991 1019 1311 708 
Q 1631 397 2203 397 
Q 2534 397 2845 478 
Q 3156 559 3463 722 
L 3463 178 
Q 3153 47 2828 -22 
Q 2503 -91 2169 -91 
Q 1331 -91 842 396 
Q 353 884 353 1716 
Q 353 2575 817 3079 
Q 1281 3584 2069 3584 
Q 2775 3584 3186 3129 
Q 3597 2675 3597 1894 
z
M 3022 2063 
Q 3016 2534 2758 2815 
Q 2500 3097 2075 3097 
Q 1594 3097 1305 2825 
Q 1016 2553 972 2059 
L 3022 2063 
z
" id="DejaVuSans-65" transform="scale(0.015625)"/>
      </defs>
      <use xlink:href="#DejaVuSans-74"/>
      <use x="39.208984" xlink:href="#DejaVuSans-2d"/>
      <use x="72.667969" xlink:href="#DejaVuSans-76"/>
      <use x="131.847656" xlink:href="#DejaVuSans-61"/>
      <use x="193.126953" xlink:href="#DejaVuSans-6c"/>
      <use x="220.910156" xlink:href="#DejaVuSans-75"/>
      <use x="284.289062" xlink:href="#DejaVuSans-65"/>
     </g>
    </g>
   </g>
   <g id="matplotlib.axis_2">
    <g id="ytick_1">
     <g id="line2d_4">
      <defs>
       <path d="M 0 0 
L -3.5 0 
" id="m38874f7634" style="stroke:#000000;stroke-width:0.8;"/>
      </defs>
      <g>
       <use style="stroke:#000000;stroke-width:0.8;" x="33.611967" xlink:href="#m38874f7634" y="302.92"/>
      </g>
     </g>
     <g id="text_5">
      <!-- 0.0 -->
      <g transform="translate(10.708842 306.719219)scale(0.1 -0.1)">
       <use xlink:href="#DejaVuSans-30"/>
       <use x="63.623047" xlink:href="#DejaVuSans-2e"/>
       <use x="95.410156" xlink:href="#DejaVuSans-30"/>
      </g>
     </g>
    </g>
    <g id="ytick_2">
     <g id="line2d_5">
      <g>
       <use style="stroke:#000000;stroke-width:0.8;" x="33.611967" xlink:href="#m38874f7634" y="245.058112"/>
      </g>
     </g>
     <g id="text_6">
      <!-- 0.1 -->
      <g transform="translate(10.708842 248.857331)scale(0.1 -0.1)">
       <use xlink:href="#DejaVuSans-30"/>
       <use x="63.623047" xlink:href="#DejaVuSans-2e"/>
       <use x="95.410156" xlink:href="#DejaVuSans-31"/>
      </g>
     </g>
    </g>
    <g id="ytick_3">
     <g id="line2d_6">
      <g>
       <use style="stroke:#000000;stroke-width:0.8;" x="33.611967" xlink:href="#m38874f7634" y="187.196224"/>
      </g>
     </g>
     <g id="text_7">
      <!-- 0.2 -->
      <g transform="translate(10.708842 190.995443)scale(0.1 -0.1)">
       <defs>
        <path d="M 1228 531 
L 3431 531 
L 3431 0 
L 469 0 
L 469 531 
Q 828 903 1448 1529 
Q 2069 2156 2228 2338 
Q 2531 2678 2651 2914 
Q 2772 3150 2772 3378 
Q 2772 3750 2511 3984 
Q 2250 4219 1831 4219 
Q 1534 4219 1204 4116 
Q 875 4013 500 3803 
L 500 4441 
Q 881 4594 1212 4672 
Q 1544 4750 1819 4750 
Q 2544 4750 2975 4387 
Q 3406 4025 3406 3419 
Q 3406 3131 3298 2873 
Q 3191 2616 2906 2266 
Q 2828 2175 2409 1742 
Q 1991 1309 1228 531 
z
" id="DejaVuSans-32" transform="scale(0.015625)"/>
       </defs>
       <use xlink:href="#DejaVuSans-30"/>
       <use x="63.623047" xlink:href="#DejaVuSans-2e"/>
       <use x="95.410156" xlink:href="#DejaVuSans-32"/>
      </g>
     </g>
    </g>
    <g id="ytick_4">
     <g id="line2d_7">
      <g>
       <use style="stroke:#000000;stroke-width:0.8;" x="33.611967" xlink:href="#m38874f7634" y="129.334336"/>
      </g>
     </g>
     <g id="text_8">
      <!-- 0.3 -->
      <g transform="translate(10.708842 133.133555)scale(0.1 -0.1)">
       <defs>
        <path d="M 2597 2516 
Q 3050 2419 3304 2112 
Q 3559 1806 3559 1356 
Q 3559 666 3084 287 
Q 2609 -91 1734 -91 
Q 1441 -91 1130 -33 
Q 819 25 488 141 
L 488 750 
Q 750 597 1062 519 
Q 1375 441 1716 441 
Q 2309 441 2620 675 
Q 2931 909 2931 1356 
Q 2931 1769 2642 2001 
Q 2353 2234 1838 2234 
L 1294 2234 
L 1294 2753 
L 1863 2753 
Q 2328 2753 2575 2939 
Q 2822 3125 2822 3475 
Q 2822 3834 2567 4026 
Q 2313 4219 1838 4219 
Q 1578 4219 1281 4162 
Q 984 4106 628 3988 
L 628 4550 
Q 988 4650 1302 4700 
Q 1616 4750 1894 4750 
Q 2613 4750 3031 4423 
Q 3450 4097 3450 3541 
Q 3450 3153 3228 2886 
Q 3006 2619 2597 2516 
z
" id="DejaVuSans-33" transform="scale(0.015625)"/>
       </defs>
       <use xlink:href="#DejaVuSans-30"/>
       <use x="63.623047" xlink:href="#DejaVuSans-2e"/>
       <use x="95.410156" xlink:href="#DejaVuSans-33"/>
      </g>
     </g>
    </g>
    <g id="ytick_5">
     <g id="line2d_8">
      <g>
       <use style="stroke:#000000;stroke-width:0.8;" x="33.611967" xlink:href="#m38874f7634" y="71.472448"/>
      </g>
     </g>
     <g id="text_9">
      <!-- 0.4 -->
      <g transform="translate(10.708842 75.271667)scale(0.1 -0.1)">
       <defs>
        <path d="M 2419 4116 
L 825 1625 
L 2419 1625 
L 2419 4116 
z
M 2253 4666 
L 3047 4666 
L 3047 1625 
L 3713 1625 
L 3713 1100 
L 3047 1100 
L 3047 0 
L 2419 0 
L 2419 1100 
L 313 1100 
L 313 1709 
L 2253 4666 
z
" id="DejaVuSans-34" transform="scale(0.015625)"/>
       </defs>
       <use xlink:href="#DejaVuSans-30"/>
       <use x="63.623047" xlink:href="#DejaVuSans-2e"/>
       <use x="95.410156" xlink:href="#DejaVuSans-34"/>
      </g>
     </g>
    </g>
   </g>
   <g id="LineCollection_1">
    <path clip-path="url(#pe9c07e964b)" d="M 104.493508 302.92 
L 104.493508 247.798902 
" style="fill:none;stroke:#000000;"/>
   </g>
   <g id="LineCollection_2">
    <path clip-path="url(#pe9c07e964b)" d="M 209.181376 302.92 
L 209.181376 247.798902 
" style="fill:none;stroke:#000000;"/>
   </g>
   <g id="line2d_9">
    <path clip-path="url(#pe9c07e964b)" d="M 33.611967 302.605702 
L 41.854473 302.283283 
L 48.448479 301.813851 
L 53.393983 301.260564 
L 57.515236 300.608129 
L 61.63649 299.719849 
L 64.933492 298.789994 
L 68.230495 297.615524 
L 70.703247 296.541659 
L 73.175999 295.273527 
L 75.648751 293.782181 
L 78.121503 292.035935 
L 80.594255 290.000512 
L 83.067007 287.639304 
L 85.539759 284.913796 
L 88.012511 281.78415 
L 90.485263 278.209986 
L 92.958015 274.151373 
L 95.430767 269.57003 
L 97.903519 264.430742 
L 100.376271 258.70298 
L 102.849023 252.362694 
L 105.321775 245.394239 
L 107.794527 237.792373 
L 110.267279 229.56425 
L 113.564282 217.658583 
L 116.861285 204.775234 
L 120.982538 187.532605 
L 126.752293 162.066771 
L 133.346298 133.004428 
L 136.643301 119.375673 
L 139.116053 109.880753 
L 141.588805 101.198034 
L 144.061557 93.490039 
L 145.710058 88.967457 
L 147.358559 84.98504 
L 149.007061 81.578699 
L 150.655562 78.779593 
L 152.304063 76.61363 
L 153.128314 75.774632 
L 153.952565 75.101045 
L 154.776815 74.594457 
L 155.601066 74.256064 
L 156.425317 74.086667 
L 157.249567 74.086667 
L 158.073818 74.256064 
L 158.898069 74.594457 
L 159.722319 75.101045 
L 160.54657 75.774632 
L 161.370821 76.61363 
L 163.019322 78.779593 
L 164.667823 81.578699 
L 166.316325 84.98504 
L 167.964826 88.967457 
L 169.613328 93.490039 
L 171.261829 98.512696 
L 173.734581 106.888035 
L 176.207333 116.13086 
L 179.504336 129.512628 
L 183.625589 147.366512 
L 194.340848 194.560077 
L 197.63785 208.080433 
L 200.934853 220.731316 
L 204.231856 232.375532 
L 206.704608 240.396542 
L 209.17736 247.787413 
L 211.650112 254.545341 
L 214.122864 260.679258 
L 216.595616 266.207832 
L 219.068368 271.15748 
L 221.54112 275.560484 
L 224.013872 279.453251 
L 226.486624 282.874761 
L 228.959376 285.865216 
L 231.432128 288.464916 
L 233.90488 290.713333 
L 236.377632 292.648404 
L 238.850384 294.305999 
L 241.323136 295.719553 
L 243.795888 296.91985 
L 247.092891 298.236546 
L 250.389893 299.282415 
L 253.686896 300.107844 
L 257.808149 300.893793 
L 262.753653 301.563812 
L 268.523408 302.079483 
L 275.117413 302.439021 
L 280.062918 302.605702 
L 280.062918 302.605702 
" style="fill:none;stroke:#000000;stroke-linecap:square;"/>
   </g>
   <g id="patch_3">
    <path d="M 33.611967 302.92 
L 33.611967 28.32 
" style="fill:none;stroke:#000000;stroke-linecap:square;stroke-linejoin:miter;stroke-width:0.8;"/>
   </g>
   <g id="patch_4">
    <path d="M 280.062918 302.92 
L 280.062918 28.32 
" style="fill:none;stroke:#000000;stroke-linecap:square;stroke-linejoin:miter;stroke-width:0.8;"/>
   </g>
   <g id="patch_5">
    <path d="M 33.611967 302.92 
L 280.062918 302.92 
" style="fill:none;stroke:#000000;stroke-linecap:square;stroke-linejoin:miter;stroke-width:0.8;"/>
   </g>
   <g id="patch_6">
    <path d="M 33.611967 28.32 
L 280.062918 28.32 
" style="fill:none;stroke:#000000;stroke-linecap:square;stroke-linejoin:miter;stroke-width:0.8;"/>
   </g>
   <g id="patch_7">
    <path d="M 64.321938 267.969134 
Q 71.989269 278.066661 79.183313 287.540892 
" style="fill:none;stroke:#000000;stroke-linecap:round;stroke-width:0.7;"/>
    <path d="M 78.357179 283.145724 
L 79.183313 287.540892 
L 75.171498 285.564699 
" style="fill:none;stroke:#000000;stroke-linecap:round;stroke-width:0.7;"/>
   </g>
   <g id="text_10">
    <!-- 0.05 -->
    <g transform="translate(46.787112 262.297346)scale(0.1 -0.1)">
     <defs>
      <path d="M 691 4666 
L 3169 4666 
L 3169 4134 
L 1269 4134 
L 1269 2991 
Q 1406 3038 1543 3061 
Q 1681 3084 1819 3084 
Q 2600 3084 3056 2656 
Q 3513 2228 3513 1497 
Q 3513 744 3044 326 
Q 2575 -91 1722 -91 
Q 1428 -91 1123 -41 
Q 819 9 494 109 
L 494 744 
Q 775 591 1075 516 
Q 1375 441 1709 441 
Q 2250 441 2565 725 
Q 2881 1009 2881 1497 
Q 2881 1984 2565 2268 
Q 2250 2553 1709 2553 
Q 1456 2553 1204 2497 
Q 953 2441 691 2322 
L 691 4666 
z
" id="DejaVuSans-35" transform="scale(0.015625)"/>
     </defs>
     <use xlink:href="#DejaVuSans-30"/>
     <use x="63.623047" xlink:href="#DejaVuSans-2e"/>
     <use x="95.410156" xlink:href="#DejaVuSans-30"/>
     <use x="159.033203" xlink:href="#DejaVuSans-35"/>
    </g>
   </g>
   <g id="patch_8">
    <path d="M 249.352946 267.969134 
Q 241.685615 278.066661 234.491571 287.540892 
" style="fill:none;stroke:#000000;stroke-linecap:round;stroke-width:0.7;"/>
    <path d="M 238.503386 285.564699 
L 234.491571 287.540892 
L 235.317706 283.145724 
" style="fill:none;stroke:#000000;stroke-linecap:round;stroke-width:0.7;"/>
   </g>
   <g id="text_11">
    <!-- 0.05 -->
    <g transform="translate(244.622147 262.297346)scale(0.1 -0.1)">
     <use xlink:href="#DejaVuSans-30"/>
     <use x="63.623047" xlink:href="#DejaVuSans-2e"/>
     <use x="95.410156" xlink:href="#DejaVuSans-30"/>
     <use x="159.033203" xlink:href="#DejaVuSans-35"/>
    </g>
   </g>
   <g id="text_12">
    <!-- Confidence level: 90%, $\alpha$ = 0.1, df=29 -->
    <g transform="translate(41.157442 22.32)scale(0.12 -0.12)">
     <defs>
      <path d="M 4122 4306 
L 4122 3641 
Q 3803 3938 3442 4084 
Q 3081 4231 2675 4231 
Q 1875 4231 1450 3742 
Q 1025 3253 1025 2328 
Q 1025 1406 1450 917 
Q 1875 428 2675 428 
Q 3081 428 3442 575 
Q 3803 722 4122 1019 
L 4122 359 
Q 3791 134 3420 21 
Q 3050 -91 2638 -91 
Q 1578 -91 968 557 
Q 359 1206 359 2328 
Q 359 3453 968 4101 
Q 1578 4750 2638 4750 
Q 3056 4750 3426 4639 
Q 3797 4528 4122 4306 
z
" id="DejaVuSans-43" transform="scale(0.015625)"/>
      <path d="M 1959 3097 
Q 1497 3097 1228 2736 
Q 959 2375 959 1747 
Q 959 1119 1226 758 
Q 1494 397 1959 397 
Q 2419 397 2687 759 
Q 2956 1122 2956 1747 
Q 2956 2369 2687 2733 
Q 2419 3097 1959 3097 
z
M 1959 3584 
Q 2709 3584 3137 3096 
Q 3566 2609 3566 1747 
Q 3566 888 3137 398 
Q 2709 -91 1959 -91 
Q 1206 -91 779 398 
Q 353 888 353 1747 
Q 353 2609 779 3096 
Q 1206 3584 1959 3584 
z
" id="DejaVuSans-6f" transform="scale(0.015625)"/>
      <path d="M 3513 2113 
L 3513 0 
L 2938 0 
L 2938 2094 
Q 2938 2591 2744 2837 
Q 2550 3084 2163 3084 
Q 1697 3084 1428 2787 
Q 1159 2491 1159 1978 
L 1159 0 
L 581 0 
L 581 3500 
L 1159 3500 
L 1159 2956 
Q 1366 3272 1645 3428 
Q 1925 3584 2291 3584 
Q 2894 3584 3203 3211 
Q 3513 2838 3513 2113 
z
" id="DejaVuSans-6e" transform="scale(0.015625)"/>
      <path d="M 2375 4863 
L 2375 4384 
L 1825 4384 
Q 1516 4384 1395 4259 
Q 1275 4134 1275 3809 
L 1275 3500 
L 2222 3500 
L 2222 3053 
L 1275 3053 
L 1275 0 
L 697 0 
L 697 3053 
L 147 3053 
L 147 3500 
L 697 3500 
L 697 3744 
Q 697 4328 969 4595 
Q 1241 4863 1831 4863 
L 2375 4863 
z
" id="DejaVuSans-66" transform="scale(0.015625)"/>
      <path d="M 603 3500 
L 1178 3500 
L 1178 0 
L 603 0 
L 603 3500 
z
M 603 4863 
L 1178 4863 
L 1178 4134 
L 603 4134 
L 603 4863 
z
" id="DejaVuSans-69" transform="scale(0.015625)"/>
      <path d="M 2906 2969 
L 2906 4863 
L 3481 4863 
L 3481 0 
L 2906 0 
L 2906 525 
Q 2725 213 2448 61 
Q 2172 -91 1784 -91 
Q 1150 -91 751 415 
Q 353 922 353 1747 
Q 353 2572 751 3078 
Q 1150 3584 1784 3584 
Q 2172 3584 2448 3432 
Q 2725 3281 2906 2969 
z
M 947 1747 
Q 947 1113 1208 752 
Q 1469 391 1925 391 
Q 2381 391 2643 752 
Q 2906 1113 2906 1747 
Q 2906 2381 2643 2742 
Q 2381 3103 1925 3103 
Q 1469 3103 1208 2742 
Q 947 2381 947 1747 
z
" id="DejaVuSans-64" transform="scale(0.015625)"/>
      <path d="M 3122 3366 
L 3122 2828 
Q 2878 2963 2633 3030 
Q 2388 3097 2138 3097 
Q 1578 3097 1268 2742 
Q 959 2388 959 1747 
Q 959 1106 1268 751 
Q 1578 397 2138 397 
Q 2388 397 2633 464 
Q 2878 531 3122 666 
L 3122 134 
Q 2881 22 2623 -34 
Q 2366 -91 2075 -91 
Q 1284 -91 818 406 
Q 353 903 353 1747 
Q 353 2603 823 3093 
Q 1294 3584 2113 3584 
Q 2378 3584 2631 3529 
Q 2884 3475 3122 3366 
z
" id="DejaVuSans-63" transform="scale(0.015625)"/>
      <path id="DejaVuSans-20" transform="scale(0.015625)"/>
      <path d="M 750 794 
L 1409 794 
L 1409 0 
L 750 0 
L 750 794 
z
M 750 3309 
L 1409 3309 
L 1409 2516 
L 750 2516 
L 750 3309 
z
" id="DejaVuSans-3a" transform="scale(0.015625)"/>
      <path d="M 703 97 
L 703 672 
Q 941 559 1184 500 
Q 1428 441 1663 441 
Q 2288 441 2617 861 
Q 2947 1281 2994 2138 
Q 2813 1869 2534 1725 
Q 2256 1581 1919 1581 
Q 1219 1581 811 2004 
Q 403 2428 403 3163 
Q 403 3881 828 4315 
Q 1253 4750 1959 4750 
Q 2769 4750 3195 4129 
Q 3622 3509 3622 2328 
Q 3622 1225 3098 567 
Q 2575 -91 1691 -91 
Q 1453 -91 1209 -44 
Q 966 3 703 97 
z
M 1959 2075 
Q 2384 2075 2632 2365 
Q 2881 2656 2881 3163 
Q 2881 3666 2632 3958 
Q 2384 4250 1959 4250 
Q 1534 4250 1286 3958 
Q 1038 3666 1038 3163 
Q 1038 2656 1286 2365 
Q 1534 2075 1959 2075 
z
" id="DejaVuSans-39" transform="scale(0.015625)"/>
      <path d="M 4653 2053 
Q 4381 2053 4226 1822 
Q 4072 1591 4072 1178 
Q 4072 772 4226 539 
Q 4381 306 4653 306 
Q 4919 306 5073 539 
Q 5228 772 5228 1178 
Q 5228 1588 5073 1820 
Q 4919 2053 4653 2053 
z
M 4653 2450 
Q 5147 2450 5437 2106 
Q 5728 1763 5728 1178 
Q 5728 594 5436 251 
Q 5144 -91 4653 -91 
Q 4153 -91 3862 251 
Q 3572 594 3572 1178 
Q 3572 1766 3864 2108 
Q 4156 2450 4653 2450 
z
M 1428 4353 
Q 1159 4353 1004 4120 
Q 850 3888 850 3481 
Q 850 3069 1003 2837 
Q 1156 2606 1428 2606 
Q 1700 2606 1854 2837 
Q 2009 3069 2009 3481 
Q 2009 3884 1853 4118 
Q 1697 4353 1428 4353 
z
M 4250 4750 
L 4750 4750 
L 1831 -91 
L 1331 -91 
L 4250 4750 
z
M 1428 4750 
Q 1922 4750 2215 4408 
Q 2509 4066 2509 3481 
Q 2509 2891 2217 2550 
Q 1925 2209 1428 2209 
Q 931 2209 642 2551 
Q 353 2894 353 3481 
Q 353 4063 643 4406 
Q 934 4750 1428 4750 
z
" id="DejaVuSans-25" transform="scale(0.015625)"/>
      <path d="M 750 794 
L 1409 794 
L 1409 256 
L 897 -744 
L 494 -744 
L 750 256 
L 750 794 
z
" id="DejaVuSans-2c" transform="scale(0.015625)"/>
      <path d="M 2619 1628 
L 2622 2350 
Q 2625 3088 2069 3091 
Q 1653 3094 1394 2747 
Q 1069 2319 959 1747 
Q 825 1059 994 731 
Q 1169 397 1547 397 
Q 1966 397 2319 1063 
L 2619 1628 
z
M 2166 3578 
Q 3141 3594 3128 2584 
Q 3128 2584 3616 3500 
L 4128 3500 
L 3119 1603 
L 3109 919 
Q 3109 766 3194 638 
Q 3291 488 3391 488 
L 3669 488 
L 3575 0 
L 3228 0 
Q 2934 0 2722 263 
Q 2622 394 2619 669 
Q 2416 334 2066 50 
Q 1900 -81 1453 -78 
Q 722 -72 456 397 
Q 184 884 353 1747 
Q 534 2675 1009 3097 
Q 1544 3569 2166 3578 
z
" id="DejaVuSans-Oblique-3b1" transform="scale(0.015625)"/>
      <path d="M 678 2906 
L 4684 2906 
L 4684 2381 
L 678 2381 
L 678 2906 
z
M 678 1631 
L 4684 1631 
L 4684 1100 
L 678 1100 
L 678 1631 
z
" id="DejaVuSans-3d" transform="scale(0.015625)"/>
     </defs>
     <use transform="translate(0 0.015625)" xlink:href="#DejaVuSans-43"/>
     <use transform="translate(69.824219 0.015625)" xlink:href="#DejaVuSans-6f"/>
     <use transform="translate(131.005859 0.015625)" xlink:href="#DejaVuSans-6e"/>
     <use transform="translate(194.384766 0.015625)" xlink:href="#DejaVuSans-66"/>
     <use transform="translate(229.589844 0.015625)" xlink:href="#DejaVuSans-69"/>
     <use transform="translate(257.373047 0.015625)" xlink:href="#DejaVuSans-64"/>
     <use transform="translate(320.849609 0.015625)" xlink:href="#DejaVuSans-65"/>
     <use transform="translate(382.373047 0.015625)" xlink:href="#DejaVuSans-6e"/>
     <use transform="translate(445.751953 0.015625)" xlink:href="#DejaVuSans-63"/>
     <use transform="translate(500.732422 0.015625)" xlink:href="#DejaVuSans-65"/>
     <use transform="translate(562.255859 0.015625)" xlink:href="#DejaVuSans-20"/>
     <use transform="translate(594.042969 0.015625)" xlink:href="#DejaVuSans-6c"/>
     <use transform="translate(621.826172 0.015625)" xlink:href="#DejaVuSans-65"/>
     <use transform="translate(683.349609 0.015625)" xlink:href="#DejaVuSans-76"/>
     <use transform="translate(742.529297 0.015625)" xlink:href="#DejaVuSans-65"/>
     <use transform="translate(804.052734 0.015625)" xlink:href="#DejaVuSans-6c"/>
     <use transform="translate(831.835938 0.015625)" xlink:href="#DejaVuSans-3a"/>
     <use transform="translate(865.527344 0.015625)" xlink:href="#DejaVuSans-20"/>
     <use transform="translate(897.314453 0.015625)" xlink:href="#DejaVuSans-39"/>
     <use transform="translate(960.9375 0.015625)" xlink:href="#DejaVuSans-30"/>
     <use transform="translate(1024.560547 0.015625)" xlink:href="#DejaVuSans-25"/>
     <use transform="translate(1119.580078 0.015625)" xlink:href="#DejaVuSans-2c"/>
     <use transform="translate(1151.367188 0.015625)" xlink:href="#DejaVuSans-20"/>
     <use transform="translate(1183.154297 0.015625)" xlink:href="#DejaVuSans-Oblique-3b1"/>
     <use transform="translate(1249.072266 0.015625)" xlink:href="#DejaVuSans-20"/>
     <use transform="translate(1280.859375 0.015625)" xlink:href="#DejaVuSans-3d"/>
     <use transform="translate(1364.648438 0.015625)" xlink:href="#DejaVuSans-20"/>
     <use transform="translate(1396.435547 0.015625)" xlink:href="#DejaVuSans-30"/>
     <use transform="translate(1460.058594 0.015625)" xlink:href="#DejaVuSans-2e"/>
     <use transform="translate(1491.845703 0.015625)" xlink:href="#DejaVuSans-31"/>
     <use transform="translate(1555.46875 0.015625)" xlink:href="#DejaVuSans-2c"/>
     <use transform="translate(1587.255859 0.015625)" xlink:href="#DejaVuSans-20"/>
     <use transform="translate(1619.042969 0.015625)" xlink:href="#DejaVuSans-64"/>
     <use transform="translate(1682.519531 0.015625)" xlink:href="#DejaVuSans-66"/>
     <use transform="translate(1717.724609 0.015625)" xlink:href="#DejaVuSans-3d"/>
     <use transform="translate(1801.513672 0.015625)" xlink:href="#DejaVuSans-32"/>
     <use transform="translate(1863.386719 0.015625)" xlink:href="#DejaVuSans-39"/>
    </g>
   </g>
  </g>
  <g id="axes_2">
   <g id="patch_9">
    <path d="M 317.960387 302.92 
L 564.411337 302.92 
L 564.411337 28.32 
L 317.960387 28.32 
z
" style="fill:#ffffff;"/>
   </g>
   <g id="PolyCollection_3">
    <defs>
     <path d="M 317.960387 -42.68 
L 317.960387 -42.994298 
L 318.568663 -43.011278 
L 319.17694 -43.029148 
L 319.785216 -43.047954 
L 320.393493 -43.067742 
L 321.001769 -43.088561 
L 321.610046 -43.110463 
L 322.218322 -43.1335 
L 322.826599 -43.157729 
L 323.434875 -43.18321 
L 324.043152 -43.210002 
L 324.651428 -43.23817 
L 325.259705 -43.267782 
L 325.867981 -43.298907 
L 326.476258 -43.331619 
L 327.084535 -43.365993 
L 327.692811 -43.40211 
L 328.301088 -43.440053 
L 328.909364 -43.479908 
L 329.517641 -43.521767 
L 330.125917 -43.565724 
L 330.734194 -43.611877 
L 331.34247 -43.66033 
L 331.950747 -43.711189 
L 332.559023 -43.764565 
L 333.1673 -43.820577 
L 333.775576 -43.879343 
L 334.383853 -43.94099 
L 334.992129 -44.00565 
L 335.600406 -44.073458 
L 336.208683 -44.144557 
L 336.816959 -44.219094 
L 337.425236 -44.297222 
L 338.033512 -44.3791 
L 338.641789 -44.464894 
L 339.250065 -44.554775 
L 339.858342 -44.648922 
L 340.466618 -44.747519 
L 341.074895 -44.850759 
L 341.683171 -44.95884 
L 342.291448 -45.071968 
L 342.899724 -45.190357 
L 343.508001 -45.314228 
L 344.116277 -45.443809 
L 344.724554 -45.579337 
L 345.332831 -45.721059 
L 345.941107 -45.869225 
L 346.549384 -46.0241 
L 347.15766 -46.185952 
L 347.765937 -46.355062 
L 348.374213 -46.531717 
L 348.98249 -46.716214 
L 349.590766 -46.908861 
L 350.199043 -47.109974 
L 350.807319 -47.319877 
L 351.415596 -47.538907 
L 352.023872 -47.767408 
L 352.632149 -48.005735 
L 353.240425 -48.254254 
L 353.848702 -48.513338 
L 354.456979 -48.783373 
L 355.065255 -49.064754 
L 355.673532 -49.357886 
L 356.281808 -49.663186 
L 356.890085 -49.981078 
L 357.498361 -50.311999 
L 358.106638 -50.656394 
L 358.714914 -51.014721 
L 359.323191 -51.387445 
L 359.931467 -51.775042 
L 360.539744 -52.177998 
L 361.14802 -52.596809 
L 361.756297 -53.031978 
L 362.364573 -53.484021 
L 362.97285 -53.95346 
L 363.581126 -54.440827 
L 364.189403 -54.946662 
L 364.79768 -55.471512 
L 365.405956 -56.015933 
L 366.014233 -56.580488 
L 366.622509 -57.165746 
L 367.230786 -57.772284 
L 367.839062 -58.400682 
L 368.447339 -59.051528 
L 369.055615 -59.725412 
L 369.663892 -60.422929 
L 370.272168 -61.144677 
L 370.880445 -61.891257 
L 371.488721 -62.663271 
L 372.096998 -63.461322 
L 372.705274 -64.286012 
L 373.313551 -65.137943 
L 373.921828 -66.017714 
L 374.530104 -66.925923 
L 375.138381 -67.86316 
L 375.746657 -68.830013 
L 376.354934 -69.827062 
L 376.96321 -70.85488 
L 377.571487 -71.914031 
L 378.179763 -73.005067 
L 378.179763 -42.68 
L 378.179763 -42.68 
L 377.571487 -42.68 
L 376.96321 -42.68 
L 376.354934 -42.68 
L 375.746657 -42.68 
L 375.138381 -42.68 
L 374.530104 -42.68 
L 373.921828 -42.68 
L 373.313551 -42.68 
L 372.705274 -42.68 
L 372.096998 -42.68 
L 371.488721 -42.68 
L 370.880445 -42.68 
L 370.272168 -42.68 
L 369.663892 -42.68 
L 369.055615 -42.68 
L 368.447339 -42.68 
L 367.839062 -42.68 
L 367.230786 -42.68 
L 366.622509 -42.68 
L 366.014233 -42.68 
L 365.405956 -42.68 
L 364.79768 -42.68 
L 364.189403 -42.68 
L 363.581126 -42.68 
L 362.97285 -42.68 
L 362.364573 -42.68 
L 361.756297 -42.68 
L 361.14802 -42.68 
L 360.539744 -42.68 
L 359.931467 -42.68 
L 359.323191 -42.68 
L 358.714914 -42.68 
L 358.106638 -42.68 
L 357.498361 -42.68 
L 356.890085 -42.68 
L 356.281808 -42.68 
L 355.673532 -42.68 
L 355.065255 -42.68 
L 354.456979 -42.68 
L 353.848702 -42.68 
L 353.240425 -42.68 
L 352.632149 -42.68 
L 352.023872 -42.68 
L 351.415596 -42.68 
L 350.807319 -42.68 
L 350.199043 -42.68 
L 349.590766 -42.68 
L 348.98249 -42.68 
L 348.374213 -42.68 
L 347.765937 -42.68 
L 347.15766 -42.68 
L 346.549384 -42.68 
L 345.941107 -42.68 
L 345.332831 -42.68 
L 344.724554 -42.68 
L 344.116277 -42.68 
L 343.508001 -42.68 
L 342.899724 -42.68 
L 342.291448 -42.68 
L 341.683171 -42.68 
L 341.074895 -42.68 
L 340.466618 -42.68 
L 339.858342 -42.68 
L 339.250065 -42.68 
L 338.641789 -42.68 
L 338.033512 -42.68 
L 337.425236 -42.68 
L 336.816959 -42.68 
L 336.208683 -42.68 
L 335.600406 -42.68 
L 334.992129 -42.68 
L 334.383853 -42.68 
L 333.775576 -42.68 
L 333.1673 -42.68 
L 332.559023 -42.68 
L 331.950747 -42.68 
L 331.34247 -42.68 
L 330.734194 -42.68 
L 330.125917 -42.68 
L 329.517641 -42.68 
L 328.909364 -42.68 
L 328.301088 -42.68 
L 327.692811 -42.68 
L 327.084535 -42.68 
L 326.476258 -42.68 
L 325.867981 -42.68 
L 325.259705 -42.68 
L 324.651428 -42.68 
L 324.043152 -42.68 
L 323.434875 -42.68 
L 322.826599 -42.68 
L 322.218322 -42.68 
L 321.610046 -42.68 
L 321.001769 -42.68 
L 320.393493 -42.68 
L 319.785216 -42.68 
L 319.17694 -42.68 
L 318.568663 -42.68 
L 317.960387 -42.68 
z
" id="mc5eaaa4c92" style="stroke:#1f77b4;stroke-opacity:0.7;"/>
    </defs>
    <g clip-path="url(#pf2b50a14bf)">
     <use style="fill:#1f77b4;fill-opacity:0.7;stroke:#1f77b4;stroke-opacity:0.7;" x="0" xlink:href="#mc5eaaa4c92" y="345.6"/>
    </g>
   </g>
   <g id="PolyCollection_4">
    <defs>
     <path d="M 504.191961 -42.68 
L 504.191961 -73.005067 
L 504.800237 -71.914031 
L 505.408514 -70.85488 
L 506.01679 -69.827062 
L 506.625067 -68.830013 
L 507.233343 -67.86316 
L 507.84162 -66.925923 
L 508.449896 -66.017714 
L 509.058173 -65.137943 
L 509.66645 -64.286012 
L 510.274726 -63.461322 
L 510.883003 -62.663271 
L 511.491279 -61.891257 
L 512.099556 -61.144677 
L 512.707832 -60.422929 
L 513.316109 -59.725412 
L 513.924385 -59.051528 
L 514.532662 -58.400682 
L 515.140938 -57.772284 
L 515.749215 -57.165746 
L 516.357491 -56.580488 
L 516.965768 -56.015933 
L 517.574044 -55.471512 
L 518.182321 -54.946662 
L 518.790598 -54.440827 
L 519.398874 -53.95346 
L 520.007151 -53.484021 
L 520.615427 -53.031978 
L 521.223704 -52.596809 
L 521.83198 -52.177998 
L 522.440257 -51.775042 
L 523.048533 -51.387445 
L 523.65681 -51.014721 
L 524.265086 -50.656394 
L 524.873363 -50.311999 
L 525.481639 -49.981078 
L 526.089916 -49.663186 
L 526.698192 -49.357886 
L 527.306469 -49.064754 
L 527.914746 -48.783373 
L 528.523022 -48.513338 
L 529.131299 -48.254254 
L 529.739575 -48.005735 
L 530.347852 -47.767408 
L 530.956128 -47.538907 
L 531.564405 -47.319877 
L 532.172681 -47.109974 
L 532.780958 -46.908861 
L 533.389234 -46.716214 
L 533.997511 -46.531717 
L 534.605787 -46.355062 
L 535.214064 -46.185952 
L 535.82234 -46.0241 
L 536.430617 -45.869225 
L 537.038893 -45.721059 
L 537.64717 -45.579337 
L 538.255447 -45.443809 
L 538.863723 -45.314228 
L 539.472 -45.190357 
L 540.080276 -45.071968 
L 540.688553 -44.95884 
L 541.296829 -44.850759 
L 541.905106 -44.747519 
L 542.513382 -44.648922 
L 543.121659 -44.554775 
L 543.729935 -44.464894 
L 544.338212 -44.3791 
L 544.946488 -44.297222 
L 545.554765 -44.219094 
L 546.163041 -44.144557 
L 546.771318 -44.073458 
L 547.379595 -44.00565 
L 547.987871 -43.94099 
L 548.596148 -43.879343 
L 549.204424 -43.820577 
L 549.812701 -43.764565 
L 550.420977 -43.711189 
L 551.029254 -43.66033 
L 551.63753 -43.611877 
L 552.245807 -43.565724 
L 552.854083 -43.521767 
L 553.46236 -43.479908 
L 554.070636 -43.440053 
L 554.678913 -43.40211 
L 555.287189 -43.365993 
L 555.895466 -43.331619 
L 556.503743 -43.298907 
L 557.112019 -43.267782 
L 557.720296 -43.23817 
L 558.328572 -43.210002 
L 558.936849 -43.18321 
L 559.545125 -43.157729 
L 560.153402 -43.1335 
L 560.761678 -43.110463 
L 561.369955 -43.088561 
L 561.978231 -43.067742 
L 562.586508 -43.047954 
L 563.194784 -43.029148 
L 563.803061 -43.011278 
L 564.411337 -42.994298 
L 564.411337 -42.68 
L 564.411337 -42.68 
L 563.803061 -42.68 
L 563.194784 -42.68 
L 562.586508 -42.68 
L 561.978231 -42.68 
L 561.369955 -42.68 
L 560.761678 -42.68 
L 560.153402 -42.68 
L 559.545125 -42.68 
L 558.936849 -42.68 
L 558.328572 -42.68 
L 557.720296 -42.68 
L 557.112019 -42.68 
L 556.503743 -42.68 
L 555.895466 -42.68 
L 555.287189 -42.68 
L 554.678913 -42.68 
L 554.070636 -42.68 
L 553.46236 -42.68 
L 552.854083 -42.68 
L 552.245807 -42.68 
L 551.63753 -42.68 
L 551.029254 -42.68 
L 550.420977 -42.68 
L 549.812701 -42.68 
L 549.204424 -42.68 
L 548.596148 -42.68 
L 547.987871 -42.68 
L 547.379595 -42.68 
L 546.771318 -42.68 
L 546.163041 -42.68 
L 545.554765 -42.68 
L 544.946488 -42.68 
L 544.338212 -42.68 
L 543.729935 -42.68 
L 543.121659 -42.68 
L 542.513382 -42.68 
L 541.905106 -42.68 
L 541.296829 -42.68 
L 540.688553 -42.68 
L 540.080276 -42.68 
L 539.472 -42.68 
L 538.863723 -42.68 
L 538.255447 -42.68 
L 537.64717 -42.68 
L 537.038893 -42.68 
L 536.430617 -42.68 
L 535.82234 -42.68 
L 535.214064 -42.68 
L 534.605787 -42.68 
L 533.997511 -42.68 
L 533.389234 -42.68 
L 532.780958 -42.68 
L 532.172681 -42.68 
L 531.564405 -42.68 
L 530.956128 -42.68 
L 530.347852 -42.68 
L 529.739575 -42.68 
L 529.131299 -42.68 
L 528.523022 -42.68 
L 527.914746 -42.68 
L 527.306469 -42.68 
L 526.698192 -42.68 
L 526.089916 -42.68 
L 525.481639 -42.68 
L 524.873363 -42.68 
L 524.265086 -42.68 
L 523.65681 -42.68 
L 523.048533 -42.68 
L 522.440257 -42.68 
L 521.83198 -42.68 
L 521.223704 -42.68 
L 520.615427 -42.68 
L 520.007151 -42.68 
L 519.398874 -42.68 
L 518.790598 -42.68 
L 518.182321 -42.68 
L 517.574044 -42.68 
L 516.965768 -42.68 
L 516.357491 -42.68 
L 515.749215 -42.68 
L 515.140938 -42.68 
L 514.532662 -42.68 
L 513.924385 -42.68 
L 513.316109 -42.68 
L 512.707832 -42.68 
L 512.099556 -42.68 
L 511.491279 -42.68 
L 510.883003 -42.68 
L 510.274726 -42.68 
L 509.66645 -42.68 
L 509.058173 -42.68 
L 508.449896 -42.68 
L 507.84162 -42.68 
L 507.233343 -42.68 
L 506.625067 -42.68 
L 506.01679 -42.68 
L 505.408514 -42.68 
L 504.800237 -42.68 
L 504.191961 -42.68 
z
" id="m5024cb0aa4" style="stroke:#1f77b4;stroke-opacity:0.7;"/>
    </defs>
    <g clip-path="url(#pf2b50a14bf)">
     <use style="fill:#1f77b4;fill-opacity:0.7;stroke:#1f77b4;stroke-opacity:0.7;" x="0" xlink:href="#m5024cb0aa4" y="345.6"/>
    </g>
   </g>
   <g id="matplotlib.axis_3">
    <g id="xtick_4">
     <g id="line2d_10">
      <g>
       <use style="stroke:#000000;stroke-width:0.8;" x="378.179763" xlink:href="#m57f21c1419" y="302.92"/>
      </g>
     </g>
     <g id="text_13">
      <!-- -2.05 -->
      <g transform="translate(365.243045 317.518437)scale(0.1 -0.1)">
       <use xlink:href="#DejaVuSans-2d"/>
       <use x="36.083984" xlink:href="#DejaVuSans-32"/>
       <use x="99.707031" xlink:href="#DejaVuSans-2e"/>
       <use x="131.494141" xlink:href="#DejaVuSans-30"/>
       <use x="195.117188" xlink:href="#DejaVuSans-35"/>
      </g>
     </g>
    </g>
    <g id="xtick_5">
     <g id="line2d_11">
      <g>
       <use style="stroke:#000000;stroke-width:0.8;" x="504.191961" xlink:href="#m57f21c1419" y="302.92"/>
      </g>
     </g>
     <g id="text_14">
      <!-- 2.05 -->
      <g transform="translate(493.059148 317.518437)scale(0.1 -0.1)">
       <use xlink:href="#DejaVuSans-32"/>
       <use x="63.623047" xlink:href="#DejaVuSans-2e"/>
       <use x="95.410156" xlink:href="#DejaVuSans-30"/>
       <use x="159.033203" xlink:href="#DejaVuSans-35"/>
      </g>
     </g>
    </g>
    <g id="xtick_6">
     <g id="line2d_12">
      <g>
       <use style="stroke:#000000;stroke-width:0.8;" x="441.185862" xlink:href="#m57f21c1419" y="302.92"/>
      </g>
     </g>
     <g id="text_15">
      <!-- 0 -->
      <g transform="translate(438.004612 317.518437)scale(0.1 -0.1)">
       <use xlink:href="#DejaVuSans-30"/>
      </g>
     </g>
    </g>
    <g id="text_16">
     <!-- t-value -->
     <g transform="translate(422.166175 331.956406)scale(0.11 -0.11)">
      <use xlink:href="#DejaVuSans-74"/>
      <use x="39.208984" xlink:href="#DejaVuSans-2d"/>
      <use x="72.667969" xlink:href="#DejaVuSans-76"/>
      <use x="131.847656" xlink:href="#DejaVuSans-61"/>
      <use x="193.126953" xlink:href="#DejaVuSans-6c"/>
      <use x="220.910156" xlink:href="#DejaVuSans-75"/>
      <use x="284.289062" xlink:href="#DejaVuSans-65"/>
     </g>
    </g>
   </g>
   <g id="matplotlib.axis_4">
    <g id="ytick_6">
     <g id="line2d_13">
      <g>
       <use style="stroke:#000000;stroke-width:0.8;" x="317.960387" xlink:href="#m38874f7634" y="302.92"/>
      </g>
     </g>
     <g id="text_17">
      <!-- 0.0 -->
      <g transform="translate(295.057262 306.719219)scale(0.1 -0.1)">
       <use xlink:href="#DejaVuSans-30"/>
       <use x="63.623047" xlink:href="#DejaVuSans-2e"/>
       <use x="95.410156" xlink:href="#DejaVuSans-30"/>
      </g>
     </g>
    </g>
    <g id="ytick_7">
     <g id="line2d_14">
      <g>
       <use style="stroke:#000000;stroke-width:0.8;" x="317.960387" xlink:href="#m38874f7634" y="245.058112"/>
      </g>
     </g>
     <g id="text_18">
      <!-- 0.1 -->
      <g transform="translate(295.057262 248.857331)scale(0.1 -0.1)">
       <use xlink:href="#DejaVuSans-30"/>
       <use x="63.623047" xlink:href="#DejaVuSans-2e"/>
       <use x="95.410156" xlink:href="#DejaVuSans-31"/>
      </g>
     </g>
    </g>
    <g id="ytick_8">
     <g id="line2d_15">
      <g>
       <use style="stroke:#000000;stroke-width:0.8;" x="317.960387" xlink:href="#m38874f7634" y="187.196224"/>
      </g>
     </g>
     <g id="text_19">
      <!-- 0.2 -->
      <g transform="translate(295.057262 190.995443)scale(0.1 -0.1)">
       <use xlink:href="#DejaVuSans-30"/>
       <use x="63.623047" xlink:href="#DejaVuSans-2e"/>
       <use x="95.410156" xlink:href="#DejaVuSans-32"/>
      </g>
     </g>
    </g>
    <g id="ytick_9">
     <g id="line2d_16">
      <g>
       <use style="stroke:#000000;stroke-width:0.8;" x="317.960387" xlink:href="#m38874f7634" y="129.334336"/>
      </g>
     </g>
     <g id="text_20">
      <!-- 0.3 -->
      <g transform="translate(295.057262 133.133555)scale(0.1 -0.1)">
       <use xlink:href="#DejaVuSans-30"/>
       <use x="63.623047" xlink:href="#DejaVuSans-2e"/>
       <use x="95.410156" xlink:href="#DejaVuSans-33"/>
      </g>
     </g>
    </g>
    <g id="ytick_10">
     <g id="line2d_17">
      <g>
       <use style="stroke:#000000;stroke-width:0.8;" x="317.960387" xlink:href="#m38874f7634" y="71.472448"/>
      </g>
     </g>
     <g id="text_21">
      <!-- 0.4 -->
      <g transform="translate(295.057262 75.271667)scale(0.1 -0.1)">
       <use xlink:href="#DejaVuSans-30"/>
       <use x="63.623047" xlink:href="#DejaVuSans-2e"/>
       <use x="95.410156" xlink:href="#DejaVuSans-34"/>
      </g>
     </g>
    </g>
   </g>
   <g id="LineCollection_3">
    <path clip-path="url(#pf2b50a14bf)" d="M 378.179763 302.92 
L 378.179763 272.594933 
" style="fill:none;stroke:#000000;"/>
   </g>
   <g id="LineCollection_4">
    <path clip-path="url(#pf2b50a14bf)" d="M 504.191961 302.92 
L 504.191961 272.594933 
" style="fill:none;stroke:#000000;"/>
   </g>
   <g id="line2d_18">
    <path clip-path="url(#pf2b50a14bf)" d="M 317.960387 302.605702 
L 326.202893 302.283283 
L 332.796899 301.813851 
L 337.742403 301.260564 
L 341.863656 300.608129 
L 345.984909 299.719849 
L 349.281912 298.789994 
L 352.578915 297.615524 
L 355.051667 296.541659 
L 357.524419 295.273527 
L 359.997171 293.782181 
L 362.469923 292.035935 
L 364.942675 290.000512 
L 367.415427 287.639304 
L 369.888179 284.913796 
L 372.360931 281.78415 
L 374.833683 278.209986 
L 377.306435 274.151373 
L 379.779187 269.57003 
L 382.251939 264.430742 
L 384.724691 258.70298 
L 387.197443 252.362694 
L 389.670195 245.394239 
L 392.142947 237.792373 
L 394.615699 229.56425 
L 397.912702 217.658583 
L 401.209704 204.775234 
L 405.330958 187.532605 
L 411.100712 162.066771 
L 417.694718 133.004428 
L 420.991721 119.375673 
L 423.464473 109.880753 
L 425.937225 101.198034 
L 428.409977 93.490039 
L 430.058478 88.967457 
L 431.706979 84.98504 
L 433.355481 81.578699 
L 435.003982 78.779593 
L 436.652483 76.61363 
L 437.476734 75.774632 
L 438.300985 75.101045 
L 439.125235 74.594457 
L 439.949486 74.256064 
L 440.773737 74.086667 
L 441.597987 74.086667 
L 442.422238 74.256064 
L 443.246489 74.594457 
L 444.070739 75.101045 
L 444.89499 75.774632 
L 445.719241 76.61363 
L 447.367742 78.779593 
L 449.016243 81.578699 
L 450.664745 84.98504 
L 452.313246 88.967457 
L 453.961747 93.490039 
L 455.610249 98.512696 
L 458.083001 106.888035 
L 460.555753 116.13086 
L 463.852755 129.512628 
L 467.974009 147.366512 
L 478.689268 194.560077 
L 481.98627 208.080433 
L 485.283273 220.731316 
L 488.580276 232.375532 
L 491.053028 240.396542 
L 493.52578 247.787413 
L 495.998532 254.545341 
L 498.471284 260.679258 
L 500.944036 266.207832 
L 503.416788 271.15748 
L 505.88954 275.560484 
L 508.362292 279.453251 
L 510.835044 282.874761 
L 513.307796 285.865216 
L 515.780548 288.464916 
L 518.2533 290.713333 
L 520.726052 292.648404 
L 523.198804 294.305999 
L 525.671556 295.719553 
L 528.144308 296.91985 
L 531.441311 298.236546 
L 534.738313 299.282415 
L 538.035316 300.107844 
L 542.156569 300.893793 
L 547.102073 301.563812 
L 552.871828 302.079483 
L 559.465833 302.439021 
L 564.411337 302.605702 
L 564.411337 302.605702 
" style="fill:none;stroke:#000000;stroke-linecap:square;"/>
   </g>
   <g id="patch_10">
    <path d="M 317.960387 302.92 
L 317.960387 28.32 
" style="fill:none;stroke:#000000;stroke-linecap:square;stroke-linejoin:miter;stroke-width:0.8;"/>
   </g>
   <g id="patch_11">
    <path d="M 564.411337 302.92 
L 564.411337 28.32 
" style="fill:none;stroke:#000000;stroke-linecap:square;stroke-linejoin:miter;stroke-width:0.8;"/>
   </g>
   <g id="patch_12">
    <path d="M 317.960387 302.92 
L 564.411337 302.92 
" style="fill:none;stroke:#000000;stroke-linecap:square;stroke-linejoin:miter;stroke-width:0.8;"/>
   </g>
   <g id="patch_13">
    <path d="M 317.960387 28.32 
L 564.411337 28.32 
" style="fill:none;stroke:#000000;stroke-linecap:square;stroke-linejoin:miter;stroke-width:0.8;"/>
   </g>
   <g id="patch_14">
    <path d="M 340.5176 273.11543 
Q 348.684092 283.250131 356.359533 292.775431 
" style="fill:none;stroke:#000000;stroke-linecap:round;stroke-width:0.7;"/>
    <path d="M 355.407088 288.405894 
L 356.359533 292.775431 
L 352.292437 290.915665 
" style="fill:none;stroke:#000000;stroke-linecap:round;stroke-width:0.7;"/>
   </g>
   <g id="text_22">
    <!-- 0.025 -->
    <g transform="translate(319.44195 267.483606)scale(0.1 -0.1)">
     <use xlink:href="#DejaVuSans-30"/>
     <use x="63.623047" xlink:href="#DejaVuSans-2e"/>
     <use x="95.410156" xlink:href="#DejaVuSans-30"/>
     <use x="159.033203" xlink:href="#DejaVuSans-32"/>
     <use x="222.65625" xlink:href="#DejaVuSans-35"/>
    </g>
   </g>
   <g id="patch_15">
    <path d="M 541.854124 273.11543 
Q 533.687632 283.250131 526.012191 292.775431 
" style="fill:none;stroke:#000000;stroke-linecap:round;stroke-width:0.7;"/>
    <path d="M 530.079287 290.915665 
L 526.012191 292.775431 
L 526.964636 288.405894 
" style="fill:none;stroke:#000000;stroke-linecap:round;stroke-width:0.7;"/>
   </g>
   <g id="text_23">
    <!-- 0.025 -->
    <g transform="translate(534.301649 267.483606)scale(0.1 -0.1)">
     <use xlink:href="#DejaVuSans-30"/>
     <use x="63.623047" xlink:href="#DejaVuSans-2e"/>
     <use x="95.410156" xlink:href="#DejaVuSans-30"/>
     <use x="159.033203" xlink:href="#DejaVuSans-32"/>
     <use x="222.65625" xlink:href="#DejaVuSans-35"/>
    </g>
   </g>
   <g id="text_24">
    <!-- Confidence level: 95%, $\alpha$ = 0.05, df=29 -->
    <g transform="translate(321.725862 22.32)scale(0.12 -0.12)">
     <use transform="translate(0 0.015625)" xlink:href="#DejaVuSans-43"/>
     <use transform="translate(69.824219 0.015625)" xlink:href="#DejaVuSans-6f"/>
     <use transform="translate(131.005859 0.015625)" xlink:href="#DejaVuSans-6e"/>
     <use transform="translate(194.384766 0.015625)" xlink:href="#DejaVuSans-66"/>
     <use transform="translate(229.589844 0.015625)" xlink:href="#DejaVuSans-69"/>
     <use transform="translate(257.373047 0.015625)" xlink:href="#DejaVuSans-64"/>
     <use transform="translate(320.849609 0.015625)" xlink:href="#DejaVuSans-65"/>
     <use transform="translate(382.373047 0.015625)" xlink:href="#DejaVuSans-6e"/>
     <use transform="translate(445.751953 0.015625)" xlink:href="#DejaVuSans-63"/>
     <use transform="translate(500.732422 0.015625)" xlink:href="#DejaVuSans-65"/>
     <use transform="translate(562.255859 0.015625)" xlink:href="#DejaVuSans-20"/>
     <use transform="translate(594.042969 0.015625)" xlink:href="#DejaVuSans-6c"/>
     <use transform="translate(621.826172 0.015625)" xlink:href="#DejaVuSans-65"/>
     <use transform="translate(683.349609 0.015625)" xlink:href="#DejaVuSans-76"/>
     <use transform="translate(742.529297 0.015625)" xlink:href="#DejaVuSans-65"/>
     <use transform="translate(804.052734 0.015625)" xlink:href="#DejaVuSans-6c"/>
     <use transform="translate(831.835938 0.015625)" xlink:href="#DejaVuSans-3a"/>
     <use transform="translate(865.527344 0.015625)" xlink:href="#DejaVuSans-20"/>
     <use transform="translate(897.314453 0.015625)" xlink:href="#DejaVuSans-39"/>
     <use transform="translate(960.9375 0.015625)" xlink:href="#DejaVuSans-35"/>
     <use transform="translate(1024.560547 0.015625)" xlink:href="#DejaVuSans-25"/>
     <use transform="translate(1119.580078 0.015625)" xlink:href="#DejaVuSans-2c"/>
     <use transform="translate(1151.367188 0.015625)" xlink:href="#DejaVuSans-20"/>
     <use transform="translate(1183.154297 0.015625)" xlink:href="#DejaVuSans-Oblique-3b1"/>
     <use transform="translate(1249.072266 0.015625)" xlink:href="#DejaVuSans-20"/>
     <use transform="translate(1280.859375 0.015625)" xlink:href="#DejaVuSans-3d"/>
     <use transform="translate(1364.648438 0.015625)" xlink:href="#DejaVuSans-20"/>
     <use transform="translate(1396.435547 0.015625)" xlink:href="#DejaVuSans-30"/>
     <use transform="translate(1460.058594 0.015625)" xlink:href="#DejaVuSans-2e"/>
     <use transform="translate(1491.845703 0.015625)" xlink:href="#DejaVuSans-30"/>
     <use transform="translate(1555.46875 0.015625)" xlink:href="#DejaVuSans-35"/>
     <use transform="translate(1619.091797 0.015625)" xlink:href="#DejaVuSans-2c"/>
     <use transform="translate(1650.878906 0.015625)" xlink:href="#DejaVuSans-20"/>
     <use transform="translate(1682.666016 0.015625)" xlink:href="#DejaVuSans-64"/>
     <use transform="translate(1746.142578 0.015625)" xlink:href="#DejaVuSans-66"/>
     <use transform="translate(1781.347656 0.015625)" xlink:href="#DejaVuSans-3d"/>
     <use transform="translate(1865.136719 0.015625)" xlink:href="#DejaVuSans-32"/>
     <use transform="translate(1927.009766 0.015625)" xlink:href="#DejaVuSans-39"/>
    </g>
   </g>
  </g>
  <g id="axes_3">
   <g id="patch_16">
    <path d="M 602.308806 302.92 
L 848.759757 302.92 
L 848.759757 28.32 
L 602.308806 28.32 
z
" style="fill:#ffffff;"/>
   </g>
   <g id="PolyCollection_5">
    <defs>
     <path d="M 602.308806 -42.68 
L 602.308806 -42.994298 
L 602.695789 -43.005 
L 603.082771 -43.016056 
L 603.469753 -43.027477 
L 603.856735 -43.039275 
L 604.243717 -43.051461 
L 604.6307 -43.064049 
L 605.017682 -43.07705 
L 605.404664 -43.090478 
L 605.791646 -43.104345 
L 606.178628 -43.118667 
L 606.56561 -43.133456 
L 606.952593 -43.148728 
L 607.339575 -43.164497 
L 607.726557 -43.180778 
L 608.113539 -43.197589 
L 608.500521 -43.214944 
L 608.887503 -43.232861 
L 609.274486 -43.251357 
L 609.661468 -43.27045 
L 610.04845 -43.290158 
L 610.435432 -43.310499 
L 610.822414 -43.331494 
L 611.209396 -43.353161 
L 611.596379 -43.375522 
L 611.983361 -43.398597 
L 612.370343 -43.422407 
L 612.757325 -43.446975 
L 613.144307 -43.472324 
L 613.531289 -43.498476 
L 613.918272 -43.525456 
L 614.305254 -43.553289 
L 614.692236 -43.581999 
L 615.079218 -43.611613 
L 615.4662 -43.642157 
L 615.853182 -43.673659 
L 616.240165 -43.706147 
L 616.627147 -43.739649 
L 617.014129 -43.774195 
L 617.401111 -43.809816 
L 617.788093 -43.846543 
L 618.175075 -43.884407 
L 618.562058 -43.923442 
L 618.94904 -43.96368 
L 619.336022 -44.005157 
L 619.723004 -44.047908 
L 620.109986 -44.091969 
L 620.496968 -44.137378 
L 620.883951 -44.184171 
L 621.270933 -44.232389 
L 621.657915 -44.282072 
L 622.044897 -44.333259 
L 622.431879 -44.385995 
L 622.818861 -44.44032 
L 623.205844 -44.49628 
L 623.592826 -44.553919 
L 623.979808 -44.613284 
L 624.36679 -44.674422 
L 624.753772 -44.737382 
L 625.140754 -44.802212 
L 625.527737 -44.868963 
L 625.914719 -44.937688 
L 626.301701 -45.00844 
L 626.688683 -45.081272 
L 627.075665 -45.15624 
L 627.462647 -45.233401 
L 627.84963 -45.312813 
L 628.236612 -45.394536 
L 628.623594 -45.478628 
L 629.010576 -45.565154 
L 629.397558 -45.654175 
L 629.78454 -45.745757 
L 630.171523 -45.839965 
L 630.558505 -45.936867 
L 630.945487 -46.036532 
L 631.332469 -46.139029 
L 631.719451 -46.244431 
L 632.106433 -46.352811 
L 632.493416 -46.464243 
L 632.880398 -46.578803 
L 633.26738 -46.696569 
L 633.654362 -46.81762 
L 634.041344 -46.942037 
L 634.428326 -47.069902 
L 634.815309 -47.201299 
L 635.202291 -47.336313 
L 635.589273 -47.475031 
L 635.976255 -47.617542 
L 636.363237 -47.763935 
L 636.750219 -47.914304 
L 637.137202 -48.06874 
L 637.524184 -48.22734 
L 637.911166 -48.3902 
L 638.298148 -48.557418 
L 638.68513 -48.729094 
L 639.072112 -48.905331 
L 639.459095 -49.086231 
L 639.846077 -49.271899 
L 640.233059 -49.462443 
L 640.620041 -49.65797 
L 640.620041 -42.68 
L 640.620041 -42.68 
L 640.233059 -42.68 
L 639.846077 -42.68 
L 639.459095 -42.68 
L 639.072112 -42.68 
L 638.68513 -42.68 
L 638.298148 -42.68 
L 637.911166 -42.68 
L 637.524184 -42.68 
L 637.137202 -42.68 
L 636.750219 -42.68 
L 636.363237 -42.68 
L 635.976255 -42.68 
L 635.589273 -42.68 
L 635.202291 -42.68 
L 634.815309 -42.68 
L 634.428326 -42.68 
L 634.041344 -42.68 
L 633.654362 -42.68 
L 633.26738 -42.68 
L 632.880398 -42.68 
L 632.493416 -42.68 
L 632.106433 -42.68 
L 631.719451 -42.68 
L 631.332469 -42.68 
L 630.945487 -42.68 
L 630.558505 -42.68 
L 630.171523 -42.68 
L 629.78454 -42.68 
L 629.397558 -42.68 
L 629.010576 -42.68 
L 628.623594 -42.68 
L 628.236612 -42.68 
L 627.84963 -42.68 
L 627.462647 -42.68 
L 627.075665 -42.68 
L 626.688683 -42.68 
L 626.301701 -42.68 
L 625.914719 -42.68 
L 625.527737 -42.68 
L 625.140754 -42.68 
L 624.753772 -42.68 
L 624.36679 -42.68 
L 623.979808 -42.68 
L 623.592826 -42.68 
L 623.205844 -42.68 
L 622.818861 -42.68 
L 622.431879 -42.68 
L 622.044897 -42.68 
L 621.657915 -42.68 
L 621.270933 -42.68 
L 620.883951 -42.68 
L 620.496968 -42.68 
L 620.109986 -42.68 
L 619.723004 -42.68 
L 619.336022 -42.68 
L 618.94904 -42.68 
L 618.562058 -42.68 
L 618.175075 -42.68 
L 617.788093 -42.68 
L 617.401111 -42.68 
L 617.014129 -42.68 
L 616.627147 -42.68 
L 616.240165 -42.68 
L 615.853182 -42.68 
L 615.4662 -42.68 
L 615.079218 -42.68 
L 614.692236 -42.68 
L 614.305254 -42.68 
L 613.918272 -42.68 
L 613.531289 -42.68 
L 613.144307 -42.68 
L 612.757325 -42.68 
L 612.370343 -42.68 
L 611.983361 -42.68 
L 611.596379 -42.68 
L 611.209396 -42.68 
L 610.822414 -42.68 
L 610.435432 -42.68 
L 610.04845 -42.68 
L 609.661468 -42.68 
L 609.274486 -42.68 
L 608.887503 -42.68 
L 608.500521 -42.68 
L 608.113539 -42.68 
L 607.726557 -42.68 
L 607.339575 -42.68 
L 606.952593 -42.68 
L 606.56561 -42.68 
L 606.178628 -42.68 
L 605.791646 -42.68 
L 605.404664 -42.68 
L 605.017682 -42.68 
L 604.6307 -42.68 
L 604.243717 -42.68 
L 603.856735 -42.68 
L 603.469753 -42.68 
L 603.082771 -42.68 
L 602.695789 -42.68 
L 602.308806 -42.68 
z
" id="mb63f390791" style="stroke:#1f77b4;stroke-opacity:0.7;"/>
    </defs>
    <g clip-path="url(#p256a02e30e)">
     <use style="fill:#1f77b4;fill-opacity:0.7;stroke:#1f77b4;stroke-opacity:0.7;" x="0" xlink:href="#mb63f390791" y="345.6"/>
    </g>
   </g>
   <g id="PolyCollection_6">
    <defs>
     <path d="M 810.448523 -42.68 
L 810.448523 -49.65797 
L 810.835505 -49.462443 
L 811.222487 -49.271899 
L 811.609469 -49.086231 
L 811.996451 -48.905331 
L 812.383434 -48.729094 
L 812.770416 -48.557418 
L 813.157398 -48.3902 
L 813.54438 -48.22734 
L 813.931362 -48.06874 
L 814.318344 -47.914304 
L 814.705327 -47.763935 
L 815.092309 -47.617542 
L 815.479291 -47.475031 
L 815.866273 -47.336313 
L 816.253255 -47.201299 
L 816.640237 -47.069902 
L 817.02722 -46.942037 
L 817.414202 -46.81762 
L 817.801184 -46.696569 
L 818.188166 -46.578803 
L 818.575148 -46.464243 
L 818.96213 -46.352811 
L 819.349113 -46.244431 
L 819.736095 -46.139029 
L 820.123077 -46.036532 
L 820.510059 -45.936867 
L 820.897041 -45.839965 
L 821.284023 -45.745757 
L 821.671006 -45.654175 
L 822.057988 -45.565154 
L 822.44497 -45.478628 
L 822.831952 -45.394536 
L 823.218934 -45.312813 
L 823.605916 -45.233401 
L 823.992899 -45.15624 
L 824.379881 -45.081272 
L 824.766863 -45.00844 
L 825.153845 -44.937688 
L 825.540827 -44.868963 
L 825.927809 -44.802212 
L 826.314792 -44.737382 
L 826.701774 -44.674422 
L 827.088756 -44.613284 
L 827.475738 -44.553919 
L 827.86272 -44.49628 
L 828.249702 -44.44032 
L 828.636685 -44.385995 
L 829.023667 -44.333259 
L 829.410649 -44.282072 
L 829.797631 -44.232389 
L 830.184613 -44.184171 
L 830.571595 -44.137378 
L 830.958578 -44.091969 
L 831.34556 -44.047908 
L 831.732542 -44.005157 
L 832.119524 -43.96368 
L 832.506506 -43.923442 
L 832.893488 -43.884407 
L 833.280471 -43.846543 
L 833.667453 -43.809816 
L 834.054435 -43.774195 
L 834.441417 -43.739649 
L 834.828399 -43.706147 
L 835.215381 -43.673659 
L 835.602364 -43.642157 
L 835.989346 -43.611613 
L 836.376328 -43.581999 
L 836.76331 -43.553289 
L 837.150292 -43.525456 
L 837.537274 -43.498476 
L 837.924257 -43.472324 
L 838.311239 -43.446975 
L 838.698221 -43.422407 
L 839.085203 -43.398597 
L 839.472185 -43.375522 
L 839.859168 -43.353161 
L 840.24615 -43.331494 
L 840.633132 -43.310499 
L 841.020114 -43.290158 
L 841.407096 -43.27045 
L 841.794078 -43.251357 
L 842.181061 -43.232861 
L 842.568043 -43.214944 
L 842.955025 -43.197589 
L 843.342007 -43.180778 
L 843.728989 -43.164497 
L 844.115971 -43.148728 
L 844.502954 -43.133456 
L 844.889936 -43.118667 
L 845.276918 -43.104345 
L 845.6639 -43.090478 
L 846.050882 -43.07705 
L 846.437864 -43.064049 
L 846.824847 -43.051461 
L 847.211829 -43.039275 
L 847.598811 -43.027477 
L 847.985793 -43.016056 
L 848.372775 -43.005 
L 848.759757 -42.994298 
L 848.759757 -42.68 
L 848.759757 -42.68 
L 848.372775 -42.68 
L 847.985793 -42.68 
L 847.598811 -42.68 
L 847.211829 -42.68 
L 846.824847 -42.68 
L 846.437864 -42.68 
L 846.050882 -42.68 
L 845.6639 -42.68 
L 845.276918 -42.68 
L 844.889936 -42.68 
L 844.502954 -42.68 
L 844.115971 -42.68 
L 843.728989 -42.68 
L 843.342007 -42.68 
L 842.955025 -42.68 
L 842.568043 -42.68 
L 842.181061 -42.68 
L 841.794078 -42.68 
L 841.407096 -42.68 
L 841.020114 -42.68 
L 840.633132 -42.68 
L 840.24615 -42.68 
L 839.859168 -42.68 
L 839.472185 -42.68 
L 839.085203 -42.68 
L 838.698221 -42.68 
L 838.311239 -42.68 
L 837.924257 -42.68 
L 837.537274 -42.68 
L 837.150292 -42.68 
L 836.76331 -42.68 
L 836.376328 -42.68 
L 835.989346 -42.68 
L 835.602364 -42.68 
L 835.215381 -42.68 
L 834.828399 -42.68 
L 834.441417 -42.68 
L 834.054435 -42.68 
L 833.667453 -42.68 
L 833.280471 -42.68 
L 832.893488 -42.68 
L 832.506506 -42.68 
L 832.119524 -42.68 
L 831.732542 -42.68 
L 831.34556 -42.68 
L 830.958578 -42.68 
L 830.571595 -42.68 
L 830.184613 -42.68 
L 829.797631 -42.68 
L 829.410649 -42.68 
L 829.023667 -42.68 
L 828.636685 -42.68 
L 828.249702 -42.68 
L 827.86272 -42.68 
L 827.475738 -42.68 
L 827.088756 -42.68 
L 826.701774 -42.68 
L 826.314792 -42.68 
L 825.927809 -42.68 
L 825.540827 -42.68 
L 825.153845 -42.68 
L 824.766863 -42.68 
L 824.379881 -42.68 
L 823.992899 -42.68 
L 823.605916 -42.68 
L 823.218934 -42.68 
L 822.831952 -42.68 
L 822.44497 -42.68 
L 822.057988 -42.68 
L 821.671006 -42.68 
L 821.284023 -42.68 
L 820.897041 -42.68 
L 820.510059 -42.68 
L 820.123077 -42.68 
L 819.736095 -42.68 
L 819.349113 -42.68 
L 818.96213 -42.68 
L 818.575148 -42.68 
L 818.188166 -42.68 
L 817.801184 -42.68 
L 817.414202 -42.68 
L 817.02722 -42.68 
L 816.640237 -42.68 
L 816.253255 -42.68 
L 815.866273 -42.68 
L 815.479291 -42.68 
L 815.092309 -42.68 
L 814.705327 -42.68 
L 814.318344 -42.68 
L 813.931362 -42.68 
L 813.54438 -42.68 
L 813.157398 -42.68 
L 812.770416 -42.68 
L 812.383434 -42.68 
L 811.996451 -42.68 
L 811.609469 -42.68 
L 811.222487 -42.68 
L 810.835505 -42.68 
L 810.448523 -42.68 
z
" id="mae7f4ad8be" style="stroke:#1f77b4;stroke-opacity:0.7;"/>
    </defs>
    <g clip-path="url(#p256a02e30e)">
     <use style="fill:#1f77b4;fill-opacity:0.7;stroke:#1f77b4;stroke-opacity:0.7;" x="0" xlink:href="#mae7f4ad8be" y="345.6"/>
    </g>
   </g>
   <g id="matplotlib.axis_5">
    <g id="xtick_7">
     <g id="line2d_19">
      <g>
       <use style="stroke:#000000;stroke-width:0.8;" x="640.620041" xlink:href="#m57f21c1419" y="302.92"/>
      </g>
     </g>
     <g id="text_25">
      <!-- -2.76 -->
      <g transform="translate(627.683322 317.518437)scale(0.1 -0.1)">
       <defs>
        <path d="M 2113 2584 
Q 1688 2584 1439 2293 
Q 1191 2003 1191 1497 
Q 1191 994 1439 701 
Q 1688 409 2113 409 
Q 2538 409 2786 701 
Q 3034 994 3034 1497 
Q 3034 2003 2786 2293 
Q 2538 2584 2113 2584 
z
M 3366 4563 
L 3366 3988 
Q 3128 4100 2886 4159 
Q 2644 4219 2406 4219 
Q 1781 4219 1451 3797 
Q 1122 3375 1075 2522 
Q 1259 2794 1537 2939 
Q 1816 3084 2150 3084 
Q 2853 3084 3261 2657 
Q 3669 2231 3669 1497 
Q 3669 778 3244 343 
Q 2819 -91 2113 -91 
Q 1303 -91 875 529 
Q 447 1150 447 2328 
Q 447 3434 972 4092 
Q 1497 4750 2381 4750 
Q 2619 4750 2861 4703 
Q 3103 4656 3366 4563 
z
" id="DejaVuSans-36" transform="scale(0.015625)"/>
       </defs>
       <use xlink:href="#DejaVuSans-2d"/>
       <use x="36.083984" xlink:href="#DejaVuSans-32"/>
       <use x="99.707031" xlink:href="#DejaVuSans-2e"/>
       <use x="131.494141" xlink:href="#DejaVuSans-37"/>
       <use x="195.117188" xlink:href="#DejaVuSans-36"/>
      </g>
     </g>
    </g>
    <g id="xtick_8">
     <g id="line2d_20">
      <g>
       <use style="stroke:#000000;stroke-width:0.8;" x="810.448523" xlink:href="#m57f21c1419" y="302.92"/>
      </g>
     </g>
     <g id="text_26">
      <!-- 2.76 -->
      <g transform="translate(799.31571 317.518437)scale(0.1 -0.1)">
       <use xlink:href="#DejaVuSans-32"/>
       <use x="63.623047" xlink:href="#DejaVuSans-2e"/>
       <use x="95.410156" xlink:href="#DejaVuSans-37"/>
       <use x="159.033203" xlink:href="#DejaVuSans-36"/>
      </g>
     </g>
    </g>
    <g id="xtick_9">
     <g id="line2d_21">
      <g>
       <use style="stroke:#000000;stroke-width:0.8;" x="725.534282" xlink:href="#m57f21c1419" y="302.92"/>
      </g>
     </g>
     <g id="text_27">
      <!-- 0 -->
      <g transform="translate(722.353032 317.518437)scale(0.1 -0.1)">
       <use xlink:href="#DejaVuSans-30"/>
      </g>
     </g>
    </g>
    <g id="text_28">
     <!-- t-value -->
     <g transform="translate(706.514594 331.956406)scale(0.11 -0.11)">
      <use xlink:href="#DejaVuSans-74"/>
      <use x="39.208984" xlink:href="#DejaVuSans-2d"/>
      <use x="72.667969" xlink:href="#DejaVuSans-76"/>
      <use x="131.847656" xlink:href="#DejaVuSans-61"/>
      <use x="193.126953" xlink:href="#DejaVuSans-6c"/>
      <use x="220.910156" xlink:href="#DejaVuSans-75"/>
      <use x="284.289062" xlink:href="#DejaVuSans-65"/>
     </g>
    </g>
   </g>
   <g id="matplotlib.axis_6">
    <g id="ytick_11">
     <g id="line2d_22">
      <g>
       <use style="stroke:#000000;stroke-width:0.8;" x="602.308806" xlink:href="#m38874f7634" y="302.92"/>
      </g>
     </g>
     <g id="text_29">
      <!-- 0.0 -->
      <g transform="translate(579.405681 306.719219)scale(0.1 -0.1)">
       <use xlink:href="#DejaVuSans-30"/>
       <use x="63.623047" xlink:href="#DejaVuSans-2e"/>
       <use x="95.410156" xlink:href="#DejaVuSans-30"/>
      </g>
     </g>
    </g>
    <g id="ytick_12">
     <g id="line2d_23">
      <g>
       <use style="stroke:#000000;stroke-width:0.8;" x="602.308806" xlink:href="#m38874f7634" y="245.058112"/>
      </g>
     </g>
     <g id="text_30">
      <!-- 0.1 -->
      <g transform="translate(579.405681 248.857331)scale(0.1 -0.1)">
       <use xlink:href="#DejaVuSans-30"/>
       <use x="63.623047" xlink:href="#DejaVuSans-2e"/>
       <use x="95.410156" xlink:href="#DejaVuSans-31"/>
      </g>
     </g>
    </g>
    <g id="ytick_13">
     <g id="line2d_24">
      <g>
       <use style="stroke:#000000;stroke-width:0.8;" x="602.308806" xlink:href="#m38874f7634" y="187.196224"/>
      </g>
     </g>
     <g id="text_31">
      <!-- 0.2 -->
      <g transform="translate(579.405681 190.995443)scale(0.1 -0.1)">
       <use xlink:href="#DejaVuSans-30"/>
       <use x="63.623047" xlink:href="#DejaVuSans-2e"/>
       <use x="95.410156" xlink:href="#DejaVuSans-32"/>
      </g>
     </g>
    </g>
    <g id="ytick_14">
     <g id="line2d_25">
      <g>
       <use style="stroke:#000000;stroke-width:0.8;" x="602.308806" xlink:href="#m38874f7634" y="129.334336"/>
      </g>
     </g>
     <g id="text_32">
      <!-- 0.3 -->
      <g transform="translate(579.405681 133.133555)scale(0.1 -0.1)">
       <use xlink:href="#DejaVuSans-30"/>
       <use x="63.623047" xlink:href="#DejaVuSans-2e"/>
       <use x="95.410156" xlink:href="#DejaVuSans-33"/>
      </g>
     </g>
    </g>
    <g id="ytick_15">
     <g id="line2d_26">
      <g>
       <use style="stroke:#000000;stroke-width:0.8;" x="602.308806" xlink:href="#m38874f7634" y="71.472448"/>
      </g>
     </g>
     <g id="text_33">
      <!-- 0.4 -->
      <g transform="translate(579.405681 75.271667)scale(0.1 -0.1)">
       <use xlink:href="#DejaVuSans-30"/>
       <use x="63.623047" xlink:href="#DejaVuSans-2e"/>
       <use x="95.410156" xlink:href="#DejaVuSans-34"/>
      </g>
     </g>
    </g>
   </g>
   <g id="LineCollection_5">
    <path clip-path="url(#p256a02e30e)" d="M 640.620041 302.92 
L 640.620041 295.94203 
" style="fill:none;stroke:#000000;"/>
   </g>
   <g id="LineCollection_6">
    <path clip-path="url(#p256a02e30e)" d="M 810.448523 302.92 
L 810.448523 295.94203 
" style="fill:none;stroke:#000000;"/>
   </g>
   <g id="line2d_27">
    <path clip-path="url(#p256a02e30e)" d="M 602.308806 302.605702 
L 610.551313 302.283283 
L 617.145319 301.813851 
L 622.090823 301.260564 
L 626.212076 300.608129 
L 630.333329 299.719849 
L 633.630332 298.789994 
L 636.927335 297.615524 
L 639.400087 296.541659 
L 641.872839 295.273527 
L 644.345591 293.782181 
L 646.818343 292.035935 
L 649.291095 290.000512 
L 651.763847 287.639304 
L 654.236599 284.913796 
L 656.709351 281.78415 
L 659.182103 278.209986 
L 661.654855 274.151373 
L 664.127607 269.57003 
L 666.600359 264.430742 
L 669.073111 258.70298 
L 671.545863 252.362694 
L 674.018615 245.394239 
L 676.491367 237.792373 
L 678.964119 229.56425 
L 682.261122 217.658583 
L 685.558124 204.775234 
L 689.679378 187.532605 
L 695.449132 162.066771 
L 702.043138 133.004428 
L 705.34014 119.375673 
L 707.812892 109.880753 
L 710.285644 101.198034 
L 712.758397 93.490039 
L 714.406898 88.967457 
L 716.055399 84.98504 
L 717.703901 81.578699 
L 719.352402 78.779593 
L 721.000903 76.61363 
L 721.825154 75.774632 
L 722.649405 75.101045 
L 723.473655 74.594457 
L 724.297906 74.256064 
L 725.122157 74.086667 
L 725.946407 74.086667 
L 726.770658 74.256064 
L 727.594909 74.594457 
L 728.419159 75.101045 
L 729.24341 75.774632 
L 730.067661 76.61363 
L 731.716162 78.779593 
L 733.364663 81.578699 
L 735.013165 84.98504 
L 736.661666 88.967457 
L 738.310167 93.490039 
L 739.958669 98.512696 
L 742.431421 106.888035 
L 744.904173 116.13086 
L 748.201175 129.512628 
L 752.322429 147.366512 
L 763.037687 194.560077 
L 766.33469 208.080433 
L 769.631693 220.731316 
L 772.928696 232.375532 
L 775.401448 240.396542 
L 777.8742 247.787413 
L 780.346952 254.545341 
L 782.819704 260.679258 
L 785.292456 266.207832 
L 787.765208 271.15748 
L 790.23796 275.560484 
L 792.710712 279.453251 
L 795.183464 282.874761 
L 797.656216 285.865216 
L 800.128968 288.464916 
L 802.60172 290.713333 
L 805.074472 292.648404 
L 807.547224 294.305999 
L 810.019976 295.719553 
L 812.492728 296.91985 
L 815.78973 298.236546 
L 819.086733 299.282415 
L 822.383736 300.107844 
L 826.504989 300.893793 
L 831.450493 301.563812 
L 837.220248 302.079483 
L 843.814253 302.439021 
L 848.759757 302.605702 
L 848.759757 302.605702 
" style="fill:none;stroke:#000000;stroke-linecap:square;"/>
   </g>
   <g id="patch_17">
    <path d="M 602.308806 302.92 
L 602.308806 28.32 
" style="fill:none;stroke:#000000;stroke-linecap:square;stroke-linejoin:miter;stroke-width:0.8;"/>
   </g>
   <g id="patch_18">
    <path d="M 848.759757 302.92 
L 848.759757 28.32 
" style="fill:none;stroke:#000000;stroke-linecap:square;stroke-linejoin:miter;stroke-width:0.8;"/>
   </g>
   <g id="patch_19">
    <path d="M 602.308806 302.92 
L 848.759757 302.92 
" style="fill:none;stroke:#000000;stroke-linecap:square;stroke-linejoin:miter;stroke-width:0.8;"/>
   </g>
   <g id="patch_20">
    <path d="M 602.308806 28.32 
L 848.759757 28.32 
" style="fill:none;stroke:#000000;stroke-linecap:square;stroke-linejoin:miter;stroke-width:0.8;"/>
   </g>
   <g id="patch_21">
    <path d="M 621.421363 278.818675 
Q 624.348688 288.595077 627.051522 297.621743 
" style="fill:none;stroke:#000000;stroke-linecap:round;stroke-width:0.7;"/>
    <path d="M 627.820097 293.216145 
L 627.051522 297.621743 
L 623.988189 294.363524 
" style="fill:none;stroke:#000000;stroke-linecap:round;stroke-width:0.7;"/>
   </g>
   <g id="text_34">
    <!-- 0.005 -->
    <g transform="translate(604.48705 272.827187)scale(0.1 -0.1)">
     <use xlink:href="#DejaVuSans-30"/>
     <use x="63.623047" xlink:href="#DejaVuSans-2e"/>
     <use x="95.410156" xlink:href="#DejaVuSans-30"/>
     <use x="159.033203" xlink:href="#DejaVuSans-30"/>
     <use x="222.65625" xlink:href="#DejaVuSans-35"/>
    </g>
   </g>
   <g id="patch_22">
    <path d="M 829.6472 278.818675 
Q 826.719875 288.595077 824.017042 297.621743 
" style="fill:none;stroke:#000000;stroke-linecap:round;stroke-width:0.7;"/>
    <path d="M 827.080375 294.363524 
L 824.017042 297.621743 
L 823.248467 293.216145 
" style="fill:none;stroke:#000000;stroke-linecap:round;stroke-width:0.7;"/>
   </g>
   <g id="text_35">
    <!-- 0.005 -->
    <g transform="translate(817.953388 272.827187)scale(0.1 -0.1)">
     <use xlink:href="#DejaVuSans-30"/>
     <use x="63.623047" xlink:href="#DejaVuSans-2e"/>
     <use x="95.410156" xlink:href="#DejaVuSans-30"/>
     <use x="159.033203" xlink:href="#DejaVuSans-30"/>
     <use x="222.65625" xlink:href="#DejaVuSans-35"/>
    </g>
   </g>
   <g id="text_36">
    <!-- Confidence level: 99%, $\alpha$ = 0.01, df=29 -->
    <g transform="translate(606.074282 22.32)scale(0.12 -0.12)">
     <use transform="translate(0 0.015625)" xlink:href="#DejaVuSans-43"/>
     <use transform="translate(69.824219 0.015625)" xlink:href="#DejaVuSans-6f"/>
     <use transform="translate(131.005859 0.015625)" xlink:href="#DejaVuSans-6e"/>
     <use transform="translate(194.384766 0.015625)" xlink:href="#DejaVuSans-66"/>
     <use transform="translate(229.589844 0.015625)" xlink:href="#DejaVuSans-69"/>
     <use transform="translate(257.373047 0.015625)" xlink:href="#DejaVuSans-64"/>
     <use transform="translate(320.849609 0.015625)" xlink:href="#DejaVuSans-65"/>
     <use transform="translate(382.373047 0.015625)" xlink:href="#DejaVuSans-6e"/>
     <use transform="translate(445.751953 0.015625)" xlink:href="#DejaVuSans-63"/>
     <use transform="translate(500.732422 0.015625)" xlink:href="#DejaVuSans-65"/>
     <use transform="translate(562.255859 0.015625)" xlink:href="#DejaVuSans-20"/>
     <use transform="translate(594.042969 0.015625)" xlink:href="#DejaVuSans-6c"/>
     <use transform="translate(621.826172 0.015625)" xlink:href="#DejaVuSans-65"/>
     <use transform="translate(683.349609 0.015625)" xlink:href="#DejaVuSans-76"/>
     <use transform="translate(742.529297 0.015625)" xlink:href="#DejaVuSans-65"/>
     <use transform="translate(804.052734 0.015625)" xlink:href="#DejaVuSans-6c"/>
     <use transform="translate(831.835938 0.015625)" xlink:href="#DejaVuSans-3a"/>
     <use transform="translate(865.527344 0.015625)" xlink:href="#DejaVuSans-20"/>
     <use transform="translate(897.314453 0.015625)" xlink:href="#DejaVuSans-39"/>
     <use transform="translate(960.9375 0.015625)" xlink:href="#DejaVuSans-39"/>
     <use transform="translate(1024.560547 0.015625)" xlink:href="#DejaVuSans-25"/>
     <use transform="translate(1119.580078 0.015625)" xlink:href="#DejaVuSans-2c"/>
     <use transform="translate(1151.367188 0.015625)" xlink:href="#DejaVuSans-20"/>
     <use transform="translate(1183.154297 0.015625)" xlink:href="#DejaVuSans-Oblique-3b1"/>
     <use transform="translate(1249.072266 0.015625)" xlink:href="#DejaVuSans-20"/>
     <use transform="translate(1280.859375 0.015625)" xlink:href="#DejaVuSans-3d"/>
     <use transform="translate(1364.648438 0.015625)" xlink:href="#DejaVuSans-20"/>
     <use transform="translate(1396.435547 0.015625)" xlink:href="#DejaVuSans-30"/>
     <use transform="translate(1460.058594 0.015625)" xlink:href="#DejaVuSans-2e"/>
     <use transform="translate(1491.845703 0.015625)" xlink:href="#DejaVuSans-30"/>
     <use transform="translate(1555.46875 0.015625)" xlink:href="#DejaVuSans-31"/>
     <use transform="translate(1619.091797 0.015625)" xlink:href="#DejaVuSans-2c"/>
     <use transform="translate(1650.878906 0.015625)" xlink:href="#DejaVuSans-20"/>
     <use transform="translate(1682.666016 0.015625)" xlink:href="#DejaVuSans-64"/>
     <use transform="translate(1746.142578 0.015625)" xlink:href="#DejaVuSans-66"/>
     <use transform="translate(1781.347656 0.015625)" xlink:href="#DejaVuSans-3d"/>
     <use transform="translate(1865.136719 0.015625)" xlink:href="#DejaVuSans-32"/>
     <use transform="translate(1927.009766 0.015625)" xlink:href="#DejaVuSans-39"/>
    </g>
   </g>
  </g>
 </g>
 <defs>
  <clipPath id="pe9c07e964b">
   <rect height="274.6" width="246.450951" x="33.611967" y="28.32"/>
  </clipPath>
  <clipPath id="pf2b50a14bf">
   <rect height="274.6" width="246.450951" x="317.960387" y="28.32"/>
  </clipPath>
  <clipPath id="p256a02e30e">
   <rect height="274.6" width="246.450951" x="602.308806" y="28.32"/>
  </clipPath>
 </defs>
</svg>
