<?xml version="1.0" encoding="utf-8" standalone="no"?>
<!DOCTYPE svg PUBLIC "-//W3C//DTD SVG 1.1//EN"
  "http://www.w3.org/Graphics/SVG/1.1/DTD/svg11.dtd">
<svg height="345.6pt" version="1.1" viewBox="0 0 691.2 345.6" width="691.2pt" xmlns="http://www.w3.org/2000/svg" xmlns:xlink="http://www.w3.org/1999/xlink">
 <metadata>
  <rdf:RDF xmlns:cc="http://creativecommons.org/ns#" xmlns:dc="http://purl.org/dc/elements/1.1/" xmlns:rdf="http://www.w3.org/1999/02/22-rdf-syntax-ns#">
   <cc:Work>
    <dc:type rdf:resource="http://purl.org/dc/dcmitype/StillImage"/>
    <dc:date>2021-07-02T05:39:01.755489</dc:date>
    <dc:format>image/svg+xml</dc:format>
    <dc:creator>
     <cc:Agent>
      <dc:title>Matplotlib v3.4.2, https://matplotlib.org/</dc:title>
     </cc:Agent>
    </dc:creator>
   </cc:Work>
  </rdf:RDF>
 </metadata>
 <defs>
  <style type="text/css">*{stroke-linecap:butt;stroke-linejoin:round;}</style>
 </defs>
 <g id="figure_1">
  <g id="patch_1">
   <path d="M 0 345.6 
L 691.2 345.6 
L 691.2 0 
L 0 0 
z
" style="fill:#ffffff;"/>
  </g>
  <g id="axes_1">
   <g id="patch_2">
    <path d="M 86.4 307.584 
L 622.08 307.584 
L 622.08 41.472 
L 86.4 41.472 
z
" style="fill:#ffffff;"/>
   </g>
   <g id="PolyCollection_1">
    <defs>
     <path d="M 86.4 -38.016 
L 86.4 -38.087228 
L 91.810909 -38.114086 
L 97.221818 -38.150194 
L 102.632727 -38.198398 
L 108.043636 -38.262305 
L 113.454545 -38.346438 
L 118.865455 -38.456423 
L 124.276364 -38.599196 
L 129.687273 -38.783226 
L 135.098182 -39.018758 
L 140.509091 -39.318066 
L 145.92 -39.695708 
L 151.330909 -40.168775 
L 156.741818 -40.757118 
L 162.152727 -41.483534 
L 167.563636 -42.373907 
L 172.974545 -43.457257 
L 178.385455 -44.765701 
L 183.796364 -46.334288 
L 189.207273 -48.200682 
L 194.618182 -50.404681 
L 200.029091 -52.987548 
L 205.44 -55.991148 
L 210.850909 -59.456865 
L 216.261818 -63.424335 
L 221.672727 -67.929979 
L 227.083636 -73.005381 
L 232.494545 -78.675534 
L 237.905455 -84.957032 
L 243.316364 -91.856234 
L 248.727273 -99.36752 
L 254.138182 -107.471685 
L 259.549091 -116.134582 
L 264.96 -125.306098 
L 270.370909 -134.919551 
L 275.781818 -144.89158 
L 281.192727 -155.122596 
L 286.603636 -165.497836 
L 292.014545 -175.889038 
L 297.425455 -186.156723 
L 302.836364 -196.153058 
L 308.247273 -205.725216 
L 313.658182 -214.719147 
L 319.069091 -222.983626 
L 324.48 -230.374436 
L 329.890909 -236.75854 
L 335.301818 -242.018042 
L 340.712727 -246.053809 
L 346.123636 -248.78858 
L 351.534545 -250.169417 
L 356.945455 -250.169417 
L 362.356364 -248.78858 
L 367.767273 -246.053809 
L 373.178182 -242.018042 
L 378.589091 -236.75854 
L 384 -230.374436 
L 389.410909 -222.983626 
L 394.821818 -214.719147 
L 400.232727 -205.725216 
L 405.643636 -196.153058 
L 411.054545 -186.156723 
L 416.465455 -175.889038 
L 421.876364 -165.497836 
L 427.287273 -155.122596 
L 432.698182 -144.89158 
L 438.109091 -134.919551 
L 443.52 -125.306098 
L 448.930909 -116.134582 
L 454.341818 -107.471685 
L 459.752727 -99.36752 
L 465.163636 -91.856234 
L 470.574545 -84.957032 
L 475.985455 -78.675534 
L 481.396364 -73.005381 
L 486.807273 -67.929979 
L 492.218182 -63.424335 
L 497.629091 -59.456865 
L 503.04 -55.991148 
L 508.450909 -52.987548 
L 513.861818 -50.404681 
L 519.272727 -48.200682 
L 524.683636 -46.334288 
L 530.094545 -44.765701 
L 535.505455 -43.457257 
L 540.916364 -42.373907 
L 546.327273 -41.483534 
L 551.738182 -40.757118 
L 557.149091 -40.168775 
L 562.56 -39.695708 
L 567.970909 -39.318066 
L 573.381818 -39.018758 
L 578.792727 -38.783226 
L 584.203636 -38.599196 
L 589.614545 -38.456423 
L 595.025455 -38.346438 
L 600.436364 -38.262305 
L 605.847273 -38.198398 
L 611.258182 -38.150194 
L 616.669091 -38.114086 
L 622.08 -38.087228 
L 622.08 -38.016 
L 622.08 -38.016 
L 616.669091 -38.016 
L 611.258182 -38.016 
L 605.847273 -38.016 
L 600.436364 -38.016 
L 595.025455 -38.016 
L 589.614545 -38.016 
L 584.203636 -38.016 
L 578.792727 -38.016 
L 573.381818 -38.016 
L 567.970909 -38.016 
L 562.56 -38.016 
L 557.149091 -38.016 
L 551.738182 -38.016 
L 546.327273 -38.016 
L 540.916364 -38.016 
L 535.505455 -38.016 
L 530.094545 -38.016 
L 524.683636 -38.016 
L 519.272727 -38.016 
L 513.861818 -38.016 
L 508.450909 -38.016 
L 503.04 -38.016 
L 497.629091 -38.016 
L 492.218182 -38.016 
L 486.807273 -38.016 
L 481.396364 -38.016 
L 475.985455 -38.016 
L 470.574545 -38.016 
L 465.163636 -38.016 
L 459.752727 -38.016 
L 454.341818 -38.016 
L 448.930909 -38.016 
L 443.52 -38.016 
L 438.109091 -38.016 
L 432.698182 -38.016 
L 427.287273 -38.016 
L 421.876364 -38.016 
L 416.465455 -38.016 
L 411.054545 -38.016 
L 405.643636 -38.016 
L 400.232727 -38.016 
L 394.821818 -38.016 
L 389.410909 -38.016 
L 384 -38.016 
L 378.589091 -38.016 
L 373.178182 -38.016 
L 367.767273 -38.016 
L 362.356364 -38.016 
L 356.945455 -38.016 
L 351.534545 -38.016 
L 346.123636 -38.016 
L 340.712727 -38.016 
L 335.301818 -38.016 
L 329.890909 -38.016 
L 324.48 -38.016 
L 319.069091 -38.016 
L 313.658182 -38.016 
L 308.247273 -38.016 
L 302.836364 -38.016 
L 297.425455 -38.016 
L 292.014545 -38.016 
L 286.603636 -38.016 
L 281.192727 -38.016 
L 275.781818 -38.016 
L 270.370909 -38.016 
L 264.96 -38.016 
L 259.549091 -38.016 
L 254.138182 -38.016 
L 248.727273 -38.016 
L 243.316364 -38.016 
L 237.905455 -38.016 
L 232.494545 -38.016 
L 227.083636 -38.016 
L 221.672727 -38.016 
L 216.261818 -38.016 
L 210.850909 -38.016 
L 205.44 -38.016 
L 200.029091 -38.016 
L 194.618182 -38.016 
L 189.207273 -38.016 
L 183.796364 -38.016 
L 178.385455 -38.016 
L 172.974545 -38.016 
L 167.563636 -38.016 
L 162.152727 -38.016 
L 156.741818 -38.016 
L 151.330909 -38.016 
L 145.92 -38.016 
L 140.509091 -38.016 
L 135.098182 -38.016 
L 129.687273 -38.016 
L 124.276364 -38.016 
L 118.865455 -38.016 
L 113.454545 -38.016 
L 108.043636 -38.016 
L 102.632727 -38.016 
L 97.221818 -38.016 
L 91.810909 -38.016 
L 86.4 -38.016 
z
" id="m6b3d50f80b" style="stroke:#1f77b4;stroke-opacity:0.3;"/>
    </defs>
    <g clip-path="url(#p6cab2f4310)">
     <use style="fill:#1f77b4;fill-opacity:0.3;stroke:#1f77b4;stroke-opacity:0.3;" x="0" xlink:href="#m6b3d50f80b" y="345.6"/>
    </g>
   </g>
   <g id="PolyCollection_2">
    <defs>
     <path d="M 153.36 -38.016 
L 153.36 -40.374736 
L 157.418182 -40.839868 
L 161.476364 -41.384327 
L 165.534545 -42.01903 
L 169.592727 -42.75589 
L 173.650909 -43.607811 
L 177.709091 -44.588665 
L 181.767273 -45.713244 
L 185.825455 -46.99719 
L 189.883636 -48.456884 
L 193.941818 -50.109317 
L 198 -51.971919 
L 202.058182 -54.062348 
L 206.116364 -56.398255 
L 210.174545 -58.996999 
L 214.232727 -61.875334 
L 218.290909 -65.049064 
L 222.349091 -68.532662 
L 226.407273 -72.338869 
L 230.465455 -76.478272 
L 234.523636 -80.958871 
L 238.581818 -85.785644 
L 242.64 -90.960121 
L 246.698182 -96.479965 
L 250.756364 -102.3386 
L 254.814545 -108.524862 
L 258.872727 -115.022719 
L 262.930909 -121.811043 
L 266.989091 -128.863469 
L 271.047273 -136.148335 
L 275.105455 -143.628719 
L 279.163636 -151.262585 
L 283.221818 -159.003025 
L 287.28 -166.798627 
L 291.338182 -174.593939 
L 295.396364 -182.330054 
L 299.454545 -189.945284 
L 303.512727 -197.375938 
L 307.570909 -204.557169 
L 311.629091 -211.423893 
L 315.687273 -217.911752 
L 319.745455 -223.958108 
L 323.803636 -229.503041 
L 327.861818 -234.490332 
L 331.92 -238.868411 
L 335.978182 -242.591242 
L 340.036364 -245.619127 
L 344.094545 -247.919416 
L 348.152727 -249.467084 
L 352.210909 -250.245192 
L 356.269091 -250.245192 
L 360.327273 -249.467084 
L 364.385455 -247.919416 
L 368.443636 -245.619127 
L 372.501818 -242.591242 
L 376.56 -238.868411 
L 380.618182 -234.490332 
L 384.676364 -229.503041 
L 388.734545 -223.958108 
L 392.792727 -217.911752 
L 396.850909 -211.423893 
L 400.909091 -204.557169 
L 404.967273 -197.375938 
L 409.025455 -189.945284 
L 413.083636 -182.330054 
L 417.141818 -174.593939 
L 421.2 -166.798627 
L 425.258182 -159.003025 
L 429.316364 -151.262585 
L 433.374545 -143.628719 
L 437.432727 -136.148335 
L 441.490909 -128.863469 
L 445.549091 -121.811043 
L 449.607273 -115.022719 
L 453.665455 -108.524862 
L 457.723636 -102.3386 
L 461.781818 -96.479965 
L 465.84 -90.960121 
L 469.898182 -85.785644 
L 473.956364 -80.958871 
L 478.014545 -76.478272 
L 482.072727 -72.338869 
L 486.130909 -68.532662 
L 490.189091 -65.049064 
L 494.247273 -61.875334 
L 498.305455 -58.996999 
L 502.363636 -56.398255 
L 506.421818 -54.062348 
L 510.48 -51.971919 
L 514.538182 -50.109317 
L 518.596364 -48.456884 
L 522.654545 -46.99719 
L 526.712727 -45.713244 
L 530.770909 -44.588665 
L 534.829091 -43.607811 
L 538.887273 -42.75589 
L 542.945455 -42.01903 
L 547.003636 -41.384327 
L 551.061818 -40.839868 
L 555.12 -40.374736 
L 555.12 -38.016 
L 555.12 -38.016 
L 551.061818 -38.016 
L 547.003636 -38.016 
L 542.945455 -38.016 
L 538.887273 -38.016 
L 534.829091 -38.016 
L 530.770909 -38.016 
L 526.712727 -38.016 
L 522.654545 -38.016 
L 518.596364 -38.016 
L 514.538182 -38.016 
L 510.48 -38.016 
L 506.421818 -38.016 
L 502.363636 -38.016 
L 498.305455 -38.016 
L 494.247273 -38.016 
L 490.189091 -38.016 
L 486.130909 -38.016 
L 482.072727 -38.016 
L 478.014545 -38.016 
L 473.956364 -38.016 
L 469.898182 -38.016 
L 465.84 -38.016 
L 461.781818 -38.016 
L 457.723636 -38.016 
L 453.665455 -38.016 
L 449.607273 -38.016 
L 445.549091 -38.016 
L 441.490909 -38.016 
L 437.432727 -38.016 
L 433.374545 -38.016 
L 429.316364 -38.016 
L 425.258182 -38.016 
L 421.2 -38.016 
L 417.141818 -38.016 
L 413.083636 -38.016 
L 409.025455 -38.016 
L 404.967273 -38.016 
L 400.909091 -38.016 
L 396.850909 -38.016 
L 392.792727 -38.016 
L 388.734545 -38.016 
L 384.676364 -38.016 
L 380.618182 -38.016 
L 376.56 -38.016 
L 372.501818 -38.016 
L 368.443636 -38.016 
L 364.385455 -38.016 
L 360.327273 -38.016 
L 356.269091 -38.016 
L 352.210909 -38.016 
L 348.152727 -38.016 
L 344.094545 -38.016 
L 340.036364 -38.016 
L 335.978182 -38.016 
L 331.92 -38.016 
L 327.861818 -38.016 
L 323.803636 -38.016 
L 319.745455 -38.016 
L 315.687273 -38.016 
L 311.629091 -38.016 
L 307.570909 -38.016 
L 303.512727 -38.016 
L 299.454545 -38.016 
L 295.396364 -38.016 
L 291.338182 -38.016 
L 287.28 -38.016 
L 283.221818 -38.016 
L 279.163636 -38.016 
L 275.105455 -38.016 
L 271.047273 -38.016 
L 266.989091 -38.016 
L 262.930909 -38.016 
L 258.872727 -38.016 
L 254.814545 -38.016 
L 250.756364 -38.016 
L 246.698182 -38.016 
L 242.64 -38.016 
L 238.581818 -38.016 
L 234.523636 -38.016 
L 230.465455 -38.016 
L 226.407273 -38.016 
L 222.349091 -38.016 
L 218.290909 -38.016 
L 214.232727 -38.016 
L 210.174545 -38.016 
L 206.116364 -38.016 
L 202.058182 -38.016 
L 198 -38.016 
L 193.941818 -38.016 
L 189.883636 -38.016 
L 185.825455 -38.016 
L 181.767273 -38.016 
L 177.709091 -38.016 
L 173.650909 -38.016 
L 169.592727 -38.016 
L 165.534545 -38.016 
L 161.476364 -38.016 
L 157.418182 -38.016 
L 153.36 -38.016 
z
" id="m8d6fba82db" style="stroke:#1f77b4;stroke-opacity:0.4;"/>
    </defs>
    <g clip-path="url(#p6cab2f4310)">
     <use style="fill:#1f77b4;fill-opacity:0.4;stroke:#1f77b4;stroke-opacity:0.4;" x="0" xlink:href="#m8d6fba82db" y="345.6"/>
    </g>
   </g>
   <g id="PolyCollection_3">
    <defs>
     <path d="M 220.32 -38.016 
L 220.32 -66.751288 
L 223.025455 -69.144312 
L 225.730909 -71.681619 
L 228.436364 -74.366355 
L 231.141818 -77.20117 
L 233.847273 -80.188158 
L 236.552727 -83.328804 
L 239.258182 -86.623924 
L 241.963636 -90.07361 
L 244.669091 -93.677179 
L 247.374545 -97.43312 
L 250.08 -101.339048 
L 252.785455 -105.391663 
L 255.490909 -109.586706 
L 258.196364 -113.918937 
L 260.901818 -118.382097 
L 263.607273 -122.968896 
L 266.312727 -127.671002 
L 269.018182 -132.479032 
L 271.723636 -137.382561 
L 274.429091 -142.370133 
L 277.134545 -147.429288 
L 279.84 -152.546592 
L 282.545455 -157.70768 
L 285.250909 -162.897308 
L 287.956364 -168.099417 
L 290.661818 -173.297202 
L 293.367273 -178.473195 
L 296.072727 -183.609353 
L 298.778182 -188.687158 
L 301.483636 -193.68772 
L 304.189091 -198.591891 
L 306.894545 -203.380384 
L 309.6 -208.033895 
L 312.305455 -212.533231 
L 315.010909 -216.859439 
L 317.716364 -220.993938 
L 320.421818 -224.918654 
L 323.127273 -228.616145 
L 325.832727 -232.069735 
L 328.538182 -235.263635 
L 331.243636 -238.183066 
L 333.949091 -240.814371 
L 336.654545 -243.145122 
L 339.36 -245.164217 
L 342.065455 -246.86197 
L 344.770909 -248.230185 
L 347.476364 -249.262226 
L 350.181818 -249.953066 
L 352.887273 -250.299333 
L 355.592727 -250.299333 
L 358.298182 -249.953066 
L 361.003636 -249.262226 
L 363.709091 -248.230185 
L 366.414545 -246.86197 
L 369.12 -245.164217 
L 371.825455 -243.145122 
L 374.530909 -240.814371 
L 377.236364 -238.183066 
L 379.941818 -235.263635 
L 382.647273 -232.069735 
L 385.352727 -228.616145 
L 388.058182 -224.918654 
L 390.763636 -220.993938 
L 393.469091 -216.859439 
L 396.174545 -212.533231 
L 398.88 -208.033895 
L 401.585455 -203.380384 
L 404.290909 -198.591891 
L 406.996364 -193.68772 
L 409.701818 -188.687158 
L 412.407273 -183.609353 
L 415.112727 -178.473195 
L 417.818182 -173.297202 
L 420.523636 -168.099417 
L 423.229091 -162.897308 
L 425.934545 -157.70768 
L 428.64 -152.546592 
L 431.345455 -147.429288 
L 434.050909 -142.370133 
L 436.756364 -137.382561 
L 439.461818 -132.479032 
L 442.167273 -127.671002 
L 444.872727 -122.968896 
L 447.578182 -118.382097 
L 450.283636 -113.918937 
L 452.989091 -109.586706 
L 455.694545 -105.391663 
L 458.4 -101.339048 
L 461.105455 -97.43312 
L 463.810909 -93.677179 
L 466.516364 -90.07361 
L 469.221818 -86.623924 
L 471.927273 -83.328804 
L 474.632727 -80.188158 
L 477.338182 -77.20117 
L 480.043636 -74.366355 
L 482.749091 -71.681619 
L 485.454545 -69.144312 
L 488.16 -66.751288 
L 488.16 -38.016 
L 488.16 -38.016 
L 485.454545 -38.016 
L 482.749091 -38.016 
L 480.043636 -38.016 
L 477.338182 -38.016 
L 474.632727 -38.016 
L 471.927273 -38.016 
L 469.221818 -38.016 
L 466.516364 -38.016 
L 463.810909 -38.016 
L 461.105455 -38.016 
L 458.4 -38.016 
L 455.694545 -38.016 
L 452.989091 -38.016 
L 450.283636 -38.016 
L 447.578182 -38.016 
L 444.872727 -38.016 
L 442.167273 -38.016 
L 439.461818 -38.016 
L 436.756364 -38.016 
L 434.050909 -38.016 
L 431.345455 -38.016 
L 428.64 -38.016 
L 425.934545 -38.016 
L 423.229091 -38.016 
L 420.523636 -38.016 
L 417.818182 -38.016 
L 415.112727 -38.016 
L 412.407273 -38.016 
L 409.701818 -38.016 
L 406.996364 -38.016 
L 404.290909 -38.016 
L 401.585455 -38.016 
L 398.88 -38.016 
L 396.174545 -38.016 
L 393.469091 -38.016 
L 390.763636 -38.016 
L 388.058182 -38.016 
L 385.352727 -38.016 
L 382.647273 -38.016 
L 379.941818 -38.016 
L 377.236364 -38.016 
L 374.530909 -38.016 
L 371.825455 -38.016 
L 369.12 -38.016 
L 366.414545 -38.016 
L 363.709091 -38.016 
L 361.003636 -38.016 
L 358.298182 -38.016 
L 355.592727 -38.016 
L 352.887273 -38.016 
L 350.181818 -38.016 
L 347.476364 -38.016 
L 344.770909 -38.016 
L 342.065455 -38.016 
L 339.36 -38.016 
L 336.654545 -38.016 
L 333.949091 -38.016 
L 331.243636 -38.016 
L 328.538182 -38.016 
L 325.832727 -38.016 
L 323.127273 -38.016 
L 320.421818 -38.016 
L 317.716364 -38.016 
L 315.010909 -38.016 
L 312.305455 -38.016 
L 309.6 -38.016 
L 306.894545 -38.016 
L 304.189091 -38.016 
L 301.483636 -38.016 
L 298.778182 -38.016 
L 296.072727 -38.016 
L 293.367273 -38.016 
L 290.661818 -38.016 
L 287.956364 -38.016 
L 285.250909 -38.016 
L 282.545455 -38.016 
L 279.84 -38.016 
L 277.134545 -38.016 
L 274.429091 -38.016 
L 271.723636 -38.016 
L 269.018182 -38.016 
L 266.312727 -38.016 
L 263.607273 -38.016 
L 260.901818 -38.016 
L 258.196364 -38.016 
L 255.490909 -38.016 
L 252.785455 -38.016 
L 250.08 -38.016 
L 247.374545 -38.016 
L 244.669091 -38.016 
L 241.963636 -38.016 
L 239.258182 -38.016 
L 236.552727 -38.016 
L 233.847273 -38.016 
L 231.141818 -38.016 
L 228.436364 -38.016 
L 225.730909 -38.016 
L 223.025455 -38.016 
L 220.32 -38.016 
z
" id="m97da84d4f4" style="stroke:#1f77b4;stroke-opacity:0.5;"/>
    </defs>
    <g clip-path="url(#p6cab2f4310)">
     <use style="fill:#1f77b4;fill-opacity:0.5;stroke:#1f77b4;stroke-opacity:0.5;" x="0" xlink:href="#m97da84d4f4" y="345.6"/>
    </g>
   </g>
   <g id="PolyCollection_4">
    <defs>
     <path d="M 287.28 -38.016 
L 287.28 -166.798627 
L 288.632727 -169.39994 
L 289.985455 -171.999106 
L 291.338182 -174.593939 
L 292.690909 -177.182217 
L 294.043636 -179.761685 
L 295.396364 -182.330054 
L 296.749091 -184.885007 
L 298.101818 -187.424205 
L 299.454545 -189.945284 
L 300.807273 -192.445864 
L 302.16 -194.923551 
L 303.512727 -197.375938 
L 304.865455 -199.800614 
L 306.218182 -202.195162 
L 307.570909 -204.557169 
L 308.923636 -206.884225 
L 310.276364 -209.173929 
L 311.629091 -211.423893 
L 312.981818 -213.631747 
L 314.334545 -215.795141 
L 315.687273 -217.911752 
L 317.04 -219.979284 
L 318.392727 -221.995478 
L 319.745455 -223.958108 
L 321.098182 -225.864994 
L 322.450909 -227.714001 
L 323.803636 -229.503041 
L 325.156364 -231.230083 
L 326.509091 -232.893151 
L 327.861818 -234.490332 
L 329.214545 -236.019777 
L 330.567273 -237.479706 
L 331.92 -238.868411 
L 333.272727 -240.184258 
L 334.625455 -241.425692 
L 335.978182 -242.591242 
L 337.330909 -243.679517 
L 338.683636 -244.689216 
L 340.036364 -245.619127 
L 341.389091 -246.468132 
L 342.741818 -247.235204 
L 344.094545 -247.919416 
L 345.447273 -248.519936 
L 346.8 -249.036035 
L 348.152727 -249.467084 
L 349.505455 -249.812557 
L 350.858182 -250.072032 
L 352.210909 -250.245192 
L 353.563636 -250.331825 
L 354.916364 -250.331825 
L 356.269091 -250.245192 
L 357.621818 -250.072032 
L 358.974545 -249.812557 
L 360.327273 -249.467084 
L 361.68 -249.036035 
L 363.032727 -248.519936 
L 364.385455 -247.919416 
L 365.738182 -247.235204 
L 367.090909 -246.468132 
L 368.443636 -245.619127 
L 369.796364 -244.689216 
L 371.149091 -243.679517 
L 372.501818 -242.591242 
L 373.854545 -241.425692 
L 375.207273 -240.184258 
L 376.56 -238.868411 
L 377.912727 -237.479706 
L 379.265455 -236.019777 
L 380.618182 -234.490332 
L 381.970909 -232.893151 
L 383.323636 -231.230083 
L 384.676364 -229.503041 
L 386.029091 -227.714001 
L 387.381818 -225.864994 
L 388.734545 -223.958108 
L 390.087273 -221.995478 
L 391.44 -219.979284 
L 392.792727 -217.911752 
L 394.145455 -215.795141 
L 395.498182 -213.631747 
L 396.850909 -211.423893 
L 398.203636 -209.173929 
L 399.556364 -206.884225 
L 400.909091 -204.557169 
L 402.261818 -202.195162 
L 403.614545 -199.800614 
L 404.967273 -197.375938 
L 406.32 -194.923551 
L 407.672727 -192.445864 
L 409.025455 -189.945284 
L 410.378182 -187.424205 
L 411.730909 -184.885007 
L 413.083636 -182.330054 
L 414.436364 -179.761685 
L 415.789091 -177.182217 
L 417.141818 -174.593939 
L 418.494545 -171.999106 
L 419.847273 -169.39994 
L 421.2 -166.798627 
L 421.2 -38.016 
L 421.2 -38.016 
L 419.847273 -38.016 
L 418.494545 -38.016 
L 417.141818 -38.016 
L 415.789091 -38.016 
L 414.436364 -38.016 
L 413.083636 -38.016 
L 411.730909 -38.016 
L 410.378182 -38.016 
L 409.025455 -38.016 
L 407.672727 -38.016 
L 406.32 -38.016 
L 404.967273 -38.016 
L 403.614545 -38.016 
L 402.261818 -38.016 
L 400.909091 -38.016 
L 399.556364 -38.016 
L 398.203636 -38.016 
L 396.850909 -38.016 
L 395.498182 -38.016 
L 394.145455 -38.016 
L 392.792727 -38.016 
L 391.44 -38.016 
L 390.087273 -38.016 
L 388.734545 -38.016 
L 387.381818 -38.016 
L 386.029091 -38.016 
L 384.676364 -38.016 
L 383.323636 -38.016 
L 381.970909 -38.016 
L 380.618182 -38.016 
L 379.265455 -38.016 
L 377.912727 -38.016 
L 376.56 -38.016 
L 375.207273 -38.016 
L 373.854545 -38.016 
L 372.501818 -38.016 
L 371.149091 -38.016 
L 369.796364 -38.016 
L 368.443636 -38.016 
L 367.090909 -38.016 
L 365.738182 -38.016 
L 364.385455 -38.016 
L 363.032727 -38.016 
L 361.68 -38.016 
L 360.327273 -38.016 
L 358.974545 -38.016 
L 357.621818 -38.016 
L 356.269091 -38.016 
L 354.916364 -38.016 
L 353.563636 -38.016 
L 352.210909 -38.016 
L 350.858182 -38.016 
L 349.505455 -38.016 
L 348.152727 -38.016 
L 346.8 -38.016 
L 345.447273 -38.016 
L 344.094545 -38.016 
L 342.741818 -38.016 
L 341.389091 -38.016 
L 340.036364 -38.016 
L 338.683636 -38.016 
L 337.330909 -38.016 
L 335.978182 -38.016 
L 334.625455 -38.016 
L 333.272727 -38.016 
L 331.92 -38.016 
L 330.567273 -38.016 
L 329.214545 -38.016 
L 327.861818 -38.016 
L 326.509091 -38.016 
L 325.156364 -38.016 
L 323.803636 -38.016 
L 322.450909 -38.016 
L 321.098182 -38.016 
L 319.745455 -38.016 
L 318.392727 -38.016 
L 317.04 -38.016 
L 315.687273 -38.016 
L 314.334545 -38.016 
L 312.981818 -38.016 
L 311.629091 -38.016 
L 310.276364 -38.016 
L 308.923636 -38.016 
L 307.570909 -38.016 
L 306.218182 -38.016 
L 304.865455 -38.016 
L 303.512727 -38.016 
L 302.16 -38.016 
L 300.807273 -38.016 
L 299.454545 -38.016 
L 298.101818 -38.016 
L 296.749091 -38.016 
L 295.396364 -38.016 
L 294.043636 -38.016 
L 292.690909 -38.016 
L 291.338182 -38.016 
L 289.985455 -38.016 
L 288.632727 -38.016 
L 287.28 -38.016 
z
" id="m127b72f248" style="stroke:#1f77b4;stroke-opacity:0.6;"/>
    </defs>
    <g clip-path="url(#p6cab2f4310)">
     <use style="fill:#1f77b4;fill-opacity:0.6;stroke:#1f77b4;stroke-opacity:0.6;" x="0" xlink:href="#m127b72f248" y="345.6"/>
    </g>
   </g>
   <g id="matplotlib.axis_1">
    <g id="xtick_1">
     <g id="line2d_1">
      <defs>
       <path d="M 0 0 
L 0 3.5 
" id="ma74cc5a099" style="stroke:#000000;stroke-width:0.8;"/>
      </defs>
      <g>
       <use style="stroke:#000000;stroke-width:0.8;" x="86.4" xlink:href="#ma74cc5a099" y="307.584"/>
      </g>
     </g>
     <g id="text_1">
      <!-- μ -4σ -->
      <g transform="translate(73.475781 322.182437)scale(0.1 -0.1)">
       <defs>
        <path d="M 544 -1331 
L 544 3500 
L 1119 3500 
L 1119 1325 
Q 1119 872 1334 640 
Q 1550 409 1972 409 
Q 2434 409 2667 671 
Q 2900 934 2900 1459 
L 2900 3500 
L 3475 3500 
L 3475 806 
Q 3475 619 3529 530 
Q 3584 441 3700 441 
Q 3728 441 3778 458 
Q 3828 475 3916 513 
L 3916 50 
Q 3788 -22 3673 -56 
Q 3559 -91 3450 -91 
Q 3234 -91 3106 31 
Q 2978 153 2931 403 
Q 2775 156 2548 32 
Q 2322 -91 2016 -91 
Q 1697 -91 1473 31 
Q 1250 153 1119 397 
L 1119 -1331 
L 544 -1331 
z
" id="DejaVuSans-3bc" transform="scale(0.015625)"/>
        <path id="DejaVuSans-20" transform="scale(0.015625)"/>
        <path d="M 313 2009 
L 1997 2009 
L 1997 1497 
L 313 1497 
L 313 2009 
z
" id="DejaVuSans-2d" transform="scale(0.015625)"/>
        <path d="M 2419 4116 
L 825 1625 
L 2419 1625 
L 2419 4116 
z
M 2253 4666 
L 3047 4666 
L 3047 1625 
L 3713 1625 
L 3713 1100 
L 3047 1100 
L 3047 0 
L 2419 0 
L 2419 1100 
L 313 1100 
L 313 1709 
L 2253 4666 
z
" id="DejaVuSans-34" transform="scale(0.015625)"/>
        <path d="M 1959 3044 
Q 1484 3044 1228 2700 
Q 959 2341 959 1747 
Q 959 1119 1226 758 
Q 1494 397 1959 397 
Q 2419 397 2687 759 
Q 2956 1122 2956 1747 
Q 2956 2319 2688 2700 
Q 2441 3044 1959 3044 
z
M 1959 3500 
L 3869 3500 
L 3869 2925 
L 3225 2925 
Q 3566 2438 3566 1747 
Q 3566 888 3138 400 
Q 2709 -91 1959 -91 
Q 1206 -91 781 400 
Q 353 888 353 1747 
Q 353 2613 781 3097 
Q 1134 3500 1959 3500 
z
" id="DejaVuSans-3c3" transform="scale(0.015625)"/>
       </defs>
       <use xlink:href="#DejaVuSans-3bc"/>
       <use x="63.623047" xlink:href="#DejaVuSans-20"/>
       <use x="95.410156" xlink:href="#DejaVuSans-2d"/>
       <use x="131.494141" xlink:href="#DejaVuSans-34"/>
       <use x="195.117188" xlink:href="#DejaVuSans-3c3"/>
      </g>
     </g>
    </g>
    <g id="xtick_2">
     <g id="line2d_2">
      <g>
       <use style="stroke:#000000;stroke-width:0.8;" x="153.36" xlink:href="#ma74cc5a099" y="307.584"/>
      </g>
     </g>
     <g id="text_2">
      <!-- μ -3σ -->
      <g transform="translate(140.435781 322.182437)scale(0.1 -0.1)">
       <defs>
        <path d="M 2597 2516 
Q 3050 2419 3304 2112 
Q 3559 1806 3559 1356 
Q 3559 666 3084 287 
Q 2609 -91 1734 -91 
Q 1441 -91 1130 -33 
Q 819 25 488 141 
L 488 750 
Q 750 597 1062 519 
Q 1375 441 1716 441 
Q 2309 441 2620 675 
Q 2931 909 2931 1356 
Q 2931 1769 2642 2001 
Q 2353 2234 1838 2234 
L 1294 2234 
L 1294 2753 
L 1863 2753 
Q 2328 2753 2575 2939 
Q 2822 3125 2822 3475 
Q 2822 3834 2567 4026 
Q 2313 4219 1838 4219 
Q 1578 4219 1281 4162 
Q 984 4106 628 3988 
L 628 4550 
Q 988 4650 1302 4700 
Q 1616 4750 1894 4750 
Q 2613 4750 3031 4423 
Q 3450 4097 3450 3541 
Q 3450 3153 3228 2886 
Q 3006 2619 2597 2516 
z
" id="DejaVuSans-33" transform="scale(0.015625)"/>
       </defs>
       <use xlink:href="#DejaVuSans-3bc"/>
       <use x="63.623047" xlink:href="#DejaVuSans-20"/>
       <use x="95.410156" xlink:href="#DejaVuSans-2d"/>
       <use x="131.494141" xlink:href="#DejaVuSans-33"/>
       <use x="195.117188" xlink:href="#DejaVuSans-3c3"/>
      </g>
     </g>
    </g>
    <g id="xtick_3">
     <g id="line2d_3">
      <g>
       <use style="stroke:#000000;stroke-width:0.8;" x="220.32" xlink:href="#ma74cc5a099" y="307.584"/>
      </g>
     </g>
     <g id="text_3">
      <!-- μ -2σ -->
      <g transform="translate(207.395781 322.182437)scale(0.1 -0.1)">
       <defs>
        <path d="M 1228 531 
L 3431 531 
L 3431 0 
L 469 0 
L 469 531 
Q 828 903 1448 1529 
Q 2069 2156 2228 2338 
Q 2531 2678 2651 2914 
Q 2772 3150 2772 3378 
Q 2772 3750 2511 3984 
Q 2250 4219 1831 4219 
Q 1534 4219 1204 4116 
Q 875 4013 500 3803 
L 500 4441 
Q 881 4594 1212 4672 
Q 1544 4750 1819 4750 
Q 2544 4750 2975 4387 
Q 3406 4025 3406 3419 
Q 3406 3131 3298 2873 
Q 3191 2616 2906 2266 
Q 2828 2175 2409 1742 
Q 1991 1309 1228 531 
z
" id="DejaVuSans-32" transform="scale(0.015625)"/>
       </defs>
       <use xlink:href="#DejaVuSans-3bc"/>
       <use x="63.623047" xlink:href="#DejaVuSans-20"/>
       <use x="95.410156" xlink:href="#DejaVuSans-2d"/>
       <use x="131.494141" xlink:href="#DejaVuSans-32"/>
       <use x="195.117188" xlink:href="#DejaVuSans-3c3"/>
      </g>
     </g>
    </g>
    <g id="xtick_4">
     <g id="line2d_4">
      <g>
       <use style="stroke:#000000;stroke-width:0.8;" x="287.28" xlink:href="#ma74cc5a099" y="307.584"/>
      </g>
     </g>
     <g id="text_4">
      <!-- μ -1σ -->
      <g transform="translate(274.355781 322.182437)scale(0.1 -0.1)">
       <defs>
        <path d="M 794 531 
L 1825 531 
L 1825 4091 
L 703 3866 
L 703 4441 
L 1819 4666 
L 2450 4666 
L 2450 531 
L 3481 531 
L 3481 0 
L 794 0 
L 794 531 
z
" id="DejaVuSans-31" transform="scale(0.015625)"/>
       </defs>
       <use xlink:href="#DejaVuSans-3bc"/>
       <use x="63.623047" xlink:href="#DejaVuSans-20"/>
       <use x="95.410156" xlink:href="#DejaVuSans-2d"/>
       <use x="131.494141" xlink:href="#DejaVuSans-31"/>
       <use x="195.117188" xlink:href="#DejaVuSans-3c3"/>
      </g>
     </g>
    </g>
    <g id="xtick_5">
     <g id="line2d_5">
      <g>
       <use style="stroke:#000000;stroke-width:0.8;" x="354.24" xlink:href="#ma74cc5a099" y="307.584"/>
      </g>
     </g>
     <g id="text_5">
      <!-- μ -->
      <g transform="translate(351.05875 322.182437)scale(0.1 -0.1)">
       <use xlink:href="#DejaVuSans-3bc"/>
      </g>
     </g>
    </g>
    <g id="xtick_6">
     <g id="line2d_6">
      <g>
       <use style="stroke:#000000;stroke-width:0.8;" x="421.2" xlink:href="#ma74cc5a099" y="307.584"/>
      </g>
     </g>
     <g id="text_6">
      <!-- μ +1σ -->
      <g transform="translate(405.889844 322.182437)scale(0.1 -0.1)">
       <defs>
        <path d="M 2944 4013 
L 2944 2272 
L 4684 2272 
L 4684 1741 
L 2944 1741 
L 2944 0 
L 2419 0 
L 2419 1741 
L 678 1741 
L 678 2272 
L 2419 2272 
L 2419 4013 
L 2944 4013 
z
" id="DejaVuSans-2b" transform="scale(0.015625)"/>
       </defs>
       <use xlink:href="#DejaVuSans-3bc"/>
       <use x="63.623047" xlink:href="#DejaVuSans-20"/>
       <use x="95.410156" xlink:href="#DejaVuSans-2b"/>
       <use x="179.199219" xlink:href="#DejaVuSans-31"/>
       <use x="242.822266" xlink:href="#DejaVuSans-3c3"/>
      </g>
     </g>
    </g>
    <g id="xtick_7">
     <g id="line2d_7">
      <g>
       <use style="stroke:#000000;stroke-width:0.8;" x="488.16" xlink:href="#ma74cc5a099" y="307.584"/>
      </g>
     </g>
     <g id="text_7">
      <!-- μ +2σ -->
      <g transform="translate(472.849844 322.182437)scale(0.1 -0.1)">
       <use xlink:href="#DejaVuSans-3bc"/>
       <use x="63.623047" xlink:href="#DejaVuSans-20"/>
       <use x="95.410156" xlink:href="#DejaVuSans-2b"/>
       <use x="179.199219" xlink:href="#DejaVuSans-32"/>
       <use x="242.822266" xlink:href="#DejaVuSans-3c3"/>
      </g>
     </g>
    </g>
    <g id="xtick_8">
     <g id="line2d_8">
      <g>
       <use style="stroke:#000000;stroke-width:0.8;" x="555.12" xlink:href="#ma74cc5a099" y="307.584"/>
      </g>
     </g>
     <g id="text_8">
      <!-- μ +3σ -->
      <g transform="translate(539.809844 322.182437)scale(0.1 -0.1)">
       <use xlink:href="#DejaVuSans-3bc"/>
       <use x="63.623047" xlink:href="#DejaVuSans-20"/>
       <use x="95.410156" xlink:href="#DejaVuSans-2b"/>
       <use x="179.199219" xlink:href="#DejaVuSans-33"/>
       <use x="242.822266" xlink:href="#DejaVuSans-3c3"/>
      </g>
     </g>
    </g>
    <g id="xtick_9">
     <g id="line2d_9">
      <g>
       <use style="stroke:#000000;stroke-width:0.8;" x="622.08" xlink:href="#ma74cc5a099" y="307.584"/>
      </g>
     </g>
     <g id="text_9">
      <!-- μ +4σ -->
      <g transform="translate(606.769844 322.182437)scale(0.1 -0.1)">
       <use xlink:href="#DejaVuSans-3bc"/>
       <use x="63.623047" xlink:href="#DejaVuSans-20"/>
       <use x="95.410156" xlink:href="#DejaVuSans-2b"/>
       <use x="179.199219" xlink:href="#DejaVuSans-34"/>
       <use x="242.822266" xlink:href="#DejaVuSans-3c3"/>
      </g>
     </g>
    </g>
   </g>
   <g id="matplotlib.axis_2">
    <g id="ytick_1">
     <g id="line2d_10">
      <defs>
       <path d="M 0 0 
L -3.5 0 
" id="me7d5a898ff" style="stroke:#000000;stroke-width:0.8;"/>
      </defs>
      <g>
       <use style="stroke:#000000;stroke-width:0.8;" x="86.4" xlink:href="#me7d5a898ff" y="307.584"/>
      </g>
     </g>
     <g id="text_10">
      <!-- 0.0 -->
      <g transform="translate(63.496875 311.383219)scale(0.1 -0.1)">
       <defs>
        <path d="M 2034 4250 
Q 1547 4250 1301 3770 
Q 1056 3291 1056 2328 
Q 1056 1369 1301 889 
Q 1547 409 2034 409 
Q 2525 409 2770 889 
Q 3016 1369 3016 2328 
Q 3016 3291 2770 3770 
Q 2525 4250 2034 4250 
z
M 2034 4750 
Q 2819 4750 3233 4129 
Q 3647 3509 3647 2328 
Q 3647 1150 3233 529 
Q 2819 -91 2034 -91 
Q 1250 -91 836 529 
Q 422 1150 422 2328 
Q 422 3509 836 4129 
Q 1250 4750 2034 4750 
z
" id="DejaVuSans-30" transform="scale(0.015625)"/>
        <path d="M 684 794 
L 1344 794 
L 1344 0 
L 684 0 
L 684 794 
z
" id="DejaVuSans-2e" transform="scale(0.015625)"/>
       </defs>
       <use xlink:href="#DejaVuSans-30"/>
       <use x="63.623047" xlink:href="#DejaVuSans-2e"/>
       <use x="95.410156" xlink:href="#DejaVuSans-30"/>
      </g>
     </g>
    </g>
    <g id="ytick_2">
     <g id="line2d_11">
      <g>
       <use style="stroke:#000000;stroke-width:0.8;" x="86.4" xlink:href="#me7d5a898ff" y="254.3616"/>
      </g>
     </g>
     <g id="text_11">
      <!-- 0.1 -->
      <g transform="translate(63.496875 258.160819)scale(0.1 -0.1)">
       <use xlink:href="#DejaVuSans-30"/>
       <use x="63.623047" xlink:href="#DejaVuSans-2e"/>
       <use x="95.410156" xlink:href="#DejaVuSans-31"/>
      </g>
     </g>
    </g>
    <g id="ytick_3">
     <g id="line2d_12">
      <g>
       <use style="stroke:#000000;stroke-width:0.8;" x="86.4" xlink:href="#me7d5a898ff" y="201.1392"/>
      </g>
     </g>
     <g id="text_12">
      <!-- 0.2 -->
      <g transform="translate(63.496875 204.938419)scale(0.1 -0.1)">
       <use xlink:href="#DejaVuSans-30"/>
       <use x="63.623047" xlink:href="#DejaVuSans-2e"/>
       <use x="95.410156" xlink:href="#DejaVuSans-32"/>
      </g>
     </g>
    </g>
    <g id="ytick_4">
     <g id="line2d_13">
      <g>
       <use style="stroke:#000000;stroke-width:0.8;" x="86.4" xlink:href="#me7d5a898ff" y="147.9168"/>
      </g>
     </g>
     <g id="text_13">
      <!-- 0.3 -->
      <g transform="translate(63.496875 151.716019)scale(0.1 -0.1)">
       <use xlink:href="#DejaVuSans-30"/>
       <use x="63.623047" xlink:href="#DejaVuSans-2e"/>
       <use x="95.410156" xlink:href="#DejaVuSans-33"/>
      </g>
     </g>
    </g>
    <g id="ytick_5">
     <g id="line2d_14">
      <g>
       <use style="stroke:#000000;stroke-width:0.8;" x="86.4" xlink:href="#me7d5a898ff" y="94.6944"/>
      </g>
     </g>
     <g id="text_14">
      <!-- 0.4 -->
      <g transform="translate(63.496875 98.493619)scale(0.1 -0.1)">
       <use xlink:href="#DejaVuSans-30"/>
       <use x="63.623047" xlink:href="#DejaVuSans-2e"/>
       <use x="95.410156" xlink:href="#DejaVuSans-34"/>
      </g>
     </g>
    </g>
    <g id="ytick_6">
     <g id="line2d_15">
      <g>
       <use style="stroke:#000000;stroke-width:0.8;" x="86.4" xlink:href="#me7d5a898ff" y="41.472"/>
      </g>
     </g>
     <g id="text_15">
      <!-- 0.5 -->
      <g transform="translate(63.496875 45.271219)scale(0.1 -0.1)">
       <defs>
        <path d="M 691 4666 
L 3169 4666 
L 3169 4134 
L 1269 4134 
L 1269 2991 
Q 1406 3038 1543 3061 
Q 1681 3084 1819 3084 
Q 2600 3084 3056 2656 
Q 3513 2228 3513 1497 
Q 3513 744 3044 326 
Q 2575 -91 1722 -91 
Q 1428 -91 1123 -41 
Q 819 9 494 109 
L 494 744 
Q 775 591 1075 516 
Q 1375 441 1709 441 
Q 2250 441 2565 725 
Q 2881 1009 2881 1497 
Q 2881 1984 2565 2268 
Q 2250 2553 1709 2553 
Q 1456 2553 1204 2497 
Q 953 2441 691 2322 
L 691 4666 
z
" id="DejaVuSans-35" transform="scale(0.015625)"/>
       </defs>
       <use xlink:href="#DejaVuSans-30"/>
       <use x="63.623047" xlink:href="#DejaVuSans-2e"/>
       <use x="95.410156" xlink:href="#DejaVuSans-35"/>
      </g>
     </g>
    </g>
   </g>
   <g id="LineCollection_1">
    <path clip-path="url(#p6cab2f4310)" d="M 287.28 307.584 
L 287.28 89.37216 
" style="fill:none;stroke:#000000;stroke-dasharray:3.7,1.6;stroke-dashoffset:0;"/>
    <path clip-path="url(#p6cab2f4310)" d="M 354.24 307.584 
L 354.24 89.37216 
" style="fill:none;stroke:#000000;stroke-dasharray:3.7,1.6;stroke-dashoffset:0;"/>
    <path clip-path="url(#p6cab2f4310)" d="M 421.2 307.584 
L 421.2 89.37216 
" style="fill:none;stroke:#000000;stroke-dasharray:3.7,1.6;stroke-dashoffset:0;"/>
   </g>
   <g id="LineCollection_2">
    <path clip-path="url(#p6cab2f4310)" d="M 220.32 307.584 
L 220.32 174.528 
" style="fill:none;stroke:#000000;stroke-dasharray:3.7,1.6;stroke-dashoffset:0;"/>
    <path clip-path="url(#p6cab2f4310)" d="M 488.16 307.584 
L 488.16 174.528 
" style="fill:none;stroke:#000000;stroke-dasharray:3.7,1.6;stroke-dashoffset:0;"/>
   </g>
   <g id="LineCollection_3">
    <path clip-path="url(#p6cab2f4310)" d="M 153.36 307.584 
L 153.36 275.65056 
" style="fill:none;stroke:#000000;stroke-dasharray:3.7,1.6;stroke-dashoffset:0;"/>
    <path clip-path="url(#p6cab2f4310)" d="M 555.12 307.584 
L 555.12 275.65056 
" style="fill:none;stroke:#000000;stroke-dasharray:3.7,1.6;stroke-dashoffset:0;"/>
   </g>
   <g id="line2d_16">
    <path clip-path="url(#p6cab2f4310)" d="M 86.4 307.512772 
L 91.810909 307.485914 
L 97.221818 307.449806 
L 102.632727 307.401602 
L 108.043636 307.337695 
L 113.454545 307.253562 
L 118.865455 307.143577 
L 124.276364 307.000804 
L 129.687273 306.816774 
L 135.098182 306.581242 
L 140.509091 306.281934 
L 145.92 305.904292 
L 151.330909 305.431225 
L 156.741818 304.842882 
L 162.152727 304.116466 
L 167.563636 303.226093 
L 172.974545 302.142743 
L 178.385455 300.834299 
L 183.796364 299.265712 
L 189.207273 297.399318 
L 194.618182 295.195319 
L 200.029091 292.612452 
L 205.44 289.608852 
L 210.850909 286.143135 
L 216.261818 282.175665 
L 221.672727 277.670021 
L 227.083636 272.594619 
L 232.494545 266.924466 
L 237.905455 260.642968 
L 243.316364 253.743766 
L 248.727273 246.23248 
L 254.138182 238.128315 
L 259.549091 229.465418 
L 264.96 220.293902 
L 270.370909 210.680449 
L 275.781818 200.70842 
L 281.192727 190.477404 
L 286.603636 180.102164 
L 292.014545 169.710962 
L 297.425455 159.443277 
L 302.836364 149.446942 
L 308.247273 139.874784 
L 313.658182 130.880853 
L 319.069091 122.616374 
L 324.48 115.225564 
L 329.890909 108.84146 
L 335.301818 103.581958 
L 340.712727 99.546191 
L 346.123636 96.81142 
L 351.534545 95.430583 
L 356.945455 95.430583 
L 362.356364 96.81142 
L 367.767273 99.546191 
L 373.178182 103.581958 
L 378.589091 108.84146 
L 384 115.225564 
L 389.410909 122.616374 
L 394.821818 130.880853 
L 400.232727 139.874784 
L 405.643636 149.446942 
L 411.054545 159.443277 
L 416.465455 169.710962 
L 421.876364 180.102164 
L 427.287273 190.477404 
L 432.698182 200.70842 
L 438.109091 210.680449 
L 443.52 220.293902 
L 448.930909 229.465418 
L 454.341818 238.128315 
L 459.752727 246.23248 
L 465.163636 253.743766 
L 470.574545 260.642968 
L 475.985455 266.924466 
L 481.396364 272.594619 
L 486.807273 277.670021 
L 492.218182 282.175665 
L 497.629091 286.143135 
L 503.04 289.608852 
L 508.450909 292.612452 
L 513.861818 295.195319 
L 519.272727 297.399318 
L 524.683636 299.265712 
L 530.094545 300.834299 
L 535.505455 302.142743 
L 540.916364 303.226093 
L 546.327273 304.116466 
L 551.738182 304.842882 
L 557.149091 305.431225 
L 562.56 305.904292 
L 567.970909 306.281934 
L 573.381818 306.581242 
L 578.792727 306.816774 
L 584.203636 307.000804 
L 589.614545 307.143577 
L 595.025455 307.253562 
L 600.436364 307.337695 
L 605.847273 307.401602 
L 611.258182 307.449806 
L 616.669091 307.485914 
L 622.08 307.512772 
" style="fill:none;stroke:#000000;stroke-linecap:square;"/>
   </g>
   <g id="patch_3">
    <path d="M 86.4 307.584 
L 86.4 41.472 
" style="fill:none;stroke:#000000;stroke-linecap:square;stroke-linejoin:miter;stroke-width:0.8;"/>
   </g>
   <g id="patch_4">
    <path d="M 622.08 307.584 
L 622.08 41.472 
" style="fill:none;stroke:#000000;stroke-linecap:square;stroke-linejoin:miter;stroke-width:0.8;"/>
   </g>
   <g id="patch_5">
    <path d="M 86.4 307.584 
L 622.08 307.584 
" style="fill:none;stroke:#000000;stroke-linecap:square;stroke-linejoin:miter;stroke-width:0.8;"/>
   </g>
   <g id="patch_6">
    <path d="M 86.4 41.472 
L 622.08 41.472 
" style="fill:none;stroke:#000000;stroke-linecap:square;stroke-linejoin:miter;stroke-width:0.8;"/>
   </g>
   <g id="patch_7">
    <path d="M 150.578875 302.26176 
Q 119.881896 302.26176 89.184916 302.26176 
" style="fill:none;stroke:#000000;stroke-linecap:round;stroke-width:0.7;"/>
    <path d="M 146.578875 300.26176 
L 150.578875 302.26176 
L 146.578875 304.26176 
" style="fill:none;stroke:#000000;stroke-linecap:round;stroke-width:0.7;"/>
    <path d="M 93.184916 304.26176 
L 89.184916 302.26176 
L 93.184916 300.26176 
" style="fill:none;stroke:#000000;stroke-linecap:round;stroke-width:0.7;"/>
   </g>
   <g id="patch_8">
    <path d="M 217.538875 275.65056 
Q 186.841896 275.65056 156.144916 275.65056 
" style="fill:none;stroke:#000000;stroke-linecap:round;stroke-width:0.7;"/>
    <path d="M 213.538875 273.65056 
L 217.538875 275.65056 
L 213.538875 277.65056 
" style="fill:none;stroke:#000000;stroke-linecap:round;stroke-width:0.7;"/>
    <path d="M 160.144916 277.65056 
L 156.144916 275.65056 
L 160.144916 273.65056 
" style="fill:none;stroke:#000000;stroke-linecap:round;stroke-width:0.7;"/>
   </g>
   <g id="patch_9">
    <path d="M 284.498875 174.528 
Q 253.801896 174.528 223.104916 174.528 
" style="fill:none;stroke:#000000;stroke-linecap:round;stroke-width:0.7;"/>
    <path d="M 280.498875 172.528 
L 284.498875 174.528 
L 280.498875 176.528 
" style="fill:none;stroke:#000000;stroke-linecap:round;stroke-width:0.7;"/>
    <path d="M 227.104916 176.528 
L 223.104916 174.528 
L 227.104916 172.528 
" style="fill:none;stroke:#000000;stroke-linecap:round;stroke-width:0.7;"/>
   </g>
   <g id="patch_10">
    <path d="M 351.458875 89.37216 
Q 320.761896 89.37216 290.064916 89.37216 
" style="fill:none;stroke:#000000;stroke-linecap:round;stroke-width:0.7;"/>
    <path d="M 347.458875 87.37216 
L 351.458875 89.37216 
L 347.458875 91.37216 
" style="fill:none;stroke:#000000;stroke-linecap:round;stroke-width:0.7;"/>
    <path d="M 294.064916 91.37216 
L 290.064916 89.37216 
L 294.064916 87.37216 
" style="fill:none;stroke:#000000;stroke-linecap:round;stroke-width:0.7;"/>
   </g>
   <g id="patch_11">
    <path d="M 357.021125 89.37216 
Q 387.718104 89.37216 418.415084 89.37216 
" style="fill:none;stroke:#000000;stroke-linecap:round;stroke-width:0.7;"/>
    <path d="M 361.021125 91.37216 
L 357.021125 89.37216 
L 361.021125 87.37216 
" style="fill:none;stroke:#000000;stroke-linecap:round;stroke-width:0.7;"/>
    <path d="M 414.415084 87.37216 
L 418.415084 89.37216 
L 414.415084 91.37216 
" style="fill:none;stroke:#000000;stroke-linecap:round;stroke-width:0.7;"/>
   </g>
   <g id="patch_12">
    <path d="M 423.981125 174.528 
Q 454.678104 174.528 485.375084 174.528 
" style="fill:none;stroke:#000000;stroke-linecap:round;stroke-width:0.7;"/>
    <path d="M 427.981125 176.528 
L 423.981125 174.528 
L 427.981125 172.528 
" style="fill:none;stroke:#000000;stroke-linecap:round;stroke-width:0.7;"/>
    <path d="M 481.375084 172.528 
L 485.375084 174.528 
L 481.375084 176.528 
" style="fill:none;stroke:#000000;stroke-linecap:round;stroke-width:0.7;"/>
   </g>
   <g id="patch_13">
    <path d="M 490.941125 275.65056 
Q 521.638104 275.65056 552.335084 275.65056 
" style="fill:none;stroke:#000000;stroke-linecap:round;stroke-width:0.7;"/>
    <path d="M 494.941125 277.65056 
L 490.941125 275.65056 
L 494.941125 273.65056 
" style="fill:none;stroke:#000000;stroke-linecap:round;stroke-width:0.7;"/>
    <path d="M 548.335084 273.65056 
L 552.335084 275.65056 
L 548.335084 277.65056 
" style="fill:none;stroke:#000000;stroke-linecap:round;stroke-width:0.7;"/>
   </g>
   <g id="patch_14">
    <path d="M 557.901125 302.26176 
Q 588.598104 302.26176 619.295084 302.26176 
" style="fill:none;stroke:#000000;stroke-linecap:round;stroke-width:0.7;"/>
    <path d="M 561.901125 304.26176 
L 557.901125 302.26176 
L 561.901125 300.26176 
" style="fill:none;stroke:#000000;stroke-linecap:round;stroke-width:0.7;"/>
    <path d="M 615.295084 300.26176 
L 619.295084 302.26176 
L 615.295084 304.26176 
" style="fill:none;stroke:#000000;stroke-linecap:round;stroke-width:0.7;"/>
   </g>
   <g id="text_16">
    <!-- 0.1% -->
    <g transform="translate(105.907422 291.61728)scale(0.11 -0.11)">
     <defs>
      <path d="M 4653 2053 
Q 4381 2053 4226 1822 
Q 4072 1591 4072 1178 
Q 4072 772 4226 539 
Q 4381 306 4653 306 
Q 4919 306 5073 539 
Q 5228 772 5228 1178 
Q 5228 1588 5073 1820 
Q 4919 2053 4653 2053 
z
M 4653 2450 
Q 5147 2450 5437 2106 
Q 5728 1763 5728 1178 
Q 5728 594 5436 251 
Q 5144 -91 4653 -91 
Q 4153 -91 3862 251 
Q 3572 594 3572 1178 
Q 3572 1766 3864 2108 
Q 4156 2450 4653 2450 
z
M 1428 4353 
Q 1159 4353 1004 4120 
Q 850 3888 850 3481 
Q 850 3069 1003 2837 
Q 1156 2606 1428 2606 
Q 1700 2606 1854 2837 
Q 2009 3069 2009 3481 
Q 2009 3884 1853 4118 
Q 1697 4353 1428 4353 
z
M 4250 4750 
L 4750 4750 
L 1831 -91 
L 1331 -91 
L 4250 4750 
z
M 1428 4750 
Q 1922 4750 2215 4408 
Q 2509 4066 2509 3481 
Q 2509 2891 2217 2550 
Q 1925 2209 1428 2209 
Q 931 2209 642 2551 
Q 353 2894 353 3481 
Q 353 4063 643 4406 
Q 934 4750 1428 4750 
z
" id="DejaVuSans-25" transform="scale(0.015625)"/>
     </defs>
     <use xlink:href="#DejaVuSans-30"/>
     <use x="63.623047" xlink:href="#DejaVuSans-2e"/>
     <use x="95.410156" xlink:href="#DejaVuSans-31"/>
     <use x="159.033203" xlink:href="#DejaVuSans-25"/>
    </g>
   </g>
   <g id="text_17">
    <!-- 2.1% -->
    <g transform="translate(172.867422 265.00608)scale(0.11 -0.11)">
     <use xlink:href="#DejaVuSans-32"/>
     <use x="63.623047" xlink:href="#DejaVuSans-2e"/>
     <use x="95.410156" xlink:href="#DejaVuSans-31"/>
     <use x="159.033203" xlink:href="#DejaVuSans-25"/>
    </g>
   </g>
   <g id="text_18">
    <!-- 13.6% -->
    <g transform="translate(236.328047 163.88352)scale(0.11 -0.11)">
     <defs>
      <path d="M 2113 2584 
Q 1688 2584 1439 2293 
Q 1191 2003 1191 1497 
Q 1191 994 1439 701 
Q 1688 409 2113 409 
Q 2538 409 2786 701 
Q 3034 994 3034 1497 
Q 3034 2003 2786 2293 
Q 2538 2584 2113 2584 
z
M 3366 4563 
L 3366 3988 
Q 3128 4100 2886 4159 
Q 2644 4219 2406 4219 
Q 1781 4219 1451 3797 
Q 1122 3375 1075 2522 
Q 1259 2794 1537 2939 
Q 1816 3084 2150 3084 
Q 2853 3084 3261 2657 
Q 3669 2231 3669 1497 
Q 3669 778 3244 343 
Q 2819 -91 2113 -91 
Q 1303 -91 875 529 
Q 447 1150 447 2328 
Q 447 3434 972 4092 
Q 1497 4750 2381 4750 
Q 2619 4750 2861 4703 
Q 3103 4656 3366 4563 
z
" id="DejaVuSans-36" transform="scale(0.015625)"/>
     </defs>
     <use xlink:href="#DejaVuSans-31"/>
     <use x="63.623047" xlink:href="#DejaVuSans-33"/>
     <use x="127.246094" xlink:href="#DejaVuSans-2e"/>
     <use x="159.033203" xlink:href="#DejaVuSans-36"/>
     <use x="222.65625" xlink:href="#DejaVuSans-25"/>
    </g>
   </g>
   <g id="text_19">
    <!-- 34.1% -->
    <g transform="translate(303.288047 78.72768)scale(0.11 -0.11)">
     <use xlink:href="#DejaVuSans-33"/>
     <use x="63.623047" xlink:href="#DejaVuSans-34"/>
     <use x="127.246094" xlink:href="#DejaVuSans-2e"/>
     <use x="159.033203" xlink:href="#DejaVuSans-31"/>
     <use x="222.65625" xlink:href="#DejaVuSans-25"/>
    </g>
   </g>
   <g id="text_20">
    <!-- 34.1% -->
    <g transform="translate(370.248047 78.72768)scale(0.11 -0.11)">
     <use xlink:href="#DejaVuSans-33"/>
     <use x="63.623047" xlink:href="#DejaVuSans-34"/>
     <use x="127.246094" xlink:href="#DejaVuSans-2e"/>
     <use x="159.033203" xlink:href="#DejaVuSans-31"/>
     <use x="222.65625" xlink:href="#DejaVuSans-25"/>
    </g>
   </g>
   <g id="text_21">
    <!-- 13.6% -->
    <g transform="translate(437.208047 163.88352)scale(0.11 -0.11)">
     <use xlink:href="#DejaVuSans-31"/>
     <use x="63.623047" xlink:href="#DejaVuSans-33"/>
     <use x="127.246094" xlink:href="#DejaVuSans-2e"/>
     <use x="159.033203" xlink:href="#DejaVuSans-36"/>
     <use x="222.65625" xlink:href="#DejaVuSans-25"/>
    </g>
   </g>
   <g id="text_22">
    <!-- 2.1% -->
    <g transform="translate(507.667422 265.00608)scale(0.11 -0.11)">
     <use xlink:href="#DejaVuSans-32"/>
     <use x="63.623047" xlink:href="#DejaVuSans-2e"/>
     <use x="95.410156" xlink:href="#DejaVuSans-31"/>
     <use x="159.033203" xlink:href="#DejaVuSans-25"/>
    </g>
   </g>
   <g id="text_23">
    <!-- 0.1% -->
    <g transform="translate(574.627422 291.61728)scale(0.11 -0.11)">
     <use xlink:href="#DejaVuSans-30"/>
     <use x="63.623047" xlink:href="#DejaVuSans-2e"/>
     <use x="95.410156" xlink:href="#DejaVuSans-31"/>
     <use x="159.033203" xlink:href="#DejaVuSans-25"/>
    </g>
   </g>
   <g id="text_24">
    <!-- Normal Distribution -->
    <g transform="translate(295.620937 35.472)scale(0.12 -0.12)">
     <defs>
      <path d="M 628 4666 
L 1478 4666 
L 3547 763 
L 3547 4666 
L 4159 4666 
L 4159 0 
L 3309 0 
L 1241 3903 
L 1241 0 
L 628 0 
L 628 4666 
z
" id="DejaVuSans-4e" transform="scale(0.015625)"/>
      <path d="M 1959 3097 
Q 1497 3097 1228 2736 
Q 959 2375 959 1747 
Q 959 1119 1226 758 
Q 1494 397 1959 397 
Q 2419 397 2687 759 
Q 2956 1122 2956 1747 
Q 2956 2369 2687 2733 
Q 2419 3097 1959 3097 
z
M 1959 3584 
Q 2709 3584 3137 3096 
Q 3566 2609 3566 1747 
Q 3566 888 3137 398 
Q 2709 -91 1959 -91 
Q 1206 -91 779 398 
Q 353 888 353 1747 
Q 353 2609 779 3096 
Q 1206 3584 1959 3584 
z
" id="DejaVuSans-6f" transform="scale(0.015625)"/>
      <path d="M 2631 2963 
Q 2534 3019 2420 3045 
Q 2306 3072 2169 3072 
Q 1681 3072 1420 2755 
Q 1159 2438 1159 1844 
L 1159 0 
L 581 0 
L 581 3500 
L 1159 3500 
L 1159 2956 
Q 1341 3275 1631 3429 
Q 1922 3584 2338 3584 
Q 2397 3584 2469 3576 
Q 2541 3569 2628 3553 
L 2631 2963 
z
" id="DejaVuSans-72" transform="scale(0.015625)"/>
      <path d="M 3328 2828 
Q 3544 3216 3844 3400 
Q 4144 3584 4550 3584 
Q 5097 3584 5394 3201 
Q 5691 2819 5691 2113 
L 5691 0 
L 5113 0 
L 5113 2094 
Q 5113 2597 4934 2840 
Q 4756 3084 4391 3084 
Q 3944 3084 3684 2787 
Q 3425 2491 3425 1978 
L 3425 0 
L 2847 0 
L 2847 2094 
Q 2847 2600 2669 2842 
Q 2491 3084 2119 3084 
Q 1678 3084 1418 2786 
Q 1159 2488 1159 1978 
L 1159 0 
L 581 0 
L 581 3500 
L 1159 3500 
L 1159 2956 
Q 1356 3278 1631 3431 
Q 1906 3584 2284 3584 
Q 2666 3584 2933 3390 
Q 3200 3197 3328 2828 
z
" id="DejaVuSans-6d" transform="scale(0.015625)"/>
      <path d="M 2194 1759 
Q 1497 1759 1228 1600 
Q 959 1441 959 1056 
Q 959 750 1161 570 
Q 1363 391 1709 391 
Q 2188 391 2477 730 
Q 2766 1069 2766 1631 
L 2766 1759 
L 2194 1759 
z
M 3341 1997 
L 3341 0 
L 2766 0 
L 2766 531 
Q 2569 213 2275 61 
Q 1981 -91 1556 -91 
Q 1019 -91 701 211 
Q 384 513 384 1019 
Q 384 1609 779 1909 
Q 1175 2209 1959 2209 
L 2766 2209 
L 2766 2266 
Q 2766 2663 2505 2880 
Q 2244 3097 1772 3097 
Q 1472 3097 1187 3025 
Q 903 2953 641 2809 
L 641 3341 
Q 956 3463 1253 3523 
Q 1550 3584 1831 3584 
Q 2591 3584 2966 3190 
Q 3341 2797 3341 1997 
z
" id="DejaVuSans-61" transform="scale(0.015625)"/>
      <path d="M 603 4863 
L 1178 4863 
L 1178 0 
L 603 0 
L 603 4863 
z
" id="DejaVuSans-6c" transform="scale(0.015625)"/>
      <path d="M 1259 4147 
L 1259 519 
L 2022 519 
Q 2988 519 3436 956 
Q 3884 1394 3884 2338 
Q 3884 3275 3436 3711 
Q 2988 4147 2022 4147 
L 1259 4147 
z
M 628 4666 
L 1925 4666 
Q 3281 4666 3915 4102 
Q 4550 3538 4550 2338 
Q 4550 1131 3912 565 
Q 3275 0 1925 0 
L 628 0 
L 628 4666 
z
" id="DejaVuSans-44" transform="scale(0.015625)"/>
      <path d="M 603 3500 
L 1178 3500 
L 1178 0 
L 603 0 
L 603 3500 
z
M 603 4863 
L 1178 4863 
L 1178 4134 
L 603 4134 
L 603 4863 
z
" id="DejaVuSans-69" transform="scale(0.015625)"/>
      <path d="M 2834 3397 
L 2834 2853 
Q 2591 2978 2328 3040 
Q 2066 3103 1784 3103 
Q 1356 3103 1142 2972 
Q 928 2841 928 2578 
Q 928 2378 1081 2264 
Q 1234 2150 1697 2047 
L 1894 2003 
Q 2506 1872 2764 1633 
Q 3022 1394 3022 966 
Q 3022 478 2636 193 
Q 2250 -91 1575 -91 
Q 1294 -91 989 -36 
Q 684 19 347 128 
L 347 722 
Q 666 556 975 473 
Q 1284 391 1588 391 
Q 1994 391 2212 530 
Q 2431 669 2431 922 
Q 2431 1156 2273 1281 
Q 2116 1406 1581 1522 
L 1381 1569 
Q 847 1681 609 1914 
Q 372 2147 372 2553 
Q 372 3047 722 3315 
Q 1072 3584 1716 3584 
Q 2034 3584 2315 3537 
Q 2597 3491 2834 3397 
z
" id="DejaVuSans-73" transform="scale(0.015625)"/>
      <path d="M 1172 4494 
L 1172 3500 
L 2356 3500 
L 2356 3053 
L 1172 3053 
L 1172 1153 
Q 1172 725 1289 603 
Q 1406 481 1766 481 
L 2356 481 
L 2356 0 
L 1766 0 
Q 1100 0 847 248 
Q 594 497 594 1153 
L 594 3053 
L 172 3053 
L 172 3500 
L 594 3500 
L 594 4494 
L 1172 4494 
z
" id="DejaVuSans-74" transform="scale(0.015625)"/>
      <path d="M 3116 1747 
Q 3116 2381 2855 2742 
Q 2594 3103 2138 3103 
Q 1681 3103 1420 2742 
Q 1159 2381 1159 1747 
Q 1159 1113 1420 752 
Q 1681 391 2138 391 
Q 2594 391 2855 752 
Q 3116 1113 3116 1747 
z
M 1159 2969 
Q 1341 3281 1617 3432 
Q 1894 3584 2278 3584 
Q 2916 3584 3314 3078 
Q 3713 2572 3713 1747 
Q 3713 922 3314 415 
Q 2916 -91 2278 -91 
Q 1894 -91 1617 61 
Q 1341 213 1159 525 
L 1159 0 
L 581 0 
L 581 4863 
L 1159 4863 
L 1159 2969 
z
" id="DejaVuSans-62" transform="scale(0.015625)"/>
      <path d="M 544 1381 
L 544 3500 
L 1119 3500 
L 1119 1403 
Q 1119 906 1312 657 
Q 1506 409 1894 409 
Q 2359 409 2629 706 
Q 2900 1003 2900 1516 
L 2900 3500 
L 3475 3500 
L 3475 0 
L 2900 0 
L 2900 538 
Q 2691 219 2414 64 
Q 2138 -91 1772 -91 
Q 1169 -91 856 284 
Q 544 659 544 1381 
z
M 1991 3584 
L 1991 3584 
z
" id="DejaVuSans-75" transform="scale(0.015625)"/>
      <path d="M 3513 2113 
L 3513 0 
L 2938 0 
L 2938 2094 
Q 2938 2591 2744 2837 
Q 2550 3084 2163 3084 
Q 1697 3084 1428 2787 
Q 1159 2491 1159 1978 
L 1159 0 
L 581 0 
L 581 3500 
L 1159 3500 
L 1159 2956 
Q 1366 3272 1645 3428 
Q 1925 3584 2291 3584 
Q 2894 3584 3203 3211 
Q 3513 2838 3513 2113 
z
" id="DejaVuSans-6e" transform="scale(0.015625)"/>
     </defs>
     <use xlink:href="#DejaVuSans-4e"/>
     <use x="74.804688" xlink:href="#DejaVuSans-6f"/>
     <use x="135.986328" xlink:href="#DejaVuSans-72"/>
     <use x="175.349609" xlink:href="#DejaVuSans-6d"/>
     <use x="272.761719" xlink:href="#DejaVuSans-61"/>
     <use x="334.041016" xlink:href="#DejaVuSans-6c"/>
     <use x="361.824219" xlink:href="#DejaVuSans-20"/>
     <use x="393.611328" xlink:href="#DejaVuSans-44"/>
     <use x="470.613281" xlink:href="#DejaVuSans-69"/>
     <use x="498.396484" xlink:href="#DejaVuSans-73"/>
     <use x="550.496094" xlink:href="#DejaVuSans-74"/>
     <use x="589.705078" xlink:href="#DejaVuSans-72"/>
     <use x="630.818359" xlink:href="#DejaVuSans-69"/>
     <use x="658.601562" xlink:href="#DejaVuSans-62"/>
     <use x="722.078125" xlink:href="#DejaVuSans-75"/>
     <use x="785.457031" xlink:href="#DejaVuSans-74"/>
     <use x="824.666016" xlink:href="#DejaVuSans-69"/>
     <use x="852.449219" xlink:href="#DejaVuSans-6f"/>
     <use x="913.630859" xlink:href="#DejaVuSans-6e"/>
    </g>
   </g>
  </g>
 </g>
 <defs>
  <clipPath id="p6cab2f4310">
   <rect height="266.112" width="535.68" x="86.4" y="41.472"/>
  </clipPath>
 </defs>
</svg>
