<?xml version="1.0" encoding="utf-8" standalone="no"?>
<!DOCTYPE svg PUBLIC "-//W3C//DTD SVG 1.1//EN"
  "http://www.w3.org/Graphics/SVG/1.1/DTD/svg11.dtd">
<svg height="345.6pt" version="1.1" viewBox="0 0 691.2 345.6" width="691.2pt" xmlns="http://www.w3.org/2000/svg" xmlns:xlink="http://www.w3.org/1999/xlink">
 <metadata>
  <rdf:RDF xmlns:cc="http://creativecommons.org/ns#" xmlns:dc="http://purl.org/dc/elements/1.1/" xmlns:rdf="http://www.w3.org/1999/02/22-rdf-syntax-ns#">
   <cc:Work>
    <dc:type rdf:resource="http://purl.org/dc/dcmitype/StillImage"/>
    <dc:date>2021-07-02T05:14:57.035073</dc:date>
    <dc:format>image/svg+xml</dc:format>
    <dc:creator>
     <cc:Agent>
      <dc:title>Matplotlib v3.4.2, https://matplotlib.org/</dc:title>
     </cc:Agent>
    </dc:creator>
   </cc:Work>
  </rdf:RDF>
 </metadata>
 <defs>
  <style type="text/css">*{stroke-linecap:butt;stroke-linejoin:round;}</style>
 </defs>
 <g id="figure_1">
  <g id="patch_1">
   <path d="M 0 345.6 
L 691.2 345.6 
L 691.2 0 
L 0 0 
z
" style="fill:#ffffff;"/>
  </g>
  <g id="axes_1">
   <g id="patch_2">
    <path d="M 86.4 307.584 
L 622.08 307.584 
L 622.08 41.472 
L 86.4 41.472 
z
" style="fill:#ffffff;"/>
   </g>
   <g id="matplotlib.axis_1">
    <g id="xtick_1">
     <g id="line2d_1">
      <defs>
       <path d="M 0 0 
L 0 3.5 
" id="me94d261089" style="stroke:#000000;stroke-width:0.8;"/>
      </defs>
      <g>
       <use style="stroke:#000000;stroke-width:0.8;" x="354.24" xlink:href="#me94d261089" y="307.584"/>
      </g>
     </g>
     <g id="text_1">
      <!-- 0 -->
      <g transform="translate(351.05875 322.182437)scale(0.1 -0.1)">
       <defs>
        <path d="M 2034 4250 
Q 1547 4250 1301 3770 
Q 1056 3291 1056 2328 
Q 1056 1369 1301 889 
Q 1547 409 2034 409 
Q 2525 409 2770 889 
Q 3016 1369 3016 2328 
Q 3016 3291 2770 3770 
Q 2525 4250 2034 4250 
z
M 2034 4750 
Q 2819 4750 3233 4129 
Q 3647 3509 3647 2328 
Q 3647 1150 3233 529 
Q 2819 -91 2034 -91 
Q 1250 -91 836 529 
Q 422 1150 422 2328 
Q 422 3509 836 4129 
Q 1250 4750 2034 4750 
z
" id="DejaVuSans-30" transform="scale(0.015625)"/>
       </defs>
       <use xlink:href="#DejaVuSans-30"/>
      </g>
     </g>
    </g>
   </g>
   <g id="matplotlib.axis_2">
    <g id="ytick_1">
     <g id="line2d_2">
      <defs>
       <path d="M 0 0 
L -3.5 0 
" id="m1004ab3bdd" style="stroke:#000000;stroke-width:0.8;"/>
      </defs>
      <g>
       <use style="stroke:#000000;stroke-width:0.8;" x="86.4" xlink:href="#m1004ab3bdd" y="307.584"/>
      </g>
     </g>
     <g id="text_2">
      <!-- 0.0 -->
      <g transform="translate(63.496875 311.383219)scale(0.1 -0.1)">
       <defs>
        <path d="M 684 794 
L 1344 794 
L 1344 0 
L 684 0 
L 684 794 
z
" id="DejaVuSans-2e" transform="scale(0.015625)"/>
       </defs>
       <use xlink:href="#DejaVuSans-30"/>
       <use x="63.623047" xlink:href="#DejaVuSans-2e"/>
       <use x="95.410156" xlink:href="#DejaVuSans-30"/>
      </g>
     </g>
    </g>
    <g id="ytick_2">
     <g id="line2d_3">
      <g>
       <use style="stroke:#000000;stroke-width:0.8;" x="86.4" xlink:href="#m1004ab3bdd" y="254.3616"/>
      </g>
     </g>
     <g id="text_3">
      <!-- 0.1 -->
      <g transform="translate(63.496875 258.160819)scale(0.1 -0.1)">
       <defs>
        <path d="M 794 531 
L 1825 531 
L 1825 4091 
L 703 3866 
L 703 4441 
L 1819 4666 
L 2450 4666 
L 2450 531 
L 3481 531 
L 3481 0 
L 794 0 
L 794 531 
z
" id="DejaVuSans-31" transform="scale(0.015625)"/>
       </defs>
       <use xlink:href="#DejaVuSans-30"/>
       <use x="63.623047" xlink:href="#DejaVuSans-2e"/>
       <use x="95.410156" xlink:href="#DejaVuSans-31"/>
      </g>
     </g>
    </g>
    <g id="ytick_3">
     <g id="line2d_4">
      <g>
       <use style="stroke:#000000;stroke-width:0.8;" x="86.4" xlink:href="#m1004ab3bdd" y="201.1392"/>
      </g>
     </g>
     <g id="text_4">
      <!-- 0.2 -->
      <g transform="translate(63.496875 204.938419)scale(0.1 -0.1)">
       <defs>
        <path d="M 1228 531 
L 3431 531 
L 3431 0 
L 469 0 
L 469 531 
Q 828 903 1448 1529 
Q 2069 2156 2228 2338 
Q 2531 2678 2651 2914 
Q 2772 3150 2772 3378 
Q 2772 3750 2511 3984 
Q 2250 4219 1831 4219 
Q 1534 4219 1204 4116 
Q 875 4013 500 3803 
L 500 4441 
Q 881 4594 1212 4672 
Q 1544 4750 1819 4750 
Q 2544 4750 2975 4387 
Q 3406 4025 3406 3419 
Q 3406 3131 3298 2873 
Q 3191 2616 2906 2266 
Q 2828 2175 2409 1742 
Q 1991 1309 1228 531 
z
" id="DejaVuSans-32" transform="scale(0.015625)"/>
       </defs>
       <use xlink:href="#DejaVuSans-30"/>
       <use x="63.623047" xlink:href="#DejaVuSans-2e"/>
       <use x="95.410156" xlink:href="#DejaVuSans-32"/>
      </g>
     </g>
    </g>
    <g id="ytick_4">
     <g id="line2d_5">
      <g>
       <use style="stroke:#000000;stroke-width:0.8;" x="86.4" xlink:href="#m1004ab3bdd" y="147.9168"/>
      </g>
     </g>
     <g id="text_5">
      <!-- 0.3 -->
      <g transform="translate(63.496875 151.716019)scale(0.1 -0.1)">
       <defs>
        <path d="M 2597 2516 
Q 3050 2419 3304 2112 
Q 3559 1806 3559 1356 
Q 3559 666 3084 287 
Q 2609 -91 1734 -91 
Q 1441 -91 1130 -33 
Q 819 25 488 141 
L 488 750 
Q 750 597 1062 519 
Q 1375 441 1716 441 
Q 2309 441 2620 675 
Q 2931 909 2931 1356 
Q 2931 1769 2642 2001 
Q 2353 2234 1838 2234 
L 1294 2234 
L 1294 2753 
L 1863 2753 
Q 2328 2753 2575 2939 
Q 2822 3125 2822 3475 
Q 2822 3834 2567 4026 
Q 2313 4219 1838 4219 
Q 1578 4219 1281 4162 
Q 984 4106 628 3988 
L 628 4550 
Q 988 4650 1302 4700 
Q 1616 4750 1894 4750 
Q 2613 4750 3031 4423 
Q 3450 4097 3450 3541 
Q 3450 3153 3228 2886 
Q 3006 2619 2597 2516 
z
" id="DejaVuSans-33" transform="scale(0.015625)"/>
       </defs>
       <use xlink:href="#DejaVuSans-30"/>
       <use x="63.623047" xlink:href="#DejaVuSans-2e"/>
       <use x="95.410156" xlink:href="#DejaVuSans-33"/>
      </g>
     </g>
    </g>
    <g id="ytick_5">
     <g id="line2d_6">
      <g>
       <use style="stroke:#000000;stroke-width:0.8;" x="86.4" xlink:href="#m1004ab3bdd" y="94.6944"/>
      </g>
     </g>
     <g id="text_6">
      <!-- 0.4 -->
      <g transform="translate(63.496875 98.493619)scale(0.1 -0.1)">
       <defs>
        <path d="M 2419 4116 
L 825 1625 
L 2419 1625 
L 2419 4116 
z
M 2253 4666 
L 3047 4666 
L 3047 1625 
L 3713 1625 
L 3713 1100 
L 3047 1100 
L 3047 0 
L 2419 0 
L 2419 1100 
L 313 1100 
L 313 1709 
L 2253 4666 
z
" id="DejaVuSans-34" transform="scale(0.015625)"/>
       </defs>
       <use xlink:href="#DejaVuSans-30"/>
       <use x="63.623047" xlink:href="#DejaVuSans-2e"/>
       <use x="95.410156" xlink:href="#DejaVuSans-34"/>
      </g>
     </g>
    </g>
    <g id="ytick_6">
     <g id="line2d_7">
      <g>
       <use style="stroke:#000000;stroke-width:0.8;" x="86.4" xlink:href="#m1004ab3bdd" y="41.472"/>
      </g>
     </g>
     <g id="text_7">
      <!-- 0.5 -->
      <g transform="translate(63.496875 45.271219)scale(0.1 -0.1)">
       <defs>
        <path d="M 691 4666 
L 3169 4666 
L 3169 4134 
L 1269 4134 
L 1269 2991 
Q 1406 3038 1543 3061 
Q 1681 3084 1819 3084 
Q 2600 3084 3056 2656 
Q 3513 2228 3513 1497 
Q 3513 744 3044 326 
Q 2575 -91 1722 -91 
Q 1428 -91 1123 -41 
Q 819 9 494 109 
L 494 744 
Q 775 591 1075 516 
Q 1375 441 1709 441 
Q 2250 441 2565 725 
Q 2881 1009 2881 1497 
Q 2881 1984 2565 2268 
Q 2250 2553 1709 2553 
Q 1456 2553 1204 2497 
Q 953 2441 691 2322 
L 691 4666 
z
" id="DejaVuSans-35" transform="scale(0.015625)"/>
       </defs>
       <use xlink:href="#DejaVuSans-30"/>
       <use x="63.623047" xlink:href="#DejaVuSans-2e"/>
       <use x="95.410156" xlink:href="#DejaVuSans-35"/>
      </g>
     </g>
    </g>
   </g>
   <g id="LineCollection_1">
    <path clip-path="url(#p15834ae19d)" d="M 354.24 307.584 
L 354.24 95.257344 
" style="fill:none;stroke:#000000;stroke-dasharray:3.7,1.6;stroke-dashoffset:0;"/>
   </g>
   <g id="line2d_8">
    <path clip-path="url(#p15834ae19d)" d="M 86.4 307.583209 
L 145.521873 307.476744 
L 161.64602 307.252799 
L 172.395452 306.916152 
L 181.353311 306.422177 
L 188.519599 305.810766 
L 193.894314 305.177507 
L 199.26903 304.35081 
L 204.643746 303.283631 
L 210.018462 301.9215 
L 213.601605 300.819313 
L 217.184749 299.538668 
L 220.767893 298.058295 
L 224.351037 296.355876 
L 227.934181 294.408288 
L 231.517324 292.1919 
L 235.100468 289.682949 
L 238.683612 286.857974 
L 242.266756 283.694315 
L 245.8499 280.170677 
L 249.433043 276.267746 
L 253.016187 271.968848 
L 256.599331 267.260644 
L 260.182475 262.133841 
L 263.765619 256.583902 
L 267.348763 250.611735 
L 270.931906 244.224341 
L 274.51505 237.435394 
L 278.098194 230.26573 
L 283.47291 218.861578 
L 288.847625 206.795124 
L 296.013913 189.972281 
L 312.13806 151.676213 
L 317.512776 139.730865 
L 321.09592 132.246433 
L 324.679064 125.245924 
L 328.262207 118.812413 
L 331.845351 113.024359 
L 335.428495 107.954023 
L 337.220067 105.708516 
L 339.011639 103.665971 
L 340.803211 101.833033 
L 342.594783 100.215702 
L 344.386355 98.819303 
L 346.177926 97.648457 
L 347.969498 96.707055 
L 349.76107 95.998233 
L 351.552642 95.524362 
L 353.344214 95.287029 
L 355.135786 95.287029 
L 356.927358 95.524362 
L 358.71893 95.998233 
L 360.510502 96.707055 
L 362.302074 97.648457 
L 364.093645 98.819303 
L 365.885217 100.215702 
L 367.676789 101.833033 
L 369.468361 103.665971 
L 371.259933 105.708516 
L 373.051505 107.954023 
L 374.843077 110.395244 
L 378.426221 115.833024 
L 382.009365 121.953263 
L 385.592508 128.680407 
L 389.175652 135.933486 
L 392.758796 143.627733 
L 398.133512 155.805931 
L 405.299799 172.775874 
L 417.840803 202.653734 
L 423.215518 214.905519 
L 428.590234 226.546693 
L 432.173378 233.896558 
L 435.756522 240.878932 
L 439.339666 247.469249 
L 442.922809 253.650309 
L 446.505953 259.411842 
L 450.089097 264.749971 
L 453.672241 269.666593 
L 457.255385 274.168713 
L 460.838528 278.267735 
L 464.421672 281.978755 
L 468.004816 285.31985 
L 471.58796 288.311406 
L 475.171104 290.975474 
L 478.754247 293.335181 
L 482.337391 295.414198 
L 485.920535 297.236271 
L 489.503679 298.82482 
L 493.086823 300.2026 
L 496.669967 301.391431 
L 500.25311 302.411984 
L 505.627826 303.669286 
L 511.002542 304.650622 
L 516.377258 305.407974 
L 523.543545 306.145451 
L 530.709833 306.649859 
L 539.667692 307.053003 
L 552.208696 307.354258 
L 570.124415 307.520881 
L 607.747425 307.581091 
L 622.08 307.583209 
L 622.08 307.583209 
" style="fill:none;stroke:#000000;stroke-linecap:square;"/>
   </g>
   <g id="line2d_9">
    <path clip-path="url(#p15834ae19d)" d="M 86.4 307.036775 
L 100.732575 306.607937 
L 113.273579 306.006242 
L 124.02301 305.248456 
L 132.98087 304.389468 
L 140.147157 303.516419 
L 147.313445 302.445802 
L 154.479732 301.144814 
L 161.64602 299.57835 
L 167.020736 298.207217 
L 172.395452 296.650278 
L 177.770167 294.891738 
L 183.144883 292.916135 
L 188.519599 290.708694 
L 193.894314 288.255717 
L 199.26903 285.545006 
L 204.643746 282.566314 
L 210.018462 279.311816 
L 215.393177 275.776579 
L 220.767893 271.959036 
L 226.142609 267.861437 
L 231.517324 263.490256 
L 236.89204 258.856565 
L 242.266756 253.976322 
L 249.433043 247.12296 
L 256.599331 239.933693 
L 265.557191 230.59926 
L 292.430769 202.285116 
L 299.597057 195.255177 
L 304.971773 190.290269 
L 310.346488 185.652683 
L 315.721204 181.397587 
L 319.304348 178.799192 
L 322.887492 176.4084 
L 326.470635 174.238652 
L 330.053779 172.302295 
L 333.636923 170.610469 
L 337.220067 169.172995 
L 340.803211 167.998284 
L 344.386355 167.093253 
L 347.969498 166.463257 
L 351.552642 166.11204 
L 355.135786 166.041692 
L 358.71893 166.252632 
L 362.302074 166.743603 
L 365.885217 167.511686 
L 369.468361 168.552326 
L 373.051505 169.859378 
L 376.634649 171.42517 
L 380.217793 173.240574 
L 383.800936 175.295097 
L 387.38408 177.576982 
L 390.967224 180.073319 
L 394.550368 182.770167 
L 399.925084 187.158716 
L 405.299799 191.911664 
L 410.674515 196.973029 
L 417.840803 204.101443 
L 426.798662 213.428539 
L 451.880669 239.933693 
L 459.046957 247.12296 
L 466.213244 253.976322 
L 471.58796 258.856565 
L 476.962676 263.490256 
L 482.337391 267.861437 
L 487.712107 271.959036 
L 493.086823 275.776579 
L 498.461538 279.311816 
L 503.836254 282.566314 
L 509.21097 285.545006 
L 514.585686 288.255717 
L 519.960401 290.708694 
L 525.335117 292.916135 
L 530.709833 294.891738 
L 536.084548 296.650278 
L 541.459264 298.207217 
L 546.83398 299.57835 
L 554.000268 301.144814 
L 561.166555 302.445802 
L 568.332843 303.516419 
L 575.49913 304.389468 
L 584.45699 305.248456 
L 593.414849 305.897558 
L 604.164281 306.461603 
L 616.705284 306.901619 
L 622.08 307.036775 
L 622.08 307.036775 
" style="fill:none;stroke:#1f77b4;stroke-linecap:square;"/>
   </g>
   <g id="line2d_10">
    <path clip-path="url(#p15834ae19d)" d="M 86.4 302.919509 
L 97.149431 301.619762 
L 106.107291 300.320028 
L 115.065151 298.798688 
L 124.02301 297.032745 
L 132.98087 295.000112 
L 140.147157 293.168243 
L 147.313445 291.143429 
L 154.479732 288.917916 
L 161.64602 286.485751 
L 168.812308 283.843139 
L 175.978595 280.988791 
L 183.144883 277.924269 
L 190.311171 274.654292 
L 199.26903 270.290668 
L 208.22689 265.643041 
L 217.184749 260.744809 
L 227.934181 254.597294 
L 242.266756 246.098034 
L 265.557191 232.21575 
L 276.306622 226.100108 
L 285.264482 221.292479 
L 292.430769 217.696524 
L 299.597057 214.368718 
L 304.971773 212.07311 
L 310.346488 209.966956 
L 315.721204 208.065138 
L 321.09592 206.381291 
L 326.470635 204.927639 
L 331.845351 203.714849 
L 337.220067 202.751899 
L 342.594783 202.045969 
L 347.969498 201.602352 
L 353.344214 201.424383 
L 358.71893 201.513404 
L 364.093645 201.868746 
L 369.468361 202.48773 
L 374.843077 203.365713 
L 380.217793 204.496134 
L 385.592508 205.870603 
L 390.967224 207.479003 
L 396.34194 209.309612 
L 401.716656 211.34925 
L 407.091371 213.58343 
L 414.257659 216.837823 
L 421.423946 220.370632 
L 428.590234 224.14009 
L 437.548094 229.118887 
L 448.297525 235.372354 
L 469.796388 248.243336 
L 484.128963 256.674341 
L 494.878395 262.731638 
L 503.836254 267.534248 
L 512.794114 272.071749 
L 521.751973 276.314536 
L 528.918261 279.482584 
L 536.084548 282.442405 
L 543.250836 285.190894 
L 550.417124 287.727957 
L 557.583411 290.056178 
L 564.749699 292.180477 
L 571.915987 294.10775 
L 579.082274 295.846519 
L 588.040134 297.769918 
L 596.997993 299.4353 
L 605.955853 300.865214 
L 614.913712 302.082803 
L 622.08 302.919509 
L 622.08 302.919509 
" style="fill:none;stroke:#800080;stroke-linecap:square;"/>
   </g>
   <g id="patch_3">
    <path d="M 86.4 307.584 
L 86.4 41.472 
" style="fill:none;stroke:#000000;stroke-linecap:square;stroke-linejoin:miter;stroke-width:0.8;"/>
   </g>
   <g id="patch_4">
    <path d="M 622.08 307.584 
L 622.08 41.472 
" style="fill:none;stroke:#000000;stroke-linecap:square;stroke-linejoin:miter;stroke-width:0.8;"/>
   </g>
   <g id="patch_5">
    <path d="M 86.4 307.584 
L 622.08 307.584 
" style="fill:none;stroke:#000000;stroke-linecap:square;stroke-linejoin:miter;stroke-width:0.8;"/>
   </g>
   <g id="patch_6">
    <path d="M 86.4 41.472 
L 622.08 41.472 
" style="fill:none;stroke:#000000;stroke-linecap:square;stroke-linejoin:miter;stroke-width:0.8;"/>
   </g>
   <g id="text_8">
    <!-- Normal Distributions -->
    <g transform="translate(292.495312 35.472)scale(0.12 -0.12)">
     <defs>
      <path d="M 628 4666 
L 1478 4666 
L 3547 763 
L 3547 4666 
L 4159 4666 
L 4159 0 
L 3309 0 
L 1241 3903 
L 1241 0 
L 628 0 
L 628 4666 
z
" id="DejaVuSans-4e" transform="scale(0.015625)"/>
      <path d="M 1959 3097 
Q 1497 3097 1228 2736 
Q 959 2375 959 1747 
Q 959 1119 1226 758 
Q 1494 397 1959 397 
Q 2419 397 2687 759 
Q 2956 1122 2956 1747 
Q 2956 2369 2687 2733 
Q 2419 3097 1959 3097 
z
M 1959 3584 
Q 2709 3584 3137 3096 
Q 3566 2609 3566 1747 
Q 3566 888 3137 398 
Q 2709 -91 1959 -91 
Q 1206 -91 779 398 
Q 353 888 353 1747 
Q 353 2609 779 3096 
Q 1206 3584 1959 3584 
z
" id="DejaVuSans-6f" transform="scale(0.015625)"/>
      <path d="M 2631 2963 
Q 2534 3019 2420 3045 
Q 2306 3072 2169 3072 
Q 1681 3072 1420 2755 
Q 1159 2438 1159 1844 
L 1159 0 
L 581 0 
L 581 3500 
L 1159 3500 
L 1159 2956 
Q 1341 3275 1631 3429 
Q 1922 3584 2338 3584 
Q 2397 3584 2469 3576 
Q 2541 3569 2628 3553 
L 2631 2963 
z
" id="DejaVuSans-72" transform="scale(0.015625)"/>
      <path d="M 3328 2828 
Q 3544 3216 3844 3400 
Q 4144 3584 4550 3584 
Q 5097 3584 5394 3201 
Q 5691 2819 5691 2113 
L 5691 0 
L 5113 0 
L 5113 2094 
Q 5113 2597 4934 2840 
Q 4756 3084 4391 3084 
Q 3944 3084 3684 2787 
Q 3425 2491 3425 1978 
L 3425 0 
L 2847 0 
L 2847 2094 
Q 2847 2600 2669 2842 
Q 2491 3084 2119 3084 
Q 1678 3084 1418 2786 
Q 1159 2488 1159 1978 
L 1159 0 
L 581 0 
L 581 3500 
L 1159 3500 
L 1159 2956 
Q 1356 3278 1631 3431 
Q 1906 3584 2284 3584 
Q 2666 3584 2933 3390 
Q 3200 3197 3328 2828 
z
" id="DejaVuSans-6d" transform="scale(0.015625)"/>
      <path d="M 2194 1759 
Q 1497 1759 1228 1600 
Q 959 1441 959 1056 
Q 959 750 1161 570 
Q 1363 391 1709 391 
Q 2188 391 2477 730 
Q 2766 1069 2766 1631 
L 2766 1759 
L 2194 1759 
z
M 3341 1997 
L 3341 0 
L 2766 0 
L 2766 531 
Q 2569 213 2275 61 
Q 1981 -91 1556 -91 
Q 1019 -91 701 211 
Q 384 513 384 1019 
Q 384 1609 779 1909 
Q 1175 2209 1959 2209 
L 2766 2209 
L 2766 2266 
Q 2766 2663 2505 2880 
Q 2244 3097 1772 3097 
Q 1472 3097 1187 3025 
Q 903 2953 641 2809 
L 641 3341 
Q 956 3463 1253 3523 
Q 1550 3584 1831 3584 
Q 2591 3584 2966 3190 
Q 3341 2797 3341 1997 
z
" id="DejaVuSans-61" transform="scale(0.015625)"/>
      <path d="M 603 4863 
L 1178 4863 
L 1178 0 
L 603 0 
L 603 4863 
z
" id="DejaVuSans-6c" transform="scale(0.015625)"/>
      <path id="DejaVuSans-20" transform="scale(0.015625)"/>
      <path d="M 1259 4147 
L 1259 519 
L 2022 519 
Q 2988 519 3436 956 
Q 3884 1394 3884 2338 
Q 3884 3275 3436 3711 
Q 2988 4147 2022 4147 
L 1259 4147 
z
M 628 4666 
L 1925 4666 
Q 3281 4666 3915 4102 
Q 4550 3538 4550 2338 
Q 4550 1131 3912 565 
Q 3275 0 1925 0 
L 628 0 
L 628 4666 
z
" id="DejaVuSans-44" transform="scale(0.015625)"/>
      <path d="M 603 3500 
L 1178 3500 
L 1178 0 
L 603 0 
L 603 3500 
z
M 603 4863 
L 1178 4863 
L 1178 4134 
L 603 4134 
L 603 4863 
z
" id="DejaVuSans-69" transform="scale(0.015625)"/>
      <path d="M 2834 3397 
L 2834 2853 
Q 2591 2978 2328 3040 
Q 2066 3103 1784 3103 
Q 1356 3103 1142 2972 
Q 928 2841 928 2578 
Q 928 2378 1081 2264 
Q 1234 2150 1697 2047 
L 1894 2003 
Q 2506 1872 2764 1633 
Q 3022 1394 3022 966 
Q 3022 478 2636 193 
Q 2250 -91 1575 -91 
Q 1294 -91 989 -36 
Q 684 19 347 128 
L 347 722 
Q 666 556 975 473 
Q 1284 391 1588 391 
Q 1994 391 2212 530 
Q 2431 669 2431 922 
Q 2431 1156 2273 1281 
Q 2116 1406 1581 1522 
L 1381 1569 
Q 847 1681 609 1914 
Q 372 2147 372 2553 
Q 372 3047 722 3315 
Q 1072 3584 1716 3584 
Q 2034 3584 2315 3537 
Q 2597 3491 2834 3397 
z
" id="DejaVuSans-73" transform="scale(0.015625)"/>
      <path d="M 1172 4494 
L 1172 3500 
L 2356 3500 
L 2356 3053 
L 1172 3053 
L 1172 1153 
Q 1172 725 1289 603 
Q 1406 481 1766 481 
L 2356 481 
L 2356 0 
L 1766 0 
Q 1100 0 847 248 
Q 594 497 594 1153 
L 594 3053 
L 172 3053 
L 172 3500 
L 594 3500 
L 594 4494 
L 1172 4494 
z
" id="DejaVuSans-74" transform="scale(0.015625)"/>
      <path d="M 3116 1747 
Q 3116 2381 2855 2742 
Q 2594 3103 2138 3103 
Q 1681 3103 1420 2742 
Q 1159 2381 1159 1747 
Q 1159 1113 1420 752 
Q 1681 391 2138 391 
Q 2594 391 2855 752 
Q 3116 1113 3116 1747 
z
M 1159 2969 
Q 1341 3281 1617 3432 
Q 1894 3584 2278 3584 
Q 2916 3584 3314 3078 
Q 3713 2572 3713 1747 
Q 3713 922 3314 415 
Q 2916 -91 2278 -91 
Q 1894 -91 1617 61 
Q 1341 213 1159 525 
L 1159 0 
L 581 0 
L 581 4863 
L 1159 4863 
L 1159 2969 
z
" id="DejaVuSans-62" transform="scale(0.015625)"/>
      <path d="M 544 1381 
L 544 3500 
L 1119 3500 
L 1119 1403 
Q 1119 906 1312 657 
Q 1506 409 1894 409 
Q 2359 409 2629 706 
Q 2900 1003 2900 1516 
L 2900 3500 
L 3475 3500 
L 3475 0 
L 2900 0 
L 2900 538 
Q 2691 219 2414 64 
Q 2138 -91 1772 -91 
Q 1169 -91 856 284 
Q 544 659 544 1381 
z
M 1991 3584 
L 1991 3584 
z
" id="DejaVuSans-75" transform="scale(0.015625)"/>
      <path d="M 3513 2113 
L 3513 0 
L 2938 0 
L 2938 2094 
Q 2938 2591 2744 2837 
Q 2550 3084 2163 3084 
Q 1697 3084 1428 2787 
Q 1159 2491 1159 1978 
L 1159 0 
L 581 0 
L 581 3500 
L 1159 3500 
L 1159 2956 
Q 1366 3272 1645 3428 
Q 1925 3584 2291 3584 
Q 2894 3584 3203 3211 
Q 3513 2838 3513 2113 
z
" id="DejaVuSans-6e" transform="scale(0.015625)"/>
     </defs>
     <use xlink:href="#DejaVuSans-4e"/>
     <use x="74.804688" xlink:href="#DejaVuSans-6f"/>
     <use x="135.986328" xlink:href="#DejaVuSans-72"/>
     <use x="175.349609" xlink:href="#DejaVuSans-6d"/>
     <use x="272.761719" xlink:href="#DejaVuSans-61"/>
     <use x="334.041016" xlink:href="#DejaVuSans-6c"/>
     <use x="361.824219" xlink:href="#DejaVuSans-20"/>
     <use x="393.611328" xlink:href="#DejaVuSans-44"/>
     <use x="470.613281" xlink:href="#DejaVuSans-69"/>
     <use x="498.396484" xlink:href="#DejaVuSans-73"/>
     <use x="550.496094" xlink:href="#DejaVuSans-74"/>
     <use x="589.705078" xlink:href="#DejaVuSans-72"/>
     <use x="630.818359" xlink:href="#DejaVuSans-69"/>
     <use x="658.601562" xlink:href="#DejaVuSans-62"/>
     <use x="722.078125" xlink:href="#DejaVuSans-75"/>
     <use x="785.457031" xlink:href="#DejaVuSans-74"/>
     <use x="824.666016" xlink:href="#DejaVuSans-69"/>
     <use x="852.449219" xlink:href="#DejaVuSans-6f"/>
     <use x="913.630859" xlink:href="#DejaVuSans-6e"/>
     <use x="977.009766" xlink:href="#DejaVuSans-73"/>
    </g>
   </g>
  </g>
 </g>
 <defs>
  <clipPath id="p15834ae19d">
   <rect height="266.112" width="535.68" x="86.4" y="41.472"/>
  </clipPath>
 </defs>
</svg>
