<?xml version="1.0" encoding="utf-8" standalone="no"?>
<!DOCTYPE svg PUBLIC "-//W3C//DTD SVG 1.1//EN"
  "http://www.w3.org/Graphics/SVG/1.1/DTD/svg11.dtd">
<svg height="216pt" version="1.1" viewBox="0 0 460.8 216" width="460.8pt" xmlns="http://www.w3.org/2000/svg" xmlns:xlink="http://www.w3.org/1999/xlink">
 <metadata>
  <rdf:RDF xmlns:cc="http://creativecommons.org/ns#" xmlns:dc="http://purl.org/dc/elements/1.1/" xmlns:rdf="http://www.w3.org/1999/02/22-rdf-syntax-ns#">
   <cc:Work>
    <dc:type rdf:resource="http://purl.org/dc/dcmitype/StillImage"/>
    <dc:date>2021-07-19T04:40:05.538201</dc:date>
    <dc:format>image/svg+xml</dc:format>
    <dc:creator>
     <cc:Agent>
      <dc:title>Matplotlib v3.4.2, https://matplotlib.org/</dc:title>
     </cc:Agent>
    </dc:creator>
   </cc:Work>
  </rdf:RDF>
 </metadata>
 <defs>
  <style type="text/css">*{stroke-linecap:butt;stroke-linejoin:round;}</style>
 </defs>
 <g id="figure_1">
  <g id="patch_1">
   <path d="M 0 216 
L 460.8 216 
L 460.8 0 
L 0 0 
z
" style="fill:#ffffff;"/>
  </g>
  <g id="axes_1">
   <g id="patch_2">
    <path d="M 33.64 188.12 
L 450 188.12 
L 450 10.8 
L 33.64 10.8 
z
" style="fill:#ffffff;"/>
   </g>
   <g id="PolyCollection_1">
    <defs>
     <path d="M 33.64 -27.88 
L 33.64 -27.932398 
L 34.386107 -27.935438 
L 35.132215 -27.938643 
L 35.878322 -27.942021 
L 36.624429 -27.945581 
L 37.370536 -27.949331 
L 38.116644 -27.953282 
L 38.862751 -27.957443 
L 39.608858 -27.961823 
L 40.354966 -27.966435 
L 41.101073 -27.971288 
L 41.84718 -27.976395 
L 42.593287 -27.981767 
L 43.339395 -27.987418 
L 44.085502 -27.99336 
L 44.831609 -27.999608 
L 45.577717 -28.006175 
L 46.323824 -28.013076 
L 47.069931 -28.020327 
L 47.816039 -28.027944 
L 48.562146 -28.035943 
L 49.308253 -28.044343 
L 50.05436 -28.053161 
L 50.800468 -28.062416 
L 51.546575 -28.072127 
L 52.292682 -28.082316 
L 53.03879 -28.093003 
L 53.784897 -28.10421 
L 54.531004 -28.11596 
L 55.277111 -28.128276 
L 56.023219 -28.141184 
L 56.769326 -28.154709 
L 57.515433 -28.168876 
L 58.261541 -28.183714 
L 59.007648 -28.199251 
L 59.753755 -28.215516 
L 60.499862 -28.23254 
L 61.24597 -28.250355 
L 61.992077 -28.268992 
L 62.738184 -28.288486 
L 63.484292 -28.308872 
L 64.230399 -28.330185 
L 64.976506 -28.352464 
L 65.722613 -28.375748 
L 66.468721 -28.400075 
L 67.214828 -28.425487 
L 67.960935 -28.452028 
L 68.707043 -28.47974 
L 69.45315 -28.50867 
L 70.199257 -28.538864 
L 70.945365 -28.570371 
L 71.691472 -28.60324 
L 72.437579 -28.637523 
L 73.183686 -28.673274 
L 73.929794 -28.710545 
L 74.675901 -28.749395 
L 75.422008 -28.789881 
L 76.168116 -28.832062 
L 76.914223 -28.875999 
L 77.66033 -28.921756 
L 78.406437 -28.969398 
L 79.152545 -29.018991 
L 79.898652 -29.070604 
L 80.644759 -29.124307 
L 81.390867 -29.180172 
L 82.136974 -29.238274 
L 82.883081 -29.298689 
L 83.629188 -29.361494 
L 84.375296 -29.42677 
L 85.121403 -29.494599 
L 85.86751 -29.565065 
L 86.613618 -29.638255 
L 87.359725 -29.714256 
L 88.105832 -29.793158 
L 88.851939 -29.875055 
L 89.598047 -29.96004 
L 90.344154 -30.048211 
L 91.090261 -30.139667 
L 91.836369 -30.234507 
L 92.582476 -30.332836 
L 93.328583 -30.434758 
L 94.074691 -30.540381 
L 94.820798 -30.649815 
L 95.566905 -30.763171 
L 96.313012 -30.880563 
L 97.05912 -31.002108 
L 97.805227 -31.127923 
L 98.551334 -31.258129 
L 99.297442 -31.392849 
L 100.043549 -31.532206 
L 100.789656 -31.676328 
L 101.535763 -31.825343 
L 102.281871 -31.979382 
L 103.027978 -32.138577 
L 103.774085 -32.303064 
L 104.520193 -32.472979 
L 105.2663 -32.648461 
L 106.012407 -32.82965 
L 106.758514 -33.016687 
L 107.504622 -33.209718 
L 107.504622 -27.88 
L 107.504622 -27.88 
L 106.758514 -27.88 
L 106.012407 -27.88 
L 105.2663 -27.88 
L 104.520193 -27.88 
L 103.774085 -27.88 
L 103.027978 -27.88 
L 102.281871 -27.88 
L 101.535763 -27.88 
L 100.789656 -27.88 
L 100.043549 -27.88 
L 99.297442 -27.88 
L 98.551334 -27.88 
L 97.805227 -27.88 
L 97.05912 -27.88 
L 96.313012 -27.88 
L 95.566905 -27.88 
L 94.820798 -27.88 
L 94.074691 -27.88 
L 93.328583 -27.88 
L 92.582476 -27.88 
L 91.836369 -27.88 
L 91.090261 -27.88 
L 90.344154 -27.88 
L 89.598047 -27.88 
L 88.851939 -27.88 
L 88.105832 -27.88 
L 87.359725 -27.88 
L 86.613618 -27.88 
L 85.86751 -27.88 
L 85.121403 -27.88 
L 84.375296 -27.88 
L 83.629188 -27.88 
L 82.883081 -27.88 
L 82.136974 -27.88 
L 81.390867 -27.88 
L 80.644759 -27.88 
L 79.898652 -27.88 
L 79.152545 -27.88 
L 78.406437 -27.88 
L 77.66033 -27.88 
L 76.914223 -27.88 
L 76.168116 -27.88 
L 75.422008 -27.88 
L 74.675901 -27.88 
L 73.929794 -27.88 
L 73.183686 -27.88 
L 72.437579 -27.88 
L 71.691472 -27.88 
L 70.945365 -27.88 
L 70.199257 -27.88 
L 69.45315 -27.88 
L 68.707043 -27.88 
L 67.960935 -27.88 
L 67.214828 -27.88 
L 66.468721 -27.88 
L 65.722613 -27.88 
L 64.976506 -27.88 
L 64.230399 -27.88 
L 63.484292 -27.88 
L 62.738184 -27.88 
L 61.992077 -27.88 
L 61.24597 -27.88 
L 60.499862 -27.88 
L 59.753755 -27.88 
L 59.007648 -27.88 
L 58.261541 -27.88 
L 57.515433 -27.88 
L 56.769326 -27.88 
L 56.023219 -27.88 
L 55.277111 -27.88 
L 54.531004 -27.88 
L 53.784897 -27.88 
L 53.03879 -27.88 
L 52.292682 -27.88 
L 51.546575 -27.88 
L 50.800468 -27.88 
L 50.05436 -27.88 
L 49.308253 -27.88 
L 48.562146 -27.88 
L 47.816039 -27.88 
L 47.069931 -27.88 
L 46.323824 -27.88 
L 45.577717 -27.88 
L 44.831609 -27.88 
L 44.085502 -27.88 
L 43.339395 -27.88 
L 42.593287 -27.88 
L 41.84718 -27.88 
L 41.101073 -27.88 
L 40.354966 -27.88 
L 39.608858 -27.88 
L 38.862751 -27.88 
L 38.116644 -27.88 
L 37.370536 -27.88 
L 36.624429 -27.88 
L 35.878322 -27.88 
L 35.132215 -27.88 
L 34.386107 -27.88 
L 33.64 -27.88 
z
" id="m4596afe061" style="stroke:#d62728;stroke-opacity:0.7;"/>
    </defs>
    <g clip-path="url(#pa4f4cb6c10)">
     <use style="fill:#d62728;fill-opacity:0.7;stroke:#d62728;stroke-opacity:0.7;" x="0" xlink:href="#m4596afe061" y="216"/>
    </g>
   </g>
   <g id="PolyCollection_2">
    <defs>
     <path d="M 376.135378 -27.88 
L 376.135378 -33.209718 
L 376.881486 -33.016687 
L 377.627593 -32.82965 
L 378.3737 -32.648461 
L 379.119807 -32.472979 
L 379.865915 -32.303064 
L 380.612022 -32.138577 
L 381.358129 -31.979382 
L 382.104237 -31.825343 
L 382.850344 -31.676328 
L 383.596451 -31.532206 
L 384.342558 -31.392849 
L 385.088666 -31.258129 
L 385.834773 -31.127923 
L 386.58088 -31.002108 
L 387.326988 -30.880563 
L 388.073095 -30.763171 
L 388.819202 -30.649815 
L 389.565309 -30.540381 
L 390.311417 -30.434758 
L 391.057524 -30.332836 
L 391.803631 -30.234507 
L 392.549739 -30.139667 
L 393.295846 -30.048211 
L 394.041953 -29.96004 
L 394.788061 -29.875055 
L 395.534168 -29.793158 
L 396.280275 -29.714256 
L 397.026382 -29.638255 
L 397.77249 -29.565065 
L 398.518597 -29.494599 
L 399.264704 -29.42677 
L 400.010812 -29.361494 
L 400.756919 -29.298689 
L 401.503026 -29.238274 
L 402.249133 -29.180172 
L 402.995241 -29.124307 
L 403.741348 -29.070604 
L 404.487455 -29.018991 
L 405.233563 -28.969398 
L 405.97967 -28.921756 
L 406.725777 -28.875999 
L 407.471884 -28.832062 
L 408.217992 -28.789881 
L 408.964099 -28.749395 
L 409.710206 -28.710545 
L 410.456314 -28.673274 
L 411.202421 -28.637523 
L 411.948528 -28.60324 
L 412.694635 -28.570371 
L 413.440743 -28.538864 
L 414.18685 -28.50867 
L 414.932957 -28.47974 
L 415.679065 -28.452028 
L 416.425172 -28.425487 
L 417.171279 -28.400075 
L 417.917387 -28.375748 
L 418.663494 -28.352464 
L 419.409601 -28.330185 
L 420.155708 -28.308872 
L 420.901816 -28.288486 
L 421.647923 -28.268992 
L 422.39403 -28.250355 
L 423.140138 -28.23254 
L 423.886245 -28.215516 
L 424.632352 -28.199251 
L 425.378459 -28.183714 
L 426.124567 -28.168876 
L 426.870674 -28.154709 
L 427.616781 -28.141184 
L 428.362889 -28.128276 
L 429.108996 -28.11596 
L 429.855103 -28.10421 
L 430.60121 -28.093003 
L 431.347318 -28.082316 
L 432.093425 -28.072127 
L 432.839532 -28.062416 
L 433.58564 -28.053161 
L 434.331747 -28.044343 
L 435.077854 -28.035943 
L 435.823961 -28.027944 
L 436.570069 -28.020327 
L 437.316176 -28.013076 
L 438.062283 -28.006175 
L 438.808391 -27.999608 
L 439.554498 -27.99336 
L 440.300605 -27.987418 
L 441.046713 -27.981767 
L 441.79282 -27.976395 
L 442.538927 -27.971288 
L 443.285034 -27.966435 
L 444.031142 -27.961823 
L 444.777249 -27.957443 
L 445.523356 -27.953282 
L 446.269464 -27.949331 
L 447.015571 -27.945581 
L 447.761678 -27.942021 
L 448.507785 -27.938643 
L 449.253893 -27.935438 
L 450 -27.932398 
L 450 -27.88 
L 450 -27.88 
L 449.253893 -27.88 
L 448.507785 -27.88 
L 447.761678 -27.88 
L 447.015571 -27.88 
L 446.269464 -27.88 
L 445.523356 -27.88 
L 444.777249 -27.88 
L 444.031142 -27.88 
L 443.285034 -27.88 
L 442.538927 -27.88 
L 441.79282 -27.88 
L 441.046713 -27.88 
L 440.300605 -27.88 
L 439.554498 -27.88 
L 438.808391 -27.88 
L 438.062283 -27.88 
L 437.316176 -27.88 
L 436.570069 -27.88 
L 435.823961 -27.88 
L 435.077854 -27.88 
L 434.331747 -27.88 
L 433.58564 -27.88 
L 432.839532 -27.88 
L 432.093425 -27.88 
L 431.347318 -27.88 
L 430.60121 -27.88 
L 429.855103 -27.88 
L 429.108996 -27.88 
L 428.362889 -27.88 
L 427.616781 -27.88 
L 426.870674 -27.88 
L 426.124567 -27.88 
L 425.378459 -27.88 
L 424.632352 -27.88 
L 423.886245 -27.88 
L 423.140138 -27.88 
L 422.39403 -27.88 
L 421.647923 -27.88 
L 420.901816 -27.88 
L 420.155708 -27.88 
L 419.409601 -27.88 
L 418.663494 -27.88 
L 417.917387 -27.88 
L 417.171279 -27.88 
L 416.425172 -27.88 
L 415.679065 -27.88 
L 414.932957 -27.88 
L 414.18685 -27.88 
L 413.440743 -27.88 
L 412.694635 -27.88 
L 411.948528 -27.88 
L 411.202421 -27.88 
L 410.456314 -27.88 
L 409.710206 -27.88 
L 408.964099 -27.88 
L 408.217992 -27.88 
L 407.471884 -27.88 
L 406.725777 -27.88 
L 405.97967 -27.88 
L 405.233563 -27.88 
L 404.487455 -27.88 
L 403.741348 -27.88 
L 402.995241 -27.88 
L 402.249133 -27.88 
L 401.503026 -27.88 
L 400.756919 -27.88 
L 400.010812 -27.88 
L 399.264704 -27.88 
L 398.518597 -27.88 
L 397.77249 -27.88 
L 397.026382 -27.88 
L 396.280275 -27.88 
L 395.534168 -27.88 
L 394.788061 -27.88 
L 394.041953 -27.88 
L 393.295846 -27.88 
L 392.549739 -27.88 
L 391.803631 -27.88 
L 391.057524 -27.88 
L 390.311417 -27.88 
L 389.565309 -27.88 
L 388.819202 -27.88 
L 388.073095 -27.88 
L 387.326988 -27.88 
L 386.58088 -27.88 
L 385.834773 -27.88 
L 385.088666 -27.88 
L 384.342558 -27.88 
L 383.596451 -27.88 
L 382.850344 -27.88 
L 382.104237 -27.88 
L 381.358129 -27.88 
L 380.612022 -27.88 
L 379.865915 -27.88 
L 379.119807 -27.88 
L 378.3737 -27.88 
L 377.627593 -27.88 
L 376.881486 -27.88 
L 376.135378 -27.88 
z
" id="m87e2180b46" style="stroke:#d62728;stroke-opacity:0.7;"/>
    </defs>
    <g clip-path="url(#pa4f4cb6c10)">
     <use style="fill:#d62728;fill-opacity:0.7;stroke:#d62728;stroke-opacity:0.7;" x="0" xlink:href="#m87e2180b46" y="216"/>
    </g>
   </g>
   <g id="matplotlib.axis_1">
    <g id="xtick_1">
     <g id="line2d_1">
      <defs>
       <path d="M 0 0 
L 0 3.5 
" id="mc8d8a6d922" style="stroke:#000000;stroke-width:0.8;"/>
      </defs>
      <g>
       <use style="stroke:#000000;stroke-width:0.8;" x="107.504622" xlink:href="#mc8d8a6d922" y="188.12"/>
      </g>
     </g>
     <g id="text_1">
      <!-- -CV -->
      <g transform="translate(98.788997 202.718437)scale(0.1 -0.1)">
       <defs>
        <path d="M 313 2009 
L 1997 2009 
L 1997 1497 
L 313 1497 
L 313 2009 
z
" id="DejaVuSans-2d" transform="scale(0.015625)"/>
        <path d="M 4122 4306 
L 4122 3641 
Q 3803 3938 3442 4084 
Q 3081 4231 2675 4231 
Q 1875 4231 1450 3742 
Q 1025 3253 1025 2328 
Q 1025 1406 1450 917 
Q 1875 428 2675 428 
Q 3081 428 3442 575 
Q 3803 722 4122 1019 
L 4122 359 
Q 3791 134 3420 21 
Q 3050 -91 2638 -91 
Q 1578 -91 968 557 
Q 359 1206 359 2328 
Q 359 3453 968 4101 
Q 1578 4750 2638 4750 
Q 3056 4750 3426 4639 
Q 3797 4528 4122 4306 
z
" id="DejaVuSans-43" transform="scale(0.015625)"/>
        <path d="M 1831 0 
L 50 4666 
L 709 4666 
L 2188 738 
L 3669 4666 
L 4325 4666 
L 2547 0 
L 1831 0 
z
" id="DejaVuSans-56" transform="scale(0.015625)"/>
       </defs>
       <use xlink:href="#DejaVuSans-2d"/>
       <use x="36.083984" xlink:href="#DejaVuSans-43"/>
       <use x="105.908203" xlink:href="#DejaVuSans-56"/>
      </g>
     </g>
    </g>
    <g id="xtick_2">
     <g id="line2d_2">
      <g>
       <use style="stroke:#000000;stroke-width:0.8;" x="376.135378" xlink:href="#mc8d8a6d922" y="188.12"/>
      </g>
     </g>
     <g id="text_2">
      <!-- CV -->
      <g transform="translate(369.22366 202.718437)scale(0.1 -0.1)">
       <use xlink:href="#DejaVuSans-43"/>
       <use x="69.824219" xlink:href="#DejaVuSans-56"/>
      </g>
     </g>
    </g>
    <g id="xtick_3">
     <g id="line2d_3">
      <g>
       <use style="stroke:#000000;stroke-width:0.8;" x="241.82" xlink:href="#mc8d8a6d922" y="188.12"/>
      </g>
     </g>
     <g id="text_3">
      <!-- 0 -->
      <g transform="translate(238.63875 202.718437)scale(0.1 -0.1)">
       <defs>
        <path d="M 2034 4250 
Q 1547 4250 1301 3770 
Q 1056 3291 1056 2328 
Q 1056 1369 1301 889 
Q 1547 409 2034 409 
Q 2525 409 2770 889 
Q 3016 1369 3016 2328 
Q 3016 3291 2770 3770 
Q 2525 4250 2034 4250 
z
M 2034 4750 
Q 2819 4750 3233 4129 
Q 3647 3509 3647 2328 
Q 3647 1150 3233 529 
Q 2819 -91 2034 -91 
Q 1250 -91 836 529 
Q 422 1150 422 2328 
Q 422 3509 836 4129 
Q 1250 4750 2034 4750 
z
" id="DejaVuSans-30" transform="scale(0.015625)"/>
       </defs>
       <use xlink:href="#DejaVuSans-30"/>
      </g>
     </g>
    </g>
   </g>
   <g id="matplotlib.axis_2">
    <g id="ytick_1">
     <g id="line2d_4">
      <defs>
       <path d="M 0 0 
L -3.5 0 
" id="m0f972f5684" style="stroke:#000000;stroke-width:0.8;"/>
      </defs>
      <g>
       <use style="stroke:#000000;stroke-width:0.8;" x="33.64" xlink:href="#m0f972f5684" y="188.12"/>
      </g>
     </g>
     <g id="text_4">
      <!-- 0.0 -->
      <g transform="translate(10.736875 191.919219)scale(0.1 -0.1)">
       <defs>
        <path d="M 684 794 
L 1344 794 
L 1344 0 
L 684 0 
L 684 794 
z
" id="DejaVuSans-2e" transform="scale(0.015625)"/>
       </defs>
       <use xlink:href="#DejaVuSans-30"/>
       <use x="63.623047" xlink:href="#DejaVuSans-2e"/>
       <use x="95.410156" xlink:href="#DejaVuSans-30"/>
      </g>
     </g>
    </g>
    <g id="ytick_2">
     <g id="line2d_5">
      <g>
       <use style="stroke:#000000;stroke-width:0.8;" x="33.64" xlink:href="#m0f972f5684" y="151.06781"/>
      </g>
     </g>
     <g id="text_5">
      <!-- 0.1 -->
      <g transform="translate(10.736875 154.867028)scale(0.1 -0.1)">
       <defs>
        <path d="M 794 531 
L 1825 531 
L 1825 4091 
L 703 3866 
L 703 4441 
L 1819 4666 
L 2450 4666 
L 2450 531 
L 3481 531 
L 3481 0 
L 794 0 
L 794 531 
z
" id="DejaVuSans-31" transform="scale(0.015625)"/>
       </defs>
       <use xlink:href="#DejaVuSans-30"/>
       <use x="63.623047" xlink:href="#DejaVuSans-2e"/>
       <use x="95.410156" xlink:href="#DejaVuSans-31"/>
      </g>
     </g>
    </g>
    <g id="ytick_3">
     <g id="line2d_6">
      <g>
       <use style="stroke:#000000;stroke-width:0.8;" x="33.64" xlink:href="#m0f972f5684" y="114.015619"/>
      </g>
     </g>
     <g id="text_6">
      <!-- 0.2 -->
      <g transform="translate(10.736875 117.814838)scale(0.1 -0.1)">
       <defs>
        <path d="M 1228 531 
L 3431 531 
L 3431 0 
L 469 0 
L 469 531 
Q 828 903 1448 1529 
Q 2069 2156 2228 2338 
Q 2531 2678 2651 2914 
Q 2772 3150 2772 3378 
Q 2772 3750 2511 3984 
Q 2250 4219 1831 4219 
Q 1534 4219 1204 4116 
Q 875 4013 500 3803 
L 500 4441 
Q 881 4594 1212 4672 
Q 1544 4750 1819 4750 
Q 2544 4750 2975 4387 
Q 3406 4025 3406 3419 
Q 3406 3131 3298 2873 
Q 3191 2616 2906 2266 
Q 2828 2175 2409 1742 
Q 1991 1309 1228 531 
z
" id="DejaVuSans-32" transform="scale(0.015625)"/>
       </defs>
       <use xlink:href="#DejaVuSans-30"/>
       <use x="63.623047" xlink:href="#DejaVuSans-2e"/>
       <use x="95.410156" xlink:href="#DejaVuSans-32"/>
      </g>
     </g>
    </g>
    <g id="ytick_4">
     <g id="line2d_7">
      <g>
       <use style="stroke:#000000;stroke-width:0.8;" x="33.64" xlink:href="#m0f972f5684" y="76.963429"/>
      </g>
     </g>
     <g id="text_7">
      <!-- 0.3 -->
      <g transform="translate(10.736875 80.762648)scale(0.1 -0.1)">
       <defs>
        <path d="M 2597 2516 
Q 3050 2419 3304 2112 
Q 3559 1806 3559 1356 
Q 3559 666 3084 287 
Q 2609 -91 1734 -91 
Q 1441 -91 1130 -33 
Q 819 25 488 141 
L 488 750 
Q 750 597 1062 519 
Q 1375 441 1716 441 
Q 2309 441 2620 675 
Q 2931 909 2931 1356 
Q 2931 1769 2642 2001 
Q 2353 2234 1838 2234 
L 1294 2234 
L 1294 2753 
L 1863 2753 
Q 2328 2753 2575 2939 
Q 2822 3125 2822 3475 
Q 2822 3834 2567 4026 
Q 2313 4219 1838 4219 
Q 1578 4219 1281 4162 
Q 984 4106 628 3988 
L 628 4550 
Q 988 4650 1302 4700 
Q 1616 4750 1894 4750 
Q 2613 4750 3031 4423 
Q 3450 4097 3450 3541 
Q 3450 3153 3228 2886 
Q 3006 2619 2597 2516 
z
" id="DejaVuSans-33" transform="scale(0.015625)"/>
       </defs>
       <use xlink:href="#DejaVuSans-30"/>
       <use x="63.623047" xlink:href="#DejaVuSans-2e"/>
       <use x="95.410156" xlink:href="#DejaVuSans-33"/>
      </g>
     </g>
    </g>
    <g id="ytick_5">
     <g id="line2d_8">
      <g>
       <use style="stroke:#000000;stroke-width:0.8;" x="33.64" xlink:href="#m0f972f5684" y="39.911239"/>
      </g>
     </g>
     <g id="text_8">
      <!-- 0.4 -->
      <g transform="translate(10.736875 43.710458)scale(0.1 -0.1)">
       <defs>
        <path d="M 2419 4116 
L 825 1625 
L 2419 1625 
L 2419 4116 
z
M 2253 4666 
L 3047 4666 
L 3047 1625 
L 3713 1625 
L 3713 1100 
L 3047 1100 
L 3047 0 
L 2419 0 
L 2419 1100 
L 313 1100 
L 313 1709 
L 2253 4666 
z
" id="DejaVuSans-34" transform="scale(0.015625)"/>
       </defs>
       <use xlink:href="#DejaVuSans-30"/>
       <use x="63.623047" xlink:href="#DejaVuSans-2e"/>
       <use x="95.410156" xlink:href="#DejaVuSans-34"/>
      </g>
     </g>
    </g>
   </g>
   <g id="LineCollection_1">
    <path clip-path="url(#pa4f4cb6c10)" d="M 107.504622 188.12 
L 107.504622 182.790282 
" style="fill:none;stroke:#000000;"/>
   </g>
   <g id="LineCollection_2">
    <path clip-path="url(#pa4f4cb6c10)" d="M 376.135378 188.12 
L 376.135378 182.790282 
" style="fill:none;stroke:#000000;"/>
   </g>
   <g id="line2d_9">
    <path clip-path="url(#pa4f4cb6c10)" d="M 33.64 188.067602 
L 54.527625 187.884095 
L 67.060201 187.579871 
L 76.807759 187.13038 
L 85.162809 186.50156 
L 92.125351 185.727828 
L 97.695385 184.890872 
L 103.265418 183.809657 
L 107.442943 182.80647 
L 111.620468 181.611079 
L 115.797993 180.197067 
L 119.975518 178.536793 
L 124.153043 176.601909 
L 128.330569 174.364011 
L 132.508094 171.795425 
L 136.685619 168.870128 
L 140.863144 165.564786 
L 145.040669 161.859886 
L 149.218194 157.740947 
L 153.395719 153.199743 
L 157.573244 148.235526 
L 161.750769 142.856166 
L 165.928294 137.079172 
L 170.105819 130.932515 
L 174.283344 124.455213 
L 179.853378 115.393105 
L 186.81592 103.598577 
L 199.348495 82.216286 
L 204.918528 73.207146 
L 209.096054 66.865179 
L 213.273579 60.994743 
L 216.058595 57.392851 
L 218.843612 54.073399 
L 221.628629 51.062848 
L 224.413645 48.385605 
L 227.198662 46.063697 
L 229.983679 44.116468 
L 232.768696 42.560308 
L 235.553712 41.408424 
L 238.338729 40.670656 
L 241.123746 40.353333 
L 243.908763 40.459184 
L 246.693779 40.987297 
L 249.478796 41.933135 
L 252.263813 43.288602 
L 255.048829 45.042151 
L 257.833846 47.178959 
L 260.618863 49.681126 
L 263.40388 52.527933 
L 266.188896 55.696122 
L 268.973913 59.160216 
L 271.75893 62.89286 
L 275.936455 68.931868 
L 280.11398 75.407968 
L 285.684013 84.541347 
L 294.039064 98.809055 
L 303.786622 115.393105 
L 309.356656 124.455213 
L 314.926689 133.020297 
L 319.104214 139.047514 
L 323.281739 144.69454 
L 327.459264 149.93697 
L 331.636789 154.760609 
L 335.814314 159.160581 
L 339.991839 163.140259 
L 344.169365 166.71009 
L 348.34689 169.88637 
L 352.524415 172.690015 
L 356.70194 175.145378 
L 360.879465 177.279143 
L 365.05699 179.119322 
L 369.234515 180.694381 
L 373.41204 182.0325 
L 377.589565 183.16096 
L 383.159599 184.383996 
L 388.729632 185.336786 
L 394.299666 186.069669 
L 401.262207 186.742482 
L 409.617258 187.284702 
L 419.364816 187.668505 
L 431.897391 187.925243 
L 450 188.067602 
L 450 188.067602 
" style="fill:none;stroke:#000000;stroke-linecap:square;"/>
   </g>
   <g id="patch_3">
    <path d="M 33.64 188.12 
L 33.64 10.8 
" style="fill:none;stroke:#000000;stroke-linecap:square;stroke-linejoin:miter;stroke-width:0.8;"/>
   </g>
   <g id="patch_4">
    <path d="M 450 188.12 
L 450 10.8 
" style="fill:none;stroke:#000000;stroke-linecap:square;stroke-linejoin:miter;stroke-width:0.8;"/>
   </g>
   <g id="patch_5">
    <path d="M 33.64 188.12 
L 450 188.12 
" style="fill:none;stroke:#000000;stroke-linecap:square;stroke-linejoin:miter;stroke-width:0.8;"/>
   </g>
   <g id="patch_6">
    <path d="M 33.64 10.8 
L 450 10.8 
" style="fill:none;stroke:#000000;stroke-linecap:square;stroke-linejoin:miter;stroke-width:0.8;"/>
   </g>
   <g id="patch_7">
    <path d="M 77.476676 174.867467 
Q 79.764763 179.87576 81.727633 184.172201 
" style="fill:none;stroke:#000000;stroke-linecap:round;stroke-width:0.7;"/>
    <path d="M 81.88459 179.70282 
L 81.727633 184.172201 
L 78.246303 181.365007 
" style="fill:none;stroke:#000000;stroke-linecap:round;stroke-width:0.7;"/>
   </g>
   <g id="text_9">
    <!-- $\alpha$/2 -->
    <g style="fill:#d62728;" transform="translate(65.5214 168.969311)scale(0.1 -0.1)">
     <defs>
      <path d="M 2619 1628 
L 2622 2350 
Q 2625 3088 2069 3091 
Q 1653 3094 1394 2747 
Q 1069 2319 959 1747 
Q 825 1059 994 731 
Q 1169 397 1547 397 
Q 1966 397 2319 1063 
L 2619 1628 
z
M 2166 3578 
Q 3141 3594 3128 2584 
Q 3128 2584 3616 3500 
L 4128 3500 
L 3119 1603 
L 3109 919 
Q 3109 766 3194 638 
Q 3291 488 3391 488 
L 3669 488 
L 3575 0 
L 3228 0 
Q 2934 0 2722 263 
Q 2622 394 2619 669 
Q 2416 334 2066 50 
Q 1900 -81 1453 -78 
Q 722 -72 456 397 
Q 184 884 353 1747 
Q 534 2675 1009 3097 
Q 1544 3569 2166 3578 
z
" id="DejaVuSans-Oblique-3b1" transform="scale(0.015625)"/>
      <path d="M 1625 4666 
L 2156 4666 
L 531 -594 
L 0 -594 
L 1625 4666 
z
" id="DejaVuSans-2f" transform="scale(0.015625)"/>
     </defs>
     <use transform="translate(0 0.78125)" xlink:href="#DejaVuSans-Oblique-3b1"/>
     <use transform="translate(65.917969 0.78125)" xlink:href="#DejaVuSans-2f"/>
     <use transform="translate(95.984375 0.78125)" xlink:href="#DejaVuSans-32"/>
    </g>
   </g>
   <g id="patch_8">
    <path d="M 406.163324 174.867467 
Q 403.875237 179.87576 401.912367 184.172201 
" style="fill:none;stroke:#000000;stroke-linecap:round;stroke-width:0.7;"/>
    <path d="M 405.393697 181.365007 
L 401.912367 184.172201 
L 401.75541 179.70282 
" style="fill:none;stroke:#000000;stroke-linecap:round;stroke-width:0.7;"/>
   </g>
   <g id="text_10">
    <!-- $\alpha$/2 -->
    <g style="fill:#d62728;" transform="translate(402.1186 168.969311)scale(0.1 -0.1)">
     <use transform="translate(0 0.78125)" xlink:href="#DejaVuSans-Oblique-3b1"/>
     <use transform="translate(65.917969 0.78125)" xlink:href="#DejaVuSans-2f"/>
     <use transform="translate(95.984375 0.78125)" xlink:href="#DejaVuSans-32"/>
    </g>
   </g>
   <g id="text_11">
    <!-- Rejection Region ($\alpha$) = tail areas -->
    <g style="fill:#d62728;" transform="translate(39.8854 23.2124)scale(0.09 -0.09)">
     <defs>
      <path d="M 2841 2188 
Q 3044 2119 3236 1894 
Q 3428 1669 3622 1275 
L 4263 0 
L 3584 0 
L 2988 1197 
Q 2756 1666 2539 1819 
Q 2322 1972 1947 1972 
L 1259 1972 
L 1259 0 
L 628 0 
L 628 4666 
L 2053 4666 
Q 2853 4666 3247 4331 
Q 3641 3997 3641 3322 
Q 3641 2881 3436 2590 
Q 3231 2300 2841 2188 
z
M 1259 4147 
L 1259 2491 
L 2053 2491 
Q 2509 2491 2742 2702 
Q 2975 2913 2975 3322 
Q 2975 3731 2742 3939 
Q 2509 4147 2053 4147 
L 1259 4147 
z
" id="DejaVuSans-52" transform="scale(0.015625)"/>
      <path d="M 3597 1894 
L 3597 1613 
L 953 1613 
Q 991 1019 1311 708 
Q 1631 397 2203 397 
Q 2534 397 2845 478 
Q 3156 559 3463 722 
L 3463 178 
Q 3153 47 2828 -22 
Q 2503 -91 2169 -91 
Q 1331 -91 842 396 
Q 353 884 353 1716 
Q 353 2575 817 3079 
Q 1281 3584 2069 3584 
Q 2775 3584 3186 3129 
Q 3597 2675 3597 1894 
z
M 3022 2063 
Q 3016 2534 2758 2815 
Q 2500 3097 2075 3097 
Q 1594 3097 1305 2825 
Q 1016 2553 972 2059 
L 3022 2063 
z
" id="DejaVuSans-65" transform="scale(0.015625)"/>
      <path d="M 603 3500 
L 1178 3500 
L 1178 -63 
Q 1178 -731 923 -1031 
Q 669 -1331 103 -1331 
L -116 -1331 
L -116 -844 
L 38 -844 
Q 366 -844 484 -692 
Q 603 -541 603 -63 
L 603 3500 
z
M 603 4863 
L 1178 4863 
L 1178 4134 
L 603 4134 
L 603 4863 
z
" id="DejaVuSans-6a" transform="scale(0.015625)"/>
      <path d="M 3122 3366 
L 3122 2828 
Q 2878 2963 2633 3030 
Q 2388 3097 2138 3097 
Q 1578 3097 1268 2742 
Q 959 2388 959 1747 
Q 959 1106 1268 751 
Q 1578 397 2138 397 
Q 2388 397 2633 464 
Q 2878 531 3122 666 
L 3122 134 
Q 2881 22 2623 -34 
Q 2366 -91 2075 -91 
Q 1284 -91 818 406 
Q 353 903 353 1747 
Q 353 2603 823 3093 
Q 1294 3584 2113 3584 
Q 2378 3584 2631 3529 
Q 2884 3475 3122 3366 
z
" id="DejaVuSans-63" transform="scale(0.015625)"/>
      <path d="M 1172 4494 
L 1172 3500 
L 2356 3500 
L 2356 3053 
L 1172 3053 
L 1172 1153 
Q 1172 725 1289 603 
Q 1406 481 1766 481 
L 2356 481 
L 2356 0 
L 1766 0 
Q 1100 0 847 248 
Q 594 497 594 1153 
L 594 3053 
L 172 3053 
L 172 3500 
L 594 3500 
L 594 4494 
L 1172 4494 
z
" id="DejaVuSans-74" transform="scale(0.015625)"/>
      <path d="M 603 3500 
L 1178 3500 
L 1178 0 
L 603 0 
L 603 3500 
z
M 603 4863 
L 1178 4863 
L 1178 4134 
L 603 4134 
L 603 4863 
z
" id="DejaVuSans-69" transform="scale(0.015625)"/>
      <path d="M 1959 3097 
Q 1497 3097 1228 2736 
Q 959 2375 959 1747 
Q 959 1119 1226 758 
Q 1494 397 1959 397 
Q 2419 397 2687 759 
Q 2956 1122 2956 1747 
Q 2956 2369 2687 2733 
Q 2419 3097 1959 3097 
z
M 1959 3584 
Q 2709 3584 3137 3096 
Q 3566 2609 3566 1747 
Q 3566 888 3137 398 
Q 2709 -91 1959 -91 
Q 1206 -91 779 398 
Q 353 888 353 1747 
Q 353 2609 779 3096 
Q 1206 3584 1959 3584 
z
" id="DejaVuSans-6f" transform="scale(0.015625)"/>
      <path d="M 3513 2113 
L 3513 0 
L 2938 0 
L 2938 2094 
Q 2938 2591 2744 2837 
Q 2550 3084 2163 3084 
Q 1697 3084 1428 2787 
Q 1159 2491 1159 1978 
L 1159 0 
L 581 0 
L 581 3500 
L 1159 3500 
L 1159 2956 
Q 1366 3272 1645 3428 
Q 1925 3584 2291 3584 
Q 2894 3584 3203 3211 
Q 3513 2838 3513 2113 
z
" id="DejaVuSans-6e" transform="scale(0.015625)"/>
      <path id="DejaVuSans-20" transform="scale(0.015625)"/>
      <path d="M 2906 1791 
Q 2906 2416 2648 2759 
Q 2391 3103 1925 3103 
Q 1463 3103 1205 2759 
Q 947 2416 947 1791 
Q 947 1169 1205 825 
Q 1463 481 1925 481 
Q 2391 481 2648 825 
Q 2906 1169 2906 1791 
z
M 3481 434 
Q 3481 -459 3084 -895 
Q 2688 -1331 1869 -1331 
Q 1566 -1331 1297 -1286 
Q 1028 -1241 775 -1147 
L 775 -588 
Q 1028 -725 1275 -790 
Q 1522 -856 1778 -856 
Q 2344 -856 2625 -561 
Q 2906 -266 2906 331 
L 2906 616 
Q 2728 306 2450 153 
Q 2172 0 1784 0 
Q 1141 0 747 490 
Q 353 981 353 1791 
Q 353 2603 747 3093 
Q 1141 3584 1784 3584 
Q 2172 3584 2450 3431 
Q 2728 3278 2906 2969 
L 2906 3500 
L 3481 3500 
L 3481 434 
z
" id="DejaVuSans-67" transform="scale(0.015625)"/>
      <path d="M 1984 4856 
Q 1566 4138 1362 3434 
Q 1159 2731 1159 2009 
Q 1159 1288 1364 580 
Q 1569 -128 1984 -844 
L 1484 -844 
Q 1016 -109 783 600 
Q 550 1309 550 2009 
Q 550 2706 781 3412 
Q 1013 4119 1484 4856 
L 1984 4856 
z
" id="DejaVuSans-28" transform="scale(0.015625)"/>
      <path d="M 513 4856 
L 1013 4856 
Q 1481 4119 1714 3412 
Q 1947 2706 1947 2009 
Q 1947 1309 1714 600 
Q 1481 -109 1013 -844 
L 513 -844 
Q 928 -128 1133 580 
Q 1338 1288 1338 2009 
Q 1338 2731 1133 3434 
Q 928 4138 513 4856 
z
" id="DejaVuSans-29" transform="scale(0.015625)"/>
      <path d="M 678 2906 
L 4684 2906 
L 4684 2381 
L 678 2381 
L 678 2906 
z
M 678 1631 
L 4684 1631 
L 4684 1100 
L 678 1100 
L 678 1631 
z
" id="DejaVuSans-3d" transform="scale(0.015625)"/>
      <path d="M 2194 1759 
Q 1497 1759 1228 1600 
Q 959 1441 959 1056 
Q 959 750 1161 570 
Q 1363 391 1709 391 
Q 2188 391 2477 730 
Q 2766 1069 2766 1631 
L 2766 1759 
L 2194 1759 
z
M 3341 1997 
L 3341 0 
L 2766 0 
L 2766 531 
Q 2569 213 2275 61 
Q 1981 -91 1556 -91 
Q 1019 -91 701 211 
Q 384 513 384 1019 
Q 384 1609 779 1909 
Q 1175 2209 1959 2209 
L 2766 2209 
L 2766 2266 
Q 2766 2663 2505 2880 
Q 2244 3097 1772 3097 
Q 1472 3097 1187 3025 
Q 903 2953 641 2809 
L 641 3341 
Q 956 3463 1253 3523 
Q 1550 3584 1831 3584 
Q 2591 3584 2966 3190 
Q 3341 2797 3341 1997 
z
" id="DejaVuSans-61" transform="scale(0.015625)"/>
      <path d="M 603 4863 
L 1178 4863 
L 1178 0 
L 603 0 
L 603 4863 
z
" id="DejaVuSans-6c" transform="scale(0.015625)"/>
      <path d="M 2631 2963 
Q 2534 3019 2420 3045 
Q 2306 3072 2169 3072 
Q 1681 3072 1420 2755 
Q 1159 2438 1159 1844 
L 1159 0 
L 581 0 
L 581 3500 
L 1159 3500 
L 1159 2956 
Q 1341 3275 1631 3429 
Q 1922 3584 2338 3584 
Q 2397 3584 2469 3576 
Q 2541 3569 2628 3553 
L 2631 2963 
z
" id="DejaVuSans-72" transform="scale(0.015625)"/>
      <path d="M 2834 3397 
L 2834 2853 
Q 2591 2978 2328 3040 
Q 2066 3103 1784 3103 
Q 1356 3103 1142 2972 
Q 928 2841 928 2578 
Q 928 2378 1081 2264 
Q 1234 2150 1697 2047 
L 1894 2003 
Q 2506 1872 2764 1633 
Q 3022 1394 3022 966 
Q 3022 478 2636 193 
Q 2250 -91 1575 -91 
Q 1294 -91 989 -36 
Q 684 19 347 128 
L 347 722 
Q 666 556 975 473 
Q 1284 391 1588 391 
Q 1994 391 2212 530 
Q 2431 669 2431 922 
Q 2431 1156 2273 1281 
Q 2116 1406 1581 1522 
L 1381 1569 
Q 847 1681 609 1914 
Q 372 2147 372 2553 
Q 372 3047 722 3315 
Q 1072 3584 1716 3584 
Q 2034 3584 2315 3537 
Q 2597 3491 2834 3397 
z
" id="DejaVuSans-73" transform="scale(0.015625)"/>
     </defs>
     <use transform="translate(0 0.015625)" xlink:href="#DejaVuSans-52"/>
     <use transform="translate(69.482422 0.015625)" xlink:href="#DejaVuSans-65"/>
     <use transform="translate(131.005859 0.015625)" xlink:href="#DejaVuSans-6a"/>
     <use transform="translate(158.789062 0.015625)" xlink:href="#DejaVuSans-65"/>
     <use transform="translate(220.3125 0.015625)" xlink:href="#DejaVuSans-63"/>
     <use transform="translate(275.292969 0.015625)" xlink:href="#DejaVuSans-74"/>
     <use transform="translate(314.501953 0.015625)" xlink:href="#DejaVuSans-69"/>
     <use transform="translate(342.285156 0.015625)" xlink:href="#DejaVuSans-6f"/>
     <use transform="translate(403.466797 0.015625)" xlink:href="#DejaVuSans-6e"/>
     <use transform="translate(466.845703 0.015625)" xlink:href="#DejaVuSans-20"/>
     <use transform="translate(498.632812 0.015625)" xlink:href="#DejaVuSans-52"/>
     <use transform="translate(568.115234 0.015625)" xlink:href="#DejaVuSans-65"/>
     <use transform="translate(629.638672 0.015625)" xlink:href="#DejaVuSans-67"/>
     <use transform="translate(693.115234 0.015625)" xlink:href="#DejaVuSans-69"/>
     <use transform="translate(720.898438 0.015625)" xlink:href="#DejaVuSans-6f"/>
     <use transform="translate(782.080078 0.015625)" xlink:href="#DejaVuSans-6e"/>
     <use transform="translate(845.458984 0.015625)" xlink:href="#DejaVuSans-20"/>
     <use transform="translate(877.246094 0.015625)" xlink:href="#DejaVuSans-28"/>
     <use transform="translate(916.259766 0.015625)" xlink:href="#DejaVuSans-Oblique-3b1"/>
     <use transform="translate(982.177734 0.015625)" xlink:href="#DejaVuSans-29"/>
     <use transform="translate(1021.191406 0.015625)" xlink:href="#DejaVuSans-20"/>
     <use transform="translate(1052.978516 0.015625)" xlink:href="#DejaVuSans-3d"/>
     <use transform="translate(1136.767578 0.015625)" xlink:href="#DejaVuSans-20"/>
     <use transform="translate(1168.554688 0.015625)" xlink:href="#DejaVuSans-74"/>
     <use transform="translate(1207.763672 0.015625)" xlink:href="#DejaVuSans-61"/>
     <use transform="translate(1269.042969 0.015625)" xlink:href="#DejaVuSans-69"/>
     <use transform="translate(1296.826172 0.015625)" xlink:href="#DejaVuSans-6c"/>
     <use transform="translate(1324.609375 0.015625)" xlink:href="#DejaVuSans-20"/>
     <use transform="translate(1356.396484 0.015625)" xlink:href="#DejaVuSans-61"/>
     <use transform="translate(1417.675781 0.015625)" xlink:href="#DejaVuSans-72"/>
     <use transform="translate(1458.789062 0.015625)" xlink:href="#DejaVuSans-65"/>
     <use transform="translate(1520.3125 0.015625)" xlink:href="#DejaVuSans-61"/>
     <use transform="translate(1581.591797 0.015625)" xlink:href="#DejaVuSans-73"/>
    </g>
   </g>
   <g id="text_12">
    <!-- Critical Values (CV) -->
    <g transform="translate(39.8854 35.6248)scale(0.09 -0.09)">
     <defs>
      <path d="M 544 1381 
L 544 3500 
L 1119 3500 
L 1119 1403 
Q 1119 906 1312 657 
Q 1506 409 1894 409 
Q 2359 409 2629 706 
Q 2900 1003 2900 1516 
L 2900 3500 
L 3475 3500 
L 3475 0 
L 2900 0 
L 2900 538 
Q 2691 219 2414 64 
Q 2138 -91 1772 -91 
Q 1169 -91 856 284 
Q 544 659 544 1381 
z
M 1991 3584 
L 1991 3584 
z
" id="DejaVuSans-75" transform="scale(0.015625)"/>
     </defs>
     <use xlink:href="#DejaVuSans-43"/>
     <use x="69.824219" xlink:href="#DejaVuSans-72"/>
     <use x="110.9375" xlink:href="#DejaVuSans-69"/>
     <use x="138.720703" xlink:href="#DejaVuSans-74"/>
     <use x="177.929688" xlink:href="#DejaVuSans-69"/>
     <use x="205.712891" xlink:href="#DejaVuSans-63"/>
     <use x="260.693359" xlink:href="#DejaVuSans-61"/>
     <use x="321.972656" xlink:href="#DejaVuSans-6c"/>
     <use x="349.755859" xlink:href="#DejaVuSans-20"/>
     <use x="381.542969" xlink:href="#DejaVuSans-56"/>
     <use x="442.201172" xlink:href="#DejaVuSans-61"/>
     <use x="503.480469" xlink:href="#DejaVuSans-6c"/>
     <use x="531.263672" xlink:href="#DejaVuSans-75"/>
     <use x="594.642578" xlink:href="#DejaVuSans-65"/>
     <use x="656.166016" xlink:href="#DejaVuSans-73"/>
     <use x="708.265625" xlink:href="#DejaVuSans-20"/>
     <use x="740.052734" xlink:href="#DejaVuSans-28"/>
     <use x="779.066406" xlink:href="#DejaVuSans-43"/>
     <use x="848.890625" xlink:href="#DejaVuSans-56"/>
     <use x="917.298828" xlink:href="#DejaVuSans-29"/>
    </g>
   </g>
  </g>
 </g>
 <defs>
  <clipPath id="pa4f4cb6c10">
   <rect height="177.32" width="416.36" x="33.64" y="10.8"/>
  </clipPath>
 </defs>
</svg>
