<?xml version="1.0" encoding="utf-8" standalone="no"?>
<!DOCTYPE svg PUBLIC "-//W3C//DTD SVG 1.1//EN"
  "http://www.w3.org/Graphics/SVG/1.1/DTD/svg11.dtd">
<svg height="446.4pt" version="1.1" viewBox="0 0 460.8 446.4" width="460.8pt" xmlns="http://www.w3.org/2000/svg" xmlns:xlink="http://www.w3.org/1999/xlink">
 <metadata>
  <rdf:RDF xmlns:cc="http://creativecommons.org/ns#" xmlns:dc="http://purl.org/dc/elements/1.1/" xmlns:rdf="http://www.w3.org/1999/02/22-rdf-syntax-ns#">
   <cc:Work>
    <dc:type rdf:resource="http://purl.org/dc/dcmitype/StillImage"/>
    <dc:date>2021-07-15T15:46:25.354725</dc:date>
    <dc:format>image/svg+xml</dc:format>
    <dc:creator>
     <cc:Agent>
      <dc:title>Matplotlib v3.4.2, https://matplotlib.org/</dc:title>
     </cc:Agent>
    </dc:creator>
   </cc:Work>
  </rdf:RDF>
 </metadata>
 <defs>
  <style type="text/css">*{stroke-linecap:butt;stroke-linejoin:round;}</style>
 </defs>
 <g id="figure_1">
  <g id="patch_1">
   <path d="M 0 446.4 
L 460.8 446.4 
L 460.8 0 
L 0 0 
z
" style="fill:#ffffff;"/>
  </g>
  <g id="axes_1">
   <g id="patch_2">
    <path d="M 33.64 200.72 
L 450 200.72 
L 450 10.8 
L 33.64 10.8 
z
" style="fill:#ffffff;"/>
   </g>
   <g id="PolyCollection_1">
    <defs>
     <path d="M 330.251066 -245.68 
L 330.251066 -283.803084 
L 331.460651 -282.405075 
L 332.670236 -281.043729 
L 333.879822 -279.718905 
L 335.089407 -278.430409 
L 336.298992 -277.177999 
L 337.508577 -275.961387 
L 338.718162 -274.780242 
L 339.927748 -273.634193 
L 341.137333 -272.522832 
L 342.346918 -271.445716 
L 343.556503 -270.40237 
L 344.766088 -269.392289 
L 345.975674 -268.414944 
L 347.185259 -267.469779 
L 348.394844 -266.556216 
L 349.604429 -265.67366 
L 350.814014 -264.821496 
L 352.0236 -263.999096 
L 353.233185 -263.205819 
L 354.44277 -262.441012 
L 355.652355 -261.704014 
L 356.86194 -260.994156 
L 358.071525 -260.310765 
L 359.281111 -259.653163 
L 360.490696 -259.020671 
L 361.700281 -258.41261 
L 362.909866 -257.8283 
L 364.119451 -257.267063 
L 365.329037 -256.728228 
L 366.538622 -256.211125 
L 367.748207 -255.715091 
L 368.957792 -255.239469 
L 370.167377 -254.78361 
L 371.376963 -254.346874 
L 372.586548 -253.928629 
L 373.796133 -253.528253 
L 375.005718 -253.145136 
L 376.215303 -252.778677 
L 377.424889 -252.428287 
L 378.634474 -252.093391 
L 379.844059 -251.773422 
L 381.053644 -251.46783 
L 382.263229 -251.176075 
L 383.472814 -250.897632 
L 384.6824 -250.631989 
L 385.891985 -250.378645 
L 387.10157 -250.137116 
L 388.311155 -249.906929 
L 389.52074 -249.687626 
L 390.730326 -249.478762 
L 391.939911 -249.279905 
L 393.149496 -249.090637 
L 394.359081 -248.910553 
L 395.568666 -248.739261 
L 396.778252 -248.576383 
L 397.987837 -248.421553 
L 399.197422 -248.274418 
L 400.407007 -248.134636 
L 401.616592 -248.001879 
L 402.826178 -247.87583 
L 404.035763 -247.756185 
L 405.245348 -247.64265 
L 406.454933 -247.534942 
L 407.664518 -247.432791 
L 408.874104 -247.335935 
L 410.083689 -247.244125 
L 411.293274 -247.157119 
L 412.502859 -247.074688 
L 413.712444 -246.996611 
L 414.922029 -246.922676 
L 416.131615 -246.85268 
L 417.3412 -246.78643 
L 418.550785 -246.72374 
L 419.76037 -246.664432 
L 420.969955 -246.608337 
L 422.179541 -246.555293 
L 423.389126 -246.505144 
L 424.598711 -246.457743 
L 425.808296 -246.41295 
L 427.017881 -246.370629 
L 428.227467 -246.330652 
L 429.437052 -246.292898 
L 430.646637 -246.257249 
L 431.856222 -246.223596 
L 433.065807 -246.191832 
L 434.275393 -246.161857 
L 435.484978 -246.133575 
L 436.694563 -246.106897 
L 437.904148 -246.081734 
L 439.113733 -246.058007 
L 440.323318 -246.035636 
L 441.532904 -246.014548 
L 442.742489 -245.994672 
L 443.952074 -245.975941 
L 445.161659 -245.958294 
L 446.371244 -245.941669 
L 447.58083 -245.92601 
L 448.790415 -245.911262 
L 450 -245.897376 
L 450 -245.68 
L 450 -245.68 
L 448.790415 -245.68 
L 447.58083 -245.68 
L 446.371244 -245.68 
L 445.161659 -245.68 
L 443.952074 -245.68 
L 442.742489 -245.68 
L 441.532904 -245.68 
L 440.323318 -245.68 
L 439.113733 -245.68 
L 437.904148 -245.68 
L 436.694563 -245.68 
L 435.484978 -245.68 
L 434.275393 -245.68 
L 433.065807 -245.68 
L 431.856222 -245.68 
L 430.646637 -245.68 
L 429.437052 -245.68 
L 428.227467 -245.68 
L 427.017881 -245.68 
L 425.808296 -245.68 
L 424.598711 -245.68 
L 423.389126 -245.68 
L 422.179541 -245.68 
L 420.969955 -245.68 
L 419.76037 -245.68 
L 418.550785 -245.68 
L 417.3412 -245.68 
L 416.131615 -245.68 
L 414.922029 -245.68 
L 413.712444 -245.68 
L 412.502859 -245.68 
L 411.293274 -245.68 
L 410.083689 -245.68 
L 408.874104 -245.68 
L 407.664518 -245.68 
L 406.454933 -245.68 
L 405.245348 -245.68 
L 404.035763 -245.68 
L 402.826178 -245.68 
L 401.616592 -245.68 
L 400.407007 -245.68 
L 399.197422 -245.68 
L 397.987837 -245.68 
L 396.778252 -245.68 
L 395.568666 -245.68 
L 394.359081 -245.68 
L 393.149496 -245.68 
L 391.939911 -245.68 
L 390.730326 -245.68 
L 389.52074 -245.68 
L 388.311155 -245.68 
L 387.10157 -245.68 
L 385.891985 -245.68 
L 384.6824 -245.68 
L 383.472814 -245.68 
L 382.263229 -245.68 
L 381.053644 -245.68 
L 379.844059 -245.68 
L 378.634474 -245.68 
L 377.424889 -245.68 
L 376.215303 -245.68 
L 375.005718 -245.68 
L 373.796133 -245.68 
L 372.586548 -245.68 
L 371.376963 -245.68 
L 370.167377 -245.68 
L 368.957792 -245.68 
L 367.748207 -245.68 
L 366.538622 -245.68 
L 365.329037 -245.68 
L 364.119451 -245.68 
L 362.909866 -245.68 
L 361.700281 -245.68 
L 360.490696 -245.68 
L 359.281111 -245.68 
L 358.071525 -245.68 
L 356.86194 -245.68 
L 355.652355 -245.68 
L 354.44277 -245.68 
L 353.233185 -245.68 
L 352.0236 -245.68 
L 350.814014 -245.68 
L 349.604429 -245.68 
L 348.394844 -245.68 
L 347.185259 -245.68 
L 345.975674 -245.68 
L 344.766088 -245.68 
L 343.556503 -245.68 
L 342.346918 -245.68 
L 341.137333 -245.68 
L 339.927748 -245.68 
L 338.718162 -245.68 
L 337.508577 -245.68 
L 336.298992 -245.68 
L 335.089407 -245.68 
L 333.879822 -245.68 
L 332.670236 -245.68 
L 331.460651 -245.68 
L 330.251066 -245.68 
z
" id="m38f56a7ccb" style="stroke:#d62728;stroke-opacity:0.7;"/>
    </defs>
    <g clip-path="url(#p88d5f7612c)">
     <use style="fill:#d62728;fill-opacity:0.7;stroke:#d62728;stroke-opacity:0.7;" x="0" xlink:href="#m38f56a7ccb" y="446.4"/>
    </g>
   </g>
   <g id="matplotlib.axis_1">
    <g id="xtick_1">
     <g id="line2d_1">
      <defs>
       <path d="M 0 0 
L 0 3.5 
" id="m5278ee9828" style="stroke:#000000;stroke-width:0.8;"/>
      </defs>
      <g>
       <use style="stroke:#000000;stroke-width:0.8;" x="330.251066" xlink:href="#m5278ee9828" y="200.72"/>
      </g>
     </g>
     <g id="text_1">
      <!-- CV -->
      <g transform="translate(323.339347 215.318437)scale(0.1 -0.1)">
       <defs>
        <path d="M 4122 4306 
L 4122 3641 
Q 3803 3938 3442 4084 
Q 3081 4231 2675 4231 
Q 1875 4231 1450 3742 
Q 1025 3253 1025 2328 
Q 1025 1406 1450 917 
Q 1875 428 2675 428 
Q 3081 428 3442 575 
Q 3803 722 4122 1019 
L 4122 359 
Q 3791 134 3420 21 
Q 3050 -91 2638 -91 
Q 1578 -91 968 557 
Q 359 1206 359 2328 
Q 359 3453 968 4101 
Q 1578 4750 2638 4750 
Q 3056 4750 3426 4639 
Q 3797 4528 4122 4306 
z
" id="DejaVuSans-43" transform="scale(0.015625)"/>
        <path d="M 1831 0 
L 50 4666 
L 709 4666 
L 2188 738 
L 3669 4666 
L 4325 4666 
L 2547 0 
L 1831 0 
z
" id="DejaVuSans-56" transform="scale(0.015625)"/>
       </defs>
       <use xlink:href="#DejaVuSans-43"/>
       <use x="69.824219" xlink:href="#DejaVuSans-56"/>
      </g>
     </g>
    </g>
    <g id="xtick_2">
     <g id="line2d_2">
      <g>
       <use style="stroke:#000000;stroke-width:0.8;" x="241.82" xlink:href="#m5278ee9828" y="200.72"/>
      </g>
     </g>
     <g id="text_2">
      <!-- 0 -->
      <g transform="translate(238.63875 215.318437)scale(0.1 -0.1)">
       <defs>
        <path d="M 2034 4250 
Q 1547 4250 1301 3770 
Q 1056 3291 1056 2328 
Q 1056 1369 1301 889 
Q 1547 409 2034 409 
Q 2525 409 2770 889 
Q 3016 1369 3016 2328 
Q 3016 3291 2770 3770 
Q 2525 4250 2034 4250 
z
M 2034 4750 
Q 2819 4750 3233 4129 
Q 3647 3509 3647 2328 
Q 3647 1150 3233 529 
Q 2819 -91 2034 -91 
Q 1250 -91 836 529 
Q 422 1150 422 2328 
Q 422 3509 836 4129 
Q 1250 4750 2034 4750 
z
" id="DejaVuSans-30" transform="scale(0.015625)"/>
       </defs>
       <use xlink:href="#DejaVuSans-30"/>
      </g>
     </g>
    </g>
   </g>
   <g id="matplotlib.axis_2">
    <g id="ytick_1">
     <g id="line2d_3">
      <defs>
       <path d="M 0 0 
L -3.5 0 
" id="m052b7cc815" style="stroke:#000000;stroke-width:0.8;"/>
      </defs>
      <g>
       <use style="stroke:#000000;stroke-width:0.8;" x="33.64" xlink:href="#m052b7cc815" y="200.72"/>
      </g>
     </g>
     <g id="text_3">
      <!-- 0.0 -->
      <g transform="translate(10.736875 204.519219)scale(0.1 -0.1)">
       <defs>
        <path d="M 684 794 
L 1344 794 
L 1344 0 
L 684 0 
L 684 794 
z
" id="DejaVuSans-2e" transform="scale(0.015625)"/>
       </defs>
       <use xlink:href="#DejaVuSans-30"/>
       <use x="63.623047" xlink:href="#DejaVuSans-2e"/>
       <use x="95.410156" xlink:href="#DejaVuSans-30"/>
      </g>
     </g>
    </g>
    <g id="ytick_2">
     <g id="line2d_4">
      <g>
       <use style="stroke:#000000;stroke-width:0.8;" x="33.64" xlink:href="#m052b7cc815" y="160.701319"/>
      </g>
     </g>
     <g id="text_4">
      <!-- 0.1 -->
      <g transform="translate(10.736875 164.500538)scale(0.1 -0.1)">
       <defs>
        <path d="M 794 531 
L 1825 531 
L 1825 4091 
L 703 3866 
L 703 4441 
L 1819 4666 
L 2450 4666 
L 2450 531 
L 3481 531 
L 3481 0 
L 794 0 
L 794 531 
z
" id="DejaVuSans-31" transform="scale(0.015625)"/>
       </defs>
       <use xlink:href="#DejaVuSans-30"/>
       <use x="63.623047" xlink:href="#DejaVuSans-2e"/>
       <use x="95.410156" xlink:href="#DejaVuSans-31"/>
      </g>
     </g>
    </g>
    <g id="ytick_3">
     <g id="line2d_5">
      <g>
       <use style="stroke:#000000;stroke-width:0.8;" x="33.64" xlink:href="#m052b7cc815" y="120.682638"/>
      </g>
     </g>
     <g id="text_5">
      <!-- 0.2 -->
      <g transform="translate(10.736875 124.481857)scale(0.1 -0.1)">
       <defs>
        <path d="M 1228 531 
L 3431 531 
L 3431 0 
L 469 0 
L 469 531 
Q 828 903 1448 1529 
Q 2069 2156 2228 2338 
Q 2531 2678 2651 2914 
Q 2772 3150 2772 3378 
Q 2772 3750 2511 3984 
Q 2250 4219 1831 4219 
Q 1534 4219 1204 4116 
Q 875 4013 500 3803 
L 500 4441 
Q 881 4594 1212 4672 
Q 1544 4750 1819 4750 
Q 2544 4750 2975 4387 
Q 3406 4025 3406 3419 
Q 3406 3131 3298 2873 
Q 3191 2616 2906 2266 
Q 2828 2175 2409 1742 
Q 1991 1309 1228 531 
z
" id="DejaVuSans-32" transform="scale(0.015625)"/>
       </defs>
       <use xlink:href="#DejaVuSans-30"/>
       <use x="63.623047" xlink:href="#DejaVuSans-2e"/>
       <use x="95.410156" xlink:href="#DejaVuSans-32"/>
      </g>
     </g>
    </g>
    <g id="ytick_4">
     <g id="line2d_6">
      <g>
       <use style="stroke:#000000;stroke-width:0.8;" x="33.64" xlink:href="#m052b7cc815" y="80.663957"/>
      </g>
     </g>
     <g id="text_6">
      <!-- 0.3 -->
      <g transform="translate(10.736875 84.463176)scale(0.1 -0.1)">
       <defs>
        <path d="M 2597 2516 
Q 3050 2419 3304 2112 
Q 3559 1806 3559 1356 
Q 3559 666 3084 287 
Q 2609 -91 1734 -91 
Q 1441 -91 1130 -33 
Q 819 25 488 141 
L 488 750 
Q 750 597 1062 519 
Q 1375 441 1716 441 
Q 2309 441 2620 675 
Q 2931 909 2931 1356 
Q 2931 1769 2642 2001 
Q 2353 2234 1838 2234 
L 1294 2234 
L 1294 2753 
L 1863 2753 
Q 2328 2753 2575 2939 
Q 2822 3125 2822 3475 
Q 2822 3834 2567 4026 
Q 2313 4219 1838 4219 
Q 1578 4219 1281 4162 
Q 984 4106 628 3988 
L 628 4550 
Q 988 4650 1302 4700 
Q 1616 4750 1894 4750 
Q 2613 4750 3031 4423 
Q 3450 4097 3450 3541 
Q 3450 3153 3228 2886 
Q 3006 2619 2597 2516 
z
" id="DejaVuSans-33" transform="scale(0.015625)"/>
       </defs>
       <use xlink:href="#DejaVuSans-30"/>
       <use x="63.623047" xlink:href="#DejaVuSans-2e"/>
       <use x="95.410156" xlink:href="#DejaVuSans-33"/>
      </g>
     </g>
    </g>
    <g id="ytick_5">
     <g id="line2d_7">
      <g>
       <use style="stroke:#000000;stroke-width:0.8;" x="33.64" xlink:href="#m052b7cc815" y="40.645276"/>
      </g>
     </g>
     <g id="text_7">
      <!-- 0.4 -->
      <g transform="translate(10.736875 44.444495)scale(0.1 -0.1)">
       <defs>
        <path d="M 2419 4116 
L 825 1625 
L 2419 1625 
L 2419 4116 
z
M 2253 4666 
L 3047 4666 
L 3047 1625 
L 3713 1625 
L 3713 1100 
L 3047 1100 
L 3047 0 
L 2419 0 
L 2419 1100 
L 313 1100 
L 313 1709 
L 2253 4666 
z
" id="DejaVuSans-34" transform="scale(0.015625)"/>
       </defs>
       <use xlink:href="#DejaVuSans-30"/>
       <use x="63.623047" xlink:href="#DejaVuSans-2e"/>
       <use x="95.410156" xlink:href="#DejaVuSans-34"/>
      </g>
     </g>
    </g>
   </g>
   <g id="LineCollection_1">
    <path clip-path="url(#p88d5f7612c)" d="M 330.251066 200.72 
L 330.251066 162.596916 
" style="fill:none;stroke:#000000;"/>
   </g>
   <g id="line2d_8">
    <path clip-path="url(#p88d5f7612c)" d="M 33.64 200.502624 
L 50.3501 200.213854 
L 62.882676 199.782028 
L 72.630234 199.222907 
L 80.985284 198.506698 
L 87.947826 197.677749 
L 93.51786 196.817498 
L 99.087893 195.739997 
L 104.657926 194.400063 
L 108.835452 193.192318 
L 113.012977 191.78457 
L 117.190502 190.151501 
L 121.368027 188.266474 
L 125.545552 186.101935 
L 129.723077 183.629957 
L 133.900602 180.822922 
L 138.078127 177.654355 
L 142.255652 174.099898 
L 146.433177 170.138439 
L 150.610702 165.753344 
L 154.788227 160.933793 
L 158.965753 155.676158 
L 163.143278 149.98539 
L 167.320803 143.876319 
L 171.498328 137.374836 
L 175.675853 130.518839 
L 181.245886 120.915287 
L 188.208428 108.39376 
L 200.741003 85.648951 
L 206.311037 76.069849 
L 210.488562 69.341684 
L 214.666087 63.136434 
L 217.451104 59.346966 
L 220.23612 55.873175 
L 223.021137 52.745248 
L 225.806154 49.990912 
L 228.591171 47.635004 
L 231.376187 45.699074 
L 234.161204 44.201042 
L 236.946221 43.154902 
L 238.338729 42.804533 
L 239.731237 42.570492 
L 241.123746 42.453333 
L 242.516254 42.453333 
L 243.908763 42.570492 
L 245.301271 42.804533 
L 246.693779 43.154902 
L 249.478796 44.201042 
L 252.263813 45.699074 
L 255.048829 47.635004 
L 257.833846 49.990912 
L 260.618863 52.745248 
L 263.40388 55.873175 
L 266.188896 59.346966 
L 268.973913 63.136434 
L 271.75893 67.209389 
L 275.936455 73.776305 
L 280.11398 80.787268 
L 285.684013 90.619824 
L 306.571639 128.163092 
L 312.141672 137.374836 
L 316.319197 143.876319 
L 320.496722 149.98539 
L 324.674247 155.676158 
L 328.851773 160.933793 
L 333.029298 165.753344 
L 337.206823 170.138439 
L 341.384348 174.099898 
L 345.561873 177.654355 
L 349.739398 180.822922 
L 353.916923 183.629957 
L 358.094448 186.101935 
L 362.271973 188.266474 
L 366.449498 190.151501 
L 370.627023 191.78457 
L 374.804548 193.192318 
L 378.982074 194.400063 
L 384.552107 195.739997 
L 390.12214 196.817498 
L 395.692174 197.677749 
L 402.654716 198.506698 
L 409.617258 199.121054 
L 417.972308 199.646711 
L 429.112375 200.09718 
L 443.037458 200.409999 
L 450 200.502624 
L 450 200.502624 
" style="fill:none;stroke:#000000;stroke-linecap:square;"/>
   </g>
   <g id="patch_3">
    <path d="M 33.64 200.72 
L 33.64 10.8 
" style="fill:none;stroke:#000000;stroke-linecap:square;stroke-linejoin:miter;stroke-width:0.8;"/>
   </g>
   <g id="patch_4">
    <path d="M 450 200.72 
L 450 10.8 
" style="fill:none;stroke:#000000;stroke-linecap:square;stroke-linejoin:miter;stroke-width:0.8;"/>
   </g>
   <g id="patch_5">
    <path d="M 33.64 200.72 
L 450 200.72 
" style="fill:none;stroke:#000000;stroke-linecap:square;stroke-linejoin:miter;stroke-width:0.8;"/>
   </g>
   <g id="patch_6">
    <path d="M 33.64 10.8 
L 450 10.8 
" style="fill:none;stroke:#000000;stroke-linecap:square;stroke-linejoin:miter;stroke-width:0.8;"/>
   </g>
   <g id="patch_7">
    <path d="M 386.662761 176.189661 
Q 379.144998 183.220385 372.198839 189.716537 
" style="fill:none;stroke:#000000;stroke-linecap:round;stroke-width:0.7;"/>
    <path d="M 376.486422 188.445066 
L 372.198839 189.716537 
L 373.754212 185.523588 
" style="fill:none;stroke:#000000;stroke-linecap:round;stroke-width:0.7;"/>
   </g>
   <g id="text_8">
    <!-- $\alpha$ -->
    <g style="fill:#d62728;" transform="translate(390.125533 172.62439)scale(0.1 -0.1)">
     <defs>
      <path d="M 2619 1628 
L 2622 2350 
Q 2625 3088 2069 3091 
Q 1653 3094 1394 2747 
Q 1069 2319 959 1747 
Q 825 1059 994 731 
Q 1169 397 1547 397 
Q 1966 397 2319 1063 
L 2619 1628 
z
M 2166 3578 
Q 3141 3594 3128 2584 
Q 3128 2584 3616 3500 
L 4128 3500 
L 3119 1603 
L 3109 919 
Q 3109 766 3194 638 
Q 3291 488 3391 488 
L 3669 488 
L 3575 0 
L 3228 0 
Q 2934 0 2722 263 
Q 2622 394 2619 669 
Q 2416 334 2066 50 
Q 1900 -81 1453 -78 
Q 722 -72 456 397 
Q 184 884 353 1747 
Q 534 2675 1009 3097 
Q 1544 3569 2166 3578 
z
" id="DejaVuSans-Oblique-3b1" transform="scale(0.015625)"/>
     </defs>
     <use transform="translate(0 0.84375)" xlink:href="#DejaVuSans-Oblique-3b1"/>
    </g>
   </g>
   <g id="text_9">
    <!-- Significance Level ($\alpha$) = tail area -->
    <g style="fill:#d62728;" transform="translate(39.8854 24.0944)scale(0.09 -0.09)">
     <defs>
      <path d="M 3425 4513 
L 3425 3897 
Q 3066 4069 2747 4153 
Q 2428 4238 2131 4238 
Q 1616 4238 1336 4038 
Q 1056 3838 1056 3469 
Q 1056 3159 1242 3001 
Q 1428 2844 1947 2747 
L 2328 2669 
Q 3034 2534 3370 2195 
Q 3706 1856 3706 1288 
Q 3706 609 3251 259 
Q 2797 -91 1919 -91 
Q 1588 -91 1214 -16 
Q 841 59 441 206 
L 441 856 
Q 825 641 1194 531 
Q 1563 422 1919 422 
Q 2459 422 2753 634 
Q 3047 847 3047 1241 
Q 3047 1584 2836 1778 
Q 2625 1972 2144 2069 
L 1759 2144 
Q 1053 2284 737 2584 
Q 422 2884 422 3419 
Q 422 4038 858 4394 
Q 1294 4750 2059 4750 
Q 2388 4750 2728 4690 
Q 3069 4631 3425 4513 
z
" id="DejaVuSans-53" transform="scale(0.015625)"/>
      <path d="M 603 3500 
L 1178 3500 
L 1178 0 
L 603 0 
L 603 3500 
z
M 603 4863 
L 1178 4863 
L 1178 4134 
L 603 4134 
L 603 4863 
z
" id="DejaVuSans-69" transform="scale(0.015625)"/>
      <path d="M 2906 1791 
Q 2906 2416 2648 2759 
Q 2391 3103 1925 3103 
Q 1463 3103 1205 2759 
Q 947 2416 947 1791 
Q 947 1169 1205 825 
Q 1463 481 1925 481 
Q 2391 481 2648 825 
Q 2906 1169 2906 1791 
z
M 3481 434 
Q 3481 -459 3084 -895 
Q 2688 -1331 1869 -1331 
Q 1566 -1331 1297 -1286 
Q 1028 -1241 775 -1147 
L 775 -588 
Q 1028 -725 1275 -790 
Q 1522 -856 1778 -856 
Q 2344 -856 2625 -561 
Q 2906 -266 2906 331 
L 2906 616 
Q 2728 306 2450 153 
Q 2172 0 1784 0 
Q 1141 0 747 490 
Q 353 981 353 1791 
Q 353 2603 747 3093 
Q 1141 3584 1784 3584 
Q 2172 3584 2450 3431 
Q 2728 3278 2906 2969 
L 2906 3500 
L 3481 3500 
L 3481 434 
z
" id="DejaVuSans-67" transform="scale(0.015625)"/>
      <path d="M 3513 2113 
L 3513 0 
L 2938 0 
L 2938 2094 
Q 2938 2591 2744 2837 
Q 2550 3084 2163 3084 
Q 1697 3084 1428 2787 
Q 1159 2491 1159 1978 
L 1159 0 
L 581 0 
L 581 3500 
L 1159 3500 
L 1159 2956 
Q 1366 3272 1645 3428 
Q 1925 3584 2291 3584 
Q 2894 3584 3203 3211 
Q 3513 2838 3513 2113 
z
" id="DejaVuSans-6e" transform="scale(0.015625)"/>
      <path d="M 2375 4863 
L 2375 4384 
L 1825 4384 
Q 1516 4384 1395 4259 
Q 1275 4134 1275 3809 
L 1275 3500 
L 2222 3500 
L 2222 3053 
L 1275 3053 
L 1275 0 
L 697 0 
L 697 3053 
L 147 3053 
L 147 3500 
L 697 3500 
L 697 3744 
Q 697 4328 969 4595 
Q 1241 4863 1831 4863 
L 2375 4863 
z
" id="DejaVuSans-66" transform="scale(0.015625)"/>
      <path d="M 3122 3366 
L 3122 2828 
Q 2878 2963 2633 3030 
Q 2388 3097 2138 3097 
Q 1578 3097 1268 2742 
Q 959 2388 959 1747 
Q 959 1106 1268 751 
Q 1578 397 2138 397 
Q 2388 397 2633 464 
Q 2878 531 3122 666 
L 3122 134 
Q 2881 22 2623 -34 
Q 2366 -91 2075 -91 
Q 1284 -91 818 406 
Q 353 903 353 1747 
Q 353 2603 823 3093 
Q 1294 3584 2113 3584 
Q 2378 3584 2631 3529 
Q 2884 3475 3122 3366 
z
" id="DejaVuSans-63" transform="scale(0.015625)"/>
      <path d="M 2194 1759 
Q 1497 1759 1228 1600 
Q 959 1441 959 1056 
Q 959 750 1161 570 
Q 1363 391 1709 391 
Q 2188 391 2477 730 
Q 2766 1069 2766 1631 
L 2766 1759 
L 2194 1759 
z
M 3341 1997 
L 3341 0 
L 2766 0 
L 2766 531 
Q 2569 213 2275 61 
Q 1981 -91 1556 -91 
Q 1019 -91 701 211 
Q 384 513 384 1019 
Q 384 1609 779 1909 
Q 1175 2209 1959 2209 
L 2766 2209 
L 2766 2266 
Q 2766 2663 2505 2880 
Q 2244 3097 1772 3097 
Q 1472 3097 1187 3025 
Q 903 2953 641 2809 
L 641 3341 
Q 956 3463 1253 3523 
Q 1550 3584 1831 3584 
Q 2591 3584 2966 3190 
Q 3341 2797 3341 1997 
z
" id="DejaVuSans-61" transform="scale(0.015625)"/>
      <path d="M 3597 1894 
L 3597 1613 
L 953 1613 
Q 991 1019 1311 708 
Q 1631 397 2203 397 
Q 2534 397 2845 478 
Q 3156 559 3463 722 
L 3463 178 
Q 3153 47 2828 -22 
Q 2503 -91 2169 -91 
Q 1331 -91 842 396 
Q 353 884 353 1716 
Q 353 2575 817 3079 
Q 1281 3584 2069 3584 
Q 2775 3584 3186 3129 
Q 3597 2675 3597 1894 
z
M 3022 2063 
Q 3016 2534 2758 2815 
Q 2500 3097 2075 3097 
Q 1594 3097 1305 2825 
Q 1016 2553 972 2059 
L 3022 2063 
z
" id="DejaVuSans-65" transform="scale(0.015625)"/>
      <path id="DejaVuSans-20" transform="scale(0.015625)"/>
      <path d="M 628 4666 
L 1259 4666 
L 1259 531 
L 3531 531 
L 3531 0 
L 628 0 
L 628 4666 
z
" id="DejaVuSans-4c" transform="scale(0.015625)"/>
      <path d="M 191 3500 
L 800 3500 
L 1894 563 
L 2988 3500 
L 3597 3500 
L 2284 0 
L 1503 0 
L 191 3500 
z
" id="DejaVuSans-76" transform="scale(0.015625)"/>
      <path d="M 603 4863 
L 1178 4863 
L 1178 0 
L 603 0 
L 603 4863 
z
" id="DejaVuSans-6c" transform="scale(0.015625)"/>
      <path d="M 1984 4856 
Q 1566 4138 1362 3434 
Q 1159 2731 1159 2009 
Q 1159 1288 1364 580 
Q 1569 -128 1984 -844 
L 1484 -844 
Q 1016 -109 783 600 
Q 550 1309 550 2009 
Q 550 2706 781 3412 
Q 1013 4119 1484 4856 
L 1984 4856 
z
" id="DejaVuSans-28" transform="scale(0.015625)"/>
      <path d="M 513 4856 
L 1013 4856 
Q 1481 4119 1714 3412 
Q 1947 2706 1947 2009 
Q 1947 1309 1714 600 
Q 1481 -109 1013 -844 
L 513 -844 
Q 928 -128 1133 580 
Q 1338 1288 1338 2009 
Q 1338 2731 1133 3434 
Q 928 4138 513 4856 
z
" id="DejaVuSans-29" transform="scale(0.015625)"/>
      <path d="M 678 2906 
L 4684 2906 
L 4684 2381 
L 678 2381 
L 678 2906 
z
M 678 1631 
L 4684 1631 
L 4684 1100 
L 678 1100 
L 678 1631 
z
" id="DejaVuSans-3d" transform="scale(0.015625)"/>
      <path d="M 1172 4494 
L 1172 3500 
L 2356 3500 
L 2356 3053 
L 1172 3053 
L 1172 1153 
Q 1172 725 1289 603 
Q 1406 481 1766 481 
L 2356 481 
L 2356 0 
L 1766 0 
Q 1100 0 847 248 
Q 594 497 594 1153 
L 594 3053 
L 172 3053 
L 172 3500 
L 594 3500 
L 594 4494 
L 1172 4494 
z
" id="DejaVuSans-74" transform="scale(0.015625)"/>
      <path d="M 2631 2963 
Q 2534 3019 2420 3045 
Q 2306 3072 2169 3072 
Q 1681 3072 1420 2755 
Q 1159 2438 1159 1844 
L 1159 0 
L 581 0 
L 581 3500 
L 1159 3500 
L 1159 2956 
Q 1341 3275 1631 3429 
Q 1922 3584 2338 3584 
Q 2397 3584 2469 3576 
Q 2541 3569 2628 3553 
L 2631 2963 
z
" id="DejaVuSans-72" transform="scale(0.015625)"/>
     </defs>
     <use transform="translate(0 0.015625)" xlink:href="#DejaVuSans-53"/>
     <use transform="translate(63.476562 0.015625)" xlink:href="#DejaVuSans-69"/>
     <use transform="translate(91.259766 0.015625)" xlink:href="#DejaVuSans-67"/>
     <use transform="translate(154.736328 0.015625)" xlink:href="#DejaVuSans-6e"/>
     <use transform="translate(218.115234 0.015625)" xlink:href="#DejaVuSans-69"/>
     <use transform="translate(245.898438 0.015625)" xlink:href="#DejaVuSans-66"/>
     <use transform="translate(281.103516 0.015625)" xlink:href="#DejaVuSans-69"/>
     <use transform="translate(308.886719 0.015625)" xlink:href="#DejaVuSans-63"/>
     <use transform="translate(363.867188 0.015625)" xlink:href="#DejaVuSans-61"/>
     <use transform="translate(425.146484 0.015625)" xlink:href="#DejaVuSans-6e"/>
     <use transform="translate(488.525391 0.015625)" xlink:href="#DejaVuSans-63"/>
     <use transform="translate(543.505859 0.015625)" xlink:href="#DejaVuSans-65"/>
     <use transform="translate(605.029297 0.015625)" xlink:href="#DejaVuSans-20"/>
     <use transform="translate(636.816406 0.015625)" xlink:href="#DejaVuSans-4c"/>
     <use transform="translate(692.529297 0.015625)" xlink:href="#DejaVuSans-65"/>
     <use transform="translate(754.052734 0.015625)" xlink:href="#DejaVuSans-76"/>
     <use transform="translate(813.232422 0.015625)" xlink:href="#DejaVuSans-65"/>
     <use transform="translate(874.755859 0.015625)" xlink:href="#DejaVuSans-6c"/>
     <use transform="translate(902.539062 0.015625)" xlink:href="#DejaVuSans-20"/>
     <use transform="translate(934.326172 0.015625)" xlink:href="#DejaVuSans-28"/>
     <use transform="translate(973.339844 0.015625)" xlink:href="#DejaVuSans-Oblique-3b1"/>
     <use transform="translate(1039.257812 0.015625)" xlink:href="#DejaVuSans-29"/>
     <use transform="translate(1078.271484 0.015625)" xlink:href="#DejaVuSans-20"/>
     <use transform="translate(1110.058594 0.015625)" xlink:href="#DejaVuSans-3d"/>
     <use transform="translate(1193.847656 0.015625)" xlink:href="#DejaVuSans-20"/>
     <use transform="translate(1225.634766 0.015625)" xlink:href="#DejaVuSans-74"/>
     <use transform="translate(1264.84375 0.015625)" xlink:href="#DejaVuSans-61"/>
     <use transform="translate(1326.123047 0.015625)" xlink:href="#DejaVuSans-69"/>
     <use transform="translate(1353.90625 0.015625)" xlink:href="#DejaVuSans-6c"/>
     <use transform="translate(1381.689453 0.015625)" xlink:href="#DejaVuSans-20"/>
     <use transform="translate(1413.476562 0.015625)" xlink:href="#DejaVuSans-61"/>
     <use transform="translate(1474.755859 0.015625)" xlink:href="#DejaVuSans-72"/>
     <use transform="translate(1515.869141 0.015625)" xlink:href="#DejaVuSans-65"/>
     <use transform="translate(1577.392578 0.015625)" xlink:href="#DejaVuSans-61"/>
    </g>
   </g>
  </g>
  <g id="axes_2">
   <g id="patch_8">
    <path d="M 33.64 418.52 
L 450 418.52 
L 450 228.6 
L 33.64 228.6 
z
" style="fill:#ffffff;"/>
   </g>
   <g id="PolyCollection_2">
    <defs>
     <path d="M 351.1145 -27.88 
L 351.1145 -46.814441 
L 352.113343 -46.139248 
L 353.112187 -45.48388 
L 354.11103 -44.847972 
L 355.109874 -44.23115 
L 356.108717 -43.633041 
L 357.107561 -43.053266 
L 358.106404 -42.491445 
L 359.105247 -41.947197 
L 360.104091 -41.420138 
L 361.102934 -40.909887 
L 362.101778 -40.41606 
L 363.100621 -39.938276 
L 364.099465 -39.476153 
L 365.098308 -39.029313 
L 366.097152 -38.597379 
L 367.095995 -38.179976 
L 368.094838 -37.776733 
L 369.093682 -37.387282 
L 370.092525 -37.011258 
L 371.091369 -36.6483 
L 372.090212 -36.298052 
L 373.089056 -35.960163 
L 374.087899 -35.634284 
L 375.086742 -35.320075 
L 376.085586 -35.017197 
L 377.084429 -34.725319 
L 378.083273 -34.444116 
L 379.082116 -34.173266 
L 380.08096 -33.912456 
L 381.079803 -33.661376 
L 382.078646 -33.419723 
L 383.07749 -33.187202 
L 384.076333 -32.963522 
L 385.075177 -32.748398 
L 386.07402 -32.541553 
L 387.072864 -32.342715 
L 388.071707 -32.151618 
L 389.070551 -31.968005 
L 390.069394 -31.79162 
L 391.068237 -31.62222 
L 392.067081 -31.459562 
L 393.065924 -31.303413 
L 394.064768 -31.153546 
L 395.063611 -31.009738 
L 396.062455 -30.871774 
L 397.061298 -30.739445 
L 398.060141 -30.612545 
L 399.058985 -30.490878 
L 400.057828 -30.374252 
L 401.056672 -30.26248 
L 402.055515 -30.15538 
L 403.054359 -30.052779 
L 404.053202 -29.954506 
L 405.052045 -29.860395 
L 406.050889 -29.770289 
L 407.049732 -29.684033 
L 408.048576 -29.601476 
L 409.047419 -29.522476 
L 410.046263 -29.446892 
L 411.045106 -29.374589 
L 412.043949 -29.305438 
L 413.042793 -29.239311 
L 414.041636 -29.176088 
L 415.04048 -29.115651 
L 416.039323 -29.057887 
L 417.038167 -29.002686 
L 418.03701 -28.949945 
L 419.035854 -28.89956 
L 420.034697 -28.851434 
L 421.03354 -28.805474 
L 422.032384 -28.761588 
L 423.031227 -28.719689 
L 424.030071 -28.679694 
L 425.028914 -28.64152 
L 426.027758 -28.605091 
L 427.026601 -28.570332 
L 428.025444 -28.537171 
L 429.024288 -28.505539 
L 430.023131 -28.475369 
L 431.021975 -28.446598 
L 432.020818 -28.419165 
L 433.019662 -28.39301 
L 434.018505 -28.368078 
L 435.017348 -28.344314 
L 436.016192 -28.321667 
L 437.015035 -28.300086 
L 438.013879 -28.279524 
L 439.012722 -28.259935 
L 440.011566 -28.241276 
L 441.010409 -28.223504 
L 442.009253 -28.206579 
L 443.008096 -28.190463 
L 444.006939 -28.175118 
L 445.005783 -28.160509 
L 446.004626 -28.146603 
L 447.00347 -28.133367 
L 448.002313 -28.12077 
L 449.001157 -28.108783 
L 450 -28.097376 
L 450 -27.88 
L 450 -27.88 
L 449.001157 -27.88 
L 448.002313 -27.88 
L 447.00347 -27.88 
L 446.004626 -27.88 
L 445.005783 -27.88 
L 444.006939 -27.88 
L 443.008096 -27.88 
L 442.009253 -27.88 
L 441.010409 -27.88 
L 440.011566 -27.88 
L 439.012722 -27.88 
L 438.013879 -27.88 
L 437.015035 -27.88 
L 436.016192 -27.88 
L 435.017348 -27.88 
L 434.018505 -27.88 
L 433.019662 -27.88 
L 432.020818 -27.88 
L 431.021975 -27.88 
L 430.023131 -27.88 
L 429.024288 -27.88 
L 428.025444 -27.88 
L 427.026601 -27.88 
L 426.027758 -27.88 
L 425.028914 -27.88 
L 424.030071 -27.88 
L 423.031227 -27.88 
L 422.032384 -27.88 
L 421.03354 -27.88 
L 420.034697 -27.88 
L 419.035854 -27.88 
L 418.03701 -27.88 
L 417.038167 -27.88 
L 416.039323 -27.88 
L 415.04048 -27.88 
L 414.041636 -27.88 
L 413.042793 -27.88 
L 412.043949 -27.88 
L 411.045106 -27.88 
L 410.046263 -27.88 
L 409.047419 -27.88 
L 408.048576 -27.88 
L 407.049732 -27.88 
L 406.050889 -27.88 
L 405.052045 -27.88 
L 404.053202 -27.88 
L 403.054359 -27.88 
L 402.055515 -27.88 
L 401.056672 -27.88 
L 400.057828 -27.88 
L 399.058985 -27.88 
L 398.060141 -27.88 
L 397.061298 -27.88 
L 396.062455 -27.88 
L 395.063611 -27.88 
L 394.064768 -27.88 
L 393.065924 -27.88 
L 392.067081 -27.88 
L 391.068237 -27.88 
L 390.069394 -27.88 
L 389.070551 -27.88 
L 388.071707 -27.88 
L 387.072864 -27.88 
L 386.07402 -27.88 
L 385.075177 -27.88 
L 384.076333 -27.88 
L 383.07749 -27.88 
L 382.078646 -27.88 
L 381.079803 -27.88 
L 380.08096 -27.88 
L 379.082116 -27.88 
L 378.083273 -27.88 
L 377.084429 -27.88 
L 376.085586 -27.88 
L 375.086742 -27.88 
L 374.087899 -27.88 
L 373.089056 -27.88 
L 372.090212 -27.88 
L 371.091369 -27.88 
L 370.092525 -27.88 
L 369.093682 -27.88 
L 368.094838 -27.88 
L 367.095995 -27.88 
L 366.097152 -27.88 
L 365.098308 -27.88 
L 364.099465 -27.88 
L 363.100621 -27.88 
L 362.101778 -27.88 
L 361.102934 -27.88 
L 360.104091 -27.88 
L 359.105247 -27.88 
L 358.106404 -27.88 
L 357.107561 -27.88 
L 356.108717 -27.88 
L 355.109874 -27.88 
L 354.11103 -27.88 
L 353.112187 -27.88 
L 352.113343 -27.88 
L 351.1145 -27.88 
z
" id="m4339c3eda0" style="stroke:#1f77b4;stroke-opacity:0.7;"/>
    </defs>
    <g clip-path="url(#p8f4a9388c8)">
     <use style="fill:#1f77b4;fill-opacity:0.7;stroke:#1f77b4;stroke-opacity:0.7;" x="0" xlink:href="#m4339c3eda0" y="446.4"/>
    </g>
   </g>
   <g id="PolyCollection_3">
    <defs>
     <path d="M 330.251066 -27.88 
L 330.251066 -66.003084 
L 330.461808 -65.756872 
L 330.67255 -65.511775 
L 330.883291 -65.267793 
L 331.094033 -65.024926 
L 331.304775 -64.783172 
L 331.515517 -64.542533 
L 331.726258 -64.303006 
L 331.937 -64.064591 
L 332.147742 -63.827288 
L 332.358484 -63.591096 
L 332.569225 -63.356013 
L 332.779967 -63.12204 
L 332.990709 -62.889175 
L 333.201451 -62.657418 
L 333.412192 -62.426767 
L 333.622934 -62.197221 
L 333.833676 -61.968779 
L 334.044418 -61.74144 
L 334.255159 -61.515204 
L 334.465901 -61.290068 
L 334.676643 -61.066032 
L 334.887385 -60.843093 
L 335.098126 -60.621252 
L 335.308868 -60.400506 
L 335.51961 -60.180854 
L 335.730352 -59.962294 
L 335.941094 -59.744826 
L 336.151835 -59.528447 
L 336.362577 -59.313156 
L 336.573319 -59.098951 
L 336.784061 -58.885831 
L 336.994802 -58.673793 
L 337.205544 -58.462837 
L 337.416286 -58.25296 
L 337.627028 -58.044161 
L 337.837769 -57.836437 
L 338.048511 -57.629787 
L 338.259253 -57.424209 
L 338.469995 -57.2197 
L 338.680736 -57.01626 
L 338.891478 -56.813885 
L 339.10222 -56.612574 
L 339.312962 -56.412325 
L 339.523703 -56.213135 
L 339.734445 -56.015002 
L 339.945187 -55.817925 
L 340.155929 -55.6219 
L 340.36667 -55.426926 
L 340.577412 -55.233 
L 340.788154 -55.04012 
L 340.998896 -54.848283 
L 341.209637 -54.657488 
L 341.420379 -54.467732 
L 341.631121 -54.279011 
L 341.841863 -54.091325 
L 342.052604 -53.90467 
L 342.263346 -53.719044 
L 342.474088 -53.534443 
L 342.68483 -53.350867 
L 342.895571 -53.168311 
L 343.106313 -52.986774 
L 343.317055 -52.806252 
L 343.527797 -52.626743 
L 343.738539 -52.448245 
L 343.94928 -52.270754 
L 344.160022 -52.094268 
L 344.370764 -51.918783 
L 344.581506 -51.744298 
L 344.792247 -51.570809 
L 345.002989 -51.398313 
L 345.213731 -51.226808 
L 345.424473 -51.05629 
L 345.635214 -50.886757 
L 345.845956 -50.718205 
L 346.056698 -50.550633 
L 346.26744 -50.384036 
L 346.478181 -50.218412 
L 346.688923 -50.053757 
L 346.899665 -49.890069 
L 347.110407 -49.727344 
L 347.321148 -49.56558 
L 347.53189 -49.404774 
L 347.742632 -49.244921 
L 347.953374 -49.08602 
L 348.164115 -48.928066 
L 348.374857 -48.771058 
L 348.585599 -48.614991 
L 348.796341 -48.459862 
L 349.007082 -48.305668 
L 349.217824 -48.152406 
L 349.428566 -48.000073 
L 349.639308 -47.848665 
L 349.850049 -47.698179 
L 350.060791 -47.548612 
L 350.271533 -47.39996 
L 350.482275 -47.25222 
L 350.693016 -47.10539 
L 350.903758 -46.959464 
L 351.1145 -46.814441 
L 351.1145 -27.88 
L 351.1145 -27.88 
L 350.903758 -27.88 
L 350.693016 -27.88 
L 350.482275 -27.88 
L 350.271533 -27.88 
L 350.060791 -27.88 
L 349.850049 -27.88 
L 349.639308 -27.88 
L 349.428566 -27.88 
L 349.217824 -27.88 
L 349.007082 -27.88 
L 348.796341 -27.88 
L 348.585599 -27.88 
L 348.374857 -27.88 
L 348.164115 -27.88 
L 347.953374 -27.88 
L 347.742632 -27.88 
L 347.53189 -27.88 
L 347.321148 -27.88 
L 347.110407 -27.88 
L 346.899665 -27.88 
L 346.688923 -27.88 
L 346.478181 -27.88 
L 346.26744 -27.88 
L 346.056698 -27.88 
L 345.845956 -27.88 
L 345.635214 -27.88 
L 345.424473 -27.88 
L 345.213731 -27.88 
L 345.002989 -27.88 
L 344.792247 -27.88 
L 344.581506 -27.88 
L 344.370764 -27.88 
L 344.160022 -27.88 
L 343.94928 -27.88 
L 343.738539 -27.88 
L 343.527797 -27.88 
L 343.317055 -27.88 
L 343.106313 -27.88 
L 342.895571 -27.88 
L 342.68483 -27.88 
L 342.474088 -27.88 
L 342.263346 -27.88 
L 342.052604 -27.88 
L 341.841863 -27.88 
L 341.631121 -27.88 
L 341.420379 -27.88 
L 341.209637 -27.88 
L 340.998896 -27.88 
L 340.788154 -27.88 
L 340.577412 -27.88 
L 340.36667 -27.88 
L 340.155929 -27.88 
L 339.945187 -27.88 
L 339.734445 -27.88 
L 339.523703 -27.88 
L 339.312962 -27.88 
L 339.10222 -27.88 
L 338.891478 -27.88 
L 338.680736 -27.88 
L 338.469995 -27.88 
L 338.259253 -27.88 
L 338.048511 -27.88 
L 337.837769 -27.88 
L 337.627028 -27.88 
L 337.416286 -27.88 
L 337.205544 -27.88 
L 336.994802 -27.88 
L 336.784061 -27.88 
L 336.573319 -27.88 
L 336.362577 -27.88 
L 336.151835 -27.88 
L 335.941094 -27.88 
L 335.730352 -27.88 
L 335.51961 -27.88 
L 335.308868 -27.88 
L 335.098126 -27.88 
L 334.887385 -27.88 
L 334.676643 -27.88 
L 334.465901 -27.88 
L 334.255159 -27.88 
L 334.044418 -27.88 
L 333.833676 -27.88 
L 333.622934 -27.88 
L 333.412192 -27.88 
L 333.201451 -27.88 
L 332.990709 -27.88 
L 332.779967 -27.88 
L 332.569225 -27.88 
L 332.358484 -27.88 
L 332.147742 -27.88 
L 331.937 -27.88 
L 331.726258 -27.88 
L 331.515517 -27.88 
L 331.304775 -27.88 
L 331.094033 -27.88 
L 330.883291 -27.88 
L 330.67255 -27.88 
L 330.461808 -27.88 
L 330.251066 -27.88 
z
" id="m3835fd14e9" style="stroke:#d62728;stroke-opacity:0.2;"/>
    </defs>
    <g clip-path="url(#p8f4a9388c8)">
     <use style="fill:#d62728;fill-opacity:0.2;stroke:#d62728;stroke-opacity:0.2;" x="0" xlink:href="#m3835fd14e9" y="446.4"/>
    </g>
   </g>
   <g id="matplotlib.axis_3">
    <g id="xtick_3">
     <g id="line2d_9">
      <g>
       <use style="stroke:#000000;stroke-width:0.8;" x="351.1145" xlink:href="#m5278ee9828" y="418.52"/>
      </g>
     </g>
     <g id="text_10">
      <!-- TS -->
      <g transform="translate(344.886375 433.118438)scale(0.1 -0.1)">
       <defs>
        <path d="M -19 4666 
L 3928 4666 
L 3928 4134 
L 2272 4134 
L 2272 0 
L 1638 0 
L 1638 4134 
L -19 4134 
L -19 4666 
z
" id="DejaVuSans-54" transform="scale(0.015625)"/>
       </defs>
       <use xlink:href="#DejaVuSans-54"/>
       <use x="61.083984" xlink:href="#DejaVuSans-53"/>
      </g>
     </g>
    </g>
    <g id="xtick_4">
     <g id="line2d_10">
      <g>
       <use style="stroke:#000000;stroke-width:0.8;" x="241.82" xlink:href="#m5278ee9828" y="418.52"/>
      </g>
     </g>
     <g id="text_11">
      <!-- 0 -->
      <g transform="translate(238.63875 433.118438)scale(0.1 -0.1)">
       <use xlink:href="#DejaVuSans-30"/>
      </g>
     </g>
    </g>
   </g>
   <g id="matplotlib.axis_4">
    <g id="ytick_6">
     <g id="line2d_11">
      <g>
       <use style="stroke:#000000;stroke-width:0.8;" x="33.64" xlink:href="#m052b7cc815" y="418.52"/>
      </g>
     </g>
     <g id="text_12">
      <!-- 0.0 -->
      <g transform="translate(10.736875 422.319219)scale(0.1 -0.1)">
       <use xlink:href="#DejaVuSans-30"/>
       <use x="63.623047" xlink:href="#DejaVuSans-2e"/>
       <use x="95.410156" xlink:href="#DejaVuSans-30"/>
      </g>
     </g>
    </g>
    <g id="ytick_7">
     <g id="line2d_12">
      <g>
       <use style="stroke:#000000;stroke-width:0.8;" x="33.64" xlink:href="#m052b7cc815" y="378.501319"/>
      </g>
     </g>
     <g id="text_13">
      <!-- 0.1 -->
      <g transform="translate(10.736875 382.300538)scale(0.1 -0.1)">
       <use xlink:href="#DejaVuSans-30"/>
       <use x="63.623047" xlink:href="#DejaVuSans-2e"/>
       <use x="95.410156" xlink:href="#DejaVuSans-31"/>
      </g>
     </g>
    </g>
    <g id="ytick_8">
     <g id="line2d_13">
      <g>
       <use style="stroke:#000000;stroke-width:0.8;" x="33.64" xlink:href="#m052b7cc815" y="338.482638"/>
      </g>
     </g>
     <g id="text_14">
      <!-- 0.2 -->
      <g transform="translate(10.736875 342.281857)scale(0.1 -0.1)">
       <use xlink:href="#DejaVuSans-30"/>
       <use x="63.623047" xlink:href="#DejaVuSans-2e"/>
       <use x="95.410156" xlink:href="#DejaVuSans-32"/>
      </g>
     </g>
    </g>
    <g id="ytick_9">
     <g id="line2d_14">
      <g>
       <use style="stroke:#000000;stroke-width:0.8;" x="33.64" xlink:href="#m052b7cc815" y="298.463957"/>
      </g>
     </g>
     <g id="text_15">
      <!-- 0.3 -->
      <g transform="translate(10.736875 302.263176)scale(0.1 -0.1)">
       <use xlink:href="#DejaVuSans-30"/>
       <use x="63.623047" xlink:href="#DejaVuSans-2e"/>
       <use x="95.410156" xlink:href="#DejaVuSans-33"/>
      </g>
     </g>
    </g>
    <g id="ytick_10">
     <g id="line2d_15">
      <g>
       <use style="stroke:#000000;stroke-width:0.8;" x="33.64" xlink:href="#m052b7cc815" y="258.445276"/>
      </g>
     </g>
     <g id="text_16">
      <!-- 0.4 -->
      <g transform="translate(10.736875 262.244495)scale(0.1 -0.1)">
       <use xlink:href="#DejaVuSans-30"/>
       <use x="63.623047" xlink:href="#DejaVuSans-2e"/>
       <use x="95.410156" xlink:href="#DejaVuSans-34"/>
      </g>
     </g>
    </g>
   </g>
   <g id="LineCollection_2">
    <path clip-path="url(#p8f4a9388c8)" d="M 330.251066 418.52 
L 330.251066 380.396916 
" style="fill:none;stroke:#000000;stroke-dasharray:1,1.65;stroke-dashoffset:0;"/>
   </g>
   <g id="LineCollection_3">
    <path clip-path="url(#p8f4a9388c8)" d="M 351.1145 418.52 
L 351.1145 399.585559 
" style="fill:none;stroke:#000000;"/>
   </g>
   <g id="line2d_16">
    <path clip-path="url(#p8f4a9388c8)" d="M 33.64 418.302624 
L 50.3501 418.013854 
L 62.882676 417.582028 
L 72.630234 417.022907 
L 80.985284 416.306698 
L 87.947826 415.477749 
L 93.51786 414.617498 
L 99.087893 413.539997 
L 104.657926 412.200063 
L 108.835452 410.992318 
L 113.012977 409.58457 
L 117.190502 407.951501 
L 121.368027 406.066474 
L 125.545552 403.901935 
L 129.723077 401.429957 
L 133.900602 398.622922 
L 138.078127 395.454355 
L 142.255652 391.899898 
L 146.433177 387.938439 
L 150.610702 383.553344 
L 154.788227 378.733793 
L 158.965753 373.476158 
L 163.143278 367.78539 
L 167.320803 361.676319 
L 171.498328 355.174836 
L 175.675853 348.318839 
L 181.245886 338.715287 
L 188.208428 326.19376 
L 200.741003 303.448951 
L 206.311037 293.869849 
L 210.488562 287.141684 
L 214.666087 280.936434 
L 217.451104 277.146966 
L 220.23612 273.673175 
L 223.021137 270.545248 
L 225.806154 267.790912 
L 228.591171 265.435004 
L 231.376187 263.499074 
L 234.161204 262.001042 
L 236.946221 260.954902 
L 238.338729 260.604533 
L 239.731237 260.370492 
L 241.123746 260.253333 
L 242.516254 260.253333 
L 243.908763 260.370492 
L 245.301271 260.604533 
L 246.693779 260.954902 
L 249.478796 262.001042 
L 252.263813 263.499074 
L 255.048829 265.435004 
L 257.833846 267.790912 
L 260.618863 270.545248 
L 263.40388 273.673175 
L 266.188896 277.146966 
L 268.973913 280.936434 
L 271.75893 285.009389 
L 275.936455 291.576305 
L 280.11398 298.587268 
L 285.684013 308.419824 
L 306.571639 345.963092 
L 312.141672 355.174836 
L 316.319197 361.676319 
L 320.496722 367.78539 
L 324.674247 373.476158 
L 328.851773 378.733793 
L 333.029298 383.553344 
L 337.206823 387.938439 
L 341.384348 391.899898 
L 345.561873 395.454355 
L 349.739398 398.622922 
L 353.916923 401.429957 
L 358.094448 403.901935 
L 362.271973 406.066474 
L 366.449498 407.951501 
L 370.627023 409.58457 
L 374.804548 410.992318 
L 378.982074 412.200063 
L 384.552107 413.539997 
L 390.12214 414.617498 
L 395.692174 415.477749 
L 402.654716 416.306698 
L 409.617258 416.921054 
L 417.972308 417.446711 
L 429.112375 417.89718 
L 443.037458 418.209999 
L 450 418.302624 
L 450 418.302624 
" style="fill:none;stroke:#000000;stroke-linecap:square;"/>
   </g>
   <g id="patch_9">
    <path d="M 33.64 418.52 
L 33.64 228.6 
" style="fill:none;stroke:#000000;stroke-linecap:square;stroke-linejoin:miter;stroke-width:0.8;"/>
   </g>
   <g id="patch_10">
    <path d="M 450 418.52 
L 450 228.6 
" style="fill:none;stroke:#000000;stroke-linecap:square;stroke-linejoin:miter;stroke-width:0.8;"/>
   </g>
   <g id="patch_11">
    <path d="M 33.64 418.52 
L 450 418.52 
" style="fill:none;stroke:#000000;stroke-linecap:square;stroke-linejoin:miter;stroke-width:0.8;"/>
   </g>
   <g id="patch_12">
    <path d="M 33.64 228.6 
L 450 228.6 
" style="fill:none;stroke:#000000;stroke-linecap:square;stroke-linejoin:miter;stroke-width:0.8;"/>
   </g>
   <g id="patch_13">
    <path d="M 406.122016 399.587279 
Q 395.945533 405.980192 386.431757 411.95679 
" style="fill:none;stroke:#000000;stroke-linecap:round;stroke-width:0.7;"/>
    <path d="M 390.882761 411.522547 
L 386.431757 411.95679 
L 388.754965 408.135441 
" style="fill:none;stroke:#000000;stroke-linecap:round;stroke-width:0.7;"/>
   </g>
   <g id="text_17">
    <!-- P-Value -->
    <g style="fill:#1f77b4;" transform="translate(400.55725 394.444478)scale(0.1 -0.1)">
     <defs>
      <path d="M 1259 4147 
L 1259 2394 
L 2053 2394 
Q 2494 2394 2734 2622 
Q 2975 2850 2975 3272 
Q 2975 3691 2734 3919 
Q 2494 4147 2053 4147 
L 1259 4147 
z
M 628 4666 
L 2053 4666 
Q 2838 4666 3239 4311 
Q 3641 3956 3641 3272 
Q 3641 2581 3239 2228 
Q 2838 1875 2053 1875 
L 1259 1875 
L 1259 0 
L 628 0 
L 628 4666 
z
" id="DejaVuSans-50" transform="scale(0.015625)"/>
      <path d="M 313 2009 
L 1997 2009 
L 1997 1497 
L 313 1497 
L 313 2009 
z
" id="DejaVuSans-2d" transform="scale(0.015625)"/>
      <path d="M 544 1381 
L 544 3500 
L 1119 3500 
L 1119 1403 
Q 1119 906 1312 657 
Q 1506 409 1894 409 
Q 2359 409 2629 706 
Q 2900 1003 2900 1516 
L 2900 3500 
L 3475 3500 
L 3475 0 
L 2900 0 
L 2900 538 
Q 2691 219 2414 64 
Q 2138 -91 1772 -91 
Q 1169 -91 856 284 
Q 544 659 544 1381 
z
M 1991 3584 
L 1991 3584 
z
" id="DejaVuSans-75" transform="scale(0.015625)"/>
     </defs>
     <use xlink:href="#DejaVuSans-50"/>
     <use x="58.052734" xlink:href="#DejaVuSans-2d"/>
     <use x="88.261719" xlink:href="#DejaVuSans-56"/>
     <use x="148.919922" xlink:href="#DejaVuSans-61"/>
     <use x="210.199219" xlink:href="#DejaVuSans-6c"/>
     <use x="237.982422" xlink:href="#DejaVuSans-75"/>
     <use x="301.361328" xlink:href="#DejaVuSans-65"/>
    </g>
   </g>
   <g id="text_18">
    <!-- Test Statistic (TS) -->
    <g style="fill:#1f77b4;" transform="translate(39.8854 241.8944)scale(0.09 -0.09)">
     <defs>
      <path d="M 2834 3397 
L 2834 2853 
Q 2591 2978 2328 3040 
Q 2066 3103 1784 3103 
Q 1356 3103 1142 2972 
Q 928 2841 928 2578 
Q 928 2378 1081 2264 
Q 1234 2150 1697 2047 
L 1894 2003 
Q 2506 1872 2764 1633 
Q 3022 1394 3022 966 
Q 3022 478 2636 193 
Q 2250 -91 1575 -91 
Q 1294 -91 989 -36 
Q 684 19 347 128 
L 347 722 
Q 666 556 975 473 
Q 1284 391 1588 391 
Q 1994 391 2212 530 
Q 2431 669 2431 922 
Q 2431 1156 2273 1281 
Q 2116 1406 1581 1522 
L 1381 1569 
Q 847 1681 609 1914 
Q 372 2147 372 2553 
Q 372 3047 722 3315 
Q 1072 3584 1716 3584 
Q 2034 3584 2315 3537 
Q 2597 3491 2834 3397 
z
" id="DejaVuSans-73" transform="scale(0.015625)"/>
     </defs>
     <use xlink:href="#DejaVuSans-54"/>
     <use x="44.083984" xlink:href="#DejaVuSans-65"/>
     <use x="105.607422" xlink:href="#DejaVuSans-73"/>
     <use x="157.707031" xlink:href="#DejaVuSans-74"/>
     <use x="196.916016" xlink:href="#DejaVuSans-20"/>
     <use x="228.703125" xlink:href="#DejaVuSans-53"/>
     <use x="292.179688" xlink:href="#DejaVuSans-74"/>
     <use x="331.388672" xlink:href="#DejaVuSans-61"/>
     <use x="392.667969" xlink:href="#DejaVuSans-74"/>
     <use x="431.876953" xlink:href="#DejaVuSans-69"/>
     <use x="459.660156" xlink:href="#DejaVuSans-73"/>
     <use x="511.759766" xlink:href="#DejaVuSans-74"/>
     <use x="550.96875" xlink:href="#DejaVuSans-69"/>
     <use x="578.751953" xlink:href="#DejaVuSans-63"/>
     <use x="633.732422" xlink:href="#DejaVuSans-20"/>
     <use x="665.519531" xlink:href="#DejaVuSans-28"/>
     <use x="704.533203" xlink:href="#DejaVuSans-54"/>
     <use x="765.617188" xlink:href="#DejaVuSans-53"/>
     <use x="829.09375" xlink:href="#DejaVuSans-29"/>
    </g>
   </g>
  </g>
 </g>
 <defs>
  <clipPath id="p88d5f7612c">
   <rect height="189.92" width="416.36" x="33.64" y="10.8"/>
  </clipPath>
  <clipPath id="p8f4a9388c8">
   <rect height="189.92" width="416.36" x="33.64" y="228.6"/>
  </clipPath>
 </defs>
</svg>
