<?xml version="1.0" encoding="utf-8" standalone="no"?>
<!DOCTYPE svg PUBLIC "-//W3C//DTD SVG 1.1//EN"
  "http://www.w3.org/Graphics/SVG/1.1/DTD/svg11.dtd">
<svg height="488.88pt" version="1.1" viewBox="0 0 544.32 488.88" width="544.32pt" xmlns="http://www.w3.org/2000/svg" xmlns:xlink="http://www.w3.org/1999/xlink">
 <metadata>
  <rdf:RDF xmlns:cc="http://creativecommons.org/ns#" xmlns:dc="http://purl.org/dc/elements/1.1/" xmlns:rdf="http://www.w3.org/1999/02/22-rdf-syntax-ns#">
   <cc:Work>
    <dc:type rdf:resource="http://purl.org/dc/dcmitype/StillImage"/>
    <dc:date>2021-07-02T08:04:46.676313</dc:date>
    <dc:format>image/svg+xml</dc:format>
    <dc:creator>
     <cc:Agent>
      <dc:title>Matplotlib v3.4.2, https://matplotlib.org/</dc:title>
     </cc:Agent>
    </dc:creator>
   </cc:Work>
  </rdf:RDF>
 </metadata>
 <defs>
  <style type="text/css">*{stroke-linecap:butt;stroke-linejoin:round;}</style>
 </defs>
 <g id="figure_1">
  <g id="patch_1">
   <path d="M 0 488.88 
L 544.32 488.88 
L 544.32 0 
L 0 0 
z
" style="fill:#ffffff;"/>
  </g>
  <g id="axes_1">
   <g id="patch_2">
    <path d="M 68.04 134.544706 
L 489.888 134.544706 
L 489.888 0 
L 68.04 0 
z
" style="fill:#ffffff;"/>
   </g>
   <g id="PolyCollection_1">
    <defs>
     <path d="M 68.04 -354.335294 
L 68.04 -354.372907 
L 69.904227 -354.378593 
L 71.768455 -354.385077 
L 73.632682 -354.39246 
L 75.496909 -354.400856 
L 77.361136 -354.410391 
L 79.225364 -354.421206 
L 81.089591 -354.433456 
L 82.953818 -354.447311 
L 84.818045 -354.462963 
L 86.682273 -354.480621 
L 88.5465 -354.500513 
L 90.410727 -354.522895 
L 92.274955 -354.548041 
L 94.139182 -354.576258 
L 96.003409 -354.607876 
L 97.867636 -354.643257 
L 99.731864 -354.682796 
L 101.596091 -354.726922 
L 103.460318 -354.776099 
L 105.324545 -354.830832 
L 107.188773 -354.891665 
L 109.053 -354.959186 
L 110.917227 -355.034028 
L 112.781455 -355.11687 
L 114.645682 -355.208441 
L 116.509909 -355.309523 
L 118.374136 -355.42095 
L 120.238364 -355.543609 
L 122.102591 -355.678446 
L 123.966818 -355.826466 
L 125.831045 -355.98873 
L 127.695273 -356.16636 
L 129.5595 -356.360541 
L 131.423727 -356.572517 
L 133.287955 -356.803592 
L 135.152182 -357.055132 
L 137.016409 -357.328563 
L 138.880636 -357.625368 
L 140.744864 -357.947086 
L 142.609091 -358.295311 
L 144.473318 -358.671686 
L 146.337545 -359.077901 
L 148.201773 -359.51569 
L 150.066 -359.986824 
L 151.930227 -360.493103 
L 153.794455 -361.036356 
L 155.658682 -361.618427 
L 157.522909 -362.24117 
L 159.387136 -362.906441 
L 161.251364 -363.616088 
L 163.115591 -364.371937 
L 164.979818 -365.175786 
L 166.844045 -366.029391 
L 168.708273 -366.934454 
L 170.5725 -367.892609 
L 172.436727 -368.905408 
L 174.300955 -369.97431 
L 176.165182 -371.100661 
L 178.029409 -372.285685 
L 179.893636 -373.530463 
L 181.757864 -374.835921 
L 183.622091 -376.202815 
L 185.486318 -377.631711 
L 187.350545 -379.122976 
L 189.214773 -380.676756 
L 191.079 -382.292967 
L 192.943227 -383.971278 
L 194.807455 -385.711099 
L 196.671682 -387.511566 
L 198.535909 -389.371533 
L 200.400136 -391.289559 
L 202.264364 -393.263899 
L 204.128591 -395.292498 
L 205.992818 -397.372984 
L 207.857045 -399.502662 
L 209.721273 -401.678515 
L 211.5855 -403.897201 
L 213.449727 -406.155055 
L 215.313955 -408.448092 
L 217.178182 -410.772014 
L 219.042409 -413.122216 
L 220.906636 -415.4938 
L 222.770864 -417.881584 
L 224.635091 -420.280119 
L 226.499318 -422.683705 
L 228.363545 -425.086414 
L 230.227773 -427.482105 
L 232.092 -429.864456 
L 233.956227 -432.226984 
L 235.820455 -434.563073 
L 237.684682 -436.866007 
L 239.548909 -439.129 
L 241.413136 -441.345225 
L 243.277364 -443.50785 
L 245.141591 -445.610074 
L 247.005818 -447.645159 
L 248.870045 -449.606468 
L 250.734273 -451.487498 
L 252.5985 -453.281919 
L 252.5985 -354.335294 
L 252.5985 -354.335294 
L 250.734273 -354.335294 
L 248.870045 -354.335294 
L 247.005818 -354.335294 
L 245.141591 -354.335294 
L 243.277364 -354.335294 
L 241.413136 -354.335294 
L 239.548909 -354.335294 
L 237.684682 -354.335294 
L 235.820455 -354.335294 
L 233.956227 -354.335294 
L 232.092 -354.335294 
L 230.227773 -354.335294 
L 228.363545 -354.335294 
L 226.499318 -354.335294 
L 224.635091 -354.335294 
L 222.770864 -354.335294 
L 220.906636 -354.335294 
L 219.042409 -354.335294 
L 217.178182 -354.335294 
L 215.313955 -354.335294 
L 213.449727 -354.335294 
L 211.5855 -354.335294 
L 209.721273 -354.335294 
L 207.857045 -354.335294 
L 205.992818 -354.335294 
L 204.128591 -354.335294 
L 202.264364 -354.335294 
L 200.400136 -354.335294 
L 198.535909 -354.335294 
L 196.671682 -354.335294 
L 194.807455 -354.335294 
L 192.943227 -354.335294 
L 191.079 -354.335294 
L 189.214773 -354.335294 
L 187.350545 -354.335294 
L 185.486318 -354.335294 
L 183.622091 -354.335294 
L 181.757864 -354.335294 
L 179.893636 -354.335294 
L 178.029409 -354.335294 
L 176.165182 -354.335294 
L 174.300955 -354.335294 
L 172.436727 -354.335294 
L 170.5725 -354.335294 
L 168.708273 -354.335294 
L 166.844045 -354.335294 
L 164.979818 -354.335294 
L 163.115591 -354.335294 
L 161.251364 -354.335294 
L 159.387136 -354.335294 
L 157.522909 -354.335294 
L 155.658682 -354.335294 
L 153.794455 -354.335294 
L 151.930227 -354.335294 
L 150.066 -354.335294 
L 148.201773 -354.335294 
L 146.337545 -354.335294 
L 144.473318 -354.335294 
L 142.609091 -354.335294 
L 140.744864 -354.335294 
L 138.880636 -354.335294 
L 137.016409 -354.335294 
L 135.152182 -354.335294 
L 133.287955 -354.335294 
L 131.423727 -354.335294 
L 129.5595 -354.335294 
L 127.695273 -354.335294 
L 125.831045 -354.335294 
L 123.966818 -354.335294 
L 122.102591 -354.335294 
L 120.238364 -354.335294 
L 118.374136 -354.335294 
L 116.509909 -354.335294 
L 114.645682 -354.335294 
L 112.781455 -354.335294 
L 110.917227 -354.335294 
L 109.053 -354.335294 
L 107.188773 -354.335294 
L 105.324545 -354.335294 
L 103.460318 -354.335294 
L 101.596091 -354.335294 
L 99.731864 -354.335294 
L 97.867636 -354.335294 
L 96.003409 -354.335294 
L 94.139182 -354.335294 
L 92.274955 -354.335294 
L 90.410727 -354.335294 
L 88.5465 -354.335294 
L 86.682273 -354.335294 
L 84.818045 -354.335294 
L 82.953818 -354.335294 
L 81.089591 -354.335294 
L 79.225364 -354.335294 
L 77.361136 -354.335294 
L 75.496909 -354.335294 
L 73.632682 -354.335294 
L 71.768455 -354.335294 
L 69.904227 -354.335294 
L 68.04 -354.335294 
z
" id="m03b2857e93" style="stroke:#1f77b4;stroke-opacity:0.7;"/>
    </defs>
    <g clip-path="url(#pcbc2866d42)">
     <use style="fill:#1f77b4;fill-opacity:0.7;stroke:#1f77b4;stroke-opacity:0.7;" x="0" xlink:href="#m03b2857e93" y="488.88"/>
    </g>
   </g>
   <g id="matplotlib.axis_1">
    <g id="xtick_1">
     <g id="line2d_1">
      <defs>
       <path d="M 0 0 
L 0 3.5 
" id="mcb5d784cb2" style="stroke:#000000;stroke-width:0.8;"/>
      </defs>
      <g>
       <use style="stroke:#000000;stroke-width:0.8;" x="252.5985" xlink:href="#mcb5d784cb2" y="134.544706"/>
      </g>
     </g>
     <g id="text_1">
      <!-- -0.5 -->
      <g transform="translate(242.843031 149.143143)scale(0.1 -0.1)">
       <defs>
        <path d="M 313 2009 
L 1997 2009 
L 1997 1497 
L 313 1497 
L 313 2009 
z
" id="DejaVuSans-2d" transform="scale(0.015625)"/>
        <path d="M 2034 4250 
Q 1547 4250 1301 3770 
Q 1056 3291 1056 2328 
Q 1056 1369 1301 889 
Q 1547 409 2034 409 
Q 2525 409 2770 889 
Q 3016 1369 3016 2328 
Q 3016 3291 2770 3770 
Q 2525 4250 2034 4250 
z
M 2034 4750 
Q 2819 4750 3233 4129 
Q 3647 3509 3647 2328 
Q 3647 1150 3233 529 
Q 2819 -91 2034 -91 
Q 1250 -91 836 529 
Q 422 1150 422 2328 
Q 422 3509 836 4129 
Q 1250 4750 2034 4750 
z
" id="DejaVuSans-30" transform="scale(0.015625)"/>
        <path d="M 684 794 
L 1344 794 
L 1344 0 
L 684 0 
L 684 794 
z
" id="DejaVuSans-2e" transform="scale(0.015625)"/>
        <path d="M 691 4666 
L 3169 4666 
L 3169 4134 
L 1269 4134 
L 1269 2991 
Q 1406 3038 1543 3061 
Q 1681 3084 1819 3084 
Q 2600 3084 3056 2656 
Q 3513 2228 3513 1497 
Q 3513 744 3044 326 
Q 2575 -91 1722 -91 
Q 1428 -91 1123 -41 
Q 819 9 494 109 
L 494 744 
Q 775 591 1075 516 
Q 1375 441 1709 441 
Q 2250 441 2565 725 
Q 2881 1009 2881 1497 
Q 2881 1984 2565 2268 
Q 2250 2553 1709 2553 
Q 1456 2553 1204 2497 
Q 953 2441 691 2322 
L 691 4666 
z
" id="DejaVuSans-35" transform="scale(0.015625)"/>
       </defs>
       <use xlink:href="#DejaVuSans-2d"/>
       <use x="36.083984" xlink:href="#DejaVuSans-30"/>
       <use x="99.707031" xlink:href="#DejaVuSans-2e"/>
       <use x="131.494141" xlink:href="#DejaVuSans-35"/>
      </g>
     </g>
    </g>
    <g id="xtick_2">
     <g id="line2d_2">
      <g>
       <use style="stroke:#000000;stroke-width:0.8;" x="278.964" xlink:href="#mcb5d784cb2" y="134.544706"/>
      </g>
     </g>
     <g id="text_2">
      <!-- 0 -->
      <g transform="translate(275.78275 149.143143)scale(0.1 -0.1)">
       <use xlink:href="#DejaVuSans-30"/>
      </g>
     </g>
    </g>
   </g>
   <g id="matplotlib.axis_2">
    <g id="ytick_1">
     <g id="line2d_3">
      <defs>
       <path d="M 0 0 
L -3.5 0 
" id="m44169df7d9" style="stroke:#000000;stroke-width:0.8;"/>
      </defs>
      <g>
       <use style="stroke:#000000;stroke-width:0.8;" x="68.04" xlink:href="#m44169df7d9" y="134.544706"/>
      </g>
     </g>
     <g id="text_3">
      <!-- 0.0 -->
      <g transform="translate(45.136875 138.343925)scale(0.1 -0.1)">
       <use xlink:href="#DejaVuSans-30"/>
       <use x="63.623047" xlink:href="#DejaVuSans-2e"/>
       <use x="95.410156" xlink:href="#DejaVuSans-30"/>
      </g>
     </g>
    </g>
    <g id="ytick_2">
     <g id="line2d_4">
      <g>
       <use style="stroke:#000000;stroke-width:0.8;" x="68.04" xlink:href="#m44169df7d9" y="106.440085"/>
      </g>
     </g>
     <g id="text_4">
      <!-- 0.1 -->
      <g transform="translate(45.136875 110.239304)scale(0.1 -0.1)">
       <defs>
        <path d="M 794 531 
L 1825 531 
L 1825 4091 
L 703 3866 
L 703 4441 
L 1819 4666 
L 2450 4666 
L 2450 531 
L 3481 531 
L 3481 0 
L 794 0 
L 794 531 
z
" id="DejaVuSans-31" transform="scale(0.015625)"/>
       </defs>
       <use xlink:href="#DejaVuSans-30"/>
       <use x="63.623047" xlink:href="#DejaVuSans-2e"/>
       <use x="95.410156" xlink:href="#DejaVuSans-31"/>
      </g>
     </g>
    </g>
    <g id="ytick_3">
     <g id="line2d_5">
      <g>
       <use style="stroke:#000000;stroke-width:0.8;" x="68.04" xlink:href="#m44169df7d9" y="78.335464"/>
      </g>
     </g>
     <g id="text_5">
      <!-- 0.2 -->
      <g transform="translate(45.136875 82.134683)scale(0.1 -0.1)">
       <defs>
        <path d="M 1228 531 
L 3431 531 
L 3431 0 
L 469 0 
L 469 531 
Q 828 903 1448 1529 
Q 2069 2156 2228 2338 
Q 2531 2678 2651 2914 
Q 2772 3150 2772 3378 
Q 2772 3750 2511 3984 
Q 2250 4219 1831 4219 
Q 1534 4219 1204 4116 
Q 875 4013 500 3803 
L 500 4441 
Q 881 4594 1212 4672 
Q 1544 4750 1819 4750 
Q 2544 4750 2975 4387 
Q 3406 4025 3406 3419 
Q 3406 3131 3298 2873 
Q 3191 2616 2906 2266 
Q 2828 2175 2409 1742 
Q 1991 1309 1228 531 
z
" id="DejaVuSans-32" transform="scale(0.015625)"/>
       </defs>
       <use xlink:href="#DejaVuSans-30"/>
       <use x="63.623047" xlink:href="#DejaVuSans-2e"/>
       <use x="95.410156" xlink:href="#DejaVuSans-32"/>
      </g>
     </g>
    </g>
    <g id="ytick_4">
     <g id="line2d_6">
      <g>
       <use style="stroke:#000000;stroke-width:0.8;" x="68.04" xlink:href="#m44169df7d9" y="50.230843"/>
      </g>
     </g>
     <g id="text_6">
      <!-- 0.3 -->
      <g transform="translate(45.136875 54.030062)scale(0.1 -0.1)">
       <defs>
        <path d="M 2597 2516 
Q 3050 2419 3304 2112 
Q 3559 1806 3559 1356 
Q 3559 666 3084 287 
Q 2609 -91 1734 -91 
Q 1441 -91 1130 -33 
Q 819 25 488 141 
L 488 750 
Q 750 597 1062 519 
Q 1375 441 1716 441 
Q 2309 441 2620 675 
Q 2931 909 2931 1356 
Q 2931 1769 2642 2001 
Q 2353 2234 1838 2234 
L 1294 2234 
L 1294 2753 
L 1863 2753 
Q 2328 2753 2575 2939 
Q 2822 3125 2822 3475 
Q 2822 3834 2567 4026 
Q 2313 4219 1838 4219 
Q 1578 4219 1281 4162 
Q 984 4106 628 3988 
L 628 4550 
Q 988 4650 1302 4700 
Q 1616 4750 1894 4750 
Q 2613 4750 3031 4423 
Q 3450 4097 3450 3541 
Q 3450 3153 3228 2886 
Q 3006 2619 2597 2516 
z
" id="DejaVuSans-33" transform="scale(0.015625)"/>
       </defs>
       <use xlink:href="#DejaVuSans-30"/>
       <use x="63.623047" xlink:href="#DejaVuSans-2e"/>
       <use x="95.410156" xlink:href="#DejaVuSans-33"/>
      </g>
     </g>
    </g>
    <g id="ytick_5">
     <g id="line2d_7">
      <g>
       <use style="stroke:#000000;stroke-width:0.8;" x="68.04" xlink:href="#m44169df7d9" y="22.126222"/>
      </g>
     </g>
     <g id="text_7">
      <!-- 0.4 -->
      <g transform="translate(45.136875 25.925441)scale(0.1 -0.1)">
       <defs>
        <path d="M 2419 4116 
L 825 1625 
L 2419 1625 
L 2419 4116 
z
M 2253 4666 
L 3047 4666 
L 3047 1625 
L 3713 1625 
L 3713 1100 
L 3047 1100 
L 3047 0 
L 2419 0 
L 2419 1100 
L 313 1100 
L 313 1709 
L 2253 4666 
z
" id="DejaVuSans-34" transform="scale(0.015625)"/>
       </defs>
       <use xlink:href="#DejaVuSans-30"/>
       <use x="63.623047" xlink:href="#DejaVuSans-2e"/>
       <use x="95.410156" xlink:href="#DejaVuSans-34"/>
      </g>
     </g>
    </g>
   </g>
   <g id="LineCollection_1">
    <path clip-path="url(#pcbc2866d42)" d="M 252.5985 134.544706 
L 252.5985 35.598081 
" style="fill:none;stroke:#000000;"/>
   </g>
   <g id="LineCollection_2">
    <path clip-path="url(#pcbc2866d42)" d="M 199.8675 134.544706 
L 199.8675 98.144277 
" style="fill:none;stroke:#000000;stroke-dasharray:1,1.65;stroke-dashoffset:0;"/>
   </g>
   <g id="line2d_8">
    <path clip-path="url(#pcbc2866d42)" d="M 68.04 134.507093 
L 92.024669 134.335506 
L 106.133298 134.023559 
L 116.009338 133.598599 
L 124.474515 133.010801 
L 131.528829 132.294976 
L 137.172281 131.527537 
L 142.815732 130.544387 
L 148.459184 129.30128 
L 152.691773 128.169547 
L 156.924361 126.843321 
L 161.15695 125.300948 
L 165.389538 123.520935 
L 169.622127 121.482585 
L 173.854716 119.166733 
L 178.087304 116.556562 
L 182.319893 113.638485 
L 186.552482 110.403075 
L 190.78507 106.845994 
L 195.017659 102.968901 
L 199.250247 98.780287 
L 203.482836 94.296195 
L 207.715425 89.540785 
L 213.358876 82.835828 
L 220.413191 74.015733 
L 238.754408 50.710127 
L 242.986997 45.705195 
L 247.219585 41.006073 
L 251.452174 36.690889 
L 254.2739 34.064364 
L 257.095625 31.662366 
L 259.917351 29.504163 
L 262.739077 27.607341 
L 265.560803 25.987565 
L 268.382528 24.658365 
L 271.204254 23.630948 
L 274.02598 22.914037 
L 276.847706 22.513752 
L 279.669431 22.433523 
L 282.491157 22.674038 
L 285.312883 23.233234 
L 288.134609 24.106329 
L 290.956334 25.285887 
L 293.77806 26.761924 
L 296.599786 28.522053 
L 299.421512 30.551649 
L 302.243237 32.834059 
L 305.064963 35.350823 
L 309.297552 39.521246 
L 313.53014 44.100931 
L 317.762729 49.012748 
L 323.406181 55.941165 
L 331.871358 66.767192 
L 341.747398 79.355125 
L 347.390849 86.23554 
L 353.034301 92.73977 
L 357.26689 97.317398 
L 361.499478 101.606679 
L 365.732067 105.588915 
L 369.964656 109.253172 
L 374.197244 112.595602 
L 378.429833 115.618641 
L 382.662421 118.330125 
L 386.89501 120.742355 
L 391.127599 122.871175 
L 395.360187 124.73506 
L 399.592776 126.354283 
L 403.825365 127.750148 
L 408.057953 128.94432 
L 413.701405 130.259802 
L 419.344856 131.303626 
L 424.988308 132.121089 
L 432.042622 132.886316 
L 439.096936 133.430061 
L 447.562114 133.868908 
L 458.849017 134.211551 
L 474.368508 134.42781 
L 489.888 134.507093 
L 489.888 134.507093 
" style="fill:none;stroke:#000000;stroke-linecap:square;"/>
   </g>
   <g id="patch_3">
    <path d="M 68.04 134.544706 
L 68.04 0 
" style="fill:none;stroke:#000000;stroke-linecap:square;stroke-linejoin:miter;stroke-width:0.8;"/>
   </g>
   <g id="patch_4">
    <path d="M 489.888 134.544706 
L 489.888 0 
" style="fill:none;stroke:#000000;stroke-linecap:square;stroke-linejoin:miter;stroke-width:0.8;"/>
   </g>
   <g id="patch_5">
    <path d="M 68.04 134.544706 
L 489.888 134.544706 
" style="fill:none;stroke:#000000;stroke-linecap:square;stroke-linejoin:miter;stroke-width:0.8;"/>
   </g>
   <g id="patch_6">
    <path d="M 68.04 0 
L 489.888 0 
" style="fill:none;stroke:#000000;stroke-linecap:square;stroke-linejoin:miter;stroke-width:0.8;"/>
   </g>
   <g id="patch_7">
    <path d="M 181.580864 98.509269 
Q 185.568179 101.900313 188.959318 104.784333 
" style="fill:none;stroke:#000000;stroke-linecap:round;stroke-width:0.7;"/>
    <path d="M 187.207951 100.669395 
L 188.959318 104.784333 
L 184.616548 103.716464 
" style="fill:none;stroke:#000000;stroke-linecap:round;stroke-width:0.7;"/>
   </g>
   <g id="text_8">
    <!-- 30.85% -->
    <g transform="translate(152.949312 93.132563)scale(0.1 -0.1)">
     <defs>
      <path d="M 2034 2216 
Q 1584 2216 1326 1975 
Q 1069 1734 1069 1313 
Q 1069 891 1326 650 
Q 1584 409 2034 409 
Q 2484 409 2743 651 
Q 3003 894 3003 1313 
Q 3003 1734 2745 1975 
Q 2488 2216 2034 2216 
z
M 1403 2484 
Q 997 2584 770 2862 
Q 544 3141 544 3541 
Q 544 4100 942 4425 
Q 1341 4750 2034 4750 
Q 2731 4750 3128 4425 
Q 3525 4100 3525 3541 
Q 3525 3141 3298 2862 
Q 3072 2584 2669 2484 
Q 3125 2378 3379 2068 
Q 3634 1759 3634 1313 
Q 3634 634 3220 271 
Q 2806 -91 2034 -91 
Q 1263 -91 848 271 
Q 434 634 434 1313 
Q 434 1759 690 2068 
Q 947 2378 1403 2484 
z
M 1172 3481 
Q 1172 3119 1398 2916 
Q 1625 2713 2034 2713 
Q 2441 2713 2670 2916 
Q 2900 3119 2900 3481 
Q 2900 3844 2670 4047 
Q 2441 4250 2034 4250 
Q 1625 4250 1398 4047 
Q 1172 3844 1172 3481 
z
" id="DejaVuSans-38" transform="scale(0.015625)"/>
      <path d="M 4653 2053 
Q 4381 2053 4226 1822 
Q 4072 1591 4072 1178 
Q 4072 772 4226 539 
Q 4381 306 4653 306 
Q 4919 306 5073 539 
Q 5228 772 5228 1178 
Q 5228 1588 5073 1820 
Q 4919 2053 4653 2053 
z
M 4653 2450 
Q 5147 2450 5437 2106 
Q 5728 1763 5728 1178 
Q 5728 594 5436 251 
Q 5144 -91 4653 -91 
Q 4153 -91 3862 251 
Q 3572 594 3572 1178 
Q 3572 1766 3864 2108 
Q 4156 2450 4653 2450 
z
M 1428 4353 
Q 1159 4353 1004 4120 
Q 850 3888 850 3481 
Q 850 3069 1003 2837 
Q 1156 2606 1428 2606 
Q 1700 2606 1854 2837 
Q 2009 3069 2009 3481 
Q 2009 3884 1853 4118 
Q 1697 4353 1428 4353 
z
M 4250 4750 
L 4750 4750 
L 1831 -91 
L 1331 -91 
L 4250 4750 
z
M 1428 4750 
Q 1922 4750 2215 4408 
Q 2509 4066 2509 3481 
Q 2509 2891 2217 2550 
Q 1925 2209 1428 2209 
Q 931 2209 642 2551 
Q 353 2894 353 3481 
Q 353 4063 643 4406 
Q 934 4750 1428 4750 
z
" id="DejaVuSans-25" transform="scale(0.015625)"/>
     </defs>
     <use xlink:href="#DejaVuSans-33"/>
     <use x="63.623047" xlink:href="#DejaVuSans-30"/>
     <use x="127.246094" xlink:href="#DejaVuSans-2e"/>
     <use x="159.033203" xlink:href="#DejaVuSans-38"/>
     <use x="222.65625" xlink:href="#DejaVuSans-35"/>
     <use x="286.279297" xlink:href="#DejaVuSans-25"/>
    </g>
   </g>
  </g>
  <g id="axes_2">
   <g id="patch_8">
    <path d="M 68.04 295.998353 
L 489.888 295.998353 
L 489.888 161.453647 
L 68.04 161.453647 
z
" style="fill:#ffffff;"/>
   </g>
   <g id="PolyCollection_2">
    <defs>
     <path d="M 68.04 -192.881647 
L 68.04 -192.91926 
L 69.371591 -192.923244 
L 70.703182 -192.927621 
L 72.034773 -192.932427 
L 73.366364 -192.937699 
L 74.697955 -192.943479 
L 76.029545 -192.949811 
L 77.361136 -192.956744 
L 78.692727 -192.96433 
L 80.024318 -192.972623 
L 81.355909 -192.981685 
L 82.6875 -192.99158 
L 84.019091 -193.002375 
L 85.350682 -193.014147 
L 86.682273 -193.026974 
L 88.013864 -193.04094 
L 89.345455 -193.056138 
L 90.677045 -193.072664 
L 92.008636 -193.090621 
L 93.340227 -193.110122 
L 94.671818 -193.131282 
L 96.003409 -193.154228 
L 97.335 -193.179094 
L 98.666591 -193.206022 
L 99.998182 -193.235161 
L 101.329773 -193.266673 
L 102.661364 -193.300726 
L 103.992955 -193.3375 
L 105.324545 -193.377185 
L 106.656136 -193.419982 
L 107.987727 -193.466101 
L 109.319318 -193.515768 
L 110.650909 -193.569216 
L 111.9825 -193.626694 
L 113.314091 -193.688462 
L 114.645682 -193.754794 
L 115.977273 -193.825978 
L 117.308864 -193.902313 
L 118.640455 -193.984116 
L 119.972045 -194.071716 
L 121.303636 -194.165458 
L 122.635227 -194.2657 
L 123.966818 -194.372819 
L 125.298409 -194.487204 
L 126.63 -194.609261 
L 127.961591 -194.739412 
L 129.293182 -194.878094 
L 130.624773 -195.025762 
L 131.956364 -195.182883 
L 133.287955 -195.349945 
L 134.619545 -195.527446 
L 135.951136 -195.715904 
L 137.282727 -195.91585 
L 138.614318 -196.127831 
L 139.945909 -196.352408 
L 141.2775 -196.590156 
L 142.609091 -196.841664 
L 143.940682 -197.107533 
L 145.272273 -197.388377 
L 146.603864 -197.684821 
L 147.935455 -197.997502 
L 149.267045 -198.327065 
L 150.598636 -198.674162 
L 151.930227 -199.039456 
L 153.261818 -199.423614 
L 154.593409 -199.827307 
L 155.925 -200.25121 
L 157.256591 -200.695999 
L 158.588182 -201.162352 
L 159.919773 -201.650942 
L 161.251364 -202.162441 
L 162.582955 -202.697513 
L 163.914545 -203.256815 
L 165.246136 -203.840996 
L 166.577727 -204.450689 
L 167.909318 -205.086516 
L 169.240909 -205.749079 
L 170.5725 -206.438962 
L 171.904091 -207.156727 
L 173.235682 -207.902911 
L 174.567273 -208.678023 
L 175.898864 -209.482542 
L 177.230455 -210.316914 
L 178.562045 -211.181548 
L 179.893636 -212.076816 
L 181.225227 -213.003047 
L 182.556818 -213.960525 
L 183.888409 -214.949489 
L 185.22 -215.970124 
L 186.551591 -217.022564 
L 187.883182 -218.106886 
L 189.214773 -219.223109 
L 190.546364 -220.371189 
L 191.877955 -221.55102 
L 193.209545 -222.762428 
L 194.541136 -224.00517 
L 195.872727 -225.278931 
L 197.204318 -226.583324 
L 198.535909 -227.917886 
L 199.8675 -229.282076 
L 199.8675 -192.881647 
L 199.8675 -192.881647 
L 198.535909 -192.881647 
L 197.204318 -192.881647 
L 195.872727 -192.881647 
L 194.541136 -192.881647 
L 193.209545 -192.881647 
L 191.877955 -192.881647 
L 190.546364 -192.881647 
L 189.214773 -192.881647 
L 187.883182 -192.881647 
L 186.551591 -192.881647 
L 185.22 -192.881647 
L 183.888409 -192.881647 
L 182.556818 -192.881647 
L 181.225227 -192.881647 
L 179.893636 -192.881647 
L 178.562045 -192.881647 
L 177.230455 -192.881647 
L 175.898864 -192.881647 
L 174.567273 -192.881647 
L 173.235682 -192.881647 
L 171.904091 -192.881647 
L 170.5725 -192.881647 
L 169.240909 -192.881647 
L 167.909318 -192.881647 
L 166.577727 -192.881647 
L 165.246136 -192.881647 
L 163.914545 -192.881647 
L 162.582955 -192.881647 
L 161.251364 -192.881647 
L 159.919773 -192.881647 
L 158.588182 -192.881647 
L 157.256591 -192.881647 
L 155.925 -192.881647 
L 154.593409 -192.881647 
L 153.261818 -192.881647 
L 151.930227 -192.881647 
L 150.598636 -192.881647 
L 149.267045 -192.881647 
L 147.935455 -192.881647 
L 146.603864 -192.881647 
L 145.272273 -192.881647 
L 143.940682 -192.881647 
L 142.609091 -192.881647 
L 141.2775 -192.881647 
L 139.945909 -192.881647 
L 138.614318 -192.881647 
L 137.282727 -192.881647 
L 135.951136 -192.881647 
L 134.619545 -192.881647 
L 133.287955 -192.881647 
L 131.956364 -192.881647 
L 130.624773 -192.881647 
L 129.293182 -192.881647 
L 127.961591 -192.881647 
L 126.63 -192.881647 
L 125.298409 -192.881647 
L 123.966818 -192.881647 
L 122.635227 -192.881647 
L 121.303636 -192.881647 
L 119.972045 -192.881647 
L 118.640455 -192.881647 
L 117.308864 -192.881647 
L 115.977273 -192.881647 
L 114.645682 -192.881647 
L 113.314091 -192.881647 
L 111.9825 -192.881647 
L 110.650909 -192.881647 
L 109.319318 -192.881647 
L 107.987727 -192.881647 
L 106.656136 -192.881647 
L 105.324545 -192.881647 
L 103.992955 -192.881647 
L 102.661364 -192.881647 
L 101.329773 -192.881647 
L 99.998182 -192.881647 
L 98.666591 -192.881647 
L 97.335 -192.881647 
L 96.003409 -192.881647 
L 94.671818 -192.881647 
L 93.340227 -192.881647 
L 92.008636 -192.881647 
L 90.677045 -192.881647 
L 89.345455 -192.881647 
L 88.013864 -192.881647 
L 86.682273 -192.881647 
L 85.350682 -192.881647 
L 84.019091 -192.881647 
L 82.6875 -192.881647 
L 81.355909 -192.881647 
L 80.024318 -192.881647 
L 78.692727 -192.881647 
L 77.361136 -192.881647 
L 76.029545 -192.881647 
L 74.697955 -192.881647 
L 73.366364 -192.881647 
L 72.034773 -192.881647 
L 70.703182 -192.881647 
L 69.371591 -192.881647 
L 68.04 -192.881647 
z
" id="mf807fd4185" style="stroke:#1f77b4;stroke-opacity:0.7;"/>
    </defs>
    <g clip-path="url(#p492ce1ec87)">
     <use style="fill:#1f77b4;fill-opacity:0.7;stroke:#1f77b4;stroke-opacity:0.7;" x="0" xlink:href="#mf807fd4185" y="488.88"/>
    </g>
   </g>
   <g id="matplotlib.axis_3">
    <g id="xtick_3">
     <g id="line2d_9">
      <g>
       <use style="stroke:#000000;stroke-width:0.8;" x="199.8675" xlink:href="#mcb5d784cb2" y="295.998353"/>
      </g>
     </g>
     <g id="text_9">
      <!-- -1.5 -->
      <g transform="translate(190.112031 310.59679)scale(0.1 -0.1)">
       <use xlink:href="#DejaVuSans-2d"/>
       <use x="36.083984" xlink:href="#DejaVuSans-31"/>
       <use x="99.707031" xlink:href="#DejaVuSans-2e"/>
       <use x="131.494141" xlink:href="#DejaVuSans-35"/>
      </g>
     </g>
    </g>
    <g id="xtick_4">
     <g id="line2d_10">
      <g>
       <use style="stroke:#000000;stroke-width:0.8;" x="278.964" xlink:href="#mcb5d784cb2" y="295.998353"/>
      </g>
     </g>
     <g id="text_10">
      <!-- 0 -->
      <g transform="translate(275.78275 310.59679)scale(0.1 -0.1)">
       <use xlink:href="#DejaVuSans-30"/>
      </g>
     </g>
    </g>
   </g>
   <g id="matplotlib.axis_4">
    <g id="ytick_6">
     <g id="line2d_11">
      <g>
       <use style="stroke:#000000;stroke-width:0.8;" x="68.04" xlink:href="#m44169df7d9" y="295.998353"/>
      </g>
     </g>
     <g id="text_11">
      <!-- 0.0 -->
      <g transform="translate(45.136875 299.797572)scale(0.1 -0.1)">
       <use xlink:href="#DejaVuSans-30"/>
       <use x="63.623047" xlink:href="#DejaVuSans-2e"/>
       <use x="95.410156" xlink:href="#DejaVuSans-30"/>
      </g>
     </g>
    </g>
    <g id="ytick_7">
     <g id="line2d_12">
      <g>
       <use style="stroke:#000000;stroke-width:0.8;" x="68.04" xlink:href="#m44169df7d9" y="267.893732"/>
      </g>
     </g>
     <g id="text_12">
      <!-- 0.1 -->
      <g transform="translate(45.136875 271.692951)scale(0.1 -0.1)">
       <use xlink:href="#DejaVuSans-30"/>
       <use x="63.623047" xlink:href="#DejaVuSans-2e"/>
       <use x="95.410156" xlink:href="#DejaVuSans-31"/>
      </g>
     </g>
    </g>
    <g id="ytick_8">
     <g id="line2d_13">
      <g>
       <use style="stroke:#000000;stroke-width:0.8;" x="68.04" xlink:href="#m44169df7d9" y="239.789111"/>
      </g>
     </g>
     <g id="text_13">
      <!-- 0.2 -->
      <g transform="translate(45.136875 243.58833)scale(0.1 -0.1)">
       <use xlink:href="#DejaVuSans-30"/>
       <use x="63.623047" xlink:href="#DejaVuSans-2e"/>
       <use x="95.410156" xlink:href="#DejaVuSans-32"/>
      </g>
     </g>
    </g>
    <g id="ytick_9">
     <g id="line2d_14">
      <g>
       <use style="stroke:#000000;stroke-width:0.8;" x="68.04" xlink:href="#m44169df7d9" y="211.68449"/>
      </g>
     </g>
     <g id="text_14">
      <!-- 0.3 -->
      <g transform="translate(45.136875 215.483709)scale(0.1 -0.1)">
       <use xlink:href="#DejaVuSans-30"/>
       <use x="63.623047" xlink:href="#DejaVuSans-2e"/>
       <use x="95.410156" xlink:href="#DejaVuSans-33"/>
      </g>
     </g>
    </g>
    <g id="ytick_10">
     <g id="line2d_15">
      <g>
       <use style="stroke:#000000;stroke-width:0.8;" x="68.04" xlink:href="#m44169df7d9" y="183.57987"/>
      </g>
     </g>
     <g id="text_15">
      <!-- 0.4 -->
      <g transform="translate(45.136875 187.379088)scale(0.1 -0.1)">
       <use xlink:href="#DejaVuSans-30"/>
       <use x="63.623047" xlink:href="#DejaVuSans-2e"/>
       <use x="95.410156" xlink:href="#DejaVuSans-34"/>
      </g>
     </g>
    </g>
   </g>
   <g id="LineCollection_3">
    <path clip-path="url(#p492ce1ec87)" d="M 199.8675 295.998353 
L 199.8675 259.597924 
" style="fill:none;stroke:#000000;"/>
   </g>
   <g id="LineCollection_4">
    <path clip-path="url(#p492ce1ec87)" d="M 252.5985 295.998353 
L 252.5985 197.051728 
" style="fill:none;stroke:#000000;stroke-dasharray:1,1.65;stroke-dashoffset:0;"/>
   </g>
   <g id="line2d_16">
    <path clip-path="url(#p492ce1ec87)" d="M 68.04 295.96074 
L 92.024669 295.789153 
L 106.133298 295.477206 
L 116.009338 295.052246 
L 124.474515 294.464448 
L 131.528829 293.748623 
L 137.172281 292.981184 
L 142.815732 291.998034 
L 148.459184 290.754927 
L 152.691773 289.623194 
L 156.924361 288.296968 
L 161.15695 286.754595 
L 165.389538 284.974582 
L 169.622127 282.936233 
L 173.854716 280.620381 
L 178.087304 278.010209 
L 182.319893 275.092132 
L 186.552482 271.856722 
L 190.78507 268.299641 
L 195.017659 264.422548 
L 199.250247 260.233934 
L 203.482836 255.749842 
L 207.715425 250.994432 
L 213.358876 244.289475 
L 220.413191 235.46938 
L 238.754408 212.163774 
L 242.986997 207.158842 
L 247.219585 202.45972 
L 251.452174 198.144536 
L 254.2739 195.518011 
L 257.095625 193.116013 
L 259.917351 190.95781 
L 262.739077 189.060988 
L 265.560803 187.441212 
L 268.382528 186.112013 
L 271.204254 185.084595 
L 274.02598 184.367684 
L 276.847706 183.967399 
L 279.669431 183.88717 
L 282.491157 184.127685 
L 285.312883 184.686881 
L 288.134609 185.559976 
L 290.956334 186.739534 
L 293.77806 188.215571 
L 296.599786 189.9757 
L 299.421512 192.005296 
L 302.243237 194.287706 
L 305.064963 196.804471 
L 309.297552 200.974893 
L 313.53014 205.554578 
L 317.762729 210.466395 
L 323.406181 217.394812 
L 331.871358 228.220839 
L 341.747398 240.808772 
L 347.390849 247.689188 
L 353.034301 254.193417 
L 357.26689 258.771046 
L 361.499478 263.060326 
L 365.732067 267.042562 
L 369.964656 270.706819 
L 374.197244 274.049249 
L 378.429833 277.072288 
L 382.662421 279.783772 
L 386.89501 282.196003 
L 391.127599 284.324822 
L 395.360187 286.188707 
L 399.592776 287.80793 
L 403.825365 289.203795 
L 408.057953 290.397967 
L 413.701405 291.713449 
L 419.344856 292.757273 
L 424.988308 293.574736 
L 432.042622 294.339963 
L 439.096936 294.883708 
L 447.562114 295.322555 
L 458.849017 295.665198 
L 474.368508 295.881457 
L 489.888 295.96074 
L 489.888 295.96074 
" style="fill:none;stroke:#000000;stroke-linecap:square;"/>
   </g>
   <g id="patch_9">
    <path d="M 68.04 295.998353 
L 68.04 161.453647 
" style="fill:none;stroke:#000000;stroke-linecap:square;stroke-linejoin:miter;stroke-width:0.8;"/>
   </g>
   <g id="patch_10">
    <path d="M 489.888 295.998353 
L 489.888 161.453647 
" style="fill:none;stroke:#000000;stroke-linecap:square;stroke-linejoin:miter;stroke-width:0.8;"/>
   </g>
   <g id="patch_11">
    <path d="M 68.04 295.998353 
L 489.888 295.998353 
" style="fill:none;stroke:#000000;stroke-linecap:square;stroke-linejoin:miter;stroke-width:0.8;"/>
   </g>
   <g id="patch_12">
    <path d="M 68.04 161.453647 
L 489.888 161.453647 
" style="fill:none;stroke:#000000;stroke-linecap:square;stroke-linejoin:miter;stroke-width:0.8;"/>
   </g>
   <g id="patch_13">
    <path d="M 148.141824 280.683786 
Q 151.333192 283.941509 153.976885 286.64017 
" style="fill:none;stroke:#000000;stroke-linecap:round;stroke-width:0.7;"/>
    <path d="M 152.606396 282.383204 
L 153.976885 286.64017 
L 149.749019 285.182381 
" style="fill:none;stroke:#000000;stroke-linecap:round;stroke-width:0.7;"/>
   </g>
   <g id="text_16">
    <!-- 6.68% -->
    <g transform="translate(124.157812 275.17432)scale(0.1 -0.1)">
     <defs>
      <path d="M 2113 2584 
Q 1688 2584 1439 2293 
Q 1191 2003 1191 1497 
Q 1191 994 1439 701 
Q 1688 409 2113 409 
Q 2538 409 2786 701 
Q 3034 994 3034 1497 
Q 3034 2003 2786 2293 
Q 2538 2584 2113 2584 
z
M 3366 4563 
L 3366 3988 
Q 3128 4100 2886 4159 
Q 2644 4219 2406 4219 
Q 1781 4219 1451 3797 
Q 1122 3375 1075 2522 
Q 1259 2794 1537 2939 
Q 1816 3084 2150 3084 
Q 2853 3084 3261 2657 
Q 3669 2231 3669 1497 
Q 3669 778 3244 343 
Q 2819 -91 2113 -91 
Q 1303 -91 875 529 
Q 447 1150 447 2328 
Q 447 3434 972 4092 
Q 1497 4750 2381 4750 
Q 2619 4750 2861 4703 
Q 3103 4656 3366 4563 
z
" id="DejaVuSans-36" transform="scale(0.015625)"/>
     </defs>
     <use xlink:href="#DejaVuSans-36"/>
     <use x="63.623047" xlink:href="#DejaVuSans-2e"/>
     <use x="95.410156" xlink:href="#DejaVuSans-36"/>
     <use x="159.033203" xlink:href="#DejaVuSans-38"/>
     <use x="222.65625" xlink:href="#DejaVuSans-25"/>
    </g>
   </g>
  </g>
  <g id="axes_3">
   <g id="patch_14">
    <path d="M 68.04 457.452 
L 489.888 457.452 
L 489.888 322.907294 
L 68.04 322.907294 
z
" style="fill:#ffffff;"/>
   </g>
   <g id="PolyCollection_3">
    <defs>
     <path d="M 252.5985 -31.428 
L 252.5985 -130.374625 
L 252.065864 -129.871132 
L 251.533227 -129.360209 
L 251.000591 -128.841998 
L 250.467955 -128.316642 
L 249.935318 -127.784289 
L 249.402682 -127.245083 
L 248.870045 -126.699174 
L 248.337409 -126.14671 
L 247.804773 -125.587842 
L 247.272136 -125.022722 
L 246.7395 -124.451502 
L 246.206864 -123.874335 
L 245.674227 -123.291376 
L 245.141591 -122.70278 
L 244.608955 -122.108702 
L 244.076318 -121.5093 
L 243.543682 -120.90473 
L 243.011045 -120.295149 
L 242.478409 -119.680717 
L 241.945773 -119.061591 
L 241.413136 -118.43793 
L 240.8805 -117.809894 
L 240.347864 -117.177642 
L 239.815227 -116.541332 
L 239.282591 -115.901125 
L 238.749955 -115.25718 
L 238.217318 -114.609656 
L 237.684682 -113.958713 
L 237.152045 -113.30451 
L 236.619409 -112.647205 
L 236.086773 -111.986957 
L 235.554136 -111.323924 
L 235.0215 -110.658264 
L 234.488864 -109.990133 
L 233.956227 -109.31969 
L 233.423591 -108.647088 
L 232.890955 -107.972484 
L 232.358318 -107.296033 
L 231.825682 -106.617887 
L 231.293045 -105.938201 
L 230.760409 -105.257125 
L 230.227773 -104.574811 
L 229.695136 -103.89141 
L 229.1625 -103.207069 
L 228.629864 -102.521937 
L 228.097227 -101.83616 
L 227.564591 -101.149884 
L 227.031955 -100.463254 
L 226.499318 -99.776411 
L 225.966682 -99.089498 
L 225.434045 -98.402655 
L 224.901409 -97.716021 
L 224.368773 -97.029732 
L 223.836136 -96.343924 
L 223.3035 -95.658733 
L 222.770864 -94.974289 
L 222.238227 -94.290725 
L 221.705591 -93.60817 
L 221.172955 -92.92675 
L 220.640318 -92.246592 
L 220.107682 -91.56782 
L 219.575045 -90.890557 
L 219.042409 -90.214922 
L 218.509773 -89.541034 
L 217.977136 -88.86901 
L 217.4445 -88.198965 
L 216.911864 -87.531011 
L 216.379227 -86.86526 
L 215.846591 -86.20182 
L 215.313955 -85.540798 
L 214.781318 -84.882299 
L 214.248682 -84.226427 
L 213.716045 -83.573281 
L 213.183409 -82.92296 
L 212.650773 -82.275562 
L 212.118136 -81.63118 
L 211.5855 -80.989907 
L 211.052864 -80.351834 
L 210.520227 -79.717048 
L 209.987591 -79.085636 
L 209.454955 -78.457681 
L 208.922318 -77.833265 
L 208.389682 -77.212468 
L 207.857045 -76.595368 
L 207.324409 -75.982038 
L 206.791773 -75.372554 
L 206.259136 -74.766984 
L 205.7265 -74.165399 
L 205.193864 -73.567865 
L 204.661227 -72.974446 
L 204.128591 -72.385204 
L 203.595955 -71.8002 
L 203.063318 -71.219492 
L 202.530682 -70.643135 
L 201.998045 -70.071183 
L 201.465409 -69.503688 
L 200.932773 -68.9407 
L 200.400136 -68.382265 
L 199.8675 -67.828429 
L 199.8675 -31.428 
L 199.8675 -31.428 
L 200.400136 -31.428 
L 200.932773 -31.428 
L 201.465409 -31.428 
L 201.998045 -31.428 
L 202.530682 -31.428 
L 203.063318 -31.428 
L 203.595955 -31.428 
L 204.128591 -31.428 
L 204.661227 -31.428 
L 205.193864 -31.428 
L 205.7265 -31.428 
L 206.259136 -31.428 
L 206.791773 -31.428 
L 207.324409 -31.428 
L 207.857045 -31.428 
L 208.389682 -31.428 
L 208.922318 -31.428 
L 209.454955 -31.428 
L 209.987591 -31.428 
L 210.520227 -31.428 
L 211.052864 -31.428 
L 211.5855 -31.428 
L 212.118136 -31.428 
L 212.650773 -31.428 
L 213.183409 -31.428 
L 213.716045 -31.428 
L 214.248682 -31.428 
L 214.781318 -31.428 
L 215.313955 -31.428 
L 215.846591 -31.428 
L 216.379227 -31.428 
L 216.911864 -31.428 
L 217.4445 -31.428 
L 217.977136 -31.428 
L 218.509773 -31.428 
L 219.042409 -31.428 
L 219.575045 -31.428 
L 220.107682 -31.428 
L 220.640318 -31.428 
L 221.172955 -31.428 
L 221.705591 -31.428 
L 222.238227 -31.428 
L 222.770864 -31.428 
L 223.3035 -31.428 
L 223.836136 -31.428 
L 224.368773 -31.428 
L 224.901409 -31.428 
L 225.434045 -31.428 
L 225.966682 -31.428 
L 226.499318 -31.428 
L 227.031955 -31.428 
L 227.564591 -31.428 
L 228.097227 -31.428 
L 228.629864 -31.428 
L 229.1625 -31.428 
L 229.695136 -31.428 
L 230.227773 -31.428 
L 230.760409 -31.428 
L 231.293045 -31.428 
L 231.825682 -31.428 
L 232.358318 -31.428 
L 232.890955 -31.428 
L 233.423591 -31.428 
L 233.956227 -31.428 
L 234.488864 -31.428 
L 235.0215 -31.428 
L 235.554136 -31.428 
L 236.086773 -31.428 
L 236.619409 -31.428 
L 237.152045 -31.428 
L 237.684682 -31.428 
L 238.217318 -31.428 
L 238.749955 -31.428 
L 239.282591 -31.428 
L 239.815227 -31.428 
L 240.347864 -31.428 
L 240.8805 -31.428 
L 241.413136 -31.428 
L 241.945773 -31.428 
L 242.478409 -31.428 
L 243.011045 -31.428 
L 243.543682 -31.428 
L 244.076318 -31.428 
L 244.608955 -31.428 
L 245.141591 -31.428 
L 245.674227 -31.428 
L 246.206864 -31.428 
L 246.7395 -31.428 
L 247.272136 -31.428 
L 247.804773 -31.428 
L 248.337409 -31.428 
L 248.870045 -31.428 
L 249.402682 -31.428 
L 249.935318 -31.428 
L 250.467955 -31.428 
L 251.000591 -31.428 
L 251.533227 -31.428 
L 252.065864 -31.428 
L 252.5985 -31.428 
z
" id="ma9d61a2d3e" style="stroke:#1f77b4;stroke-opacity:0.7;"/>
    </defs>
    <g clip-path="url(#pafaa5a67c4)">
     <use style="fill:#1f77b4;fill-opacity:0.7;stroke:#1f77b4;stroke-opacity:0.7;" x="0" xlink:href="#ma9d61a2d3e" y="488.88"/>
    </g>
   </g>
   <g id="matplotlib.axis_5">
    <g id="xtick_5">
     <g id="line2d_17">
      <g>
       <use style="stroke:#000000;stroke-width:0.8;" x="252.5985" xlink:href="#mcb5d784cb2" y="457.452"/>
      </g>
     </g>
     <g id="text_17">
      <!-- -0.5 -->
      <g transform="translate(242.843031 472.050438)scale(0.1 -0.1)">
       <use xlink:href="#DejaVuSans-2d"/>
       <use x="36.083984" xlink:href="#DejaVuSans-30"/>
       <use x="99.707031" xlink:href="#DejaVuSans-2e"/>
       <use x="131.494141" xlink:href="#DejaVuSans-35"/>
      </g>
     </g>
    </g>
    <g id="xtick_6">
     <g id="line2d_18">
      <g>
       <use style="stroke:#000000;stroke-width:0.8;" x="199.8675" xlink:href="#mcb5d784cb2" y="457.452"/>
      </g>
     </g>
     <g id="text_18">
      <!-- -1.5 -->
      <g transform="translate(190.112031 472.050438)scale(0.1 -0.1)">
       <use xlink:href="#DejaVuSans-2d"/>
       <use x="36.083984" xlink:href="#DejaVuSans-31"/>
       <use x="99.707031" xlink:href="#DejaVuSans-2e"/>
       <use x="131.494141" xlink:href="#DejaVuSans-35"/>
      </g>
     </g>
    </g>
    <g id="xtick_7">
     <g id="line2d_19">
      <g>
       <use style="stroke:#000000;stroke-width:0.8;" x="278.964" xlink:href="#mcb5d784cb2" y="457.452"/>
      </g>
     </g>
     <g id="text_19">
      <!-- 0 -->
      <g transform="translate(275.78275 472.050438)scale(0.1 -0.1)">
       <use xlink:href="#DejaVuSans-30"/>
      </g>
     </g>
    </g>
    <g id="text_20">
     <!-- z -->
     <g transform="translate(276.077359 486.488406)scale(0.11 -0.11)">
      <defs>
       <path d="M 353 3500 
L 3084 3500 
L 3084 2975 
L 922 459 
L 3084 459 
L 3084 0 
L 275 0 
L 275 525 
L 2438 3041 
L 353 3041 
L 353 3500 
z
" id="DejaVuSans-7a" transform="scale(0.015625)"/>
      </defs>
      <use xlink:href="#DejaVuSans-7a"/>
     </g>
    </g>
   </g>
   <g id="matplotlib.axis_6">
    <g id="ytick_11">
     <g id="line2d_20">
      <g>
       <use style="stroke:#000000;stroke-width:0.8;" x="68.04" xlink:href="#m44169df7d9" y="457.452"/>
      </g>
     </g>
     <g id="text_21">
      <!-- 0.0 -->
      <g transform="translate(45.136875 461.251219)scale(0.1 -0.1)">
       <use xlink:href="#DejaVuSans-30"/>
       <use x="63.623047" xlink:href="#DejaVuSans-2e"/>
       <use x="95.410156" xlink:href="#DejaVuSans-30"/>
      </g>
     </g>
    </g>
    <g id="ytick_12">
     <g id="line2d_21">
      <g>
       <use style="stroke:#000000;stroke-width:0.8;" x="68.04" xlink:href="#m44169df7d9" y="429.347379"/>
      </g>
     </g>
     <g id="text_22">
      <!-- 0.1 -->
      <g transform="translate(45.136875 433.146598)scale(0.1 -0.1)">
       <use xlink:href="#DejaVuSans-30"/>
       <use x="63.623047" xlink:href="#DejaVuSans-2e"/>
       <use x="95.410156" xlink:href="#DejaVuSans-31"/>
      </g>
     </g>
    </g>
    <g id="ytick_13">
     <g id="line2d_22">
      <g>
       <use style="stroke:#000000;stroke-width:0.8;" x="68.04" xlink:href="#m44169df7d9" y="401.242758"/>
      </g>
     </g>
     <g id="text_23">
      <!-- 0.2 -->
      <g transform="translate(45.136875 405.041977)scale(0.1 -0.1)">
       <use xlink:href="#DejaVuSans-30"/>
       <use x="63.623047" xlink:href="#DejaVuSans-2e"/>
       <use x="95.410156" xlink:href="#DejaVuSans-32"/>
      </g>
     </g>
    </g>
    <g id="ytick_14">
     <g id="line2d_23">
      <g>
       <use style="stroke:#000000;stroke-width:0.8;" x="68.04" xlink:href="#m44169df7d9" y="373.138137"/>
      </g>
     </g>
     <g id="text_24">
      <!-- 0.3 -->
      <g transform="translate(45.136875 376.937356)scale(0.1 -0.1)">
       <use xlink:href="#DejaVuSans-30"/>
       <use x="63.623047" xlink:href="#DejaVuSans-2e"/>
       <use x="95.410156" xlink:href="#DejaVuSans-33"/>
      </g>
     </g>
    </g>
    <g id="ytick_15">
     <g id="line2d_24">
      <g>
       <use style="stroke:#000000;stroke-width:0.8;" x="68.04" xlink:href="#m44169df7d9" y="345.033517"/>
      </g>
     </g>
     <g id="text_25">
      <!-- 0.4 -->
      <g transform="translate(45.136875 348.832735)scale(0.1 -0.1)">
       <use xlink:href="#DejaVuSans-30"/>
       <use x="63.623047" xlink:href="#DejaVuSans-2e"/>
       <use x="95.410156" xlink:href="#DejaVuSans-34"/>
      </g>
     </g>
    </g>
   </g>
   <g id="LineCollection_5">
    <path clip-path="url(#pafaa5a67c4)" d="M 252.5985 457.452 
L 252.5985 358.505375 
" style="fill:none;stroke:#000000;"/>
   </g>
   <g id="LineCollection_6">
    <path clip-path="url(#pafaa5a67c4)" d="M 199.8675 457.452 
L 199.8675 421.051571 
" style="fill:none;stroke:#000000;"/>
   </g>
   <g id="line2d_25">
    <path clip-path="url(#pafaa5a67c4)" d="M 68.04 457.414388 
L 92.024669 457.2428 
L 106.133298 456.930853 
L 116.009338 456.505893 
L 124.474515 455.918095 
L 131.528829 455.202271 
L 137.172281 454.434831 
L 142.815732 453.451681 
L 148.459184 452.208575 
L 152.691773 451.076841 
L 156.924361 449.750615 
L 161.15695 448.208242 
L 165.389538 446.428229 
L 169.622127 444.38988 
L 173.854716 442.074028 
L 178.087304 439.463856 
L 182.319893 436.545779 
L 186.552482 433.310369 
L 190.78507 429.753288 
L 195.017659 425.876195 
L 199.250247 421.687581 
L 203.482836 417.203489 
L 207.715425 412.448079 
L 213.358876 405.743122 
L 220.413191 396.923027 
L 238.754408 373.617421 
L 242.986997 368.612489 
L 247.219585 363.913367 
L 251.452174 359.598183 
L 254.2739 356.971658 
L 257.095625 354.56966 
L 259.917351 352.411457 
L 262.739077 350.514635 
L 265.560803 348.894859 
L 268.382528 347.56566 
L 271.204254 346.538242 
L 274.02598 345.821331 
L 276.847706 345.421046 
L 279.669431 345.340817 
L 282.491157 345.581332 
L 285.312883 346.140528 
L 288.134609 347.013623 
L 290.956334 348.193181 
L 293.77806 349.669218 
L 296.599786 351.429347 
L 299.421512 353.458943 
L 302.243237 355.741353 
L 305.064963 358.258118 
L 309.297552 362.42854 
L 313.53014 367.008225 
L 317.762729 371.920042 
L 323.406181 378.848459 
L 331.871358 389.674486 
L 341.747398 402.26242 
L 347.390849 409.142835 
L 353.034301 415.647064 
L 357.26689 420.224693 
L 361.499478 424.513973 
L 365.732067 428.496209 
L 369.964656 432.160466 
L 374.197244 435.502896 
L 378.429833 438.525935 
L 382.662421 441.237419 
L 386.89501 443.64965 
L 391.127599 445.778469 
L 395.360187 447.642354 
L 399.592776 449.261577 
L 403.825365 450.657442 
L 408.057953 451.851614 
L 413.701405 453.167096 
L 419.344856 454.21092 
L 424.988308 455.028383 
L 432.042622 455.793611 
L 439.096936 456.337355 
L 447.562114 456.776202 
L 458.849017 457.118845 
L 474.368508 457.335104 
L 489.888 457.414388 
L 489.888 457.414388 
" style="fill:none;stroke:#000000;stroke-linecap:square;"/>
   </g>
   <g id="patch_15">
    <path d="M 68.04 457.452 
L 68.04 322.907294 
" style="fill:none;stroke:#000000;stroke-linecap:square;stroke-linejoin:miter;stroke-width:0.8;"/>
   </g>
   <g id="patch_16">
    <path d="M 489.888 457.452 
L 489.888 322.907294 
" style="fill:none;stroke:#000000;stroke-linecap:square;stroke-linejoin:miter;stroke-width:0.8;"/>
   </g>
   <g id="patch_17">
    <path d="M 68.04 457.452 
L 489.888 457.452 
" style="fill:none;stroke:#000000;stroke-linecap:square;stroke-linejoin:miter;stroke-width:0.8;"/>
   </g>
   <g id="patch_18">
    <path d="M 68.04 322.907294 
L 489.888 322.907294 
" style="fill:none;stroke:#000000;stroke-linecap:square;stroke-linejoin:miter;stroke-width:0.8;"/>
   </g>
   <g id="patch_19">
    <path d="M 216.734864 381.369281 
Q 220.722179 384.760325 224.113318 387.644345 
" style="fill:none;stroke:#000000;stroke-linecap:round;stroke-width:0.7;"/>
    <path d="M 222.361951 383.529407 
L 224.113318 387.644345 
L 219.770548 386.576476 
" style="fill:none;stroke:#000000;stroke-linecap:round;stroke-width:0.7;"/>
   </g>
   <g id="text_26">
    <!-- 24.17% -->
    <g transform="translate(188.103312 375.992575)scale(0.1 -0.1)">
     <defs>
      <path d="M 525 4666 
L 3525 4666 
L 3525 4397 
L 1831 0 
L 1172 0 
L 2766 4134 
L 525 4134 
L 525 4666 
z
" id="DejaVuSans-37" transform="scale(0.015625)"/>
     </defs>
     <use xlink:href="#DejaVuSans-32"/>
     <use x="63.623047" xlink:href="#DejaVuSans-34"/>
     <use x="127.246094" xlink:href="#DejaVuSans-2e"/>
     <use x="159.033203" xlink:href="#DejaVuSans-31"/>
     <use x="222.65625" xlink:href="#DejaVuSans-37"/>
     <use x="286.279297" xlink:href="#DejaVuSans-25"/>
    </g>
   </g>
  </g>
 </g>
 <defs>
  <clipPath id="pcbc2866d42">
   <rect height="134.544706" width="421.848" x="68.04" y="0"/>
  </clipPath>
  <clipPath id="p492ce1ec87">
   <rect height="134.544706" width="421.848" x="68.04" y="161.453647"/>
  </clipPath>
  <clipPath id="pafaa5a67c4">
   <rect height="134.544706" width="421.848" x="68.04" y="322.907294"/>
  </clipPath>
 </defs>
</svg>
