<?xml version="1.0" encoding="utf-8" standalone="no"?>
<!DOCTYPE svg PUBLIC "-//W3C//DTD SVG 1.1//EN"
  "http://www.w3.org/Graphics/SVG/1.1/DTD/svg11.dtd">
<svg height="446.4pt" version="1.1" viewBox="0 0 460.8 446.4" width="460.8pt" xmlns="http://www.w3.org/2000/svg" xmlns:xlink="http://www.w3.org/1999/xlink">
 <metadata>
  <rdf:RDF xmlns:cc="http://creativecommons.org/ns#" xmlns:dc="http://purl.org/dc/elements/1.1/" xmlns:rdf="http://www.w3.org/1999/02/22-rdf-syntax-ns#">
   <cc:Work>
    <dc:type rdf:resource="http://purl.org/dc/dcmitype/StillImage"/>
    <dc:date>2021-07-19T04:01:09.413566</dc:date>
    <dc:format>image/svg+xml</dc:format>
    <dc:creator>
     <cc:Agent>
      <dc:title>Matplotlib v3.4.2, https://matplotlib.org/</dc:title>
     </cc:Agent>
    </dc:creator>
   </cc:Work>
  </rdf:RDF>
 </metadata>
 <defs>
  <style type="text/css">*{stroke-linecap:butt;stroke-linejoin:round;}</style>
 </defs>
 <g id="figure_1">
  <g id="patch_1">
   <path d="M 0 446.4 
L 460.8 446.4 
L 460.8 0 
L 0 0 
z
" style="fill:#ffffff;"/>
  </g>
  <g id="axes_1">
   <g id="patch_2">
    <path d="M 33.64 202.08 
L 450 202.08 
L 450 26.88 
L 33.64 26.88 
z
" style="fill:#ffffff;"/>
   </g>
   <g id="PolyCollection_1">
    <defs>
     <path d="M 120.745225 -244.32 
L 120.745225 -254.074697 
L 119.865374 -253.697167 
L 118.985523 -253.331673 
L 118.105673 -252.977951 
L 117.225822 -252.635735 
L 116.345971 -252.304763 
L 115.46612 -251.984774 
L 114.58627 -251.675505 
L 113.706419 -251.376699 
L 112.826568 -251.088096 
L 111.946717 -250.809441 
L 111.066867 -250.540481 
L 110.187016 -250.280965 
L 109.307165 -250.030643 
L 108.427314 -249.78927 
L 107.547464 -249.556602 
L 106.667613 -249.332399 
L 105.787762 -249.116424 
L 104.907911 -248.908444 
L 104.028061 -248.708228 
L 103.14821 -248.515549 
L 102.268359 -248.330183 
L 101.388508 -248.151913 
L 100.508657 -247.980521 
L 99.628807 -247.815795 
L 98.748956 -247.657528 
L 97.869105 -247.505516 
L 96.989254 -247.359559 
L 96.109404 -247.219461 
L 95.229553 -247.085029 
L 94.349702 -246.956077 
L 93.469851 -246.832421 
L 92.590001 -246.713881 
L 91.71015 -246.600282 
L 90.830299 -246.491453 
L 89.950448 -246.387228 
L 89.070598 -246.287442 
L 88.190747 -246.191938 
L 87.310896 -246.100561 
L 86.431045 -246.013161 
L 85.551195 -245.929591 
L 84.671344 -245.849708 
L 83.791493 -245.773374 
L 82.911642 -245.700455 
L 82.031792 -245.63082 
L 81.151941 -245.564342 
L 80.27209 -245.500897 
L 79.392239 -245.440367 
L 78.512389 -245.382636 
L 77.632538 -245.327592 
L 76.752687 -245.275126 
L 75.872836 -245.225133 
L 74.992986 -245.177512 
L 74.113135 -245.132164 
L 73.233284 -245.088995 
L 72.353433 -245.047912 
L 71.473583 -245.008827 
L 70.593732 -244.971654 
L 69.713881 -244.936311 
L 68.83403 -244.902719 
L 67.95418 -244.8708 
L 67.074329 -244.840481 
L 66.194478 -244.81169 
L 65.314627 -244.784359 
L 64.434776 -244.758421 
L 63.554926 -244.733815 
L 62.675075 -244.710477 
L 61.795224 -244.688351 
L 60.915373 -244.667379 
L 60.035523 -244.647508 
L 59.155672 -244.628685 
L 58.275821 -244.61086 
L 57.39597 -244.593987 
L 56.51612 -244.578019 
L 55.636269 -244.562911 
L 54.756418 -244.548624 
L 53.876567 -244.535115 
L 52.996717 -244.522346 
L 52.116866 -244.510281 
L 51.237015 -244.498884 
L 50.357164 -244.488122 
L 49.477314 -244.477962 
L 48.597463 -244.468373 
L 47.717612 -244.459327 
L 46.837761 -244.450795 
L 45.957911 -244.442751 
L 45.07806 -244.435168 
L 44.198209 -244.428023 
L 43.318358 -244.421292 
L 42.438508 -244.414953 
L 41.558657 -244.408986 
L 40.678806 -244.40337 
L 39.798955 -244.398086 
L 38.919105 -244.393116 
L 38.039254 -244.388442 
L 37.159403 -244.384049 
L 36.279552 -244.379921 
L 35.399702 -244.376043 
L 34.519851 -244.372401 
L 33.64 -244.368982 
L 33.64 -244.32 
L 33.64 -244.32 
L 34.519851 -244.32 
L 35.399702 -244.32 
L 36.279552 -244.32 
L 37.159403 -244.32 
L 38.039254 -244.32 
L 38.919105 -244.32 
L 39.798955 -244.32 
L 40.678806 -244.32 
L 41.558657 -244.32 
L 42.438508 -244.32 
L 43.318358 -244.32 
L 44.198209 -244.32 
L 45.07806 -244.32 
L 45.957911 -244.32 
L 46.837761 -244.32 
L 47.717612 -244.32 
L 48.597463 -244.32 
L 49.477314 -244.32 
L 50.357164 -244.32 
L 51.237015 -244.32 
L 52.116866 -244.32 
L 52.996717 -244.32 
L 53.876567 -244.32 
L 54.756418 -244.32 
L 55.636269 -244.32 
L 56.51612 -244.32 
L 57.39597 -244.32 
L 58.275821 -244.32 
L 59.155672 -244.32 
L 60.035523 -244.32 
L 60.915373 -244.32 
L 61.795224 -244.32 
L 62.675075 -244.32 
L 63.554926 -244.32 
L 64.434776 -244.32 
L 65.314627 -244.32 
L 66.194478 -244.32 
L 67.074329 -244.32 
L 67.95418 -244.32 
L 68.83403 -244.32 
L 69.713881 -244.32 
L 70.593732 -244.32 
L 71.473583 -244.32 
L 72.353433 -244.32 
L 73.233284 -244.32 
L 74.113135 -244.32 
L 74.992986 -244.32 
L 75.872836 -244.32 
L 76.752687 -244.32 
L 77.632538 -244.32 
L 78.512389 -244.32 
L 79.392239 -244.32 
L 80.27209 -244.32 
L 81.151941 -244.32 
L 82.031792 -244.32 
L 82.911642 -244.32 
L 83.791493 -244.32 
L 84.671344 -244.32 
L 85.551195 -244.32 
L 86.431045 -244.32 
L 87.310896 -244.32 
L 88.190747 -244.32 
L 89.070598 -244.32 
L 89.950448 -244.32 
L 90.830299 -244.32 
L 91.71015 -244.32 
L 92.590001 -244.32 
L 93.469851 -244.32 
L 94.349702 -244.32 
L 95.229553 -244.32 
L 96.109404 -244.32 
L 96.989254 -244.32 
L 97.869105 -244.32 
L 98.748956 -244.32 
L 99.628807 -244.32 
L 100.508657 -244.32 
L 101.388508 -244.32 
L 102.268359 -244.32 
L 103.14821 -244.32 
L 104.028061 -244.32 
L 104.907911 -244.32 
L 105.787762 -244.32 
L 106.667613 -244.32 
L 107.547464 -244.32 
L 108.427314 -244.32 
L 109.307165 -244.32 
L 110.187016 -244.32 
L 111.066867 -244.32 
L 111.946717 -244.32 
L 112.826568 -244.32 
L 113.706419 -244.32 
L 114.58627 -244.32 
L 115.46612 -244.32 
L 116.345971 -244.32 
L 117.225822 -244.32 
L 118.105673 -244.32 
L 118.985523 -244.32 
L 119.865374 -244.32 
L 120.745225 -244.32 
z
" id="ma3ea5942ac" style="stroke:#d62728;stroke-opacity:0.7;"/>
    </defs>
    <g clip-path="url(#pc0a647d3e4)">
     <use style="fill:#d62728;fill-opacity:0.7;stroke:#d62728;stroke-opacity:0.7;" x="0" xlink:href="#ma3ea5942ac" y="446.4"/>
    </g>
   </g>
   <g id="matplotlib.axis_1">
    <g id="xtick_1">
     <g id="line2d_1">
      <defs>
       <path d="M 0 0 
L 0 3.5 
" id="m958b570fc3" style="stroke:#000000;stroke-width:0.8;"/>
      </defs>
      <g>
       <use style="stroke:#000000;stroke-width:0.8;" x="120.745225" xlink:href="#m958b570fc3" y="202.08"/>
      </g>
     </g>
     <g id="text_1">
      <!-- CV -->
      <g transform="translate(113.833506 216.678438)scale(0.1 -0.1)">
       <defs>
        <path d="M 4122 4306 
L 4122 3641 
Q 3803 3938 3442 4084 
Q 3081 4231 2675 4231 
Q 1875 4231 1450 3742 
Q 1025 3253 1025 2328 
Q 1025 1406 1450 917 
Q 1875 428 2675 428 
Q 3081 428 3442 575 
Q 3803 722 4122 1019 
L 4122 359 
Q 3791 134 3420 21 
Q 3050 -91 2638 -91 
Q 1578 -91 968 557 
Q 359 1206 359 2328 
Q 359 3453 968 4101 
Q 1578 4750 2638 4750 
Q 3056 4750 3426 4639 
Q 3797 4528 4122 4306 
z
" id="DejaVuSans-43" transform="scale(0.015625)"/>
        <path d="M 1831 0 
L 50 4666 
L 709 4666 
L 2188 738 
L 3669 4666 
L 4325 4666 
L 2547 0 
L 1831 0 
z
" id="DejaVuSans-56" transform="scale(0.015625)"/>
       </defs>
       <use xlink:href="#DejaVuSans-43"/>
       <use x="69.824219" xlink:href="#DejaVuSans-56"/>
      </g>
     </g>
    </g>
    <g id="xtick_2">
     <g id="line2d_2">
      <g>
       <use style="stroke:#000000;stroke-width:0.8;" x="241.82" xlink:href="#m958b570fc3" y="202.08"/>
      </g>
     </g>
     <g id="text_2">
      <!-- 0 -->
      <g transform="translate(238.63875 216.678438)scale(0.1 -0.1)">
       <defs>
        <path d="M 2034 4250 
Q 1547 4250 1301 3770 
Q 1056 3291 1056 2328 
Q 1056 1369 1301 889 
Q 1547 409 2034 409 
Q 2525 409 2770 889 
Q 3016 1369 3016 2328 
Q 3016 3291 2770 3770 
Q 2525 4250 2034 4250 
z
M 2034 4750 
Q 2819 4750 3233 4129 
Q 3647 3509 3647 2328 
Q 3647 1150 3233 529 
Q 2819 -91 2034 -91 
Q 1250 -91 836 529 
Q 422 1150 422 2328 
Q 422 3509 836 4129 
Q 1250 4750 2034 4750 
z
" id="DejaVuSans-30" transform="scale(0.015625)"/>
       </defs>
       <use xlink:href="#DejaVuSans-30"/>
      </g>
     </g>
    </g>
   </g>
   <g id="matplotlib.axis_2">
    <g id="ytick_1">
     <g id="line2d_3">
      <defs>
       <path d="M 0 0 
L -3.5 0 
" id="m1b3c8c8851" style="stroke:#000000;stroke-width:0.8;"/>
      </defs>
      <g>
       <use style="stroke:#000000;stroke-width:0.8;" x="33.64" xlink:href="#m1b3c8c8851" y="202.08"/>
      </g>
     </g>
     <g id="text_3">
      <!-- 0.0 -->
      <g transform="translate(10.736875 205.879219)scale(0.1 -0.1)">
       <defs>
        <path d="M 684 794 
L 1344 794 
L 1344 0 
L 684 0 
L 684 794 
z
" id="DejaVuSans-2e" transform="scale(0.015625)"/>
       </defs>
       <use xlink:href="#DejaVuSans-30"/>
       <use x="63.623047" xlink:href="#DejaVuSans-2e"/>
       <use x="95.410156" xlink:href="#DejaVuSans-30"/>
      </g>
     </g>
    </g>
    <g id="ytick_2">
     <g id="line2d_4">
      <g>
       <use style="stroke:#000000;stroke-width:0.8;" x="33.64" xlink:href="#m1b3c8c8851" y="165.479952"/>
      </g>
     </g>
     <g id="text_4">
      <!-- 0.1 -->
      <g transform="translate(10.736875 169.279171)scale(0.1 -0.1)">
       <defs>
        <path d="M 794 531 
L 1825 531 
L 1825 4091 
L 703 3866 
L 703 4441 
L 1819 4666 
L 2450 4666 
L 2450 531 
L 3481 531 
L 3481 0 
L 794 0 
L 794 531 
z
" id="DejaVuSans-31" transform="scale(0.015625)"/>
       </defs>
       <use xlink:href="#DejaVuSans-30"/>
       <use x="63.623047" xlink:href="#DejaVuSans-2e"/>
       <use x="95.410156" xlink:href="#DejaVuSans-31"/>
      </g>
     </g>
    </g>
    <g id="ytick_3">
     <g id="line2d_5">
      <g>
       <use style="stroke:#000000;stroke-width:0.8;" x="33.64" xlink:href="#m1b3c8c8851" y="128.879904"/>
      </g>
     </g>
     <g id="text_5">
      <!-- 0.2 -->
      <g transform="translate(10.736875 132.679123)scale(0.1 -0.1)">
       <defs>
        <path d="M 1228 531 
L 3431 531 
L 3431 0 
L 469 0 
L 469 531 
Q 828 903 1448 1529 
Q 2069 2156 2228 2338 
Q 2531 2678 2651 2914 
Q 2772 3150 2772 3378 
Q 2772 3750 2511 3984 
Q 2250 4219 1831 4219 
Q 1534 4219 1204 4116 
Q 875 4013 500 3803 
L 500 4441 
Q 881 4594 1212 4672 
Q 1544 4750 1819 4750 
Q 2544 4750 2975 4387 
Q 3406 4025 3406 3419 
Q 3406 3131 3298 2873 
Q 3191 2616 2906 2266 
Q 2828 2175 2409 1742 
Q 1991 1309 1228 531 
z
" id="DejaVuSans-32" transform="scale(0.015625)"/>
       </defs>
       <use xlink:href="#DejaVuSans-30"/>
       <use x="63.623047" xlink:href="#DejaVuSans-2e"/>
       <use x="95.410156" xlink:href="#DejaVuSans-32"/>
      </g>
     </g>
    </g>
    <g id="ytick_4">
     <g id="line2d_6">
      <g>
       <use style="stroke:#000000;stroke-width:0.8;" x="33.64" xlink:href="#m1b3c8c8851" y="92.279857"/>
      </g>
     </g>
     <g id="text_6">
      <!-- 0.3 -->
      <g transform="translate(10.736875 96.079075)scale(0.1 -0.1)">
       <defs>
        <path d="M 2597 2516 
Q 3050 2419 3304 2112 
Q 3559 1806 3559 1356 
Q 3559 666 3084 287 
Q 2609 -91 1734 -91 
Q 1441 -91 1130 -33 
Q 819 25 488 141 
L 488 750 
Q 750 597 1062 519 
Q 1375 441 1716 441 
Q 2309 441 2620 675 
Q 2931 909 2931 1356 
Q 2931 1769 2642 2001 
Q 2353 2234 1838 2234 
L 1294 2234 
L 1294 2753 
L 1863 2753 
Q 2328 2753 2575 2939 
Q 2822 3125 2822 3475 
Q 2822 3834 2567 4026 
Q 2313 4219 1838 4219 
Q 1578 4219 1281 4162 
Q 984 4106 628 3988 
L 628 4550 
Q 988 4650 1302 4700 
Q 1616 4750 1894 4750 
Q 2613 4750 3031 4423 
Q 3450 4097 3450 3541 
Q 3450 3153 3228 2886 
Q 3006 2619 2597 2516 
z
" id="DejaVuSans-33" transform="scale(0.015625)"/>
       </defs>
       <use xlink:href="#DejaVuSans-30"/>
       <use x="63.623047" xlink:href="#DejaVuSans-2e"/>
       <use x="95.410156" xlink:href="#DejaVuSans-33"/>
      </g>
     </g>
    </g>
    <g id="ytick_5">
     <g id="line2d_7">
      <g>
       <use style="stroke:#000000;stroke-width:0.8;" x="33.64" xlink:href="#m1b3c8c8851" y="55.679809"/>
      </g>
     </g>
     <g id="text_7">
      <!-- 0.4 -->
      <g transform="translate(10.736875 59.479028)scale(0.1 -0.1)">
       <defs>
        <path d="M 2419 4116 
L 825 1625 
L 2419 1625 
L 2419 4116 
z
M 2253 4666 
L 3047 4666 
L 3047 1625 
L 3713 1625 
L 3713 1100 
L 3047 1100 
L 3047 0 
L 2419 0 
L 2419 1100 
L 313 1100 
L 313 1709 
L 2253 4666 
z
" id="DejaVuSans-34" transform="scale(0.015625)"/>
       </defs>
       <use xlink:href="#DejaVuSans-30"/>
       <use x="63.623047" xlink:href="#DejaVuSans-2e"/>
       <use x="95.410156" xlink:href="#DejaVuSans-34"/>
      </g>
     </g>
    </g>
   </g>
   <g id="LineCollection_1">
    <path clip-path="url(#pc0a647d3e4)" d="M 120.745225 202.08 
L 120.745225 192.325303 
" style="fill:none;stroke:#000000;"/>
   </g>
   <g id="line2d_8">
    <path clip-path="url(#pc0a647d3e4)" d="M 33.64 202.031018 
L 55.920134 201.832306 
L 68.452709 201.511316 
L 78.200268 201.037192 
L 85.162809 200.506118 
L 92.125351 199.746715 
L 97.695385 198.923775 
L 103.265418 197.859211 
L 107.442943 196.870471 
L 111.620468 195.691407 
L 115.797993 194.295802 
L 119.975518 192.656236 
L 124.153043 190.744601 
L 128.330569 188.53275 
L 132.508094 185.993286 
L 136.685619 183.100471 
L 140.863144 179.83126 
L 145.040669 176.166427 
L 149.218194 172.091753 
L 153.395719 167.599247 
L 157.573244 162.688338 
L 161.750769 157.367006 
L 165.928294 151.652772 
L 170.105819 145.57351 
L 175.675853 136.96865 
L 181.245886 127.907887 
L 189.600936 113.81479 
L 199.348495 97.419222 
L 204.918528 88.519667 
L 209.096054 82.255887 
L 213.273579 76.458586 
L 216.058595 72.901924 
L 218.843612 69.624395 
L 221.628629 66.652062 
L 224.413645 64.008962 
L 227.198662 61.716784 
L 229.983679 59.794572 
L 232.768696 58.258459 
L 235.553712 57.121446 
L 238.338729 56.393217 
L 241.123746 56.08 
L 243.908763 56.18448 
L 246.693779 56.705762 
L 249.478796 57.63938 
L 252.263813 58.977365 
L 255.048829 60.708353 
L 257.833846 62.817753 
L 260.618863 65.287944 
L 263.40388 68.098525 
L 266.188896 71.226596 
L 268.973913 74.647062 
L 271.75893 78.332977 
L 275.936455 84.297003 
L 280.11398 90.693557 
L 285.684013 99.716286 
L 294.039064 113.81479 
L 303.786622 130.207787 
L 309.356656 139.168005 
L 314.926689 147.638324 
L 319.104214 153.599672 
L 323.281739 159.185511 
L 327.459264 164.371492 
L 331.636789 169.143375 
L 335.814314 173.49615 
L 339.991839 177.43299 
L 344.169365 180.964097 
L 348.34689 184.105494 
L 352.524415 186.877809 
L 356.70194 189.305107 
L 360.879465 191.413787 
L 365.05699 193.231592 
L 369.234515 194.786737 
L 373.41204 196.107164 
L 377.589565 197.219946 
L 383.159599 198.424872 
L 388.729632 199.362374 
L 394.299666 200.082429 
L 401.262207 200.74218 
L 409.617258 201.27237 
L 419.364816 201.646139 
L 431.897391 201.894647 
L 450 202.031018 
L 450 202.031018 
" style="fill:none;stroke:#000000;stroke-linecap:square;"/>
   </g>
   <g id="patch_3">
    <path d="M 33.64 202.08 
L 33.64 26.88 
" style="fill:none;stroke:#000000;stroke-linecap:square;stroke-linejoin:miter;stroke-width:0.8;"/>
   </g>
   <g id="patch_4">
    <path d="M 450 202.08 
L 450 26.88 
" style="fill:none;stroke:#000000;stroke-linecap:square;stroke-linejoin:miter;stroke-width:0.8;"/>
   </g>
   <g id="patch_5">
    <path d="M 33.64 202.08 
L 450 202.08 
" style="fill:none;stroke:#000000;stroke-linecap:square;stroke-linejoin:miter;stroke-width:0.8;"/>
   </g>
   <g id="patch_6">
    <path d="M 33.64 26.88 
L 450 26.88 
" style="fill:none;stroke:#000000;stroke-linecap:square;stroke-linejoin:miter;stroke-width:0.8;"/>
   </g>
   <g id="patch_7">
    <path d="M 76.281987 187.602087 
Q 83.210724 193.080002 89.525531 198.072541 
" style="fill:none;stroke:#000000;stroke-linecap:round;stroke-width:0.7;"/>
    <path d="M 87.628117 194.022872 
L 89.525531 198.072541 
L 85.147348 197.160671 
" style="fill:none;stroke:#000000;stroke-linecap:round;stroke-width:0.7;"/>
   </g>
   <g id="text_8">
    <!-- 0.01 -->
    <g style="fill:#d62728;" transform="translate(54.926987 182.279718)scale(0.1 -0.1)">
     <use xlink:href="#DejaVuSans-30"/>
     <use x="63.623047" xlink:href="#DejaVuSans-2e"/>
     <use x="95.410156" xlink:href="#DejaVuSans-30"/>
     <use x="159.033203" xlink:href="#DejaVuSans-31"/>
    </g>
   </g>
   <g id="text_9">
    <!-- Significance Level ($\alpha$) = 0.01 -->
    <g style="fill:#d62728;" transform="translate(39.8854 39.144)scale(0.09 -0.09)">
     <defs>
      <path d="M 3425 4513 
L 3425 3897 
Q 3066 4069 2747 4153 
Q 2428 4238 2131 4238 
Q 1616 4238 1336 4038 
Q 1056 3838 1056 3469 
Q 1056 3159 1242 3001 
Q 1428 2844 1947 2747 
L 2328 2669 
Q 3034 2534 3370 2195 
Q 3706 1856 3706 1288 
Q 3706 609 3251 259 
Q 2797 -91 1919 -91 
Q 1588 -91 1214 -16 
Q 841 59 441 206 
L 441 856 
Q 825 641 1194 531 
Q 1563 422 1919 422 
Q 2459 422 2753 634 
Q 3047 847 3047 1241 
Q 3047 1584 2836 1778 
Q 2625 1972 2144 2069 
L 1759 2144 
Q 1053 2284 737 2584 
Q 422 2884 422 3419 
Q 422 4038 858 4394 
Q 1294 4750 2059 4750 
Q 2388 4750 2728 4690 
Q 3069 4631 3425 4513 
z
" id="DejaVuSans-53" transform="scale(0.015625)"/>
      <path d="M 603 3500 
L 1178 3500 
L 1178 0 
L 603 0 
L 603 3500 
z
M 603 4863 
L 1178 4863 
L 1178 4134 
L 603 4134 
L 603 4863 
z
" id="DejaVuSans-69" transform="scale(0.015625)"/>
      <path d="M 2906 1791 
Q 2906 2416 2648 2759 
Q 2391 3103 1925 3103 
Q 1463 3103 1205 2759 
Q 947 2416 947 1791 
Q 947 1169 1205 825 
Q 1463 481 1925 481 
Q 2391 481 2648 825 
Q 2906 1169 2906 1791 
z
M 3481 434 
Q 3481 -459 3084 -895 
Q 2688 -1331 1869 -1331 
Q 1566 -1331 1297 -1286 
Q 1028 -1241 775 -1147 
L 775 -588 
Q 1028 -725 1275 -790 
Q 1522 -856 1778 -856 
Q 2344 -856 2625 -561 
Q 2906 -266 2906 331 
L 2906 616 
Q 2728 306 2450 153 
Q 2172 0 1784 0 
Q 1141 0 747 490 
Q 353 981 353 1791 
Q 353 2603 747 3093 
Q 1141 3584 1784 3584 
Q 2172 3584 2450 3431 
Q 2728 3278 2906 2969 
L 2906 3500 
L 3481 3500 
L 3481 434 
z
" id="DejaVuSans-67" transform="scale(0.015625)"/>
      <path d="M 3513 2113 
L 3513 0 
L 2938 0 
L 2938 2094 
Q 2938 2591 2744 2837 
Q 2550 3084 2163 3084 
Q 1697 3084 1428 2787 
Q 1159 2491 1159 1978 
L 1159 0 
L 581 0 
L 581 3500 
L 1159 3500 
L 1159 2956 
Q 1366 3272 1645 3428 
Q 1925 3584 2291 3584 
Q 2894 3584 3203 3211 
Q 3513 2838 3513 2113 
z
" id="DejaVuSans-6e" transform="scale(0.015625)"/>
      <path d="M 2375 4863 
L 2375 4384 
L 1825 4384 
Q 1516 4384 1395 4259 
Q 1275 4134 1275 3809 
L 1275 3500 
L 2222 3500 
L 2222 3053 
L 1275 3053 
L 1275 0 
L 697 0 
L 697 3053 
L 147 3053 
L 147 3500 
L 697 3500 
L 697 3744 
Q 697 4328 969 4595 
Q 1241 4863 1831 4863 
L 2375 4863 
z
" id="DejaVuSans-66" transform="scale(0.015625)"/>
      <path d="M 3122 3366 
L 3122 2828 
Q 2878 2963 2633 3030 
Q 2388 3097 2138 3097 
Q 1578 3097 1268 2742 
Q 959 2388 959 1747 
Q 959 1106 1268 751 
Q 1578 397 2138 397 
Q 2388 397 2633 464 
Q 2878 531 3122 666 
L 3122 134 
Q 2881 22 2623 -34 
Q 2366 -91 2075 -91 
Q 1284 -91 818 406 
Q 353 903 353 1747 
Q 353 2603 823 3093 
Q 1294 3584 2113 3584 
Q 2378 3584 2631 3529 
Q 2884 3475 3122 3366 
z
" id="DejaVuSans-63" transform="scale(0.015625)"/>
      <path d="M 2194 1759 
Q 1497 1759 1228 1600 
Q 959 1441 959 1056 
Q 959 750 1161 570 
Q 1363 391 1709 391 
Q 2188 391 2477 730 
Q 2766 1069 2766 1631 
L 2766 1759 
L 2194 1759 
z
M 3341 1997 
L 3341 0 
L 2766 0 
L 2766 531 
Q 2569 213 2275 61 
Q 1981 -91 1556 -91 
Q 1019 -91 701 211 
Q 384 513 384 1019 
Q 384 1609 779 1909 
Q 1175 2209 1959 2209 
L 2766 2209 
L 2766 2266 
Q 2766 2663 2505 2880 
Q 2244 3097 1772 3097 
Q 1472 3097 1187 3025 
Q 903 2953 641 2809 
L 641 3341 
Q 956 3463 1253 3523 
Q 1550 3584 1831 3584 
Q 2591 3584 2966 3190 
Q 3341 2797 3341 1997 
z
" id="DejaVuSans-61" transform="scale(0.015625)"/>
      <path d="M 3597 1894 
L 3597 1613 
L 953 1613 
Q 991 1019 1311 708 
Q 1631 397 2203 397 
Q 2534 397 2845 478 
Q 3156 559 3463 722 
L 3463 178 
Q 3153 47 2828 -22 
Q 2503 -91 2169 -91 
Q 1331 -91 842 396 
Q 353 884 353 1716 
Q 353 2575 817 3079 
Q 1281 3584 2069 3584 
Q 2775 3584 3186 3129 
Q 3597 2675 3597 1894 
z
M 3022 2063 
Q 3016 2534 2758 2815 
Q 2500 3097 2075 3097 
Q 1594 3097 1305 2825 
Q 1016 2553 972 2059 
L 3022 2063 
z
" id="DejaVuSans-65" transform="scale(0.015625)"/>
      <path id="DejaVuSans-20" transform="scale(0.015625)"/>
      <path d="M 628 4666 
L 1259 4666 
L 1259 531 
L 3531 531 
L 3531 0 
L 628 0 
L 628 4666 
z
" id="DejaVuSans-4c" transform="scale(0.015625)"/>
      <path d="M 191 3500 
L 800 3500 
L 1894 563 
L 2988 3500 
L 3597 3500 
L 2284 0 
L 1503 0 
L 191 3500 
z
" id="DejaVuSans-76" transform="scale(0.015625)"/>
      <path d="M 603 4863 
L 1178 4863 
L 1178 0 
L 603 0 
L 603 4863 
z
" id="DejaVuSans-6c" transform="scale(0.015625)"/>
      <path d="M 1984 4856 
Q 1566 4138 1362 3434 
Q 1159 2731 1159 2009 
Q 1159 1288 1364 580 
Q 1569 -128 1984 -844 
L 1484 -844 
Q 1016 -109 783 600 
Q 550 1309 550 2009 
Q 550 2706 781 3412 
Q 1013 4119 1484 4856 
L 1984 4856 
z
" id="DejaVuSans-28" transform="scale(0.015625)"/>
      <path d="M 2619 1628 
L 2622 2350 
Q 2625 3088 2069 3091 
Q 1653 3094 1394 2747 
Q 1069 2319 959 1747 
Q 825 1059 994 731 
Q 1169 397 1547 397 
Q 1966 397 2319 1063 
L 2619 1628 
z
M 2166 3578 
Q 3141 3594 3128 2584 
Q 3128 2584 3616 3500 
L 4128 3500 
L 3119 1603 
L 3109 919 
Q 3109 766 3194 638 
Q 3291 488 3391 488 
L 3669 488 
L 3575 0 
L 3228 0 
Q 2934 0 2722 263 
Q 2622 394 2619 669 
Q 2416 334 2066 50 
Q 1900 -81 1453 -78 
Q 722 -72 456 397 
Q 184 884 353 1747 
Q 534 2675 1009 3097 
Q 1544 3569 2166 3578 
z
" id="DejaVuSans-Oblique-3b1" transform="scale(0.015625)"/>
      <path d="M 513 4856 
L 1013 4856 
Q 1481 4119 1714 3412 
Q 1947 2706 1947 2009 
Q 1947 1309 1714 600 
Q 1481 -109 1013 -844 
L 513 -844 
Q 928 -128 1133 580 
Q 1338 1288 1338 2009 
Q 1338 2731 1133 3434 
Q 928 4138 513 4856 
z
" id="DejaVuSans-29" transform="scale(0.015625)"/>
      <path d="M 678 2906 
L 4684 2906 
L 4684 2381 
L 678 2381 
L 678 2906 
z
M 678 1631 
L 4684 1631 
L 4684 1100 
L 678 1100 
L 678 1631 
z
" id="DejaVuSans-3d" transform="scale(0.015625)"/>
     </defs>
     <use transform="translate(0 0.015625)" xlink:href="#DejaVuSans-53"/>
     <use transform="translate(63.476562 0.015625)" xlink:href="#DejaVuSans-69"/>
     <use transform="translate(91.259766 0.015625)" xlink:href="#DejaVuSans-67"/>
     <use transform="translate(154.736328 0.015625)" xlink:href="#DejaVuSans-6e"/>
     <use transform="translate(218.115234 0.015625)" xlink:href="#DejaVuSans-69"/>
     <use transform="translate(245.898438 0.015625)" xlink:href="#DejaVuSans-66"/>
     <use transform="translate(281.103516 0.015625)" xlink:href="#DejaVuSans-69"/>
     <use transform="translate(308.886719 0.015625)" xlink:href="#DejaVuSans-63"/>
     <use transform="translate(363.867188 0.015625)" xlink:href="#DejaVuSans-61"/>
     <use transform="translate(425.146484 0.015625)" xlink:href="#DejaVuSans-6e"/>
     <use transform="translate(488.525391 0.015625)" xlink:href="#DejaVuSans-63"/>
     <use transform="translate(543.505859 0.015625)" xlink:href="#DejaVuSans-65"/>
     <use transform="translate(605.029297 0.015625)" xlink:href="#DejaVuSans-20"/>
     <use transform="translate(636.816406 0.015625)" xlink:href="#DejaVuSans-4c"/>
     <use transform="translate(692.529297 0.015625)" xlink:href="#DejaVuSans-65"/>
     <use transform="translate(754.052734 0.015625)" xlink:href="#DejaVuSans-76"/>
     <use transform="translate(813.232422 0.015625)" xlink:href="#DejaVuSans-65"/>
     <use transform="translate(874.755859 0.015625)" xlink:href="#DejaVuSans-6c"/>
     <use transform="translate(902.539062 0.015625)" xlink:href="#DejaVuSans-20"/>
     <use transform="translate(934.326172 0.015625)" xlink:href="#DejaVuSans-28"/>
     <use transform="translate(973.339844 0.015625)" xlink:href="#DejaVuSans-Oblique-3b1"/>
     <use transform="translate(1039.257812 0.015625)" xlink:href="#DejaVuSans-29"/>
     <use transform="translate(1078.271484 0.015625)" xlink:href="#DejaVuSans-20"/>
     <use transform="translate(1110.058594 0.015625)" xlink:href="#DejaVuSans-3d"/>
     <use transform="translate(1193.847656 0.015625)" xlink:href="#DejaVuSans-20"/>
     <use transform="translate(1225.634766 0.015625)" xlink:href="#DejaVuSans-30"/>
     <use transform="translate(1289.257812 0.015625)" xlink:href="#DejaVuSans-2e"/>
     <use transform="translate(1321.044922 0.015625)" xlink:href="#DejaVuSans-30"/>
     <use transform="translate(1384.667969 0.015625)" xlink:href="#DejaVuSans-31"/>
    </g>
   </g>
   <g id="text_10">
    <!-- Standard Normal Distribution (Z) -->
    <g transform="translate(143.298125 20.88)scale(0.12 -0.12)">
     <defs>
      <path d="M 1172 4494 
L 1172 3500 
L 2356 3500 
L 2356 3053 
L 1172 3053 
L 1172 1153 
Q 1172 725 1289 603 
Q 1406 481 1766 481 
L 2356 481 
L 2356 0 
L 1766 0 
Q 1100 0 847 248 
Q 594 497 594 1153 
L 594 3053 
L 172 3053 
L 172 3500 
L 594 3500 
L 594 4494 
L 1172 4494 
z
" id="DejaVuSans-74" transform="scale(0.015625)"/>
      <path d="M 2906 2969 
L 2906 4863 
L 3481 4863 
L 3481 0 
L 2906 0 
L 2906 525 
Q 2725 213 2448 61 
Q 2172 -91 1784 -91 
Q 1150 -91 751 415 
Q 353 922 353 1747 
Q 353 2572 751 3078 
Q 1150 3584 1784 3584 
Q 2172 3584 2448 3432 
Q 2725 3281 2906 2969 
z
M 947 1747 
Q 947 1113 1208 752 
Q 1469 391 1925 391 
Q 2381 391 2643 752 
Q 2906 1113 2906 1747 
Q 2906 2381 2643 2742 
Q 2381 3103 1925 3103 
Q 1469 3103 1208 2742 
Q 947 2381 947 1747 
z
" id="DejaVuSans-64" transform="scale(0.015625)"/>
      <path d="M 2631 2963 
Q 2534 3019 2420 3045 
Q 2306 3072 2169 3072 
Q 1681 3072 1420 2755 
Q 1159 2438 1159 1844 
L 1159 0 
L 581 0 
L 581 3500 
L 1159 3500 
L 1159 2956 
Q 1341 3275 1631 3429 
Q 1922 3584 2338 3584 
Q 2397 3584 2469 3576 
Q 2541 3569 2628 3553 
L 2631 2963 
z
" id="DejaVuSans-72" transform="scale(0.015625)"/>
      <path d="M 628 4666 
L 1478 4666 
L 3547 763 
L 3547 4666 
L 4159 4666 
L 4159 0 
L 3309 0 
L 1241 3903 
L 1241 0 
L 628 0 
L 628 4666 
z
" id="DejaVuSans-4e" transform="scale(0.015625)"/>
      <path d="M 1959 3097 
Q 1497 3097 1228 2736 
Q 959 2375 959 1747 
Q 959 1119 1226 758 
Q 1494 397 1959 397 
Q 2419 397 2687 759 
Q 2956 1122 2956 1747 
Q 2956 2369 2687 2733 
Q 2419 3097 1959 3097 
z
M 1959 3584 
Q 2709 3584 3137 3096 
Q 3566 2609 3566 1747 
Q 3566 888 3137 398 
Q 2709 -91 1959 -91 
Q 1206 -91 779 398 
Q 353 888 353 1747 
Q 353 2609 779 3096 
Q 1206 3584 1959 3584 
z
" id="DejaVuSans-6f" transform="scale(0.015625)"/>
      <path d="M 3328 2828 
Q 3544 3216 3844 3400 
Q 4144 3584 4550 3584 
Q 5097 3584 5394 3201 
Q 5691 2819 5691 2113 
L 5691 0 
L 5113 0 
L 5113 2094 
Q 5113 2597 4934 2840 
Q 4756 3084 4391 3084 
Q 3944 3084 3684 2787 
Q 3425 2491 3425 1978 
L 3425 0 
L 2847 0 
L 2847 2094 
Q 2847 2600 2669 2842 
Q 2491 3084 2119 3084 
Q 1678 3084 1418 2786 
Q 1159 2488 1159 1978 
L 1159 0 
L 581 0 
L 581 3500 
L 1159 3500 
L 1159 2956 
Q 1356 3278 1631 3431 
Q 1906 3584 2284 3584 
Q 2666 3584 2933 3390 
Q 3200 3197 3328 2828 
z
" id="DejaVuSans-6d" transform="scale(0.015625)"/>
      <path d="M 1259 4147 
L 1259 519 
L 2022 519 
Q 2988 519 3436 956 
Q 3884 1394 3884 2338 
Q 3884 3275 3436 3711 
Q 2988 4147 2022 4147 
L 1259 4147 
z
M 628 4666 
L 1925 4666 
Q 3281 4666 3915 4102 
Q 4550 3538 4550 2338 
Q 4550 1131 3912 565 
Q 3275 0 1925 0 
L 628 0 
L 628 4666 
z
" id="DejaVuSans-44" transform="scale(0.015625)"/>
      <path d="M 2834 3397 
L 2834 2853 
Q 2591 2978 2328 3040 
Q 2066 3103 1784 3103 
Q 1356 3103 1142 2972 
Q 928 2841 928 2578 
Q 928 2378 1081 2264 
Q 1234 2150 1697 2047 
L 1894 2003 
Q 2506 1872 2764 1633 
Q 3022 1394 3022 966 
Q 3022 478 2636 193 
Q 2250 -91 1575 -91 
Q 1294 -91 989 -36 
Q 684 19 347 128 
L 347 722 
Q 666 556 975 473 
Q 1284 391 1588 391 
Q 1994 391 2212 530 
Q 2431 669 2431 922 
Q 2431 1156 2273 1281 
Q 2116 1406 1581 1522 
L 1381 1569 
Q 847 1681 609 1914 
Q 372 2147 372 2553 
Q 372 3047 722 3315 
Q 1072 3584 1716 3584 
Q 2034 3584 2315 3537 
Q 2597 3491 2834 3397 
z
" id="DejaVuSans-73" transform="scale(0.015625)"/>
      <path d="M 3116 1747 
Q 3116 2381 2855 2742 
Q 2594 3103 2138 3103 
Q 1681 3103 1420 2742 
Q 1159 2381 1159 1747 
Q 1159 1113 1420 752 
Q 1681 391 2138 391 
Q 2594 391 2855 752 
Q 3116 1113 3116 1747 
z
M 1159 2969 
Q 1341 3281 1617 3432 
Q 1894 3584 2278 3584 
Q 2916 3584 3314 3078 
Q 3713 2572 3713 1747 
Q 3713 922 3314 415 
Q 2916 -91 2278 -91 
Q 1894 -91 1617 61 
Q 1341 213 1159 525 
L 1159 0 
L 581 0 
L 581 4863 
L 1159 4863 
L 1159 2969 
z
" id="DejaVuSans-62" transform="scale(0.015625)"/>
      <path d="M 544 1381 
L 544 3500 
L 1119 3500 
L 1119 1403 
Q 1119 906 1312 657 
Q 1506 409 1894 409 
Q 2359 409 2629 706 
Q 2900 1003 2900 1516 
L 2900 3500 
L 3475 3500 
L 3475 0 
L 2900 0 
L 2900 538 
Q 2691 219 2414 64 
Q 2138 -91 1772 -91 
Q 1169 -91 856 284 
Q 544 659 544 1381 
z
M 1991 3584 
L 1991 3584 
z
" id="DejaVuSans-75" transform="scale(0.015625)"/>
      <path d="M 359 4666 
L 4025 4666 
L 4025 4184 
L 1075 531 
L 4097 531 
L 4097 0 
L 288 0 
L 288 481 
L 3238 4134 
L 359 4134 
L 359 4666 
z
" id="DejaVuSans-5a" transform="scale(0.015625)"/>
     </defs>
     <use xlink:href="#DejaVuSans-53"/>
     <use x="63.476562" xlink:href="#DejaVuSans-74"/>
     <use x="102.685547" xlink:href="#DejaVuSans-61"/>
     <use x="163.964844" xlink:href="#DejaVuSans-6e"/>
     <use x="227.34375" xlink:href="#DejaVuSans-64"/>
     <use x="290.820312" xlink:href="#DejaVuSans-61"/>
     <use x="352.099609" xlink:href="#DejaVuSans-72"/>
     <use x="391.462891" xlink:href="#DejaVuSans-64"/>
     <use x="454.939453" xlink:href="#DejaVuSans-20"/>
     <use x="486.726562" xlink:href="#DejaVuSans-4e"/>
     <use x="561.53125" xlink:href="#DejaVuSans-6f"/>
     <use x="622.712891" xlink:href="#DejaVuSans-72"/>
     <use x="662.076172" xlink:href="#DejaVuSans-6d"/>
     <use x="759.488281" xlink:href="#DejaVuSans-61"/>
     <use x="820.767578" xlink:href="#DejaVuSans-6c"/>
     <use x="848.550781" xlink:href="#DejaVuSans-20"/>
     <use x="880.337891" xlink:href="#DejaVuSans-44"/>
     <use x="957.339844" xlink:href="#DejaVuSans-69"/>
     <use x="985.123047" xlink:href="#DejaVuSans-73"/>
     <use x="1037.222656" xlink:href="#DejaVuSans-74"/>
     <use x="1076.431641" xlink:href="#DejaVuSans-72"/>
     <use x="1117.544922" xlink:href="#DejaVuSans-69"/>
     <use x="1145.328125" xlink:href="#DejaVuSans-62"/>
     <use x="1208.804688" xlink:href="#DejaVuSans-75"/>
     <use x="1272.183594" xlink:href="#DejaVuSans-74"/>
     <use x="1311.392578" xlink:href="#DejaVuSans-69"/>
     <use x="1339.175781" xlink:href="#DejaVuSans-6f"/>
     <use x="1400.357422" xlink:href="#DejaVuSans-6e"/>
     <use x="1463.736328" xlink:href="#DejaVuSans-20"/>
     <use x="1495.523438" xlink:href="#DejaVuSans-28"/>
     <use x="1534.537109" xlink:href="#DejaVuSans-5a"/>
     <use x="1603.042969" xlink:href="#DejaVuSans-29"/>
    </g>
   </g>
  </g>
  <g id="axes_2">
   <g id="patch_8">
    <path d="M 33.64 405.16 
L 450 405.16 
L 450 229.96 
L 33.64 229.96 
z
" style="fill:#ffffff;"/>
   </g>
   <g id="PolyCollection_2">
    <defs>
     <path d="M 109.469565 -41.24 
L 109.469565 -46.996166 
L 108.70361 -46.784118 
L 107.937655 -46.578725 
L 107.171699 -46.379828 
L 106.405744 -46.187269 
L 105.639789 -46.000893 
L 104.873834 -45.820546 
L 104.107879 -45.646077 
L 103.341923 -45.477335 
L 102.575968 -45.314172 
L 101.810013 -45.156444 
L 101.044058 -45.004007 
L 100.278103 -44.85672 
L 99.512147 -44.714444 
L 98.746192 -44.577041 
L 97.980237 -44.444378 
L 97.214282 -44.316323 
L 96.448327 -44.192746 
L 95.682371 -44.073519 
L 94.916416 -43.958517 
L 94.150461 -43.847618 
L 93.384506 -43.740701 
L 92.618551 -43.637649 
L 91.852595 -43.538346 
L 91.08664 -43.442678 
L 90.320685 -43.350535 
L 89.55473 -43.261809 
L 88.788775 -43.176393 
L 88.022819 -43.094184 
L 87.256864 -43.015081 
L 86.490909 -42.938985 
L 85.724954 -42.865798 
L 84.958999 -42.795427 
L 84.193043 -42.72778 
L 83.427088 -42.662767 
L 82.661133 -42.6003 
L 81.895178 -42.540294 
L 81.129223 -42.482666 
L 80.363267 -42.427334 
L 79.597312 -42.374221 
L 78.831357 -42.323249 
L 78.065402 -42.274343 
L 77.299447 -42.227432 
L 76.533491 -42.182444 
L 75.767536 -42.139311 
L 75.001581 -42.097966 
L 74.235626 -42.058345 
L 73.469671 -42.020384 
L 72.703715 -41.984023 
L 71.93776 -41.949203 
L 71.171805 -41.915866 
L 70.40585 -41.883956 
L 69.639894 -41.85342 
L 68.873939 -41.824206 
L 68.107984 -41.796262 
L 67.342029 -41.76954 
L 66.576074 -41.743993 
L 65.810118 -41.719575 
L 65.044163 -41.69624 
L 64.278208 -41.673947 
L 63.512253 -41.652654 
L 62.746298 -41.632321 
L 61.980342 -41.612909 
L 61.214387 -41.59438 
L 60.448432 -41.5767 
L 59.682477 -41.559832 
L 58.916522 -41.543743 
L 58.150566 -41.528401 
L 57.384611 -41.513775 
L 56.618656 -41.499834 
L 55.852701 -41.48655 
L 55.086746 -41.473894 
L 54.32079 -41.46184 
L 53.554835 -41.450362 
L 52.78888 -41.439434 
L 52.022925 -41.429033 
L 51.25697 -41.419135 
L 50.491014 -41.409719 
L 49.725059 -41.400764 
L 48.959104 -41.392247 
L 48.193149 -41.384151 
L 47.427194 -41.376456 
L 46.661238 -41.369143 
L 45.895283 -41.362196 
L 45.129328 -41.355598 
L 44.363373 -41.349332 
L 43.597418 -41.343383 
L 42.831462 -41.337737 
L 42.065507 -41.332379 
L 41.299552 -41.327296 
L 40.533597 -41.322475 
L 39.767642 -41.317903 
L 39.001686 -41.313569 
L 38.235731 -41.309461 
L 37.469776 -41.305568 
L 36.703821 -41.30188 
L 35.937866 -41.298386 
L 35.17191 -41.295078 
L 34.405955 -41.291946 
L 33.64 -41.288982 
L 33.64 -41.24 
L 33.64 -41.24 
L 34.405955 -41.24 
L 35.17191 -41.24 
L 35.937866 -41.24 
L 36.703821 -41.24 
L 37.469776 -41.24 
L 38.235731 -41.24 
L 39.001686 -41.24 
L 39.767642 -41.24 
L 40.533597 -41.24 
L 41.299552 -41.24 
L 42.065507 -41.24 
L 42.831462 -41.24 
L 43.597418 -41.24 
L 44.363373 -41.24 
L 45.129328 -41.24 
L 45.895283 -41.24 
L 46.661238 -41.24 
L 47.427194 -41.24 
L 48.193149 -41.24 
L 48.959104 -41.24 
L 49.725059 -41.24 
L 50.491014 -41.24 
L 51.25697 -41.24 
L 52.022925 -41.24 
L 52.78888 -41.24 
L 53.554835 -41.24 
L 54.32079 -41.24 
L 55.086746 -41.24 
L 55.852701 -41.24 
L 56.618656 -41.24 
L 57.384611 -41.24 
L 58.150566 -41.24 
L 58.916522 -41.24 
L 59.682477 -41.24 
L 60.448432 -41.24 
L 61.214387 -41.24 
L 61.980342 -41.24 
L 62.746298 -41.24 
L 63.512253 -41.24 
L 64.278208 -41.24 
L 65.044163 -41.24 
L 65.810118 -41.24 
L 66.576074 -41.24 
L 67.342029 -41.24 
L 68.107984 -41.24 
L 68.873939 -41.24 
L 69.639894 -41.24 
L 70.40585 -41.24 
L 71.171805 -41.24 
L 71.93776 -41.24 
L 72.703715 -41.24 
L 73.469671 -41.24 
L 74.235626 -41.24 
L 75.001581 -41.24 
L 75.767536 -41.24 
L 76.533491 -41.24 
L 77.299447 -41.24 
L 78.065402 -41.24 
L 78.831357 -41.24 
L 79.597312 -41.24 
L 80.363267 -41.24 
L 81.129223 -41.24 
L 81.895178 -41.24 
L 82.661133 -41.24 
L 83.427088 -41.24 
L 84.193043 -41.24 
L 84.958999 -41.24 
L 85.724954 -41.24 
L 86.490909 -41.24 
L 87.256864 -41.24 
L 88.022819 -41.24 
L 88.788775 -41.24 
L 89.55473 -41.24 
L 90.320685 -41.24 
L 91.08664 -41.24 
L 91.852595 -41.24 
L 92.618551 -41.24 
L 93.384506 -41.24 
L 94.150461 -41.24 
L 94.916416 -41.24 
L 95.682371 -41.24 
L 96.448327 -41.24 
L 97.214282 -41.24 
L 97.980237 -41.24 
L 98.746192 -41.24 
L 99.512147 -41.24 
L 100.278103 -41.24 
L 101.044058 -41.24 
L 101.810013 -41.24 
L 102.575968 -41.24 
L 103.341923 -41.24 
L 104.107879 -41.24 
L 104.873834 -41.24 
L 105.639789 -41.24 
L 106.405744 -41.24 
L 107.171699 -41.24 
L 107.937655 -41.24 
L 108.70361 -41.24 
L 109.469565 -41.24 
z
" id="mc9630334b3" style="stroke:#1f77b4;stroke-opacity:0.7;"/>
    </defs>
    <g clip-path="url(#pe76263d7f4)">
     <use style="fill:#1f77b4;fill-opacity:0.7;stroke:#1f77b4;stroke-opacity:0.7;" x="0" xlink:href="#mc9630334b3" y="446.4"/>
    </g>
   </g>
   <g id="PolyCollection_3">
    <defs>
     <path d="M 120.745225 -41.24 
L 120.745225 -50.994697 
L 120.631329 -50.945139 
L 120.517434 -50.895786 
L 120.403538 -50.846638 
L 120.289643 -50.797695 
L 120.175747 -50.748956 
L 120.061852 -50.70042 
L 119.947956 -50.652086 
L 119.83406 -50.603955 
L 119.720165 -50.556025 
L 119.606269 -50.508296 
L 119.492374 -50.460767 
L 119.378478 -50.413438 
L 119.264583 -50.366309 
L 119.150687 -50.319378 
L 119.036792 -50.272645 
L 118.922896 -50.22611 
L 118.809 -50.179771 
L 118.695105 -50.133629 
L 118.581209 -50.087683 
L 118.467314 -50.041932 
L 118.353418 -49.996375 
L 118.239523 -49.951013 
L 118.125627 -49.905844 
L 118.011732 -49.860868 
L 117.897836 -49.816085 
L 117.78394 -49.771493 
L 117.670045 -49.727092 
L 117.556149 -49.682883 
L 117.442254 -49.638863 
L 117.328358 -49.595032 
L 117.214463 -49.551391 
L 117.100567 -49.507938 
L 116.986672 -49.464673 
L 116.872776 -49.421594 
L 116.75888 -49.378703 
L 116.644985 -49.335998 
L 116.531089 -49.293478 
L 116.417194 -49.251143 
L 116.303298 -49.208993 
L 116.189403 -49.167026 
L 116.075507 -49.125242 
L 115.961612 -49.083642 
L 115.847716 -49.042223 
L 115.73382 -49.000986 
L 115.619925 -48.95993 
L 115.506029 -48.919054 
L 115.392134 -48.878358 
L 115.278238 -48.837842 
L 115.164343 -48.797504 
L 115.050447 -48.757344 
L 114.936552 -48.717362 
L 114.822656 -48.677557 
L 114.708761 -48.637928 
L 114.594865 -48.598476 
L 114.480969 -48.559198 
L 114.367074 -48.520096 
L 114.253178 -48.481167 
L 114.139283 -48.442413 
L 114.025387 -48.403831 
L 113.911492 -48.365422 
L 113.797596 -48.327185 
L 113.683701 -48.289119 
L 113.569805 -48.251225 
L 113.455909 -48.2135 
L 113.342014 -48.175946 
L 113.228118 -48.13856 
L 113.114223 -48.101343 
L 113.000327 -48.064295 
L 112.886432 -48.027414 
L 112.772536 -47.990699 
L 112.658641 -47.954152 
L 112.544745 -47.91777 
L 112.430849 -47.881553 
L 112.316954 -47.845502 
L 112.203058 -47.809614 
L 112.089163 -47.77389 
L 111.975267 -47.73833 
L 111.861372 -47.702932 
L 111.747476 -47.667696 
L 111.633581 -47.632621 
L 111.519685 -47.597707 
L 111.405789 -47.562954 
L 111.291894 -47.528361 
L 111.177998 -47.493927 
L 111.064103 -47.459652 
L 110.950207 -47.425534 
L 110.836312 -47.391575 
L 110.722416 -47.357773 
L 110.608521 -47.324127 
L 110.494625 -47.290638 
L 110.380729 -47.257304 
L 110.266834 -47.224125 
L 110.152938 -47.1911 
L 110.039043 -47.158229 
L 109.925147 -47.125512 
L 109.811252 -47.092948 
L 109.697356 -47.060535 
L 109.583461 -47.028275 
L 109.469565 -46.996166 
L 109.469565 -41.24 
L 109.469565 -41.24 
L 109.583461 -41.24 
L 109.697356 -41.24 
L 109.811252 -41.24 
L 109.925147 -41.24 
L 110.039043 -41.24 
L 110.152938 -41.24 
L 110.266834 -41.24 
L 110.380729 -41.24 
L 110.494625 -41.24 
L 110.608521 -41.24 
L 110.722416 -41.24 
L 110.836312 -41.24 
L 110.950207 -41.24 
L 111.064103 -41.24 
L 111.177998 -41.24 
L 111.291894 -41.24 
L 111.405789 -41.24 
L 111.519685 -41.24 
L 111.633581 -41.24 
L 111.747476 -41.24 
L 111.861372 -41.24 
L 111.975267 -41.24 
L 112.089163 -41.24 
L 112.203058 -41.24 
L 112.316954 -41.24 
L 112.430849 -41.24 
L 112.544745 -41.24 
L 112.658641 -41.24 
L 112.772536 -41.24 
L 112.886432 -41.24 
L 113.000327 -41.24 
L 113.114223 -41.24 
L 113.228118 -41.24 
L 113.342014 -41.24 
L 113.455909 -41.24 
L 113.569805 -41.24 
L 113.683701 -41.24 
L 113.797596 -41.24 
L 113.911492 -41.24 
L 114.025387 -41.24 
L 114.139283 -41.24 
L 114.253178 -41.24 
L 114.367074 -41.24 
L 114.480969 -41.24 
L 114.594865 -41.24 
L 114.708761 -41.24 
L 114.822656 -41.24 
L 114.936552 -41.24 
L 115.050447 -41.24 
L 115.164343 -41.24 
L 115.278238 -41.24 
L 115.392134 -41.24 
L 115.506029 -41.24 
L 115.619925 -41.24 
L 115.73382 -41.24 
L 115.847716 -41.24 
L 115.961612 -41.24 
L 116.075507 -41.24 
L 116.189403 -41.24 
L 116.303298 -41.24 
L 116.417194 -41.24 
L 116.531089 -41.24 
L 116.644985 -41.24 
L 116.75888 -41.24 
L 116.872776 -41.24 
L 116.986672 -41.24 
L 117.100567 -41.24 
L 117.214463 -41.24 
L 117.328358 -41.24 
L 117.442254 -41.24 
L 117.556149 -41.24 
L 117.670045 -41.24 
L 117.78394 -41.24 
L 117.897836 -41.24 
L 118.011732 -41.24 
L 118.125627 -41.24 
L 118.239523 -41.24 
L 118.353418 -41.24 
L 118.467314 -41.24 
L 118.581209 -41.24 
L 118.695105 -41.24 
L 118.809 -41.24 
L 118.922896 -41.24 
L 119.036792 -41.24 
L 119.150687 -41.24 
L 119.264583 -41.24 
L 119.378478 -41.24 
L 119.492374 -41.24 
L 119.606269 -41.24 
L 119.720165 -41.24 
L 119.83406 -41.24 
L 119.947956 -41.24 
L 120.061852 -41.24 
L 120.175747 -41.24 
L 120.289643 -41.24 
L 120.403538 -41.24 
L 120.517434 -41.24 
L 120.631329 -41.24 
L 120.745225 -41.24 
z
" id="macc232cf8d" style="stroke:#d62728;stroke-opacity:0.2;"/>
    </defs>
    <g clip-path="url(#pe76263d7f4)">
     <use style="fill:#d62728;fill-opacity:0.2;stroke:#d62728;stroke-opacity:0.2;" x="0" xlink:href="#macc232cf8d" y="446.4"/>
    </g>
   </g>
   <g id="matplotlib.axis_3">
    <g id="xtick_3">
     <g id="line2d_9">
      <g>
       <use style="stroke:#000000;stroke-width:0.8;" x="109.469565" xlink:href="#m958b570fc3" y="405.16"/>
      </g>
     </g>
     <g id="text_11">
      <!-- -2.543 -->
      <g transform="translate(93.351596 419.758438)scale(0.1 -0.1)">
       <defs>
        <path d="M 313 2009 
L 1997 2009 
L 1997 1497 
L 313 1497 
L 313 2009 
z
" id="DejaVuSans-2d" transform="scale(0.015625)"/>
        <path d="M 691 4666 
L 3169 4666 
L 3169 4134 
L 1269 4134 
L 1269 2991 
Q 1406 3038 1543 3061 
Q 1681 3084 1819 3084 
Q 2600 3084 3056 2656 
Q 3513 2228 3513 1497 
Q 3513 744 3044 326 
Q 2575 -91 1722 -91 
Q 1428 -91 1123 -41 
Q 819 9 494 109 
L 494 744 
Q 775 591 1075 516 
Q 1375 441 1709 441 
Q 2250 441 2565 725 
Q 2881 1009 2881 1497 
Q 2881 1984 2565 2268 
Q 2250 2553 1709 2553 
Q 1456 2553 1204 2497 
Q 953 2441 691 2322 
L 691 4666 
z
" id="DejaVuSans-35" transform="scale(0.015625)"/>
       </defs>
       <use xlink:href="#DejaVuSans-2d"/>
       <use x="36.083984" xlink:href="#DejaVuSans-32"/>
       <use x="99.707031" xlink:href="#DejaVuSans-2e"/>
       <use x="131.494141" xlink:href="#DejaVuSans-35"/>
       <use x="195.117188" xlink:href="#DejaVuSans-34"/>
       <use x="258.740234" xlink:href="#DejaVuSans-33"/>
      </g>
     </g>
    </g>
    <g id="xtick_4">
     <g id="line2d_10">
      <g>
       <use style="stroke:#000000;stroke-width:0.8;" x="241.82" xlink:href="#m958b570fc3" y="405.16"/>
      </g>
     </g>
     <g id="text_12">
      <!-- 0 -->
      <g transform="translate(238.63875 419.758438)scale(0.1 -0.1)">
       <use xlink:href="#DejaVuSans-30"/>
      </g>
     </g>
    </g>
    <g id="text_13">
     <!-- z-value -->
     <g transform="translate(225.660781 432.676719)scale(0.09 -0.09)">
      <defs>
       <path d="M 353 3500 
L 3084 3500 
L 3084 2975 
L 922 459 
L 3084 459 
L 3084 0 
L 275 0 
L 275 525 
L 2438 3041 
L 353 3041 
L 353 3500 
z
" id="DejaVuSans-7a" transform="scale(0.015625)"/>
      </defs>
      <use xlink:href="#DejaVuSans-7a"/>
      <use x="52.490234" xlink:href="#DejaVuSans-2d"/>
      <use x="85.949219" xlink:href="#DejaVuSans-76"/>
      <use x="145.128906" xlink:href="#DejaVuSans-61"/>
      <use x="206.408203" xlink:href="#DejaVuSans-6c"/>
      <use x="234.191406" xlink:href="#DejaVuSans-75"/>
      <use x="297.570312" xlink:href="#DejaVuSans-65"/>
     </g>
    </g>
   </g>
   <g id="matplotlib.axis_4">
    <g id="ytick_6">
     <g id="line2d_11">
      <g>
       <use style="stroke:#000000;stroke-width:0.8;" x="33.64" xlink:href="#m1b3c8c8851" y="405.16"/>
      </g>
     </g>
     <g id="text_14">
      <!-- 0.0 -->
      <g transform="translate(10.736875 408.959219)scale(0.1 -0.1)">
       <use xlink:href="#DejaVuSans-30"/>
       <use x="63.623047" xlink:href="#DejaVuSans-2e"/>
       <use x="95.410156" xlink:href="#DejaVuSans-30"/>
      </g>
     </g>
    </g>
    <g id="ytick_7">
     <g id="line2d_12">
      <g>
       <use style="stroke:#000000;stroke-width:0.8;" x="33.64" xlink:href="#m1b3c8c8851" y="368.559952"/>
      </g>
     </g>
     <g id="text_15">
      <!-- 0.1 -->
      <g transform="translate(10.736875 372.359171)scale(0.1 -0.1)">
       <use xlink:href="#DejaVuSans-30"/>
       <use x="63.623047" xlink:href="#DejaVuSans-2e"/>
       <use x="95.410156" xlink:href="#DejaVuSans-31"/>
      </g>
     </g>
    </g>
    <g id="ytick_8">
     <g id="line2d_13">
      <g>
       <use style="stroke:#000000;stroke-width:0.8;" x="33.64" xlink:href="#m1b3c8c8851" y="331.959904"/>
      </g>
     </g>
     <g id="text_16">
      <!-- 0.2 -->
      <g transform="translate(10.736875 335.759123)scale(0.1 -0.1)">
       <use xlink:href="#DejaVuSans-30"/>
       <use x="63.623047" xlink:href="#DejaVuSans-2e"/>
       <use x="95.410156" xlink:href="#DejaVuSans-32"/>
      </g>
     </g>
    </g>
    <g id="ytick_9">
     <g id="line2d_14">
      <g>
       <use style="stroke:#000000;stroke-width:0.8;" x="33.64" xlink:href="#m1b3c8c8851" y="295.359857"/>
      </g>
     </g>
     <g id="text_17">
      <!-- 0.3 -->
      <g transform="translate(10.736875 299.159075)scale(0.1 -0.1)">
       <use xlink:href="#DejaVuSans-30"/>
       <use x="63.623047" xlink:href="#DejaVuSans-2e"/>
       <use x="95.410156" xlink:href="#DejaVuSans-33"/>
      </g>
     </g>
    </g>
    <g id="ytick_10">
     <g id="line2d_15">
      <g>
       <use style="stroke:#000000;stroke-width:0.8;" x="33.64" xlink:href="#m1b3c8c8851" y="258.759809"/>
      </g>
     </g>
     <g id="text_18">
      <!-- 0.4 -->
      <g transform="translate(10.736875 262.559028)scale(0.1 -0.1)">
       <use xlink:href="#DejaVuSans-30"/>
       <use x="63.623047" xlink:href="#DejaVuSans-2e"/>
       <use x="95.410156" xlink:href="#DejaVuSans-34"/>
      </g>
     </g>
    </g>
   </g>
   <g id="LineCollection_2">
    <path clip-path="url(#pe76263d7f4)" d="M 120.745225 405.16 
L 120.745225 395.405303 
" style="fill:none;stroke:#000000;stroke-dasharray:1,1.65;stroke-dashoffset:0;"/>
   </g>
   <g id="LineCollection_3">
    <path clip-path="url(#pe76263d7f4)" d="M 109.469565 405.16 
L 109.469565 399.403834 
" style="fill:none;stroke:#000000;"/>
   </g>
   <g id="line2d_16">
    <path clip-path="url(#pe76263d7f4)" d="M 33.64 405.111018 
L 55.920134 404.912306 
L 68.452709 404.591316 
L 78.200268 404.117192 
L 85.162809 403.586118 
L 92.125351 402.826715 
L 97.695385 402.003775 
L 103.265418 400.939211 
L 107.442943 399.950471 
L 111.620468 398.771407 
L 115.797993 397.375802 
L 119.975518 395.736236 
L 124.153043 393.824601 
L 128.330569 391.61275 
L 132.508094 389.073286 
L 136.685619 386.180471 
L 140.863144 382.91126 
L 145.040669 379.246427 
L 149.218194 375.171753 
L 153.395719 370.679247 
L 157.573244 365.768338 
L 161.750769 360.447006 
L 165.928294 354.732772 
L 170.105819 348.65351 
L 175.675853 340.04865 
L 181.245886 330.987887 
L 189.600936 316.89479 
L 199.348495 300.499222 
L 204.918528 291.599667 
L 209.096054 285.335887 
L 213.273579 279.538586 
L 216.058595 275.981924 
L 218.843612 272.704395 
L 221.628629 269.732062 
L 224.413645 267.088962 
L 227.198662 264.796784 
L 229.983679 262.874572 
L 232.768696 261.338459 
L 235.553712 260.201446 
L 238.338729 259.473217 
L 241.123746 259.16 
L 243.908763 259.26448 
L 246.693779 259.785762 
L 249.478796 260.71938 
L 252.263813 262.057365 
L 255.048829 263.788353 
L 257.833846 265.897753 
L 260.618863 268.367944 
L 263.40388 271.178525 
L 266.188896 274.306596 
L 268.973913 277.727062 
L 271.75893 281.412977 
L 275.936455 287.377003 
L 280.11398 293.773557 
L 285.684013 302.796286 
L 294.039064 316.89479 
L 303.786622 333.287787 
L 309.356656 342.248005 
L 314.926689 350.718324 
L 319.104214 356.679672 
L 323.281739 362.265511 
L 327.459264 367.451492 
L 331.636789 372.223375 
L 335.814314 376.57615 
L 339.991839 380.51299 
L 344.169365 384.044097 
L 348.34689 387.185494 
L 352.524415 389.957809 
L 356.70194 392.385107 
L 360.879465 394.493787 
L 365.05699 396.311592 
L 369.234515 397.866737 
L 373.41204 399.187164 
L 377.589565 400.299946 
L 383.159599 401.504872 
L 388.729632 402.442374 
L 394.299666 403.162429 
L 401.262207 403.82218 
L 409.617258 404.35237 
L 419.364816 404.726139 
L 431.897391 404.974647 
L 450 405.111018 
L 450 405.111018 
" style="fill:none;stroke:#000000;stroke-linecap:square;"/>
   </g>
   <g id="patch_9">
    <path d="M 33.64 405.16 
L 33.64 229.96 
" style="fill:none;stroke:#000000;stroke-linecap:square;stroke-linejoin:miter;stroke-width:0.8;"/>
   </g>
   <g id="patch_10">
    <path d="M 450 405.16 
L 450 229.96 
" style="fill:none;stroke:#000000;stroke-linecap:square;stroke-linejoin:miter;stroke-width:0.8;"/>
   </g>
   <g id="patch_11">
    <path d="M 33.64 405.16 
L 450 405.16 
" style="fill:none;stroke:#000000;stroke-linecap:square;stroke-linejoin:miter;stroke-width:0.8;"/>
   </g>
   <g id="patch_12">
    <path d="M 33.64 229.96 
L 450 229.96 
" style="fill:none;stroke:#000000;stroke-linecap:square;stroke-linejoin:miter;stroke-width:0.8;"/>
   </g>
   <g id="patch_13">
    <path d="M 68.276635 391.451621 
Q 75.440185 396.951785 81.982978 401.975335 
" style="fill:none;stroke:#000000;stroke-linecap:round;stroke-width:0.7;"/>
    <path d="M 80.028282 397.953002 
L 81.982978 401.975335 
L 77.592294 401.125692 
" style="fill:none;stroke:#000000;stroke-linecap:round;stroke-width:0.7;"/>
   </g>
   <g id="text_19">
    <!-- 0.0055 -->
    <g style="fill:#1f77b4;" transform="translate(40.285375 386.15222)scale(0.1 -0.1)">
     <use xlink:href="#DejaVuSans-30"/>
     <use x="63.623047" xlink:href="#DejaVuSans-2e"/>
     <use x="95.410156" xlink:href="#DejaVuSans-30"/>
     <use x="159.033203" xlink:href="#DejaVuSans-30"/>
     <use x="222.65625" xlink:href="#DejaVuSans-35"/>
     <use x="286.279297" xlink:href="#DejaVuSans-35"/>
    </g>
   </g>
   <g id="text_20">
    <!-- P-Value = 0.0055 -->
    <g style="fill:#1f77b4;" transform="translate(39.8854 242.224)scale(0.09 -0.09)">
     <defs>
      <path d="M 1259 4147 
L 1259 2394 
L 2053 2394 
Q 2494 2394 2734 2622 
Q 2975 2850 2975 3272 
Q 2975 3691 2734 3919 
Q 2494 4147 2053 4147 
L 1259 4147 
z
M 628 4666 
L 2053 4666 
Q 2838 4666 3239 4311 
Q 3641 3956 3641 3272 
Q 3641 2581 3239 2228 
Q 2838 1875 2053 1875 
L 1259 1875 
L 1259 0 
L 628 0 
L 628 4666 
z
" id="DejaVuSans-50" transform="scale(0.015625)"/>
     </defs>
     <use xlink:href="#DejaVuSans-50"/>
     <use x="58.052734" xlink:href="#DejaVuSans-2d"/>
     <use x="88.261719" xlink:href="#DejaVuSans-56"/>
     <use x="148.919922" xlink:href="#DejaVuSans-61"/>
     <use x="210.199219" xlink:href="#DejaVuSans-6c"/>
     <use x="237.982422" xlink:href="#DejaVuSans-75"/>
     <use x="301.361328" xlink:href="#DejaVuSans-65"/>
     <use x="362.884766" xlink:href="#DejaVuSans-20"/>
     <use x="394.671875" xlink:href="#DejaVuSans-3d"/>
     <use x="478.460938" xlink:href="#DejaVuSans-20"/>
     <use x="510.248047" xlink:href="#DejaVuSans-30"/>
     <use x="573.871094" xlink:href="#DejaVuSans-2e"/>
     <use x="605.658203" xlink:href="#DejaVuSans-30"/>
     <use x="669.28125" xlink:href="#DejaVuSans-30"/>
     <use x="732.904297" xlink:href="#DejaVuSans-35"/>
     <use x="796.527344" xlink:href="#DejaVuSans-35"/>
    </g>
   </g>
   <g id="text_21">
    <!-- Test Statistic (TS) = -2.543 -->
    <g transform="translate(39.8854 254.488)scale(0.09 -0.09)">
     <defs>
      <path d="M -19 4666 
L 3928 4666 
L 3928 4134 
L 2272 4134 
L 2272 0 
L 1638 0 
L 1638 4134 
L -19 4134 
L -19 4666 
z
" id="DejaVuSans-54" transform="scale(0.015625)"/>
     </defs>
     <use xlink:href="#DejaVuSans-54"/>
     <use x="44.083984" xlink:href="#DejaVuSans-65"/>
     <use x="105.607422" xlink:href="#DejaVuSans-73"/>
     <use x="157.707031" xlink:href="#DejaVuSans-74"/>
     <use x="196.916016" xlink:href="#DejaVuSans-20"/>
     <use x="228.703125" xlink:href="#DejaVuSans-53"/>
     <use x="292.179688" xlink:href="#DejaVuSans-74"/>
     <use x="331.388672" xlink:href="#DejaVuSans-61"/>
     <use x="392.667969" xlink:href="#DejaVuSans-74"/>
     <use x="431.876953" xlink:href="#DejaVuSans-69"/>
     <use x="459.660156" xlink:href="#DejaVuSans-73"/>
     <use x="511.759766" xlink:href="#DejaVuSans-74"/>
     <use x="550.96875" xlink:href="#DejaVuSans-69"/>
     <use x="578.751953" xlink:href="#DejaVuSans-63"/>
     <use x="633.732422" xlink:href="#DejaVuSans-20"/>
     <use x="665.519531" xlink:href="#DejaVuSans-28"/>
     <use x="704.533203" xlink:href="#DejaVuSans-54"/>
     <use x="765.617188" xlink:href="#DejaVuSans-53"/>
     <use x="829.09375" xlink:href="#DejaVuSans-29"/>
     <use x="868.107422" xlink:href="#DejaVuSans-20"/>
     <use x="899.894531" xlink:href="#DejaVuSans-3d"/>
     <use x="983.683594" xlink:href="#DejaVuSans-20"/>
     <use x="1015.470703" xlink:href="#DejaVuSans-2d"/>
     <use x="1051.554688" xlink:href="#DejaVuSans-32"/>
     <use x="1115.177734" xlink:href="#DejaVuSans-2e"/>
     <use x="1146.964844" xlink:href="#DejaVuSans-35"/>
     <use x="1210.587891" xlink:href="#DejaVuSans-34"/>
     <use x="1274.210938" xlink:href="#DejaVuSans-33"/>
    </g>
   </g>
  </g>
 </g>
 <defs>
  <clipPath id="pc0a647d3e4">
   <rect height="175.2" width="416.36" x="33.64" y="26.88"/>
  </clipPath>
  <clipPath id="pe76263d7f4">
   <rect height="175.2" width="416.36" x="33.64" y="229.96"/>
  </clipPath>
 </defs>
</svg>
