<?xml version="1.0" encoding="utf-8" standalone="no"?>
<!DOCTYPE svg PUBLIC "-//W3C//DTD SVG 1.1//EN"
  "http://www.w3.org/Graphics/SVG/1.1/DTD/svg11.dtd">
<svg height="345.6pt" version="1.1" viewBox="0 0 691.2 345.6" width="691.2pt" xmlns="http://www.w3.org/2000/svg" xmlns:xlink="http://www.w3.org/1999/xlink">
 <metadata>
  <rdf:RDF xmlns:cc="http://creativecommons.org/ns#" xmlns:dc="http://purl.org/dc/elements/1.1/" xmlns:rdf="http://www.w3.org/1999/02/22-rdf-syntax-ns#">
   <cc:Work>
    <dc:type rdf:resource="http://purl.org/dc/dcmitype/StillImage"/>
    <dc:date>2021-06-22T16:02:15.802183</dc:date>
    <dc:format>image/svg+xml</dc:format>
    <dc:creator>
     <cc:Agent>
      <dc:title>Matplotlib v3.4.2, https://matplotlib.org/</dc:title>
     </cc:Agent>
    </dc:creator>
   </cc:Work>
  </rdf:RDF>
 </metadata>
 <defs>
  <style type="text/css">*{stroke-linecap:butt;stroke-linejoin:round;}</style>
 </defs>
 <g id="figure_1">
  <g id="patch_1">
   <path d="M 0 345.6 
L 691.2 345.6 
L 691.2 0 
L 0 0 
z
" style="fill:#ffffff;"/>
  </g>
  <g id="axes_1">
   <g id="patch_2">
    <path d="M 86.4 307.584 
L 622.08 307.584 
L 622.08 41.472 
L 86.4 41.472 
z
" style="fill:#ffffff;"/>
   </g>
   <g id="PolyCollection_1">
    <defs>
     <path d="M 86.4 -38.016 
L 86.4 -38.090396 
L 87.854182 -38.097129 
L 89.308364 -38.104429 
L 90.762545 -38.11234 
L 92.216727 -38.12091 
L 93.670909 -38.130188 
L 95.125091 -38.140229 
L 96.579273 -38.151088 
L 98.033455 -38.162828 
L 99.487636 -38.175512 
L 100.941818 -38.18921 
L 102.396 -38.203997 
L 103.850182 -38.219949 
L 105.304364 -38.23715 
L 106.758545 -38.255689 
L 108.212727 -38.27566 
L 109.666909 -38.297162 
L 111.121091 -38.320301 
L 112.575273 -38.345189 
L 114.029455 -38.371945 
L 115.483636 -38.400694 
L 116.937818 -38.431569 
L 118.392 -38.46471 
L 119.846182 -38.500266 
L 121.300364 -38.538393 
L 122.754545 -38.579255 
L 124.208727 -38.623028 
L 125.662909 -38.669894 
L 127.117091 -38.720046 
L 128.571273 -38.773688 
L 130.025455 -38.831031 
L 131.479636 -38.892302 
L 132.933818 -38.957734 
L 134.388 -39.027574 
L 135.842182 -39.102082 
L 137.296364 -39.181528 
L 138.750545 -39.266195 
L 140.204727 -39.356381 
L 141.658909 -39.452394 
L 143.113091 -39.55456 
L 144.567273 -39.663215 
L 146.021455 -39.778711 
L 147.475636 -39.901417 
L 148.929818 -40.031713 
L 150.384 -40.169998 
L 151.838182 -40.316684 
L 153.292364 -40.472201 
L 154.746545 -40.636994 
L 156.200727 -40.811524 
L 157.654909 -40.99627 
L 159.109091 -41.191727 
L 160.563273 -41.398407 
L 162.017455 -41.61684 
L 163.471636 -41.847571 
L 164.925818 -42.091165 
L 166.38 -42.348201 
L 167.834182 -42.619278 
L 169.288364 -42.905011 
L 170.742545 -43.206031 
L 172.196727 -43.522987 
L 173.650909 -43.856544 
L 175.105091 -44.207384 
L 176.559273 -44.576205 
L 178.013455 -44.963718 
L 179.467636 -45.370652 
L 180.921818 -45.79775 
L 182.376 -46.245768 
L 183.830182 -46.715476 
L 185.284364 -47.207655 
L 186.738545 -47.723101 
L 188.192727 -48.262618 
L 189.646909 -48.827021 
L 191.101091 -49.417134 
L 192.555273 -50.033789 
L 194.009455 -50.677823 
L 195.463636 -51.350081 
L 196.917818 -52.051411 
L 198.372 -52.782662 
L 199.826182 -53.544685 
L 201.280364 -54.338333 
L 202.734545 -55.164452 
L 204.188727 -56.023889 
L 205.642909 -56.917482 
L 207.097091 -57.846063 
L 208.551273 -58.810452 
L 210.005455 -59.81146 
L 211.459636 -60.849883 
L 212.913818 -61.926502 
L 214.368 -63.042076 
L 215.822182 -64.197349 
L 217.276364 -65.393037 
L 218.730545 -66.629832 
L 220.184727 -67.908401 
L 221.638909 -69.229375 
L 223.093091 -70.593356 
L 224.547273 -72.000909 
L 226.001455 -73.45256 
L 227.455636 -74.948796 
L 228.909818 -76.490056 
L 230.364 -78.076737 
L 230.364 -38.016 
L 230.364 -38.016 
L 228.909818 -38.016 
L 227.455636 -38.016 
L 226.001455 -38.016 
L 224.547273 -38.016 
L 223.093091 -38.016 
L 221.638909 -38.016 
L 220.184727 -38.016 
L 218.730545 -38.016 
L 217.276364 -38.016 
L 215.822182 -38.016 
L 214.368 -38.016 
L 212.913818 -38.016 
L 211.459636 -38.016 
L 210.005455 -38.016 
L 208.551273 -38.016 
L 207.097091 -38.016 
L 205.642909 -38.016 
L 204.188727 -38.016 
L 202.734545 -38.016 
L 201.280364 -38.016 
L 199.826182 -38.016 
L 198.372 -38.016 
L 196.917818 -38.016 
L 195.463636 -38.016 
L 194.009455 -38.016 
L 192.555273 -38.016 
L 191.101091 -38.016 
L 189.646909 -38.016 
L 188.192727 -38.016 
L 186.738545 -38.016 
L 185.284364 -38.016 
L 183.830182 -38.016 
L 182.376 -38.016 
L 180.921818 -38.016 
L 179.467636 -38.016 
L 178.013455 -38.016 
L 176.559273 -38.016 
L 175.105091 -38.016 
L 173.650909 -38.016 
L 172.196727 -38.016 
L 170.742545 -38.016 
L 169.288364 -38.016 
L 167.834182 -38.016 
L 166.38 -38.016 
L 164.925818 -38.016 
L 163.471636 -38.016 
L 162.017455 -38.016 
L 160.563273 -38.016 
L 159.109091 -38.016 
L 157.654909 -38.016 
L 156.200727 -38.016 
L 154.746545 -38.016 
L 153.292364 -38.016 
L 151.838182 -38.016 
L 150.384 -38.016 
L 148.929818 -38.016 
L 147.475636 -38.016 
L 146.021455 -38.016 
L 144.567273 -38.016 
L 143.113091 -38.016 
L 141.658909 -38.016 
L 140.204727 -38.016 
L 138.750545 -38.016 
L 137.296364 -38.016 
L 135.842182 -38.016 
L 134.388 -38.016 
L 132.933818 -38.016 
L 131.479636 -38.016 
L 130.025455 -38.016 
L 128.571273 -38.016 
L 127.117091 -38.016 
L 125.662909 -38.016 
L 124.208727 -38.016 
L 122.754545 -38.016 
L 121.300364 -38.016 
L 119.846182 -38.016 
L 118.392 -38.016 
L 116.937818 -38.016 
L 115.483636 -38.016 
L 114.029455 -38.016 
L 112.575273 -38.016 
L 111.121091 -38.016 
L 109.666909 -38.016 
L 108.212727 -38.016 
L 106.758545 -38.016 
L 105.304364 -38.016 
L 103.850182 -38.016 
L 102.396 -38.016 
L 100.941818 -38.016 
L 99.487636 -38.016 
L 98.033455 -38.016 
L 96.579273 -38.016 
L 95.125091 -38.016 
L 93.670909 -38.016 
L 92.216727 -38.016 
L 90.762545 -38.016 
L 89.308364 -38.016 
L 87.854182 -38.016 
L 86.4 -38.016 
z
" id="m7cd2686f2d" style="stroke:#1f77b4;stroke-opacity:0.7;"/>
    </defs>
    <g clip-path="url(#p036ed469f0)">
     <use style="fill:#1f77b4;fill-opacity:0.7;stroke:#1f77b4;stroke-opacity:0.7;" x="0" xlink:href="#m7cd2686f2d" y="345.6"/>
    </g>
   </g>
   <g id="matplotlib.axis_1">
    <g id="xtick_1">
     <g id="line2d_1">
      <defs>
       <path d="M 0 0 
L 0 3.5 
" id="m054e44aa34" style="stroke:#000000;stroke-width:0.8;"/>
      </defs>
      <g>
       <use style="stroke:#000000;stroke-width:0.8;" x="230.364" xlink:href="#m054e44aa34" y="307.584"/>
      </g>
     </g>
     <g id="text_1">
      <!-- z -->
      <g transform="translate(227.739781 322.182437)scale(0.1 -0.1)">
       <defs>
        <path d="M 353 3500 
L 3084 3500 
L 3084 2975 
L 922 459 
L 3084 459 
L 3084 0 
L 275 0 
L 275 525 
L 2438 3041 
L 353 3041 
L 353 3500 
z
" id="DejaVuSans-7a" transform="scale(0.015625)"/>
       </defs>
       <use xlink:href="#DejaVuSans-7a"/>
      </g>
     </g>
    </g>
    <g id="xtick_2">
     <g id="line2d_2">
      <g>
       <use style="stroke:#000000;stroke-width:0.8;" x="354.24" xlink:href="#m054e44aa34" y="307.584"/>
      </g>
     </g>
     <g id="text_2">
      <!-- 0 -->
      <g transform="translate(351.05875 322.182437)scale(0.1 -0.1)">
       <defs>
        <path d="M 2034 4250 
Q 1547 4250 1301 3770 
Q 1056 3291 1056 2328 
Q 1056 1369 1301 889 
Q 1547 409 2034 409 
Q 2525 409 2770 889 
Q 3016 1369 3016 2328 
Q 3016 3291 2770 3770 
Q 2525 4250 2034 4250 
z
M 2034 4750 
Q 2819 4750 3233 4129 
Q 3647 3509 3647 2328 
Q 3647 1150 3233 529 
Q 2819 -91 2034 -91 
Q 1250 -91 836 529 
Q 422 1150 422 2328 
Q 422 3509 836 4129 
Q 1250 4750 2034 4750 
z
" id="DejaVuSans-30" transform="scale(0.015625)"/>
       </defs>
       <use xlink:href="#DejaVuSans-30"/>
      </g>
     </g>
    </g>
    <g id="text_3">
     <!-- z-value -->
     <g transform="translate(334.489844 336.620406)scale(0.11 -0.11)">
      <defs>
       <path d="M 313 2009 
L 1997 2009 
L 1997 1497 
L 313 1497 
L 313 2009 
z
" id="DejaVuSans-2d" transform="scale(0.015625)"/>
       <path d="M 191 3500 
L 800 3500 
L 1894 563 
L 2988 3500 
L 3597 3500 
L 2284 0 
L 1503 0 
L 191 3500 
z
" id="DejaVuSans-76" transform="scale(0.015625)"/>
       <path d="M 2194 1759 
Q 1497 1759 1228 1600 
Q 959 1441 959 1056 
Q 959 750 1161 570 
Q 1363 391 1709 391 
Q 2188 391 2477 730 
Q 2766 1069 2766 1631 
L 2766 1759 
L 2194 1759 
z
M 3341 1997 
L 3341 0 
L 2766 0 
L 2766 531 
Q 2569 213 2275 61 
Q 1981 -91 1556 -91 
Q 1019 -91 701 211 
Q 384 513 384 1019 
Q 384 1609 779 1909 
Q 1175 2209 1959 2209 
L 2766 2209 
L 2766 2266 
Q 2766 2663 2505 2880 
Q 2244 3097 1772 3097 
Q 1472 3097 1187 3025 
Q 903 2953 641 2809 
L 641 3341 
Q 956 3463 1253 3523 
Q 1550 3584 1831 3584 
Q 2591 3584 2966 3190 
Q 3341 2797 3341 1997 
z
" id="DejaVuSans-61" transform="scale(0.015625)"/>
       <path d="M 603 4863 
L 1178 4863 
L 1178 0 
L 603 0 
L 603 4863 
z
" id="DejaVuSans-6c" transform="scale(0.015625)"/>
       <path d="M 544 1381 
L 544 3500 
L 1119 3500 
L 1119 1403 
Q 1119 906 1312 657 
Q 1506 409 1894 409 
Q 2359 409 2629 706 
Q 2900 1003 2900 1516 
L 2900 3500 
L 3475 3500 
L 3475 0 
L 2900 0 
L 2900 538 
Q 2691 219 2414 64 
Q 2138 -91 1772 -91 
Q 1169 -91 856 284 
Q 544 659 544 1381 
z
M 1991 3584 
L 1991 3584 
z
" id="DejaVuSans-75" transform="scale(0.015625)"/>
       <path d="M 3597 1894 
L 3597 1613 
L 953 1613 
Q 991 1019 1311 708 
Q 1631 397 2203 397 
Q 2534 397 2845 478 
Q 3156 559 3463 722 
L 3463 178 
Q 3153 47 2828 -22 
Q 2503 -91 2169 -91 
Q 1331 -91 842 396 
Q 353 884 353 1716 
Q 353 2575 817 3079 
Q 1281 3584 2069 3584 
Q 2775 3584 3186 3129 
Q 3597 2675 3597 1894 
z
M 3022 2063 
Q 3016 2534 2758 2815 
Q 2500 3097 2075 3097 
Q 1594 3097 1305 2825 
Q 1016 2553 972 2059 
L 3022 2063 
z
" id="DejaVuSans-65" transform="scale(0.015625)"/>
      </defs>
      <use xlink:href="#DejaVuSans-7a"/>
      <use x="52.490234" xlink:href="#DejaVuSans-2d"/>
      <use x="85.949219" xlink:href="#DejaVuSans-76"/>
      <use x="145.128906" xlink:href="#DejaVuSans-61"/>
      <use x="206.408203" xlink:href="#DejaVuSans-6c"/>
      <use x="234.191406" xlink:href="#DejaVuSans-75"/>
      <use x="297.570312" xlink:href="#DejaVuSans-65"/>
     </g>
    </g>
   </g>
   <g id="matplotlib.axis_2">
    <g id="ytick_1">
     <g id="line2d_3">
      <defs>
       <path d="M 0 0 
L -3.5 0 
" id="md4ea11716e" style="stroke:#000000;stroke-width:0.8;"/>
      </defs>
      <g>
       <use style="stroke:#000000;stroke-width:0.8;" x="86.4" xlink:href="#md4ea11716e" y="307.584"/>
      </g>
     </g>
     <g id="text_4">
      <!-- 0.0 -->
      <g transform="translate(63.496875 311.383219)scale(0.1 -0.1)">
       <defs>
        <path d="M 684 794 
L 1344 794 
L 1344 0 
L 684 0 
L 684 794 
z
" id="DejaVuSans-2e" transform="scale(0.015625)"/>
       </defs>
       <use xlink:href="#DejaVuSans-30"/>
       <use x="63.623047" xlink:href="#DejaVuSans-2e"/>
       <use x="95.410156" xlink:href="#DejaVuSans-30"/>
      </g>
     </g>
    </g>
    <g id="ytick_2">
     <g id="line2d_4">
      <g>
       <use style="stroke:#000000;stroke-width:0.8;" x="86.4" xlink:href="#md4ea11716e" y="251.994176"/>
      </g>
     </g>
     <g id="text_5">
      <!-- 0.1 -->
      <g transform="translate(63.496875 255.793394)scale(0.1 -0.1)">
       <defs>
        <path d="M 794 531 
L 1825 531 
L 1825 4091 
L 703 3866 
L 703 4441 
L 1819 4666 
L 2450 4666 
L 2450 531 
L 3481 531 
L 3481 0 
L 794 0 
L 794 531 
z
" id="DejaVuSans-31" transform="scale(0.015625)"/>
       </defs>
       <use xlink:href="#DejaVuSans-30"/>
       <use x="63.623047" xlink:href="#DejaVuSans-2e"/>
       <use x="95.410156" xlink:href="#DejaVuSans-31"/>
      </g>
     </g>
    </g>
    <g id="ytick_3">
     <g id="line2d_5">
      <g>
       <use style="stroke:#000000;stroke-width:0.8;" x="86.4" xlink:href="#md4ea11716e" y="196.404351"/>
      </g>
     </g>
     <g id="text_6">
      <!-- 0.2 -->
      <g transform="translate(63.496875 200.20357)scale(0.1 -0.1)">
       <defs>
        <path d="M 1228 531 
L 3431 531 
L 3431 0 
L 469 0 
L 469 531 
Q 828 903 1448 1529 
Q 2069 2156 2228 2338 
Q 2531 2678 2651 2914 
Q 2772 3150 2772 3378 
Q 2772 3750 2511 3984 
Q 2250 4219 1831 4219 
Q 1534 4219 1204 4116 
Q 875 4013 500 3803 
L 500 4441 
Q 881 4594 1212 4672 
Q 1544 4750 1819 4750 
Q 2544 4750 2975 4387 
Q 3406 4025 3406 3419 
Q 3406 3131 3298 2873 
Q 3191 2616 2906 2266 
Q 2828 2175 2409 1742 
Q 1991 1309 1228 531 
z
" id="DejaVuSans-32" transform="scale(0.015625)"/>
       </defs>
       <use xlink:href="#DejaVuSans-30"/>
       <use x="63.623047" xlink:href="#DejaVuSans-2e"/>
       <use x="95.410156" xlink:href="#DejaVuSans-32"/>
      </g>
     </g>
    </g>
    <g id="ytick_4">
     <g id="line2d_6">
      <g>
       <use style="stroke:#000000;stroke-width:0.8;" x="86.4" xlink:href="#md4ea11716e" y="140.814527"/>
      </g>
     </g>
     <g id="text_7">
      <!-- 0.3 -->
      <g transform="translate(63.496875 144.613745)scale(0.1 -0.1)">
       <defs>
        <path d="M 2597 2516 
Q 3050 2419 3304 2112 
Q 3559 1806 3559 1356 
Q 3559 666 3084 287 
Q 2609 -91 1734 -91 
Q 1441 -91 1130 -33 
Q 819 25 488 141 
L 488 750 
Q 750 597 1062 519 
Q 1375 441 1716 441 
Q 2309 441 2620 675 
Q 2931 909 2931 1356 
Q 2931 1769 2642 2001 
Q 2353 2234 1838 2234 
L 1294 2234 
L 1294 2753 
L 1863 2753 
Q 2328 2753 2575 2939 
Q 2822 3125 2822 3475 
Q 2822 3834 2567 4026 
Q 2313 4219 1838 4219 
Q 1578 4219 1281 4162 
Q 984 4106 628 3988 
L 628 4550 
Q 988 4650 1302 4700 
Q 1616 4750 1894 4750 
Q 2613 4750 3031 4423 
Q 3450 4097 3450 3541 
Q 3450 3153 3228 2886 
Q 3006 2619 2597 2516 
z
" id="DejaVuSans-33" transform="scale(0.015625)"/>
       </defs>
       <use xlink:href="#DejaVuSans-30"/>
       <use x="63.623047" xlink:href="#DejaVuSans-2e"/>
       <use x="95.410156" xlink:href="#DejaVuSans-33"/>
      </g>
     </g>
    </g>
    <g id="ytick_5">
     <g id="line2d_7">
      <g>
       <use style="stroke:#000000;stroke-width:0.8;" x="86.4" xlink:href="#md4ea11716e" y="85.224702"/>
      </g>
     </g>
     <g id="text_8">
      <!-- 0.4 -->
      <g transform="translate(63.496875 89.023921)scale(0.1 -0.1)">
       <defs>
        <path d="M 2419 4116 
L 825 1625 
L 2419 1625 
L 2419 4116 
z
M 2253 4666 
L 3047 4666 
L 3047 1625 
L 3713 1625 
L 3713 1100 
L 3047 1100 
L 3047 0 
L 2419 0 
L 2419 1100 
L 313 1100 
L 313 1709 
L 2253 4666 
z
" id="DejaVuSans-34" transform="scale(0.015625)"/>
       </defs>
       <use xlink:href="#DejaVuSans-30"/>
       <use x="63.623047" xlink:href="#DejaVuSans-2e"/>
       <use x="95.410156" xlink:href="#DejaVuSans-34"/>
      </g>
     </g>
    </g>
   </g>
   <g id="LineCollection_1">
    <path clip-path="url(#p036ed469f0)" d="M 230.364 307.584 
L 230.364 267.523263 
" style="fill:none;stroke:#000000;"/>
   </g>
   <g id="line2d_8">
    <path clip-path="url(#p036ed469f0)" d="M 86.4 307.509604 
L 91.810909 307.481551 
L 97.221818 307.443837 
L 102.632727 307.393488 
L 108.043636 307.326739 
L 113.454545 307.238864 
L 118.865455 307.123986 
L 124.276364 306.974862 
L 129.687273 306.782646 
L 135.098182 306.536638 
L 140.509091 306.224016 
L 145.92 305.829576 
L 151.330909 305.335466 
L 156.741818 304.720953 
L 162.152727 303.962224 
L 167.563636 303.032246 
L 172.974545 301.900707 
L 178.385455 300.53406 
L 183.796364 298.8957 
L 189.207273 296.946286 
L 194.618182 294.644249 
L 200.029091 291.946491 
L 205.44 288.809287 
L 210.850909 285.189409 
L 216.261818 281.045459 
L 221.672727 276.339395 
L 227.083636 271.038231 
L 232.494545 265.115859 
L 237.905455 258.55495 
L 243.316364 251.348859 
L 248.727273 243.503458 
L 254.138182 235.038806 
L 259.549091 225.990569 
L 264.96 216.411087 
L 270.370909 206.370011 
L 275.781818 195.954409 
L 281.192727 185.2683 
L 286.603636 174.431551 
L 292.014545 163.578131 
L 297.425455 152.853722 
L 302.836364 142.412732 
L 308.247273 132.414788 
L 313.658182 123.020791 
L 319.069091 114.388694 
L 324.48 106.669127 
L 329.890909 100.001048 
L 335.301818 94.507595 
L 340.712727 90.292309 
L 346.123636 87.435891 
L 351.534545 85.993632 
L 356.945455 85.993632 
L 362.356364 87.435891 
L 367.767273 90.292309 
L 373.178182 94.507595 
L 378.589091 100.001048 
L 384 106.669127 
L 389.410909 114.388694 
L 394.821818 123.020791 
L 400.232727 132.414788 
L 405.643636 142.412732 
L 411.054545 152.853722 
L 416.465455 163.578131 
L 421.876364 174.431551 
L 427.287273 185.2683 
L 432.698182 195.954409 
L 438.109091 206.370011 
L 443.52 216.411087 
L 448.930909 225.990569 
L 454.341818 235.038806 
L 459.752727 243.503458 
L 465.163636 251.348859 
L 470.574545 258.55495 
L 475.985455 265.115859 
L 481.396364 271.038231 
L 486.807273 276.339395 
L 492.218182 281.045459 
L 497.629091 285.189409 
L 503.04 288.809287 
L 508.450909 291.946491 
L 513.861818 294.644249 
L 519.272727 296.946286 
L 524.683636 298.8957 
L 530.094545 300.53406 
L 535.505455 301.900707 
L 540.916364 303.032246 
L 546.327273 303.962224 
L 551.738182 304.720953 
L 557.149091 305.335466 
L 562.56 305.829576 
L 567.970909 306.224016 
L 573.381818 306.536638 
L 578.792727 306.782646 
L 584.203636 306.974862 
L 589.614545 307.123986 
L 595.025455 307.238864 
L 600.436364 307.326739 
L 605.847273 307.393488 
L 611.258182 307.443837 
L 616.669091 307.481551 
L 622.08 307.509604 
" style="fill:none;stroke:#1f77b4;stroke-linecap:square;stroke-width:1.5;"/>
   </g>
   <g id="patch_3">
    <path d="M 86.4 307.584 
L 86.4 41.472 
" style="fill:none;stroke:#000000;stroke-linecap:square;stroke-linejoin:miter;stroke-width:0.8;"/>
   </g>
   <g id="patch_4">
    <path d="M 622.08 307.584 
L 622.08 41.472 
" style="fill:none;stroke:#000000;stroke-linecap:square;stroke-linejoin:miter;stroke-width:0.8;"/>
   </g>
   <g id="patch_5">
    <path d="M 86.4 307.584 
L 622.08 307.584 
" style="fill:none;stroke:#000000;stroke-linecap:square;stroke-linejoin:miter;stroke-width:0.8;"/>
   </g>
   <g id="patch_6">
    <path d="M 86.4 41.472 
L 622.08 41.472 
" style="fill:none;stroke:#000000;stroke-linecap:square;stroke-linejoin:miter;stroke-width:0.8;"/>
   </g>
   <g id="patch_7">
    <path d="M 163.438494 278.308887 
Q 172.238008 288.087831 180.514024 297.285009 
" style="fill:none;stroke:#000000;stroke-linecap:round;stroke-width:0.7;"/>
    <path d="M 179.325128 292.9738 
L 180.514024 297.285009 
L 176.351719 295.649401 
" style="fill:none;stroke:#000000;stroke-linecap:round;stroke-width:0.7;"/>
   </g>
   <g id="text_9">
    <!-- Probability -->
    <g transform="translate(129.518187 272.743032)scale(0.1 -0.1)">
     <defs>
      <path d="M 1259 4147 
L 1259 2394 
L 2053 2394 
Q 2494 2394 2734 2622 
Q 2975 2850 2975 3272 
Q 2975 3691 2734 3919 
Q 2494 4147 2053 4147 
L 1259 4147 
z
M 628 4666 
L 2053 4666 
Q 2838 4666 3239 4311 
Q 3641 3956 3641 3272 
Q 3641 2581 3239 2228 
Q 2838 1875 2053 1875 
L 1259 1875 
L 1259 0 
L 628 0 
L 628 4666 
z
" id="DejaVuSans-50" transform="scale(0.015625)"/>
      <path d="M 2631 2963 
Q 2534 3019 2420 3045 
Q 2306 3072 2169 3072 
Q 1681 3072 1420 2755 
Q 1159 2438 1159 1844 
L 1159 0 
L 581 0 
L 581 3500 
L 1159 3500 
L 1159 2956 
Q 1341 3275 1631 3429 
Q 1922 3584 2338 3584 
Q 2397 3584 2469 3576 
Q 2541 3569 2628 3553 
L 2631 2963 
z
" id="DejaVuSans-72" transform="scale(0.015625)"/>
      <path d="M 1959 3097 
Q 1497 3097 1228 2736 
Q 959 2375 959 1747 
Q 959 1119 1226 758 
Q 1494 397 1959 397 
Q 2419 397 2687 759 
Q 2956 1122 2956 1747 
Q 2956 2369 2687 2733 
Q 2419 3097 1959 3097 
z
M 1959 3584 
Q 2709 3584 3137 3096 
Q 3566 2609 3566 1747 
Q 3566 888 3137 398 
Q 2709 -91 1959 -91 
Q 1206 -91 779 398 
Q 353 888 353 1747 
Q 353 2609 779 3096 
Q 1206 3584 1959 3584 
z
" id="DejaVuSans-6f" transform="scale(0.015625)"/>
      <path d="M 3116 1747 
Q 3116 2381 2855 2742 
Q 2594 3103 2138 3103 
Q 1681 3103 1420 2742 
Q 1159 2381 1159 1747 
Q 1159 1113 1420 752 
Q 1681 391 2138 391 
Q 2594 391 2855 752 
Q 3116 1113 3116 1747 
z
M 1159 2969 
Q 1341 3281 1617 3432 
Q 1894 3584 2278 3584 
Q 2916 3584 3314 3078 
Q 3713 2572 3713 1747 
Q 3713 922 3314 415 
Q 2916 -91 2278 -91 
Q 1894 -91 1617 61 
Q 1341 213 1159 525 
L 1159 0 
L 581 0 
L 581 4863 
L 1159 4863 
L 1159 2969 
z
" id="DejaVuSans-62" transform="scale(0.015625)"/>
      <path d="M 603 3500 
L 1178 3500 
L 1178 0 
L 603 0 
L 603 3500 
z
M 603 4863 
L 1178 4863 
L 1178 4134 
L 603 4134 
L 603 4863 
z
" id="DejaVuSans-69" transform="scale(0.015625)"/>
      <path d="M 1172 4494 
L 1172 3500 
L 2356 3500 
L 2356 3053 
L 1172 3053 
L 1172 1153 
Q 1172 725 1289 603 
Q 1406 481 1766 481 
L 2356 481 
L 2356 0 
L 1766 0 
Q 1100 0 847 248 
Q 594 497 594 1153 
L 594 3053 
L 172 3053 
L 172 3500 
L 594 3500 
L 594 4494 
L 1172 4494 
z
" id="DejaVuSans-74" transform="scale(0.015625)"/>
      <path d="M 2059 -325 
Q 1816 -950 1584 -1140 
Q 1353 -1331 966 -1331 
L 506 -1331 
L 506 -850 
L 844 -850 
Q 1081 -850 1212 -737 
Q 1344 -625 1503 -206 
L 1606 56 
L 191 3500 
L 800 3500 
L 1894 763 
L 2988 3500 
L 3597 3500 
L 2059 -325 
z
" id="DejaVuSans-79" transform="scale(0.015625)"/>
     </defs>
     <use xlink:href="#DejaVuSans-50"/>
     <use x="58.552734" xlink:href="#DejaVuSans-72"/>
     <use x="97.416016" xlink:href="#DejaVuSans-6f"/>
     <use x="158.597656" xlink:href="#DejaVuSans-62"/>
     <use x="222.074219" xlink:href="#DejaVuSans-61"/>
     <use x="283.353516" xlink:href="#DejaVuSans-62"/>
     <use x="346.830078" xlink:href="#DejaVuSans-69"/>
     <use x="374.613281" xlink:href="#DejaVuSans-6c"/>
     <use x="402.396484" xlink:href="#DejaVuSans-69"/>
     <use x="430.179688" xlink:href="#DejaVuSans-74"/>
     <use x="469.388672" xlink:href="#DejaVuSans-79"/>
    </g>
   </g>
   <g id="text_10">
    <!-- Z-Values and Probability -->
    <g transform="translate(282.002812 35.472)scale(0.12 -0.12)">
     <defs>
      <path d="M 359 4666 
L 4025 4666 
L 4025 4184 
L 1075 531 
L 4097 531 
L 4097 0 
L 288 0 
L 288 481 
L 3238 4134 
L 359 4134 
L 359 4666 
z
" id="DejaVuSans-5a" transform="scale(0.015625)"/>
      <path d="M 1831 0 
L 50 4666 
L 709 4666 
L 2188 738 
L 3669 4666 
L 4325 4666 
L 2547 0 
L 1831 0 
z
" id="DejaVuSans-56" transform="scale(0.015625)"/>
      <path d="M 2834 3397 
L 2834 2853 
Q 2591 2978 2328 3040 
Q 2066 3103 1784 3103 
Q 1356 3103 1142 2972 
Q 928 2841 928 2578 
Q 928 2378 1081 2264 
Q 1234 2150 1697 2047 
L 1894 2003 
Q 2506 1872 2764 1633 
Q 3022 1394 3022 966 
Q 3022 478 2636 193 
Q 2250 -91 1575 -91 
Q 1294 -91 989 -36 
Q 684 19 347 128 
L 347 722 
Q 666 556 975 473 
Q 1284 391 1588 391 
Q 1994 391 2212 530 
Q 2431 669 2431 922 
Q 2431 1156 2273 1281 
Q 2116 1406 1581 1522 
L 1381 1569 
Q 847 1681 609 1914 
Q 372 2147 372 2553 
Q 372 3047 722 3315 
Q 1072 3584 1716 3584 
Q 2034 3584 2315 3537 
Q 2597 3491 2834 3397 
z
" id="DejaVuSans-73" transform="scale(0.015625)"/>
      <path id="DejaVuSans-20" transform="scale(0.015625)"/>
      <path d="M 3513 2113 
L 3513 0 
L 2938 0 
L 2938 2094 
Q 2938 2591 2744 2837 
Q 2550 3084 2163 3084 
Q 1697 3084 1428 2787 
Q 1159 2491 1159 1978 
L 1159 0 
L 581 0 
L 581 3500 
L 1159 3500 
L 1159 2956 
Q 1366 3272 1645 3428 
Q 1925 3584 2291 3584 
Q 2894 3584 3203 3211 
Q 3513 2838 3513 2113 
z
" id="DejaVuSans-6e" transform="scale(0.015625)"/>
      <path d="M 2906 2969 
L 2906 4863 
L 3481 4863 
L 3481 0 
L 2906 0 
L 2906 525 
Q 2725 213 2448 61 
Q 2172 -91 1784 -91 
Q 1150 -91 751 415 
Q 353 922 353 1747 
Q 353 2572 751 3078 
Q 1150 3584 1784 3584 
Q 2172 3584 2448 3432 
Q 2725 3281 2906 2969 
z
M 947 1747 
Q 947 1113 1208 752 
Q 1469 391 1925 391 
Q 2381 391 2643 752 
Q 2906 1113 2906 1747 
Q 2906 2381 2643 2742 
Q 2381 3103 1925 3103 
Q 1469 3103 1208 2742 
Q 947 2381 947 1747 
z
" id="DejaVuSans-64" transform="scale(0.015625)"/>
     </defs>
     <use xlink:href="#DejaVuSans-5a"/>
     <use x="66.755859" xlink:href="#DejaVuSans-2d"/>
     <use x="96.964844" xlink:href="#DejaVuSans-56"/>
     <use x="157.623047" xlink:href="#DejaVuSans-61"/>
     <use x="218.902344" xlink:href="#DejaVuSans-6c"/>
     <use x="246.685547" xlink:href="#DejaVuSans-75"/>
     <use x="310.064453" xlink:href="#DejaVuSans-65"/>
     <use x="371.587891" xlink:href="#DejaVuSans-73"/>
     <use x="423.6875" xlink:href="#DejaVuSans-20"/>
     <use x="455.474609" xlink:href="#DejaVuSans-61"/>
     <use x="516.753906" xlink:href="#DejaVuSans-6e"/>
     <use x="580.132812" xlink:href="#DejaVuSans-64"/>
     <use x="643.609375" xlink:href="#DejaVuSans-20"/>
     <use x="675.396484" xlink:href="#DejaVuSans-50"/>
     <use x="733.949219" xlink:href="#DejaVuSans-72"/>
     <use x="772.8125" xlink:href="#DejaVuSans-6f"/>
     <use x="833.994141" xlink:href="#DejaVuSans-62"/>
     <use x="897.470703" xlink:href="#DejaVuSans-61"/>
     <use x="958.75" xlink:href="#DejaVuSans-62"/>
     <use x="1022.226562" xlink:href="#DejaVuSans-69"/>
     <use x="1050.009766" xlink:href="#DejaVuSans-6c"/>
     <use x="1077.792969" xlink:href="#DejaVuSans-69"/>
     <use x="1105.576172" xlink:href="#DejaVuSans-74"/>
     <use x="1144.785156" xlink:href="#DejaVuSans-79"/>
    </g>
   </g>
  </g>
 </g>
 <defs>
  <clipPath id="p036ed469f0">
   <rect height="266.112" width="535.68" x="86.4" y="41.472"/>
  </clipPath>
 </defs>
</svg>
