<?xml version="1.0" encoding="utf-8" standalone="no"?>
<!DOCTYPE svg PUBLIC "-//W3C//DTD SVG 1.1//EN"
  "http://www.w3.org/Graphics/SVG/1.1/DTD/svg11.dtd">
<svg height="345.6pt" version="1.1" viewBox="0 0 576 345.6" width="576pt" xmlns="http://www.w3.org/2000/svg" xmlns:xlink="http://www.w3.org/1999/xlink">
 <metadata>
  <rdf:RDF xmlns:cc="http://creativecommons.org/ns#" xmlns:dc="http://purl.org/dc/elements/1.1/" xmlns:rdf="http://www.w3.org/1999/02/22-rdf-syntax-ns#">
   <cc:Work>
    <dc:type rdf:resource="http://purl.org/dc/dcmitype/StillImage"/>
    <dc:date>2021-07-02T11:39:52.629910</dc:date>
    <dc:format>image/svg+xml</dc:format>
    <dc:creator>
     <cc:Agent>
      <dc:title>Matplotlib v3.4.2, https://matplotlib.org/</dc:title>
     </cc:Agent>
    </dc:creator>
   </cc:Work>
  </rdf:RDF>
 </metadata>
 <defs>
  <style type="text/css">*{stroke-linecap:butt;stroke-linejoin:round;}</style>
 </defs>
 <g id="figure_1">
  <g id="patch_1">
   <path d="M 0 345.6 
L 576 345.6 
L 576 0 
L 0 0 
z
" style="fill:#ffffff;"/>
  </g>
  <g id="axes_1">
   <g id="patch_2">
    <path d="M 72 307.584 
L 518.4 307.584 
L 518.4 41.472 
L 72 41.472 
z
" style="fill:#ffffff;"/>
   </g>
   <g id="matplotlib.axis_1">
    <g id="xtick_1">
     <g id="line2d_1">
      <defs>
       <path d="M 0 0 
L 0 3.5 
" id="mfcce06298d" style="stroke:#000000;stroke-width:0.8;"/>
      </defs>
      <g>
       <use style="stroke:#000000;stroke-width:0.8;" x="72" xlink:href="#mfcce06298d" y="307.584"/>
      </g>
     </g>
     <g id="text_1">
      <!-- −4 -->
      <g transform="translate(64.628906 322.182437)scale(0.1 -0.1)">
       <defs>
        <path d="M 678 2272 
L 4684 2272 
L 4684 1741 
L 678 1741 
L 678 2272 
z
" id="DejaVuSans-2212" transform="scale(0.015625)"/>
        <path d="M 2419 4116 
L 825 1625 
L 2419 1625 
L 2419 4116 
z
M 2253 4666 
L 3047 4666 
L 3047 1625 
L 3713 1625 
L 3713 1100 
L 3047 1100 
L 3047 0 
L 2419 0 
L 2419 1100 
L 313 1100 
L 313 1709 
L 2253 4666 
z
" id="DejaVuSans-34" transform="scale(0.015625)"/>
       </defs>
       <use xlink:href="#DejaVuSans-2212"/>
       <use x="83.789062" xlink:href="#DejaVuSans-34"/>
      </g>
     </g>
    </g>
    <g id="xtick_2">
     <g id="line2d_2">
      <g>
       <use style="stroke:#000000;stroke-width:0.8;" x="127.8" xlink:href="#mfcce06298d" y="307.584"/>
      </g>
     </g>
     <g id="text_2">
      <!-- −3 -->
      <g transform="translate(120.428906 322.182437)scale(0.1 -0.1)">
       <defs>
        <path d="M 2597 2516 
Q 3050 2419 3304 2112 
Q 3559 1806 3559 1356 
Q 3559 666 3084 287 
Q 2609 -91 1734 -91 
Q 1441 -91 1130 -33 
Q 819 25 488 141 
L 488 750 
Q 750 597 1062 519 
Q 1375 441 1716 441 
Q 2309 441 2620 675 
Q 2931 909 2931 1356 
Q 2931 1769 2642 2001 
Q 2353 2234 1838 2234 
L 1294 2234 
L 1294 2753 
L 1863 2753 
Q 2328 2753 2575 2939 
Q 2822 3125 2822 3475 
Q 2822 3834 2567 4026 
Q 2313 4219 1838 4219 
Q 1578 4219 1281 4162 
Q 984 4106 628 3988 
L 628 4550 
Q 988 4650 1302 4700 
Q 1616 4750 1894 4750 
Q 2613 4750 3031 4423 
Q 3450 4097 3450 3541 
Q 3450 3153 3228 2886 
Q 3006 2619 2597 2516 
z
" id="DejaVuSans-33" transform="scale(0.015625)"/>
       </defs>
       <use xlink:href="#DejaVuSans-2212"/>
       <use x="83.789062" xlink:href="#DejaVuSans-33"/>
      </g>
     </g>
    </g>
    <g id="xtick_3">
     <g id="line2d_3">
      <g>
       <use style="stroke:#000000;stroke-width:0.8;" x="183.6" xlink:href="#mfcce06298d" y="307.584"/>
      </g>
     </g>
     <g id="text_3">
      <!-- −2 -->
      <g transform="translate(176.228906 322.182437)scale(0.1 -0.1)">
       <defs>
        <path d="M 1228 531 
L 3431 531 
L 3431 0 
L 469 0 
L 469 531 
Q 828 903 1448 1529 
Q 2069 2156 2228 2338 
Q 2531 2678 2651 2914 
Q 2772 3150 2772 3378 
Q 2772 3750 2511 3984 
Q 2250 4219 1831 4219 
Q 1534 4219 1204 4116 
Q 875 4013 500 3803 
L 500 4441 
Q 881 4594 1212 4672 
Q 1544 4750 1819 4750 
Q 2544 4750 2975 4387 
Q 3406 4025 3406 3419 
Q 3406 3131 3298 2873 
Q 3191 2616 2906 2266 
Q 2828 2175 2409 1742 
Q 1991 1309 1228 531 
z
" id="DejaVuSans-32" transform="scale(0.015625)"/>
       </defs>
       <use xlink:href="#DejaVuSans-2212"/>
       <use x="83.789062" xlink:href="#DejaVuSans-32"/>
      </g>
     </g>
    </g>
    <g id="xtick_4">
     <g id="line2d_4">
      <g>
       <use style="stroke:#000000;stroke-width:0.8;" x="239.4" xlink:href="#mfcce06298d" y="307.584"/>
      </g>
     </g>
     <g id="text_4">
      <!-- −1 -->
      <g transform="translate(232.028906 322.182437)scale(0.1 -0.1)">
       <defs>
        <path d="M 794 531 
L 1825 531 
L 1825 4091 
L 703 3866 
L 703 4441 
L 1819 4666 
L 2450 4666 
L 2450 531 
L 3481 531 
L 3481 0 
L 794 0 
L 794 531 
z
" id="DejaVuSans-31" transform="scale(0.015625)"/>
       </defs>
       <use xlink:href="#DejaVuSans-2212"/>
       <use x="83.789062" xlink:href="#DejaVuSans-31"/>
      </g>
     </g>
    </g>
    <g id="xtick_5">
     <g id="line2d_5">
      <g>
       <use style="stroke:#000000;stroke-width:0.8;" x="295.2" xlink:href="#mfcce06298d" y="307.584"/>
      </g>
     </g>
     <g id="text_5">
      <!-- 0 -->
      <g transform="translate(292.01875 322.182437)scale(0.1 -0.1)">
       <defs>
        <path d="M 2034 4250 
Q 1547 4250 1301 3770 
Q 1056 3291 1056 2328 
Q 1056 1369 1301 889 
Q 1547 409 2034 409 
Q 2525 409 2770 889 
Q 3016 1369 3016 2328 
Q 3016 3291 2770 3770 
Q 2525 4250 2034 4250 
z
M 2034 4750 
Q 2819 4750 3233 4129 
Q 3647 3509 3647 2328 
Q 3647 1150 3233 529 
Q 2819 -91 2034 -91 
Q 1250 -91 836 529 
Q 422 1150 422 2328 
Q 422 3509 836 4129 
Q 1250 4750 2034 4750 
z
" id="DejaVuSans-30" transform="scale(0.015625)"/>
       </defs>
       <use xlink:href="#DejaVuSans-30"/>
      </g>
     </g>
    </g>
    <g id="xtick_6">
     <g id="line2d_6">
      <g>
       <use style="stroke:#000000;stroke-width:0.8;" x="351" xlink:href="#mfcce06298d" y="307.584"/>
      </g>
     </g>
     <g id="text_6">
      <!-- 1 -->
      <g transform="translate(347.81875 322.182437)scale(0.1 -0.1)">
       <use xlink:href="#DejaVuSans-31"/>
      </g>
     </g>
    </g>
    <g id="xtick_7">
     <g id="line2d_7">
      <g>
       <use style="stroke:#000000;stroke-width:0.8;" x="406.8" xlink:href="#mfcce06298d" y="307.584"/>
      </g>
     </g>
     <g id="text_7">
      <!-- 2 -->
      <g transform="translate(403.61875 322.182437)scale(0.1 -0.1)">
       <use xlink:href="#DejaVuSans-32"/>
      </g>
     </g>
    </g>
    <g id="xtick_8">
     <g id="line2d_8">
      <g>
       <use style="stroke:#000000;stroke-width:0.8;" x="462.6" xlink:href="#mfcce06298d" y="307.584"/>
      </g>
     </g>
     <g id="text_8">
      <!-- 3 -->
      <g transform="translate(459.41875 322.182437)scale(0.1 -0.1)">
       <use xlink:href="#DejaVuSans-33"/>
      </g>
     </g>
    </g>
    <g id="xtick_9">
     <g id="line2d_9">
      <g>
       <use style="stroke:#000000;stroke-width:0.8;" x="518.4" xlink:href="#mfcce06298d" y="307.584"/>
      </g>
     </g>
     <g id="text_9">
      <!-- 4 -->
      <g transform="translate(515.21875 322.182437)scale(0.1 -0.1)">
       <use xlink:href="#DejaVuSans-34"/>
      </g>
     </g>
    </g>
    <g id="text_10">
     <!-- t-value -->
     <g transform="translate(276.180313 336.620406)scale(0.11 -0.11)">
      <defs>
       <path d="M 1172 4494 
L 1172 3500 
L 2356 3500 
L 2356 3053 
L 1172 3053 
L 1172 1153 
Q 1172 725 1289 603 
Q 1406 481 1766 481 
L 2356 481 
L 2356 0 
L 1766 0 
Q 1100 0 847 248 
Q 594 497 594 1153 
L 594 3053 
L 172 3053 
L 172 3500 
L 594 3500 
L 594 4494 
L 1172 4494 
z
" id="DejaVuSans-74" transform="scale(0.015625)"/>
       <path d="M 313 2009 
L 1997 2009 
L 1997 1497 
L 313 1497 
L 313 2009 
z
" id="DejaVuSans-2d" transform="scale(0.015625)"/>
       <path d="M 191 3500 
L 800 3500 
L 1894 563 
L 2988 3500 
L 3597 3500 
L 2284 0 
L 1503 0 
L 191 3500 
z
" id="DejaVuSans-76" transform="scale(0.015625)"/>
       <path d="M 2194 1759 
Q 1497 1759 1228 1600 
Q 959 1441 959 1056 
Q 959 750 1161 570 
Q 1363 391 1709 391 
Q 2188 391 2477 730 
Q 2766 1069 2766 1631 
L 2766 1759 
L 2194 1759 
z
M 3341 1997 
L 3341 0 
L 2766 0 
L 2766 531 
Q 2569 213 2275 61 
Q 1981 -91 1556 -91 
Q 1019 -91 701 211 
Q 384 513 384 1019 
Q 384 1609 779 1909 
Q 1175 2209 1959 2209 
L 2766 2209 
L 2766 2266 
Q 2766 2663 2505 2880 
Q 2244 3097 1772 3097 
Q 1472 3097 1187 3025 
Q 903 2953 641 2809 
L 641 3341 
Q 956 3463 1253 3523 
Q 1550 3584 1831 3584 
Q 2591 3584 2966 3190 
Q 3341 2797 3341 1997 
z
" id="DejaVuSans-61" transform="scale(0.015625)"/>
       <path d="M 603 4863 
L 1178 4863 
L 1178 0 
L 603 0 
L 603 4863 
z
" id="DejaVuSans-6c" transform="scale(0.015625)"/>
       <path d="M 544 1381 
L 544 3500 
L 1119 3500 
L 1119 1403 
Q 1119 906 1312 657 
Q 1506 409 1894 409 
Q 2359 409 2629 706 
Q 2900 1003 2900 1516 
L 2900 3500 
L 3475 3500 
L 3475 0 
L 2900 0 
L 2900 538 
Q 2691 219 2414 64 
Q 2138 -91 1772 -91 
Q 1169 -91 856 284 
Q 544 659 544 1381 
z
M 1991 3584 
L 1991 3584 
z
" id="DejaVuSans-75" transform="scale(0.015625)"/>
       <path d="M 3597 1894 
L 3597 1613 
L 953 1613 
Q 991 1019 1311 708 
Q 1631 397 2203 397 
Q 2534 397 2845 478 
Q 3156 559 3463 722 
L 3463 178 
Q 3153 47 2828 -22 
Q 2503 -91 2169 -91 
Q 1331 -91 842 396 
Q 353 884 353 1716 
Q 353 2575 817 3079 
Q 1281 3584 2069 3584 
Q 2775 3584 3186 3129 
Q 3597 2675 3597 1894 
z
M 3022 2063 
Q 3016 2534 2758 2815 
Q 2500 3097 2075 3097 
Q 1594 3097 1305 2825 
Q 1016 2553 972 2059 
L 3022 2063 
z
" id="DejaVuSans-65" transform="scale(0.015625)"/>
      </defs>
      <use xlink:href="#DejaVuSans-74"/>
      <use x="39.208984" xlink:href="#DejaVuSans-2d"/>
      <use x="72.667969" xlink:href="#DejaVuSans-76"/>
      <use x="131.847656" xlink:href="#DejaVuSans-61"/>
      <use x="193.126953" xlink:href="#DejaVuSans-6c"/>
      <use x="220.910156" xlink:href="#DejaVuSans-75"/>
      <use x="284.289062" xlink:href="#DejaVuSans-65"/>
     </g>
    </g>
   </g>
   <g id="matplotlib.axis_2">
    <g id="ytick_1">
     <g id="line2d_10">
      <defs>
       <path d="M 0 0 
L -3.5 0 
" id="mf7dc81a87c" style="stroke:#000000;stroke-width:0.8;"/>
      </defs>
      <g>
       <use style="stroke:#000000;stroke-width:0.8;" x="72" xlink:href="#mf7dc81a87c" y="307.584"/>
      </g>
     </g>
     <g id="text_11">
      <!-- 0.0 -->
      <g transform="translate(49.096875 311.383219)scale(0.1 -0.1)">
       <defs>
        <path d="M 684 794 
L 1344 794 
L 1344 0 
L 684 0 
L 684 794 
z
" id="DejaVuSans-2e" transform="scale(0.015625)"/>
       </defs>
       <use xlink:href="#DejaVuSans-30"/>
       <use x="63.623047" xlink:href="#DejaVuSans-2e"/>
       <use x="95.410156" xlink:href="#DejaVuSans-30"/>
      </g>
     </g>
    </g>
    <g id="ytick_2">
     <g id="line2d_11">
      <g>
       <use style="stroke:#000000;stroke-width:0.8;" x="72" xlink:href="#mf7dc81a87c" y="251.510647"/>
      </g>
     </g>
     <g id="text_12">
      <!-- 0.1 -->
      <g transform="translate(49.096875 255.309866)scale(0.1 -0.1)">
       <use xlink:href="#DejaVuSans-30"/>
       <use x="63.623047" xlink:href="#DejaVuSans-2e"/>
       <use x="95.410156" xlink:href="#DejaVuSans-31"/>
      </g>
     </g>
    </g>
    <g id="ytick_3">
     <g id="line2d_12">
      <g>
       <use style="stroke:#000000;stroke-width:0.8;" x="72" xlink:href="#mf7dc81a87c" y="195.437294"/>
      </g>
     </g>
     <g id="text_13">
      <!-- 0.2 -->
      <g transform="translate(49.096875 199.236513)scale(0.1 -0.1)">
       <use xlink:href="#DejaVuSans-30"/>
       <use x="63.623047" xlink:href="#DejaVuSans-2e"/>
       <use x="95.410156" xlink:href="#DejaVuSans-32"/>
      </g>
     </g>
    </g>
    <g id="ytick_4">
     <g id="line2d_13">
      <g>
       <use style="stroke:#000000;stroke-width:0.8;" x="72" xlink:href="#mf7dc81a87c" y="139.363941"/>
      </g>
     </g>
     <g id="text_14">
      <!-- 0.3 -->
      <g transform="translate(49.096875 143.16316)scale(0.1 -0.1)">
       <use xlink:href="#DejaVuSans-30"/>
       <use x="63.623047" xlink:href="#DejaVuSans-2e"/>
       <use x="95.410156" xlink:href="#DejaVuSans-33"/>
      </g>
     </g>
    </g>
    <g id="ytick_5">
     <g id="line2d_14">
      <g>
       <use style="stroke:#000000;stroke-width:0.8;" x="72" xlink:href="#mf7dc81a87c" y="83.290588"/>
      </g>
     </g>
     <g id="text_15">
      <!-- 0.4 -->
      <g transform="translate(49.096875 87.089806)scale(0.1 -0.1)">
       <use xlink:href="#DejaVuSans-30"/>
       <use x="63.623047" xlink:href="#DejaVuSans-2e"/>
       <use x="95.410156" xlink:href="#DejaVuSans-34"/>
      </g>
     </g>
    </g>
   </g>
   <g id="line2d_15">
    <path clip-path="url(#pdbb685ac22)" d="M 72 307.508957 
L 91.408696 307.300028 
L 103.352508 306.977501 
L 112.310368 306.544227 
L 119.775251 305.986359 
L 125.747157 305.360099 
L 131.719064 304.523607 
L 137.69097 303.420443 
L 142.1699 302.378463 
L 146.648829 301.117511 
L 151.127759 299.602705 
L 155.606689 297.796312 
L 160.085619 295.658166 
L 163.071572 294.027736 
L 166.057525 292.218466 
L 169.043478 290.217524 
L 172.029431 288.012138 
L 175.015385 285.589759 
L 178.001338 282.93824 
L 180.987291 280.046035 
L 183.973244 276.902409 
L 186.959197 273.497666 
L 189.945151 269.82338 
L 192.931104 265.872641 
L 195.917057 261.640302 
L 198.90301 257.12322 
L 201.888963 252.320502 
L 206.367893 244.585062 
L 210.846823 236.228086 
L 215.325753 227.281584 
L 219.804682 217.793757 
L 224.283612 207.829712 
L 230.255518 193.948108 
L 239.213378 172.356683 
L 249.664214 147.23774 
L 254.143144 136.93364 
L 258.622074 127.133755 
L 263.101003 117.996529 
L 266.086957 112.349498 
L 269.07291 107.109149 
L 272.058863 102.316767 
L 275.044816 98.010796 
L 278.030769 94.226323 
L 281.016722 90.994603 
L 284.002676 88.342631 
L 285.495652 87.241226 
L 286.988629 86.292763 
L 288.481605 85.499258 
L 289.974582 84.862407 
L 291.467559 84.38357 
L 292.960535 84.063773 
L 294.453512 83.903703 
L 295.946488 83.903703 
L 297.439465 84.063773 
L 298.932441 84.38357 
L 300.425418 84.862407 
L 301.918395 85.499258 
L 303.411371 86.292763 
L 304.904348 87.241226 
L 306.397324 88.342631 
L 307.890301 89.594638 
L 310.876254 92.539577 
L 313.862207 96.051324 
L 316.848161 100.100703 
L 319.834114 104.654486 
L 322.820067 109.675847 
L 325.80602 115.124855 
L 328.791973 120.959002 
L 333.270903 130.334526 
L 337.749833 140.32019 
L 343.721739 154.308733 
L 355.665552 183.221618 
L 363.130435 200.962362 
L 369.102341 214.521613 
L 373.581271 224.176259 
L 378.060201 233.309383 
L 382.53913 241.867205 
L 387.01806 249.812423 
L 391.49699 257.12322 
L 394.482943 261.640302 
L 397.468896 265.872641 
L 400.454849 269.82338 
L 403.440803 273.497666 
L 406.426756 276.902409 
L 409.412709 280.046035 
L 412.398662 282.93824 
L 415.384615 285.589759 
L 418.370569 288.012138 
L 421.356522 290.217524 
L 424.342475 292.218466 
L 427.328428 294.027736 
L 430.314381 295.658166 
L 434.793311 297.796312 
L 439.272241 299.602705 
L 443.751171 301.117511 
L 448.2301 302.378463 
L 452.70903 303.420443 
L 457.18796 304.27524 
L 463.159866 305.172723 
L 469.131773 305.846781 
L 476.596656 306.449333 
L 485.554515 306.9193 
L 496.005351 307.23923 
L 510.935117 307.456994 
L 518.4 307.508957 
L 518.4 307.508957 
" style="fill:none;stroke:#000000;stroke-linecap:square;"/>
   </g>
   <g id="line2d_16">
    <path clip-path="url(#pdbb685ac22)" d="M 72 307.279417 
L 88.422742 306.922425 
L 100.366555 306.436447 
L 109.324415 305.864759 
L 116.789298 305.191783 
L 124.254181 304.277125 
L 130.226087 303.321261 
L 136.197993 302.115894 
L 140.676923 301.01542 
L 145.155853 299.717631 
L 149.634783 298.193582 
L 154.113712 296.41171 
L 158.592642 294.338007 
L 163.071572 291.93633 
L 167.550502 289.168852 
L 170.536455 287.101468 
L 173.522408 284.842618 
L 176.508361 282.380771 
L 179.494314 279.704624 
L 182.480268 276.803272 
L 185.466221 273.666396 
L 188.452174 270.284461 
L 191.438127 266.648937 
L 194.42408 262.752534 
L 197.410033 258.589441 
L 200.395987 254.155585 
L 204.874916 246.993168 
L 209.353846 239.220091 
L 213.832776 230.852323 
L 218.311706 221.920813 
L 222.790635 212.472929 
L 227.269565 202.573527 
L 233.241472 188.817861 
L 243.692308 163.94367 
L 251.157191 146.348811 
L 255.63612 136.203381 
L 260.11505 126.568589 
L 264.59398 117.611464 
L 267.579933 112.097344 
L 270.565886 107.003301 
L 273.551839 102.373119 
L 276.537793 98.247449 
L 279.523746 94.66319 
L 282.509699 91.652906 
L 284.002676 90.371866 
L 285.495652 89.244304 
L 286.988629 88.272854 
L 288.481605 87.45979 
L 289.974582 86.807024 
L 291.467559 86.316094 
L 292.960535 85.988161 
L 294.453512 85.824 
L 295.946488 85.824 
L 297.439465 85.988161 
L 298.932441 86.316094 
L 300.425418 86.807024 
L 301.918395 87.45979 
L 303.411371 88.272854 
L 304.904348 89.244304 
L 306.397324 90.371866 
L 307.890301 91.652906 
L 310.876254 94.66319 
L 313.862207 98.247449 
L 316.848161 102.373119 
L 319.834114 107.003301 
L 322.820067 112.097344 
L 325.80602 117.611464 
L 328.791973 123.499404 
L 333.270903 132.92677 
L 337.749833 142.920589 
L 343.721739 156.838735 
L 361.637458 199.187195 
L 367.609365 212.472929 
L 372.088294 221.920813 
L 376.567224 230.852323 
L 381.046154 239.220091 
L 385.525084 246.993168 
L 390.004013 254.155585 
L 392.989967 258.589441 
L 395.97592 262.752534 
L 398.961873 266.648937 
L 401.947826 270.284461 
L 404.933779 273.666396 
L 407.919732 276.803272 
L 410.905686 279.704624 
L 413.891639 282.380771 
L 416.877592 284.842618 
L 419.863545 287.101468 
L 422.849498 289.168852 
L 427.328428 291.93633 
L 431.807358 294.338007 
L 436.286288 296.41171 
L 440.765217 298.193582 
L 445.244147 299.717631 
L 449.723077 301.01542 
L 454.202007 302.115894 
L 460.173913 303.321261 
L 466.145819 304.277125 
L 472.117726 305.030358 
L 479.582609 305.746425 
L 488.540468 306.355782 
L 498.991304 306.823883 
L 512.428094 307.179279 
L 518.4 307.279417 
L 518.4 307.279417 
" style="fill:none;stroke:#000000;stroke-linecap:square;"/>
   </g>
   <g id="line2d_17">
    <path clip-path="url(#pdbb685ac22)" d="M 72 307.093306 
L 86.929766 306.681544 
L 98.873579 306.121534 
L 107.831438 305.49173 
L 115.296321 304.773384 
L 122.761204 303.821853 
L 128.73311 302.847502 
L 134.705017 301.638512 
L 139.183946 300.548398 
L 143.662876 299.275077 
L 148.141806 297.792418 
L 152.620736 296.071789 
L 157.099666 294.082139 
L 161.578595 291.790185 
L 166.057525 289.160724 
L 170.536455 286.157091 
L 173.522408 283.928295 
L 176.508361 281.505393 
L 179.494314 278.877365 
L 182.480268 276.033469 
L 185.466221 272.963409 
L 188.452174 269.657523 
L 191.438127 266.106991 
L 194.42408 262.304052 
L 197.410033 258.242252 
L 200.395987 253.916684 
L 204.874916 246.927561 
L 209.353846 239.33709 
L 213.832776 231.156386 
L 218.311706 222.410986 
L 222.790635 213.14255 
L 227.269565 203.410227 
L 233.241472 189.848926 
L 242.199331 168.753838 
L 251.157191 147.687547 
L 257.129097 134.269217 
L 261.608027 124.817646 
L 264.59398 118.903418 
L 267.579933 113.356925 
L 270.565886 108.226336 
L 273.551839 103.557424 
L 276.537793 99.392841 
L 279.523746 95.771417 
L 282.509699 92.727514 
L 284.002676 91.431502 
L 285.495652 90.290435 
L 286.988629 89.307103 
L 288.481605 88.48392 
L 289.974582 87.822915 
L 291.467559 87.325721 
L 292.960535 86.993571 
L 294.453512 86.82729 
L 295.946488 86.82729 
L 297.439465 86.993571 
L 298.932441 87.325721 
L 300.425418 87.822915 
L 301.918395 88.48392 
L 303.411371 89.307103 
L 304.904348 90.290435 
L 306.397324 91.431502 
L 307.890301 92.727514 
L 310.876254 95.771417 
L 313.862207 99.392841 
L 316.848161 103.557424 
L 319.834114 108.226336 
L 322.820067 113.356925 
L 325.80602 118.903418 
L 328.791973 124.817646 
L 333.270903 134.269217 
L 337.749833 144.264548 
L 343.721739 158.143238 
L 360.144482 196.70182 
L 366.116388 209.94654 
L 370.595318 219.377072 
L 375.074247 228.302286 
L 379.553177 236.674823 
L 384.032107 244.463948 
L 388.511037 251.653942 
L 392.989967 258.242252 
L 395.97592 262.304052 
L 398.961873 266.106991 
L 401.947826 269.657523 
L 404.933779 272.963409 
L 407.919732 276.033469 
L 410.905686 278.877365 
L 413.891639 281.505393 
L 416.877592 283.928295 
L 419.863545 286.157091 
L 424.342475 289.160724 
L 428.821405 291.790185 
L 433.300334 294.082139 
L 437.779264 296.071789 
L 442.258194 297.792418 
L 446.737124 299.275077 
L 451.216054 300.548398 
L 457.18796 301.965327 
L 463.159866 303.111323 
L 469.131773 304.033865 
L 476.596656 304.933787 
L 484.061538 305.612412 
L 493.019398 306.206767 
L 503.470234 306.681544 
L 516.907023 307.06237 
L 518.4 307.093306 
L 518.4 307.093306 
" style="fill:none;stroke:#800080;stroke-linecap:square;"/>
   </g>
   <g id="line2d_18">
    <path clip-path="url(#pdbb685ac22)" d="M 72 305.310462 
L 83.943813 304.588679 
L 94.394649 303.751169 
L 103.352508 302.831268 
L 112.310368 301.6711 
L 119.775251 300.474088 
L 127.240134 299.018283 
L 133.21204 297.629574 
L 139.183946 296.004925 
L 145.155853 294.104866 
L 149.634783 292.472129 
L 154.113712 290.63788 
L 158.592642 288.578818 
L 163.071572 286.269632 
L 167.550502 283.683044 
L 172.029431 280.789938 
L 176.508361 277.559589 
L 180.987291 273.960031 
L 185.466221 269.958582 
L 189.945151 265.522566 
L 194.42408 260.62026 
L 198.90301 255.222098 
L 203.38194 249.302155 
L 207.86087 242.839918 
L 212.339799 235.822348 
L 216.818729 228.246199 
L 221.297659 220.120532 
L 225.776589 211.469339 
L 230.255518 202.334121 
L 236.227425 189.510097 
L 243.692308 172.748248 
L 257.129097 142.359448 
L 261.608027 132.798548 
L 266.086957 123.841733 
L 269.07291 118.30532 
L 272.058863 113.185226 
L 275.044816 108.537857 
L 278.030769 104.416267 
L 281.016722 100.868977 
L 284.002676 97.938848 
L 285.495652 96.716808 
L 286.988629 95.662046 
L 288.481605 94.777891 
L 289.974582 94.06715 
L 291.467559 93.53209 
L 292.960535 93.174425 
L 294.453512 92.995305 
L 295.946488 92.995305 
L 297.439465 93.174425 
L 298.932441 93.53209 
L 300.425418 94.06715 
L 301.918395 94.777891 
L 303.411371 95.662046 
L 304.904348 96.716808 
L 306.397324 97.938848 
L 307.890301 99.324339 
L 310.876254 102.568011 
L 313.862207 106.408188 
L 316.848161 110.799043 
L 319.834114 115.689643 
L 322.820067 121.02511 
L 325.80602 126.747811 
L 330.28495 135.928285 
L 334.76388 145.646286 
L 342.228763 162.513697 
L 352.679599 186.20967 
L 358.651505 199.191483 
L 363.130435 208.475446 
L 367.609365 217.293528 
L 372.088294 225.597849 
L 376.567224 233.35886 
L 381.046154 240.562817 
L 385.525084 247.20915 
L 390.004013 253.307902 
L 394.482943 258.877338 
L 398.961873 263.941791 
L 403.440803 268.529791 
L 407.919732 272.672491 
L 412.398662 276.402364 
L 416.877592 279.752183 
L 421.356522 282.75422 
L 425.835452 285.43966 
L 430.314381 287.838188 
L 434.793311 289.977714 
L 439.272241 291.884212 
L 443.751171 293.581655 
L 449.723077 295.557394 
L 455.694983 297.24698 
L 461.66689 298.691268 
L 467.638796 299.925758 
L 475.103679 301.220149 
L 482.568562 302.284939 
L 491.526421 303.317747 
L 501.977258 304.256834 
L 513.92107 305.064751 
L 518.4 305.310462 
L 518.4 305.310462 
" style="fill:none;stroke:#1f77b4;stroke-linecap:square;"/>
   </g>
   <g id="line2d_19">
    <path clip-path="url(#pdbb685ac22)" d="M 72 302.445796 
L 83.943813 301.410251 
L 94.394649 300.293169 
L 103.352508 299.139381 
L 112.310368 297.762448 
L 119.775251 296.409017 
L 127.240134 294.831298 
L 134.705017 292.98739 
L 140.676923 291.287269 
L 146.648829 289.35493 
L 152.620736 287.155943 
L 157.099666 285.308232 
L 161.578595 283.269909 
L 166.057525 281.020568 
L 170.536455 278.537918 
L 175.015385 275.797738 
L 179.494314 272.773909 
L 183.973244 269.438508 
L 188.452174 265.76202 
L 192.931104 261.713692 
L 197.410033 257.262079 
L 201.888963 252.375819 
L 206.367893 247.024711 
L 210.846823 241.181139 
L 215.325753 234.821906 
L 219.804682 227.930521 
L 224.283612 220.499969 
L 228.762542 212.535944 
L 233.241472 204.060474 
L 237.720401 195.115803 
L 243.692308 182.578258 
L 251.157191 166.270364 
L 260.11505 146.685722 
L 264.59398 137.34157 
L 269.07291 128.600642 
L 272.058863 123.228902 
L 275.044816 118.306104 
L 278.030769 113.902311 
L 281.016722 110.083258 
L 282.509699 108.41186 
L 284.002676 106.908297 
L 285.495652 105.578669 
L 286.988629 104.428442 
L 288.481605 103.462398 
L 289.974582 102.684593 
L 291.467559 102.098318 
L 292.960535 101.706068 
L 294.453512 101.509523 
L 295.946488 101.509523 
L 297.439465 101.706068 
L 298.932441 102.098318 
L 300.425418 102.684593 
L 301.918395 103.462398 
L 303.411371 104.428442 
L 304.904348 105.578669 
L 306.397324 106.908297 
L 307.890301 108.41186 
L 310.876254 111.915809 
L 313.862207 116.035098 
L 316.848161 120.706929 
L 319.834114 125.863146 
L 322.820067 131.432288 
L 327.298997 140.401115 
L 331.777926 149.893635 
L 340.735786 169.562407 
L 348.200669 185.768256 
L 354.172575 198.145936 
L 358.651505 206.940309 
L 363.130435 215.248912 
L 367.609365 223.036676 
L 372.088294 230.287439 
L 376.567224 237.00013 
L 381.046154 243.18526 
L 385.525084 248.861839 
L 390.004013 254.054768 
L 394.482943 258.792708 
L 398.961873 263.106385 
L 403.440803 267.027293 
L 407.919732 270.58672 
L 412.398662 273.815057 
L 416.877592 276.74132 
L 421.356522 279.392846 
L 425.835452 281.795131 
L 430.314381 283.97175 
L 434.793311 285.94436 
L 440.765217 288.291106 
L 446.737124 290.352169 
L 452.70903 292.164385 
L 458.680936 293.759902 
L 466.145819 295.491813 
L 473.610702 296.975202 
L 481.075585 298.249066 
L 490.033445 299.546614 
L 500.484281 300.79923 
L 510.935117 301.825588 
L 518.4 302.445796 
L 518.4 302.445796 
" style="fill:none;stroke:#282a35;stroke-linecap:square;"/>
   </g>
   <g id="line2d_20">
    <path clip-path="url(#pdbb685ac22)" d="M 72 300.241436 
L 83.943813 299.089458 
L 94.394649 297.883846 
L 104.845485 296.449862 
L 113.803344 294.998786 
L 122.761204 293.298818 
L 130.226087 291.655012 
L 137.69097 289.766259 
L 143.662876 288.050027 
L 149.634783 286.123452 
L 155.606689 283.956624 
L 161.578595 281.515179 
L 166.057525 279.480397 
L 170.536455 277.250469 
L 175.015385 274.804879 
L 179.494314 272.121136 
L 183.973244 269.174713 
L 188.452174 265.93905 
L 192.931104 262.38564 
L 197.410033 258.484233 
L 201.888963 254.203223 
L 206.367893 249.510256 
L 210.846823 244.373146 
L 215.325753 238.761185 
L 219.804682 232.646941 
L 224.283612 226.008634 
L 228.762542 218.833207 
L 233.241472 211.120121 
L 237.720401 202.885894 
L 242.199331 194.169262 
L 248.171237 181.91625 
L 255.63612 165.959897 
L 263.101003 150.016268 
L 267.579933 140.886319 
L 270.565886 135.145091 
L 273.551839 129.779208 
L 276.537793 124.874888 
L 279.523746 120.51656 
L 282.509699 116.783834 
L 284.002676 115.17486 
L 285.495652 113.748369 
L 286.988629 112.511575 
L 288.481605 111.470831 
L 289.974582 110.631555 
L 291.467559 109.998162 
L 292.960535 109.574011 
L 294.453512 109.361366 
L 295.946488 109.361366 
L 297.439465 109.574011 
L 298.932441 109.998162 
L 300.425418 110.631555 
L 301.918395 111.470831 
L 303.411371 112.511575 
L 304.904348 113.748369 
L 306.397324 115.17486 
L 307.890301 116.783834 
L 310.876254 120.51656 
L 313.862207 124.874888 
L 316.848161 129.779208 
L 319.834114 135.145091 
L 322.820067 140.886319 
L 327.298997 150.016268 
L 334.76388 165.959897 
L 343.721739 185.0367 
L 349.693645 197.124935 
L 354.172575 205.686667 
L 358.651505 213.750275 
L 363.130435 221.285033 
L 367.609365 228.280656 
L 372.088294 234.742323 
L 376.567224 240.686384 
L 381.046154 246.136808 
L 385.525084 251.122354 
L 390.004013 255.674395 
L 394.482943 259.825297 
L 398.961873 263.60725 
L 403.440803 267.051464 
L 407.919732 270.187639 
L 412.398662 273.04365 
L 416.877592 275.645385 
L 421.356522 278.016688 
L 425.835452 280.179382 
L 431.807358 282.772566 
L 437.779264 285.072106 
L 443.751171 287.114804 
L 449.723077 288.932726 
L 457.18796 290.931161 
L 464.652843 292.668221 
L 472.117726 294.182897 
L 481.075585 295.752604 
L 490.033445 297.095529 
L 500.484281 298.425811 
L 512.428094 299.692486 
L 518.4 300.241436 
L 518.4 300.241436 
" style="fill:none;stroke:#04aa6d;stroke-linecap:square;"/>
   </g>
   <g id="patch_3">
    <path d="M 72 307.584 
L 72 41.472 
" style="fill:none;stroke:#000000;stroke-linecap:square;stroke-linejoin:miter;stroke-width:0.8;"/>
   </g>
   <g id="patch_4">
    <path d="M 518.4 307.584 
L 518.4 41.472 
" style="fill:none;stroke:#000000;stroke-linecap:square;stroke-linejoin:miter;stroke-width:0.8;"/>
   </g>
   <g id="patch_5">
    <path d="M 72 307.584 
L 518.4 307.584 
" style="fill:none;stroke:#000000;stroke-linecap:square;stroke-linejoin:miter;stroke-width:0.8;"/>
   </g>
   <g id="patch_6">
    <path d="M 72 41.472 
L 518.4 41.472 
" style="fill:none;stroke:#000000;stroke-linecap:square;stroke-linejoin:miter;stroke-width:0.8;"/>
   </g>
   <g id="text_16">
    <!-- T-distributions -->
    <g transform="translate(252.600937 35.472)scale(0.12 -0.12)">
     <defs>
      <path d="M -19 4666 
L 3928 4666 
L 3928 4134 
L 2272 4134 
L 2272 0 
L 1638 0 
L 1638 4134 
L -19 4134 
L -19 4666 
z
" id="DejaVuSans-54" transform="scale(0.015625)"/>
      <path d="M 2906 2969 
L 2906 4863 
L 3481 4863 
L 3481 0 
L 2906 0 
L 2906 525 
Q 2725 213 2448 61 
Q 2172 -91 1784 -91 
Q 1150 -91 751 415 
Q 353 922 353 1747 
Q 353 2572 751 3078 
Q 1150 3584 1784 3584 
Q 2172 3584 2448 3432 
Q 2725 3281 2906 2969 
z
M 947 1747 
Q 947 1113 1208 752 
Q 1469 391 1925 391 
Q 2381 391 2643 752 
Q 2906 1113 2906 1747 
Q 2906 2381 2643 2742 
Q 2381 3103 1925 3103 
Q 1469 3103 1208 2742 
Q 947 2381 947 1747 
z
" id="DejaVuSans-64" transform="scale(0.015625)"/>
      <path d="M 603 3500 
L 1178 3500 
L 1178 0 
L 603 0 
L 603 3500 
z
M 603 4863 
L 1178 4863 
L 1178 4134 
L 603 4134 
L 603 4863 
z
" id="DejaVuSans-69" transform="scale(0.015625)"/>
      <path d="M 2834 3397 
L 2834 2853 
Q 2591 2978 2328 3040 
Q 2066 3103 1784 3103 
Q 1356 3103 1142 2972 
Q 928 2841 928 2578 
Q 928 2378 1081 2264 
Q 1234 2150 1697 2047 
L 1894 2003 
Q 2506 1872 2764 1633 
Q 3022 1394 3022 966 
Q 3022 478 2636 193 
Q 2250 -91 1575 -91 
Q 1294 -91 989 -36 
Q 684 19 347 128 
L 347 722 
Q 666 556 975 473 
Q 1284 391 1588 391 
Q 1994 391 2212 530 
Q 2431 669 2431 922 
Q 2431 1156 2273 1281 
Q 2116 1406 1581 1522 
L 1381 1569 
Q 847 1681 609 1914 
Q 372 2147 372 2553 
Q 372 3047 722 3315 
Q 1072 3584 1716 3584 
Q 2034 3584 2315 3537 
Q 2597 3491 2834 3397 
z
" id="DejaVuSans-73" transform="scale(0.015625)"/>
      <path d="M 2631 2963 
Q 2534 3019 2420 3045 
Q 2306 3072 2169 3072 
Q 1681 3072 1420 2755 
Q 1159 2438 1159 1844 
L 1159 0 
L 581 0 
L 581 3500 
L 1159 3500 
L 1159 2956 
Q 1341 3275 1631 3429 
Q 1922 3584 2338 3584 
Q 2397 3584 2469 3576 
Q 2541 3569 2628 3553 
L 2631 2963 
z
" id="DejaVuSans-72" transform="scale(0.015625)"/>
      <path d="M 3116 1747 
Q 3116 2381 2855 2742 
Q 2594 3103 2138 3103 
Q 1681 3103 1420 2742 
Q 1159 2381 1159 1747 
Q 1159 1113 1420 752 
Q 1681 391 2138 391 
Q 2594 391 2855 752 
Q 3116 1113 3116 1747 
z
M 1159 2969 
Q 1341 3281 1617 3432 
Q 1894 3584 2278 3584 
Q 2916 3584 3314 3078 
Q 3713 2572 3713 1747 
Q 3713 922 3314 415 
Q 2916 -91 2278 -91 
Q 1894 -91 1617 61 
Q 1341 213 1159 525 
L 1159 0 
L 581 0 
L 581 4863 
L 1159 4863 
L 1159 2969 
z
" id="DejaVuSans-62" transform="scale(0.015625)"/>
      <path d="M 1959 3097 
Q 1497 3097 1228 2736 
Q 959 2375 959 1747 
Q 959 1119 1226 758 
Q 1494 397 1959 397 
Q 2419 397 2687 759 
Q 2956 1122 2956 1747 
Q 2956 2369 2687 2733 
Q 2419 3097 1959 3097 
z
M 1959 3584 
Q 2709 3584 3137 3096 
Q 3566 2609 3566 1747 
Q 3566 888 3137 398 
Q 2709 -91 1959 -91 
Q 1206 -91 779 398 
Q 353 888 353 1747 
Q 353 2609 779 3096 
Q 1206 3584 1959 3584 
z
" id="DejaVuSans-6f" transform="scale(0.015625)"/>
      <path d="M 3513 2113 
L 3513 0 
L 2938 0 
L 2938 2094 
Q 2938 2591 2744 2837 
Q 2550 3084 2163 3084 
Q 1697 3084 1428 2787 
Q 1159 2491 1159 1978 
L 1159 0 
L 581 0 
L 581 3500 
L 1159 3500 
L 1159 2956 
Q 1366 3272 1645 3428 
Q 1925 3584 2291 3584 
Q 2894 3584 3203 3211 
Q 3513 2838 3513 2113 
z
" id="DejaVuSans-6e" transform="scale(0.015625)"/>
     </defs>
     <use xlink:href="#DejaVuSans-54"/>
     <use x="51.958984" xlink:href="#DejaVuSans-2d"/>
     <use x="88.042969" xlink:href="#DejaVuSans-64"/>
     <use x="151.519531" xlink:href="#DejaVuSans-69"/>
     <use x="179.302734" xlink:href="#DejaVuSans-73"/>
     <use x="231.402344" xlink:href="#DejaVuSans-74"/>
     <use x="270.611328" xlink:href="#DejaVuSans-72"/>
     <use x="311.724609" xlink:href="#DejaVuSans-69"/>
     <use x="339.507812" xlink:href="#DejaVuSans-62"/>
     <use x="402.984375" xlink:href="#DejaVuSans-75"/>
     <use x="466.363281" xlink:href="#DejaVuSans-74"/>
     <use x="505.572266" xlink:href="#DejaVuSans-69"/>
     <use x="533.355469" xlink:href="#DejaVuSans-6f"/>
     <use x="594.537109" xlink:href="#DejaVuSans-6e"/>
     <use x="657.916016" xlink:href="#DejaVuSans-73"/>
    </g>
   </g>
  </g>
 </g>
 <defs>
  <clipPath id="pdbb685ac22">
   <rect height="266.112" width="446.4" x="72" y="41.472"/>
  </clipPath>
 </defs>
</svg>
