<?xml version="1.0" encoding="utf-8" standalone="no"?>
<!DOCTYPE svg PUBLIC "-//W3C//DTD SVG 1.1//EN"
  "http://www.w3.org/Graphics/SVG/1.1/DTD/svg11.dtd">
<svg height="446.4pt" version="1.1" viewBox="0 0 460.8 446.4" width="460.8pt" xmlns="http://www.w3.org/2000/svg" xmlns:xlink="http://www.w3.org/1999/xlink">
 <metadata>
  <rdf:RDF xmlns:cc="http://creativecommons.org/ns#" xmlns:dc="http://purl.org/dc/elements/1.1/" xmlns:rdf="http://www.w3.org/1999/02/22-rdf-syntax-ns#">
   <cc:Work>
    <dc:type rdf:resource="http://purl.org/dc/dcmitype/StillImage"/>
    <dc:date>2021-07-19T06:41:39.585171</dc:date>
    <dc:format>image/svg+xml</dc:format>
    <dc:creator>
     <cc:Agent>
      <dc:title>Matplotlib v3.4.2, https://matplotlib.org/</dc:title>
     </cc:Agent>
    </dc:creator>
   </cc:Work>
  </rdf:RDF>
 </metadata>
 <defs>
  <style type="text/css">*{stroke-linecap:butt;stroke-linejoin:round;}</style>
 </defs>
 <g id="figure_1">
  <g id="patch_1">
   <path d="M 0 446.4 
L 460.8 446.4 
L 460.8 0 
L 0 0 
z
" style="fill:#ffffff;"/>
  </g>
  <g id="axes_1">
   <g id="patch_2">
    <path d="M 33.64 202.08 
L 450 202.08 
L 450 26.88 
L 33.64 26.88 
z
" style="fill:#ffffff;"/>
   </g>
   <g id="PolyCollection_1">
    <defs>
     <path d="M 113.684098 -244.32 
L 113.684098 -252.790255 
L 112.875572 -252.51699 
L 112.067046 -252.251477 
L 111.25852 -251.993543 
L 110.449993 -251.743018 
L 109.641467 -251.499732 
L 108.832941 -251.263517 
L 108.024415 -251.034208 
L 107.215888 -250.811642 
L 106.407362 -250.595658 
L 105.598836 -250.386097 
L 104.79031 -250.182802 
L 103.981783 -249.985619 
L 103.173257 -249.794395 
L 102.364731 -249.608983 
L 101.556205 -249.429233 
L 100.747678 -249.255001 
L 99.939152 -249.086146 
L 99.130626 -248.922526 
L 98.3221 -248.764005 
L 97.513573 -248.610448 
L 96.705047 -248.461722 
L 95.896521 -248.317697 
L 95.087995 -248.178246 
L 94.279468 -248.043243 
L 93.470942 -247.912567 
L 92.662416 -247.786097 
L 91.85389 -247.663716 
L 91.045363 -247.545308 
L 90.236837 -247.430762 
L 89.428311 -247.319966 
L 88.619785 -247.212814 
L 87.811258 -247.109199 
L 87.002732 -247.00902 
L 86.194206 -246.912174 
L 85.38568 -246.818564 
L 84.577153 -246.728094 
L 83.768627 -246.64067 
L 82.960101 -246.556201 
L 82.151575 -246.474597 
L 81.343048 -246.395772 
L 80.534522 -246.31964 
L 79.725996 -246.246118 
L 78.91747 -246.175127 
L 78.108944 -246.106588 
L 77.300417 -246.040423 
L 76.491891 -245.976559 
L 75.683365 -245.914922 
L 74.874839 -245.855443 
L 74.066312 -245.798052 
L 73.257786 -245.742683 
L 72.44926 -245.68927 
L 71.640734 -245.63775 
L 70.832207 -245.588063 
L 70.023681 -245.540147 
L 69.215155 -245.493945 
L 68.406629 -245.4494 
L 67.598102 -245.406459 
L 66.789576 -245.365066 
L 65.98105 -245.325172 
L 65.172524 -245.286725 
L 64.363997 -245.249677 
L 63.555471 -245.21398 
L 62.746945 -245.17959 
L 61.938419 -245.14646 
L 61.129892 -245.11455 
L 60.321366 -245.083815 
L 59.51284 -245.054217 
L 58.704314 -245.025715 
L 57.895787 -244.998272 
L 57.087261 -244.971851 
L 56.278735 -244.946417 
L 55.470209 -244.921933 
L 54.661682 -244.898368 
L 53.853156 -244.875689 
L 53.04463 -244.853864 
L 52.236104 -244.832864 
L 51.427577 -244.812658 
L 50.619051 -244.793218 
L 49.810525 -244.774517 
L 49.001999 -244.756528 
L 48.193472 -244.739226 
L 47.384946 -244.722586 
L 46.57642 -244.706583 
L 45.767894 -244.691195 
L 44.959367 -244.676399 
L 44.150841 -244.662173 
L 43.342315 -244.648497 
L 42.533789 -244.63535 
L 41.725262 -244.622712 
L 40.916736 -244.610566 
L 40.10821 -244.598892 
L 39.299684 -244.587673 
L 38.491157 -244.576892 
L 37.682631 -244.566533 
L 36.874105 -244.556579 
L 36.065579 -244.547017 
L 35.257052 -244.53783 
L 34.448526 -244.529005 
L 33.64 -244.520528 
L 33.64 -244.32 
L 33.64 -244.32 
L 34.448526 -244.32 
L 35.257052 -244.32 
L 36.065579 -244.32 
L 36.874105 -244.32 
L 37.682631 -244.32 
L 38.491157 -244.32 
L 39.299684 -244.32 
L 40.10821 -244.32 
L 40.916736 -244.32 
L 41.725262 -244.32 
L 42.533789 -244.32 
L 43.342315 -244.32 
L 44.150841 -244.32 
L 44.959367 -244.32 
L 45.767894 -244.32 
L 46.57642 -244.32 
L 47.384946 -244.32 
L 48.193472 -244.32 
L 49.001999 -244.32 
L 49.810525 -244.32 
L 50.619051 -244.32 
L 51.427577 -244.32 
L 52.236104 -244.32 
L 53.04463 -244.32 
L 53.853156 -244.32 
L 54.661682 -244.32 
L 55.470209 -244.32 
L 56.278735 -244.32 
L 57.087261 -244.32 
L 57.895787 -244.32 
L 58.704314 -244.32 
L 59.51284 -244.32 
L 60.321366 -244.32 
L 61.129892 -244.32 
L 61.938419 -244.32 
L 62.746945 -244.32 
L 63.555471 -244.32 
L 64.363997 -244.32 
L 65.172524 -244.32 
L 65.98105 -244.32 
L 66.789576 -244.32 
L 67.598102 -244.32 
L 68.406629 -244.32 
L 69.215155 -244.32 
L 70.023681 -244.32 
L 70.832207 -244.32 
L 71.640734 -244.32 
L 72.44926 -244.32 
L 73.257786 -244.32 
L 74.066312 -244.32 
L 74.874839 -244.32 
L 75.683365 -244.32 
L 76.491891 -244.32 
L 77.300417 -244.32 
L 78.108944 -244.32 
L 78.91747 -244.32 
L 79.725996 -244.32 
L 80.534522 -244.32 
L 81.343048 -244.32 
L 82.151575 -244.32 
L 82.960101 -244.32 
L 83.768627 -244.32 
L 84.577153 -244.32 
L 85.38568 -244.32 
L 86.194206 -244.32 
L 87.002732 -244.32 
L 87.811258 -244.32 
L 88.619785 -244.32 
L 89.428311 -244.32 
L 90.236837 -244.32 
L 91.045363 -244.32 
L 91.85389 -244.32 
L 92.662416 -244.32 
L 93.470942 -244.32 
L 94.279468 -244.32 
L 95.087995 -244.32 
L 95.896521 -244.32 
L 96.705047 -244.32 
L 97.513573 -244.32 
L 98.3221 -244.32 
L 99.130626 -244.32 
L 99.939152 -244.32 
L 100.747678 -244.32 
L 101.556205 -244.32 
L 102.364731 -244.32 
L 103.173257 -244.32 
L 103.981783 -244.32 
L 104.79031 -244.32 
L 105.598836 -244.32 
L 106.407362 -244.32 
L 107.215888 -244.32 
L 108.024415 -244.32 
L 108.832941 -244.32 
L 109.641467 -244.32 
L 110.449993 -244.32 
L 111.25852 -244.32 
L 112.067046 -244.32 
L 112.875572 -244.32 
L 113.684098 -244.32 
z
" id="mdebe5c18fe" style="stroke:#d62728;stroke-opacity:0.7;"/>
    </defs>
    <g clip-path="url(#p2eaf77a74c)">
     <use style="fill:#d62728;fill-opacity:0.7;stroke:#d62728;stroke-opacity:0.7;" x="0" xlink:href="#mdebe5c18fe" y="446.4"/>
    </g>
   </g>
   <g id="matplotlib.axis_1">
    <g id="xtick_1">
     <g id="line2d_1">
      <defs>
       <path d="M 0 0 
L 0 3.5 
" id="m26525a5c1d" style="stroke:#000000;stroke-width:0.8;"/>
      </defs>
      <g>
       <use style="stroke:#000000;stroke-width:0.8;" x="113.684098" xlink:href="#m26525a5c1d" y="202.08"/>
      </g>
     </g>
     <g id="text_1">
      <!-- CV -->
      <g transform="translate(106.77238 216.678438)scale(0.1 -0.1)">
       <defs>
        <path d="M 4122 4306 
L 4122 3641 
Q 3803 3938 3442 4084 
Q 3081 4231 2675 4231 
Q 1875 4231 1450 3742 
Q 1025 3253 1025 2328 
Q 1025 1406 1450 917 
Q 1875 428 2675 428 
Q 3081 428 3442 575 
Q 3803 722 4122 1019 
L 4122 359 
Q 3791 134 3420 21 
Q 3050 -91 2638 -91 
Q 1578 -91 968 557 
Q 359 1206 359 2328 
Q 359 3453 968 4101 
Q 1578 4750 2638 4750 
Q 3056 4750 3426 4639 
Q 3797 4528 4122 4306 
z
" id="DejaVuSans-43" transform="scale(0.015625)"/>
        <path d="M 1831 0 
L 50 4666 
L 709 4666 
L 2188 738 
L 3669 4666 
L 4325 4666 
L 2547 0 
L 1831 0 
z
" id="DejaVuSans-56" transform="scale(0.015625)"/>
       </defs>
       <use xlink:href="#DejaVuSans-43"/>
       <use x="69.824219" xlink:href="#DejaVuSans-56"/>
      </g>
     </g>
    </g>
    <g id="xtick_2">
     <g id="line2d_2">
      <g>
       <use style="stroke:#000000;stroke-width:0.8;" x="241.82" xlink:href="#m26525a5c1d" y="202.08"/>
      </g>
     </g>
     <g id="text_2">
      <!-- 0 -->
      <g transform="translate(238.63875 216.678438)scale(0.1 -0.1)">
       <defs>
        <path d="M 2034 4250 
Q 1547 4250 1301 3770 
Q 1056 3291 1056 2328 
Q 1056 1369 1301 889 
Q 1547 409 2034 409 
Q 2525 409 2770 889 
Q 3016 1369 3016 2328 
Q 3016 3291 2770 3770 
Q 2525 4250 2034 4250 
z
M 2034 4750 
Q 2819 4750 3233 4129 
Q 3647 3509 3647 2328 
Q 3647 1150 3233 529 
Q 2819 -91 2034 -91 
Q 1250 -91 836 529 
Q 422 1150 422 2328 
Q 422 3509 836 4129 
Q 1250 4750 2034 4750 
z
" id="DejaVuSans-30" transform="scale(0.015625)"/>
       </defs>
       <use xlink:href="#DejaVuSans-30"/>
      </g>
     </g>
    </g>
   </g>
   <g id="matplotlib.axis_2">
    <g id="ytick_1">
     <g id="line2d_3">
      <defs>
       <path d="M 0 0 
L -3.5 0 
" id="m341efc7933" style="stroke:#000000;stroke-width:0.8;"/>
      </defs>
      <g>
       <use style="stroke:#000000;stroke-width:0.8;" x="33.64" xlink:href="#m341efc7933" y="202.08"/>
      </g>
     </g>
     <g id="text_3">
      <!-- 0.0 -->
      <g transform="translate(10.736875 205.879219)scale(0.1 -0.1)">
       <defs>
        <path d="M 684 794 
L 1344 794 
L 1344 0 
L 684 0 
L 684 794 
z
" id="DejaVuSans-2e" transform="scale(0.015625)"/>
       </defs>
       <use xlink:href="#DejaVuSans-30"/>
       <use x="63.623047" xlink:href="#DejaVuSans-2e"/>
       <use x="95.410156" xlink:href="#DejaVuSans-30"/>
      </g>
     </g>
    </g>
    <g id="ytick_2">
     <g id="line2d_4">
      <g>
       <use style="stroke:#000000;stroke-width:0.8;" x="33.64" xlink:href="#m341efc7933" y="165.16302"/>
      </g>
     </g>
     <g id="text_4">
      <!-- 0.1 -->
      <g transform="translate(10.736875 168.962238)scale(0.1 -0.1)">
       <defs>
        <path d="M 794 531 
L 1825 531 
L 1825 4091 
L 703 3866 
L 703 4441 
L 1819 4666 
L 2450 4666 
L 2450 531 
L 3481 531 
L 3481 0 
L 794 0 
L 794 531 
z
" id="DejaVuSans-31" transform="scale(0.015625)"/>
       </defs>
       <use xlink:href="#DejaVuSans-30"/>
       <use x="63.623047" xlink:href="#DejaVuSans-2e"/>
       <use x="95.410156" xlink:href="#DejaVuSans-31"/>
      </g>
     </g>
    </g>
    <g id="ytick_3">
     <g id="line2d_5">
      <g>
       <use style="stroke:#000000;stroke-width:0.8;" x="33.64" xlink:href="#m341efc7933" y="128.246039"/>
      </g>
     </g>
     <g id="text_5">
      <!-- 0.2 -->
      <g transform="translate(10.736875 132.045258)scale(0.1 -0.1)">
       <defs>
        <path d="M 1228 531 
L 3431 531 
L 3431 0 
L 469 0 
L 469 531 
Q 828 903 1448 1529 
Q 2069 2156 2228 2338 
Q 2531 2678 2651 2914 
Q 2772 3150 2772 3378 
Q 2772 3750 2511 3984 
Q 2250 4219 1831 4219 
Q 1534 4219 1204 4116 
Q 875 4013 500 3803 
L 500 4441 
Q 881 4594 1212 4672 
Q 1544 4750 1819 4750 
Q 2544 4750 2975 4387 
Q 3406 4025 3406 3419 
Q 3406 3131 3298 2873 
Q 3191 2616 2906 2266 
Q 2828 2175 2409 1742 
Q 1991 1309 1228 531 
z
" id="DejaVuSans-32" transform="scale(0.015625)"/>
       </defs>
       <use xlink:href="#DejaVuSans-30"/>
       <use x="63.623047" xlink:href="#DejaVuSans-2e"/>
       <use x="95.410156" xlink:href="#DejaVuSans-32"/>
      </g>
     </g>
    </g>
    <g id="ytick_4">
     <g id="line2d_6">
      <g>
       <use style="stroke:#000000;stroke-width:0.8;" x="33.64" xlink:href="#m341efc7933" y="91.329059"/>
      </g>
     </g>
     <g id="text_6">
      <!-- 0.3 -->
      <g transform="translate(10.736875 95.128278)scale(0.1 -0.1)">
       <defs>
        <path d="M 2597 2516 
Q 3050 2419 3304 2112 
Q 3559 1806 3559 1356 
Q 3559 666 3084 287 
Q 2609 -91 1734 -91 
Q 1441 -91 1130 -33 
Q 819 25 488 141 
L 488 750 
Q 750 597 1062 519 
Q 1375 441 1716 441 
Q 2309 441 2620 675 
Q 2931 909 2931 1356 
Q 2931 1769 2642 2001 
Q 2353 2234 1838 2234 
L 1294 2234 
L 1294 2753 
L 1863 2753 
Q 2328 2753 2575 2939 
Q 2822 3125 2822 3475 
Q 2822 3834 2567 4026 
Q 2313 4219 1838 4219 
Q 1578 4219 1281 4162 
Q 984 4106 628 3988 
L 628 4550 
Q 988 4650 1302 4700 
Q 1616 4750 1894 4750 
Q 2613 4750 3031 4423 
Q 3450 4097 3450 3541 
Q 3450 3153 3228 2886 
Q 3006 2619 2597 2516 
z
" id="DejaVuSans-33" transform="scale(0.015625)"/>
       </defs>
       <use xlink:href="#DejaVuSans-30"/>
       <use x="63.623047" xlink:href="#DejaVuSans-2e"/>
       <use x="95.410156" xlink:href="#DejaVuSans-33"/>
      </g>
     </g>
    </g>
    <g id="ytick_5">
     <g id="line2d_7">
      <g>
       <use style="stroke:#000000;stroke-width:0.8;" x="33.64" xlink:href="#m341efc7933" y="54.412079"/>
      </g>
     </g>
     <g id="text_7">
      <!-- 0.4 -->
      <g transform="translate(10.736875 58.211298)scale(0.1 -0.1)">
       <defs>
        <path d="M 2419 4116 
L 825 1625 
L 2419 1625 
L 2419 4116 
z
M 2253 4666 
L 3047 4666 
L 3047 1625 
L 3713 1625 
L 3713 1100 
L 3047 1100 
L 3047 0 
L 2419 0 
L 2419 1100 
L 313 1100 
L 313 1709 
L 2253 4666 
z
" id="DejaVuSans-34" transform="scale(0.015625)"/>
       </defs>
       <use xlink:href="#DejaVuSans-30"/>
       <use x="63.623047" xlink:href="#DejaVuSans-2e"/>
       <use x="95.410156" xlink:href="#DejaVuSans-34"/>
      </g>
     </g>
    </g>
   </g>
   <g id="LineCollection_1">
    <path clip-path="url(#p2eaf77a74c)" d="M 113.684098 202.08 
L 113.684098 193.609745 
" style="fill:none;stroke:#000000;"/>
   </g>
   <g id="line2d_8">
    <path clip-path="url(#p2eaf77a74c)" d="M 33.64 201.879472 
L 51.742609 201.579562 
L 64.275184 201.15431 
L 74.022742 200.604983 
L 82.377793 199.902855 
L 89.340334 199.091868 
L 94.910368 198.25179 
L 100.480401 197.201406 
L 106.050435 195.897636 
L 110.22796 194.724506 
L 114.405485 193.359244 
L 118.58301 191.778053 
L 122.760535 189.95603 
L 126.93806 187.867582 
L 131.115585 185.486965 
L 135.29311 182.78896 
L 139.470635 179.749687 
L 143.648161 176.347556 
L 147.825686 172.564334 
L 152.003211 168.386325 
L 156.180736 163.805616 
L 160.358261 158.82136 
L 164.535786 153.441032 
L 168.713311 147.681601 
L 172.890836 141.570561 
L 178.46087 132.944317 
L 184.030903 123.888007 
L 195.17097 105.167964 
L 202.133512 93.670648 
L 206.311037 87.091023 
L 210.488562 80.884333 
L 214.666087 75.16003 
L 217.451104 71.664269 
L 220.23612 68.459719 
L 223.021137 65.574226 
L 225.806154 63.033369 
L 228.591171 60.860058 
L 231.376187 59.074176 
L 234.161204 57.69225 
L 236.946221 56.727193 
L 239.731237 56.188079 
L 242.516254 56.08 
L 245.301271 56.40398 
L 248.086288 57.156954 
L 250.871304 58.331824 
L 253.656321 59.917573 
L 256.441338 61.899453 
L 259.226355 64.259219 
L 262.011371 66.975433 
L 264.796388 70.023804 
L 267.581405 73.377566 
L 270.366421 77.007894 
L 274.543946 82.904991 
L 278.721472 89.248243 
L 284.291505 98.209892 
L 292.646555 112.212973 
L 302.394114 128.460657 
L 307.964147 137.319873 
L 312.141672 143.644486 
L 316.319197 149.642063 
L 320.496722 155.277642 
L 324.674247 160.527341 
L 328.851773 165.377475 
L 333.029298 169.823481 
L 337.206823 173.868704 
L 341.384348 177.523124 
L 345.561873 180.802088 
L 349.739398 183.725071 
L 353.916923 186.314543 
L 358.094448 188.594927 
L 362.271973 190.591701 
L 366.449498 192.330627 
L 370.627023 193.837122 
L 374.804548 195.135761 
L 380.374582 196.584104 
L 385.944615 197.755448 
L 391.514649 198.695644 
L 398.477191 199.606684 
L 405.439732 200.285791 
L 413.794783 200.870197 
L 423.542341 201.324486 
L 436.074916 201.673763 
L 450 201.879472 
L 450 201.879472 
" style="fill:none;stroke:#000000;stroke-linecap:square;"/>
   </g>
   <g id="patch_3">
    <path d="M 33.64 202.08 
L 33.64 26.88 
" style="fill:none;stroke:#000000;stroke-linecap:square;stroke-linejoin:miter;stroke-width:0.8;"/>
   </g>
   <g id="patch_4">
    <path d="M 450 202.08 
L 450 26.88 
" style="fill:none;stroke:#000000;stroke-linecap:square;stroke-linejoin:miter;stroke-width:0.8;"/>
   </g>
   <g id="patch_5">
    <path d="M 33.64 202.08 
L 450 202.08 
" style="fill:none;stroke:#000000;stroke-linecap:square;stroke-linejoin:miter;stroke-width:0.8;"/>
   </g>
   <g id="patch_6">
    <path d="M 33.64 26.88 
L 450 26.88 
" style="fill:none;stroke:#000000;stroke-linecap:square;stroke-linejoin:miter;stroke-width:0.8;"/>
   </g>
   <g id="patch_7">
    <path d="M 73.351195 187.2803 
Q 79.428728 192.671859 84.920811 197.544047 
" style="fill:none;stroke:#000000;stroke-linecap:round;stroke-width:0.7;"/>
    <path d="M 83.255817 193.393409 
L 84.920811 197.544047 
L 80.601304 196.385659 
" style="fill:none;stroke:#000000;stroke-linecap:round;stroke-width:0.7;"/>
   </g>
   <g id="text_8">
    <!-- 0.01 -->
    <g style="fill:#d62728;" transform="translate(53.010375 181.87098)scale(0.1 -0.1)">
     <use xlink:href="#DejaVuSans-30"/>
     <use x="63.623047" xlink:href="#DejaVuSans-2e"/>
     <use x="95.410156" xlink:href="#DejaVuSans-30"/>
     <use x="159.033203" xlink:href="#DejaVuSans-31"/>
    </g>
   </g>
   <g id="text_9">
    <!-- Significance Level ($\alpha$) = 0.01 -->
    <g style="fill:#d62728;" transform="translate(39.8854 39.144)scale(0.09 -0.09)">
     <defs>
      <path d="M 3425 4513 
L 3425 3897 
Q 3066 4069 2747 4153 
Q 2428 4238 2131 4238 
Q 1616 4238 1336 4038 
Q 1056 3838 1056 3469 
Q 1056 3159 1242 3001 
Q 1428 2844 1947 2747 
L 2328 2669 
Q 3034 2534 3370 2195 
Q 3706 1856 3706 1288 
Q 3706 609 3251 259 
Q 2797 -91 1919 -91 
Q 1588 -91 1214 -16 
Q 841 59 441 206 
L 441 856 
Q 825 641 1194 531 
Q 1563 422 1919 422 
Q 2459 422 2753 634 
Q 3047 847 3047 1241 
Q 3047 1584 2836 1778 
Q 2625 1972 2144 2069 
L 1759 2144 
Q 1053 2284 737 2584 
Q 422 2884 422 3419 
Q 422 4038 858 4394 
Q 1294 4750 2059 4750 
Q 2388 4750 2728 4690 
Q 3069 4631 3425 4513 
z
" id="DejaVuSans-53" transform="scale(0.015625)"/>
      <path d="M 603 3500 
L 1178 3500 
L 1178 0 
L 603 0 
L 603 3500 
z
M 603 4863 
L 1178 4863 
L 1178 4134 
L 603 4134 
L 603 4863 
z
" id="DejaVuSans-69" transform="scale(0.015625)"/>
      <path d="M 2906 1791 
Q 2906 2416 2648 2759 
Q 2391 3103 1925 3103 
Q 1463 3103 1205 2759 
Q 947 2416 947 1791 
Q 947 1169 1205 825 
Q 1463 481 1925 481 
Q 2391 481 2648 825 
Q 2906 1169 2906 1791 
z
M 3481 434 
Q 3481 -459 3084 -895 
Q 2688 -1331 1869 -1331 
Q 1566 -1331 1297 -1286 
Q 1028 -1241 775 -1147 
L 775 -588 
Q 1028 -725 1275 -790 
Q 1522 -856 1778 -856 
Q 2344 -856 2625 -561 
Q 2906 -266 2906 331 
L 2906 616 
Q 2728 306 2450 153 
Q 2172 0 1784 0 
Q 1141 0 747 490 
Q 353 981 353 1791 
Q 353 2603 747 3093 
Q 1141 3584 1784 3584 
Q 2172 3584 2450 3431 
Q 2728 3278 2906 2969 
L 2906 3500 
L 3481 3500 
L 3481 434 
z
" id="DejaVuSans-67" transform="scale(0.015625)"/>
      <path d="M 3513 2113 
L 3513 0 
L 2938 0 
L 2938 2094 
Q 2938 2591 2744 2837 
Q 2550 3084 2163 3084 
Q 1697 3084 1428 2787 
Q 1159 2491 1159 1978 
L 1159 0 
L 581 0 
L 581 3500 
L 1159 3500 
L 1159 2956 
Q 1366 3272 1645 3428 
Q 1925 3584 2291 3584 
Q 2894 3584 3203 3211 
Q 3513 2838 3513 2113 
z
" id="DejaVuSans-6e" transform="scale(0.015625)"/>
      <path d="M 2375 4863 
L 2375 4384 
L 1825 4384 
Q 1516 4384 1395 4259 
Q 1275 4134 1275 3809 
L 1275 3500 
L 2222 3500 
L 2222 3053 
L 1275 3053 
L 1275 0 
L 697 0 
L 697 3053 
L 147 3053 
L 147 3500 
L 697 3500 
L 697 3744 
Q 697 4328 969 4595 
Q 1241 4863 1831 4863 
L 2375 4863 
z
" id="DejaVuSans-66" transform="scale(0.015625)"/>
      <path d="M 3122 3366 
L 3122 2828 
Q 2878 2963 2633 3030 
Q 2388 3097 2138 3097 
Q 1578 3097 1268 2742 
Q 959 2388 959 1747 
Q 959 1106 1268 751 
Q 1578 397 2138 397 
Q 2388 397 2633 464 
Q 2878 531 3122 666 
L 3122 134 
Q 2881 22 2623 -34 
Q 2366 -91 2075 -91 
Q 1284 -91 818 406 
Q 353 903 353 1747 
Q 353 2603 823 3093 
Q 1294 3584 2113 3584 
Q 2378 3584 2631 3529 
Q 2884 3475 3122 3366 
z
" id="DejaVuSans-63" transform="scale(0.015625)"/>
      <path d="M 2194 1759 
Q 1497 1759 1228 1600 
Q 959 1441 959 1056 
Q 959 750 1161 570 
Q 1363 391 1709 391 
Q 2188 391 2477 730 
Q 2766 1069 2766 1631 
L 2766 1759 
L 2194 1759 
z
M 3341 1997 
L 3341 0 
L 2766 0 
L 2766 531 
Q 2569 213 2275 61 
Q 1981 -91 1556 -91 
Q 1019 -91 701 211 
Q 384 513 384 1019 
Q 384 1609 779 1909 
Q 1175 2209 1959 2209 
L 2766 2209 
L 2766 2266 
Q 2766 2663 2505 2880 
Q 2244 3097 1772 3097 
Q 1472 3097 1187 3025 
Q 903 2953 641 2809 
L 641 3341 
Q 956 3463 1253 3523 
Q 1550 3584 1831 3584 
Q 2591 3584 2966 3190 
Q 3341 2797 3341 1997 
z
" id="DejaVuSans-61" transform="scale(0.015625)"/>
      <path d="M 3597 1894 
L 3597 1613 
L 953 1613 
Q 991 1019 1311 708 
Q 1631 397 2203 397 
Q 2534 397 2845 478 
Q 3156 559 3463 722 
L 3463 178 
Q 3153 47 2828 -22 
Q 2503 -91 2169 -91 
Q 1331 -91 842 396 
Q 353 884 353 1716 
Q 353 2575 817 3079 
Q 1281 3584 2069 3584 
Q 2775 3584 3186 3129 
Q 3597 2675 3597 1894 
z
M 3022 2063 
Q 3016 2534 2758 2815 
Q 2500 3097 2075 3097 
Q 1594 3097 1305 2825 
Q 1016 2553 972 2059 
L 3022 2063 
z
" id="DejaVuSans-65" transform="scale(0.015625)"/>
      <path id="DejaVuSans-20" transform="scale(0.015625)"/>
      <path d="M 628 4666 
L 1259 4666 
L 1259 531 
L 3531 531 
L 3531 0 
L 628 0 
L 628 4666 
z
" id="DejaVuSans-4c" transform="scale(0.015625)"/>
      <path d="M 191 3500 
L 800 3500 
L 1894 563 
L 2988 3500 
L 3597 3500 
L 2284 0 
L 1503 0 
L 191 3500 
z
" id="DejaVuSans-76" transform="scale(0.015625)"/>
      <path d="M 603 4863 
L 1178 4863 
L 1178 0 
L 603 0 
L 603 4863 
z
" id="DejaVuSans-6c" transform="scale(0.015625)"/>
      <path d="M 1984 4856 
Q 1566 4138 1362 3434 
Q 1159 2731 1159 2009 
Q 1159 1288 1364 580 
Q 1569 -128 1984 -844 
L 1484 -844 
Q 1016 -109 783 600 
Q 550 1309 550 2009 
Q 550 2706 781 3412 
Q 1013 4119 1484 4856 
L 1984 4856 
z
" id="DejaVuSans-28" transform="scale(0.015625)"/>
      <path d="M 2619 1628 
L 2622 2350 
Q 2625 3088 2069 3091 
Q 1653 3094 1394 2747 
Q 1069 2319 959 1747 
Q 825 1059 994 731 
Q 1169 397 1547 397 
Q 1966 397 2319 1063 
L 2619 1628 
z
M 2166 3578 
Q 3141 3594 3128 2584 
Q 3128 2584 3616 3500 
L 4128 3500 
L 3119 1603 
L 3109 919 
Q 3109 766 3194 638 
Q 3291 488 3391 488 
L 3669 488 
L 3575 0 
L 3228 0 
Q 2934 0 2722 263 
Q 2622 394 2619 669 
Q 2416 334 2066 50 
Q 1900 -81 1453 -78 
Q 722 -72 456 397 
Q 184 884 353 1747 
Q 534 2675 1009 3097 
Q 1544 3569 2166 3578 
z
" id="DejaVuSans-Oblique-3b1" transform="scale(0.015625)"/>
      <path d="M 513 4856 
L 1013 4856 
Q 1481 4119 1714 3412 
Q 1947 2706 1947 2009 
Q 1947 1309 1714 600 
Q 1481 -109 1013 -844 
L 513 -844 
Q 928 -128 1133 580 
Q 1338 1288 1338 2009 
Q 1338 2731 1133 3434 
Q 928 4138 513 4856 
z
" id="DejaVuSans-29" transform="scale(0.015625)"/>
      <path d="M 678 2906 
L 4684 2906 
L 4684 2381 
L 678 2381 
L 678 2906 
z
M 678 1631 
L 4684 1631 
L 4684 1100 
L 678 1100 
L 678 1631 
z
" id="DejaVuSans-3d" transform="scale(0.015625)"/>
     </defs>
     <use transform="translate(0 0.015625)" xlink:href="#DejaVuSans-53"/>
     <use transform="translate(63.476562 0.015625)" xlink:href="#DejaVuSans-69"/>
     <use transform="translate(91.259766 0.015625)" xlink:href="#DejaVuSans-67"/>
     <use transform="translate(154.736328 0.015625)" xlink:href="#DejaVuSans-6e"/>
     <use transform="translate(218.115234 0.015625)" xlink:href="#DejaVuSans-69"/>
     <use transform="translate(245.898438 0.015625)" xlink:href="#DejaVuSans-66"/>
     <use transform="translate(281.103516 0.015625)" xlink:href="#DejaVuSans-69"/>
     <use transform="translate(308.886719 0.015625)" xlink:href="#DejaVuSans-63"/>
     <use transform="translate(363.867188 0.015625)" xlink:href="#DejaVuSans-61"/>
     <use transform="translate(425.146484 0.015625)" xlink:href="#DejaVuSans-6e"/>
     <use transform="translate(488.525391 0.015625)" xlink:href="#DejaVuSans-63"/>
     <use transform="translate(543.505859 0.015625)" xlink:href="#DejaVuSans-65"/>
     <use transform="translate(605.029297 0.015625)" xlink:href="#DejaVuSans-20"/>
     <use transform="translate(636.816406 0.015625)" xlink:href="#DejaVuSans-4c"/>
     <use transform="translate(692.529297 0.015625)" xlink:href="#DejaVuSans-65"/>
     <use transform="translate(754.052734 0.015625)" xlink:href="#DejaVuSans-76"/>
     <use transform="translate(813.232422 0.015625)" xlink:href="#DejaVuSans-65"/>
     <use transform="translate(874.755859 0.015625)" xlink:href="#DejaVuSans-6c"/>
     <use transform="translate(902.539062 0.015625)" xlink:href="#DejaVuSans-20"/>
     <use transform="translate(934.326172 0.015625)" xlink:href="#DejaVuSans-28"/>
     <use transform="translate(973.339844 0.015625)" xlink:href="#DejaVuSans-Oblique-3b1"/>
     <use transform="translate(1039.257812 0.015625)" xlink:href="#DejaVuSans-29"/>
     <use transform="translate(1078.271484 0.015625)" xlink:href="#DejaVuSans-20"/>
     <use transform="translate(1110.058594 0.015625)" xlink:href="#DejaVuSans-3d"/>
     <use transform="translate(1193.847656 0.015625)" xlink:href="#DejaVuSans-20"/>
     <use transform="translate(1225.634766 0.015625)" xlink:href="#DejaVuSans-30"/>
     <use transform="translate(1289.257812 0.015625)" xlink:href="#DejaVuSans-2e"/>
     <use transform="translate(1321.044922 0.015625)" xlink:href="#DejaVuSans-30"/>
     <use transform="translate(1384.667969 0.015625)" xlink:href="#DejaVuSans-31"/>
    </g>
   </g>
   <g id="text_10">
    <!-- Student's T-Distribution, df=29 -->
    <g transform="translate(148.836875 20.88)scale(0.12 -0.12)">
     <defs>
      <path d="M 1172 4494 
L 1172 3500 
L 2356 3500 
L 2356 3053 
L 1172 3053 
L 1172 1153 
Q 1172 725 1289 603 
Q 1406 481 1766 481 
L 2356 481 
L 2356 0 
L 1766 0 
Q 1100 0 847 248 
Q 594 497 594 1153 
L 594 3053 
L 172 3053 
L 172 3500 
L 594 3500 
L 594 4494 
L 1172 4494 
z
" id="DejaVuSans-74" transform="scale(0.015625)"/>
      <path d="M 544 1381 
L 544 3500 
L 1119 3500 
L 1119 1403 
Q 1119 906 1312 657 
Q 1506 409 1894 409 
Q 2359 409 2629 706 
Q 2900 1003 2900 1516 
L 2900 3500 
L 3475 3500 
L 3475 0 
L 2900 0 
L 2900 538 
Q 2691 219 2414 64 
Q 2138 -91 1772 -91 
Q 1169 -91 856 284 
Q 544 659 544 1381 
z
M 1991 3584 
L 1991 3584 
z
" id="DejaVuSans-75" transform="scale(0.015625)"/>
      <path d="M 2906 2969 
L 2906 4863 
L 3481 4863 
L 3481 0 
L 2906 0 
L 2906 525 
Q 2725 213 2448 61 
Q 2172 -91 1784 -91 
Q 1150 -91 751 415 
Q 353 922 353 1747 
Q 353 2572 751 3078 
Q 1150 3584 1784 3584 
Q 2172 3584 2448 3432 
Q 2725 3281 2906 2969 
z
M 947 1747 
Q 947 1113 1208 752 
Q 1469 391 1925 391 
Q 2381 391 2643 752 
Q 2906 1113 2906 1747 
Q 2906 2381 2643 2742 
Q 2381 3103 1925 3103 
Q 1469 3103 1208 2742 
Q 947 2381 947 1747 
z
" id="DejaVuSans-64" transform="scale(0.015625)"/>
      <path d="M 1147 4666 
L 1147 2931 
L 616 2931 
L 616 4666 
L 1147 4666 
z
" id="DejaVuSans-27" transform="scale(0.015625)"/>
      <path d="M 2834 3397 
L 2834 2853 
Q 2591 2978 2328 3040 
Q 2066 3103 1784 3103 
Q 1356 3103 1142 2972 
Q 928 2841 928 2578 
Q 928 2378 1081 2264 
Q 1234 2150 1697 2047 
L 1894 2003 
Q 2506 1872 2764 1633 
Q 3022 1394 3022 966 
Q 3022 478 2636 193 
Q 2250 -91 1575 -91 
Q 1294 -91 989 -36 
Q 684 19 347 128 
L 347 722 
Q 666 556 975 473 
Q 1284 391 1588 391 
Q 1994 391 2212 530 
Q 2431 669 2431 922 
Q 2431 1156 2273 1281 
Q 2116 1406 1581 1522 
L 1381 1569 
Q 847 1681 609 1914 
Q 372 2147 372 2553 
Q 372 3047 722 3315 
Q 1072 3584 1716 3584 
Q 2034 3584 2315 3537 
Q 2597 3491 2834 3397 
z
" id="DejaVuSans-73" transform="scale(0.015625)"/>
      <path d="M -19 4666 
L 3928 4666 
L 3928 4134 
L 2272 4134 
L 2272 0 
L 1638 0 
L 1638 4134 
L -19 4134 
L -19 4666 
z
" id="DejaVuSans-54" transform="scale(0.015625)"/>
      <path d="M 313 2009 
L 1997 2009 
L 1997 1497 
L 313 1497 
L 313 2009 
z
" id="DejaVuSans-2d" transform="scale(0.015625)"/>
      <path d="M 1259 4147 
L 1259 519 
L 2022 519 
Q 2988 519 3436 956 
Q 3884 1394 3884 2338 
Q 3884 3275 3436 3711 
Q 2988 4147 2022 4147 
L 1259 4147 
z
M 628 4666 
L 1925 4666 
Q 3281 4666 3915 4102 
Q 4550 3538 4550 2338 
Q 4550 1131 3912 565 
Q 3275 0 1925 0 
L 628 0 
L 628 4666 
z
" id="DejaVuSans-44" transform="scale(0.015625)"/>
      <path d="M 2631 2963 
Q 2534 3019 2420 3045 
Q 2306 3072 2169 3072 
Q 1681 3072 1420 2755 
Q 1159 2438 1159 1844 
L 1159 0 
L 581 0 
L 581 3500 
L 1159 3500 
L 1159 2956 
Q 1341 3275 1631 3429 
Q 1922 3584 2338 3584 
Q 2397 3584 2469 3576 
Q 2541 3569 2628 3553 
L 2631 2963 
z
" id="DejaVuSans-72" transform="scale(0.015625)"/>
      <path d="M 3116 1747 
Q 3116 2381 2855 2742 
Q 2594 3103 2138 3103 
Q 1681 3103 1420 2742 
Q 1159 2381 1159 1747 
Q 1159 1113 1420 752 
Q 1681 391 2138 391 
Q 2594 391 2855 752 
Q 3116 1113 3116 1747 
z
M 1159 2969 
Q 1341 3281 1617 3432 
Q 1894 3584 2278 3584 
Q 2916 3584 3314 3078 
Q 3713 2572 3713 1747 
Q 3713 922 3314 415 
Q 2916 -91 2278 -91 
Q 1894 -91 1617 61 
Q 1341 213 1159 525 
L 1159 0 
L 581 0 
L 581 4863 
L 1159 4863 
L 1159 2969 
z
" id="DejaVuSans-62" transform="scale(0.015625)"/>
      <path d="M 1959 3097 
Q 1497 3097 1228 2736 
Q 959 2375 959 1747 
Q 959 1119 1226 758 
Q 1494 397 1959 397 
Q 2419 397 2687 759 
Q 2956 1122 2956 1747 
Q 2956 2369 2687 2733 
Q 2419 3097 1959 3097 
z
M 1959 3584 
Q 2709 3584 3137 3096 
Q 3566 2609 3566 1747 
Q 3566 888 3137 398 
Q 2709 -91 1959 -91 
Q 1206 -91 779 398 
Q 353 888 353 1747 
Q 353 2609 779 3096 
Q 1206 3584 1959 3584 
z
" id="DejaVuSans-6f" transform="scale(0.015625)"/>
      <path d="M 750 794 
L 1409 794 
L 1409 256 
L 897 -744 
L 494 -744 
L 750 256 
L 750 794 
z
" id="DejaVuSans-2c" transform="scale(0.015625)"/>
      <path d="M 703 97 
L 703 672 
Q 941 559 1184 500 
Q 1428 441 1663 441 
Q 2288 441 2617 861 
Q 2947 1281 2994 2138 
Q 2813 1869 2534 1725 
Q 2256 1581 1919 1581 
Q 1219 1581 811 2004 
Q 403 2428 403 3163 
Q 403 3881 828 4315 
Q 1253 4750 1959 4750 
Q 2769 4750 3195 4129 
Q 3622 3509 3622 2328 
Q 3622 1225 3098 567 
Q 2575 -91 1691 -91 
Q 1453 -91 1209 -44 
Q 966 3 703 97 
z
M 1959 2075 
Q 2384 2075 2632 2365 
Q 2881 2656 2881 3163 
Q 2881 3666 2632 3958 
Q 2384 4250 1959 4250 
Q 1534 4250 1286 3958 
Q 1038 3666 1038 3163 
Q 1038 2656 1286 2365 
Q 1534 2075 1959 2075 
z
" id="DejaVuSans-39" transform="scale(0.015625)"/>
     </defs>
     <use xlink:href="#DejaVuSans-53"/>
     <use x="63.476562" xlink:href="#DejaVuSans-74"/>
     <use x="102.685547" xlink:href="#DejaVuSans-75"/>
     <use x="166.064453" xlink:href="#DejaVuSans-64"/>
     <use x="229.541016" xlink:href="#DejaVuSans-65"/>
     <use x="291.064453" xlink:href="#DejaVuSans-6e"/>
     <use x="354.443359" xlink:href="#DejaVuSans-74"/>
     <use x="393.652344" xlink:href="#DejaVuSans-27"/>
     <use x="421.142578" xlink:href="#DejaVuSans-73"/>
     <use x="473.242188" xlink:href="#DejaVuSans-20"/>
     <use x="505.029297" xlink:href="#DejaVuSans-54"/>
     <use x="556.988281" xlink:href="#DejaVuSans-2d"/>
     <use x="593.072266" xlink:href="#DejaVuSans-44"/>
     <use x="670.074219" xlink:href="#DejaVuSans-69"/>
     <use x="697.857422" xlink:href="#DejaVuSans-73"/>
     <use x="749.957031" xlink:href="#DejaVuSans-74"/>
     <use x="789.166016" xlink:href="#DejaVuSans-72"/>
     <use x="830.279297" xlink:href="#DejaVuSans-69"/>
     <use x="858.0625" xlink:href="#DejaVuSans-62"/>
     <use x="921.539062" xlink:href="#DejaVuSans-75"/>
     <use x="984.917969" xlink:href="#DejaVuSans-74"/>
     <use x="1024.126953" xlink:href="#DejaVuSans-69"/>
     <use x="1051.910156" xlink:href="#DejaVuSans-6f"/>
     <use x="1113.091797" xlink:href="#DejaVuSans-6e"/>
     <use x="1176.470703" xlink:href="#DejaVuSans-2c"/>
     <use x="1208.257812" xlink:href="#DejaVuSans-20"/>
     <use x="1240.044922" xlink:href="#DejaVuSans-64"/>
     <use x="1303.521484" xlink:href="#DejaVuSans-66"/>
     <use x="1338.726562" xlink:href="#DejaVuSans-3d"/>
     <use x="1422.515625" xlink:href="#DejaVuSans-32"/>
     <use x="1486.138672" xlink:href="#DejaVuSans-39"/>
    </g>
   </g>
  </g>
  <g id="axes_2">
   <g id="patch_8">
    <path d="M 33.64 405.16 
L 450 405.16 
L 450 229.96 
L 33.64 229.96 
z
" style="fill:#ffffff;"/>
   </g>
   <g id="PolyCollection_2">
    <defs>
     <path d="M 286.318475 -41.24 
L 286.318475 -141.751278 
L 283.766167 -145.973796 
L 281.213859 -150.12008 
L 278.661552 -154.165381 
L 276.109244 -158.084612 
L 273.556936 -161.852608 
L 271.004628 -165.4444 
L 268.45232 -168.835494 
L 265.900012 -172.002161 
L 263.347705 -174.921726 
L 260.795397 -177.572845 
L 258.243089 -179.935786 
L 255.690781 -181.992677 
L 253.138473 -183.727753 
L 250.586165 -185.12756 
L 248.033858 -186.181146 
L 245.48155 -186.880209 
L 242.929242 -187.219213 
L 240.376934 -187.195465 
L 237.824626 -186.809153 
L 235.272318 -186.063346 
L 232.720011 -184.963946 
L 230.167703 -183.519611 
L 227.615395 -181.741628 
L 225.063087 -179.643764 
L 222.510779 -177.242073 
L 219.958471 -174.554684 
L 217.406164 -171.601556 
L 214.853856 -168.404221 
L 212.301548 -164.985509 
L 209.74924 -161.369265 
L 207.196932 -157.580062 
L 204.644624 -153.642911 
L 202.092317 -149.582981 
L 199.540009 -145.425329 
L 196.987701 -141.194642 
L 194.435393 -136.914996 
L 191.883085 -132.609637 
L 189.330778 -128.300788 
L 186.77847 -124.009474 
L 184.226162 -119.755381 
L 181.673854 -115.556735 
L 179.121546 -111.430215 
L 176.569238 -107.390883 
L 174.016931 -103.452151 
L 171.464623 -99.625761 
L 168.912315 -95.921796 
L 166.360007 -92.348707 
L 163.807699 -88.913363 
L 161.255391 -85.621106 
L 158.703084 -82.475836 
L 156.150776 -79.480092 
L 153.598468 -76.635152 
L 151.04616 -73.941136 
L 148.493852 -71.397107 
L 145.941544 -69.001188 
L 143.389237 -66.750669 
L 140.836929 -64.64211 
L 138.284621 -62.671453 
L 135.732313 -60.834123 
L 133.180005 -59.12512 
L 130.627697 -57.539112 
L 128.07539 -56.070521 
L 125.523082 -54.713597 
L 122.970774 -53.462491 
L 120.418466 -52.311316 
L 117.866158 -51.254205 
L 115.313851 -50.285356 
L 112.761543 -49.399078 
L 110.209235 -48.589824 
L 107.656927 -47.852222 
L 105.104619 -47.181097 
L 102.552311 -46.571489 
L 100.000004 -46.01867 
L 97.447696 -45.518151 
L 94.895388 -45.065686 
L 92.34308 -44.657279 
L 89.790772 -44.289179 
L 87.238464 -43.957879 
L 84.686157 -43.660111 
L 82.133849 -43.392839 
L 79.581541 -43.153251 
L 77.029233 -42.93875 
L 74.476925 -42.746941 
L 71.924617 -42.575628 
L 69.37231 -42.422794 
L 66.820002 -42.286597 
L 64.267694 -42.165355 
L 61.715386 -42.057538 
L 59.163078 -41.961755 
L 56.61077 -41.876745 
L 54.058463 -41.801366 
L 51.506155 -41.734587 
L 48.953847 -41.675479 
L 46.401539 -41.623204 
L 43.849231 -41.577008 
L 41.296923 -41.536217 
L 38.744616 -41.500225 
L 36.192308 -41.46849 
L 33.64 -41.440528 
L 33.64 -41.24 
L 33.64 -41.24 
L 36.192308 -41.24 
L 38.744616 -41.24 
L 41.296923 -41.24 
L 43.849231 -41.24 
L 46.401539 -41.24 
L 48.953847 -41.24 
L 51.506155 -41.24 
L 54.058463 -41.24 
L 56.61077 -41.24 
L 59.163078 -41.24 
L 61.715386 -41.24 
L 64.267694 -41.24 
L 66.820002 -41.24 
L 69.37231 -41.24 
L 71.924617 -41.24 
L 74.476925 -41.24 
L 77.029233 -41.24 
L 79.581541 -41.24 
L 82.133849 -41.24 
L 84.686157 -41.24 
L 87.238464 -41.24 
L 89.790772 -41.24 
L 92.34308 -41.24 
L 94.895388 -41.24 
L 97.447696 -41.24 
L 100.000004 -41.24 
L 102.552311 -41.24 
L 105.104619 -41.24 
L 107.656927 -41.24 
L 110.209235 -41.24 
L 112.761543 -41.24 
L 115.313851 -41.24 
L 117.866158 -41.24 
L 120.418466 -41.24 
L 122.970774 -41.24 
L 125.523082 -41.24 
L 128.07539 -41.24 
L 130.627697 -41.24 
L 133.180005 -41.24 
L 135.732313 -41.24 
L 138.284621 -41.24 
L 140.836929 -41.24 
L 143.389237 -41.24 
L 145.941544 -41.24 
L 148.493852 -41.24 
L 151.04616 -41.24 
L 153.598468 -41.24 
L 156.150776 -41.24 
L 158.703084 -41.24 
L 161.255391 -41.24 
L 163.807699 -41.24 
L 166.360007 -41.24 
L 168.912315 -41.24 
L 171.464623 -41.24 
L 174.016931 -41.24 
L 176.569238 -41.24 
L 179.121546 -41.24 
L 181.673854 -41.24 
L 184.226162 -41.24 
L 186.77847 -41.24 
L 189.330778 -41.24 
L 191.883085 -41.24 
L 194.435393 -41.24 
L 196.987701 -41.24 
L 199.540009 -41.24 
L 202.092317 -41.24 
L 204.644624 -41.24 
L 207.196932 -41.24 
L 209.74924 -41.24 
L 212.301548 -41.24 
L 214.853856 -41.24 
L 217.406164 -41.24 
L 219.958471 -41.24 
L 222.510779 -41.24 
L 225.063087 -41.24 
L 227.615395 -41.24 
L 230.167703 -41.24 
L 232.720011 -41.24 
L 235.272318 -41.24 
L 237.824626 -41.24 
L 240.376934 -41.24 
L 242.929242 -41.24 
L 245.48155 -41.24 
L 248.033858 -41.24 
L 250.586165 -41.24 
L 253.138473 -41.24 
L 255.690781 -41.24 
L 258.243089 -41.24 
L 260.795397 -41.24 
L 263.347705 -41.24 
L 265.900012 -41.24 
L 268.45232 -41.24 
L 271.004628 -41.24 
L 273.556936 -41.24 
L 276.109244 -41.24 
L 278.661552 -41.24 
L 281.213859 -41.24 
L 283.766167 -41.24 
L 286.318475 -41.24 
z
" id="m52fab139b4" style="stroke:#1f77b4;stroke-opacity:0.7;"/>
    </defs>
    <g clip-path="url(#p6f9211baf7)">
     <use style="fill:#1f77b4;fill-opacity:0.7;stroke:#1f77b4;stroke-opacity:0.7;" x="0" xlink:href="#m52fab139b4" y="446.4"/>
    </g>
   </g>
   <g id="PolyCollection_3">
    <defs>
     <path d="M 113.684098 -41.24 
L 113.684098 -49.710255 
L 115.42788 -50.326837 
L 117.171661 -50.982076 
L 118.915443 -51.677784 
L 120.659225 -52.415797 
L 122.403006 -53.197974 
L 124.146788 -54.026186 
L 125.890569 -54.902311 
L 127.634351 -55.828226 
L 129.378133 -56.805799 
L 131.121914 -57.836876 
L 132.865696 -58.923278 
L 134.609477 -60.066781 
L 136.353259 -61.269114 
L 138.09704 -62.531939 
L 139.840822 -63.856842 
L 141.584604 -65.245319 
L 143.328385 -66.69876 
L 145.072167 -68.218437 
L 146.815948 -69.805488 
L 148.55973 -71.460899 
L 150.303512 -73.185491 
L 152.047293 -74.979902 
L 153.791075 -76.844572 
L 155.534856 -78.779727 
L 157.278638 -80.78536 
L 159.022419 -82.861217 
L 160.766201 -85.006782 
L 162.509983 -87.221262 
L 164.253764 -89.503569 
L 165.997546 -91.852312 
L 167.741327 -94.265779 
L 169.485109 -96.741932 
L 171.228891 -99.278389 
L 172.972672 -101.872422 
L 174.716454 -104.520948 
L 176.460235 -107.220524 
L 178.204017 -109.967342 
L 179.947798 -112.757234 
L 181.69158 -115.585665 
L 183.435362 -118.447745 
L 185.179143 -121.338232 
L 186.922925 -124.251538 
L 188.666706 -127.181746 
L 190.410488 -130.122621 
L 192.15427 -133.067629 
L 193.898051 -136.009956 
L 195.641833 -138.942529 
L 197.385614 -141.858044 
L 199.129396 -144.748993 
L 200.873177 -147.607693 
L 202.616959 -150.426322 
L 204.360741 -153.196947 
L 206.104522 -155.911571 
L 207.848304 -158.56216 
L 209.592085 -161.140693 
L 211.335867 -163.639196 
L 213.079649 -166.049789 
L 214.82343 -168.364724 
L 216.567212 -170.576432 
L 218.310993 -172.677566 
L 220.054775 -174.661039 
L 221.798556 -176.52007 
L 223.542338 -178.248223 
L 225.28612 -179.839447 
L 227.029901 -181.28811 
L 228.773683 -182.589038 
L 230.517464 -183.737547 
L 232.261246 -184.729469 
L 234.005028 -185.561184 
L 235.748809 -186.229641 
L 237.492591 -186.732374 
L 239.236372 -187.067524 
L 240.980154 -187.233851 
L 242.723935 -187.230735 
L 244.467717 -187.058189 
L 246.211499 -186.716853 
L 247.95528 -186.207993 
L 249.699062 -185.533489 
L 251.442843 -184.695828 
L 253.186625 -183.698083 
L 254.930407 -182.543896 
L 256.674188 -181.237452 
L 258.41797 -179.783455 
L 260.161751 -178.187097 
L 261.905533 -176.454024 
L 263.649314 -174.590303 
L 265.393096 -172.602383 
L 267.136878 -170.497059 
L 268.880659 -168.281424 
L 270.624441 -165.962839 
L 272.368222 -163.548877 
L 274.112004 -161.047292 
L 275.855786 -158.46597 
L 277.599567 -155.812885 
L 279.343349 -153.096061 
L 281.08713 -150.323529 
L 282.830912 -147.503288 
L 284.574693 -144.643265 
L 286.318475 -141.751278 
L 286.318475 -41.24 
L 286.318475 -41.24 
L 284.574693 -41.24 
L 282.830912 -41.24 
L 281.08713 -41.24 
L 279.343349 -41.24 
L 277.599567 -41.24 
L 275.855786 -41.24 
L 274.112004 -41.24 
L 272.368222 -41.24 
L 270.624441 -41.24 
L 268.880659 -41.24 
L 267.136878 -41.24 
L 265.393096 -41.24 
L 263.649314 -41.24 
L 261.905533 -41.24 
L 260.161751 -41.24 
L 258.41797 -41.24 
L 256.674188 -41.24 
L 254.930407 -41.24 
L 253.186625 -41.24 
L 251.442843 -41.24 
L 249.699062 -41.24 
L 247.95528 -41.24 
L 246.211499 -41.24 
L 244.467717 -41.24 
L 242.723935 -41.24 
L 240.980154 -41.24 
L 239.236372 -41.24 
L 237.492591 -41.24 
L 235.748809 -41.24 
L 234.005028 -41.24 
L 232.261246 -41.24 
L 230.517464 -41.24 
L 228.773683 -41.24 
L 227.029901 -41.24 
L 225.28612 -41.24 
L 223.542338 -41.24 
L 221.798556 -41.24 
L 220.054775 -41.24 
L 218.310993 -41.24 
L 216.567212 -41.24 
L 214.82343 -41.24 
L 213.079649 -41.24 
L 211.335867 -41.24 
L 209.592085 -41.24 
L 207.848304 -41.24 
L 206.104522 -41.24 
L 204.360741 -41.24 
L 202.616959 -41.24 
L 200.873177 -41.24 
L 199.129396 -41.24 
L 197.385614 -41.24 
L 195.641833 -41.24 
L 193.898051 -41.24 
L 192.15427 -41.24 
L 190.410488 -41.24 
L 188.666706 -41.24 
L 186.922925 -41.24 
L 185.179143 -41.24 
L 183.435362 -41.24 
L 181.69158 -41.24 
L 179.947798 -41.24 
L 178.204017 -41.24 
L 176.460235 -41.24 
L 174.716454 -41.24 
L 172.972672 -41.24 
L 171.228891 -41.24 
L 169.485109 -41.24 
L 167.741327 -41.24 
L 165.997546 -41.24 
L 164.253764 -41.24 
L 162.509983 -41.24 
L 160.766201 -41.24 
L 159.022419 -41.24 
L 157.278638 -41.24 
L 155.534856 -41.24 
L 153.791075 -41.24 
L 152.047293 -41.24 
L 150.303512 -41.24 
L 148.55973 -41.24 
L 146.815948 -41.24 
L 145.072167 -41.24 
L 143.328385 -41.24 
L 141.584604 -41.24 
L 139.840822 -41.24 
L 138.09704 -41.24 
L 136.353259 -41.24 
L 134.609477 -41.24 
L 132.865696 -41.24 
L 131.121914 -41.24 
L 129.378133 -41.24 
L 127.634351 -41.24 
L 125.890569 -41.24 
L 124.146788 -41.24 
L 122.403006 -41.24 
L 120.659225 -41.24 
L 118.915443 -41.24 
L 117.171661 -41.24 
L 115.42788 -41.24 
L 113.684098 -41.24 
z
" id="med006ac707" style="stroke:#d62728;stroke-opacity:0.2;"/>
    </defs>
    <g clip-path="url(#p6f9211baf7)">
     <use style="fill:#d62728;fill-opacity:0.2;stroke:#d62728;stroke-opacity:0.2;" x="0" xlink:href="#med006ac707" y="446.4"/>
    </g>
   </g>
   <g id="matplotlib.axis_3">
    <g id="xtick_3">
     <g id="line2d_9">
      <g>
       <use style="stroke:#000000;stroke-width:0.8;" x="286.318475" xlink:href="#m26525a5c1d" y="405.16"/>
      </g>
     </g>
     <g id="text_11">
      <!-- 0.855 -->
      <g transform="translate(272.004413 419.758438)scale(0.1 -0.1)">
       <defs>
        <path d="M 2034 2216 
Q 1584 2216 1326 1975 
Q 1069 1734 1069 1313 
Q 1069 891 1326 650 
Q 1584 409 2034 409 
Q 2484 409 2743 651 
Q 3003 894 3003 1313 
Q 3003 1734 2745 1975 
Q 2488 2216 2034 2216 
z
M 1403 2484 
Q 997 2584 770 2862 
Q 544 3141 544 3541 
Q 544 4100 942 4425 
Q 1341 4750 2034 4750 
Q 2731 4750 3128 4425 
Q 3525 4100 3525 3541 
Q 3525 3141 3298 2862 
Q 3072 2584 2669 2484 
Q 3125 2378 3379 2068 
Q 3634 1759 3634 1313 
Q 3634 634 3220 271 
Q 2806 -91 2034 -91 
Q 1263 -91 848 271 
Q 434 634 434 1313 
Q 434 1759 690 2068 
Q 947 2378 1403 2484 
z
M 1172 3481 
Q 1172 3119 1398 2916 
Q 1625 2713 2034 2713 
Q 2441 2713 2670 2916 
Q 2900 3119 2900 3481 
Q 2900 3844 2670 4047 
Q 2441 4250 2034 4250 
Q 1625 4250 1398 4047 
Q 1172 3844 1172 3481 
z
" id="DejaVuSans-38" transform="scale(0.015625)"/>
        <path d="M 691 4666 
L 3169 4666 
L 3169 4134 
L 1269 4134 
L 1269 2991 
Q 1406 3038 1543 3061 
Q 1681 3084 1819 3084 
Q 2600 3084 3056 2656 
Q 3513 2228 3513 1497 
Q 3513 744 3044 326 
Q 2575 -91 1722 -91 
Q 1428 -91 1123 -41 
Q 819 9 494 109 
L 494 744 
Q 775 591 1075 516 
Q 1375 441 1709 441 
Q 2250 441 2565 725 
Q 2881 1009 2881 1497 
Q 2881 1984 2565 2268 
Q 2250 2553 1709 2553 
Q 1456 2553 1204 2497 
Q 953 2441 691 2322 
L 691 4666 
z
" id="DejaVuSans-35" transform="scale(0.015625)"/>
       </defs>
       <use xlink:href="#DejaVuSans-30"/>
       <use x="63.623047" xlink:href="#DejaVuSans-2e"/>
       <use x="95.410156" xlink:href="#DejaVuSans-38"/>
       <use x="159.033203" xlink:href="#DejaVuSans-35"/>
       <use x="222.65625" xlink:href="#DejaVuSans-35"/>
      </g>
     </g>
    </g>
    <g id="xtick_4">
     <g id="line2d_10">
      <g>
       <use style="stroke:#000000;stroke-width:0.8;" x="241.82" xlink:href="#m26525a5c1d" y="405.16"/>
      </g>
     </g>
     <g id="text_12">
      <!-- 0 -->
      <g transform="translate(238.63875 419.758438)scale(0.1 -0.1)">
       <use xlink:href="#DejaVuSans-30"/>
      </g>
     </g>
    </g>
    <g id="text_13">
     <!-- t-value -->
     <g transform="translate(226.258437 432.676719)scale(0.09 -0.09)">
      <use xlink:href="#DejaVuSans-74"/>
      <use x="39.208984" xlink:href="#DejaVuSans-2d"/>
      <use x="72.667969" xlink:href="#DejaVuSans-76"/>
      <use x="131.847656" xlink:href="#DejaVuSans-61"/>
      <use x="193.126953" xlink:href="#DejaVuSans-6c"/>
      <use x="220.910156" xlink:href="#DejaVuSans-75"/>
      <use x="284.289062" xlink:href="#DejaVuSans-65"/>
     </g>
    </g>
   </g>
   <g id="matplotlib.axis_4">
    <g id="ytick_6">
     <g id="line2d_11">
      <g>
       <use style="stroke:#000000;stroke-width:0.8;" x="33.64" xlink:href="#m341efc7933" y="405.16"/>
      </g>
     </g>
     <g id="text_14">
      <!-- 0.0 -->
      <g transform="translate(10.736875 408.959219)scale(0.1 -0.1)">
       <use xlink:href="#DejaVuSans-30"/>
       <use x="63.623047" xlink:href="#DejaVuSans-2e"/>
       <use x="95.410156" xlink:href="#DejaVuSans-30"/>
      </g>
     </g>
    </g>
    <g id="ytick_7">
     <g id="line2d_12">
      <g>
       <use style="stroke:#000000;stroke-width:0.8;" x="33.64" xlink:href="#m341efc7933" y="368.24302"/>
      </g>
     </g>
     <g id="text_15">
      <!-- 0.1 -->
      <g transform="translate(10.736875 372.042238)scale(0.1 -0.1)">
       <use xlink:href="#DejaVuSans-30"/>
       <use x="63.623047" xlink:href="#DejaVuSans-2e"/>
       <use x="95.410156" xlink:href="#DejaVuSans-31"/>
      </g>
     </g>
    </g>
    <g id="ytick_8">
     <g id="line2d_13">
      <g>
       <use style="stroke:#000000;stroke-width:0.8;" x="33.64" xlink:href="#m341efc7933" y="331.326039"/>
      </g>
     </g>
     <g id="text_16">
      <!-- 0.2 -->
      <g transform="translate(10.736875 335.125258)scale(0.1 -0.1)">
       <use xlink:href="#DejaVuSans-30"/>
       <use x="63.623047" xlink:href="#DejaVuSans-2e"/>
       <use x="95.410156" xlink:href="#DejaVuSans-32"/>
      </g>
     </g>
    </g>
    <g id="ytick_9">
     <g id="line2d_14">
      <g>
       <use style="stroke:#000000;stroke-width:0.8;" x="33.64" xlink:href="#m341efc7933" y="294.409059"/>
      </g>
     </g>
     <g id="text_17">
      <!-- 0.3 -->
      <g transform="translate(10.736875 298.208278)scale(0.1 -0.1)">
       <use xlink:href="#DejaVuSans-30"/>
       <use x="63.623047" xlink:href="#DejaVuSans-2e"/>
       <use x="95.410156" xlink:href="#DejaVuSans-33"/>
      </g>
     </g>
    </g>
    <g id="ytick_10">
     <g id="line2d_15">
      <g>
       <use style="stroke:#000000;stroke-width:0.8;" x="33.64" xlink:href="#m341efc7933" y="257.492079"/>
      </g>
     </g>
     <g id="text_18">
      <!-- 0.4 -->
      <g transform="translate(10.736875 261.291298)scale(0.1 -0.1)">
       <use xlink:href="#DejaVuSans-30"/>
       <use x="63.623047" xlink:href="#DejaVuSans-2e"/>
       <use x="95.410156" xlink:href="#DejaVuSans-34"/>
      </g>
     </g>
    </g>
   </g>
   <g id="LineCollection_2">
    <path clip-path="url(#p6f9211baf7)" d="M 113.684098 405.16 
L 113.684098 396.689745 
" style="fill:none;stroke:#000000;stroke-dasharray:1,1.65;stroke-dashoffset:0;"/>
   </g>
   <g id="LineCollection_3">
    <path clip-path="url(#p6f9211baf7)" d="M 286.318475 405.16 
L 286.318475 304.648722 
" style="fill:none;stroke:#000000;"/>
   </g>
   <g id="line2d_16">
    <path clip-path="url(#p6f9211baf7)" d="M 33.64 404.959472 
L 51.742609 404.659562 
L 64.275184 404.23431 
L 74.022742 403.684983 
L 82.377793 402.982855 
L 89.340334 402.171868 
L 94.910368 401.33179 
L 100.480401 400.281406 
L 106.050435 398.977636 
L 110.22796 397.804506 
L 114.405485 396.439244 
L 118.58301 394.858053 
L 122.760535 393.03603 
L 126.93806 390.947582 
L 131.115585 388.566965 
L 135.29311 385.86896 
L 139.470635 382.829687 
L 143.648161 379.427556 
L 147.825686 375.644334 
L 152.003211 371.466325 
L 156.180736 366.885616 
L 160.358261 361.90136 
L 164.535786 356.521032 
L 168.713311 350.761601 
L 172.890836 344.650561 
L 178.46087 336.024317 
L 184.030903 326.968007 
L 195.17097 308.247964 
L 202.133512 296.750648 
L 206.311037 290.171023 
L 210.488562 283.964333 
L 214.666087 278.24003 
L 217.451104 274.744269 
L 220.23612 271.539719 
L 223.021137 268.654226 
L 225.806154 266.113369 
L 228.591171 263.940058 
L 231.376187 262.154176 
L 234.161204 260.77225 
L 236.946221 259.807193 
L 239.731237 259.268079 
L 242.516254 259.16 
L 245.301271 259.48398 
L 248.086288 260.236954 
L 250.871304 261.411824 
L 253.656321 262.997573 
L 256.441338 264.979453 
L 259.226355 267.339219 
L 262.011371 270.055433 
L 264.796388 273.103804 
L 267.581405 276.457566 
L 270.366421 280.087894 
L 274.543946 285.984991 
L 278.721472 292.328243 
L 284.291505 301.289892 
L 292.646555 315.292973 
L 302.394114 331.540657 
L 307.964147 340.399873 
L 312.141672 346.724486 
L 316.319197 352.722063 
L 320.496722 358.357642 
L 324.674247 363.607341 
L 328.851773 368.457475 
L 333.029298 372.903481 
L 337.206823 376.948704 
L 341.384348 380.603124 
L 345.561873 383.882088 
L 349.739398 386.805071 
L 353.916923 389.394543 
L 358.094448 391.674927 
L 362.271973 393.671701 
L 366.449498 395.410627 
L 370.627023 396.917122 
L 374.804548 398.215761 
L 380.374582 399.664104 
L 385.944615 400.835448 
L 391.514649 401.775644 
L 398.477191 402.686684 
L 405.439732 403.365791 
L 413.794783 403.950197 
L 423.542341 404.404486 
L 436.074916 404.753763 
L 450 404.959472 
L 450 404.959472 
" style="fill:none;stroke:#000000;stroke-linecap:square;"/>
   </g>
   <g id="patch_9">
    <path d="M 33.64 405.16 
L 33.64 229.96 
" style="fill:none;stroke:#000000;stroke-linecap:square;stroke-linejoin:miter;stroke-width:0.8;"/>
   </g>
   <g id="patch_10">
    <path d="M 450 405.16 
L 450 229.96 
" style="fill:none;stroke:#000000;stroke-linecap:square;stroke-linejoin:miter;stroke-width:0.8;"/>
   </g>
   <g id="patch_11">
    <path d="M 33.64 405.16 
L 450 405.16 
" style="fill:none;stroke:#000000;stroke-linecap:square;stroke-linejoin:miter;stroke-width:0.8;"/>
   </g>
   <g id="patch_12">
    <path d="M 33.64 229.96 
L 450 229.96 
" style="fill:none;stroke:#000000;stroke-linecap:square;stroke-linejoin:miter;stroke-width:0.8;"/>
   </g>
   <g id="patch_13">
    <path d="M 137.145504 368.543155 
Q 139.519347 373.462964 141.553089 377.677911 
" style="fill:none;stroke:#000000;stroke-linecap:round;stroke-width:0.7;"/>
    <path d="M 141.616108 373.206219 
L 141.553089 377.677911 
L 138.013547 374.94448 
" style="fill:none;stroke:#000000;stroke-linecap:round;stroke-width:0.7;"/>
   </g>
   <g id="text_19">
    <!-- 0.8002 -->
    <g style="fill:#1f77b4;" transform="translate(115.480762 362.661352)scale(0.1 -0.1)">
     <use xlink:href="#DejaVuSans-30"/>
     <use x="63.623047" xlink:href="#DejaVuSans-2e"/>
     <use x="95.410156" xlink:href="#DejaVuSans-38"/>
     <use x="159.033203" xlink:href="#DejaVuSans-30"/>
     <use x="222.65625" xlink:href="#DejaVuSans-30"/>
     <use x="286.279297" xlink:href="#DejaVuSans-32"/>
    </g>
   </g>
   <g id="text_20">
    <!-- P-Value = 0.1998 -->
    <g style="fill:#1f77b4;" transform="translate(39.8854 242.224)scale(0.09 -0.09)">
     <defs>
      <path d="M 1259 4147 
L 1259 2394 
L 2053 2394 
Q 2494 2394 2734 2622 
Q 2975 2850 2975 3272 
Q 2975 3691 2734 3919 
Q 2494 4147 2053 4147 
L 1259 4147 
z
M 628 4666 
L 2053 4666 
Q 2838 4666 3239 4311 
Q 3641 3956 3641 3272 
Q 3641 2581 3239 2228 
Q 2838 1875 2053 1875 
L 1259 1875 
L 1259 0 
L 628 0 
L 628 4666 
z
" id="DejaVuSans-50" transform="scale(0.015625)"/>
     </defs>
     <use xlink:href="#DejaVuSans-50"/>
     <use x="58.052734" xlink:href="#DejaVuSans-2d"/>
     <use x="88.261719" xlink:href="#DejaVuSans-56"/>
     <use x="148.919922" xlink:href="#DejaVuSans-61"/>
     <use x="210.199219" xlink:href="#DejaVuSans-6c"/>
     <use x="237.982422" xlink:href="#DejaVuSans-75"/>
     <use x="301.361328" xlink:href="#DejaVuSans-65"/>
     <use x="362.884766" xlink:href="#DejaVuSans-20"/>
     <use x="394.671875" xlink:href="#DejaVuSans-3d"/>
     <use x="478.460938" xlink:href="#DejaVuSans-20"/>
     <use x="510.248047" xlink:href="#DejaVuSans-30"/>
     <use x="573.871094" xlink:href="#DejaVuSans-2e"/>
     <use x="605.658203" xlink:href="#DejaVuSans-31"/>
     <use x="669.28125" xlink:href="#DejaVuSans-39"/>
     <use x="732.904297" xlink:href="#DejaVuSans-39"/>
     <use x="796.527344" xlink:href="#DejaVuSans-38"/>
    </g>
   </g>
   <g id="text_21">
    <!-- Test Statistic (TS) = 0.855 -->
    <g transform="translate(39.8854 254.488)scale(0.09 -0.09)">
     <use xlink:href="#DejaVuSans-54"/>
     <use x="44.083984" xlink:href="#DejaVuSans-65"/>
     <use x="105.607422" xlink:href="#DejaVuSans-73"/>
     <use x="157.707031" xlink:href="#DejaVuSans-74"/>
     <use x="196.916016" xlink:href="#DejaVuSans-20"/>
     <use x="228.703125" xlink:href="#DejaVuSans-53"/>
     <use x="292.179688" xlink:href="#DejaVuSans-74"/>
     <use x="331.388672" xlink:href="#DejaVuSans-61"/>
     <use x="392.667969" xlink:href="#DejaVuSans-74"/>
     <use x="431.876953" xlink:href="#DejaVuSans-69"/>
     <use x="459.660156" xlink:href="#DejaVuSans-73"/>
     <use x="511.759766" xlink:href="#DejaVuSans-74"/>
     <use x="550.96875" xlink:href="#DejaVuSans-69"/>
     <use x="578.751953" xlink:href="#DejaVuSans-63"/>
     <use x="633.732422" xlink:href="#DejaVuSans-20"/>
     <use x="665.519531" xlink:href="#DejaVuSans-28"/>
     <use x="704.533203" xlink:href="#DejaVuSans-54"/>
     <use x="765.617188" xlink:href="#DejaVuSans-53"/>
     <use x="829.09375" xlink:href="#DejaVuSans-29"/>
     <use x="868.107422" xlink:href="#DejaVuSans-20"/>
     <use x="899.894531" xlink:href="#DejaVuSans-3d"/>
     <use x="983.683594" xlink:href="#DejaVuSans-20"/>
     <use x="1015.470703" xlink:href="#DejaVuSans-30"/>
     <use x="1079.09375" xlink:href="#DejaVuSans-2e"/>
     <use x="1110.880859" xlink:href="#DejaVuSans-38"/>
     <use x="1174.503906" xlink:href="#DejaVuSans-35"/>
     <use x="1238.126953" xlink:href="#DejaVuSans-35"/>
    </g>
   </g>
  </g>
 </g>
 <defs>
  <clipPath id="p2eaf77a74c">
   <rect height="175.2" width="416.36" x="33.64" y="26.88"/>
  </clipPath>
  <clipPath id="p6f9211baf7">
   <rect height="175.2" width="416.36" x="33.64" y="229.96"/>
  </clipPath>
 </defs>
</svg>
