<?xml version="1.0" encoding="utf-8" standalone="no"?>
<!DOCTYPE svg PUBLIC "-//W3C//DTD SVG 1.1//EN"
  "http://www.w3.org/Graphics/SVG/1.1/DTD/svg11.dtd">
<svg height="230.4pt" version="1.1" viewBox="0 0 460.8 230.4" width="460.8pt" xmlns="http://www.w3.org/2000/svg" xmlns:xlink="http://www.w3.org/1999/xlink">
 <metadata>
  <rdf:RDF xmlns:cc="http://creativecommons.org/ns#" xmlns:dc="http://purl.org/dc/elements/1.1/" xmlns:rdf="http://www.w3.org/1999/02/22-rdf-syntax-ns#">
   <cc:Work>
    <dc:type rdf:resource="http://purl.org/dc/dcmitype/StillImage"/>
    <dc:date>2021-07-16T02:18:54.526343</dc:date>
    <dc:format>image/svg+xml</dc:format>
    <dc:creator>
     <cc:Agent>
      <dc:title>Matplotlib v3.4.2, https://matplotlib.org/</dc:title>
     </cc:Agent>
    </dc:creator>
   </cc:Work>
  </rdf:RDF>
 </metadata>
 <defs>
  <style type="text/css">*{stroke-linecap:butt;stroke-linejoin:round;}</style>
 </defs>
 <g id="figure_1">
  <g id="patch_1">
   <path d="M 0 230.4 
L 460.8 230.4 
L 460.8 0 
L 0 0 
z
" style="fill:#ffffff;"/>
  </g>
  <g id="axes_1">
   <g id="patch_2">
    <path d="M 33.64 189.16 
L 450 189.16 
L 450 26.88 
L 33.64 26.88 
z
" style="fill:#ffffff;"/>
   </g>
   <g id="PolyCollection_1">
    <defs>
     <path d="M 369.955902 -41.24 
L 369.955902 -49.085622 
L 370.764428 -48.832508 
L 371.572954 -48.586576 
L 372.38148 -48.347663 
L 373.190007 -48.115613 
L 373.998533 -47.890267 
L 374.807059 -47.671472 
L 375.615585 -47.459073 
L 376.424112 -47.25292 
L 377.232638 -47.052864 
L 378.041164 -46.858757 
L 378.84969 -46.670453 
L 379.658217 -46.487812 
L 380.466743 -46.31069 
L 381.275269 -46.13895 
L 382.083795 -45.972456 
L 382.892322 -45.811073 
L 383.700848 -45.65467 
L 384.509374 -45.503116 
L 385.3179 -45.356285 
L 386.126427 -45.214052 
L 386.934953 -45.076293 
L 387.743479 -44.942889 
L 388.552005 -44.813722 
L 389.360532 -44.688675 
L 390.169058 -44.567636 
L 390.977584 -44.450492 
L 391.78611 -44.337136 
L 392.594637 -44.22746 
L 393.403163 -44.121361 
L 394.211689 -44.018736 
L 395.020215 -43.919485 
L 395.828742 -43.823512 
L 396.637268 -43.73072 
L 397.445794 -43.641016 
L 398.25432 -43.554309 
L 399.062847 -43.470511 
L 399.871373 -43.389534 
L 400.679899 -43.311294 
L 401.488425 -43.235708 
L 402.296952 -43.162695 
L 403.105478 -43.092178 
L 403.914004 -43.024078 
L 404.72253 -42.958322 
L 405.531056 -42.894837 
L 406.339583 -42.833552 
L 407.148109 -42.774397 
L 407.956635 -42.717306 
L 408.765161 -42.662213 
L 409.573688 -42.609054 
L 410.382214 -42.557768 
L 411.19074 -42.508294 
L 411.999266 -42.460574 
L 412.807793 -42.41455 
L 413.616319 -42.370168 
L 414.424845 -42.327373 
L 415.233371 -42.286114 
L 416.041898 -42.246339 
L 416.850424 -42.207999 
L 417.65895 -42.171046 
L 418.467476 -42.135434 
L 419.276003 -42.101118 
L 420.084529 -42.068054 
L 420.893055 -42.0362 
L 421.701581 -42.005514 
L 422.510108 -41.975956 
L 423.318634 -41.947488 
L 424.12716 -41.920072 
L 424.935686 -41.893673 
L 425.744213 -41.868254 
L 426.552739 -41.843781 
L 427.361265 -41.820222 
L 428.169791 -41.797544 
L 428.978318 -41.775717 
L 429.786844 -41.75471 
L 430.59537 -41.734495 
L 431.403896 -41.715043 
L 432.212423 -41.696327 
L 433.020949 -41.678321 
L 433.829475 -41.660999 
L 434.638001 -41.644337 
L 435.446528 -41.628311 
L 436.255054 -41.612898 
L 437.06358 -41.598075 
L 437.872106 -41.583821 
L 438.680633 -41.570116 
L 439.489159 -41.55694 
L 440.297685 -41.544272 
L 441.106211 -41.532094 
L 441.914738 -41.520389 
L 442.723264 -41.509138 
L 443.53179 -41.498325 
L 444.340316 -41.487933 
L 445.148843 -41.477947 
L 445.957369 -41.468352 
L 446.765895 -41.459133 
L 447.574421 -41.450275 
L 448.382948 -41.441766 
L 449.191474 -41.433592 
L 450 -41.42574 
L 450 -41.24 
L 450 -41.24 
L 449.191474 -41.24 
L 448.382948 -41.24 
L 447.574421 -41.24 
L 446.765895 -41.24 
L 445.957369 -41.24 
L 445.148843 -41.24 
L 444.340316 -41.24 
L 443.53179 -41.24 
L 442.723264 -41.24 
L 441.914738 -41.24 
L 441.106211 -41.24 
L 440.297685 -41.24 
L 439.489159 -41.24 
L 438.680633 -41.24 
L 437.872106 -41.24 
L 437.06358 -41.24 
L 436.255054 -41.24 
L 435.446528 -41.24 
L 434.638001 -41.24 
L 433.829475 -41.24 
L 433.020949 -41.24 
L 432.212423 -41.24 
L 431.403896 -41.24 
L 430.59537 -41.24 
L 429.786844 -41.24 
L 428.978318 -41.24 
L 428.169791 -41.24 
L 427.361265 -41.24 
L 426.552739 -41.24 
L 425.744213 -41.24 
L 424.935686 -41.24 
L 424.12716 -41.24 
L 423.318634 -41.24 
L 422.510108 -41.24 
L 421.701581 -41.24 
L 420.893055 -41.24 
L 420.084529 -41.24 
L 419.276003 -41.24 
L 418.467476 -41.24 
L 417.65895 -41.24 
L 416.850424 -41.24 
L 416.041898 -41.24 
L 415.233371 -41.24 
L 414.424845 -41.24 
L 413.616319 -41.24 
L 412.807793 -41.24 
L 411.999266 -41.24 
L 411.19074 -41.24 
L 410.382214 -41.24 
L 409.573688 -41.24 
L 408.765161 -41.24 
L 407.956635 -41.24 
L 407.148109 -41.24 
L 406.339583 -41.24 
L 405.531056 -41.24 
L 404.72253 -41.24 
L 403.914004 -41.24 
L 403.105478 -41.24 
L 402.296952 -41.24 
L 401.488425 -41.24 
L 400.679899 -41.24 
L 399.871373 -41.24 
L 399.062847 -41.24 
L 398.25432 -41.24 
L 397.445794 -41.24 
L 396.637268 -41.24 
L 395.828742 -41.24 
L 395.020215 -41.24 
L 394.211689 -41.24 
L 393.403163 -41.24 
L 392.594637 -41.24 
L 391.78611 -41.24 
L 390.977584 -41.24 
L 390.169058 -41.24 
L 389.360532 -41.24 
L 388.552005 -41.24 
L 387.743479 -41.24 
L 386.934953 -41.24 
L 386.126427 -41.24 
L 385.3179 -41.24 
L 384.509374 -41.24 
L 383.700848 -41.24 
L 382.892322 -41.24 
L 382.083795 -41.24 
L 381.275269 -41.24 
L 380.466743 -41.24 
L 379.658217 -41.24 
L 378.84969 -41.24 
L 378.041164 -41.24 
L 377.232638 -41.24 
L 376.424112 -41.24 
L 375.615585 -41.24 
L 374.807059 -41.24 
L 373.998533 -41.24 
L 373.190007 -41.24 
L 372.38148 -41.24 
L 371.572954 -41.24 
L 370.764428 -41.24 
L 369.955902 -41.24 
z
" id="mf46a902ca0" style="stroke:#d62728;stroke-opacity:0.7;"/>
    </defs>
    <g clip-path="url(#p225fa5a040)">
     <use style="fill:#d62728;fill-opacity:0.7;stroke:#d62728;stroke-opacity:0.7;" x="0" xlink:href="#mf46a902ca0" y="230.4"/>
    </g>
   </g>
   <g id="matplotlib.axis_1">
    <g id="xtick_1">
     <g id="line2d_1">
      <defs>
       <path d="M 0 0 
L 0 3.5 
" id="m87c98fed3d" style="stroke:#000000;stroke-width:0.8;"/>
      </defs>
      <g>
       <use style="stroke:#000000;stroke-width:0.8;" x="369.955902" xlink:href="#m87c98fed3d" y="189.16"/>
      </g>
     </g>
     <g id="text_1">
      <!-- 2.462 -->
      <g transform="translate(355.641839 203.758438)scale(0.1 -0.1)">
       <defs>
        <path d="M 1228 531 
L 3431 531 
L 3431 0 
L 469 0 
L 469 531 
Q 828 903 1448 1529 
Q 2069 2156 2228 2338 
Q 2531 2678 2651 2914 
Q 2772 3150 2772 3378 
Q 2772 3750 2511 3984 
Q 2250 4219 1831 4219 
Q 1534 4219 1204 4116 
Q 875 4013 500 3803 
L 500 4441 
Q 881 4594 1212 4672 
Q 1544 4750 1819 4750 
Q 2544 4750 2975 4387 
Q 3406 4025 3406 3419 
Q 3406 3131 3298 2873 
Q 3191 2616 2906 2266 
Q 2828 2175 2409 1742 
Q 1991 1309 1228 531 
z
" id="DejaVuSans-32" transform="scale(0.015625)"/>
        <path d="M 684 794 
L 1344 794 
L 1344 0 
L 684 0 
L 684 794 
z
" id="DejaVuSans-2e" transform="scale(0.015625)"/>
        <path d="M 2419 4116 
L 825 1625 
L 2419 1625 
L 2419 4116 
z
M 2253 4666 
L 3047 4666 
L 3047 1625 
L 3713 1625 
L 3713 1100 
L 3047 1100 
L 3047 0 
L 2419 0 
L 2419 1100 
L 313 1100 
L 313 1709 
L 2253 4666 
z
" id="DejaVuSans-34" transform="scale(0.015625)"/>
        <path d="M 2113 2584 
Q 1688 2584 1439 2293 
Q 1191 2003 1191 1497 
Q 1191 994 1439 701 
Q 1688 409 2113 409 
Q 2538 409 2786 701 
Q 3034 994 3034 1497 
Q 3034 2003 2786 2293 
Q 2538 2584 2113 2584 
z
M 3366 4563 
L 3366 3988 
Q 3128 4100 2886 4159 
Q 2644 4219 2406 4219 
Q 1781 4219 1451 3797 
Q 1122 3375 1075 2522 
Q 1259 2794 1537 2939 
Q 1816 3084 2150 3084 
Q 2853 3084 3261 2657 
Q 3669 2231 3669 1497 
Q 3669 778 3244 343 
Q 2819 -91 2113 -91 
Q 1303 -91 875 529 
Q 447 1150 447 2328 
Q 447 3434 972 4092 
Q 1497 4750 2381 4750 
Q 2619 4750 2861 4703 
Q 3103 4656 3366 4563 
z
" id="DejaVuSans-36" transform="scale(0.015625)"/>
       </defs>
       <use xlink:href="#DejaVuSans-32"/>
       <use x="63.623047" xlink:href="#DejaVuSans-2e"/>
       <use x="95.410156" xlink:href="#DejaVuSans-34"/>
       <use x="159.033203" xlink:href="#DejaVuSans-36"/>
       <use x="222.65625" xlink:href="#DejaVuSans-32"/>
      </g>
     </g>
    </g>
    <g id="xtick_2">
     <g id="line2d_2">
      <g>
       <use style="stroke:#000000;stroke-width:0.8;" x="241.82" xlink:href="#m87c98fed3d" y="189.16"/>
      </g>
     </g>
     <g id="text_2">
      <!-- 0 -->
      <g transform="translate(238.63875 203.758438)scale(0.1 -0.1)">
       <defs>
        <path d="M 2034 4250 
Q 1547 4250 1301 3770 
Q 1056 3291 1056 2328 
Q 1056 1369 1301 889 
Q 1547 409 2034 409 
Q 2525 409 2770 889 
Q 3016 1369 3016 2328 
Q 3016 3291 2770 3770 
Q 2525 4250 2034 4250 
z
M 2034 4750 
Q 2819 4750 3233 4129 
Q 3647 3509 3647 2328 
Q 3647 1150 3233 529 
Q 2819 -91 2034 -91 
Q 1250 -91 836 529 
Q 422 1150 422 2328 
Q 422 3509 836 4129 
Q 1250 4750 2034 4750 
z
" id="DejaVuSans-30" transform="scale(0.015625)"/>
       </defs>
       <use xlink:href="#DejaVuSans-30"/>
      </g>
     </g>
    </g>
    <g id="text_3">
     <!-- t-value -->
     <g transform="translate(226.258437 216.676719)scale(0.09 -0.09)">
      <defs>
       <path d="M 1172 4494 
L 1172 3500 
L 2356 3500 
L 2356 3053 
L 1172 3053 
L 1172 1153 
Q 1172 725 1289 603 
Q 1406 481 1766 481 
L 2356 481 
L 2356 0 
L 1766 0 
Q 1100 0 847 248 
Q 594 497 594 1153 
L 594 3053 
L 172 3053 
L 172 3500 
L 594 3500 
L 594 4494 
L 1172 4494 
z
" id="DejaVuSans-74" transform="scale(0.015625)"/>
       <path d="M 313 2009 
L 1997 2009 
L 1997 1497 
L 313 1497 
L 313 2009 
z
" id="DejaVuSans-2d" transform="scale(0.015625)"/>
       <path d="M 191 3500 
L 800 3500 
L 1894 563 
L 2988 3500 
L 3597 3500 
L 2284 0 
L 1503 0 
L 191 3500 
z
" id="DejaVuSans-76" transform="scale(0.015625)"/>
       <path d="M 2194 1759 
Q 1497 1759 1228 1600 
Q 959 1441 959 1056 
Q 959 750 1161 570 
Q 1363 391 1709 391 
Q 2188 391 2477 730 
Q 2766 1069 2766 1631 
L 2766 1759 
L 2194 1759 
z
M 3341 1997 
L 3341 0 
L 2766 0 
L 2766 531 
Q 2569 213 2275 61 
Q 1981 -91 1556 -91 
Q 1019 -91 701 211 
Q 384 513 384 1019 
Q 384 1609 779 1909 
Q 1175 2209 1959 2209 
L 2766 2209 
L 2766 2266 
Q 2766 2663 2505 2880 
Q 2244 3097 1772 3097 
Q 1472 3097 1187 3025 
Q 903 2953 641 2809 
L 641 3341 
Q 956 3463 1253 3523 
Q 1550 3584 1831 3584 
Q 2591 3584 2966 3190 
Q 3341 2797 3341 1997 
z
" id="DejaVuSans-61" transform="scale(0.015625)"/>
       <path d="M 603 4863 
L 1178 4863 
L 1178 0 
L 603 0 
L 603 4863 
z
" id="DejaVuSans-6c" transform="scale(0.015625)"/>
       <path d="M 544 1381 
L 544 3500 
L 1119 3500 
L 1119 1403 
Q 1119 906 1312 657 
Q 1506 409 1894 409 
Q 2359 409 2629 706 
Q 2900 1003 2900 1516 
L 2900 3500 
L 3475 3500 
L 3475 0 
L 2900 0 
L 2900 538 
Q 2691 219 2414 64 
Q 2138 -91 1772 -91 
Q 1169 -91 856 284 
Q 544 659 544 1381 
z
M 1991 3584 
L 1991 3584 
z
" id="DejaVuSans-75" transform="scale(0.015625)"/>
       <path d="M 3597 1894 
L 3597 1613 
L 953 1613 
Q 991 1019 1311 708 
Q 1631 397 2203 397 
Q 2534 397 2845 478 
Q 3156 559 3463 722 
L 3463 178 
Q 3153 47 2828 -22 
Q 2503 -91 2169 -91 
Q 1331 -91 842 396 
Q 353 884 353 1716 
Q 353 2575 817 3079 
Q 1281 3584 2069 3584 
Q 2775 3584 3186 3129 
Q 3597 2675 3597 1894 
z
M 3022 2063 
Q 3016 2534 2758 2815 
Q 2500 3097 2075 3097 
Q 1594 3097 1305 2825 
Q 1016 2553 972 2059 
L 3022 2063 
z
" id="DejaVuSans-65" transform="scale(0.015625)"/>
      </defs>
      <use xlink:href="#DejaVuSans-74"/>
      <use x="39.208984" xlink:href="#DejaVuSans-2d"/>
      <use x="72.667969" xlink:href="#DejaVuSans-76"/>
      <use x="131.847656" xlink:href="#DejaVuSans-61"/>
      <use x="193.126953" xlink:href="#DejaVuSans-6c"/>
      <use x="220.910156" xlink:href="#DejaVuSans-75"/>
      <use x="284.289062" xlink:href="#DejaVuSans-65"/>
     </g>
    </g>
   </g>
   <g id="matplotlib.axis_2">
    <g id="ytick_1">
     <g id="line2d_3">
      <defs>
       <path d="M 0 0 
L -3.5 0 
" id="maa1c340254" style="stroke:#000000;stroke-width:0.8;"/>
      </defs>
      <g>
       <use style="stroke:#000000;stroke-width:0.8;" x="33.64" xlink:href="#maa1c340254" y="189.16"/>
      </g>
     </g>
     <g id="text_4">
      <!-- 0.0 -->
      <g transform="translate(10.736875 192.959219)scale(0.1 -0.1)">
       <use xlink:href="#DejaVuSans-30"/>
       <use x="63.623047" xlink:href="#DejaVuSans-2e"/>
       <use x="95.410156" xlink:href="#DejaVuSans-30"/>
      </g>
     </g>
    </g>
    <g id="ytick_2">
     <g id="line2d_4">
      <g>
       <use style="stroke:#000000;stroke-width:0.8;" x="33.64" xlink:href="#maa1c340254" y="154.965436"/>
      </g>
     </g>
     <g id="text_5">
      <!-- 0.1 -->
      <g transform="translate(10.736875 158.764655)scale(0.1 -0.1)">
       <defs>
        <path d="M 794 531 
L 1825 531 
L 1825 4091 
L 703 3866 
L 703 4441 
L 1819 4666 
L 2450 4666 
L 2450 531 
L 3481 531 
L 3481 0 
L 794 0 
L 794 531 
z
" id="DejaVuSans-31" transform="scale(0.015625)"/>
       </defs>
       <use xlink:href="#DejaVuSans-30"/>
       <use x="63.623047" xlink:href="#DejaVuSans-2e"/>
       <use x="95.410156" xlink:href="#DejaVuSans-31"/>
      </g>
     </g>
    </g>
    <g id="ytick_3">
     <g id="line2d_5">
      <g>
       <use style="stroke:#000000;stroke-width:0.8;" x="33.64" xlink:href="#maa1c340254" y="120.770873"/>
      </g>
     </g>
     <g id="text_6">
      <!-- 0.2 -->
      <g transform="translate(10.736875 124.570091)scale(0.1 -0.1)">
       <use xlink:href="#DejaVuSans-30"/>
       <use x="63.623047" xlink:href="#DejaVuSans-2e"/>
       <use x="95.410156" xlink:href="#DejaVuSans-32"/>
      </g>
     </g>
    </g>
    <g id="ytick_4">
     <g id="line2d_6">
      <g>
       <use style="stroke:#000000;stroke-width:0.8;" x="33.64" xlink:href="#maa1c340254" y="86.576309"/>
      </g>
     </g>
     <g id="text_7">
      <!-- 0.3 -->
      <g transform="translate(10.736875 90.375528)scale(0.1 -0.1)">
       <defs>
        <path d="M 2597 2516 
Q 3050 2419 3304 2112 
Q 3559 1806 3559 1356 
Q 3559 666 3084 287 
Q 2609 -91 1734 -91 
Q 1441 -91 1130 -33 
Q 819 25 488 141 
L 488 750 
Q 750 597 1062 519 
Q 1375 441 1716 441 
Q 2309 441 2620 675 
Q 2931 909 2931 1356 
Q 2931 1769 2642 2001 
Q 2353 2234 1838 2234 
L 1294 2234 
L 1294 2753 
L 1863 2753 
Q 2328 2753 2575 2939 
Q 2822 3125 2822 3475 
Q 2822 3834 2567 4026 
Q 2313 4219 1838 4219 
Q 1578 4219 1281 4162 
Q 984 4106 628 3988 
L 628 4550 
Q 988 4650 1302 4700 
Q 1616 4750 1894 4750 
Q 2613 4750 3031 4423 
Q 3450 4097 3450 3541 
Q 3450 3153 3228 2886 
Q 3006 2619 2597 2516 
z
" id="DejaVuSans-33" transform="scale(0.015625)"/>
       </defs>
       <use xlink:href="#DejaVuSans-30"/>
       <use x="63.623047" xlink:href="#DejaVuSans-2e"/>
       <use x="95.410156" xlink:href="#DejaVuSans-33"/>
      </g>
     </g>
    </g>
    <g id="ytick_5">
     <g id="line2d_7">
      <g>
       <use style="stroke:#000000;stroke-width:0.8;" x="33.64" xlink:href="#maa1c340254" y="52.381745"/>
      </g>
     </g>
     <g id="text_8">
      <!-- 0.4 -->
      <g transform="translate(10.736875 56.180964)scale(0.1 -0.1)">
       <use xlink:href="#DejaVuSans-30"/>
       <use x="63.623047" xlink:href="#DejaVuSans-2e"/>
       <use x="95.410156" xlink:href="#DejaVuSans-34"/>
      </g>
     </g>
    </g>
   </g>
   <g id="LineCollection_1">
    <path clip-path="url(#p225fa5a040)" d="M 369.955902 189.16 
L 369.955902 181.314378 
" style="fill:none;stroke:#000000;"/>
   </g>
   <g id="line2d_8">
    <path clip-path="url(#p225fa5a040)" d="M 33.64 188.97426 
L 51.742609 188.696466 
L 64.275184 188.302574 
L 74.022742 187.793757 
L 82.377793 187.143407 
L 89.340334 186.392225 
L 96.302876 185.3906 
L 101.87291 184.362943 
L 107.442943 183.089809 
L 111.620468 181.946242 
L 115.797993 180.617498 
L 119.975518 179.081157 
L 124.153043 177.313891 
L 128.330569 175.291886 
L 132.508094 172.991383 
L 136.685619 170.389345 
L 140.863144 167.464258 
L 145.040669 164.197045 
L 149.218194 160.572091 
L 153.395719 156.578368 
L 157.573244 152.210595 
L 161.750769 147.470429 
L 165.928294 142.36761 
L 170.105819 136.921011 
L 174.283344 131.159517 
L 179.853378 123.057632 
L 186.81592 112.436186 
L 202.133512 88.745219 
L 206.311037 82.650804 
L 210.488562 76.901822 
L 214.666087 71.599653 
L 217.451104 68.361685 
L 220.23612 65.393452 
L 223.021137 62.720748 
L 225.806154 60.367264 
L 228.591171 58.354223 
L 231.376187 56.700039 
L 234.161204 55.420023 
L 236.946221 54.526133 
L 239.731237 54.026775 
L 242.516254 53.926667 
L 245.301271 54.226755 
L 248.086288 54.924201 
L 250.871304 56.012431 
L 253.656321 57.481241 
L 256.441338 59.316968 
L 259.226355 61.502715 
L 262.011371 64.018624 
L 264.796388 66.842195 
L 267.581405 69.948636 
L 270.366421 73.311248 
L 274.543946 78.773468 
L 278.721472 84.648941 
L 284.291505 92.949719 
L 292.646555 105.920153 
L 302.394114 120.969663 
L 307.964147 129.175563 
L 313.534181 136.921011 
L 317.711706 142.36761 
L 321.889231 147.470429 
L 326.066756 152.210595 
L 330.244281 156.578368 
L 334.421806 160.572091 
L 338.599331 164.197045 
L 342.776856 167.464258 
L 346.954381 170.389345 
L 351.131906 172.991383 
L 355.309431 175.291886 
L 359.486957 177.313891 
L 363.664482 179.081157 
L 367.842007 180.617498 
L 372.019532 181.946242 
L 377.589565 183.43355 
L 383.159599 184.641174 
L 388.729632 185.614099 
L 395.692174 186.560503 
L 402.654716 187.268811 
L 411.009766 187.880786 
L 420.757324 188.358535 
L 433.2899 188.727516 
L 450 188.97426 
L 450 188.97426 
" style="fill:none;stroke:#000000;stroke-linecap:square;"/>
   </g>
   <g id="patch_3">
    <path d="M 33.64 189.16 
L 33.64 26.88 
" style="fill:none;stroke:#000000;stroke-linecap:square;stroke-linejoin:miter;stroke-width:0.8;"/>
   </g>
   <g id="patch_4">
    <path d="M 450 189.16 
L 450 26.88 
" style="fill:none;stroke:#000000;stroke-linecap:square;stroke-linejoin:miter;stroke-width:0.8;"/>
   </g>
   <g id="patch_5">
    <path d="M 33.64 189.16 
L 450 189.16 
" style="fill:none;stroke:#000000;stroke-linecap:square;stroke-linejoin:miter;stroke-width:0.8;"/>
   </g>
   <g id="patch_6">
    <path d="M 33.64 26.88 
L 450 26.88 
" style="fill:none;stroke:#000000;stroke-linecap:square;stroke-linejoin:miter;stroke-width:0.8;"/>
   </g>
   <g id="patch_7">
    <path d="M 409.723235 175.79994 
Q 403.948605 180.596408 398.776008 184.89282 
" style="fill:none;stroke:#000000;stroke-linecap:round;stroke-width:0.7;"/>
    <path d="M 403.130905 183.875532 
L 398.776008 184.89282 
L 400.575115 180.79853 
" style="fill:none;stroke:#000000;stroke-linecap:round;stroke-width:0.7;"/>
   </g>
   <g id="text_9">
    <!-- 0.01 -->
    <g style="fill:#d62728;" transform="translate(408.364 170.44128)scale(0.1 -0.1)">
     <use xlink:href="#DejaVuSans-30"/>
     <use x="63.623047" xlink:href="#DejaVuSans-2e"/>
     <use x="95.410156" xlink:href="#DejaVuSans-30"/>
     <use x="159.033203" xlink:href="#DejaVuSans-31"/>
    </g>
   </g>
   <g id="patch_8">
    <path d="M 392.178005 167.855701 
Q 392.178005 177.507911 392.178005 186.377498 
" style="fill:none;stroke:#000000;stroke-linecap:round;stroke-width:0.7;"/>
    <path d="M 394.178005 182.377498 
L 392.178005 186.377498 
L 390.178005 182.377498 
" style="fill:none;stroke:#000000;stroke-linecap:round;stroke-width:0.7;"/>
   </g>
   <g id="text_10">
    <!-- 2.889 -->
    <g style="fill:#1f77b4;" transform="translate(377.863943 161.774477)scale(0.1 -0.1)">
     <defs>
      <path d="M 2034 2216 
Q 1584 2216 1326 1975 
Q 1069 1734 1069 1313 
Q 1069 891 1326 650 
Q 1584 409 2034 409 
Q 2484 409 2743 651 
Q 3003 894 3003 1313 
Q 3003 1734 2745 1975 
Q 2488 2216 2034 2216 
z
M 1403 2484 
Q 997 2584 770 2862 
Q 544 3141 544 3541 
Q 544 4100 942 4425 
Q 1341 4750 2034 4750 
Q 2731 4750 3128 4425 
Q 3525 4100 3525 3541 
Q 3525 3141 3298 2862 
Q 3072 2584 2669 2484 
Q 3125 2378 3379 2068 
Q 3634 1759 3634 1313 
Q 3634 634 3220 271 
Q 2806 -91 2034 -91 
Q 1263 -91 848 271 
Q 434 634 434 1313 
Q 434 1759 690 2068 
Q 947 2378 1403 2484 
z
M 1172 3481 
Q 1172 3119 1398 2916 
Q 1625 2713 2034 2713 
Q 2441 2713 2670 2916 
Q 2900 3119 2900 3481 
Q 2900 3844 2670 4047 
Q 2441 4250 2034 4250 
Q 1625 4250 1398 4047 
Q 1172 3844 1172 3481 
z
" id="DejaVuSans-38" transform="scale(0.015625)"/>
      <path d="M 703 97 
L 703 672 
Q 941 559 1184 500 
Q 1428 441 1663 441 
Q 2288 441 2617 861 
Q 2947 1281 2994 2138 
Q 2813 1869 2534 1725 
Q 2256 1581 1919 1581 
Q 1219 1581 811 2004 
Q 403 2428 403 3163 
Q 403 3881 828 4315 
Q 1253 4750 1959 4750 
Q 2769 4750 3195 4129 
Q 3622 3509 3622 2328 
Q 3622 1225 3098 567 
Q 2575 -91 1691 -91 
Q 1453 -91 1209 -44 
Q 966 3 703 97 
z
M 1959 2075 
Q 2384 2075 2632 2365 
Q 2881 2656 2881 3163 
Q 2881 3666 2632 3958 
Q 2384 4250 1959 4250 
Q 1534 4250 1286 3958 
Q 1038 3666 1038 3163 
Q 1038 2656 1286 2365 
Q 1534 2075 1959 2075 
z
" id="DejaVuSans-39" transform="scale(0.015625)"/>
     </defs>
     <use xlink:href="#DejaVuSans-32"/>
     <use x="63.623047" xlink:href="#DejaVuSans-2e"/>
     <use x="95.410156" xlink:href="#DejaVuSans-38"/>
     <use x="159.033203" xlink:href="#DejaVuSans-38"/>
     <use x="222.65625" xlink:href="#DejaVuSans-39"/>
    </g>
   </g>
   <g id="text_11">
    <!-- Rejection Region ($\alpha$) = 0.01 -->
    <g style="fill:#d62728;" transform="translate(39.8854 38.2396)scale(0.09 -0.09)">
     <defs>
      <path d="M 2841 2188 
Q 3044 2119 3236 1894 
Q 3428 1669 3622 1275 
L 4263 0 
L 3584 0 
L 2988 1197 
Q 2756 1666 2539 1819 
Q 2322 1972 1947 1972 
L 1259 1972 
L 1259 0 
L 628 0 
L 628 4666 
L 2053 4666 
Q 2853 4666 3247 4331 
Q 3641 3997 3641 3322 
Q 3641 2881 3436 2590 
Q 3231 2300 2841 2188 
z
M 1259 4147 
L 1259 2491 
L 2053 2491 
Q 2509 2491 2742 2702 
Q 2975 2913 2975 3322 
Q 2975 3731 2742 3939 
Q 2509 4147 2053 4147 
L 1259 4147 
z
" id="DejaVuSans-52" transform="scale(0.015625)"/>
      <path d="M 603 3500 
L 1178 3500 
L 1178 -63 
Q 1178 -731 923 -1031 
Q 669 -1331 103 -1331 
L -116 -1331 
L -116 -844 
L 38 -844 
Q 366 -844 484 -692 
Q 603 -541 603 -63 
L 603 3500 
z
M 603 4863 
L 1178 4863 
L 1178 4134 
L 603 4134 
L 603 4863 
z
" id="DejaVuSans-6a" transform="scale(0.015625)"/>
      <path d="M 3122 3366 
L 3122 2828 
Q 2878 2963 2633 3030 
Q 2388 3097 2138 3097 
Q 1578 3097 1268 2742 
Q 959 2388 959 1747 
Q 959 1106 1268 751 
Q 1578 397 2138 397 
Q 2388 397 2633 464 
Q 2878 531 3122 666 
L 3122 134 
Q 2881 22 2623 -34 
Q 2366 -91 2075 -91 
Q 1284 -91 818 406 
Q 353 903 353 1747 
Q 353 2603 823 3093 
Q 1294 3584 2113 3584 
Q 2378 3584 2631 3529 
Q 2884 3475 3122 3366 
z
" id="DejaVuSans-63" transform="scale(0.015625)"/>
      <path d="M 603 3500 
L 1178 3500 
L 1178 0 
L 603 0 
L 603 3500 
z
M 603 4863 
L 1178 4863 
L 1178 4134 
L 603 4134 
L 603 4863 
z
" id="DejaVuSans-69" transform="scale(0.015625)"/>
      <path d="M 1959 3097 
Q 1497 3097 1228 2736 
Q 959 2375 959 1747 
Q 959 1119 1226 758 
Q 1494 397 1959 397 
Q 2419 397 2687 759 
Q 2956 1122 2956 1747 
Q 2956 2369 2687 2733 
Q 2419 3097 1959 3097 
z
M 1959 3584 
Q 2709 3584 3137 3096 
Q 3566 2609 3566 1747 
Q 3566 888 3137 398 
Q 2709 -91 1959 -91 
Q 1206 -91 779 398 
Q 353 888 353 1747 
Q 353 2609 779 3096 
Q 1206 3584 1959 3584 
z
" id="DejaVuSans-6f" transform="scale(0.015625)"/>
      <path d="M 3513 2113 
L 3513 0 
L 2938 0 
L 2938 2094 
Q 2938 2591 2744 2837 
Q 2550 3084 2163 3084 
Q 1697 3084 1428 2787 
Q 1159 2491 1159 1978 
L 1159 0 
L 581 0 
L 581 3500 
L 1159 3500 
L 1159 2956 
Q 1366 3272 1645 3428 
Q 1925 3584 2291 3584 
Q 2894 3584 3203 3211 
Q 3513 2838 3513 2113 
z
" id="DejaVuSans-6e" transform="scale(0.015625)"/>
      <path id="DejaVuSans-20" transform="scale(0.015625)"/>
      <path d="M 2906 1791 
Q 2906 2416 2648 2759 
Q 2391 3103 1925 3103 
Q 1463 3103 1205 2759 
Q 947 2416 947 1791 
Q 947 1169 1205 825 
Q 1463 481 1925 481 
Q 2391 481 2648 825 
Q 2906 1169 2906 1791 
z
M 3481 434 
Q 3481 -459 3084 -895 
Q 2688 -1331 1869 -1331 
Q 1566 -1331 1297 -1286 
Q 1028 -1241 775 -1147 
L 775 -588 
Q 1028 -725 1275 -790 
Q 1522 -856 1778 -856 
Q 2344 -856 2625 -561 
Q 2906 -266 2906 331 
L 2906 616 
Q 2728 306 2450 153 
Q 2172 0 1784 0 
Q 1141 0 747 490 
Q 353 981 353 1791 
Q 353 2603 747 3093 
Q 1141 3584 1784 3584 
Q 2172 3584 2450 3431 
Q 2728 3278 2906 2969 
L 2906 3500 
L 3481 3500 
L 3481 434 
z
" id="DejaVuSans-67" transform="scale(0.015625)"/>
      <path d="M 1984 4856 
Q 1566 4138 1362 3434 
Q 1159 2731 1159 2009 
Q 1159 1288 1364 580 
Q 1569 -128 1984 -844 
L 1484 -844 
Q 1016 -109 783 600 
Q 550 1309 550 2009 
Q 550 2706 781 3412 
Q 1013 4119 1484 4856 
L 1984 4856 
z
" id="DejaVuSans-28" transform="scale(0.015625)"/>
      <path d="M 2619 1628 
L 2622 2350 
Q 2625 3088 2069 3091 
Q 1653 3094 1394 2747 
Q 1069 2319 959 1747 
Q 825 1059 994 731 
Q 1169 397 1547 397 
Q 1966 397 2319 1063 
L 2619 1628 
z
M 2166 3578 
Q 3141 3594 3128 2584 
Q 3128 2584 3616 3500 
L 4128 3500 
L 3119 1603 
L 3109 919 
Q 3109 766 3194 638 
Q 3291 488 3391 488 
L 3669 488 
L 3575 0 
L 3228 0 
Q 2934 0 2722 263 
Q 2622 394 2619 669 
Q 2416 334 2066 50 
Q 1900 -81 1453 -78 
Q 722 -72 456 397 
Q 184 884 353 1747 
Q 534 2675 1009 3097 
Q 1544 3569 2166 3578 
z
" id="DejaVuSans-Oblique-3b1" transform="scale(0.015625)"/>
      <path d="M 513 4856 
L 1013 4856 
Q 1481 4119 1714 3412 
Q 1947 2706 1947 2009 
Q 1947 1309 1714 600 
Q 1481 -109 1013 -844 
L 513 -844 
Q 928 -128 1133 580 
Q 1338 1288 1338 2009 
Q 1338 2731 1133 3434 
Q 928 4138 513 4856 
z
" id="DejaVuSans-29" transform="scale(0.015625)"/>
      <path d="M 678 2906 
L 4684 2906 
L 4684 2381 
L 678 2381 
L 678 2906 
z
M 678 1631 
L 4684 1631 
L 4684 1100 
L 678 1100 
L 678 1631 
z
" id="DejaVuSans-3d" transform="scale(0.015625)"/>
     </defs>
     <use transform="translate(0 0.015625)" xlink:href="#DejaVuSans-52"/>
     <use transform="translate(69.482422 0.015625)" xlink:href="#DejaVuSans-65"/>
     <use transform="translate(131.005859 0.015625)" xlink:href="#DejaVuSans-6a"/>
     <use transform="translate(158.789062 0.015625)" xlink:href="#DejaVuSans-65"/>
     <use transform="translate(220.3125 0.015625)" xlink:href="#DejaVuSans-63"/>
     <use transform="translate(275.292969 0.015625)" xlink:href="#DejaVuSans-74"/>
     <use transform="translate(314.501953 0.015625)" xlink:href="#DejaVuSans-69"/>
     <use transform="translate(342.285156 0.015625)" xlink:href="#DejaVuSans-6f"/>
     <use transform="translate(403.466797 0.015625)" xlink:href="#DejaVuSans-6e"/>
     <use transform="translate(466.845703 0.015625)" xlink:href="#DejaVuSans-20"/>
     <use transform="translate(498.632812 0.015625)" xlink:href="#DejaVuSans-52"/>
     <use transform="translate(568.115234 0.015625)" xlink:href="#DejaVuSans-65"/>
     <use transform="translate(629.638672 0.015625)" xlink:href="#DejaVuSans-67"/>
     <use transform="translate(693.115234 0.015625)" xlink:href="#DejaVuSans-69"/>
     <use transform="translate(720.898438 0.015625)" xlink:href="#DejaVuSans-6f"/>
     <use transform="translate(782.080078 0.015625)" xlink:href="#DejaVuSans-6e"/>
     <use transform="translate(845.458984 0.015625)" xlink:href="#DejaVuSans-20"/>
     <use transform="translate(877.246094 0.015625)" xlink:href="#DejaVuSans-28"/>
     <use transform="translate(916.259766 0.015625)" xlink:href="#DejaVuSans-Oblique-3b1"/>
     <use transform="translate(982.177734 0.015625)" xlink:href="#DejaVuSans-29"/>
     <use transform="translate(1021.191406 0.015625)" xlink:href="#DejaVuSans-20"/>
     <use transform="translate(1052.978516 0.015625)" xlink:href="#DejaVuSans-3d"/>
     <use transform="translate(1136.767578 0.015625)" xlink:href="#DejaVuSans-20"/>
     <use transform="translate(1168.554688 0.015625)" xlink:href="#DejaVuSans-30"/>
     <use transform="translate(1232.177734 0.015625)" xlink:href="#DejaVuSans-2e"/>
     <use transform="translate(1263.964844 0.015625)" xlink:href="#DejaVuSans-30"/>
     <use transform="translate(1327.587891 0.015625)" xlink:href="#DejaVuSans-31"/>
    </g>
   </g>
   <g id="text_12">
    <!-- Critical Value (CV) = 2.462 -->
    <g transform="translate(39.8854 49.5992)scale(0.09 -0.09)">
     <defs>
      <path d="M 4122 4306 
L 4122 3641 
Q 3803 3938 3442 4084 
Q 3081 4231 2675 4231 
Q 1875 4231 1450 3742 
Q 1025 3253 1025 2328 
Q 1025 1406 1450 917 
Q 1875 428 2675 428 
Q 3081 428 3442 575 
Q 3803 722 4122 1019 
L 4122 359 
Q 3791 134 3420 21 
Q 3050 -91 2638 -91 
Q 1578 -91 968 557 
Q 359 1206 359 2328 
Q 359 3453 968 4101 
Q 1578 4750 2638 4750 
Q 3056 4750 3426 4639 
Q 3797 4528 4122 4306 
z
" id="DejaVuSans-43" transform="scale(0.015625)"/>
      <path d="M 2631 2963 
Q 2534 3019 2420 3045 
Q 2306 3072 2169 3072 
Q 1681 3072 1420 2755 
Q 1159 2438 1159 1844 
L 1159 0 
L 581 0 
L 581 3500 
L 1159 3500 
L 1159 2956 
Q 1341 3275 1631 3429 
Q 1922 3584 2338 3584 
Q 2397 3584 2469 3576 
Q 2541 3569 2628 3553 
L 2631 2963 
z
" id="DejaVuSans-72" transform="scale(0.015625)"/>
      <path d="M 1831 0 
L 50 4666 
L 709 4666 
L 2188 738 
L 3669 4666 
L 4325 4666 
L 2547 0 
L 1831 0 
z
" id="DejaVuSans-56" transform="scale(0.015625)"/>
     </defs>
     <use xlink:href="#DejaVuSans-43"/>
     <use x="69.824219" xlink:href="#DejaVuSans-72"/>
     <use x="110.9375" xlink:href="#DejaVuSans-69"/>
     <use x="138.720703" xlink:href="#DejaVuSans-74"/>
     <use x="177.929688" xlink:href="#DejaVuSans-69"/>
     <use x="205.712891" xlink:href="#DejaVuSans-63"/>
     <use x="260.693359" xlink:href="#DejaVuSans-61"/>
     <use x="321.972656" xlink:href="#DejaVuSans-6c"/>
     <use x="349.755859" xlink:href="#DejaVuSans-20"/>
     <use x="381.542969" xlink:href="#DejaVuSans-56"/>
     <use x="442.201172" xlink:href="#DejaVuSans-61"/>
     <use x="503.480469" xlink:href="#DejaVuSans-6c"/>
     <use x="531.263672" xlink:href="#DejaVuSans-75"/>
     <use x="594.642578" xlink:href="#DejaVuSans-65"/>
     <use x="656.166016" xlink:href="#DejaVuSans-20"/>
     <use x="687.953125" xlink:href="#DejaVuSans-28"/>
     <use x="726.966797" xlink:href="#DejaVuSans-43"/>
     <use x="796.791016" xlink:href="#DejaVuSans-56"/>
     <use x="865.199219" xlink:href="#DejaVuSans-29"/>
     <use x="904.212891" xlink:href="#DejaVuSans-20"/>
     <use x="936" xlink:href="#DejaVuSans-3d"/>
     <use x="1019.789062" xlink:href="#DejaVuSans-20"/>
     <use x="1051.576172" xlink:href="#DejaVuSans-32"/>
     <use x="1115.199219" xlink:href="#DejaVuSans-2e"/>
     <use x="1146.986328" xlink:href="#DejaVuSans-34"/>
     <use x="1210.609375" xlink:href="#DejaVuSans-36"/>
     <use x="1274.232422" xlink:href="#DejaVuSans-32"/>
    </g>
   </g>
   <g id="text_13">
    <!-- Test Statistic (TS) = 2.889 -->
    <g style="fill:#1f77b4;" transform="translate(39.8854 61.7702)scale(0.09 -0.09)">
     <defs>
      <path d="M -19 4666 
L 3928 4666 
L 3928 4134 
L 2272 4134 
L 2272 0 
L 1638 0 
L 1638 4134 
L -19 4134 
L -19 4666 
z
" id="DejaVuSans-54" transform="scale(0.015625)"/>
      <path d="M 2834 3397 
L 2834 2853 
Q 2591 2978 2328 3040 
Q 2066 3103 1784 3103 
Q 1356 3103 1142 2972 
Q 928 2841 928 2578 
Q 928 2378 1081 2264 
Q 1234 2150 1697 2047 
L 1894 2003 
Q 2506 1872 2764 1633 
Q 3022 1394 3022 966 
Q 3022 478 2636 193 
Q 2250 -91 1575 -91 
Q 1294 -91 989 -36 
Q 684 19 347 128 
L 347 722 
Q 666 556 975 473 
Q 1284 391 1588 391 
Q 1994 391 2212 530 
Q 2431 669 2431 922 
Q 2431 1156 2273 1281 
Q 2116 1406 1581 1522 
L 1381 1569 
Q 847 1681 609 1914 
Q 372 2147 372 2553 
Q 372 3047 722 3315 
Q 1072 3584 1716 3584 
Q 2034 3584 2315 3537 
Q 2597 3491 2834 3397 
z
" id="DejaVuSans-73" transform="scale(0.015625)"/>
      <path d="M 3425 4513 
L 3425 3897 
Q 3066 4069 2747 4153 
Q 2428 4238 2131 4238 
Q 1616 4238 1336 4038 
Q 1056 3838 1056 3469 
Q 1056 3159 1242 3001 
Q 1428 2844 1947 2747 
L 2328 2669 
Q 3034 2534 3370 2195 
Q 3706 1856 3706 1288 
Q 3706 609 3251 259 
Q 2797 -91 1919 -91 
Q 1588 -91 1214 -16 
Q 841 59 441 206 
L 441 856 
Q 825 641 1194 531 
Q 1563 422 1919 422 
Q 2459 422 2753 634 
Q 3047 847 3047 1241 
Q 3047 1584 2836 1778 
Q 2625 1972 2144 2069 
L 1759 2144 
Q 1053 2284 737 2584 
Q 422 2884 422 3419 
Q 422 4038 858 4394 
Q 1294 4750 2059 4750 
Q 2388 4750 2728 4690 
Q 3069 4631 3425 4513 
z
" id="DejaVuSans-53" transform="scale(0.015625)"/>
     </defs>
     <use xlink:href="#DejaVuSans-54"/>
     <use x="44.083984" xlink:href="#DejaVuSans-65"/>
     <use x="105.607422" xlink:href="#DejaVuSans-73"/>
     <use x="157.707031" xlink:href="#DejaVuSans-74"/>
     <use x="196.916016" xlink:href="#DejaVuSans-20"/>
     <use x="228.703125" xlink:href="#DejaVuSans-53"/>
     <use x="292.179688" xlink:href="#DejaVuSans-74"/>
     <use x="331.388672" xlink:href="#DejaVuSans-61"/>
     <use x="392.667969" xlink:href="#DejaVuSans-74"/>
     <use x="431.876953" xlink:href="#DejaVuSans-69"/>
     <use x="459.660156" xlink:href="#DejaVuSans-73"/>
     <use x="511.759766" xlink:href="#DejaVuSans-74"/>
     <use x="550.96875" xlink:href="#DejaVuSans-69"/>
     <use x="578.751953" xlink:href="#DejaVuSans-63"/>
     <use x="633.732422" xlink:href="#DejaVuSans-20"/>
     <use x="665.519531" xlink:href="#DejaVuSans-28"/>
     <use x="704.533203" xlink:href="#DejaVuSans-54"/>
     <use x="765.617188" xlink:href="#DejaVuSans-53"/>
     <use x="829.09375" xlink:href="#DejaVuSans-29"/>
     <use x="868.107422" xlink:href="#DejaVuSans-20"/>
     <use x="899.894531" xlink:href="#DejaVuSans-3d"/>
     <use x="983.683594" xlink:href="#DejaVuSans-20"/>
     <use x="1015.470703" xlink:href="#DejaVuSans-32"/>
     <use x="1079.09375" xlink:href="#DejaVuSans-2e"/>
     <use x="1110.880859" xlink:href="#DejaVuSans-38"/>
     <use x="1174.503906" xlink:href="#DejaVuSans-38"/>
     <use x="1238.126953" xlink:href="#DejaVuSans-39"/>
    </g>
   </g>
   <g id="text_14">
    <!-- Student's T-Distribution, df=29 -->
    <g transform="translate(148.836875 20.88)scale(0.12 -0.12)">
     <defs>
      <path d="M 2906 2969 
L 2906 4863 
L 3481 4863 
L 3481 0 
L 2906 0 
L 2906 525 
Q 2725 213 2448 61 
Q 2172 -91 1784 -91 
Q 1150 -91 751 415 
Q 353 922 353 1747 
Q 353 2572 751 3078 
Q 1150 3584 1784 3584 
Q 2172 3584 2448 3432 
Q 2725 3281 2906 2969 
z
M 947 1747 
Q 947 1113 1208 752 
Q 1469 391 1925 391 
Q 2381 391 2643 752 
Q 2906 1113 2906 1747 
Q 2906 2381 2643 2742 
Q 2381 3103 1925 3103 
Q 1469 3103 1208 2742 
Q 947 2381 947 1747 
z
" id="DejaVuSans-64" transform="scale(0.015625)"/>
      <path d="M 1147 4666 
L 1147 2931 
L 616 2931 
L 616 4666 
L 1147 4666 
z
" id="DejaVuSans-27" transform="scale(0.015625)"/>
      <path d="M 1259 4147 
L 1259 519 
L 2022 519 
Q 2988 519 3436 956 
Q 3884 1394 3884 2338 
Q 3884 3275 3436 3711 
Q 2988 4147 2022 4147 
L 1259 4147 
z
M 628 4666 
L 1925 4666 
Q 3281 4666 3915 4102 
Q 4550 3538 4550 2338 
Q 4550 1131 3912 565 
Q 3275 0 1925 0 
L 628 0 
L 628 4666 
z
" id="DejaVuSans-44" transform="scale(0.015625)"/>
      <path d="M 3116 1747 
Q 3116 2381 2855 2742 
Q 2594 3103 2138 3103 
Q 1681 3103 1420 2742 
Q 1159 2381 1159 1747 
Q 1159 1113 1420 752 
Q 1681 391 2138 391 
Q 2594 391 2855 752 
Q 3116 1113 3116 1747 
z
M 1159 2969 
Q 1341 3281 1617 3432 
Q 1894 3584 2278 3584 
Q 2916 3584 3314 3078 
Q 3713 2572 3713 1747 
Q 3713 922 3314 415 
Q 2916 -91 2278 -91 
Q 1894 -91 1617 61 
Q 1341 213 1159 525 
L 1159 0 
L 581 0 
L 581 4863 
L 1159 4863 
L 1159 2969 
z
" id="DejaVuSans-62" transform="scale(0.015625)"/>
      <path d="M 750 794 
L 1409 794 
L 1409 256 
L 897 -744 
L 494 -744 
L 750 256 
L 750 794 
z
" id="DejaVuSans-2c" transform="scale(0.015625)"/>
      <path d="M 2375 4863 
L 2375 4384 
L 1825 4384 
Q 1516 4384 1395 4259 
Q 1275 4134 1275 3809 
L 1275 3500 
L 2222 3500 
L 2222 3053 
L 1275 3053 
L 1275 0 
L 697 0 
L 697 3053 
L 147 3053 
L 147 3500 
L 697 3500 
L 697 3744 
Q 697 4328 969 4595 
Q 1241 4863 1831 4863 
L 2375 4863 
z
" id="DejaVuSans-66" transform="scale(0.015625)"/>
     </defs>
     <use xlink:href="#DejaVuSans-53"/>
     <use x="63.476562" xlink:href="#DejaVuSans-74"/>
     <use x="102.685547" xlink:href="#DejaVuSans-75"/>
     <use x="166.064453" xlink:href="#DejaVuSans-64"/>
     <use x="229.541016" xlink:href="#DejaVuSans-65"/>
     <use x="291.064453" xlink:href="#DejaVuSans-6e"/>
     <use x="354.443359" xlink:href="#DejaVuSans-74"/>
     <use x="393.652344" xlink:href="#DejaVuSans-27"/>
     <use x="421.142578" xlink:href="#DejaVuSans-73"/>
     <use x="473.242188" xlink:href="#DejaVuSans-20"/>
     <use x="505.029297" xlink:href="#DejaVuSans-54"/>
     <use x="556.988281" xlink:href="#DejaVuSans-2d"/>
     <use x="593.072266" xlink:href="#DejaVuSans-44"/>
     <use x="670.074219" xlink:href="#DejaVuSans-69"/>
     <use x="697.857422" xlink:href="#DejaVuSans-73"/>
     <use x="749.957031" xlink:href="#DejaVuSans-74"/>
     <use x="789.166016" xlink:href="#DejaVuSans-72"/>
     <use x="830.279297" xlink:href="#DejaVuSans-69"/>
     <use x="858.0625" xlink:href="#DejaVuSans-62"/>
     <use x="921.539062" xlink:href="#DejaVuSans-75"/>
     <use x="984.917969" xlink:href="#DejaVuSans-74"/>
     <use x="1024.126953" xlink:href="#DejaVuSans-69"/>
     <use x="1051.910156" xlink:href="#DejaVuSans-6f"/>
     <use x="1113.091797" xlink:href="#DejaVuSans-6e"/>
     <use x="1176.470703" xlink:href="#DejaVuSans-2c"/>
     <use x="1208.257812" xlink:href="#DejaVuSans-20"/>
     <use x="1240.044922" xlink:href="#DejaVuSans-64"/>
     <use x="1303.521484" xlink:href="#DejaVuSans-66"/>
     <use x="1338.726562" xlink:href="#DejaVuSans-3d"/>
     <use x="1422.515625" xlink:href="#DejaVuSans-32"/>
     <use x="1486.138672" xlink:href="#DejaVuSans-39"/>
    </g>
   </g>
  </g>
 </g>
 <defs>
  <clipPath id="p225fa5a040">
   <rect height="162.28" width="416.36" x="33.64" y="26.88"/>
  </clipPath>
 </defs>
</svg>
