<?xml version="1.0" encoding="utf-8" standalone="no"?>
<!DOCTYPE svg PUBLIC "-//W3C//DTD SVG 1.1//EN"
  "http://www.w3.org/Graphics/SVG/1.1/DTD/svg11.dtd">
<svg height="345.6pt" version="1.1" viewBox="0 0 863.28 345.6" width="863.28pt" xmlns="http://www.w3.org/2000/svg" xmlns:xlink="http://www.w3.org/1999/xlink">
 <metadata>
  <rdf:RDF xmlns:cc="http://creativecommons.org/ns#" xmlns:dc="http://purl.org/dc/elements/1.1/" xmlns:rdf="http://www.w3.org/1999/02/22-rdf-syntax-ns#">
   <cc:Work>
    <dc:type rdf:resource="http://purl.org/dc/dcmitype/StillImage"/>
    <dc:date>2021-06-25T15:24:51.834549</dc:date>
    <dc:format>image/svg+xml</dc:format>
    <dc:creator>
     <cc:Agent>
      <dc:title>Matplotlib v3.4.2, https://matplotlib.org/</dc:title>
     </cc:Agent>
    </dc:creator>
   </cc:Work>
  </rdf:RDF>
 </metadata>
 <defs>
  <style type="text/css">*{stroke-linecap:butt;stroke-linejoin:round;}</style>
 </defs>
 <g id="figure_1">
  <g id="patch_1">
   <path d="M 0 345.6 
L 863.28 345.6 
L 863.28 0 
L 0 0 
z
" style="fill:#ffffff;"/>
  </g>
  <g id="axes_1">
   <g id="patch_2">
    <path d="M 33.64 300.76 
L 426.24 300.76 
L 426.24 26.88 
L 33.64 26.88 
z
" style="fill:#ffffff;"/>
   </g>
   <g id="PolyCollection_1">
    <defs>
     <path d="M 313.767008 -44.84 
L 313.767008 -99.189464 
L 314.903099 -97.214022 
L 316.03919 -95.290645 
L 317.17528 -93.419076 
L 318.311371 -91.598988 
L 319.447462 -89.82999 
L 320.583553 -88.111628 
L 321.719644 -86.443391 
L 322.855734 -84.824714 
L 323.991825 -83.254984 
L 325.127916 -81.733541 
L 326.264007 -80.259682 
L 327.400098 -78.832668 
L 328.536189 -77.451724 
L 329.672279 -76.116042 
L 330.80837 -74.824788 
L 331.944461 -73.577103 
L 333.080552 -72.372104 
L 334.216643 -71.208893 
L 335.352734 -70.086553 
L 336.488824 -69.004154 
L 337.624915 -67.960758 
L 338.761006 -66.955417 
L 339.897097 -65.987177 
L 341.033188 -65.055083 
L 342.169279 -64.158175 
L 343.305369 -63.295497 
L 344.44146 -62.466095 
L 345.577551 -61.669018 
L 346.713642 -60.903322 
L 347.849733 -60.16807 
L 348.985824 -59.462335 
L 350.121914 -58.785198 
L 351.258005 -58.135754 
L 352.394096 -57.513109 
L 353.530187 -56.916382 
L 354.666278 -56.344708 
L 355.802369 -55.797235 
L 356.938459 -55.273128 
L 358.07455 -54.771569 
L 359.210641 -54.291756 
L 360.346732 -53.832905 
L 361.482823 -53.394249 
L 362.618914 -52.97504 
L 363.755004 -52.574548 
L 364.891095 -52.192062 
L 366.027186 -51.826889 
L 367.163277 -51.478355 
L 368.299368 -51.145806 
L 369.435459 -50.828605 
L 370.571549 -50.526135 
L 371.70764 -50.237798 
L 372.843731 -49.963012 
L 373.979822 -49.701216 
L 375.115913 -49.451866 
L 376.252003 -49.214437 
L 377.388094 -48.988421 
L 378.524185 -48.773326 
L 379.660276 -48.568679 
L 380.796367 -48.374022 
L 381.932458 -48.188917 
L 383.068548 -48.012937 
L 384.204639 -47.845675 
L 385.34073 -47.686738 
L 386.476821 -47.535746 
L 387.612912 -47.392337 
L 388.749003 -47.256161 
L 389.885093 -47.126882 
L 391.021184 -47.004179 
L 392.157275 -46.887743 
L 393.293366 -46.777276 
L 394.429457 -46.672496 
L 395.565548 -46.573129 
L 396.701638 -46.478916 
L 397.837729 -46.389607 
L 398.97382 -46.304963 
L 400.109911 -46.224756 
L 401.246002 -46.148768 
L 402.382093 -46.07679 
L 403.518183 -46.008622 
L 404.654274 -45.944076 
L 405.790365 -45.882968 
L 406.926456 -45.825126 
L 408.062547 -45.770384 
L 409.198638 -45.718584 
L 410.334728 -45.669577 
L 411.470819 -45.623219 
L 412.60691 -45.579374 
L 413.743001 -45.537911 
L 414.879092 -45.498707 
L 416.015183 -45.461645 
L 417.151273 -45.426612 
L 418.287364 -45.393502 
L 419.423455 -45.362213 
L 420.559546 -45.332649 
L 421.695637 -45.304719 
L 422.831728 -45.278336 
L 423.967818 -45.253417 
L 425.103909 -45.229884 
L 426.24 -45.207663 
L 426.24 -44.84 
L 426.24 -44.84 
L 425.103909 -44.84 
L 423.967818 -44.84 
L 422.831728 -44.84 
L 421.695637 -44.84 
L 420.559546 -44.84 
L 419.423455 -44.84 
L 418.287364 -44.84 
L 417.151273 -44.84 
L 416.015183 -44.84 
L 414.879092 -44.84 
L 413.743001 -44.84 
L 412.60691 -44.84 
L 411.470819 -44.84 
L 410.334728 -44.84 
L 409.198638 -44.84 
L 408.062547 -44.84 
L 406.926456 -44.84 
L 405.790365 -44.84 
L 404.654274 -44.84 
L 403.518183 -44.84 
L 402.382093 -44.84 
L 401.246002 -44.84 
L 400.109911 -44.84 
L 398.97382 -44.84 
L 397.837729 -44.84 
L 396.701638 -44.84 
L 395.565548 -44.84 
L 394.429457 -44.84 
L 393.293366 -44.84 
L 392.157275 -44.84 
L 391.021184 -44.84 
L 389.885093 -44.84 
L 388.749003 -44.84 
L 387.612912 -44.84 
L 386.476821 -44.84 
L 385.34073 -44.84 
L 384.204639 -44.84 
L 383.068548 -44.84 
L 381.932458 -44.84 
L 380.796367 -44.84 
L 379.660276 -44.84 
L 378.524185 -44.84 
L 377.388094 -44.84 
L 376.252003 -44.84 
L 375.115913 -44.84 
L 373.979822 -44.84 
L 372.843731 -44.84 
L 371.70764 -44.84 
L 370.571549 -44.84 
L 369.435459 -44.84 
L 368.299368 -44.84 
L 367.163277 -44.84 
L 366.027186 -44.84 
L 364.891095 -44.84 
L 363.755004 -44.84 
L 362.618914 -44.84 
L 361.482823 -44.84 
L 360.346732 -44.84 
L 359.210641 -44.84 
L 358.07455 -44.84 
L 356.938459 -44.84 
L 355.802369 -44.84 
L 354.666278 -44.84 
L 353.530187 -44.84 
L 352.394096 -44.84 
L 351.258005 -44.84 
L 350.121914 -44.84 
L 348.985824 -44.84 
L 347.849733 -44.84 
L 346.713642 -44.84 
L 345.577551 -44.84 
L 344.44146 -44.84 
L 343.305369 -44.84 
L 342.169279 -44.84 
L 341.033188 -44.84 
L 339.897097 -44.84 
L 338.761006 -44.84 
L 337.624915 -44.84 
L 336.488824 -44.84 
L 335.352734 -44.84 
L 334.216643 -44.84 
L 333.080552 -44.84 
L 331.944461 -44.84 
L 330.80837 -44.84 
L 329.672279 -44.84 
L 328.536189 -44.84 
L 327.400098 -44.84 
L 326.264007 -44.84 
L 325.127916 -44.84 
L 323.991825 -44.84 
L 322.855734 -44.84 
L 321.719644 -44.84 
L 320.583553 -44.84 
L 319.447462 -44.84 
L 318.311371 -44.84 
L 317.17528 -44.84 
L 316.03919 -44.84 
L 314.903099 -44.84 
L 313.767008 -44.84 
z
" id="m833162bc45" style="stroke:#1f77b4;stroke-opacity:0.7;"/>
    </defs>
    <g clip-path="url(#p1bed43823d)">
     <use style="fill:#1f77b4;fill-opacity:0.7;stroke:#1f77b4;stroke-opacity:0.7;" x="0" xlink:href="#m833162bc45" y="345.6"/>
    </g>
   </g>
   <g id="matplotlib.axis_1">
    <g id="xtick_1">
     <g id="line2d_1">
      <defs>
       <path d="M 0 0 
L 0 3.5 
" id="m327a55b403" style="stroke:#000000;stroke-width:0.8;"/>
      </defs>
      <g>
       <use style="stroke:#000000;stroke-width:0.8;" x="313.767008" xlink:href="#m327a55b403" y="300.76"/>
      </g>
     </g>
     <g id="text_1">
      <!-- $t_{\alpha}$ -->
      <g transform="translate(309.317008 315.358437)scale(0.1 -0.1)">
       <defs>
        <path d="M 2706 3500 
L 2619 3053 
L 1472 3053 
L 1100 1153 
Q 1081 1047 1072 975 
Q 1063 903 1063 863 
Q 1063 663 1183 572 
Q 1303 481 1569 481 
L 2150 481 
L 2053 0 
L 1503 0 
Q 991 0 739 200 
Q 488 400 488 806 
Q 488 878 497 964 
Q 506 1050 525 1153 
L 897 3053 
L 409 3053 
L 500 3500 
L 978 3500 
L 1172 4494 
L 1747 4494 
L 1556 3500 
L 2706 3500 
z
" id="DejaVuSans-Oblique-74" transform="scale(0.015625)"/>
        <path d="M 2619 1628 
L 2622 2350 
Q 2625 3088 2069 3091 
Q 1653 3094 1394 2747 
Q 1069 2319 959 1747 
Q 825 1059 994 731 
Q 1169 397 1547 397 
Q 1966 397 2319 1063 
L 2619 1628 
z
M 2166 3578 
Q 3141 3594 3128 2584 
Q 3128 2584 3616 3500 
L 4128 3500 
L 3119 1603 
L 3109 919 
Q 3109 766 3194 638 
Q 3291 488 3391 488 
L 3669 488 
L 3575 0 
L 3228 0 
Q 2934 0 2722 263 
Q 2622 394 2619 669 
Q 2416 334 2066 50 
Q 1900 -81 1453 -78 
Q 722 -72 456 397 
Q 184 884 353 1747 
Q 534 2675 1009 3097 
Q 1544 3569 2166 3578 
z
" id="DejaVuSans-Oblique-3b1" transform="scale(0.015625)"/>
       </defs>
       <use transform="translate(0 0.78125)" xlink:href="#DejaVuSans-Oblique-74"/>
       <use transform="translate(39.208984 -15.625)scale(0.7)" xlink:href="#DejaVuSans-Oblique-3b1"/>
      </g>
     </g>
    </g>
    <g id="xtick_2">
     <g id="line2d_2">
      <g>
       <use style="stroke:#000000;stroke-width:0.8;" x="229.94" xlink:href="#m327a55b403" y="300.76"/>
      </g>
     </g>
     <g id="text_2">
      <!-- 0 -->
      <g transform="translate(226.75875 315.358437)scale(0.1 -0.1)">
       <defs>
        <path d="M 2034 4250 
Q 1547 4250 1301 3770 
Q 1056 3291 1056 2328 
Q 1056 1369 1301 889 
Q 1547 409 2034 409 
Q 2525 409 2770 889 
Q 3016 1369 3016 2328 
Q 3016 3291 2770 3770 
Q 2525 4250 2034 4250 
z
M 2034 4750 
Q 2819 4750 3233 4129 
Q 3647 3509 3647 2328 
Q 3647 1150 3233 529 
Q 2819 -91 2034 -91 
Q 1250 -91 836 529 
Q 422 1150 422 2328 
Q 422 3509 836 4129 
Q 1250 4750 2034 4750 
z
" id="DejaVuSans-30" transform="scale(0.015625)"/>
       </defs>
       <use xlink:href="#DejaVuSans-30"/>
      </g>
     </g>
    </g>
    <g id="text_3">
     <!-- t-value -->
     <g transform="translate(210.920313 329.796406)scale(0.11 -0.11)">
      <defs>
       <path d="M 1172 4494 
L 1172 3500 
L 2356 3500 
L 2356 3053 
L 1172 3053 
L 1172 1153 
Q 1172 725 1289 603 
Q 1406 481 1766 481 
L 2356 481 
L 2356 0 
L 1766 0 
Q 1100 0 847 248 
Q 594 497 594 1153 
L 594 3053 
L 172 3053 
L 172 3500 
L 594 3500 
L 594 4494 
L 1172 4494 
z
" id="DejaVuSans-74" transform="scale(0.015625)"/>
       <path d="M 313 2009 
L 1997 2009 
L 1997 1497 
L 313 1497 
L 313 2009 
z
" id="DejaVuSans-2d" transform="scale(0.015625)"/>
       <path d="M 191 3500 
L 800 3500 
L 1894 563 
L 2988 3500 
L 3597 3500 
L 2284 0 
L 1503 0 
L 191 3500 
z
" id="DejaVuSans-76" transform="scale(0.015625)"/>
       <path d="M 2194 1759 
Q 1497 1759 1228 1600 
Q 959 1441 959 1056 
Q 959 750 1161 570 
Q 1363 391 1709 391 
Q 2188 391 2477 730 
Q 2766 1069 2766 1631 
L 2766 1759 
L 2194 1759 
z
M 3341 1997 
L 3341 0 
L 2766 0 
L 2766 531 
Q 2569 213 2275 61 
Q 1981 -91 1556 -91 
Q 1019 -91 701 211 
Q 384 513 384 1019 
Q 384 1609 779 1909 
Q 1175 2209 1959 2209 
L 2766 2209 
L 2766 2266 
Q 2766 2663 2505 2880 
Q 2244 3097 1772 3097 
Q 1472 3097 1187 3025 
Q 903 2953 641 2809 
L 641 3341 
Q 956 3463 1253 3523 
Q 1550 3584 1831 3584 
Q 2591 3584 2966 3190 
Q 3341 2797 3341 1997 
z
" id="DejaVuSans-61" transform="scale(0.015625)"/>
       <path d="M 603 4863 
L 1178 4863 
L 1178 0 
L 603 0 
L 603 4863 
z
" id="DejaVuSans-6c" transform="scale(0.015625)"/>
       <path d="M 544 1381 
L 544 3500 
L 1119 3500 
L 1119 1403 
Q 1119 906 1312 657 
Q 1506 409 1894 409 
Q 2359 409 2629 706 
Q 2900 1003 2900 1516 
L 2900 3500 
L 3475 3500 
L 3475 0 
L 2900 0 
L 2900 538 
Q 2691 219 2414 64 
Q 2138 -91 1772 -91 
Q 1169 -91 856 284 
Q 544 659 544 1381 
z
M 1991 3584 
L 1991 3584 
z
" id="DejaVuSans-75" transform="scale(0.015625)"/>
       <path d="M 3597 1894 
L 3597 1613 
L 953 1613 
Q 991 1019 1311 708 
Q 1631 397 2203 397 
Q 2534 397 2845 478 
Q 3156 559 3463 722 
L 3463 178 
Q 3153 47 2828 -22 
Q 2503 -91 2169 -91 
Q 1331 -91 842 396 
Q 353 884 353 1716 
Q 353 2575 817 3079 
Q 1281 3584 2069 3584 
Q 2775 3584 3186 3129 
Q 3597 2675 3597 1894 
z
M 3022 2063 
Q 3016 2534 2758 2815 
Q 2500 3097 2075 3097 
Q 1594 3097 1305 2825 
Q 1016 2553 972 2059 
L 3022 2063 
z
" id="DejaVuSans-65" transform="scale(0.015625)"/>
      </defs>
      <use xlink:href="#DejaVuSans-74"/>
      <use x="39.208984" xlink:href="#DejaVuSans-2d"/>
      <use x="72.667969" xlink:href="#DejaVuSans-76"/>
      <use x="131.847656" xlink:href="#DejaVuSans-61"/>
      <use x="193.126953" xlink:href="#DejaVuSans-6c"/>
      <use x="220.910156" xlink:href="#DejaVuSans-75"/>
      <use x="284.289062" xlink:href="#DejaVuSans-65"/>
     </g>
    </g>
   </g>
   <g id="matplotlib.axis_2">
    <g id="ytick_1">
     <g id="line2d_3">
      <defs>
       <path d="M 0 0 
L -3.5 0 
" id="maaef302011" style="stroke:#000000;stroke-width:0.8;"/>
      </defs>
      <g>
       <use style="stroke:#000000;stroke-width:0.8;" x="33.64" xlink:href="#maaef302011" y="300.76"/>
      </g>
     </g>
     <g id="text_4">
      <!-- 0.0 -->
      <g transform="translate(10.736875 304.559219)scale(0.1 -0.1)">
       <defs>
        <path d="M 684 794 
L 1344 794 
L 1344 0 
L 684 0 
L 684 794 
z
" id="DejaVuSans-2e" transform="scale(0.015625)"/>
       </defs>
       <use xlink:href="#DejaVuSans-30"/>
       <use x="63.623047" xlink:href="#DejaVuSans-2e"/>
       <use x="95.410156" xlink:href="#DejaVuSans-30"/>
      </g>
     </g>
    </g>
    <g id="ytick_2">
     <g id="line2d_4">
      <g>
       <use style="stroke:#000000;stroke-width:0.8;" x="33.64" xlink:href="#maaef302011" y="242.970197"/>
      </g>
     </g>
     <g id="text_5">
      <!-- 0.1 -->
      <g transform="translate(10.736875 246.769416)scale(0.1 -0.1)">
       <defs>
        <path d="M 794 531 
L 1825 531 
L 1825 4091 
L 703 3866 
L 703 4441 
L 1819 4666 
L 2450 4666 
L 2450 531 
L 3481 531 
L 3481 0 
L 794 0 
L 794 531 
z
" id="DejaVuSans-31" transform="scale(0.015625)"/>
       </defs>
       <use xlink:href="#DejaVuSans-30"/>
       <use x="63.623047" xlink:href="#DejaVuSans-2e"/>
       <use x="95.410156" xlink:href="#DejaVuSans-31"/>
      </g>
     </g>
    </g>
    <g id="ytick_3">
     <g id="line2d_5">
      <g>
       <use style="stroke:#000000;stroke-width:0.8;" x="33.64" xlink:href="#maaef302011" y="185.180394"/>
      </g>
     </g>
     <g id="text_6">
      <!-- 0.2 -->
      <g transform="translate(10.736875 188.979613)scale(0.1 -0.1)">
       <defs>
        <path d="M 1228 531 
L 3431 531 
L 3431 0 
L 469 0 
L 469 531 
Q 828 903 1448 1529 
Q 2069 2156 2228 2338 
Q 2531 2678 2651 2914 
Q 2772 3150 2772 3378 
Q 2772 3750 2511 3984 
Q 2250 4219 1831 4219 
Q 1534 4219 1204 4116 
Q 875 4013 500 3803 
L 500 4441 
Q 881 4594 1212 4672 
Q 1544 4750 1819 4750 
Q 2544 4750 2975 4387 
Q 3406 4025 3406 3419 
Q 3406 3131 3298 2873 
Q 3191 2616 2906 2266 
Q 2828 2175 2409 1742 
Q 1991 1309 1228 531 
z
" id="DejaVuSans-32" transform="scale(0.015625)"/>
       </defs>
       <use xlink:href="#DejaVuSans-30"/>
       <use x="63.623047" xlink:href="#DejaVuSans-2e"/>
       <use x="95.410156" xlink:href="#DejaVuSans-32"/>
      </g>
     </g>
    </g>
    <g id="ytick_4">
     <g id="line2d_6">
      <g>
       <use style="stroke:#000000;stroke-width:0.8;" x="33.64" xlink:href="#maaef302011" y="127.390591"/>
      </g>
     </g>
     <g id="text_7">
      <!-- 0.3 -->
      <g transform="translate(10.736875 131.18981)scale(0.1 -0.1)">
       <defs>
        <path d="M 2597 2516 
Q 3050 2419 3304 2112 
Q 3559 1806 3559 1356 
Q 3559 666 3084 287 
Q 2609 -91 1734 -91 
Q 1441 -91 1130 -33 
Q 819 25 488 141 
L 488 750 
Q 750 597 1062 519 
Q 1375 441 1716 441 
Q 2309 441 2620 675 
Q 2931 909 2931 1356 
Q 2931 1769 2642 2001 
Q 2353 2234 1838 2234 
L 1294 2234 
L 1294 2753 
L 1863 2753 
Q 2328 2753 2575 2939 
Q 2822 3125 2822 3475 
Q 2822 3834 2567 4026 
Q 2313 4219 1838 4219 
Q 1578 4219 1281 4162 
Q 984 4106 628 3988 
L 628 4550 
Q 988 4650 1302 4700 
Q 1616 4750 1894 4750 
Q 2613 4750 3031 4423 
Q 3450 4097 3450 3541 
Q 3450 3153 3228 2886 
Q 3006 2619 2597 2516 
z
" id="DejaVuSans-33" transform="scale(0.015625)"/>
       </defs>
       <use xlink:href="#DejaVuSans-30"/>
       <use x="63.623047" xlink:href="#DejaVuSans-2e"/>
       <use x="95.410156" xlink:href="#DejaVuSans-33"/>
      </g>
     </g>
    </g>
    <g id="ytick_5">
     <g id="line2d_7">
      <g>
       <use style="stroke:#000000;stroke-width:0.8;" x="33.64" xlink:href="#maaef302011" y="69.600788"/>
      </g>
     </g>
     <g id="text_8">
      <!-- 0.4 -->
      <g transform="translate(10.736875 73.400007)scale(0.1 -0.1)">
       <defs>
        <path d="M 2419 4116 
L 825 1625 
L 2419 1625 
L 2419 4116 
z
M 2253 4666 
L 3047 4666 
L 3047 1625 
L 3713 1625 
L 3713 1100 
L 3047 1100 
L 3047 0 
L 2419 0 
L 2419 1100 
L 313 1100 
L 313 1709 
L 2253 4666 
z
" id="DejaVuSans-34" transform="scale(0.015625)"/>
       </defs>
       <use xlink:href="#DejaVuSans-30"/>
       <use x="63.623047" xlink:href="#DejaVuSans-2e"/>
       <use x="95.410156" xlink:href="#DejaVuSans-34"/>
      </g>
     </g>
    </g>
   </g>
   <g id="LineCollection_1">
    <path clip-path="url(#p1bed43823d)" d="M 313.767008 300.76 
L 313.767008 246.410536 
" style="fill:none;stroke:#000000;"/>
   </g>
   <g id="line2d_8">
    <path clip-path="url(#p1bed43823d)" d="M 33.64 300.392337 
L 46.770435 300.039258 
L 57.274783 299.536893 
L 65.153043 298.954037 
L 71.718261 298.274329 
L 78.283478 297.357318 
L 83.535652 296.404353 
L 88.787826 295.207717 
L 92.726957 294.118578 
L 96.666087 292.836997 
L 100.605217 291.334701 
L 104.544348 289.580733 
L 108.483478 287.541578 
L 112.422609 285.181399 
L 116.361739 282.462429 
L 120.30087 279.345518 
L 122.926957 277.026848 
L 125.553043 274.501862 
L 128.17913 271.759004 
L 130.805217 268.787084 
L 133.431304 265.575469 
L 136.057391 262.114288 
L 138.683478 258.394648 
L 141.309565 254.408879 
L 145.248696 247.918127 
L 149.187826 240.801666 
L 153.126957 233.056907 
L 157.066087 224.694043 
L 161.005217 215.737938 
L 164.944348 206.229812 
L 168.883478 196.228569 
L 174.135652 182.263114 
L 182.013913 160.464596 
L 191.205217 135.010611 
L 196.457391 121.178617 
L 200.396522 111.454863 
L 204.335652 102.480718 
L 206.961739 96.997453 
L 209.587826 91.969064 
L 212.213913 87.439775 
L 214.84 83.450246 
L 217.466087 80.036927 
L 220.092174 77.231473 
L 221.405217 76.065146 
L 222.718261 75.06022 
L 224.031304 74.219084 
L 225.344348 73.543744 
L 226.657391 73.035817 
L 227.970435 72.69652 
L 229.283478 72.526667 
L 230.596522 72.526667 
L 231.909565 72.69652 
L 233.222609 73.035817 
L 234.535652 73.543744 
L 235.848696 74.219084 
L 237.161739 75.06022 
L 238.474783 76.065146 
L 239.787826 77.231473 
L 242.413913 80.036927 
L 245.04 83.450246 
L 247.666087 87.439775 
L 250.292174 91.969064 
L 252.918261 96.997453 
L 255.544348 102.480718 
L 258.170435 108.371759 
L 262.109565 117.864695 
L 266.048696 127.99223 
L 271.30087 142.182831 
L 289.683478 192.798085 
L 294.935652 206.229812 
L 298.874783 215.737938 
L 302.813913 224.694043 
L 306.753043 233.056907 
L 310.692174 240.801666 
L 314.631304 247.918127 
L 318.570435 254.408879 
L 322.509565 260.287286 
L 325.135652 263.876656 
L 327.761739 267.211876 
L 330.387826 270.302356 
L 333.013913 273.158377 
L 335.64 275.790873 
L 338.266087 278.21124 
L 342.205217 281.469634 
L 346.144348 284.316852 
L 350.083478 286.79235 
L 354.022609 288.934427 
L 357.961739 290.779613 
L 361.90087 292.36223 
L 365.84 293.714107 
L 369.77913 294.864419 
L 375.031304 296.129981 
L 380.283478 297.139309 
L 385.535652 297.939723 
L 392.10087 298.70662 
L 399.97913 299.36623 
L 409.170435 299.880164 
L 420.987826 300.278067 
L 426.24 300.392337 
L 426.24 300.392337 
" style="fill:none;stroke:#1f77b4;stroke-linecap:square;stroke-width:1.5;"/>
   </g>
   <g id="patch_3">
    <path d="M 33.64 300.76 
L 33.64 26.88 
" style="fill:none;stroke:#000000;stroke-linecap:square;stroke-linejoin:miter;stroke-width:0.8;"/>
   </g>
   <g id="patch_4">
    <path d="M 426.24 300.76 
L 426.24 26.88 
" style="fill:none;stroke:#000000;stroke-linecap:square;stroke-linejoin:miter;stroke-width:0.8;"/>
   </g>
   <g id="patch_5">
    <path d="M 33.64 300.76 
L 426.24 300.76 
" style="fill:none;stroke:#000000;stroke-linecap:square;stroke-linejoin:miter;stroke-width:0.8;"/>
   </g>
   <g id="patch_6">
    <path d="M 33.64 26.88 
L 426.24 26.88 
" style="fill:none;stroke:#000000;stroke-linecap:square;stroke-linejoin:miter;stroke-width:0.8;"/>
   </g>
   <g id="patch_7">
    <path d="M 367.121153 265.771279 
Q 359.779219 275.811426 352.899247 285.219836 
" style="fill:none;stroke:#000000;stroke-linecap:round;stroke-width:0.7;"/>
    <path d="M 356.874748 283.17157 
L 352.899247 285.219836 
L 353.645935 280.810476 
" style="fill:none;stroke:#000000;stroke-linecap:round;stroke-width:0.7;"/>
   </g>
   <g id="text_9">
    <!-- $\alpha$ -->
    <g transform="translate(370.003504 260.076246)scale(0.1 -0.1)">
     <use transform="translate(0 0.84375)" xlink:href="#DejaVuSans-Oblique-3b1"/>
    </g>
   </g>
   <g id="text_10">
    <!-- T-distribution, one tail area -->
    <g transform="translate(148.933438 20.88)scale(0.12 -0.12)">
     <defs>
      <path d="M -19 4666 
L 3928 4666 
L 3928 4134 
L 2272 4134 
L 2272 0 
L 1638 0 
L 1638 4134 
L -19 4134 
L -19 4666 
z
" id="DejaVuSans-54" transform="scale(0.015625)"/>
      <path d="M 2906 2969 
L 2906 4863 
L 3481 4863 
L 3481 0 
L 2906 0 
L 2906 525 
Q 2725 213 2448 61 
Q 2172 -91 1784 -91 
Q 1150 -91 751 415 
Q 353 922 353 1747 
Q 353 2572 751 3078 
Q 1150 3584 1784 3584 
Q 2172 3584 2448 3432 
Q 2725 3281 2906 2969 
z
M 947 1747 
Q 947 1113 1208 752 
Q 1469 391 1925 391 
Q 2381 391 2643 752 
Q 2906 1113 2906 1747 
Q 2906 2381 2643 2742 
Q 2381 3103 1925 3103 
Q 1469 3103 1208 2742 
Q 947 2381 947 1747 
z
" id="DejaVuSans-64" transform="scale(0.015625)"/>
      <path d="M 603 3500 
L 1178 3500 
L 1178 0 
L 603 0 
L 603 3500 
z
M 603 4863 
L 1178 4863 
L 1178 4134 
L 603 4134 
L 603 4863 
z
" id="DejaVuSans-69" transform="scale(0.015625)"/>
      <path d="M 2834 3397 
L 2834 2853 
Q 2591 2978 2328 3040 
Q 2066 3103 1784 3103 
Q 1356 3103 1142 2972 
Q 928 2841 928 2578 
Q 928 2378 1081 2264 
Q 1234 2150 1697 2047 
L 1894 2003 
Q 2506 1872 2764 1633 
Q 3022 1394 3022 966 
Q 3022 478 2636 193 
Q 2250 -91 1575 -91 
Q 1294 -91 989 -36 
Q 684 19 347 128 
L 347 722 
Q 666 556 975 473 
Q 1284 391 1588 391 
Q 1994 391 2212 530 
Q 2431 669 2431 922 
Q 2431 1156 2273 1281 
Q 2116 1406 1581 1522 
L 1381 1569 
Q 847 1681 609 1914 
Q 372 2147 372 2553 
Q 372 3047 722 3315 
Q 1072 3584 1716 3584 
Q 2034 3584 2315 3537 
Q 2597 3491 2834 3397 
z
" id="DejaVuSans-73" transform="scale(0.015625)"/>
      <path d="M 2631 2963 
Q 2534 3019 2420 3045 
Q 2306 3072 2169 3072 
Q 1681 3072 1420 2755 
Q 1159 2438 1159 1844 
L 1159 0 
L 581 0 
L 581 3500 
L 1159 3500 
L 1159 2956 
Q 1341 3275 1631 3429 
Q 1922 3584 2338 3584 
Q 2397 3584 2469 3576 
Q 2541 3569 2628 3553 
L 2631 2963 
z
" id="DejaVuSans-72" transform="scale(0.015625)"/>
      <path d="M 3116 1747 
Q 3116 2381 2855 2742 
Q 2594 3103 2138 3103 
Q 1681 3103 1420 2742 
Q 1159 2381 1159 1747 
Q 1159 1113 1420 752 
Q 1681 391 2138 391 
Q 2594 391 2855 752 
Q 3116 1113 3116 1747 
z
M 1159 2969 
Q 1341 3281 1617 3432 
Q 1894 3584 2278 3584 
Q 2916 3584 3314 3078 
Q 3713 2572 3713 1747 
Q 3713 922 3314 415 
Q 2916 -91 2278 -91 
Q 1894 -91 1617 61 
Q 1341 213 1159 525 
L 1159 0 
L 581 0 
L 581 4863 
L 1159 4863 
L 1159 2969 
z
" id="DejaVuSans-62" transform="scale(0.015625)"/>
      <path d="M 1959 3097 
Q 1497 3097 1228 2736 
Q 959 2375 959 1747 
Q 959 1119 1226 758 
Q 1494 397 1959 397 
Q 2419 397 2687 759 
Q 2956 1122 2956 1747 
Q 2956 2369 2687 2733 
Q 2419 3097 1959 3097 
z
M 1959 3584 
Q 2709 3584 3137 3096 
Q 3566 2609 3566 1747 
Q 3566 888 3137 398 
Q 2709 -91 1959 -91 
Q 1206 -91 779 398 
Q 353 888 353 1747 
Q 353 2609 779 3096 
Q 1206 3584 1959 3584 
z
" id="DejaVuSans-6f" transform="scale(0.015625)"/>
      <path d="M 3513 2113 
L 3513 0 
L 2938 0 
L 2938 2094 
Q 2938 2591 2744 2837 
Q 2550 3084 2163 3084 
Q 1697 3084 1428 2787 
Q 1159 2491 1159 1978 
L 1159 0 
L 581 0 
L 581 3500 
L 1159 3500 
L 1159 2956 
Q 1366 3272 1645 3428 
Q 1925 3584 2291 3584 
Q 2894 3584 3203 3211 
Q 3513 2838 3513 2113 
z
" id="DejaVuSans-6e" transform="scale(0.015625)"/>
      <path d="M 750 794 
L 1409 794 
L 1409 256 
L 897 -744 
L 494 -744 
L 750 256 
L 750 794 
z
" id="DejaVuSans-2c" transform="scale(0.015625)"/>
      <path id="DejaVuSans-20" transform="scale(0.015625)"/>
     </defs>
     <use xlink:href="#DejaVuSans-54"/>
     <use x="51.958984" xlink:href="#DejaVuSans-2d"/>
     <use x="88.042969" xlink:href="#DejaVuSans-64"/>
     <use x="151.519531" xlink:href="#DejaVuSans-69"/>
     <use x="179.302734" xlink:href="#DejaVuSans-73"/>
     <use x="231.402344" xlink:href="#DejaVuSans-74"/>
     <use x="270.611328" xlink:href="#DejaVuSans-72"/>
     <use x="311.724609" xlink:href="#DejaVuSans-69"/>
     <use x="339.507812" xlink:href="#DejaVuSans-62"/>
     <use x="402.984375" xlink:href="#DejaVuSans-75"/>
     <use x="466.363281" xlink:href="#DejaVuSans-74"/>
     <use x="505.572266" xlink:href="#DejaVuSans-69"/>
     <use x="533.355469" xlink:href="#DejaVuSans-6f"/>
     <use x="594.537109" xlink:href="#DejaVuSans-6e"/>
     <use x="657.916016" xlink:href="#DejaVuSans-2c"/>
     <use x="689.703125" xlink:href="#DejaVuSans-20"/>
     <use x="721.490234" xlink:href="#DejaVuSans-6f"/>
     <use x="782.671875" xlink:href="#DejaVuSans-6e"/>
     <use x="846.050781" xlink:href="#DejaVuSans-65"/>
     <use x="907.574219" xlink:href="#DejaVuSans-20"/>
     <use x="939.361328" xlink:href="#DejaVuSans-74"/>
     <use x="978.570312" xlink:href="#DejaVuSans-61"/>
     <use x="1039.849609" xlink:href="#DejaVuSans-69"/>
     <use x="1067.632812" xlink:href="#DejaVuSans-6c"/>
     <use x="1095.416016" xlink:href="#DejaVuSans-20"/>
     <use x="1127.203125" xlink:href="#DejaVuSans-61"/>
     <use x="1188.482422" xlink:href="#DejaVuSans-72"/>
     <use x="1227.345703" xlink:href="#DejaVuSans-65"/>
     <use x="1288.869141" xlink:href="#DejaVuSans-61"/>
    </g>
   </g>
  </g>
  <g id="axes_2">
   <g id="patch_8">
    <path d="M 459.88 300.76 
L 852.48 300.76 
L 852.48 26.88 
L 459.88 26.88 
z
" style="fill:#ffffff;"/>
   </g>
   <g id="PolyCollection_2">
    <defs>
     <path d="M 459.88 -44.84 
L 459.88 -45.207663 
L 460.8419 -45.226394 
L 461.803801 -45.246057 
L 462.765701 -45.266697 
L 463.727602 -45.288361 
L 464.689502 -45.311096 
L 465.651403 -45.334955 
L 466.613303 -45.359989 
L 467.575204 -45.386256 
L 468.537104 -45.413812 
L 469.499005 -45.442718 
L 470.460905 -45.473038 
L 471.422806 -45.504837 
L 472.384706 -45.538184 
L 473.346606 -45.573152 
L 474.308507 -45.609814 
L 475.270407 -45.648248 
L 476.232308 -45.688537 
L 477.194208 -45.730764 
L 478.156109 -45.775018 
L 479.118009 -45.821392 
L 480.07991 -45.869979 
L 481.04181 -45.920881 
L 482.003711 -45.974202 
L 482.965611 -46.030048 
L 483.927511 -46.088532 
L 484.889412 -46.149772 
L 485.851312 -46.213887 
L 486.813213 -46.281006 
L 487.775113 -46.351259 
L 488.737014 -46.424782 
L 489.698914 -46.501716 
L 490.660815 -46.582209 
L 491.622715 -46.666414 
L 492.584616 -46.754488 
L 493.546516 -46.846595 
L 494.508417 -46.942907 
L 495.470317 -47.043599 
L 496.432217 -47.148854 
L 497.394118 -47.258862 
L 498.356018 -47.37382 
L 499.317919 -47.493929 
L 500.279819 -47.619402 
L 501.24172 -47.750454 
L 502.20362 -47.887311 
L 503.165521 -48.030206 
L 504.127421 -48.179379 
L 505.089322 -48.335078 
L 506.051222 -48.497559 
L 507.013123 -48.667088 
L 507.975023 -48.843936 
L 508.936923 -49.028386 
L 509.898824 -49.220727 
L 510.860724 -49.421259 
L 511.822625 -49.630289 
L 512.784525 -49.848134 
L 513.746426 -50.075121 
L 514.708326 -50.311585 
L 515.670227 -50.55787 
L 516.632127 -50.814331 
L 517.594028 -51.081332 
L 518.555928 -51.359245 
L 519.517829 -51.648455 
L 520.479729 -51.949353 
L 521.441629 -52.262341 
L 522.40353 -52.587833 
L 523.36543 -52.926249 
L 524.327331 -53.27802 
L 525.289231 -53.643588 
L 526.251132 -54.023403 
L 527.213032 -54.417924 
L 528.174933 -54.82762 
L 529.136833 -55.25297 
L 530.098734 -55.69446 
L 531.060634 -56.152586 
L 532.022534 -56.627853 
L 532.984435 -57.120772 
L 533.946335 -57.631865 
L 534.908236 -58.161659 
L 535.870136 -58.710689 
L 536.832037 -59.279499 
L 537.793937 -59.868636 
L 538.755838 -60.478655 
L 539.717738 -61.110116 
L 540.679639 -61.763585 
L 541.641539 -62.439632 
L 542.60344 -63.138828 
L 543.56534 -63.861752 
L 544.52724 -64.608981 
L 545.489141 -65.381096 
L 546.451041 -66.178678 
L 547.412942 -67.00231 
L 548.374842 -67.85257 
L 549.336743 -68.730038 
L 550.298643 -69.63529 
L 551.260544 -70.568898 
L 552.222444 -71.53143 
L 553.184345 -72.523445 
L 554.146245 -73.5455 
L 555.108146 -74.598139 
L 555.108146 -44.84 
L 555.108146 -44.84 
L 554.146245 -44.84 
L 553.184345 -44.84 
L 552.222444 -44.84 
L 551.260544 -44.84 
L 550.298643 -44.84 
L 549.336743 -44.84 
L 548.374842 -44.84 
L 547.412942 -44.84 
L 546.451041 -44.84 
L 545.489141 -44.84 
L 544.52724 -44.84 
L 543.56534 -44.84 
L 542.60344 -44.84 
L 541.641539 -44.84 
L 540.679639 -44.84 
L 539.717738 -44.84 
L 538.755838 -44.84 
L 537.793937 -44.84 
L 536.832037 -44.84 
L 535.870136 -44.84 
L 534.908236 -44.84 
L 533.946335 -44.84 
L 532.984435 -44.84 
L 532.022534 -44.84 
L 531.060634 -44.84 
L 530.098734 -44.84 
L 529.136833 -44.84 
L 528.174933 -44.84 
L 527.213032 -44.84 
L 526.251132 -44.84 
L 525.289231 -44.84 
L 524.327331 -44.84 
L 523.36543 -44.84 
L 522.40353 -44.84 
L 521.441629 -44.84 
L 520.479729 -44.84 
L 519.517829 -44.84 
L 518.555928 -44.84 
L 517.594028 -44.84 
L 516.632127 -44.84 
L 515.670227 -44.84 
L 514.708326 -44.84 
L 513.746426 -44.84 
L 512.784525 -44.84 
L 511.822625 -44.84 
L 510.860724 -44.84 
L 509.898824 -44.84 
L 508.936923 -44.84 
L 507.975023 -44.84 
L 507.013123 -44.84 
L 506.051222 -44.84 
L 505.089322 -44.84 
L 504.127421 -44.84 
L 503.165521 -44.84 
L 502.20362 -44.84 
L 501.24172 -44.84 
L 500.279819 -44.84 
L 499.317919 -44.84 
L 498.356018 -44.84 
L 497.394118 -44.84 
L 496.432217 -44.84 
L 495.470317 -44.84 
L 494.508417 -44.84 
L 493.546516 -44.84 
L 492.584616 -44.84 
L 491.622715 -44.84 
L 490.660815 -44.84 
L 489.698914 -44.84 
L 488.737014 -44.84 
L 487.775113 -44.84 
L 486.813213 -44.84 
L 485.851312 -44.84 
L 484.889412 -44.84 
L 483.927511 -44.84 
L 482.965611 -44.84 
L 482.003711 -44.84 
L 481.04181 -44.84 
L 480.07991 -44.84 
L 479.118009 -44.84 
L 478.156109 -44.84 
L 477.194208 -44.84 
L 476.232308 -44.84 
L 475.270407 -44.84 
L 474.308507 -44.84 
L 473.346606 -44.84 
L 472.384706 -44.84 
L 471.422806 -44.84 
L 470.460905 -44.84 
L 469.499005 -44.84 
L 468.537104 -44.84 
L 467.575204 -44.84 
L 466.613303 -44.84 
L 465.651403 -44.84 
L 464.689502 -44.84 
L 463.727602 -44.84 
L 462.765701 -44.84 
L 461.803801 -44.84 
L 460.8419 -44.84 
L 459.88 -44.84 
z
" id="m68e2683f58" style="stroke:#1f77b4;stroke-opacity:0.7;"/>
    </defs>
    <g clip-path="url(#pe55b1be2d5)">
     <use style="fill:#1f77b4;fill-opacity:0.7;stroke:#1f77b4;stroke-opacity:0.7;" x="0" xlink:href="#m68e2683f58" y="345.6"/>
    </g>
   </g>
   <g id="PolyCollection_3">
    <defs>
     <path d="M 757.251854 -44.84 
L 757.251854 -74.598139 
L 758.213755 -73.5455 
L 759.175655 -72.523445 
L 760.137556 -71.53143 
L 761.099456 -70.568898 
L 762.061357 -69.63529 
L 763.023257 -68.730038 
L 763.985158 -67.85257 
L 764.947058 -67.00231 
L 765.908959 -66.178678 
L 766.870859 -65.381096 
L 767.83276 -64.608981 
L 768.79466 -63.861752 
L 769.75656 -63.138828 
L 770.718461 -62.439632 
L 771.680361 -61.763585 
L 772.642262 -61.110116 
L 773.604162 -60.478655 
L 774.566063 -59.868636 
L 775.527963 -59.279499 
L 776.489864 -58.710689 
L 777.451764 -58.161659 
L 778.413665 -57.631865 
L 779.375565 -57.120772 
L 780.337466 -56.627853 
L 781.299366 -56.152586 
L 782.261266 -55.69446 
L 783.223167 -55.25297 
L 784.185067 -54.82762 
L 785.146968 -54.417924 
L 786.108868 -54.023403 
L 787.070769 -53.643588 
L 788.032669 -53.27802 
L 788.99457 -52.926249 
L 789.95647 -52.587833 
L 790.918371 -52.262341 
L 791.880271 -51.949353 
L 792.842171 -51.648455 
L 793.804072 -51.359245 
L 794.765972 -51.081332 
L 795.727873 -50.814331 
L 796.689773 -50.55787 
L 797.651674 -50.311585 
L 798.613574 -50.075121 
L 799.575475 -49.848134 
L 800.537375 -49.630289 
L 801.499276 -49.421259 
L 802.461176 -49.220727 
L 803.423077 -49.028386 
L 804.384977 -48.843936 
L 805.346877 -48.667088 
L 806.308778 -48.497559 
L 807.270678 -48.335078 
L 808.232579 -48.179379 
L 809.194479 -48.030206 
L 810.15638 -47.887311 
L 811.11828 -47.750454 
L 812.080181 -47.619402 
L 813.042081 -47.493929 
L 814.003982 -47.37382 
L 814.965882 -47.258862 
L 815.927783 -47.148854 
L 816.889683 -47.043599 
L 817.851583 -46.942907 
L 818.813484 -46.846595 
L 819.775384 -46.754488 
L 820.737285 -46.666414 
L 821.699185 -46.582209 
L 822.661086 -46.501716 
L 823.622986 -46.424782 
L 824.584887 -46.351259 
L 825.546787 -46.281006 
L 826.508688 -46.213887 
L 827.470588 -46.149772 
L 828.432489 -46.088532 
L 829.394389 -46.030048 
L 830.356289 -45.974202 
L 831.31819 -45.920881 
L 832.28009 -45.869979 
L 833.241991 -45.821392 
L 834.203891 -45.775018 
L 835.165792 -45.730764 
L 836.127692 -45.688537 
L 837.089593 -45.648248 
L 838.051493 -45.609814 
L 839.013394 -45.573152 
L 839.975294 -45.538184 
L 840.937194 -45.504837 
L 841.899095 -45.473038 
L 842.860995 -45.442718 
L 843.822896 -45.413812 
L 844.784796 -45.386256 
L 845.746697 -45.359989 
L 846.708597 -45.334955 
L 847.670498 -45.311096 
L 848.632398 -45.288361 
L 849.594299 -45.266697 
L 850.556199 -45.246057 
L 851.5181 -45.226394 
L 852.48 -45.207663 
L 852.48 -44.84 
L 852.48 -44.84 
L 851.5181 -44.84 
L 850.556199 -44.84 
L 849.594299 -44.84 
L 848.632398 -44.84 
L 847.670498 -44.84 
L 846.708597 -44.84 
L 845.746697 -44.84 
L 844.784796 -44.84 
L 843.822896 -44.84 
L 842.860995 -44.84 
L 841.899095 -44.84 
L 840.937194 -44.84 
L 839.975294 -44.84 
L 839.013394 -44.84 
L 838.051493 -44.84 
L 837.089593 -44.84 
L 836.127692 -44.84 
L 835.165792 -44.84 
L 834.203891 -44.84 
L 833.241991 -44.84 
L 832.28009 -44.84 
L 831.31819 -44.84 
L 830.356289 -44.84 
L 829.394389 -44.84 
L 828.432489 -44.84 
L 827.470588 -44.84 
L 826.508688 -44.84 
L 825.546787 -44.84 
L 824.584887 -44.84 
L 823.622986 -44.84 
L 822.661086 -44.84 
L 821.699185 -44.84 
L 820.737285 -44.84 
L 819.775384 -44.84 
L 818.813484 -44.84 
L 817.851583 -44.84 
L 816.889683 -44.84 
L 815.927783 -44.84 
L 814.965882 -44.84 
L 814.003982 -44.84 
L 813.042081 -44.84 
L 812.080181 -44.84 
L 811.11828 -44.84 
L 810.15638 -44.84 
L 809.194479 -44.84 
L 808.232579 -44.84 
L 807.270678 -44.84 
L 806.308778 -44.84 
L 805.346877 -44.84 
L 804.384977 -44.84 
L 803.423077 -44.84 
L 802.461176 -44.84 
L 801.499276 -44.84 
L 800.537375 -44.84 
L 799.575475 -44.84 
L 798.613574 -44.84 
L 797.651674 -44.84 
L 796.689773 -44.84 
L 795.727873 -44.84 
L 794.765972 -44.84 
L 793.804072 -44.84 
L 792.842171 -44.84 
L 791.880271 -44.84 
L 790.918371 -44.84 
L 789.95647 -44.84 
L 788.99457 -44.84 
L 788.032669 -44.84 
L 787.070769 -44.84 
L 786.108868 -44.84 
L 785.146968 -44.84 
L 784.185067 -44.84 
L 783.223167 -44.84 
L 782.261266 -44.84 
L 781.299366 -44.84 
L 780.337466 -44.84 
L 779.375565 -44.84 
L 778.413665 -44.84 
L 777.451764 -44.84 
L 776.489864 -44.84 
L 775.527963 -44.84 
L 774.566063 -44.84 
L 773.604162 -44.84 
L 772.642262 -44.84 
L 771.680361 -44.84 
L 770.718461 -44.84 
L 769.75656 -44.84 
L 768.79466 -44.84 
L 767.83276 -44.84 
L 766.870859 -44.84 
L 765.908959 -44.84 
L 764.947058 -44.84 
L 763.985158 -44.84 
L 763.023257 -44.84 
L 762.061357 -44.84 
L 761.099456 -44.84 
L 760.137556 -44.84 
L 759.175655 -44.84 
L 758.213755 -44.84 
L 757.251854 -44.84 
z
" id="m793162917f" style="stroke:#1f77b4;stroke-opacity:0.7;"/>
    </defs>
    <g clip-path="url(#pe55b1be2d5)">
     <use style="fill:#1f77b4;fill-opacity:0.7;stroke:#1f77b4;stroke-opacity:0.7;" x="0" xlink:href="#m793162917f" y="345.6"/>
    </g>
   </g>
   <g id="matplotlib.axis_3">
    <g id="xtick_3">
     <g id="line2d_9">
      <g>
       <use style="stroke:#000000;stroke-width:0.8;" x="555.108146" xlink:href="#m327a55b403" y="300.76"/>
      </g>
     </g>
     <g id="text_11">
      <!-- $-t_{\alpha/2}$ -->
      <g transform="translate(543.208146 315.138125)scale(0.1 -0.1)">
       <defs>
        <path d="M 678 2272 
L 4684 2272 
L 4684 1741 
L 678 1741 
L 678 2272 
z
" id="DejaVuSans-2212" transform="scale(0.015625)"/>
        <path d="M 1625 4666 
L 2156 4666 
L 531 -594 
L 0 -594 
L 1625 4666 
z
" id="DejaVuSans-2f" transform="scale(0.015625)"/>
       </defs>
       <use transform="translate(0 0.78125)" xlink:href="#DejaVuSans-2212"/>
       <use transform="translate(83.789062 0.78125)" xlink:href="#DejaVuSans-Oblique-74"/>
       <use transform="translate(122.998047 -15.625)scale(0.7)" xlink:href="#DejaVuSans-Oblique-3b1"/>
       <use transform="translate(169.140625 -15.625)scale(0.7)" xlink:href="#DejaVuSans-2f"/>
       <use transform="translate(190.187109 -15.625)scale(0.7)" xlink:href="#DejaVuSans-32"/>
      </g>
     </g>
    </g>
    <g id="xtick_4">
     <g id="line2d_10">
      <g>
       <use style="stroke:#000000;stroke-width:0.8;" x="757.251854" xlink:href="#m327a55b403" y="300.76"/>
      </g>
     </g>
     <g id="text_12">
      <!-- $t_{\alpha/2}$ -->
      <g transform="translate(749.551854 315.138125)scale(0.1 -0.1)">
       <use transform="translate(0 0.78125)" xlink:href="#DejaVuSans-Oblique-74"/>
       <use transform="translate(39.208984 -15.625)scale(0.7)" xlink:href="#DejaVuSans-Oblique-3b1"/>
       <use transform="translate(85.351562 -15.625)scale(0.7)" xlink:href="#DejaVuSans-2f"/>
       <use transform="translate(106.398047 -15.625)scale(0.7)" xlink:href="#DejaVuSans-32"/>
      </g>
     </g>
    </g>
    <g id="xtick_5">
     <g id="line2d_11">
      <g>
       <use style="stroke:#000000;stroke-width:0.8;" x="656.18" xlink:href="#m327a55b403" y="300.76"/>
      </g>
     </g>
     <g id="text_13">
      <!-- 0 -->
      <g transform="translate(652.99875 315.358437)scale(0.1 -0.1)">
       <use xlink:href="#DejaVuSans-30"/>
      </g>
     </g>
    </g>
    <g id="text_14">
     <!-- t-value -->
     <g transform="translate(637.160313 329.796406)scale(0.11 -0.11)">
      <use xlink:href="#DejaVuSans-74"/>
      <use x="39.208984" xlink:href="#DejaVuSans-2d"/>
      <use x="72.667969" xlink:href="#DejaVuSans-76"/>
      <use x="131.847656" xlink:href="#DejaVuSans-61"/>
      <use x="193.126953" xlink:href="#DejaVuSans-6c"/>
      <use x="220.910156" xlink:href="#DejaVuSans-75"/>
      <use x="284.289062" xlink:href="#DejaVuSans-65"/>
     </g>
    </g>
   </g>
   <g id="matplotlib.axis_4">
    <g id="ytick_6">
     <g id="line2d_12">
      <g>
       <use style="stroke:#000000;stroke-width:0.8;" x="459.88" xlink:href="#maaef302011" y="300.76"/>
      </g>
     </g>
     <g id="text_15">
      <!-- 0.0 -->
      <g transform="translate(436.976875 304.559219)scale(0.1 -0.1)">
       <use xlink:href="#DejaVuSans-30"/>
       <use x="63.623047" xlink:href="#DejaVuSans-2e"/>
       <use x="95.410156" xlink:href="#DejaVuSans-30"/>
      </g>
     </g>
    </g>
    <g id="ytick_7">
     <g id="line2d_13">
      <g>
       <use style="stroke:#000000;stroke-width:0.8;" x="459.88" xlink:href="#maaef302011" y="242.970197"/>
      </g>
     </g>
     <g id="text_16">
      <!-- 0.1 -->
      <g transform="translate(436.976875 246.769416)scale(0.1 -0.1)">
       <use xlink:href="#DejaVuSans-30"/>
       <use x="63.623047" xlink:href="#DejaVuSans-2e"/>
       <use x="95.410156" xlink:href="#DejaVuSans-31"/>
      </g>
     </g>
    </g>
    <g id="ytick_8">
     <g id="line2d_14">
      <g>
       <use style="stroke:#000000;stroke-width:0.8;" x="459.88" xlink:href="#maaef302011" y="185.180394"/>
      </g>
     </g>
     <g id="text_17">
      <!-- 0.2 -->
      <g transform="translate(436.976875 188.979613)scale(0.1 -0.1)">
       <use xlink:href="#DejaVuSans-30"/>
       <use x="63.623047" xlink:href="#DejaVuSans-2e"/>
       <use x="95.410156" xlink:href="#DejaVuSans-32"/>
      </g>
     </g>
    </g>
    <g id="ytick_9">
     <g id="line2d_15">
      <g>
       <use style="stroke:#000000;stroke-width:0.8;" x="459.88" xlink:href="#maaef302011" y="127.390591"/>
      </g>
     </g>
     <g id="text_18">
      <!-- 0.3 -->
      <g transform="translate(436.976875 131.18981)scale(0.1 -0.1)">
       <use xlink:href="#DejaVuSans-30"/>
       <use x="63.623047" xlink:href="#DejaVuSans-2e"/>
       <use x="95.410156" xlink:href="#DejaVuSans-33"/>
      </g>
     </g>
    </g>
    <g id="ytick_10">
     <g id="line2d_16">
      <g>
       <use style="stroke:#000000;stroke-width:0.8;" x="459.88" xlink:href="#maaef302011" y="69.600788"/>
      </g>
     </g>
     <g id="text_19">
      <!-- 0.4 -->
      <g transform="translate(436.976875 73.400007)scale(0.1 -0.1)">
       <use xlink:href="#DejaVuSans-30"/>
       <use x="63.623047" xlink:href="#DejaVuSans-2e"/>
       <use x="95.410156" xlink:href="#DejaVuSans-34"/>
      </g>
     </g>
    </g>
   </g>
   <g id="LineCollection_2">
    <path clip-path="url(#pe55b1be2d5)" d="M 555.108146 300.76 
L 555.108146 271.001861 
" style="fill:none;stroke:#000000;"/>
   </g>
   <g id="LineCollection_3">
    <path clip-path="url(#pe55b1be2d5)" d="M 757.251854 300.76 
L 757.251854 271.001861 
" style="fill:none;stroke:#000000;"/>
   </g>
   <g id="line2d_17">
    <path clip-path="url(#pe55b1be2d5)" d="M 459.88 300.392337 
L 473.010435 300.039258 
L 483.514783 299.536893 
L 491.393043 298.954037 
L 497.958261 298.274329 
L 504.523478 297.357318 
L 509.775652 296.404353 
L 515.027826 295.207717 
L 518.966957 294.118578 
L 522.906087 292.836997 
L 526.845217 291.334701 
L 530.784348 289.580733 
L 534.723478 287.541578 
L 538.662609 285.181399 
L 542.601739 282.462429 
L 546.54087 279.345518 
L 549.166957 277.026848 
L 551.793043 274.501862 
L 554.41913 271.759004 
L 557.045217 268.787084 
L 559.671304 265.575469 
L 562.297391 262.114288 
L 564.923478 258.394648 
L 567.549565 254.408879 
L 571.488696 247.918127 
L 575.427826 240.801666 
L 579.366957 233.056907 
L 583.306087 224.694043 
L 587.245217 215.737938 
L 591.184348 206.229812 
L 595.123478 196.228569 
L 600.375652 182.263114 
L 608.253913 160.464596 
L 617.445217 135.010611 
L 622.697391 121.178617 
L 626.636522 111.454863 
L 630.575652 102.480718 
L 633.201739 96.997453 
L 635.827826 91.969064 
L 638.453913 87.439775 
L 641.08 83.450246 
L 643.706087 80.036927 
L 646.332174 77.231473 
L 647.645217 76.065146 
L 648.958261 75.06022 
L 650.271304 74.219084 
L 651.584348 73.543744 
L 652.897391 73.035817 
L 654.210435 72.69652 
L 655.523478 72.526667 
L 656.836522 72.526667 
L 658.149565 72.69652 
L 659.462609 73.035817 
L 660.775652 73.543744 
L 662.088696 74.219084 
L 663.401739 75.06022 
L 664.714783 76.065146 
L 666.027826 77.231473 
L 668.653913 80.036927 
L 671.28 83.450246 
L 673.906087 87.439775 
L 676.532174 91.969064 
L 679.158261 96.997453 
L 681.784348 102.480718 
L 684.410435 108.371759 
L 688.349565 117.864695 
L 692.288696 127.99223 
L 697.54087 142.182831 
L 715.923478 192.798085 
L 721.175652 206.229812 
L 725.114783 215.737938 
L 729.053913 224.694043 
L 732.993043 233.056907 
L 736.932174 240.801666 
L 740.871304 247.918127 
L 744.810435 254.408879 
L 748.749565 260.287286 
L 751.375652 263.876656 
L 754.001739 267.211876 
L 756.627826 270.302356 
L 759.253913 273.158377 
L 761.88 275.790873 
L 764.506087 278.21124 
L 768.445217 281.469634 
L 772.384348 284.316852 
L 776.323478 286.79235 
L 780.262609 288.934427 
L 784.201739 290.779613 
L 788.14087 292.36223 
L 792.08 293.714107 
L 796.01913 294.864419 
L 801.271304 296.129981 
L 806.523478 297.139309 
L 811.775652 297.939723 
L 818.34087 298.70662 
L 826.21913 299.36623 
L 835.410435 299.880164 
L 847.227826 300.278067 
L 852.48 300.392337 
L 852.48 300.392337 
" style="fill:none;stroke:#1f77b4;stroke-linecap:square;stroke-width:1.5;"/>
   </g>
   <g id="patch_9">
    <path d="M 459.88 300.76 
L 459.88 26.88 
" style="fill:none;stroke:#000000;stroke-linecap:square;stroke-linejoin:miter;stroke-width:0.8;"/>
   </g>
   <g id="patch_10">
    <path d="M 852.48 300.76 
L 852.48 26.88 
" style="fill:none;stroke:#000000;stroke-linecap:square;stroke-linejoin:miter;stroke-width:0.8;"/>
   </g>
   <g id="patch_11">
    <path d="M 459.88 300.76 
L 852.48 300.76 
" style="fill:none;stroke:#000000;stroke-linecap:square;stroke-linejoin:miter;stroke-width:0.8;"/>
   </g>
   <g id="patch_12">
    <path d="M 459.88 26.88 
L 852.48 26.88 
" style="fill:none;stroke:#000000;stroke-linecap:square;stroke-linejoin:miter;stroke-width:0.8;"/>
   </g>
   <g id="patch_13">
    <path d="M 506.152416 270.935265 
Q 514.138019 281.020362 521.637787 290.491893 
" style="fill:none;stroke:#000000;stroke-linecap:round;stroke-width:0.7;"/>
    <path d="M 520.722648 286.114391 
L 521.637787 290.491893 
L 517.586702 288.597503 
" style="fill:none;stroke:#000000;stroke-linecap:round;stroke-width:0.7;"/>
   </g>
   <g id="text_20">
    <!-- $\alpha/2$ -->
    <g transform="translate(491.494073 265.285751)scale(0.1 -0.1)">
     <use transform="translate(0 0.78125)" xlink:href="#DejaVuSans-Oblique-3b1"/>
     <use transform="translate(65.917969 0.78125)" xlink:href="#DejaVuSans-2f"/>
     <use transform="translate(95.984375 0.78125)" xlink:href="#DejaVuSans-32"/>
    </g>
   </g>
   <g id="patch_14">
    <path d="M 806.207584 270.935265 
Q 798.221981 281.020362 790.722213 290.491893 
" style="fill:none;stroke:#000000;stroke-linecap:round;stroke-width:0.7;"/>
    <path d="M 794.773298 288.597503 
L 790.722213 290.491893 
L 791.637352 286.114391 
" style="fill:none;stroke:#000000;stroke-linecap:round;stroke-width:0.7;"/>
   </g>
   <g id="text_21">
    <!-- $\alpha/2$ -->
    <g transform="translate(804.865927 265.285751)scale(0.1 -0.1)">
     <use transform="translate(0 0.78125)" xlink:href="#DejaVuSans-Oblique-3b1"/>
     <use transform="translate(65.917969 0.78125)" xlink:href="#DejaVuSans-2f"/>
     <use transform="translate(95.984375 0.78125)" xlink:href="#DejaVuSans-32"/>
    </g>
   </g>
   <g id="text_22">
    <!-- T-distribution, two tails areas -->
    <g transform="translate(569.1575 20.88)scale(0.12 -0.12)">
     <defs>
      <path d="M 269 3500 
L 844 3500 
L 1563 769 
L 2278 3500 
L 2956 3500 
L 3675 769 
L 4391 3500 
L 4966 3500 
L 4050 0 
L 3372 0 
L 2619 2869 
L 1863 0 
L 1184 0 
L 269 3500 
z
" id="DejaVuSans-77" transform="scale(0.015625)"/>
     </defs>
     <use xlink:href="#DejaVuSans-54"/>
     <use x="51.958984" xlink:href="#DejaVuSans-2d"/>
     <use x="88.042969" xlink:href="#DejaVuSans-64"/>
     <use x="151.519531" xlink:href="#DejaVuSans-69"/>
     <use x="179.302734" xlink:href="#DejaVuSans-73"/>
     <use x="231.402344" xlink:href="#DejaVuSans-74"/>
     <use x="270.611328" xlink:href="#DejaVuSans-72"/>
     <use x="311.724609" xlink:href="#DejaVuSans-69"/>
     <use x="339.507812" xlink:href="#DejaVuSans-62"/>
     <use x="402.984375" xlink:href="#DejaVuSans-75"/>
     <use x="466.363281" xlink:href="#DejaVuSans-74"/>
     <use x="505.572266" xlink:href="#DejaVuSans-69"/>
     <use x="533.355469" xlink:href="#DejaVuSans-6f"/>
     <use x="594.537109" xlink:href="#DejaVuSans-6e"/>
     <use x="657.916016" xlink:href="#DejaVuSans-2c"/>
     <use x="689.703125" xlink:href="#DejaVuSans-20"/>
     <use x="721.490234" xlink:href="#DejaVuSans-74"/>
     <use x="760.699219" xlink:href="#DejaVuSans-77"/>
     <use x="842.486328" xlink:href="#DejaVuSans-6f"/>
     <use x="903.667969" xlink:href="#DejaVuSans-20"/>
     <use x="935.455078" xlink:href="#DejaVuSans-74"/>
     <use x="974.664062" xlink:href="#DejaVuSans-61"/>
     <use x="1035.943359" xlink:href="#DejaVuSans-69"/>
     <use x="1063.726562" xlink:href="#DejaVuSans-6c"/>
     <use x="1091.509766" xlink:href="#DejaVuSans-73"/>
     <use x="1143.609375" xlink:href="#DejaVuSans-20"/>
     <use x="1175.396484" xlink:href="#DejaVuSans-61"/>
     <use x="1236.675781" xlink:href="#DejaVuSans-72"/>
     <use x="1275.539062" xlink:href="#DejaVuSans-65"/>
     <use x="1337.0625" xlink:href="#DejaVuSans-61"/>
     <use x="1398.341797" xlink:href="#DejaVuSans-73"/>
    </g>
   </g>
  </g>
 </g>
 <defs>
  <clipPath id="p1bed43823d">
   <rect height="273.88" width="392.6" x="33.64" y="26.88"/>
  </clipPath>
  <clipPath id="pe55b1be2d5">
   <rect height="273.88" width="392.6" x="459.88" y="26.88"/>
  </clipPath>
 </defs>
</svg>
