<?xml version="1.0" encoding="utf-8" standalone="no"?>
<!DOCTYPE svg PUBLIC "-//W3C//DTD SVG 1.1//EN"
  "http://www.w3.org/Graphics/SVG/1.1/DTD/svg11.dtd">
<svg height="446.4pt" version="1.1" viewBox="0 0 460.8 446.4" width="460.8pt" xmlns="http://www.w3.org/2000/svg" xmlns:xlink="http://www.w3.org/1999/xlink">
 <metadata>
  <rdf:RDF xmlns:cc="http://creativecommons.org/ns#" xmlns:dc="http://purl.org/dc/elements/1.1/" xmlns:rdf="http://www.w3.org/1999/02/22-rdf-syntax-ns#">
   <cc:Work>
    <dc:type rdf:resource="http://purl.org/dc/dcmitype/StillImage"/>
    <dc:date>2021-07-19T07:22:25.944385</dc:date>
    <dc:format>image/svg+xml</dc:format>
    <dc:creator>
     <cc:Agent>
      <dc:title>Matplotlib v3.4.2, https://matplotlib.org/</dc:title>
     </cc:Agent>
    </dc:creator>
   </cc:Work>
  </rdf:RDF>
 </metadata>
 <defs>
  <style type="text/css">*{stroke-linecap:butt;stroke-linejoin:round;}</style>
 </defs>
 <g id="figure_1">
  <g id="patch_1">
   <path d="M 0 446.4 
L 460.8 446.4 
L 460.8 0 
L 0 0 
z
" style="fill:#ffffff;"/>
  </g>
  <g id="axes_1">
   <g id="patch_2">
    <path d="M 33.64 201.36 
L 450 201.36 
L 450 26.88 
L 33.64 26.88 
z
" style="fill:#ffffff;"/>
   </g>
   <g id="PolyCollection_1">
    <defs>
     <path d="M 33.64 -245.04 
L 33.64 -245.239704 
L 34.667637 -245.250493 
L 35.695273 -245.261848 
L 36.72291 -245.273797 
L 37.750546 -245.28637 
L 38.778183 -245.299599 
L 39.80582 -245.313515 
L 40.833456 -245.328152 
L 41.861093 -245.343548 
L 42.888729 -245.359738 
L 43.916366 -245.376762 
L 44.944003 -245.39466 
L 45.971639 -245.413475 
L 46.999276 -245.433252 
L 48.026912 -245.454037 
L 49.054549 -245.475878 
L 50.082186 -245.498826 
L 51.109822 -245.522935 
L 52.137459 -245.548259 
L 53.165095 -245.574856 
L 54.192732 -245.602786 
L 55.220369 -245.632112 
L 56.248005 -245.662898 
L 57.275642 -245.695214 
L 58.303278 -245.72913 
L 59.330915 -245.764719 
L 60.358552 -245.802059 
L 61.386188 -245.841229 
L 62.413825 -245.882314 
L 63.441461 -245.925399 
L 64.469098 -245.970575 
L 65.496735 -246.017935 
L 66.524371 -246.067578 
L 67.552008 -246.119603 
L 68.579644 -246.174116 
L 69.607281 -246.231226 
L 70.634918 -246.291047 
L 71.662554 -246.353695 
L 72.690191 -246.419294 
L 73.717827 -246.487968 
L 74.745464 -246.559849 
L 75.773101 -246.635073 
L 76.800737 -246.71378 
L 77.828374 -246.796116 
L 78.85601 -246.88223 
L 79.883647 -246.972279 
L 80.911284 -247.066424 
L 81.93892 -247.164831 
L 82.966557 -247.267671 
L 83.994193 -247.375123 
L 85.02183 -247.487369 
L 86.049467 -247.604598 
L 87.077103 -247.727006 
L 88.10474 -247.854792 
L 89.132376 -247.988164 
L 90.160013 -248.127335 
L 91.18765 -248.272524 
L 92.215286 -248.423956 
L 93.242923 -248.581864 
L 94.270559 -248.746485 
L 95.298196 -248.918064 
L 96.325833 -249.096853 
L 97.353469 -249.283108 
L 98.381106 -249.477095 
L 99.408742 -249.679082 
L 100.436379 -249.889349 
L 101.464016 -250.108177 
L 102.491652 -250.335856 
L 103.519289 -250.572684 
L 104.546925 -250.818962 
L 105.574562 -251.074999 
L 106.602199 -251.34111 
L 107.629835 -251.617615 
L 108.657472 -251.904842 
L 109.685108 -252.203122 
L 110.712745 -252.512794 
L 111.740382 -252.834199 
L 112.768018 -253.167687 
L 113.795655 -253.513611 
L 114.823291 -253.872328 
L 115.850928 -254.244199 
L 116.878564 -254.629591 
L 117.906201 -255.028873 
L 118.933838 -255.442419 
L 119.961474 -255.870602 
L 120.989111 -256.313803 
L 122.016747 -256.772399 
L 123.044384 -257.246774 
L 124.072021 -257.737309 
L 125.099657 -258.244388 
L 126.127294 -258.768394 
L 127.15493 -259.309708 
L 128.182567 -259.868712 
L 129.210204 -260.445785 
L 130.23784 -261.041303 
L 131.265477 -261.655638 
L 132.293113 -262.28916 
L 133.32075 -262.942233 
L 134.348387 -263.615214 
L 135.376023 -264.308455 
L 135.376023 -245.04 
L 135.376023 -245.04 
L 134.348387 -245.04 
L 133.32075 -245.04 
L 132.293113 -245.04 
L 131.265477 -245.04 
L 130.23784 -245.04 
L 129.210204 -245.04 
L 128.182567 -245.04 
L 127.15493 -245.04 
L 126.127294 -245.04 
L 125.099657 -245.04 
L 124.072021 -245.04 
L 123.044384 -245.04 
L 122.016747 -245.04 
L 120.989111 -245.04 
L 119.961474 -245.04 
L 118.933838 -245.04 
L 117.906201 -245.04 
L 116.878564 -245.04 
L 115.850928 -245.04 
L 114.823291 -245.04 
L 113.795655 -245.04 
L 112.768018 -245.04 
L 111.740382 -245.04 
L 110.712745 -245.04 
L 109.685108 -245.04 
L 108.657472 -245.04 
L 107.629835 -245.04 
L 106.602199 -245.04 
L 105.574562 -245.04 
L 104.546925 -245.04 
L 103.519289 -245.04 
L 102.491652 -245.04 
L 101.464016 -245.04 
L 100.436379 -245.04 
L 99.408742 -245.04 
L 98.381106 -245.04 
L 97.353469 -245.04 
L 96.325833 -245.04 
L 95.298196 -245.04 
L 94.270559 -245.04 
L 93.242923 -245.04 
L 92.215286 -245.04 
L 91.18765 -245.04 
L 90.160013 -245.04 
L 89.132376 -245.04 
L 88.10474 -245.04 
L 87.077103 -245.04 
L 86.049467 -245.04 
L 85.02183 -245.04 
L 83.994193 -245.04 
L 82.966557 -245.04 
L 81.93892 -245.04 
L 80.911284 -245.04 
L 79.883647 -245.04 
L 78.85601 -245.04 
L 77.828374 -245.04 
L 76.800737 -245.04 
L 75.773101 -245.04 
L 74.745464 -245.04 
L 73.717827 -245.04 
L 72.690191 -245.04 
L 71.662554 -245.04 
L 70.634918 -245.04 
L 69.607281 -245.04 
L 68.579644 -245.04 
L 67.552008 -245.04 
L 66.524371 -245.04 
L 65.496735 -245.04 
L 64.469098 -245.04 
L 63.441461 -245.04 
L 62.413825 -245.04 
L 61.386188 -245.04 
L 60.358552 -245.04 
L 59.330915 -245.04 
L 58.303278 -245.04 
L 57.275642 -245.04 
L 56.248005 -245.04 
L 55.220369 -245.04 
L 54.192732 -245.04 
L 53.165095 -245.04 
L 52.137459 -245.04 
L 51.109822 -245.04 
L 50.082186 -245.04 
L 49.054549 -245.04 
L 48.026912 -245.04 
L 46.999276 -245.04 
L 45.971639 -245.04 
L 44.944003 -245.04 
L 43.916366 -245.04 
L 42.888729 -245.04 
L 41.861093 -245.04 
L 40.833456 -245.04 
L 39.80582 -245.04 
L 38.778183 -245.04 
L 37.750546 -245.04 
L 36.72291 -245.04 
L 35.695273 -245.04 
L 34.667637 -245.04 
L 33.64 -245.04 
z
" id="mbc2d8636c4" style="stroke:#d62728;stroke-opacity:0.7;"/>
    </defs>
    <g clip-path="url(#pe5a83bbcfc)">
     <use style="fill:#d62728;fill-opacity:0.7;stroke:#d62728;stroke-opacity:0.7;" x="0" xlink:href="#mbc2d8636c4" y="446.4"/>
    </g>
   </g>
   <g id="PolyCollection_2">
    <defs>
     <path d="M 348.263977 -245.04 
L 348.263977 -264.308455 
L 349.291613 -263.615214 
L 350.31925 -262.942233 
L 351.346887 -262.28916 
L 352.374523 -261.655638 
L 353.40216 -261.041303 
L 354.429796 -260.445785 
L 355.457433 -259.868712 
L 356.48507 -259.309708 
L 357.512706 -258.768394 
L 358.540343 -258.244388 
L 359.567979 -257.737309 
L 360.595616 -257.246774 
L 361.623253 -256.772399 
L 362.650889 -256.313803 
L 363.678526 -255.870602 
L 364.706162 -255.442419 
L 365.733799 -255.028873 
L 366.761436 -254.629591 
L 367.789072 -254.244199 
L 368.816709 -253.872328 
L 369.844345 -253.513611 
L 370.871982 -253.167687 
L 371.899618 -252.834199 
L 372.927255 -252.512794 
L 373.954892 -252.203122 
L 374.982528 -251.904842 
L 376.010165 -251.617615 
L 377.037801 -251.34111 
L 378.065438 -251.074999 
L 379.093075 -250.818962 
L 380.120711 -250.572684 
L 381.148348 -250.335856 
L 382.175984 -250.108177 
L 383.203621 -249.889349 
L 384.231258 -249.679082 
L 385.258894 -249.477095 
L 386.286531 -249.283108 
L 387.314167 -249.096853 
L 388.341804 -248.918064 
L 389.369441 -248.746485 
L 390.397077 -248.581864 
L 391.424714 -248.423956 
L 392.45235 -248.272524 
L 393.479987 -248.127335 
L 394.507624 -247.988164 
L 395.53526 -247.854792 
L 396.562897 -247.727006 
L 397.590533 -247.604598 
L 398.61817 -247.487369 
L 399.645807 -247.375123 
L 400.673443 -247.267671 
L 401.70108 -247.164831 
L 402.728716 -247.066424 
L 403.756353 -246.972279 
L 404.78399 -246.88223 
L 405.811626 -246.796116 
L 406.839263 -246.71378 
L 407.866899 -246.635073 
L 408.894536 -246.559849 
L 409.922173 -246.487968 
L 410.949809 -246.419294 
L 411.977446 -246.353695 
L 413.005082 -246.291047 
L 414.032719 -246.231226 
L 415.060356 -246.174116 
L 416.087992 -246.119603 
L 417.115629 -246.067578 
L 418.143265 -246.017935 
L 419.170902 -245.970575 
L 420.198539 -245.925399 
L 421.226175 -245.882314 
L 422.253812 -245.841229 
L 423.281448 -245.802059 
L 424.309085 -245.764719 
L 425.336722 -245.72913 
L 426.364358 -245.695214 
L 427.391995 -245.662898 
L 428.419631 -245.632112 
L 429.447268 -245.602786 
L 430.474905 -245.574856 
L 431.502541 -245.548259 
L 432.530178 -245.522935 
L 433.557814 -245.498826 
L 434.585451 -245.475878 
L 435.613088 -245.454037 
L 436.640724 -245.433252 
L 437.668361 -245.413475 
L 438.695997 -245.39466 
L 439.723634 -245.376762 
L 440.751271 -245.359738 
L 441.778907 -245.343548 
L 442.806544 -245.328152 
L 443.83418 -245.313515 
L 444.861817 -245.299599 
L 445.889454 -245.28637 
L 446.91709 -245.273797 
L 447.944727 -245.261848 
L 448.972363 -245.250493 
L 450 -245.239704 
L 450 -245.04 
L 450 -245.04 
L 448.972363 -245.04 
L 447.944727 -245.04 
L 446.91709 -245.04 
L 445.889454 -245.04 
L 444.861817 -245.04 
L 443.83418 -245.04 
L 442.806544 -245.04 
L 441.778907 -245.04 
L 440.751271 -245.04 
L 439.723634 -245.04 
L 438.695997 -245.04 
L 437.668361 -245.04 
L 436.640724 -245.04 
L 435.613088 -245.04 
L 434.585451 -245.04 
L 433.557814 -245.04 
L 432.530178 -245.04 
L 431.502541 -245.04 
L 430.474905 -245.04 
L 429.447268 -245.04 
L 428.419631 -245.04 
L 427.391995 -245.04 
L 426.364358 -245.04 
L 425.336722 -245.04 
L 424.309085 -245.04 
L 423.281448 -245.04 
L 422.253812 -245.04 
L 421.226175 -245.04 
L 420.198539 -245.04 
L 419.170902 -245.04 
L 418.143265 -245.04 
L 417.115629 -245.04 
L 416.087992 -245.04 
L 415.060356 -245.04 
L 414.032719 -245.04 
L 413.005082 -245.04 
L 411.977446 -245.04 
L 410.949809 -245.04 
L 409.922173 -245.04 
L 408.894536 -245.04 
L 407.866899 -245.04 
L 406.839263 -245.04 
L 405.811626 -245.04 
L 404.78399 -245.04 
L 403.756353 -245.04 
L 402.728716 -245.04 
L 401.70108 -245.04 
L 400.673443 -245.04 
L 399.645807 -245.04 
L 398.61817 -245.04 
L 397.590533 -245.04 
L 396.562897 -245.04 
L 395.53526 -245.04 
L 394.507624 -245.04 
L 393.479987 -245.04 
L 392.45235 -245.04 
L 391.424714 -245.04 
L 390.397077 -245.04 
L 389.369441 -245.04 
L 388.341804 -245.04 
L 387.314167 -245.04 
L 386.286531 -245.04 
L 385.258894 -245.04 
L 384.231258 -245.04 
L 383.203621 -245.04 
L 382.175984 -245.04 
L 381.148348 -245.04 
L 380.120711 -245.04 
L 379.093075 -245.04 
L 378.065438 -245.04 
L 377.037801 -245.04 
L 376.010165 -245.04 
L 374.982528 -245.04 
L 373.954892 -245.04 
L 372.927255 -245.04 
L 371.899618 -245.04 
L 370.871982 -245.04 
L 369.844345 -245.04 
L 368.816709 -245.04 
L 367.789072 -245.04 
L 366.761436 -245.04 
L 365.733799 -245.04 
L 364.706162 -245.04 
L 363.678526 -245.04 
L 362.650889 -245.04 
L 361.623253 -245.04 
L 360.595616 -245.04 
L 359.567979 -245.04 
L 358.540343 -245.04 
L 357.512706 -245.04 
L 356.48507 -245.04 
L 355.457433 -245.04 
L 354.429796 -245.04 
L 353.40216 -245.04 
L 352.374523 -245.04 
L 351.346887 -245.04 
L 350.31925 -245.04 
L 349.291613 -245.04 
L 348.263977 -245.04 
z
" id="m9f24c87cc0" style="stroke:#d62728;stroke-opacity:0.7;"/>
    </defs>
    <g clip-path="url(#pe5a83bbcfc)">
     <use style="fill:#d62728;fill-opacity:0.7;stroke:#d62728;stroke-opacity:0.7;" x="0" xlink:href="#m9f24c87cc0" y="446.4"/>
    </g>
   </g>
   <g id="matplotlib.axis_1">
    <g id="xtick_1">
     <g id="line2d_1">
      <defs>
       <path d="M 0 0 
L 0 3.5 
" id="mbcfb54b7bf" style="stroke:#000000;stroke-width:0.8;"/>
      </defs>
      <g>
       <use style="stroke:#000000;stroke-width:0.8;" x="135.376023" xlink:href="#mbcfb54b7bf" y="201.36"/>
      </g>
     </g>
     <g id="text_1">
      <!-- -CV -->
      <g transform="translate(126.660398 215.958438)scale(0.1 -0.1)">
       <defs>
        <path d="M 313 2009 
L 1997 2009 
L 1997 1497 
L 313 1497 
L 313 2009 
z
" id="DejaVuSans-2d" transform="scale(0.015625)"/>
        <path d="M 4122 4306 
L 4122 3641 
Q 3803 3938 3442 4084 
Q 3081 4231 2675 4231 
Q 1875 4231 1450 3742 
Q 1025 3253 1025 2328 
Q 1025 1406 1450 917 
Q 1875 428 2675 428 
Q 3081 428 3442 575 
Q 3803 722 4122 1019 
L 4122 359 
Q 3791 134 3420 21 
Q 3050 -91 2638 -91 
Q 1578 -91 968 557 
Q 359 1206 359 2328 
Q 359 3453 968 4101 
Q 1578 4750 2638 4750 
Q 3056 4750 3426 4639 
Q 3797 4528 4122 4306 
z
" id="DejaVuSans-43" transform="scale(0.015625)"/>
        <path d="M 1831 0 
L 50 4666 
L 709 4666 
L 2188 738 
L 3669 4666 
L 4325 4666 
L 2547 0 
L 1831 0 
z
" id="DejaVuSans-56" transform="scale(0.015625)"/>
       </defs>
       <use xlink:href="#DejaVuSans-2d"/>
       <use x="36.083984" xlink:href="#DejaVuSans-43"/>
       <use x="105.908203" xlink:href="#DejaVuSans-56"/>
      </g>
     </g>
    </g>
    <g id="xtick_2">
     <g id="line2d_2">
      <g>
       <use style="stroke:#000000;stroke-width:0.8;" x="348.263977" xlink:href="#mbcfb54b7bf" y="201.36"/>
      </g>
     </g>
     <g id="text_2">
      <!-- CV -->
      <g transform="translate(341.352258 215.958438)scale(0.1 -0.1)">
       <use xlink:href="#DejaVuSans-43"/>
       <use x="69.824219" xlink:href="#DejaVuSans-56"/>
      </g>
     </g>
    </g>
    <g id="xtick_3">
     <g id="line2d_3">
      <g>
       <use style="stroke:#000000;stroke-width:0.8;" x="241.82" xlink:href="#mbcfb54b7bf" y="201.36"/>
      </g>
     </g>
     <g id="text_3">
      <!-- 0 -->
      <g transform="translate(238.63875 215.958438)scale(0.1 -0.1)">
       <defs>
        <path d="M 2034 4250 
Q 1547 4250 1301 3770 
Q 1056 3291 1056 2328 
Q 1056 1369 1301 889 
Q 1547 409 2034 409 
Q 2525 409 2770 889 
Q 3016 1369 3016 2328 
Q 3016 3291 2770 3770 
Q 2525 4250 2034 4250 
z
M 2034 4750 
Q 2819 4750 3233 4129 
Q 3647 3509 3647 2328 
Q 3647 1150 3233 529 
Q 2819 -91 2034 -91 
Q 1250 -91 836 529 
Q 422 1150 422 2328 
Q 422 3509 836 4129 
Q 1250 4750 2034 4750 
z
" id="DejaVuSans-30" transform="scale(0.015625)"/>
       </defs>
       <use xlink:href="#DejaVuSans-30"/>
      </g>
     </g>
    </g>
   </g>
   <g id="matplotlib.axis_2">
    <g id="ytick_1">
     <g id="line2d_4">
      <defs>
       <path d="M 0 0 
L -3.5 0 
" id="mb8423a0b61" style="stroke:#000000;stroke-width:0.8;"/>
      </defs>
      <g>
       <use style="stroke:#000000;stroke-width:0.8;" x="33.64" xlink:href="#mb8423a0b61" y="201.36"/>
      </g>
     </g>
     <g id="text_4">
      <!-- 0.0 -->
      <g transform="translate(10.736875 205.159219)scale(0.1 -0.1)">
       <defs>
        <path d="M 684 794 
L 1344 794 
L 1344 0 
L 684 0 
L 684 794 
z
" id="DejaVuSans-2e" transform="scale(0.015625)"/>
       </defs>
       <use xlink:href="#DejaVuSans-30"/>
       <use x="63.623047" xlink:href="#DejaVuSans-2e"/>
       <use x="95.410156" xlink:href="#DejaVuSans-30"/>
      </g>
     </g>
    </g>
    <g id="ytick_2">
     <g id="line2d_5">
      <g>
       <use style="stroke:#000000;stroke-width:0.8;" x="33.64" xlink:href="#mb8423a0b61" y="164.594733"/>
      </g>
     </g>
     <g id="text_5">
      <!-- 0.1 -->
      <g transform="translate(10.736875 168.393952)scale(0.1 -0.1)">
       <defs>
        <path d="M 794 531 
L 1825 531 
L 1825 4091 
L 703 3866 
L 703 4441 
L 1819 4666 
L 2450 4666 
L 2450 531 
L 3481 531 
L 3481 0 
L 794 0 
L 794 531 
z
" id="DejaVuSans-31" transform="scale(0.015625)"/>
       </defs>
       <use xlink:href="#DejaVuSans-30"/>
       <use x="63.623047" xlink:href="#DejaVuSans-2e"/>
       <use x="95.410156" xlink:href="#DejaVuSans-31"/>
      </g>
     </g>
    </g>
    <g id="ytick_3">
     <g id="line2d_6">
      <g>
       <use style="stroke:#000000;stroke-width:0.8;" x="33.64" xlink:href="#mb8423a0b61" y="127.829467"/>
      </g>
     </g>
     <g id="text_6">
      <!-- 0.2 -->
      <g transform="translate(10.736875 131.628685)scale(0.1 -0.1)">
       <defs>
        <path d="M 1228 531 
L 3431 531 
L 3431 0 
L 469 0 
L 469 531 
Q 828 903 1448 1529 
Q 2069 2156 2228 2338 
Q 2531 2678 2651 2914 
Q 2772 3150 2772 3378 
Q 2772 3750 2511 3984 
Q 2250 4219 1831 4219 
Q 1534 4219 1204 4116 
Q 875 4013 500 3803 
L 500 4441 
Q 881 4594 1212 4672 
Q 1544 4750 1819 4750 
Q 2544 4750 2975 4387 
Q 3406 4025 3406 3419 
Q 3406 3131 3298 2873 
Q 3191 2616 2906 2266 
Q 2828 2175 2409 1742 
Q 1991 1309 1228 531 
z
" id="DejaVuSans-32" transform="scale(0.015625)"/>
       </defs>
       <use xlink:href="#DejaVuSans-30"/>
       <use x="63.623047" xlink:href="#DejaVuSans-2e"/>
       <use x="95.410156" xlink:href="#DejaVuSans-32"/>
      </g>
     </g>
    </g>
    <g id="ytick_4">
     <g id="line2d_7">
      <g>
       <use style="stroke:#000000;stroke-width:0.8;" x="33.64" xlink:href="#mb8423a0b61" y="91.0642"/>
      </g>
     </g>
     <g id="text_7">
      <!-- 0.3 -->
      <g transform="translate(10.736875 94.863419)scale(0.1 -0.1)">
       <defs>
        <path d="M 2597 2516 
Q 3050 2419 3304 2112 
Q 3559 1806 3559 1356 
Q 3559 666 3084 287 
Q 2609 -91 1734 -91 
Q 1441 -91 1130 -33 
Q 819 25 488 141 
L 488 750 
Q 750 597 1062 519 
Q 1375 441 1716 441 
Q 2309 441 2620 675 
Q 2931 909 2931 1356 
Q 2931 1769 2642 2001 
Q 2353 2234 1838 2234 
L 1294 2234 
L 1294 2753 
L 1863 2753 
Q 2328 2753 2575 2939 
Q 2822 3125 2822 3475 
Q 2822 3834 2567 4026 
Q 2313 4219 1838 4219 
Q 1578 4219 1281 4162 
Q 984 4106 628 3988 
L 628 4550 
Q 988 4650 1302 4700 
Q 1616 4750 1894 4750 
Q 2613 4750 3031 4423 
Q 3450 4097 3450 3541 
Q 3450 3153 3228 2886 
Q 3006 2619 2597 2516 
z
" id="DejaVuSans-33" transform="scale(0.015625)"/>
       </defs>
       <use xlink:href="#DejaVuSans-30"/>
       <use x="63.623047" xlink:href="#DejaVuSans-2e"/>
       <use x="95.410156" xlink:href="#DejaVuSans-33"/>
      </g>
     </g>
    </g>
    <g id="ytick_5">
     <g id="line2d_8">
      <g>
       <use style="stroke:#000000;stroke-width:0.8;" x="33.64" xlink:href="#mb8423a0b61" y="54.298933"/>
      </g>
     </g>
     <g id="text_8">
      <!-- 0.4 -->
      <g transform="translate(10.736875 58.098152)scale(0.1 -0.1)">
       <defs>
        <path d="M 2419 4116 
L 825 1625 
L 2419 1625 
L 2419 4116 
z
M 2253 4666 
L 3047 4666 
L 3047 1625 
L 3713 1625 
L 3713 1100 
L 3047 1100 
L 3047 0 
L 2419 0 
L 2419 1100 
L 313 1100 
L 313 1709 
L 2253 4666 
z
" id="DejaVuSans-34" transform="scale(0.015625)"/>
       </defs>
       <use xlink:href="#DejaVuSans-30"/>
       <use x="63.623047" xlink:href="#DejaVuSans-2e"/>
       <use x="95.410156" xlink:href="#DejaVuSans-34"/>
      </g>
     </g>
    </g>
   </g>
   <g id="LineCollection_1">
    <path clip-path="url(#pe5a83bbcfc)" d="M 135.376023 201.36 
L 135.376023 182.091545 
" style="fill:none;stroke:#000000;"/>
   </g>
   <g id="LineCollection_2">
    <path clip-path="url(#pe5a83bbcfc)" d="M 348.263977 201.36 
L 348.263977 182.091545 
" style="fill:none;stroke:#000000;"/>
   </g>
   <g id="line2d_9">
    <path clip-path="url(#pe5a83bbcfc)" d="M 33.64 201.160296 
L 51.742609 200.861619 
L 64.275184 200.438114 
L 74.022742 199.891044 
L 82.377793 199.191802 
L 89.340334 198.384148 
L 94.910368 197.547523 
L 100.480401 196.501455 
L 106.050435 195.203043 
L 110.22796 194.034734 
L 114.405485 192.675082 
L 118.58301 191.100389 
L 122.760535 189.285855 
L 126.93806 187.205989 
L 131.115585 184.835155 
L 135.29311 182.148238 
L 139.470635 179.121456 
L 143.648161 175.733306 
L 147.825686 171.965631 
L 152.003211 167.804792 
L 156.180736 163.242908 
L 160.358261 158.279136 
L 164.535786 152.920918 
L 168.713311 147.185157 
L 172.890836 141.099229 
L 178.46087 132.508436 
L 184.030903 123.489344 
L 195.17097 104.846232 
L 202.133512 93.396166 
L 206.311037 86.84358 
L 210.488562 80.662398 
L 214.666087 74.961619 
L 217.451104 71.480224 
L 220.23612 68.288843 
L 223.021137 65.415208 
L 225.806154 62.884793 
L 228.591171 60.720414 
L 231.376187 58.941871 
L 234.161204 57.565625 
L 236.946221 56.604533 
L 239.731237 56.067634 
L 242.516254 55.96 
L 245.301271 56.282648 
L 248.086288 57.032528 
L 250.871304 58.20257 
L 253.656321 59.781803 
L 256.441338 61.755537 
L 259.226355 64.105606 
L 262.011371 66.810658 
L 264.796388 69.846501 
L 267.581405 73.18648 
L 270.366421 76.801889 
L 274.543946 82.674752 
L 278.721472 88.991935 
L 284.291505 97.916755 
L 292.646555 111.862289 
L 302.394114 128.043202 
L 307.964147 136.86601 
L 312.141672 143.164632 
L 316.319197 149.137562 
L 320.496722 154.749981 
L 324.674247 159.978105 
L 328.851773 164.808307 
L 333.029298 169.236042 
L 337.206823 173.26464 
L 341.384348 176.904043 
L 345.561873 180.169531 
L 349.739398 183.080503 
L 353.916923 185.659333 
L 358.094448 187.930345 
L 362.271973 189.918913 
L 366.449498 191.650693 
L 370.627023 193.150997 
L 374.804548 194.444299 
L 380.374582 195.88669 
L 385.944615 197.05322 
L 391.514649 197.989552 
L 398.477191 198.896848 
L 405.439732 199.573165 
L 413.794783 200.155168 
L 423.542341 200.607591 
L 436.074916 200.955432 
L 450 201.160296 
L 450 201.160296 
" style="fill:none;stroke:#000000;stroke-linecap:square;"/>
   </g>
   <g id="patch_3">
    <path d="M 33.64 201.36 
L 33.64 26.88 
" style="fill:none;stroke:#000000;stroke-linecap:square;stroke-linejoin:miter;stroke-width:0.8;"/>
   </g>
   <g id="patch_4">
    <path d="M 450 201.36 
L 450 26.88 
" style="fill:none;stroke:#000000;stroke-linecap:square;stroke-linejoin:miter;stroke-width:0.8;"/>
   </g>
   <g id="patch_5">
    <path d="M 33.64 201.36 
L 450 201.36 
" style="fill:none;stroke:#000000;stroke-linecap:square;stroke-linejoin:miter;stroke-width:0.8;"/>
   </g>
   <g id="patch_6">
    <path d="M 33.64 26.88 
L 450 26.88 
" style="fill:none;stroke:#000000;stroke-linecap:square;stroke-linejoin:miter;stroke-width:0.8;"/>
   </g>
   <g id="patch_7">
    <path d="M 82.458048 184.009767 
Q 91.120008 189.607308 99.12465 194.780076 
" style="fill:none;stroke:#000000;stroke-linecap:round;stroke-width:0.7;"/>
    <path d="M 96.850597 190.929274 
L 99.12465 194.780076 
L 94.679576 194.288837 
" style="fill:none;stroke:#000000;stroke-linecap:round;stroke-width:0.7;"/>
   </g>
   <g id="text_9">
    <!-- 0.025 -->
    <g style="fill:#d62728;" transform="translate(55.879887 178.843823)scale(0.1 -0.1)">
     <defs>
      <path d="M 691 4666 
L 3169 4666 
L 3169 4134 
L 1269 4134 
L 1269 2991 
Q 1406 3038 1543 3061 
Q 1681 3084 1819 3084 
Q 2600 3084 3056 2656 
Q 3513 2228 3513 1497 
Q 3513 744 3044 326 
Q 2575 -91 1722 -91 
Q 1428 -91 1123 -41 
Q 819 9 494 109 
L 494 744 
Q 775 591 1075 516 
Q 1375 441 1709 441 
Q 2250 441 2565 725 
Q 2881 1009 2881 1497 
Q 2881 1984 2565 2268 
Q 2250 2553 1709 2553 
Q 1456 2553 1204 2497 
Q 953 2441 691 2322 
L 691 4666 
z
" id="DejaVuSans-35" transform="scale(0.015625)"/>
     </defs>
     <use xlink:href="#DejaVuSans-30"/>
     <use x="63.623047" xlink:href="#DejaVuSans-2e"/>
     <use x="95.410156" xlink:href="#DejaVuSans-30"/>
     <use x="159.033203" xlink:href="#DejaVuSans-32"/>
     <use x="222.65625" xlink:href="#DejaVuSans-35"/>
    </g>
   </g>
   <g id="patch_8">
    <path d="M 401.181952 184.009767 
Q 392.519992 189.607308 384.51535 194.780076 
" style="fill:none;stroke:#000000;stroke-linecap:round;stroke-width:0.7;"/>
    <path d="M 388.960424 194.288837 
L 384.51535 194.780076 
L 386.789403 190.929274 
" style="fill:none;stroke:#000000;stroke-linecap:round;stroke-width:0.7;"/>
   </g>
   <g id="text_10">
    <!-- 0.025 -->
    <g style="fill:#d62728;" transform="translate(399.131988 178.843823)scale(0.1 -0.1)">
     <use xlink:href="#DejaVuSans-30"/>
     <use x="63.623047" xlink:href="#DejaVuSans-2e"/>
     <use x="95.410156" xlink:href="#DejaVuSans-30"/>
     <use x="159.033203" xlink:href="#DejaVuSans-32"/>
     <use x="222.65625" xlink:href="#DejaVuSans-35"/>
    </g>
   </g>
   <g id="text_11">
    <!-- Significance Level ($\alpha$) = 0.05 -->
    <g style="fill:#d62728;" transform="translate(39.8854 39.0936)scale(0.09 -0.09)">
     <defs>
      <path d="M 3425 4513 
L 3425 3897 
Q 3066 4069 2747 4153 
Q 2428 4238 2131 4238 
Q 1616 4238 1336 4038 
Q 1056 3838 1056 3469 
Q 1056 3159 1242 3001 
Q 1428 2844 1947 2747 
L 2328 2669 
Q 3034 2534 3370 2195 
Q 3706 1856 3706 1288 
Q 3706 609 3251 259 
Q 2797 -91 1919 -91 
Q 1588 -91 1214 -16 
Q 841 59 441 206 
L 441 856 
Q 825 641 1194 531 
Q 1563 422 1919 422 
Q 2459 422 2753 634 
Q 3047 847 3047 1241 
Q 3047 1584 2836 1778 
Q 2625 1972 2144 2069 
L 1759 2144 
Q 1053 2284 737 2584 
Q 422 2884 422 3419 
Q 422 4038 858 4394 
Q 1294 4750 2059 4750 
Q 2388 4750 2728 4690 
Q 3069 4631 3425 4513 
z
" id="DejaVuSans-53" transform="scale(0.015625)"/>
      <path d="M 603 3500 
L 1178 3500 
L 1178 0 
L 603 0 
L 603 3500 
z
M 603 4863 
L 1178 4863 
L 1178 4134 
L 603 4134 
L 603 4863 
z
" id="DejaVuSans-69" transform="scale(0.015625)"/>
      <path d="M 2906 1791 
Q 2906 2416 2648 2759 
Q 2391 3103 1925 3103 
Q 1463 3103 1205 2759 
Q 947 2416 947 1791 
Q 947 1169 1205 825 
Q 1463 481 1925 481 
Q 2391 481 2648 825 
Q 2906 1169 2906 1791 
z
M 3481 434 
Q 3481 -459 3084 -895 
Q 2688 -1331 1869 -1331 
Q 1566 -1331 1297 -1286 
Q 1028 -1241 775 -1147 
L 775 -588 
Q 1028 -725 1275 -790 
Q 1522 -856 1778 -856 
Q 2344 -856 2625 -561 
Q 2906 -266 2906 331 
L 2906 616 
Q 2728 306 2450 153 
Q 2172 0 1784 0 
Q 1141 0 747 490 
Q 353 981 353 1791 
Q 353 2603 747 3093 
Q 1141 3584 1784 3584 
Q 2172 3584 2450 3431 
Q 2728 3278 2906 2969 
L 2906 3500 
L 3481 3500 
L 3481 434 
z
" id="DejaVuSans-67" transform="scale(0.015625)"/>
      <path d="M 3513 2113 
L 3513 0 
L 2938 0 
L 2938 2094 
Q 2938 2591 2744 2837 
Q 2550 3084 2163 3084 
Q 1697 3084 1428 2787 
Q 1159 2491 1159 1978 
L 1159 0 
L 581 0 
L 581 3500 
L 1159 3500 
L 1159 2956 
Q 1366 3272 1645 3428 
Q 1925 3584 2291 3584 
Q 2894 3584 3203 3211 
Q 3513 2838 3513 2113 
z
" id="DejaVuSans-6e" transform="scale(0.015625)"/>
      <path d="M 2375 4863 
L 2375 4384 
L 1825 4384 
Q 1516 4384 1395 4259 
Q 1275 4134 1275 3809 
L 1275 3500 
L 2222 3500 
L 2222 3053 
L 1275 3053 
L 1275 0 
L 697 0 
L 697 3053 
L 147 3053 
L 147 3500 
L 697 3500 
L 697 3744 
Q 697 4328 969 4595 
Q 1241 4863 1831 4863 
L 2375 4863 
z
" id="DejaVuSans-66" transform="scale(0.015625)"/>
      <path d="M 3122 3366 
L 3122 2828 
Q 2878 2963 2633 3030 
Q 2388 3097 2138 3097 
Q 1578 3097 1268 2742 
Q 959 2388 959 1747 
Q 959 1106 1268 751 
Q 1578 397 2138 397 
Q 2388 397 2633 464 
Q 2878 531 3122 666 
L 3122 134 
Q 2881 22 2623 -34 
Q 2366 -91 2075 -91 
Q 1284 -91 818 406 
Q 353 903 353 1747 
Q 353 2603 823 3093 
Q 1294 3584 2113 3584 
Q 2378 3584 2631 3529 
Q 2884 3475 3122 3366 
z
" id="DejaVuSans-63" transform="scale(0.015625)"/>
      <path d="M 2194 1759 
Q 1497 1759 1228 1600 
Q 959 1441 959 1056 
Q 959 750 1161 570 
Q 1363 391 1709 391 
Q 2188 391 2477 730 
Q 2766 1069 2766 1631 
L 2766 1759 
L 2194 1759 
z
M 3341 1997 
L 3341 0 
L 2766 0 
L 2766 531 
Q 2569 213 2275 61 
Q 1981 -91 1556 -91 
Q 1019 -91 701 211 
Q 384 513 384 1019 
Q 384 1609 779 1909 
Q 1175 2209 1959 2209 
L 2766 2209 
L 2766 2266 
Q 2766 2663 2505 2880 
Q 2244 3097 1772 3097 
Q 1472 3097 1187 3025 
Q 903 2953 641 2809 
L 641 3341 
Q 956 3463 1253 3523 
Q 1550 3584 1831 3584 
Q 2591 3584 2966 3190 
Q 3341 2797 3341 1997 
z
" id="DejaVuSans-61" transform="scale(0.015625)"/>
      <path d="M 3597 1894 
L 3597 1613 
L 953 1613 
Q 991 1019 1311 708 
Q 1631 397 2203 397 
Q 2534 397 2845 478 
Q 3156 559 3463 722 
L 3463 178 
Q 3153 47 2828 -22 
Q 2503 -91 2169 -91 
Q 1331 -91 842 396 
Q 353 884 353 1716 
Q 353 2575 817 3079 
Q 1281 3584 2069 3584 
Q 2775 3584 3186 3129 
Q 3597 2675 3597 1894 
z
M 3022 2063 
Q 3016 2534 2758 2815 
Q 2500 3097 2075 3097 
Q 1594 3097 1305 2825 
Q 1016 2553 972 2059 
L 3022 2063 
z
" id="DejaVuSans-65" transform="scale(0.015625)"/>
      <path id="DejaVuSans-20" transform="scale(0.015625)"/>
      <path d="M 628 4666 
L 1259 4666 
L 1259 531 
L 3531 531 
L 3531 0 
L 628 0 
L 628 4666 
z
" id="DejaVuSans-4c" transform="scale(0.015625)"/>
      <path d="M 191 3500 
L 800 3500 
L 1894 563 
L 2988 3500 
L 3597 3500 
L 2284 0 
L 1503 0 
L 191 3500 
z
" id="DejaVuSans-76" transform="scale(0.015625)"/>
      <path d="M 603 4863 
L 1178 4863 
L 1178 0 
L 603 0 
L 603 4863 
z
" id="DejaVuSans-6c" transform="scale(0.015625)"/>
      <path d="M 1984 4856 
Q 1566 4138 1362 3434 
Q 1159 2731 1159 2009 
Q 1159 1288 1364 580 
Q 1569 -128 1984 -844 
L 1484 -844 
Q 1016 -109 783 600 
Q 550 1309 550 2009 
Q 550 2706 781 3412 
Q 1013 4119 1484 4856 
L 1984 4856 
z
" id="DejaVuSans-28" transform="scale(0.015625)"/>
      <path d="M 2619 1628 
L 2622 2350 
Q 2625 3088 2069 3091 
Q 1653 3094 1394 2747 
Q 1069 2319 959 1747 
Q 825 1059 994 731 
Q 1169 397 1547 397 
Q 1966 397 2319 1063 
L 2619 1628 
z
M 2166 3578 
Q 3141 3594 3128 2584 
Q 3128 2584 3616 3500 
L 4128 3500 
L 3119 1603 
L 3109 919 
Q 3109 766 3194 638 
Q 3291 488 3391 488 
L 3669 488 
L 3575 0 
L 3228 0 
Q 2934 0 2722 263 
Q 2622 394 2619 669 
Q 2416 334 2066 50 
Q 1900 -81 1453 -78 
Q 722 -72 456 397 
Q 184 884 353 1747 
Q 534 2675 1009 3097 
Q 1544 3569 2166 3578 
z
" id="DejaVuSans-Oblique-3b1" transform="scale(0.015625)"/>
      <path d="M 513 4856 
L 1013 4856 
Q 1481 4119 1714 3412 
Q 1947 2706 1947 2009 
Q 1947 1309 1714 600 
Q 1481 -109 1013 -844 
L 513 -844 
Q 928 -128 1133 580 
Q 1338 1288 1338 2009 
Q 1338 2731 1133 3434 
Q 928 4138 513 4856 
z
" id="DejaVuSans-29" transform="scale(0.015625)"/>
      <path d="M 678 2906 
L 4684 2906 
L 4684 2381 
L 678 2381 
L 678 2906 
z
M 678 1631 
L 4684 1631 
L 4684 1100 
L 678 1100 
L 678 1631 
z
" id="DejaVuSans-3d" transform="scale(0.015625)"/>
     </defs>
     <use transform="translate(0 0.015625)" xlink:href="#DejaVuSans-53"/>
     <use transform="translate(63.476562 0.015625)" xlink:href="#DejaVuSans-69"/>
     <use transform="translate(91.259766 0.015625)" xlink:href="#DejaVuSans-67"/>
     <use transform="translate(154.736328 0.015625)" xlink:href="#DejaVuSans-6e"/>
     <use transform="translate(218.115234 0.015625)" xlink:href="#DejaVuSans-69"/>
     <use transform="translate(245.898438 0.015625)" xlink:href="#DejaVuSans-66"/>
     <use transform="translate(281.103516 0.015625)" xlink:href="#DejaVuSans-69"/>
     <use transform="translate(308.886719 0.015625)" xlink:href="#DejaVuSans-63"/>
     <use transform="translate(363.867188 0.015625)" xlink:href="#DejaVuSans-61"/>
     <use transform="translate(425.146484 0.015625)" xlink:href="#DejaVuSans-6e"/>
     <use transform="translate(488.525391 0.015625)" xlink:href="#DejaVuSans-63"/>
     <use transform="translate(543.505859 0.015625)" xlink:href="#DejaVuSans-65"/>
     <use transform="translate(605.029297 0.015625)" xlink:href="#DejaVuSans-20"/>
     <use transform="translate(636.816406 0.015625)" xlink:href="#DejaVuSans-4c"/>
     <use transform="translate(692.529297 0.015625)" xlink:href="#DejaVuSans-65"/>
     <use transform="translate(754.052734 0.015625)" xlink:href="#DejaVuSans-76"/>
     <use transform="translate(813.232422 0.015625)" xlink:href="#DejaVuSans-65"/>
     <use transform="translate(874.755859 0.015625)" xlink:href="#DejaVuSans-6c"/>
     <use transform="translate(902.539062 0.015625)" xlink:href="#DejaVuSans-20"/>
     <use transform="translate(934.326172 0.015625)" xlink:href="#DejaVuSans-28"/>
     <use transform="translate(973.339844 0.015625)" xlink:href="#DejaVuSans-Oblique-3b1"/>
     <use transform="translate(1039.257812 0.015625)" xlink:href="#DejaVuSans-29"/>
     <use transform="translate(1078.271484 0.015625)" xlink:href="#DejaVuSans-20"/>
     <use transform="translate(1110.058594 0.015625)" xlink:href="#DejaVuSans-3d"/>
     <use transform="translate(1193.847656 0.015625)" xlink:href="#DejaVuSans-20"/>
     <use transform="translate(1225.634766 0.015625)" xlink:href="#DejaVuSans-30"/>
     <use transform="translate(1289.257812 0.015625)" xlink:href="#DejaVuSans-2e"/>
     <use transform="translate(1321.044922 0.015625)" xlink:href="#DejaVuSans-30"/>
     <use transform="translate(1384.667969 0.015625)" xlink:href="#DejaVuSans-35"/>
    </g>
   </g>
   <g id="text_12">
    <!-- Critical Values (CV) -->
    <g transform="translate(39.8854 51.3072)scale(0.09 -0.09)">
     <defs>
      <path d="M 2631 2963 
Q 2534 3019 2420 3045 
Q 2306 3072 2169 3072 
Q 1681 3072 1420 2755 
Q 1159 2438 1159 1844 
L 1159 0 
L 581 0 
L 581 3500 
L 1159 3500 
L 1159 2956 
Q 1341 3275 1631 3429 
Q 1922 3584 2338 3584 
Q 2397 3584 2469 3576 
Q 2541 3569 2628 3553 
L 2631 2963 
z
" id="DejaVuSans-72" transform="scale(0.015625)"/>
      <path d="M 1172 4494 
L 1172 3500 
L 2356 3500 
L 2356 3053 
L 1172 3053 
L 1172 1153 
Q 1172 725 1289 603 
Q 1406 481 1766 481 
L 2356 481 
L 2356 0 
L 1766 0 
Q 1100 0 847 248 
Q 594 497 594 1153 
L 594 3053 
L 172 3053 
L 172 3500 
L 594 3500 
L 594 4494 
L 1172 4494 
z
" id="DejaVuSans-74" transform="scale(0.015625)"/>
      <path d="M 544 1381 
L 544 3500 
L 1119 3500 
L 1119 1403 
Q 1119 906 1312 657 
Q 1506 409 1894 409 
Q 2359 409 2629 706 
Q 2900 1003 2900 1516 
L 2900 3500 
L 3475 3500 
L 3475 0 
L 2900 0 
L 2900 538 
Q 2691 219 2414 64 
Q 2138 -91 1772 -91 
Q 1169 -91 856 284 
Q 544 659 544 1381 
z
M 1991 3584 
L 1991 3584 
z
" id="DejaVuSans-75" transform="scale(0.015625)"/>
      <path d="M 2834 3397 
L 2834 2853 
Q 2591 2978 2328 3040 
Q 2066 3103 1784 3103 
Q 1356 3103 1142 2972 
Q 928 2841 928 2578 
Q 928 2378 1081 2264 
Q 1234 2150 1697 2047 
L 1894 2003 
Q 2506 1872 2764 1633 
Q 3022 1394 3022 966 
Q 3022 478 2636 193 
Q 2250 -91 1575 -91 
Q 1294 -91 989 -36 
Q 684 19 347 128 
L 347 722 
Q 666 556 975 473 
Q 1284 391 1588 391 
Q 1994 391 2212 530 
Q 2431 669 2431 922 
Q 2431 1156 2273 1281 
Q 2116 1406 1581 1522 
L 1381 1569 
Q 847 1681 609 1914 
Q 372 2147 372 2553 
Q 372 3047 722 3315 
Q 1072 3584 1716 3584 
Q 2034 3584 2315 3537 
Q 2597 3491 2834 3397 
z
" id="DejaVuSans-73" transform="scale(0.015625)"/>
     </defs>
     <use xlink:href="#DejaVuSans-43"/>
     <use x="69.824219" xlink:href="#DejaVuSans-72"/>
     <use x="110.9375" xlink:href="#DejaVuSans-69"/>
     <use x="138.720703" xlink:href="#DejaVuSans-74"/>
     <use x="177.929688" xlink:href="#DejaVuSans-69"/>
     <use x="205.712891" xlink:href="#DejaVuSans-63"/>
     <use x="260.693359" xlink:href="#DejaVuSans-61"/>
     <use x="321.972656" xlink:href="#DejaVuSans-6c"/>
     <use x="349.755859" xlink:href="#DejaVuSans-20"/>
     <use x="381.542969" xlink:href="#DejaVuSans-56"/>
     <use x="442.201172" xlink:href="#DejaVuSans-61"/>
     <use x="503.480469" xlink:href="#DejaVuSans-6c"/>
     <use x="531.263672" xlink:href="#DejaVuSans-75"/>
     <use x="594.642578" xlink:href="#DejaVuSans-65"/>
     <use x="656.166016" xlink:href="#DejaVuSans-73"/>
     <use x="708.265625" xlink:href="#DejaVuSans-20"/>
     <use x="740.052734" xlink:href="#DejaVuSans-28"/>
     <use x="779.066406" xlink:href="#DejaVuSans-43"/>
     <use x="848.890625" xlink:href="#DejaVuSans-56"/>
     <use x="917.298828" xlink:href="#DejaVuSans-29"/>
    </g>
   </g>
   <g id="text_13">
    <!-- Student's T-Distribution, df=29 -->
    <g transform="translate(148.836875 20.88)scale(0.12 -0.12)">
     <defs>
      <path d="M 2906 2969 
L 2906 4863 
L 3481 4863 
L 3481 0 
L 2906 0 
L 2906 525 
Q 2725 213 2448 61 
Q 2172 -91 1784 -91 
Q 1150 -91 751 415 
Q 353 922 353 1747 
Q 353 2572 751 3078 
Q 1150 3584 1784 3584 
Q 2172 3584 2448 3432 
Q 2725 3281 2906 2969 
z
M 947 1747 
Q 947 1113 1208 752 
Q 1469 391 1925 391 
Q 2381 391 2643 752 
Q 2906 1113 2906 1747 
Q 2906 2381 2643 2742 
Q 2381 3103 1925 3103 
Q 1469 3103 1208 2742 
Q 947 2381 947 1747 
z
" id="DejaVuSans-64" transform="scale(0.015625)"/>
      <path d="M 1147 4666 
L 1147 2931 
L 616 2931 
L 616 4666 
L 1147 4666 
z
" id="DejaVuSans-27" transform="scale(0.015625)"/>
      <path d="M -19 4666 
L 3928 4666 
L 3928 4134 
L 2272 4134 
L 2272 0 
L 1638 0 
L 1638 4134 
L -19 4134 
L -19 4666 
z
" id="DejaVuSans-54" transform="scale(0.015625)"/>
      <path d="M 1259 4147 
L 1259 519 
L 2022 519 
Q 2988 519 3436 956 
Q 3884 1394 3884 2338 
Q 3884 3275 3436 3711 
Q 2988 4147 2022 4147 
L 1259 4147 
z
M 628 4666 
L 1925 4666 
Q 3281 4666 3915 4102 
Q 4550 3538 4550 2338 
Q 4550 1131 3912 565 
Q 3275 0 1925 0 
L 628 0 
L 628 4666 
z
" id="DejaVuSans-44" transform="scale(0.015625)"/>
      <path d="M 3116 1747 
Q 3116 2381 2855 2742 
Q 2594 3103 2138 3103 
Q 1681 3103 1420 2742 
Q 1159 2381 1159 1747 
Q 1159 1113 1420 752 
Q 1681 391 2138 391 
Q 2594 391 2855 752 
Q 3116 1113 3116 1747 
z
M 1159 2969 
Q 1341 3281 1617 3432 
Q 1894 3584 2278 3584 
Q 2916 3584 3314 3078 
Q 3713 2572 3713 1747 
Q 3713 922 3314 415 
Q 2916 -91 2278 -91 
Q 1894 -91 1617 61 
Q 1341 213 1159 525 
L 1159 0 
L 581 0 
L 581 4863 
L 1159 4863 
L 1159 2969 
z
" id="DejaVuSans-62" transform="scale(0.015625)"/>
      <path d="M 1959 3097 
Q 1497 3097 1228 2736 
Q 959 2375 959 1747 
Q 959 1119 1226 758 
Q 1494 397 1959 397 
Q 2419 397 2687 759 
Q 2956 1122 2956 1747 
Q 2956 2369 2687 2733 
Q 2419 3097 1959 3097 
z
M 1959 3584 
Q 2709 3584 3137 3096 
Q 3566 2609 3566 1747 
Q 3566 888 3137 398 
Q 2709 -91 1959 -91 
Q 1206 -91 779 398 
Q 353 888 353 1747 
Q 353 2609 779 3096 
Q 1206 3584 1959 3584 
z
" id="DejaVuSans-6f" transform="scale(0.015625)"/>
      <path d="M 750 794 
L 1409 794 
L 1409 256 
L 897 -744 
L 494 -744 
L 750 256 
L 750 794 
z
" id="DejaVuSans-2c" transform="scale(0.015625)"/>
      <path d="M 703 97 
L 703 672 
Q 941 559 1184 500 
Q 1428 441 1663 441 
Q 2288 441 2617 861 
Q 2947 1281 2994 2138 
Q 2813 1869 2534 1725 
Q 2256 1581 1919 1581 
Q 1219 1581 811 2004 
Q 403 2428 403 3163 
Q 403 3881 828 4315 
Q 1253 4750 1959 4750 
Q 2769 4750 3195 4129 
Q 3622 3509 3622 2328 
Q 3622 1225 3098 567 
Q 2575 -91 1691 -91 
Q 1453 -91 1209 -44 
Q 966 3 703 97 
z
M 1959 2075 
Q 2384 2075 2632 2365 
Q 2881 2656 2881 3163 
Q 2881 3666 2632 3958 
Q 2384 4250 1959 4250 
Q 1534 4250 1286 3958 
Q 1038 3666 1038 3163 
Q 1038 2656 1286 2365 
Q 1534 2075 1959 2075 
z
" id="DejaVuSans-39" transform="scale(0.015625)"/>
     </defs>
     <use xlink:href="#DejaVuSans-53"/>
     <use x="63.476562" xlink:href="#DejaVuSans-74"/>
     <use x="102.685547" xlink:href="#DejaVuSans-75"/>
     <use x="166.064453" xlink:href="#DejaVuSans-64"/>
     <use x="229.541016" xlink:href="#DejaVuSans-65"/>
     <use x="291.064453" xlink:href="#DejaVuSans-6e"/>
     <use x="354.443359" xlink:href="#DejaVuSans-74"/>
     <use x="393.652344" xlink:href="#DejaVuSans-27"/>
     <use x="421.142578" xlink:href="#DejaVuSans-73"/>
     <use x="473.242188" xlink:href="#DejaVuSans-20"/>
     <use x="505.029297" xlink:href="#DejaVuSans-54"/>
     <use x="556.988281" xlink:href="#DejaVuSans-2d"/>
     <use x="593.072266" xlink:href="#DejaVuSans-44"/>
     <use x="670.074219" xlink:href="#DejaVuSans-69"/>
     <use x="697.857422" xlink:href="#DejaVuSans-73"/>
     <use x="749.957031" xlink:href="#DejaVuSans-74"/>
     <use x="789.166016" xlink:href="#DejaVuSans-72"/>
     <use x="830.279297" xlink:href="#DejaVuSans-69"/>
     <use x="858.0625" xlink:href="#DejaVuSans-62"/>
     <use x="921.539062" xlink:href="#DejaVuSans-75"/>
     <use x="984.917969" xlink:href="#DejaVuSans-74"/>
     <use x="1024.126953" xlink:href="#DejaVuSans-69"/>
     <use x="1051.910156" xlink:href="#DejaVuSans-6f"/>
     <use x="1113.091797" xlink:href="#DejaVuSans-6e"/>
     <use x="1176.470703" xlink:href="#DejaVuSans-2c"/>
     <use x="1208.257812" xlink:href="#DejaVuSans-20"/>
     <use x="1240.044922" xlink:href="#DejaVuSans-64"/>
     <use x="1303.521484" xlink:href="#DejaVuSans-66"/>
     <use x="1338.726562" xlink:href="#DejaVuSans-3d"/>
     <use x="1422.515625" xlink:href="#DejaVuSans-32"/>
     <use x="1486.138672" xlink:href="#DejaVuSans-39"/>
    </g>
   </g>
  </g>
  <g id="axes_2">
   <g id="patch_9">
    <path d="M 33.64 403.72 
L 450 403.72 
L 450 229.24 
L 33.64 229.24 
z
" style="fill:#ffffff;"/>
   </g>
   <g id="PolyCollection_3">
    <defs>
     <path d="M 450 -42.68 
L 450 -42.879704 
L 448.346651 -42.897338 
L 446.693303 -42.916481 
L 445.039954 -42.937257 
L 443.386605 -42.959799 
L 441.733256 -42.98425 
L 440.079908 -43.010763 
L 438.426559 -43.039502 
L 436.77321 -43.070646 
L 435.119861 -43.104385 
L 433.466513 -43.140921 
L 431.813164 -43.180473 
L 430.159815 -43.223275 
L 428.506466 -43.269578 
L 426.853118 -43.319649 
L 425.199769 -43.373774 
L 423.54642 -43.432259 
L 421.893071 -43.495429 
L 420.239723 -43.563633 
L 418.586374 -43.63724 
L 416.933025 -43.716645 
L 415.279677 -43.802267 
L 413.626328 -43.894553 
L 411.972979 -43.993974 
L 410.31963 -44.101034 
L 408.666282 -44.216264 
L 407.012933 -44.340228 
L 405.359584 -44.473521 
L 403.706235 -44.616774 
L 402.052887 -44.770651 
L 400.399538 -44.935853 
L 398.746189 -45.113118 
L 397.09284 -45.303222 
L 395.439492 -45.506982 
L 393.786143 -45.725253 
L 392.132794 -45.958934 
L 390.479445 -46.208963 
L 388.826097 -46.476322 
L 387.172748 -46.762036 
L 385.519399 -47.067173 
L 383.866051 -47.392845 
L 382.212702 -47.740207 
L 380.559353 -48.110457 
L 378.906004 -48.504835 
L 377.252656 -48.924624 
L 375.599307 -49.371146 
L 373.945958 -49.845765 
L 372.292609 -50.349879 
L 370.639261 -50.884924 
L 368.985912 -51.452369 
L 367.332563 -52.053712 
L 365.679214 -52.690478 
L 364.025866 -53.364216 
L 362.372517 -54.076494 
L 360.719168 -54.828893 
L 359.065819 -55.623005 
L 357.412471 -56.460426 
L 355.759122 -57.342746 
L 354.105773 -58.271548 
L 352.452424 -59.2484 
L 350.799076 -60.274843 
L 349.145727 -61.352386 
L 347.492378 -62.482498 
L 345.83903 -63.666594 
L 344.185681 -64.906033 
L 342.532332 -66.202099 
L 340.878983 -67.555996 
L 339.225635 -68.968836 
L 337.572286 -70.441626 
L 335.918937 -71.975257 
L 334.265588 -73.57049 
L 332.61224 -75.22795 
L 330.958891 -76.948104 
L 329.305542 -78.731258 
L 327.652193 -80.577538 
L 325.998845 -82.486879 
L 324.345496 -84.459016 
L 322.692147 -86.493469 
L 321.038798 -88.589533 
L 319.38545 -90.746265 
L 317.732101 -92.962477 
L 316.078752 -95.236724 
L 314.425404 -97.567296 
L 312.772055 -99.95221 
L 311.118706 -102.389206 
L 309.465357 -104.875735 
L 307.812009 -107.408963 
L 306.15866 -109.985763 
L 304.505311 -112.602713 
L 302.851962 -115.256103 
L 301.198614 -117.94193 
L 299.545265 -120.655904 
L 297.891916 -123.393456 
L 296.238567 -126.149744 
L 294.585219 -128.919662 
L 292.93187 -131.697854 
L 291.278521 -134.478723 
L 289.625172 -137.256453 
L 287.971824 -140.025021 
L 286.318475 -142.778218 
L 286.318475 -42.68 
L 286.318475 -42.68 
L 287.971824 -42.68 
L 289.625172 -42.68 
L 291.278521 -42.68 
L 292.93187 -42.68 
L 294.585219 -42.68 
L 296.238567 -42.68 
L 297.891916 -42.68 
L 299.545265 -42.68 
L 301.198614 -42.68 
L 302.851962 -42.68 
L 304.505311 -42.68 
L 306.15866 -42.68 
L 307.812009 -42.68 
L 309.465357 -42.68 
L 311.118706 -42.68 
L 312.772055 -42.68 
L 314.425404 -42.68 
L 316.078752 -42.68 
L 317.732101 -42.68 
L 319.38545 -42.68 
L 321.038798 -42.68 
L 322.692147 -42.68 
L 324.345496 -42.68 
L 325.998845 -42.68 
L 327.652193 -42.68 
L 329.305542 -42.68 
L 330.958891 -42.68 
L 332.61224 -42.68 
L 334.265588 -42.68 
L 335.918937 -42.68 
L 337.572286 -42.68 
L 339.225635 -42.68 
L 340.878983 -42.68 
L 342.532332 -42.68 
L 344.185681 -42.68 
L 345.83903 -42.68 
L 347.492378 -42.68 
L 349.145727 -42.68 
L 350.799076 -42.68 
L 352.452424 -42.68 
L 354.105773 -42.68 
L 355.759122 -42.68 
L 357.412471 -42.68 
L 359.065819 -42.68 
L 360.719168 -42.68 
L 362.372517 -42.68 
L 364.025866 -42.68 
L 365.679214 -42.68 
L 367.332563 -42.68 
L 368.985912 -42.68 
L 370.639261 -42.68 
L 372.292609 -42.68 
L 373.945958 -42.68 
L 375.599307 -42.68 
L 377.252656 -42.68 
L 378.906004 -42.68 
L 380.559353 -42.68 
L 382.212702 -42.68 
L 383.866051 -42.68 
L 385.519399 -42.68 
L 387.172748 -42.68 
L 388.826097 -42.68 
L 390.479445 -42.68 
L 392.132794 -42.68 
L 393.786143 -42.68 
L 395.439492 -42.68 
L 397.09284 -42.68 
L 398.746189 -42.68 
L 400.399538 -42.68 
L 402.052887 -42.68 
L 403.706235 -42.68 
L 405.359584 -42.68 
L 407.012933 -42.68 
L 408.666282 -42.68 
L 410.31963 -42.68 
L 411.972979 -42.68 
L 413.626328 -42.68 
L 415.279677 -42.68 
L 416.933025 -42.68 
L 418.586374 -42.68 
L 420.239723 -42.68 
L 421.893071 -42.68 
L 423.54642 -42.68 
L 425.199769 -42.68 
L 426.853118 -42.68 
L 428.506466 -42.68 
L 430.159815 -42.68 
L 431.813164 -42.68 
L 433.466513 -42.68 
L 435.119861 -42.68 
L 436.77321 -42.68 
L 438.426559 -42.68 
L 440.079908 -42.68 
L 441.733256 -42.68 
L 443.386605 -42.68 
L 445.039954 -42.68 
L 446.693303 -42.68 
L 448.346651 -42.68 
L 450 -42.68 
z
" id="m5f39b34302" style="stroke:#1f77b4;stroke-opacity:0.7;"/>
    </defs>
    <g clip-path="url(#pc1029a3a7c)">
     <use style="fill:#1f77b4;fill-opacity:0.7;stroke:#1f77b4;stroke-opacity:0.7;" x="0" xlink:href="#m5f39b34302" y="446.4"/>
    </g>
   </g>
   <g id="PolyCollection_4">
    <defs>
     <path d="M 348.263977 -42.68 
L 348.263977 -61.948455 
L 347.638265 -62.380629 
L 347.012552 -62.820518 
L 346.38684 -63.268197 
L 345.761128 -63.72374 
L 345.135416 -64.18722 
L 344.509704 -64.658706 
L 343.883992 -65.138268 
L 343.25828 -65.625973 
L 342.632567 -66.121889 
L 342.006855 -66.626078 
L 341.381143 -67.138603 
L 340.755431 -67.659525 
L 340.129719 -68.188901 
L 339.504007 -68.726787 
L 338.878295 -69.273238 
L 338.252583 -69.828305 
L 337.62687 -70.392036 
L 337.001158 -70.964479 
L 336.375446 -71.545677 
L 335.749734 -72.135671 
L 335.124022 -72.7345 
L 334.49831 -73.342199 
L 333.872598 -73.958801 
L 333.246885 -74.584334 
L 332.621173 -75.218826 
L 331.995461 -75.862298 
L 331.369749 -76.514771 
L 330.744037 -77.176261 
L 330.118325 -77.846779 
L 329.492613 -78.526334 
L 328.8669 -79.214932 
L 328.241188 -79.912574 
L 327.615476 -80.619256 
L 326.989764 -81.334971 
L 326.364052 -82.05971 
L 325.73834 -82.793455 
L 325.112628 -83.536188 
L 324.486915 -84.287884 
L 323.861203 -85.048514 
L 323.235491 -85.818046 
L 322.609779 -86.596442 
L 321.984067 -87.383658 
L 321.358355 -88.179647 
L 320.732643 -88.984357 
L 320.10693 -89.79773 
L 319.481218 -90.619703 
L 318.855506 -91.450209 
L 318.229794 -92.289174 
L 317.604082 -93.13652 
L 316.97837 -93.992163 
L 316.352658 -94.856014 
L 315.726946 -95.727979 
L 315.101233 -96.607956 
L 314.475521 -97.49584 
L 313.849809 -98.39152 
L 313.224097 -99.294877 
L 312.598385 -100.205789 
L 311.972673 -101.124127 
L 311.346961 -102.049756 
L 310.721248 -102.982536 
L 310.095536 -103.922319 
L 309.469824 -104.868953 
L 308.844112 -105.82228 
L 308.2184 -106.782135 
L 307.592688 -107.748347 
L 306.966976 -108.72074 
L 306.341263 -109.699132 
L 305.715551 -110.683333 
L 305.089839 -111.67315 
L 304.464127 -112.668382 
L 303.838415 -113.668821 
L 303.212703 -114.674257 
L 302.586991 -115.684469 
L 301.961278 -116.699235 
L 301.335566 -117.718324 
L 300.709854 -118.741499 
L 300.084142 -119.768519 
L 299.45843 -120.799137 
L 298.832718 -121.833098 
L 298.207006 -122.870146 
L 297.581293 -123.910015 
L 296.955581 -124.952435 
L 296.329869 -125.997132 
L 295.704157 -127.043825 
L 295.078445 -128.092228 
L 294.452733 -129.142052 
L 293.827021 -130.193 
L 293.201309 -131.244772 
L 292.575596 -132.297062 
L 291.949884 -133.349561 
L 291.324172 -134.401955 
L 290.69846 -135.453925 
L 290.072748 -136.505147 
L 289.447036 -137.555296 
L 288.821324 -138.604039 
L 288.195611 -139.651043 
L 287.569899 -140.69597 
L 286.944187 -141.738476 
L 286.318475 -142.778218 
L 286.318475 -42.68 
L 286.318475 -42.68 
L 286.944187 -42.68 
L 287.569899 -42.68 
L 288.195611 -42.68 
L 288.821324 -42.68 
L 289.447036 -42.68 
L 290.072748 -42.68 
L 290.69846 -42.68 
L 291.324172 -42.68 
L 291.949884 -42.68 
L 292.575596 -42.68 
L 293.201309 -42.68 
L 293.827021 -42.68 
L 294.452733 -42.68 
L 295.078445 -42.68 
L 295.704157 -42.68 
L 296.329869 -42.68 
L 296.955581 -42.68 
L 297.581293 -42.68 
L 298.207006 -42.68 
L 298.832718 -42.68 
L 299.45843 -42.68 
L 300.084142 -42.68 
L 300.709854 -42.68 
L 301.335566 -42.68 
L 301.961278 -42.68 
L 302.586991 -42.68 
L 303.212703 -42.68 
L 303.838415 -42.68 
L 304.464127 -42.68 
L 305.089839 -42.68 
L 305.715551 -42.68 
L 306.341263 -42.68 
L 306.966976 -42.68 
L 307.592688 -42.68 
L 308.2184 -42.68 
L 308.844112 -42.68 
L 309.469824 -42.68 
L 310.095536 -42.68 
L 310.721248 -42.68 
L 311.346961 -42.68 
L 311.972673 -42.68 
L 312.598385 -42.68 
L 313.224097 -42.68 
L 313.849809 -42.68 
L 314.475521 -42.68 
L 315.101233 -42.68 
L 315.726946 -42.68 
L 316.352658 -42.68 
L 316.97837 -42.68 
L 317.604082 -42.68 
L 318.229794 -42.68 
L 318.855506 -42.68 
L 319.481218 -42.68 
L 320.10693 -42.68 
L 320.732643 -42.68 
L 321.358355 -42.68 
L 321.984067 -42.68 
L 322.609779 -42.68 
L 323.235491 -42.68 
L 323.861203 -42.68 
L 324.486915 -42.68 
L 325.112628 -42.68 
L 325.73834 -42.68 
L 326.364052 -42.68 
L 326.989764 -42.68 
L 327.615476 -42.68 
L 328.241188 -42.68 
L 328.8669 -42.68 
L 329.492613 -42.68 
L 330.118325 -42.68 
L 330.744037 -42.68 
L 331.369749 -42.68 
L 331.995461 -42.68 
L 332.621173 -42.68 
L 333.246885 -42.68 
L 333.872598 -42.68 
L 334.49831 -42.68 
L 335.124022 -42.68 
L 335.749734 -42.68 
L 336.375446 -42.68 
L 337.001158 -42.68 
L 337.62687 -42.68 
L 338.252583 -42.68 
L 338.878295 -42.68 
L 339.504007 -42.68 
L 340.129719 -42.68 
L 340.755431 -42.68 
L 341.381143 -42.68 
L 342.006855 -42.68 
L 342.632567 -42.68 
L 343.25828 -42.68 
L 343.883992 -42.68 
L 344.509704 -42.68 
L 345.135416 -42.68 
L 345.761128 -42.68 
L 346.38684 -42.68 
L 347.012552 -42.68 
L 347.638265 -42.68 
L 348.263977 -42.68 
z
" id="mb063c9a5c6" style="stroke:#d62728;stroke-opacity:0.2;"/>
    </defs>
    <g clip-path="url(#pc1029a3a7c)">
     <use style="fill:#d62728;fill-opacity:0.2;stroke:#d62728;stroke-opacity:0.2;" x="0" xlink:href="#mb063c9a5c6" y="446.4"/>
    </g>
   </g>
   <g id="PolyCollection_5">
    <defs>
     <path d="M 33.64 -42.68 
L 33.64 -42.879704 
L 34.667637 -42.890493 
L 35.695273 -42.901848 
L 36.72291 -42.913797 
L 37.750546 -42.92637 
L 38.778183 -42.939599 
L 39.80582 -42.953515 
L 40.833456 -42.968152 
L 41.861093 -42.983548 
L 42.888729 -42.999738 
L 43.916366 -43.016762 
L 44.944003 -43.03466 
L 45.971639 -43.053475 
L 46.999276 -43.073252 
L 48.026912 -43.094037 
L 49.054549 -43.115878 
L 50.082186 -43.138826 
L 51.109822 -43.162935 
L 52.137459 -43.188259 
L 53.165095 -43.214856 
L 54.192732 -43.242786 
L 55.220369 -43.272112 
L 56.248005 -43.302898 
L 57.275642 -43.335214 
L 58.303278 -43.36913 
L 59.330915 -43.404719 
L 60.358552 -43.442059 
L 61.386188 -43.481229 
L 62.413825 -43.522314 
L 63.441461 -43.565399 
L 64.469098 -43.610575 
L 65.496735 -43.657935 
L 66.524371 -43.707578 
L 67.552008 -43.759603 
L 68.579644 -43.814116 
L 69.607281 -43.871226 
L 70.634918 -43.931047 
L 71.662554 -43.993695 
L 72.690191 -44.059294 
L 73.717827 -44.127968 
L 74.745464 -44.199849 
L 75.773101 -44.275073 
L 76.800737 -44.35378 
L 77.828374 -44.436116 
L 78.85601 -44.52223 
L 79.883647 -44.612279 
L 80.911284 -44.706424 
L 81.93892 -44.804831 
L 82.966557 -44.907671 
L 83.994193 -45.015123 
L 85.02183 -45.127369 
L 86.049467 -45.244598 
L 87.077103 -45.367006 
L 88.10474 -45.494792 
L 89.132376 -45.628164 
L 90.160013 -45.767335 
L 91.18765 -45.912524 
L 92.215286 -46.063956 
L 93.242923 -46.221864 
L 94.270559 -46.386485 
L 95.298196 -46.558064 
L 96.325833 -46.736853 
L 97.353469 -46.923108 
L 98.381106 -47.117095 
L 99.408742 -47.319082 
L 100.436379 -47.529349 
L 101.464016 -47.748177 
L 102.491652 -47.975856 
L 103.519289 -48.212684 
L 104.546925 -48.458962 
L 105.574562 -48.714999 
L 106.602199 -48.98111 
L 107.629835 -49.257615 
L 108.657472 -49.544842 
L 109.685108 -49.843122 
L 110.712745 -50.152794 
L 111.740382 -50.474199 
L 112.768018 -50.807687 
L 113.795655 -51.153611 
L 114.823291 -51.512328 
L 115.850928 -51.884199 
L 116.878564 -52.269591 
L 117.906201 -52.668873 
L 118.933838 -53.082419 
L 119.961474 -53.510602 
L 120.989111 -53.953803 
L 122.016747 -54.412399 
L 123.044384 -54.886774 
L 124.072021 -55.377309 
L 125.099657 -55.884388 
L 126.127294 -56.408394 
L 127.15493 -56.949708 
L 128.182567 -57.508712 
L 129.210204 -58.085785 
L 130.23784 -58.681303 
L 131.265477 -59.295638 
L 132.293113 -59.92916 
L 133.32075 -60.582233 
L 134.348387 -61.255214 
L 135.376023 -61.948455 
L 135.376023 -42.68 
L 135.376023 -42.68 
L 134.348387 -42.68 
L 133.32075 -42.68 
L 132.293113 -42.68 
L 131.265477 -42.68 
L 130.23784 -42.68 
L 129.210204 -42.68 
L 128.182567 -42.68 
L 127.15493 -42.68 
L 126.127294 -42.68 
L 125.099657 -42.68 
L 124.072021 -42.68 
L 123.044384 -42.68 
L 122.016747 -42.68 
L 120.989111 -42.68 
L 119.961474 -42.68 
L 118.933838 -42.68 
L 117.906201 -42.68 
L 116.878564 -42.68 
L 115.850928 -42.68 
L 114.823291 -42.68 
L 113.795655 -42.68 
L 112.768018 -42.68 
L 111.740382 -42.68 
L 110.712745 -42.68 
L 109.685108 -42.68 
L 108.657472 -42.68 
L 107.629835 -42.68 
L 106.602199 -42.68 
L 105.574562 -42.68 
L 104.546925 -42.68 
L 103.519289 -42.68 
L 102.491652 -42.68 
L 101.464016 -42.68 
L 100.436379 -42.68 
L 99.408742 -42.68 
L 98.381106 -42.68 
L 97.353469 -42.68 
L 96.325833 -42.68 
L 95.298196 -42.68 
L 94.270559 -42.68 
L 93.242923 -42.68 
L 92.215286 -42.68 
L 91.18765 -42.68 
L 90.160013 -42.68 
L 89.132376 -42.68 
L 88.10474 -42.68 
L 87.077103 -42.68 
L 86.049467 -42.68 
L 85.02183 -42.68 
L 83.994193 -42.68 
L 82.966557 -42.68 
L 81.93892 -42.68 
L 80.911284 -42.68 
L 79.883647 -42.68 
L 78.85601 -42.68 
L 77.828374 -42.68 
L 76.800737 -42.68 
L 75.773101 -42.68 
L 74.745464 -42.68 
L 73.717827 -42.68 
L 72.690191 -42.68 
L 71.662554 -42.68 
L 70.634918 -42.68 
L 69.607281 -42.68 
L 68.579644 -42.68 
L 67.552008 -42.68 
L 66.524371 -42.68 
L 65.496735 -42.68 
L 64.469098 -42.68 
L 63.441461 -42.68 
L 62.413825 -42.68 
L 61.386188 -42.68 
L 60.358552 -42.68 
L 59.330915 -42.68 
L 58.303278 -42.68 
L 57.275642 -42.68 
L 56.248005 -42.68 
L 55.220369 -42.68 
L 54.192732 -42.68 
L 53.165095 -42.68 
L 52.137459 -42.68 
L 51.109822 -42.68 
L 50.082186 -42.68 
L 49.054549 -42.68 
L 48.026912 -42.68 
L 46.999276 -42.68 
L 45.971639 -42.68 
L 44.944003 -42.68 
L 43.916366 -42.68 
L 42.888729 -42.68 
L 41.861093 -42.68 
L 40.833456 -42.68 
L 39.80582 -42.68 
L 38.778183 -42.68 
L 37.750546 -42.68 
L 36.72291 -42.68 
L 35.695273 -42.68 
L 34.667637 -42.68 
L 33.64 -42.68 
z
" id="m755f906d06" style="stroke:#d62728;stroke-opacity:0.2;"/>
    </defs>
    <g clip-path="url(#pc1029a3a7c)">
     <use style="fill:#d62728;fill-opacity:0.2;stroke:#d62728;stroke-opacity:0.2;" x="0" xlink:href="#m755f906d06" y="446.4"/>
    </g>
   </g>
   <g id="matplotlib.axis_3">
    <g id="xtick_4">
     <g id="line2d_10">
      <g>
       <use style="stroke:#000000;stroke-width:0.8;" x="286.318475" xlink:href="#mbcfb54b7bf" y="403.72"/>
      </g>
     </g>
     <g id="text_14">
      <!-- 0.855 -->
      <g transform="translate(272.004413 418.318438)scale(0.1 -0.1)">
       <defs>
        <path d="M 2034 2216 
Q 1584 2216 1326 1975 
Q 1069 1734 1069 1313 
Q 1069 891 1326 650 
Q 1584 409 2034 409 
Q 2484 409 2743 651 
Q 3003 894 3003 1313 
Q 3003 1734 2745 1975 
Q 2488 2216 2034 2216 
z
M 1403 2484 
Q 997 2584 770 2862 
Q 544 3141 544 3541 
Q 544 4100 942 4425 
Q 1341 4750 2034 4750 
Q 2731 4750 3128 4425 
Q 3525 4100 3525 3541 
Q 3525 3141 3298 2862 
Q 3072 2584 2669 2484 
Q 3125 2378 3379 2068 
Q 3634 1759 3634 1313 
Q 3634 634 3220 271 
Q 2806 -91 2034 -91 
Q 1263 -91 848 271 
Q 434 634 434 1313 
Q 434 1759 690 2068 
Q 947 2378 1403 2484 
z
M 1172 3481 
Q 1172 3119 1398 2916 
Q 1625 2713 2034 2713 
Q 2441 2713 2670 2916 
Q 2900 3119 2900 3481 
Q 2900 3844 2670 4047 
Q 2441 4250 2034 4250 
Q 1625 4250 1398 4047 
Q 1172 3844 1172 3481 
z
" id="DejaVuSans-38" transform="scale(0.015625)"/>
       </defs>
       <use xlink:href="#DejaVuSans-30"/>
       <use x="63.623047" xlink:href="#DejaVuSans-2e"/>
       <use x="95.410156" xlink:href="#DejaVuSans-38"/>
       <use x="159.033203" xlink:href="#DejaVuSans-35"/>
       <use x="222.65625" xlink:href="#DejaVuSans-35"/>
      </g>
     </g>
    </g>
    <g id="xtick_5">
     <g id="line2d_11">
      <g>
       <use style="stroke:#000000;stroke-width:0.8;" x="241.82" xlink:href="#mbcfb54b7bf" y="403.72"/>
      </g>
     </g>
     <g id="text_15">
      <!-- 0 -->
      <g transform="translate(238.63875 418.318438)scale(0.1 -0.1)">
       <use xlink:href="#DejaVuSans-30"/>
      </g>
     </g>
    </g>
    <g id="text_16">
     <!-- t-value -->
     <g transform="translate(222.800312 432.756406)scale(0.11 -0.11)">
      <use xlink:href="#DejaVuSans-74"/>
      <use x="39.208984" xlink:href="#DejaVuSans-2d"/>
      <use x="72.667969" xlink:href="#DejaVuSans-76"/>
      <use x="131.847656" xlink:href="#DejaVuSans-61"/>
      <use x="193.126953" xlink:href="#DejaVuSans-6c"/>
      <use x="220.910156" xlink:href="#DejaVuSans-75"/>
      <use x="284.289062" xlink:href="#DejaVuSans-65"/>
     </g>
    </g>
   </g>
   <g id="matplotlib.axis_4">
    <g id="ytick_6">
     <g id="line2d_12">
      <g>
       <use style="stroke:#000000;stroke-width:0.8;" x="33.64" xlink:href="#mb8423a0b61" y="403.72"/>
      </g>
     </g>
     <g id="text_17">
      <!-- 0.0 -->
      <g transform="translate(10.736875 407.519219)scale(0.1 -0.1)">
       <use xlink:href="#DejaVuSans-30"/>
       <use x="63.623047" xlink:href="#DejaVuSans-2e"/>
       <use x="95.410156" xlink:href="#DejaVuSans-30"/>
      </g>
     </g>
    </g>
    <g id="ytick_7">
     <g id="line2d_13">
      <g>
       <use style="stroke:#000000;stroke-width:0.8;" x="33.64" xlink:href="#mb8423a0b61" y="366.954733"/>
      </g>
     </g>
     <g id="text_18">
      <!-- 0.1 -->
      <g transform="translate(10.736875 370.753952)scale(0.1 -0.1)">
       <use xlink:href="#DejaVuSans-30"/>
       <use x="63.623047" xlink:href="#DejaVuSans-2e"/>
       <use x="95.410156" xlink:href="#DejaVuSans-31"/>
      </g>
     </g>
    </g>
    <g id="ytick_8">
     <g id="line2d_14">
      <g>
       <use style="stroke:#000000;stroke-width:0.8;" x="33.64" xlink:href="#mb8423a0b61" y="330.189467"/>
      </g>
     </g>
     <g id="text_19">
      <!-- 0.2 -->
      <g transform="translate(10.736875 333.988685)scale(0.1 -0.1)">
       <use xlink:href="#DejaVuSans-30"/>
       <use x="63.623047" xlink:href="#DejaVuSans-2e"/>
       <use x="95.410156" xlink:href="#DejaVuSans-32"/>
      </g>
     </g>
    </g>
    <g id="ytick_9">
     <g id="line2d_15">
      <g>
       <use style="stroke:#000000;stroke-width:0.8;" x="33.64" xlink:href="#mb8423a0b61" y="293.4242"/>
      </g>
     </g>
     <g id="text_20">
      <!-- 0.3 -->
      <g transform="translate(10.736875 297.223419)scale(0.1 -0.1)">
       <use xlink:href="#DejaVuSans-30"/>
       <use x="63.623047" xlink:href="#DejaVuSans-2e"/>
       <use x="95.410156" xlink:href="#DejaVuSans-33"/>
      </g>
     </g>
    </g>
    <g id="ytick_10">
     <g id="line2d_16">
      <g>
       <use style="stroke:#000000;stroke-width:0.8;" x="33.64" xlink:href="#mb8423a0b61" y="256.658933"/>
      </g>
     </g>
     <g id="text_21">
      <!-- 0.4 -->
      <g transform="translate(10.736875 260.458152)scale(0.1 -0.1)">
       <use xlink:href="#DejaVuSans-30"/>
       <use x="63.623047" xlink:href="#DejaVuSans-2e"/>
       <use x="95.410156" xlink:href="#DejaVuSans-34"/>
      </g>
     </g>
    </g>
   </g>
   <g id="LineCollection_3">
    <path clip-path="url(#pc1029a3a7c)" d="M 286.318475 403.72 
L 286.318475 303.621782 
" style="fill:none;stroke:#000000;"/>
   </g>
   <g id="LineCollection_4">
    <path clip-path="url(#pc1029a3a7c)" d="M 135.376023 403.72 
L 135.376023 384.451545 
" style="fill:none;stroke:#000000;stroke-dasharray:3.7,1.6;stroke-dashoffset:0;"/>
    <path clip-path="url(#pc1029a3a7c)" d="M 348.263977 403.72 
L 348.263977 384.451545 
" style="fill:none;stroke:#000000;stroke-dasharray:3.7,1.6;stroke-dashoffset:0;"/>
   </g>
   <g id="line2d_17">
    <path clip-path="url(#pc1029a3a7c)" d="M 33.64 403.520296 
L 51.742609 403.221619 
L 64.275184 402.798114 
L 74.022742 402.251044 
L 82.377793 401.551802 
L 89.340334 400.744148 
L 94.910368 399.907523 
L 100.480401 398.861455 
L 106.050435 397.563043 
L 110.22796 396.394734 
L 114.405485 395.035082 
L 118.58301 393.460389 
L 122.760535 391.645855 
L 126.93806 389.565989 
L 131.115585 387.195155 
L 135.29311 384.508238 
L 139.470635 381.481456 
L 143.648161 378.093306 
L 147.825686 374.325631 
L 152.003211 370.164792 
L 156.180736 365.602908 
L 160.358261 360.639136 
L 164.535786 355.280918 
L 168.713311 349.545157 
L 172.890836 343.459229 
L 178.46087 334.868436 
L 184.030903 325.849344 
L 195.17097 307.206232 
L 202.133512 295.756166 
L 206.311037 289.20358 
L 210.488562 283.022398 
L 214.666087 277.321619 
L 217.451104 273.840224 
L 220.23612 270.648843 
L 223.021137 267.775208 
L 225.806154 265.244793 
L 228.591171 263.080414 
L 231.376187 261.301871 
L 234.161204 259.925625 
L 236.946221 258.964533 
L 239.731237 258.427634 
L 242.516254 258.32 
L 245.301271 258.642648 
L 248.086288 259.392528 
L 250.871304 260.56257 
L 253.656321 262.141803 
L 256.441338 264.115537 
L 259.226355 266.465606 
L 262.011371 269.170658 
L 264.796388 272.206501 
L 267.581405 275.54648 
L 270.366421 279.161889 
L 274.543946 285.034752 
L 278.721472 291.351935 
L 284.291505 300.276755 
L 292.646555 314.222289 
L 302.394114 330.403202 
L 307.964147 339.22601 
L 312.141672 345.524632 
L 316.319197 351.497562 
L 320.496722 357.109981 
L 324.674247 362.338105 
L 328.851773 367.168307 
L 333.029298 371.596042 
L 337.206823 375.62464 
L 341.384348 379.264043 
L 345.561873 382.529531 
L 349.739398 385.440503 
L 353.916923 388.019333 
L 358.094448 390.290345 
L 362.271973 392.278913 
L 366.449498 394.010693 
L 370.627023 395.510997 
L 374.804548 396.804299 
L 380.374582 398.24669 
L 385.944615 399.41322 
L 391.514649 400.349552 
L 398.477191 401.256848 
L 405.439732 401.933165 
L 413.794783 402.515168 
L 423.542341 402.967591 
L 436.074916 403.315432 
L 450 403.520296 
L 450 403.520296 
" style="fill:none;stroke:#000000;stroke-linecap:square;"/>
   </g>
   <g id="patch_10">
    <path d="M 33.64 403.72 
L 33.64 229.24 
" style="fill:none;stroke:#000000;stroke-linecap:square;stroke-linejoin:miter;stroke-width:0.8;"/>
   </g>
   <g id="patch_11">
    <path d="M 450 403.72 
L 450 229.24 
" style="fill:none;stroke:#000000;stroke-linecap:square;stroke-linejoin:miter;stroke-width:0.8;"/>
   </g>
   <g id="patch_12">
    <path d="M 33.64 403.72 
L 450 403.72 
" style="fill:none;stroke:#000000;stroke-linecap:square;stroke-linejoin:miter;stroke-width:0.8;"/>
   </g>
   <g id="patch_13">
    <path d="M 33.64 229.24 
L 450 229.24 
" style="fill:none;stroke:#000000;stroke-linecap:square;stroke-linejoin:miter;stroke-width:0.8;"/>
   </g>
   <g id="patch_14">
    <path d="M 368.674663 366.299713 
Q 355.687851 372.160708 343.414382 377.699769 
" style="fill:none;stroke:#000000;stroke-linecap:round;stroke-width:0.7;"/>
    <path d="M 347.882992 377.877312 
L 343.414382 377.699769 
L 346.237582 374.231406 
" style="fill:none;stroke:#000000;stroke-linecap:round;stroke-width:0.7;"/>
   </g>
   <g id="text_22">
    <!-- 0.1998 -->
    <g style="fill:#1f77b4;" transform="translate(368.159238 361.396004)scale(0.1 -0.1)">
     <use xlink:href="#DejaVuSans-30"/>
     <use x="63.623047" xlink:href="#DejaVuSans-2e"/>
     <use x="95.410156" xlink:href="#DejaVuSans-31"/>
     <use x="159.033203" xlink:href="#DejaVuSans-39"/>
     <use x="222.65625" xlink:href="#DejaVuSans-39"/>
     <use x="286.279297" xlink:href="#DejaVuSans-38"/>
    </g>
   </g>
   <g id="text_23">
    <!-- P-Value = 2*0.1998 = 0.3996 -->
    <g style="fill:#1f77b4;" transform="translate(39.8854 241.4536)scale(0.09 -0.09)">
     <defs>
      <path d="M 1259 4147 
L 1259 2394 
L 2053 2394 
Q 2494 2394 2734 2622 
Q 2975 2850 2975 3272 
Q 2975 3691 2734 3919 
Q 2494 4147 2053 4147 
L 1259 4147 
z
M 628 4666 
L 2053 4666 
Q 2838 4666 3239 4311 
Q 3641 3956 3641 3272 
Q 3641 2581 3239 2228 
Q 2838 1875 2053 1875 
L 1259 1875 
L 1259 0 
L 628 0 
L 628 4666 
z
" id="DejaVuSans-50" transform="scale(0.015625)"/>
      <path d="M 3009 3897 
L 1888 3291 
L 3009 2681 
L 2828 2375 
L 1778 3009 
L 1778 1831 
L 1422 1831 
L 1422 3009 
L 372 2375 
L 191 2681 
L 1313 3291 
L 191 3897 
L 372 4206 
L 1422 3572 
L 1422 4750 
L 1778 4750 
L 1778 3572 
L 2828 4206 
L 3009 3897 
z
" id="DejaVuSans-2a" transform="scale(0.015625)"/>
      <path d="M 2113 2584 
Q 1688 2584 1439 2293 
Q 1191 2003 1191 1497 
Q 1191 994 1439 701 
Q 1688 409 2113 409 
Q 2538 409 2786 701 
Q 3034 994 3034 1497 
Q 3034 2003 2786 2293 
Q 2538 2584 2113 2584 
z
M 3366 4563 
L 3366 3988 
Q 3128 4100 2886 4159 
Q 2644 4219 2406 4219 
Q 1781 4219 1451 3797 
Q 1122 3375 1075 2522 
Q 1259 2794 1537 2939 
Q 1816 3084 2150 3084 
Q 2853 3084 3261 2657 
Q 3669 2231 3669 1497 
Q 3669 778 3244 343 
Q 2819 -91 2113 -91 
Q 1303 -91 875 529 
Q 447 1150 447 2328 
Q 447 3434 972 4092 
Q 1497 4750 2381 4750 
Q 2619 4750 2861 4703 
Q 3103 4656 3366 4563 
z
" id="DejaVuSans-36" transform="scale(0.015625)"/>
     </defs>
     <use xlink:href="#DejaVuSans-50"/>
     <use x="58.052734" xlink:href="#DejaVuSans-2d"/>
     <use x="88.261719" xlink:href="#DejaVuSans-56"/>
     <use x="148.919922" xlink:href="#DejaVuSans-61"/>
     <use x="210.199219" xlink:href="#DejaVuSans-6c"/>
     <use x="237.982422" xlink:href="#DejaVuSans-75"/>
     <use x="301.361328" xlink:href="#DejaVuSans-65"/>
     <use x="362.884766" xlink:href="#DejaVuSans-20"/>
     <use x="394.671875" xlink:href="#DejaVuSans-3d"/>
     <use x="478.460938" xlink:href="#DejaVuSans-20"/>
     <use x="510.248047" xlink:href="#DejaVuSans-32"/>
     <use x="573.871094" xlink:href="#DejaVuSans-2a"/>
     <use x="623.871094" xlink:href="#DejaVuSans-30"/>
     <use x="687.494141" xlink:href="#DejaVuSans-2e"/>
     <use x="719.28125" xlink:href="#DejaVuSans-31"/>
     <use x="782.904297" xlink:href="#DejaVuSans-39"/>
     <use x="846.527344" xlink:href="#DejaVuSans-39"/>
     <use x="910.150391" xlink:href="#DejaVuSans-38"/>
     <use x="973.773438" xlink:href="#DejaVuSans-20"/>
     <use x="1005.560547" xlink:href="#DejaVuSans-3d"/>
     <use x="1089.349609" xlink:href="#DejaVuSans-20"/>
     <use x="1121.136719" xlink:href="#DejaVuSans-30"/>
     <use x="1184.759766" xlink:href="#DejaVuSans-2e"/>
     <use x="1216.546875" xlink:href="#DejaVuSans-33"/>
     <use x="1280.169922" xlink:href="#DejaVuSans-39"/>
     <use x="1343.792969" xlink:href="#DejaVuSans-39"/>
     <use x="1407.416016" xlink:href="#DejaVuSans-36"/>
    </g>
   </g>
   <g id="text_24">
    <!-- Test Statistic (TS) = 0.855 -->
    <g transform="translate(39.8854 253.6672)scale(0.09 -0.09)">
     <use xlink:href="#DejaVuSans-54"/>
     <use x="44.083984" xlink:href="#DejaVuSans-65"/>
     <use x="105.607422" xlink:href="#DejaVuSans-73"/>
     <use x="157.707031" xlink:href="#DejaVuSans-74"/>
     <use x="196.916016" xlink:href="#DejaVuSans-20"/>
     <use x="228.703125" xlink:href="#DejaVuSans-53"/>
     <use x="292.179688" xlink:href="#DejaVuSans-74"/>
     <use x="331.388672" xlink:href="#DejaVuSans-61"/>
     <use x="392.667969" xlink:href="#DejaVuSans-74"/>
     <use x="431.876953" xlink:href="#DejaVuSans-69"/>
     <use x="459.660156" xlink:href="#DejaVuSans-73"/>
     <use x="511.759766" xlink:href="#DejaVuSans-74"/>
     <use x="550.96875" xlink:href="#DejaVuSans-69"/>
     <use x="578.751953" xlink:href="#DejaVuSans-63"/>
     <use x="633.732422" xlink:href="#DejaVuSans-20"/>
     <use x="665.519531" xlink:href="#DejaVuSans-28"/>
     <use x="704.533203" xlink:href="#DejaVuSans-54"/>
     <use x="765.617188" xlink:href="#DejaVuSans-53"/>
     <use x="829.09375" xlink:href="#DejaVuSans-29"/>
     <use x="868.107422" xlink:href="#DejaVuSans-20"/>
     <use x="899.894531" xlink:href="#DejaVuSans-3d"/>
     <use x="983.683594" xlink:href="#DejaVuSans-20"/>
     <use x="1015.470703" xlink:href="#DejaVuSans-30"/>
     <use x="1079.09375" xlink:href="#DejaVuSans-2e"/>
     <use x="1110.880859" xlink:href="#DejaVuSans-38"/>
     <use x="1174.503906" xlink:href="#DejaVuSans-35"/>
     <use x="1238.126953" xlink:href="#DejaVuSans-35"/>
    </g>
   </g>
  </g>
 </g>
 <defs>
  <clipPath id="pe5a83bbcfc">
   <rect height="174.48" width="416.36" x="33.64" y="26.88"/>
  </clipPath>
  <clipPath id="pc1029a3a7c">
   <rect height="174.48" width="416.36" x="33.64" y="229.24"/>
  </clipPath>
 </defs>
</svg>
