<?xml version="1.0" encoding="utf-8" standalone="no"?>
<!DOCTYPE svg PUBLIC "-//W3C//DTD SVG 1.1//EN"
  "http://www.w3.org/Graphics/SVG/1.1/DTD/svg11.dtd">
<svg height="216pt" version="1.1" viewBox="0 0 460.8 216" width="460.8pt" xmlns="http://www.w3.org/2000/svg" xmlns:xlink="http://www.w3.org/1999/xlink">
 <metadata>
  <rdf:RDF xmlns:cc="http://creativecommons.org/ns#" xmlns:dc="http://purl.org/dc/elements/1.1/" xmlns:rdf="http://www.w3.org/1999/02/22-rdf-syntax-ns#">
   <cc:Work>
    <dc:type rdf:resource="http://purl.org/dc/dcmitype/StillImage"/>
    <dc:date>2021-07-15T15:56:23.713445</dc:date>
    <dc:format>image/svg+xml</dc:format>
    <dc:creator>
     <cc:Agent>
      <dc:title>Matplotlib v3.4.2, https://matplotlib.org/</dc:title>
     </cc:Agent>
    </dc:creator>
   </cc:Work>
  </rdf:RDF>
 </metadata>
 <defs>
  <style type="text/css">*{stroke-linecap:butt;stroke-linejoin:round;}</style>
 </defs>
 <g id="figure_1">
  <g id="patch_1">
   <path d="M 0 216 
L 460.8 216 
L 460.8 0 
L 0 0 
z
" style="fill:#ffffff;"/>
  </g>
  <g id="axes_1">
   <g id="patch_2">
    <path d="M 33.64 188.12 
L 450 188.12 
L 450 10.8 
L 33.64 10.8 
z
" style="fill:#ffffff;"/>
   </g>
   <g id="PolyCollection_1">
    <defs>
     <path d="M 330.251066 -27.88 
L 330.251066 -63.473857 
L 331.460651 -62.168596 
L 332.670236 -60.897567 
L 333.879822 -59.660637 
L 335.089407 -58.457625 
L 336.298992 -57.288304 
L 337.508577 -56.152407 
L 338.718162 -55.049624 
L 339.927748 -53.979608 
L 341.137333 -52.941979 
L 342.346918 -51.936322 
L 343.556503 -50.962196 
L 344.766088 -50.019128 
L 345.975674 -49.106623 
L 347.185259 -48.224164 
L 348.394844 -47.37121 
L 349.604429 -46.547206 
L 350.814014 -45.751578 
L 352.0236 -44.983739 
L 353.233185 -44.243091 
L 354.44277 -43.529024 
L 355.652355 -42.840921 
L 356.86194 -42.178158 
L 358.071525 -41.540105 
L 359.281111 -40.926131 
L 360.490696 -40.335602 
L 361.700281 -39.767881 
L 362.909866 -39.222336 
L 364.119451 -38.698334 
L 365.329037 -38.195248 
L 366.538622 -37.712451 
L 367.748207 -37.249325 
L 368.957792 -36.805258 
L 370.167377 -36.379642 
L 371.376963 -35.971881 
L 372.586548 -35.581384 
L 373.796133 -35.207571 
L 375.005718 -34.849871 
L 376.215303 -34.507724 
L 377.424889 -34.180581 
L 378.634474 -33.867902 
L 379.844059 -33.569162 
L 381.053644 -33.283844 
L 382.263229 -33.011445 
L 383.472814 -32.751475 
L 384.6824 -32.503455 
L 385.891985 -32.26692 
L 387.10157 -32.041414 
L 388.311155 -31.826499 
L 389.52074 -31.621745 
L 390.730326 -31.426738 
L 391.939911 -31.241074 
L 393.149496 -31.064362 
L 394.359081 -30.896226 
L 395.568666 -30.736298 
L 396.778252 -30.584226 
L 397.987837 -30.439668 
L 399.197422 -30.302294 
L 400.407007 -30.171786 
L 401.616592 -30.047837 
L 402.826178 -29.930151 
L 404.035763 -29.818443 
L 405.245348 -29.71244 
L 406.454933 -29.611879 
L 407.664518 -29.516504 
L 408.874104 -29.426074 
L 410.083689 -29.340355 
L 411.293274 -29.259121 
L 412.502859 -29.182159 
L 413.712444 -29.109262 
L 414.922029 -29.040232 
L 416.131615 -28.97488 
L 417.3412 -28.913026 
L 418.550785 -28.854494 
L 419.76037 -28.799121 
L 420.969955 -28.746748 
L 422.179541 -28.697222 
L 423.389126 -28.650401 
L 424.598711 -28.606145 
L 425.808296 -28.564323 
L 427.017881 -28.52481 
L 428.227467 -28.487485 
L 429.437052 -28.452236 
L 430.646637 -28.418952 
L 431.856222 -28.387531 
L 433.065807 -28.357875 
L 434.275393 -28.329888 
L 435.484978 -28.303483 
L 436.694563 -28.278575 
L 437.904148 -28.255082 
L 439.113733 -28.232928 
L 440.323318 -28.212042 
L 441.532904 -28.192352 
L 442.742489 -28.173795 
L 443.952074 -28.156308 
L 445.161659 -28.139831 
L 446.371244 -28.124309 
L 447.58083 -28.109688 
L 448.790415 -28.09592 
L 450 -28.082955 
L 450 -27.88 
L 450 -27.88 
L 448.790415 -27.88 
L 447.58083 -27.88 
L 446.371244 -27.88 
L 445.161659 -27.88 
L 443.952074 -27.88 
L 442.742489 -27.88 
L 441.532904 -27.88 
L 440.323318 -27.88 
L 439.113733 -27.88 
L 437.904148 -27.88 
L 436.694563 -27.88 
L 435.484978 -27.88 
L 434.275393 -27.88 
L 433.065807 -27.88 
L 431.856222 -27.88 
L 430.646637 -27.88 
L 429.437052 -27.88 
L 428.227467 -27.88 
L 427.017881 -27.88 
L 425.808296 -27.88 
L 424.598711 -27.88 
L 423.389126 -27.88 
L 422.179541 -27.88 
L 420.969955 -27.88 
L 419.76037 -27.88 
L 418.550785 -27.88 
L 417.3412 -27.88 
L 416.131615 -27.88 
L 414.922029 -27.88 
L 413.712444 -27.88 
L 412.502859 -27.88 
L 411.293274 -27.88 
L 410.083689 -27.88 
L 408.874104 -27.88 
L 407.664518 -27.88 
L 406.454933 -27.88 
L 405.245348 -27.88 
L 404.035763 -27.88 
L 402.826178 -27.88 
L 401.616592 -27.88 
L 400.407007 -27.88 
L 399.197422 -27.88 
L 397.987837 -27.88 
L 396.778252 -27.88 
L 395.568666 -27.88 
L 394.359081 -27.88 
L 393.149496 -27.88 
L 391.939911 -27.88 
L 390.730326 -27.88 
L 389.52074 -27.88 
L 388.311155 -27.88 
L 387.10157 -27.88 
L 385.891985 -27.88 
L 384.6824 -27.88 
L 383.472814 -27.88 
L 382.263229 -27.88 
L 381.053644 -27.88 
L 379.844059 -27.88 
L 378.634474 -27.88 
L 377.424889 -27.88 
L 376.215303 -27.88 
L 375.005718 -27.88 
L 373.796133 -27.88 
L 372.586548 -27.88 
L 371.376963 -27.88 
L 370.167377 -27.88 
L 368.957792 -27.88 
L 367.748207 -27.88 
L 366.538622 -27.88 
L 365.329037 -27.88 
L 364.119451 -27.88 
L 362.909866 -27.88 
L 361.700281 -27.88 
L 360.490696 -27.88 
L 359.281111 -27.88 
L 358.071525 -27.88 
L 356.86194 -27.88 
L 355.652355 -27.88 
L 354.44277 -27.88 
L 353.233185 -27.88 
L 352.0236 -27.88 
L 350.814014 -27.88 
L 349.604429 -27.88 
L 348.394844 -27.88 
L 347.185259 -27.88 
L 345.975674 -27.88 
L 344.766088 -27.88 
L 343.556503 -27.88 
L 342.346918 -27.88 
L 341.137333 -27.88 
L 339.927748 -27.88 
L 338.718162 -27.88 
L 337.508577 -27.88 
L 336.298992 -27.88 
L 335.089407 -27.88 
L 333.879822 -27.88 
L 332.670236 -27.88 
L 331.460651 -27.88 
L 330.251066 -27.88 
z
" id="m8628088c83" style="stroke:#d62728;stroke-opacity:0.7;"/>
    </defs>
    <g clip-path="url(#p4de1be663d)">
     <use style="fill:#d62728;fill-opacity:0.7;stroke:#d62728;stroke-opacity:0.7;" x="0" xlink:href="#m8628088c83" y="216"/>
    </g>
   </g>
   <g id="matplotlib.axis_1">
    <g id="xtick_1">
     <g id="line2d_1">
      <defs>
       <path d="M 0 0 
L 0 3.5 
" id="m27441fd443" style="stroke:#000000;stroke-width:0.8;"/>
      </defs>
      <g>
       <use style="stroke:#000000;stroke-width:0.8;" x="330.251066" xlink:href="#m27441fd443" y="188.12"/>
      </g>
     </g>
     <g id="text_1">
      <!-- CV -->
      <g transform="translate(323.339347 202.718437)scale(0.1 -0.1)">
       <defs>
        <path d="M 4122 4306 
L 4122 3641 
Q 3803 3938 3442 4084 
Q 3081 4231 2675 4231 
Q 1875 4231 1450 3742 
Q 1025 3253 1025 2328 
Q 1025 1406 1450 917 
Q 1875 428 2675 428 
Q 3081 428 3442 575 
Q 3803 722 4122 1019 
L 4122 359 
Q 3791 134 3420 21 
Q 3050 -91 2638 -91 
Q 1578 -91 968 557 
Q 359 1206 359 2328 
Q 359 3453 968 4101 
Q 1578 4750 2638 4750 
Q 3056 4750 3426 4639 
Q 3797 4528 4122 4306 
z
" id="DejaVuSans-43" transform="scale(0.015625)"/>
        <path d="M 1831 0 
L 50 4666 
L 709 4666 
L 2188 738 
L 3669 4666 
L 4325 4666 
L 2547 0 
L 1831 0 
z
" id="DejaVuSans-56" transform="scale(0.015625)"/>
       </defs>
       <use xlink:href="#DejaVuSans-43"/>
       <use x="69.824219" xlink:href="#DejaVuSans-56"/>
      </g>
     </g>
    </g>
    <g id="xtick_2">
     <g id="line2d_2">
      <g>
       <use style="stroke:#000000;stroke-width:0.8;" x="241.82" xlink:href="#m27441fd443" y="188.12"/>
      </g>
     </g>
     <g id="text_2">
      <!-- 0 -->
      <g transform="translate(238.63875 202.718437)scale(0.1 -0.1)">
       <defs>
        <path d="M 2034 4250 
Q 1547 4250 1301 3770 
Q 1056 3291 1056 2328 
Q 1056 1369 1301 889 
Q 1547 409 2034 409 
Q 2525 409 2770 889 
Q 3016 1369 3016 2328 
Q 3016 3291 2770 3770 
Q 2525 4250 2034 4250 
z
M 2034 4750 
Q 2819 4750 3233 4129 
Q 3647 3509 3647 2328 
Q 3647 1150 3233 529 
Q 2819 -91 2034 -91 
Q 1250 -91 836 529 
Q 422 1150 422 2328 
Q 422 3509 836 4129 
Q 1250 4750 2034 4750 
z
" id="DejaVuSans-30" transform="scale(0.015625)"/>
       </defs>
       <use xlink:href="#DejaVuSans-30"/>
      </g>
     </g>
    </g>
   </g>
   <g id="matplotlib.axis_2">
    <g id="ytick_1">
     <g id="line2d_3">
      <defs>
       <path d="M 0 0 
L -3.5 0 
" id="m4e434019d3" style="stroke:#000000;stroke-width:0.8;"/>
      </defs>
      <g>
       <use style="stroke:#000000;stroke-width:0.8;" x="33.64" xlink:href="#m4e434019d3" y="188.12"/>
      </g>
     </g>
     <g id="text_3">
      <!-- 0.0 -->
      <g transform="translate(10.736875 191.919219)scale(0.1 -0.1)">
       <defs>
        <path d="M 684 794 
L 1344 794 
L 1344 0 
L 684 0 
L 684 794 
z
" id="DejaVuSans-2e" transform="scale(0.015625)"/>
       </defs>
       <use xlink:href="#DejaVuSans-30"/>
       <use x="63.623047" xlink:href="#DejaVuSans-2e"/>
       <use x="95.410156" xlink:href="#DejaVuSans-30"/>
      </g>
     </g>
    </g>
    <g id="ytick_2">
     <g id="line2d_4">
      <g>
       <use style="stroke:#000000;stroke-width:0.8;" x="33.64" xlink:href="#m4e434019d3" y="150.756307"/>
      </g>
     </g>
     <g id="text_4">
      <!-- 0.1 -->
      <g transform="translate(10.736875 154.555526)scale(0.1 -0.1)">
       <defs>
        <path d="M 794 531 
L 1825 531 
L 1825 4091 
L 703 3866 
L 703 4441 
L 1819 4666 
L 2450 4666 
L 2450 531 
L 3481 531 
L 3481 0 
L 794 0 
L 794 531 
z
" id="DejaVuSans-31" transform="scale(0.015625)"/>
       </defs>
       <use xlink:href="#DejaVuSans-30"/>
       <use x="63.623047" xlink:href="#DejaVuSans-2e"/>
       <use x="95.410156" xlink:href="#DejaVuSans-31"/>
      </g>
     </g>
    </g>
    <g id="ytick_3">
     <g id="line2d_5">
      <g>
       <use style="stroke:#000000;stroke-width:0.8;" x="33.64" xlink:href="#m4e434019d3" y="113.392615"/>
      </g>
     </g>
     <g id="text_5">
      <!-- 0.2 -->
      <g transform="translate(10.736875 117.191834)scale(0.1 -0.1)">
       <defs>
        <path d="M 1228 531 
L 3431 531 
L 3431 0 
L 469 0 
L 469 531 
Q 828 903 1448 1529 
Q 2069 2156 2228 2338 
Q 2531 2678 2651 2914 
Q 2772 3150 2772 3378 
Q 2772 3750 2511 3984 
Q 2250 4219 1831 4219 
Q 1534 4219 1204 4116 
Q 875 4013 500 3803 
L 500 4441 
Q 881 4594 1212 4672 
Q 1544 4750 1819 4750 
Q 2544 4750 2975 4387 
Q 3406 4025 3406 3419 
Q 3406 3131 3298 2873 
Q 3191 2616 2906 2266 
Q 2828 2175 2409 1742 
Q 1991 1309 1228 531 
z
" id="DejaVuSans-32" transform="scale(0.015625)"/>
       </defs>
       <use xlink:href="#DejaVuSans-30"/>
       <use x="63.623047" xlink:href="#DejaVuSans-2e"/>
       <use x="95.410156" xlink:href="#DejaVuSans-32"/>
      </g>
     </g>
    </g>
    <g id="ytick_4">
     <g id="line2d_6">
      <g>
       <use style="stroke:#000000;stroke-width:0.8;" x="33.64" xlink:href="#m4e434019d3" y="76.028922"/>
      </g>
     </g>
     <g id="text_6">
      <!-- 0.3 -->
      <g transform="translate(10.736875 79.828141)scale(0.1 -0.1)">
       <defs>
        <path d="M 2597 2516 
Q 3050 2419 3304 2112 
Q 3559 1806 3559 1356 
Q 3559 666 3084 287 
Q 2609 -91 1734 -91 
Q 1441 -91 1130 -33 
Q 819 25 488 141 
L 488 750 
Q 750 597 1062 519 
Q 1375 441 1716 441 
Q 2309 441 2620 675 
Q 2931 909 2931 1356 
Q 2931 1769 2642 2001 
Q 2353 2234 1838 2234 
L 1294 2234 
L 1294 2753 
L 1863 2753 
Q 2328 2753 2575 2939 
Q 2822 3125 2822 3475 
Q 2822 3834 2567 4026 
Q 2313 4219 1838 4219 
Q 1578 4219 1281 4162 
Q 984 4106 628 3988 
L 628 4550 
Q 988 4650 1302 4700 
Q 1616 4750 1894 4750 
Q 2613 4750 3031 4423 
Q 3450 4097 3450 3541 
Q 3450 3153 3228 2886 
Q 3006 2619 2597 2516 
z
" id="DejaVuSans-33" transform="scale(0.015625)"/>
       </defs>
       <use xlink:href="#DejaVuSans-30"/>
       <use x="63.623047" xlink:href="#DejaVuSans-2e"/>
       <use x="95.410156" xlink:href="#DejaVuSans-33"/>
      </g>
     </g>
    </g>
    <g id="ytick_5">
     <g id="line2d_7">
      <g>
       <use style="stroke:#000000;stroke-width:0.8;" x="33.64" xlink:href="#m4e434019d3" y="38.66523"/>
      </g>
     </g>
     <g id="text_7">
      <!-- 0.4 -->
      <g transform="translate(10.736875 42.464448)scale(0.1 -0.1)">
       <defs>
        <path d="M 2419 4116 
L 825 1625 
L 2419 1625 
L 2419 4116 
z
M 2253 4666 
L 3047 4666 
L 3047 1625 
L 3713 1625 
L 3713 1100 
L 3047 1100 
L 3047 0 
L 2419 0 
L 2419 1100 
L 313 1100 
L 313 1709 
L 2253 4666 
z
" id="DejaVuSans-34" transform="scale(0.015625)"/>
       </defs>
       <use xlink:href="#DejaVuSans-30"/>
       <use x="63.623047" xlink:href="#DejaVuSans-2e"/>
       <use x="95.410156" xlink:href="#DejaVuSans-34"/>
      </g>
     </g>
    </g>
   </g>
   <g id="LineCollection_1">
    <path clip-path="url(#p4de1be663d)" d="M 330.251066 188.12 
L 330.251066 152.526143 
" style="fill:none;stroke:#000000;"/>
   </g>
   <g id="line2d_8">
    <path clip-path="url(#p4de1be663d)" d="M 33.64 187.917045 
L 51.742609 187.613506 
L 64.275184 187.183108 
L 74.022742 186.627134 
L 82.377793 185.91651 
L 89.340334 185.09571 
L 94.910368 184.245467 
L 100.480401 183.182372 
L 106.050435 181.862827 
L 110.22796 180.675501 
L 114.405485 179.293718 
L 118.58301 177.693394 
L 122.760535 175.849325 
L 126.93806 173.735606 
L 131.115585 171.326182 
L 135.29311 168.595529 
L 139.470635 165.51948 
L 143.648161 162.076182 
L 147.825686 158.247181 
L 152.003211 154.018616 
L 156.180736 149.382479 
L 160.358261 144.337911 
L 164.535786 138.892478 
L 168.713311 133.063356 
L 172.890836 126.878369 
L 178.46087 118.147744 
L 184.030903 108.981849 
L 193.778462 92.40728 
L 200.741003 80.683193 
L 206.311037 71.739604 
L 210.488562 65.45781 
L 214.666087 59.66424 
L 217.451104 56.126179 
L 220.23612 52.882852 
L 223.021137 49.962444 
L 225.806154 47.390841 
L 228.591171 45.191233 
L 231.376187 43.38374 
L 234.161204 41.985093 
L 236.946221 41.008357 
L 239.731237 40.46272 
L 242.516254 40.353333 
L 245.301271 40.681233 
L 248.086288 41.443319 
L 250.871304 42.632405 
L 253.656321 44.237343 
L 256.441338 46.243204 
L 259.226355 48.631524 
L 262.011371 51.380607 
L 264.796388 54.465864 
L 267.581405 57.860208 
L 270.366421 61.534464 
L 274.543946 67.502919 
L 278.721472 73.922927 
L 284.291505 82.993016 
L 292.646555 97.165541 
L 302.394114 113.609829 
L 307.964147 122.576246 
L 312.141672 128.97739 
L 316.319197 135.04754 
L 320.496722 140.751312 
L 324.674247 146.064535 
L 328.851773 150.973358 
L 333.029298 155.473163 
L 337.206823 159.567334 
L 341.384348 163.265975 
L 345.561873 166.584615 
L 349.739398 169.542968 
L 353.916923 172.163774 
L 358.094448 174.471752 
L 362.271973 176.492687 
L 366.449498 178.252655 
L 370.627023 179.777379 
L 374.804548 181.091732 
L 378.982074 182.219351 
L 384.552107 183.470389 
L 390.12214 184.476404 
L 395.692174 185.279584 
L 402.654716 186.053537 
L 411.009766 186.72223 
L 420.757324 187.244256 
L 431.897391 187.613506 
L 447.214983 187.885982 
L 450 187.917045 
L 450 187.917045 
" style="fill:none;stroke:#000000;stroke-linecap:square;"/>
   </g>
   <g id="patch_3">
    <path d="M 33.64 188.12 
L 33.64 10.8 
" style="fill:none;stroke:#000000;stroke-linecap:square;stroke-linejoin:miter;stroke-width:0.8;"/>
   </g>
   <g id="patch_4">
    <path d="M 450 188.12 
L 450 10.8 
" style="fill:none;stroke:#000000;stroke-linecap:square;stroke-linejoin:miter;stroke-width:0.8;"/>
   </g>
   <g id="patch_5">
    <path d="M 33.64 188.12 
L 450 188.12 
" style="fill:none;stroke:#000000;stroke-linecap:square;stroke-linejoin:miter;stroke-width:0.8;"/>
   </g>
   <g id="patch_6">
    <path d="M 33.64 10.8 
L 450 10.8 
" style="fill:none;stroke:#000000;stroke-linecap:square;stroke-linejoin:miter;stroke-width:0.8;"/>
   </g>
   <g id="patch_7">
    <path d="M 386.623304 165.122022 
Q 379.14562 171.710163 372.255159 177.780937 
" style="fill:none;stroke:#000000;stroke-linecap:round;stroke-width:0.7;"/>
    <path d="M 376.5786 176.637319 
L 372.255159 177.780937 
L 373.934329 173.636014 
" style="fill:none;stroke:#000000;stroke-linecap:round;stroke-width:0.7;"/>
   </g>
   <g id="text_8">
    <!-- $\alpha$ -->
    <g style="fill:#d62728;" transform="translate(390.125533 161.888358)scale(0.1 -0.1)">
     <defs>
      <path d="M 2619 1628 
L 2622 2350 
Q 2625 3088 2069 3091 
Q 1653 3094 1394 2747 
Q 1069 2319 959 1747 
Q 825 1059 994 731 
Q 1169 397 1547 397 
Q 1966 397 2319 1063 
L 2619 1628 
z
M 2166 3578 
Q 3141 3594 3128 2584 
Q 3128 2584 3616 3500 
L 4128 3500 
L 3119 1603 
L 3109 919 
Q 3109 766 3194 638 
Q 3291 488 3391 488 
L 3669 488 
L 3575 0 
L 3228 0 
Q 2934 0 2722 263 
Q 2622 394 2619 669 
Q 2416 334 2066 50 
Q 1900 -81 1453 -78 
Q 722 -72 456 397 
Q 184 884 353 1747 
Q 534 2675 1009 3097 
Q 1544 3569 2166 3578 
z
" id="DejaVuSans-Oblique-3b1" transform="scale(0.015625)"/>
     </defs>
     <use transform="translate(0 0.84375)" xlink:href="#DejaVuSans-Oblique-3b1"/>
    </g>
   </g>
   <g id="patch_8">
    <path d="M 351.1145 149.922512 
Q 351.1145 168.02109 351.1145 185.337044 
" style="fill:none;stroke:#000000;stroke-linecap:round;stroke-width:0.7;"/>
    <path d="M 353.1145 181.337044 
L 351.1145 185.337044 
L 349.1145 181.337044 
" style="fill:none;stroke:#000000;stroke-linecap:round;stroke-width:0.7;"/>
   </g>
   <g id="text_9">
    <!-- TS -->
    <g style="fill:#1f77b4;" transform="translate(344.886375 143.84374)scale(0.1 -0.1)">
     <defs>
      <path d="M -19 4666 
L 3928 4666 
L 3928 4134 
L 2272 4134 
L 2272 0 
L 1638 0 
L 1638 4134 
L -19 4134 
L -19 4666 
z
" id="DejaVuSans-54" transform="scale(0.015625)"/>
      <path d="M 3425 4513 
L 3425 3897 
Q 3066 4069 2747 4153 
Q 2428 4238 2131 4238 
Q 1616 4238 1336 4038 
Q 1056 3838 1056 3469 
Q 1056 3159 1242 3001 
Q 1428 2844 1947 2747 
L 2328 2669 
Q 3034 2534 3370 2195 
Q 3706 1856 3706 1288 
Q 3706 609 3251 259 
Q 2797 -91 1919 -91 
Q 1588 -91 1214 -16 
Q 841 59 441 206 
L 441 856 
Q 825 641 1194 531 
Q 1563 422 1919 422 
Q 2459 422 2753 634 
Q 3047 847 3047 1241 
Q 3047 1584 2836 1778 
Q 2625 1972 2144 2069 
L 1759 2144 
Q 1053 2284 737 2584 
Q 422 2884 422 3419 
Q 422 4038 858 4394 
Q 1294 4750 2059 4750 
Q 2388 4750 2728 4690 
Q 3069 4631 3425 4513 
z
" id="DejaVuSans-53" transform="scale(0.015625)"/>
     </defs>
     <use xlink:href="#DejaVuSans-54"/>
     <use x="61.083984" xlink:href="#DejaVuSans-53"/>
    </g>
   </g>
   <g id="text_10">
    <!-- Rejection Region ($\alpha$) = tail area -->
    <g style="fill:#d62728;" transform="translate(39.8854 23.2124)scale(0.09 -0.09)">
     <defs>
      <path d="M 2841 2188 
Q 3044 2119 3236 1894 
Q 3428 1669 3622 1275 
L 4263 0 
L 3584 0 
L 2988 1197 
Q 2756 1666 2539 1819 
Q 2322 1972 1947 1972 
L 1259 1972 
L 1259 0 
L 628 0 
L 628 4666 
L 2053 4666 
Q 2853 4666 3247 4331 
Q 3641 3997 3641 3322 
Q 3641 2881 3436 2590 
Q 3231 2300 2841 2188 
z
M 1259 4147 
L 1259 2491 
L 2053 2491 
Q 2509 2491 2742 2702 
Q 2975 2913 2975 3322 
Q 2975 3731 2742 3939 
Q 2509 4147 2053 4147 
L 1259 4147 
z
" id="DejaVuSans-52" transform="scale(0.015625)"/>
      <path d="M 3597 1894 
L 3597 1613 
L 953 1613 
Q 991 1019 1311 708 
Q 1631 397 2203 397 
Q 2534 397 2845 478 
Q 3156 559 3463 722 
L 3463 178 
Q 3153 47 2828 -22 
Q 2503 -91 2169 -91 
Q 1331 -91 842 396 
Q 353 884 353 1716 
Q 353 2575 817 3079 
Q 1281 3584 2069 3584 
Q 2775 3584 3186 3129 
Q 3597 2675 3597 1894 
z
M 3022 2063 
Q 3016 2534 2758 2815 
Q 2500 3097 2075 3097 
Q 1594 3097 1305 2825 
Q 1016 2553 972 2059 
L 3022 2063 
z
" id="DejaVuSans-65" transform="scale(0.015625)"/>
      <path d="M 603 3500 
L 1178 3500 
L 1178 -63 
Q 1178 -731 923 -1031 
Q 669 -1331 103 -1331 
L -116 -1331 
L -116 -844 
L 38 -844 
Q 366 -844 484 -692 
Q 603 -541 603 -63 
L 603 3500 
z
M 603 4863 
L 1178 4863 
L 1178 4134 
L 603 4134 
L 603 4863 
z
" id="DejaVuSans-6a" transform="scale(0.015625)"/>
      <path d="M 3122 3366 
L 3122 2828 
Q 2878 2963 2633 3030 
Q 2388 3097 2138 3097 
Q 1578 3097 1268 2742 
Q 959 2388 959 1747 
Q 959 1106 1268 751 
Q 1578 397 2138 397 
Q 2388 397 2633 464 
Q 2878 531 3122 666 
L 3122 134 
Q 2881 22 2623 -34 
Q 2366 -91 2075 -91 
Q 1284 -91 818 406 
Q 353 903 353 1747 
Q 353 2603 823 3093 
Q 1294 3584 2113 3584 
Q 2378 3584 2631 3529 
Q 2884 3475 3122 3366 
z
" id="DejaVuSans-63" transform="scale(0.015625)"/>
      <path d="M 1172 4494 
L 1172 3500 
L 2356 3500 
L 2356 3053 
L 1172 3053 
L 1172 1153 
Q 1172 725 1289 603 
Q 1406 481 1766 481 
L 2356 481 
L 2356 0 
L 1766 0 
Q 1100 0 847 248 
Q 594 497 594 1153 
L 594 3053 
L 172 3053 
L 172 3500 
L 594 3500 
L 594 4494 
L 1172 4494 
z
" id="DejaVuSans-74" transform="scale(0.015625)"/>
      <path d="M 603 3500 
L 1178 3500 
L 1178 0 
L 603 0 
L 603 3500 
z
M 603 4863 
L 1178 4863 
L 1178 4134 
L 603 4134 
L 603 4863 
z
" id="DejaVuSans-69" transform="scale(0.015625)"/>
      <path d="M 1959 3097 
Q 1497 3097 1228 2736 
Q 959 2375 959 1747 
Q 959 1119 1226 758 
Q 1494 397 1959 397 
Q 2419 397 2687 759 
Q 2956 1122 2956 1747 
Q 2956 2369 2687 2733 
Q 2419 3097 1959 3097 
z
M 1959 3584 
Q 2709 3584 3137 3096 
Q 3566 2609 3566 1747 
Q 3566 888 3137 398 
Q 2709 -91 1959 -91 
Q 1206 -91 779 398 
Q 353 888 353 1747 
Q 353 2609 779 3096 
Q 1206 3584 1959 3584 
z
" id="DejaVuSans-6f" transform="scale(0.015625)"/>
      <path d="M 3513 2113 
L 3513 0 
L 2938 0 
L 2938 2094 
Q 2938 2591 2744 2837 
Q 2550 3084 2163 3084 
Q 1697 3084 1428 2787 
Q 1159 2491 1159 1978 
L 1159 0 
L 581 0 
L 581 3500 
L 1159 3500 
L 1159 2956 
Q 1366 3272 1645 3428 
Q 1925 3584 2291 3584 
Q 2894 3584 3203 3211 
Q 3513 2838 3513 2113 
z
" id="DejaVuSans-6e" transform="scale(0.015625)"/>
      <path id="DejaVuSans-20" transform="scale(0.015625)"/>
      <path d="M 2906 1791 
Q 2906 2416 2648 2759 
Q 2391 3103 1925 3103 
Q 1463 3103 1205 2759 
Q 947 2416 947 1791 
Q 947 1169 1205 825 
Q 1463 481 1925 481 
Q 2391 481 2648 825 
Q 2906 1169 2906 1791 
z
M 3481 434 
Q 3481 -459 3084 -895 
Q 2688 -1331 1869 -1331 
Q 1566 -1331 1297 -1286 
Q 1028 -1241 775 -1147 
L 775 -588 
Q 1028 -725 1275 -790 
Q 1522 -856 1778 -856 
Q 2344 -856 2625 -561 
Q 2906 -266 2906 331 
L 2906 616 
Q 2728 306 2450 153 
Q 2172 0 1784 0 
Q 1141 0 747 490 
Q 353 981 353 1791 
Q 353 2603 747 3093 
Q 1141 3584 1784 3584 
Q 2172 3584 2450 3431 
Q 2728 3278 2906 2969 
L 2906 3500 
L 3481 3500 
L 3481 434 
z
" id="DejaVuSans-67" transform="scale(0.015625)"/>
      <path d="M 1984 4856 
Q 1566 4138 1362 3434 
Q 1159 2731 1159 2009 
Q 1159 1288 1364 580 
Q 1569 -128 1984 -844 
L 1484 -844 
Q 1016 -109 783 600 
Q 550 1309 550 2009 
Q 550 2706 781 3412 
Q 1013 4119 1484 4856 
L 1984 4856 
z
" id="DejaVuSans-28" transform="scale(0.015625)"/>
      <path d="M 513 4856 
L 1013 4856 
Q 1481 4119 1714 3412 
Q 1947 2706 1947 2009 
Q 1947 1309 1714 600 
Q 1481 -109 1013 -844 
L 513 -844 
Q 928 -128 1133 580 
Q 1338 1288 1338 2009 
Q 1338 2731 1133 3434 
Q 928 4138 513 4856 
z
" id="DejaVuSans-29" transform="scale(0.015625)"/>
      <path d="M 678 2906 
L 4684 2906 
L 4684 2381 
L 678 2381 
L 678 2906 
z
M 678 1631 
L 4684 1631 
L 4684 1100 
L 678 1100 
L 678 1631 
z
" id="DejaVuSans-3d" transform="scale(0.015625)"/>
      <path d="M 2194 1759 
Q 1497 1759 1228 1600 
Q 959 1441 959 1056 
Q 959 750 1161 570 
Q 1363 391 1709 391 
Q 2188 391 2477 730 
Q 2766 1069 2766 1631 
L 2766 1759 
L 2194 1759 
z
M 3341 1997 
L 3341 0 
L 2766 0 
L 2766 531 
Q 2569 213 2275 61 
Q 1981 -91 1556 -91 
Q 1019 -91 701 211 
Q 384 513 384 1019 
Q 384 1609 779 1909 
Q 1175 2209 1959 2209 
L 2766 2209 
L 2766 2266 
Q 2766 2663 2505 2880 
Q 2244 3097 1772 3097 
Q 1472 3097 1187 3025 
Q 903 2953 641 2809 
L 641 3341 
Q 956 3463 1253 3523 
Q 1550 3584 1831 3584 
Q 2591 3584 2966 3190 
Q 3341 2797 3341 1997 
z
" id="DejaVuSans-61" transform="scale(0.015625)"/>
      <path d="M 603 4863 
L 1178 4863 
L 1178 0 
L 603 0 
L 603 4863 
z
" id="DejaVuSans-6c" transform="scale(0.015625)"/>
      <path d="M 2631 2963 
Q 2534 3019 2420 3045 
Q 2306 3072 2169 3072 
Q 1681 3072 1420 2755 
Q 1159 2438 1159 1844 
L 1159 0 
L 581 0 
L 581 3500 
L 1159 3500 
L 1159 2956 
Q 1341 3275 1631 3429 
Q 1922 3584 2338 3584 
Q 2397 3584 2469 3576 
Q 2541 3569 2628 3553 
L 2631 2963 
z
" id="DejaVuSans-72" transform="scale(0.015625)"/>
     </defs>
     <use transform="translate(0 0.015625)" xlink:href="#DejaVuSans-52"/>
     <use transform="translate(69.482422 0.015625)" xlink:href="#DejaVuSans-65"/>
     <use transform="translate(131.005859 0.015625)" xlink:href="#DejaVuSans-6a"/>
     <use transform="translate(158.789062 0.015625)" xlink:href="#DejaVuSans-65"/>
     <use transform="translate(220.3125 0.015625)" xlink:href="#DejaVuSans-63"/>
     <use transform="translate(275.292969 0.015625)" xlink:href="#DejaVuSans-74"/>
     <use transform="translate(314.501953 0.015625)" xlink:href="#DejaVuSans-69"/>
     <use transform="translate(342.285156 0.015625)" xlink:href="#DejaVuSans-6f"/>
     <use transform="translate(403.466797 0.015625)" xlink:href="#DejaVuSans-6e"/>
     <use transform="translate(466.845703 0.015625)" xlink:href="#DejaVuSans-20"/>
     <use transform="translate(498.632812 0.015625)" xlink:href="#DejaVuSans-52"/>
     <use transform="translate(568.115234 0.015625)" xlink:href="#DejaVuSans-65"/>
     <use transform="translate(629.638672 0.015625)" xlink:href="#DejaVuSans-67"/>
     <use transform="translate(693.115234 0.015625)" xlink:href="#DejaVuSans-69"/>
     <use transform="translate(720.898438 0.015625)" xlink:href="#DejaVuSans-6f"/>
     <use transform="translate(782.080078 0.015625)" xlink:href="#DejaVuSans-6e"/>
     <use transform="translate(845.458984 0.015625)" xlink:href="#DejaVuSans-20"/>
     <use transform="translate(877.246094 0.015625)" xlink:href="#DejaVuSans-28"/>
     <use transform="translate(916.259766 0.015625)" xlink:href="#DejaVuSans-Oblique-3b1"/>
     <use transform="translate(982.177734 0.015625)" xlink:href="#DejaVuSans-29"/>
     <use transform="translate(1021.191406 0.015625)" xlink:href="#DejaVuSans-20"/>
     <use transform="translate(1052.978516 0.015625)" xlink:href="#DejaVuSans-3d"/>
     <use transform="translate(1136.767578 0.015625)" xlink:href="#DejaVuSans-20"/>
     <use transform="translate(1168.554688 0.015625)" xlink:href="#DejaVuSans-74"/>
     <use transform="translate(1207.763672 0.015625)" xlink:href="#DejaVuSans-61"/>
     <use transform="translate(1269.042969 0.015625)" xlink:href="#DejaVuSans-69"/>
     <use transform="translate(1296.826172 0.015625)" xlink:href="#DejaVuSans-6c"/>
     <use transform="translate(1324.609375 0.015625)" xlink:href="#DejaVuSans-20"/>
     <use transform="translate(1356.396484 0.015625)" xlink:href="#DejaVuSans-61"/>
     <use transform="translate(1417.675781 0.015625)" xlink:href="#DejaVuSans-72"/>
     <use transform="translate(1458.789062 0.015625)" xlink:href="#DejaVuSans-65"/>
     <use transform="translate(1520.3125 0.015625)" xlink:href="#DejaVuSans-61"/>
    </g>
   </g>
   <g id="text_11">
    <!-- Critical Value (CV) -->
    <g transform="translate(39.8854 35.6248)scale(0.09 -0.09)">
     <defs>
      <path d="M 544 1381 
L 544 3500 
L 1119 3500 
L 1119 1403 
Q 1119 906 1312 657 
Q 1506 409 1894 409 
Q 2359 409 2629 706 
Q 2900 1003 2900 1516 
L 2900 3500 
L 3475 3500 
L 3475 0 
L 2900 0 
L 2900 538 
Q 2691 219 2414 64 
Q 2138 -91 1772 -91 
Q 1169 -91 856 284 
Q 544 659 544 1381 
z
M 1991 3584 
L 1991 3584 
z
" id="DejaVuSans-75" transform="scale(0.015625)"/>
     </defs>
     <use xlink:href="#DejaVuSans-43"/>
     <use x="69.824219" xlink:href="#DejaVuSans-72"/>
     <use x="110.9375" xlink:href="#DejaVuSans-69"/>
     <use x="138.720703" xlink:href="#DejaVuSans-74"/>
     <use x="177.929688" xlink:href="#DejaVuSans-69"/>
     <use x="205.712891" xlink:href="#DejaVuSans-63"/>
     <use x="260.693359" xlink:href="#DejaVuSans-61"/>
     <use x="321.972656" xlink:href="#DejaVuSans-6c"/>
     <use x="349.755859" xlink:href="#DejaVuSans-20"/>
     <use x="381.542969" xlink:href="#DejaVuSans-56"/>
     <use x="442.201172" xlink:href="#DejaVuSans-61"/>
     <use x="503.480469" xlink:href="#DejaVuSans-6c"/>
     <use x="531.263672" xlink:href="#DejaVuSans-75"/>
     <use x="594.642578" xlink:href="#DejaVuSans-65"/>
     <use x="656.166016" xlink:href="#DejaVuSans-20"/>
     <use x="687.953125" xlink:href="#DejaVuSans-28"/>
     <use x="726.966797" xlink:href="#DejaVuSans-43"/>
     <use x="796.791016" xlink:href="#DejaVuSans-56"/>
     <use x="865.199219" xlink:href="#DejaVuSans-29"/>
    </g>
   </g>
   <g id="text_12">
    <!-- Test Statistic (TS) -->
    <g style="fill:#1f77b4;" transform="translate(39.8854 48.9238)scale(0.09 -0.09)">
     <defs>
      <path d="M 2834 3397 
L 2834 2853 
Q 2591 2978 2328 3040 
Q 2066 3103 1784 3103 
Q 1356 3103 1142 2972 
Q 928 2841 928 2578 
Q 928 2378 1081 2264 
Q 1234 2150 1697 2047 
L 1894 2003 
Q 2506 1872 2764 1633 
Q 3022 1394 3022 966 
Q 3022 478 2636 193 
Q 2250 -91 1575 -91 
Q 1294 -91 989 -36 
Q 684 19 347 128 
L 347 722 
Q 666 556 975 473 
Q 1284 391 1588 391 
Q 1994 391 2212 530 
Q 2431 669 2431 922 
Q 2431 1156 2273 1281 
Q 2116 1406 1581 1522 
L 1381 1569 
Q 847 1681 609 1914 
Q 372 2147 372 2553 
Q 372 3047 722 3315 
Q 1072 3584 1716 3584 
Q 2034 3584 2315 3537 
Q 2597 3491 2834 3397 
z
" id="DejaVuSans-73" transform="scale(0.015625)"/>
     </defs>
     <use xlink:href="#DejaVuSans-54"/>
     <use x="44.083984" xlink:href="#DejaVuSans-65"/>
     <use x="105.607422" xlink:href="#DejaVuSans-73"/>
     <use x="157.707031" xlink:href="#DejaVuSans-74"/>
     <use x="196.916016" xlink:href="#DejaVuSans-20"/>
     <use x="228.703125" xlink:href="#DejaVuSans-53"/>
     <use x="292.179688" xlink:href="#DejaVuSans-74"/>
     <use x="331.388672" xlink:href="#DejaVuSans-61"/>
     <use x="392.667969" xlink:href="#DejaVuSans-74"/>
     <use x="431.876953" xlink:href="#DejaVuSans-69"/>
     <use x="459.660156" xlink:href="#DejaVuSans-73"/>
     <use x="511.759766" xlink:href="#DejaVuSans-74"/>
     <use x="550.96875" xlink:href="#DejaVuSans-69"/>
     <use x="578.751953" xlink:href="#DejaVuSans-63"/>
     <use x="633.732422" xlink:href="#DejaVuSans-20"/>
     <use x="665.519531" xlink:href="#DejaVuSans-28"/>
     <use x="704.533203" xlink:href="#DejaVuSans-54"/>
     <use x="765.617188" xlink:href="#DejaVuSans-53"/>
     <use x="829.09375" xlink:href="#DejaVuSans-29"/>
    </g>
   </g>
  </g>
 </g>
 <defs>
  <clipPath id="p4de1be663d">
   <rect height="177.32" width="416.36" x="33.64" y="10.8"/>
  </clipPath>
 </defs>
</svg>
