<?xml version="1.0" standalone="no"?>
<!DOCTYPE svg PUBLIC "-//W3C//DTD SVG 1.1//EN" "http://www.w3.org/Graphics/SVG/1.1/DTD/svg11.dtd">
<svg xmlns="../../../www.w3.org/2000/svg.html">
<defs >
<font id="FreckleFace" horiz-adv-x="869" ><font-face
    font-family="Freckle Face"
    units-per-em="2048"
    panose-1="2 0 5 6 0 0 0 2 0 4"
    ascent="1946"
    descent="-571"
    alphabetic="0" />
<glyph unicode=" " glyph-name="space" horiz-adv-x="471" />
<glyph unicode="!" glyph-name="exclam" horiz-adv-x="565" d="M526 1274V1270Q526 1245 518 1200T510 1096Q510 1062 509 1028T502 965Q500 950 494 939T481 918T468 898T457 877Q454 868 452 855T448 828T445 800T444 774Q444 762 445 749T446 721Q446 709 443
700T436 682T429 665T426 645Q426 636 429 625T432 604Q432 586 424 565T414 522Q409 484 407 453T392 401T347 368T254 356Q222 356 202 361T170 376T154 396T150 420Q150 438 155 457T160 496Q160 510 157 525T154 559Q154 584 156 611T158 664Q158 688 155 712T141
756Q133 771 123 780T102 801T85 832T78 887V946V983Q76 1003 70 1033T56 1100T43 1174T37 1247Q37 1275 42 1298T59 1337Q67 1347 81 1351T115 1370Q134 1385 144 1397T167 1417T196 1431T248 1436Q264 1436 275 1433T297 1424T318 1412T344 1401Q360 1395 377
1391T411 1385T439 1380T457 1376Q467 1371 478 1361T500 1336T517 1306T526 1274ZM475 -10Q473 -15 454 -31T413 -64T371 -96T350 -111Q341 -114 332 -114T313 -115Q293 -115 272 -111T231 -99T193 -81T160 -59Q154 -56 142 -45T119 -21T99 6T90 27Q90 40 90 63T92
111T96 155T102 180Q108 189 121 194T153 203T192 210T236 219Q250 222 261 226T282 234T303 241T330 244Q341 244 366 231T418 191T465 126T485 35Q485 10 475 -10Z" />
<glyph unicode="&quot;" glyph-name="quotedbl" horiz-adv-x="582" d="M262 1395Q262 1382 257 1366T252 1329Q252 1307 254 1286T256 1247Q256 1231 253 1221T244 1203T234 1191T227 1180Q225 1170 225 1160T225 1141Q225 1124 226 1108T227 1075Q227 1050 216
1034T168 1018Q111 1018 89 1048T66 1130Q66 1156 67 1183T68 1235Q68 1263 63 1279T51 1308T39 1329T33 1352V1366Q33 1377 29 1382T25 1395Q25 1420 35 1431T62 1446T98 1450T137 1456Q148 1458 159 1462T182 1466Q197 1466 211 1465T237 1457T255 1436T262 1395ZM317
1395Q317 1422 323 1436T341 1457T367 1465T397 1466Q410 1466 420 1462T442 1456Q461 1451 481 1451T518 1446T544 1431T555 1395Q555 1387 551 1382T547 1366Q547 1332 542 1304T531 1249T519 1193T514 1130Q514 1078 492 1048T412 1018Q393 1018 382 1022T364
1034T355 1052T352 1075Q352 1114 348 1145T340 1205T332 1263T328 1329Q328 1349 323 1365T317 1395Z" />
<glyph unicode="#" glyph-name="numbersign" horiz-adv-x="1034" d="M965 879Q958 851 950 819T929 759T895 713T842 694Q817 694 799 700T766 707Q752 707 745 695T737 649Q737 617 747 606T774 594Q786 594 799 597T827 604T855 611T883 614Q892 614 902 612T920
605T934 590T940 565Q940 520 926 481T890 411T843 364T797 346H776Q762 346 753 339T743 313Q743 307 744 300T745 285Q745 273 742 264T735 246T726 230T717 209Q710 188 704 164T689 120T668 86T635 74Q629 74 617 80T594 100T574 133T565 180Q565 190 569 206T578
241T588 277T592 311Q592 325 588 333T569 342Q558 342 544 339T510 336Q499 336 487 340T467 344Q458 344 452 338T441 323T436 304T434 285Q434 259 440 229T446 172Q446 135 427 116T381 96Q358 96 338 108T304 137T281 175T272 213Q272 224 273 238T274 266Q274
268 280 285T287 319Q287 338 278 344T248 350Q244 350 241 350T235 349Q231 348 229 348H231H211Q196 348 188 349T176 355T167 369T156 393Q145 403 135 406T116 413T103 426T98 459Q98 483 102 506T115 548T135 578T158 590Q172 590 192 588T231 586Q248 586
257 589T272 601T278 624T279 659Q279 683 278 695T273 712T265 717T254 717Q237 717 211 710T156 702Q142 702 123 706T86 721T55 748T41 791Q41 803 47 818T59 848Q60 850 60 858T62 874T69 890T86 897Q92 897 99 894T115 891Q129 891 139 900T162 919T196 939T252
948Q264 948 269 951T276 959T277 971T276 987Q276 1035 269 1084T262 1178Q262 1201 266 1221T281 1257T312 1281T362 1290Q376 1290 397 1287T437 1278T471 1263T485 1239Q485 1224 477 1205T469 1163Q469 1137 472 1112T475 1061Q475 1039 472 1018T459 975Q470
972 479 972T500 971Q520 971 541 973T588 975H610Q609 1026 609 1071T609 1156T607 1232T604 1303Q602 1317 596 1335T590 1372Q590 1388 603 1404T636 1433T681 1454T727 1462Q758 1462 776 1446T804 1400T816 1330T819 1243V1227Q818 1223 813 1202T803 1152T793
1093T788 1040Q788 1013 799 1006T831 999Q843 999 856 1001T881 1005T905 1010T924 1012Q953 1012 964 993T975 950Q975 935 973 917T965 879ZM586 594V709H465Q467 704 467 699T467 688Q467 670 462 653T457 621Q457 608 463 601T487 594Q501 594 518 597T553
600Q569 600 586 594Z" />
<glyph unicode="$" glyph-name="dollar" horiz-adv-x="770" d="M504 -10Q504 -23 505 -40T506 -78Q506 -104 501 -125T475 -147Q469 -147 461 -145T442 -143Q430 -145 416 -146T387 -147Q372 -147 359 -144T335 -134T319 -113T313 -78Q313 -58 315 -33T317 16Q317
36 313 48T309 80Q309 98 310 122T313 160Q314 168 315 181T317 209T321 239T326 268Q319 270 315 270T305 270Q293 270 282 268T258 266Q253 266 242 270T216 280T188 297T166 319Q157 330 156 343T147 369Q138 384 125 397T102 430Q93 447 87 472T72 520Q59 552
49 578T39 621Q39 641 44 663T59 705T79 737T104 750Q111 750 118 748T133 745Q142 745 149 750T164 756Q171 756 185 753T215 746T244 738T264 729Q274 724 285 713T305 687T320 657T326 629V602Q326 590 329 578T336 551Q339 534 340 519T342 491T348 466T360
444Q371 429 393 420T436 410Q449 410 457 414T471 425T482 437T496 449Q508 456 519 460T538 470T552 486T557 518Q557 535 551 554T541 592Q539 609 539 621T538 643T533 663T520 688Q518 691 510 701T490 722T466 741T442 750Q437 750 433 749T424 748Q405 748
385 756T343 777T301 803T258 827Q240 836 218 844T176 861T143 884T129 918Q129 923 132 943T140 987T153 1033T170 1067Q177 1077 190 1086T215 1103T238 1115T252 1120Q257 1120 261 1119T272 1118Q284 1118 291 1121T305 1127T318 1135T332 1143Q334 1143 335
1144T338 1145Q335 1154 335 1166T334 1192Q334 1218 335 1245T336 1296Q336 1324 332 1340T322 1369T312 1390T307 1413V1427Q307 1438 304 1443T301 1456Q301 1481 309 1492T331 1508T360 1512T391 1518Q399 1520 408 1524T426 1528Q438 1528 449 1527T470 1519T484
1498T489 1456Q489 1444 485 1428T481 1391Q481 1369 483 1348T485 1309Q485 1293 482 1283T476 1265T468 1253T463 1241Q461 1232 461 1222T461 1202V1165Q492 1170 520 1174T563 1178Q569 1178 576 1176T588 1163Q594 1157 604 1155T621 1147Q630 1139 640 1126T659
1104Q678 1085 686 1075T694 1047Q694 1027 690 1009T677 976T650 953T608 944Q594 944 577 947T545 956Q531 963 517 976T485 995Q476 998 462 1001T432 1006T403 1009T379 1010Q353 1010 332 1003T311 969Q311 955 321 948T352 926Q371 915 387 900T424 877Q435
873 447 873T469 870Q540 853 593 810T678 715Q685 702 689 692T696 672T699 651T700 623Q700 604 704 587T709 555Q707 538 703 524T698 494Q698 486 699 476T700 451Q700 428 690 410T662 377T625 346T584 315Q571 304 562 294T542 276T516 261T475 252Q477 246
477 238T477 221Q477 207 476 192T475 160Q475 146 475 131T481 102Q483 90 487 82T496 66T503 52T506 35Q506 22 505 12T504 -10Z" />
<glyph unicode="%" glyph-name="percent" horiz-adv-x="1239" d="M610 975Q606 952 582 918T524 850T455 789T395 754Q369 746 336 742T270 737Q223 737 183 752T112 798T65 874T47 981Q47 1033 59 1087Q65 1112 74 1130T93 1164T108 1192T115 1223Q115 1231 114
1238T113 1253Q113 1266 115 1275T122 1292T131 1310T141 1335Q151 1358 158 1373T180 1398T226 1411T313 1415Q341 1415 370 1413T427 1404T476 1387T510 1360Q514 1355 514 1349T515 1335T516 1317T522 1296Q527 1284 537 1275T553 1253Q564 1224 564 1194T571
1133Q574 1120 581 1103T595 1068T607 1030T612 993Q612 988 611 984T610 975ZM395 1081Q397 1091 397 1106T397 1139Q397 1170 393 1195T379 1239T350 1268T301 1278Q270 1278 254 1256T231 1203T222 1136T221 1075Q221 1035 235 1014T287 993Q322 993 342 1001T372
1021T387 1050T395 1081ZM958 1339Q961 1335 961 1327Q961 1311 953 1289T933 1240T905 1187T876 1135T851 1092T834 1061Q816 1010 803 980T779 927T757 884T733 829Q723 790 703 744T660 651T615 558T580 475Q561 424 545 380T513 294T478 215T434 137Q419 116
406 94T383 53T366 18T352 -2Q338 -16 327 -18T313 -23Q302 -23 285 -19T253 -4T226 22T215 61Q215 73 229 105T263 176T304 250T340 307Q357 332 371 365T406 430Q432 472 458 519T511 616T560 713T604 807Q614 828 621 847T633 885T643 922T655 958Q665 971 679
992T707 1040Q717 1060 725 1086T756 1139Q769 1170 780 1188T800 1218T818 1240T836 1264Q848 1285 855 1302T871 1331T890 1349T920 1356Q935 1356 945 1351T958 1339ZM1198 229Q1194 207 1170 173T1112 104T1043 43T983 8Q957 0 924 -4T858 -8Q811 -8 771 7T700
53T653 129T635 236Q635 286 647 342Q653 367 662 385T681 418T696 446T702 477Q702 485 701 492T700 508Q700 521 703 530T710 547T719 565T729 590Q739 613 746 628T768 653T814 666T901 670Q929 670 958 668T1015 659T1064 641T1098 614Q1102 609 1102 603T1103
589T1104 572T1110 551Q1115 539 1125 530T1141 508Q1152 479 1152 449T1159 387Q1162 374 1169 357T1182 322T1194 285T1200 248Q1200 243 1199 239T1198 229ZM983 336Q985 345 985 360T985 393Q985 424 981 449T967 493T938 522T889 532Q858 532 842 510T819
457T810 391T809 330Q809 289 823 269T874 248Q910 248 930 256T960 276T975 305T983 336Z" />
<glyph unicode="&amp;" glyph-name="ampersand" horiz-adv-x="1221" d="M1212 434Q1211 423 1206 415T1191 400T1172 384T1151 365Q1143 356 1138 348T1129 331T1119 315T1106 301Q1098 295 1087 292T1066 285T1049 277T1042 266Q1042 260 1051 245T1073 214T1096
183T1112 162Q1121 147 1131 131T1149 98T1163 68T1169 41Q1169 29 1164 15T1148 -11T1123 -32T1090 -41Q1062 -41 1034 -22T985 23Q977 32 974 45T961 66Q951 77 939 81T922 92Q915 100 911 111T902 132T893 149T881 156Q872 156 863 149T843 133T825 114T809
98Q792 85 768 73T716 50T658 29T600 10Q583 5 567 -3T535 -18T502 -31T469 -35Q460 -35 451 -34T432 -33Q408 -33 389 -38T352 -49T315 -61T274 -66Q260 -66 236 -64T186 -57T138 -48T106 -35Q87 -20 77 3T60 53T49 112T37 174Q28 212 18 255T8 338Q8 370 17 399T49
453Q57 460 62 464T69 471T73 477T74 487Q74 491 73 494T72 500Q72 504 94 517T150 549T221 586T291 623Q306 632 320 644T352 668Q361 673 375 677T402 685T426 694T436 709Q436 733 416 760T371 816T322 876T291 940Q283 971 275 1002T266 1065Q266 1086 269
1096T280 1115T295 1131T315 1155Q326 1171 330 1190T340 1217Q347 1231 364 1243T401 1268T443 1292T479 1319Q490 1328 495 1338T506 1350Q524 1360 552 1362T600 1364H604H621Q622 1364 641 1354T689 1329T754 1299T827 1274Q842 1270 864 1263T906 1244T941
1219T956 1186Q956 1180 954 1173T952 1157Q952 1139 958 1122T971 1089T985 1057T991 1026Q991 1013 985 1002T968 982T946 962T922 940Q903 920 889 895T860 856Q840 837 816 828T776 807Q767 799 752 783T723 750T699 719T688 702Q688 694 697 682T718 657T743
630T764 604Q769 598 770 589T776 571Q785 566 794 555T811 531T829 510T848 500Q864 500 883 506T921 522T959 543T991 565Q1006 577 1015 588T1034 609T1059 623T1100 629Q1112 629 1126 620T1151 601T1170 581T1178 573Q1178 567 1176 560T1174 543Q1174 541
1180 530T1193 502T1206 469T1212 438V434ZM797 1065Q794 1080 766 1096T704 1127T635 1151T586 1161Q573 1161 559 1151T533 1126T514 1094T506 1063Q506 1058 509 1049T512 1028Q510 1017 504 1006T498 983Q501 965 515 939T546 889T580 848T606 831Q611 831
618 843T637 864Q662 883 683 900T721 940Q732 954 735 970T745 995Q750 1002 758 1008T775 1022T790 1038T797 1059V1065ZM670 420Q654 446 640 463T606 502Q603 505 594 517T574 541T551 564T528 575Q522 575 518 571Q481 547 446 527T384 488T341 454T324 422Q324
391 342 370T379 348Q391 348 402 353T425 365T447 377T471 383Q479 383 488 380T506 377Q552 379 594 394T670 420Z" />
<glyph unicode="&apos;" glyph-name="quotesingle" horiz-adv-x="301" d="M262 1395Q262 1382 257 1366T252 1329Q252 1307 254 1286T256 1247Q256 1231 253 1221T244 1203T234 1191T227 1180Q225 1170 225 1160T225 1141Q225 1124 226 1108T227 1075Q227 1050
216 1034T168 1018Q111 1018 89 1048T66 1130Q66 1156 67 1183T68 1235Q68 1263 63 1279T51 1308T39 1329T33 1352V1366Q33 1377 29 1382T25 1395Q25 1420 35 1431T62 1446T98 1450T137 1456Q148 1458 159 1462T182 1466Q197 1466 211 1465T237 1457T255 1436T262
1395Z" />
<glyph unicode="(" glyph-name="parenleft" horiz-adv-x="668" d="M707 -104Q706 -121 696 -138T672 -173T644 -206T623 -238Q611 -262 610 -281T607 -313T596 -334T561 -342Q528 -342 507 -331T472 -303T446 -271T422 -244Q415 -239 407 -237T390 -234T373 -231T358
-225Q344 -217 332 -202T307 -174Q302 -169 292 -167T276 -156Q270 -149 270 -137T262 -117Q253 -109 239 -105T213 -92Q201 -83 189 -65T162 -29Q146 -12 129 -1T104 20Q98 34 97 62T86 117Q75 146 64 164T45 199T31 234T25 283Q25 315 29 350T39 424T48 503T53
590Q53 621 52 651T51 713Q51 758 61 800T80 895Q86 935 90 973T100 1046T115 1109T143 1159Q148 1167 152 1180T162 1198Q166 1202 174 1207T192 1218T211 1230T225 1243Q238 1258 248 1276T269 1315T289 1355T313 1395Q324 1410 340 1424T371 1456Q386 1474 401
1497T435 1540T476 1574T528 1587Q547 1587 560 1574T581 1542T592 1505T596 1475Q596 1467 586 1443T562 1392T535 1342T516 1311Q507 1301 492 1296T465 1280Q443 1260 423 1229T377 1174Q367 1164 351 1148T317 1113T284 1075T262 1040Q255 1025 250 1003T242
957T236 910T231 868Q226 828 225 777T223 672Q223 637 223 593T226 507T232 431T244 381Q251 364 274 348T322 316T370 287T401 262Q407 255 410 246T416 226T421 207T428 193Q438 176 452 164T483 142T515 124T547 104Q576 83 605 54T656 -4T693 -59T707 -104Z"
/>
<glyph unicode=")" glyph-name="parenright" horiz-adv-x="596" d="M567 420Q565 411 560 405T549 392T536 379T524 362Q518 351 516 332T504 293Q498 279 487 267T473 244Q468 230 467 213T461 180Q452 157 443 130T424 76T403 23T379 -23Q372 -34 366 -39T354
-48T345 -60T342 -82Q342 -102 333 -120T309 -157T280 -193T252 -231Q240 -251 234 -262T222 -278T207 -284T182 -285Q132 -285 117 -268T102 -223Q102 -202 108 -179T123 -133T141 -90T156 -55Q162 -37 167 -19T182 14Q190 31 201 43T219 72Q225 84 226 99T233
129Q245 160 265 202T304 291T338 384T352 467V496Q352 510 355 525T358 553Q358 568 355 580T347 605T340 635T336 674Q336 700 338 727T340 782Q340 842 328 877T294 937T243 982T182 1034Q171 1044 166 1056T150 1077Q140 1087 127 1090T100 1104Q91 1110 85
1124T68 1147Q46 1168 29 1175T1 1193T-17 1223T-23 1292Q-23 1307 -23 1324T-18 1360T-6 1402T18 1450Q25 1461 31 1468T43 1484T55 1501T68 1526Q72 1537 78 1548T93 1569T114 1585T143 1591Q162 1591 180 1580T214 1553T245 1520T276 1489Q302 1467 323 1451T363
1417T398 1377T432 1321T466 1239T504 1122Q509 1102 516 1087T529 1055T540 1021T545 979Q545 956 544 932T543 887Q543 873 549 862T555 838Q555 816 549 796T543 756Q543 728 552 697T561 635Q561 609 558 579T555 520Q555 497 561 471T567 428V420Z" />
<glyph unicode="*" glyph-name="asterisk" horiz-adv-x="1071" d="M1024 1159Q1023 1158 1004 1149T961 1128T913 1105T879 1090Q853 1081 830 1077T785 1070T740 1062T694 1047Q708 1032 724 1009T759 959T798 909T840 868Q854 858 872 852T906 836T934 811T948
768Q948 759 945 748T935 726T922 705T909 686Q901 674 882 654T840 614T797 578T764 559Q743 553 711 553Q676 553 651 556T606 569T571 597T543 647Q534 668 528 687T515 727T502 767T485 811Q483 815 477 830T464 860T451 888T442 901Q430 901 416 887T390 856T368
823T358 805Q349 794 329 774T287 735T246 701T217 686Q204 686 196 692T183 708T173 727T164 743Q156 751 148 754T134 762T123 773T119 795Q119 810 128 824T152 851T181 877T207 901Q219 912 227 926T246 950Q248 952 260 958T286 974T311 993T322 1016Q322
1026 300 1038T248 1061T188 1082T143 1096Q123 1102 106 1109T76 1128T56 1156T49 1196Q49 1208 53 1217T64 1238T78 1261T94 1292Q99 1305 98 1318T100 1343Q107 1366 118 1387T142 1423T168 1448T193 1458Q217 1458 250 1438T319 1388T390 1324T455 1262Q464
1251 469 1251Q473 1251 473 1264Q473 1275 469 1293T461 1331T453 1366T449 1389Q449 1450 485 1487T606 1524Q631 1524 646 1514T662 1481Q662 1471 660 1460T654 1439T647 1421T643 1407Q641 1370 642 1325T637 1229Q652 1229 663 1235T683 1251T700 1269T719
1286Q730 1294 744 1297T770 1311Q782 1321 788 1334T804 1360T833 1380T889 1389Q915 1389 926 1384T941 1369T946 1345T954 1311Q958 1299 970 1285T995 1254T1018 1221T1028 1184Q1028 1178 1028 1172T1024 1159Z" />
<glyph unicode="+" glyph-name="plus" horiz-adv-x="928" d="M883 872Q885 866 886 859T887 842Q887 815 882 778T867 704T847 638T825 600Q802 580 775 570T724 555T683 550T664 549Q642 549 628 549T606 547T594 537T590 516Q590 498 595 474T606 428T618 387T623
360Q622 355 606 332T564 281T503 233T432 211Q401 211 380 220T345 245T325 281T319 324Q319 350 322 381T326 446Q326 475 325 492T320 517T308 528T287 530H256Q245 532 228 535T199 539Q185 537 169 533T135 528Q102 528 85 545T61 589T54 649T53 715Q53 738
49 757T45 791Q45 804 49 809T61 816T76 820T92 829Q98 835 100 842T105 854T110 862T123 866Q128 866 137 865T160 864Q175 864 188 872T213 891T238 909T266 918Q279 918 298 913T332 907Q347 907 351 921T356 954Q356 969 354 986T350 1020T346 1051T344 1077Q344
1091 349 1109T366 1144T393 1172T430 1184Q449 1184 465 1175T502 1157Q517 1150 529 1146T549 1135T561 1113T565 1071Q565 1048 562 1019T559 963Q559 938 564 927T594 915Q611 915 631 916T662 918Q674 918 687 917T713 915Q739 915 763 919T807 924Q832 924
851 914T883 872Z" />
<glyph unicode="," glyph-name="comma" horiz-adv-x="494" d="M475 129Q475 121 465 105T449 66Q444 42 442 26T436 -5T429 -36T418 -74Q409 -98 397 -131T369 -193T333 -243T285 -264Q265 -264 249 -259T220 -246T202 -230T195 -217Q195 -199 203 -181T211 -143Q211
-129 210 -116T209 -88Q209 -77 209 -65T215 -41Q200 -44 186 -44T160 -45Q116 -45 90 -33T51 -2T33 40T29 86Q29 111 33 136T44 184T63 224T88 250Q97 254 108 255T132 257T156 258T178 262Q197 268 210 277T234 294T256 307T285 313Q306 313 328 302T370 274T409
236T442 194T464 157T475 129Z" />
<glyph unicode="-" glyph-name="hyphen" horiz-adv-x="1032" d="M975 707Q975 692 975 674T970 641T957 616T930 606Q916 606 898 609T860 615T823 622T791 625Q772 623 753 617T713 602T672 584T627 567Q586 555 536 549T436 535Q379 525 324 517T217 508Q185
508 155 515T100 537T62 571T47 616Q47 642 56 666T70 719Q72 734 73 753T75 791T81 826T94 852Q109 867 143 873T214 880T283 881T328 879Q356 879 389 878T458 876T527 873T594 870Q632 868 669 863T733 858Q758 858 776 867T815 877Q873 877 904 868T950 839T969
786T975 707Z" />
<glyph unicode="." glyph-name="period" horiz-adv-x="446" d="M389 231Q391 216 393 184T395 119Q395 79 387 56T358 20T304 4T217 0Q203 0 191 0T168 4Q148 7 126 20T84 49T52 83T39 111Q39 123 41 138T45 167T50 193T53 211Q54 223 56 237T60 265T65 290T72
307Q78 313 107 320T172 332T245 340T301 344H332Q350 344 359 341T373 327T381 293T389 231Z" />
<glyph unicode="/" glyph-name="slash" horiz-adv-x="842" d="M807 1341Q807 1338 808 1335T809 1329Q809 1311 801 1283T784 1227T765 1176T752 1145Q738 1119 730 1096T715 1049T703 1002T688 954Q682 936 672 916T648 875T622 832T598 784Q581 745 567 699T540
600T512 492T479 379Q474 366 464 356T446 330Q437 299 428 267T410 203Q405 184 399 150T379 82T343 23T285 -2Q272 -2 257 2T219 12Q179 21 146 34T88 66T51 110T37 170Q37 213 54 251T96 327T150 402T201 481Q206 492 206 505T213 530Q225 558 243 590T276 657Q286
682 290 706T307 754Q315 771 332 787T358 823Q366 839 368 857T377 893Q402 944 420 986T459 1069Q467 1085 480 1102T507 1138T536 1177T561 1221Q576 1252 583 1282T603 1335T636 1372T700 1386Q717 1386 734 1383T767 1374T793 1360T807 1341Z" />
<glyph unicode="0" glyph-name="zero" horiz-adv-x="1094" d="M1055 395Q1052 387 1046 382T1031 373T1016 363T1004 350Q1002 347 1001 333T997 305Q992 294 985 286T977 268Q977 260 978 252T979 233Q979 215 967 202T940 166Q931 152 918 128T892 79T865 33T840
2Q828 -7 808 -15T767 -28T726 -36T696 -39Q685 -39 673 -39T643 -35Q606 -31 565 -31T485 -27T409 -17T346 8Q334 16 322 31T298 63T273 98T244 129Q230 141 214 151T183 172T154 193T131 217Q120 231 113 259T92 319Q80 344 72 360T57 389T48 417T45 453Q45 482
48 512T56 571T64 629T68 684V729Q68 758 73 779T87 819T103 856T117 895Q122 914 124 937T131 983Q136 1014 146 1054T169 1132T192 1198T213 1235Q218 1241 225 1243T240 1246T258 1249T276 1255Q291 1262 307 1275T339 1302T373 1329T410 1350Q425 1356 448
1361T497 1371T552 1377T608 1380Q656 1380 680 1368T719 1335T744 1286T776 1223Q787 1206 803 1190T831 1153Q839 1142 841 1129T852 1104Q861 1085 875 1072T895 1047Q906 1027 912 1000T928 950Q935 932 941 917T951 887T960 854T971 811Q974 797 984 784T997
756Q1005 722 1004 687T1010 623Q1016 599 1024 581T1039 544T1051 500T1057 440Q1057 425 1056 412T1055 395ZM686 451Q688 456 688 461T688 473Q688 504 684 538T680 604V678Q680 715 676 745T665 803T653 854T643 901Q636 938 633 980T621 1059T592 1120T532
1145Q494 1145 467 1134T422 1104T394 1060T377 1008Q366 962 352 907T324 796T301 684T291 582Q291 566 299 534T318 469T341 409T358 375Q366 368 383 363T424 354T474 348T524 346Q592 346 633 367T686 451Z" />
<glyph unicode="1" glyph-name="one" horiz-adv-x="903" d="M909 211Q911 205 911 202T911 195Q911 186 907 183T897 177T888 167T883 141Q883 130 886 121T889 104Q889 91 881 82T859 68T831 60T801 57Q778 57 753 60T705 67T663 74T631 78Q618 78 602 70T569
59Q535 53 502 52T436 51T368 50T297 41Q275 36 243 30T178 23Q118 23 93 56T68 154Q68 177 72 197T88 229Q95 238 113 246T150 261T185 272T203 276Q232 276 274 273T354 270Q396 270 420 275T444 297Q444 304 440 314T432 335T422 354T416 369Q411 395 411 423T410
481Q410 547 414 617T418 750Q418 768 417 799T414 860T407 915T397 944Q388 953 371 957T332 961Q314 961 294 960T255 956T221 952T195 950Q184 952 171 961T139 977Q121 982 104 982T73 985T51 993T43 1016Q43 1033 49 1052T55 1096Q55 1112 51 1121T43 1136T35
1148T31 1165Q31 1173 37 1189T49 1217Q54 1225 67 1231T88 1249Q93 1258 95 1268T98 1287T101 1305T106 1319Q120 1340 136 1352T169 1370T204 1378T240 1380Q273 1380 292 1375T326 1363T357 1352T403 1346Q419 1346 434 1347T463 1348Q483 1348 506 1343Q509
1342 528 1335T568 1319T609 1301T631 1286Q636 1277 638 1266T641 1239Q641 1223 639 1205T633 1167T628 1131T625 1098Q625 1084 626 1073T627 1051Q627 1039 625 1031T618 1017T611 1005T606 989Q600 961 597 926T594 852Q594 777 596 720T603 614T615 517T631
414Q635 382 636 355T642 308T654 276T682 264Q707 264 741 267T803 270Q813 270 830 267T864 258T894 240T909 211Z" />
<glyph unicode="2" glyph-name="two" horiz-adv-x="1047" d="M1028 223Q1028 208 1021 187T1014 143Q1014 114 1018 87T1022 43Q1022 20 999 4T945 -22T880 -36T825 -41Q808 -41 796 -40T773 -38T750 -35T723 -33Q694 -33 666 -36T612 -44T559 -51T508 -55Q452
-50 407 -40T326 -29Q301 -29 283 -36T244 -43Q241 -43 237 -43T229 -41Q225 -41 209 -34T173 -18T138 0T117 14Q108 25 103 39T96 70T94 103T92 135Q90 158 86 183T82 231Q82 256 100 280T147 328T213 377T287 432Q316 455 347 483T410 538T473 591T535 635Q562
652 591 665T645 696T686 738T702 805Q702 830 695 848T680 883T664 915T657 950Q657 960 658 969T659 987Q659 996 656 1004T649 1022T642 1043T639 1069Q639 1074 640 1078T641 1087Q641 1098 636 1109T604 1120Q565 1120 532 1118T475 1106T438 1077T424 1026Q424
992 427 973T435 941T442 915T446 883Q446 851 437 823T409 773T363 740T301 727Q286 727 271 728T240 729Q218 729 188 720T125 711Q99 711 84 728T61 770T51 826T49 883T51 928T53 950Q53 1014 55 1057T67 1130T93 1182T141 1223Q155 1232 173 1243T211 1264T253
1284T293 1298Q311 1303 328 1304T362 1311Q374 1315 387 1323T413 1338T438 1350T459 1356Q496 1356 537 1349T616 1329T689 1301T750 1268Q775 1250 789 1235T812 1202T827 1158T844 1096Q847 1084 852 1069T864 1039T875 1010T883 983Q887 960 885 930T889 868Q894
836 902 815T911 770Q911 752 905 738T888 710T864 683T838 653Q822 633 811 617T790 588T769 563T743 541Q713 519 677 497T603 451T528 401T459 344Q519 346 577 349T692 352Q727 352 760 351T825 344Q836 342 846 338T865 330T884 322T903 319Q914 319 930 321T963
324Q982 324 992 315T1009 292T1018 260T1028 223Z" />
<glyph unicode="3" glyph-name="three" horiz-adv-x="995" d="M938 420Q938 408 934 398T925 376T915 353T911 326Q911 304 917 286T924 252Q924 209 909 180T868 131T807 100T729 84Q697 79 657 72T576 56T494 43T420 37Q388 37 344 43T256 62T175 96T121 147Q118
153 115 164T110 188T106 214T104 238Q104 262 111 284T133 323T169 351T217 362Q224 362 240 355T275 339T312 320T342 305Q354 300 366 299T387 293Q400 287 411 278T434 261T461 248T500 242Q518 242 534 246T569 250Q591 250 609 247T645 244Q667 244 682 251T707
271T721 297T725 324Q725 370 709 397T667 438T607 458T538 466T469 473T409 489T366 524T350 588Q350 628 372 645T427 670T498 678T570 688T625 716T647 782Q647 794 643 809T633 844T623 884T618 928V961Q618 967 616 984T610 1024T599 1071T582 1116T559 1150T528
1163Q496 1163 484 1155T468 1128T465 1076T463 995Q460 961 456 939T449 891Q449 878 450 868T451 846Q451 822 448 805T433 777T401 761T342 756Q322 756 300 762T254 768Q239 768 225 765T197 759T172 752T150 750Q134 750 123 756T102 780Q97 791 86 802T63
828T42 859T33 899Q33 919 39 941T45 983Q46 1019 46 1054T48 1123T58 1187T84 1243Q90 1252 104 1260T127 1280Q139 1295 144 1307T163 1329T207 1347T299 1362Q331 1366 365 1373T431 1388T491 1401T539 1407Q549 1407 572 1405T620 1398T670 1387T709 1374Q724
1366 739 1351T772 1325Q792 1311 813 1303T842 1286Q862 1266 875 1222T896 1120T907 999T911 874Q911 791 895 730T836 635Q829 630 813 623T781 610T753 596T741 584Q741 582 755 575T785 560T816 546T829 541Q855 527 874 518T907 498T927 469T938 420Z" />
<glyph unicode="4" glyph-name="four" horiz-adv-x="979" d="M956 502Q948 492 931 488T895 483Q883 483 871 487T848 492Q832 492 826 480T819 453Q819 430 824 407T829 369Q829 334 825 297T821 225Q821 220 824 202T832 157T840 96T844 23Q844 -12 834 -24T807
-37Q801 -37 792 -36T774 -35Q749 -35 733 -41T698 -47Q657 -47 631 -38T589 -12T567 30T561 86Q561 120 566 152T578 218T594 292T608 381Q609 385 610 393T612 411T613 428T614 442Q614 455 592 457T522 459Q451 459 409 457T340 453T294 448T248 446Q210 446
170 450T95 466T40 497T18 549Q18 567 22 595T33 652T44 707T51 743Q55 774 57 805T62 868T69 935T82 1008Q86 1029 94 1051T110 1094T127 1136T139 1174Q146 1207 148 1235T156 1285T179 1319T231 1331Q244 1331 263 1329T305 1319Q319 1313 334 1303T367 1286Q377
1283 392 1281T421 1277T446 1273T463 1268Q467 1263 472 1251T483 1225T491 1202T494 1190Q494 1178 490 1162T482 1129T473 1093T469 1057V1020Q469 989 462 965T447 907T431 827T424 702Q424 686 423 677T427 663T446 657T492 655Q527 655 549 655T585 659T603
678T608 721Q608 743 607 769T605 822T603 873T602 915Q602 941 609 966T621 1020Q625 1051 627 1072T636 1108T660 1128T709 1135Q719 1135 735 1136T766 1135T793 1120T805 1083Q805 1056 801 1025T791 962T781 903T776 854Q776 816 776 781T781 718T794 675T819
659Q831 659 844 661T871 666T898 671T920 674Q933 674 943 664T960 639T971 604T975 567Q975 547 971 530T956 502Z" />
<glyph unicode="5" glyph-name="five" horiz-adv-x="1001" d="M942 268Q937 225 926 192T896 132T848 83T776 41Q768 36 758 37T739 35Q724 29 711 21T686 5T660 -8T631 -14Q593 -14 546 -7T455 2Q442 2 427 -1T401 -4Q387 -4 370 4T334 14Q312 17 284 19T227
24T171 30T125 41Q106 48 89 61T58 89T37 117T29 135Q29 186 48 217T104 248Q121 248 140 244T178 234T215 222T252 211Q274 205 300 199T354 188T405 179T449 176Q486 176 510 191T549 234T569 301T575 389Q574 395 573 414T568 454T559 495T543 520Q537 523 520
525T479 528T428 529T375 530T329 532T297 535Q255 540 228 559T188 623Q130 623 110 645T90 705Q90 735 95 771T107 847T119 929T125 1012Q125 1044 124 1078T123 1145Q123 1173 125 1196T137 1235Q140 1240 147 1243T158 1255Q167 1277 166 1291T170 1311Q182
1325 201 1330T246 1335Q286 1335 332 1327T418 1319Q436 1319 453 1322T485 1325Q505 1323 524 1318T561 1311Q579 1311 607 1314T668 1322T735 1331T801 1335Q833 1335 852 1332T882 1318T898 1286T909 1229Q911 1214 913 1193T918 1149T922 1103T924 1059Q924
1047 922 1023T908 976T875 936T813 918Q793 918 770 919T725 920Q696 920 667 919T610 918Q559 918 516 920T422 922Q394 922 368 924T320 915T287 873T274 776Q274 769 287 765T321 757T369 753T420 751T469 750T506 750Q517 748 527 748T547 748Q573 748 596
749T641 750Q670 750 691 743T739 729Q760 724 779 722T814 718T843 711T866 698Q882 683 894 653T916 586T931 507T940 428T944 362T946 319Q946 308 945 296T942 268Z" />
<glyph unicode="6" glyph-name="six" horiz-adv-x="1102" d="M1042 244Q1040 235 1038 218T1034 182T1028 149T1022 129Q1017 121 994 112T942 95T885 78T840 66Q808 57 783 48T734 31T687 19T635 14Q619 14 604 17T567 20Q546 20 521 14T473 8Q461 8 448 14T422
20Q401 22 377 23T327 28T281 36T244 53Q231 62 219 85T194 136T170 188T143 229Q128 244 115 269T91 324T74 386T68 449Q68 500 77 550T86 655Q86 694 82 729T78 805Q78 848 84 902T98 1008Q103 1050 107 1089T119 1147Q126 1165 137 1177T165 1198T201 1216T244
1235Q265 1246 286 1262T328 1286Q387 1308 442 1315T557 1323Q578 1323 598 1318T641 1307T686 1293T737 1280Q759 1275 781 1272T822 1266T855 1259T877 1249Q887 1241 894 1224T907 1186T919 1141T934 1096Q944 1070 952 1052T967 1015T982 977T997 926Q1002
910 1010 884T1018 829Q1018 820 1014 804T994 772T943 745T848 733Q837 733 815 733T765 737T708 746T656 764T617 793T602 836Q602 856 605 877T608 922Q608 940 602 955T588 986T571 1019T555 1059Q549 1075 548 1092T543 1122T527 1144T487 1153Q465 1153 451
1135T429 1084T417 1008T414 915Q414 904 415 894T416 874Q417 859 417 831T419 773T423 721T428 692Q434 683 459 679T514 672T573 668T618 666Q657 663 696 660T772 653T844 642T909 623Q921 618 939 606T976 577T1011 541T1034 502Q1038 492 1041 473T1046 430T1049
383T1051 342Q1051 320 1049 297T1042 244ZM864 268Q874 286 874 322Q874 339 872 357T867 391T860 418T852 432Q843 441 816 446T755 455T691 461T643 465Q626 465 600 466T547 467Q521 467 504 466T477 461T463 455T459 449Q459 441 462 420T470 372T480 316T491
263T499 222T504 205Q507 202 514 202T532 201Q551 201 576 203T626 208T670 213T694 217Q711 220 737 224T790 235T837 250T864 268Z" />
<glyph unicode="7" glyph-name="seven" horiz-adv-x="907" d="M913 1065Q911 1056 906 1049T893 1034T877 1017T862 995Q856 984 856 970T850 944Q844 935 839 930T829 919T822 908T819 889Q819 869 810 844T788 792T761 734T735 674Q727 649 717 626T697 580T679
531T666 477Q663 462 662 447T661 415T659 384T653 356Q647 335 631 306T598 247T568 190T555 143V127Q555 115 545 96T521 59T493 28T469 14Q452 14 430 22T387 43T352 67T338 86Q338 141 353 187T387 287Q395 313 399 338T414 389Q420 408 434 426T457 465Q465
482 469 503T483 547Q493 572 504 592T516 641V659Q516 676 522 688T536 710T554 730T571 756Q582 780 586 807T594 862T605 914T629 958Q603 949 574 946T512 942Q480 942 444 944T371 946Q335 946 303 942T243 933T188 924T137 920Q119 920 98 927T58 947T27
980T14 1024Q14 1043 20 1070T27 1122Q27 1159 20 1188T14 1243Q15 1257 17 1263T22 1272T28 1279T33 1292Q39 1309 38 1324T45 1350Q56 1360 79 1366T133 1375T196 1379T260 1380H403H590H647H696Q742 1380 766 1378T806 1366T834 1333T868 1268Q872 1256 874
1242T877 1211T881 1178T887 1147Q895 1121 904 1099T913 1065Z" />
<glyph unicode="8" glyph-name="eight" horiz-adv-x="1118" d="M1044 514Q1048 495 1048 476T1049 436Q1049 387 1043 337T1025 244T997 167T963 117Q947 103 919 97T860 78Q842 70 824 58T791 41Q772 35 746 30T692 22T634 16T580 14Q487 14 401 27T221 66Q192
73 181 77T166 85T160 96T145 117Q141 122 137 123T128 125T120 130T117 145Q117 157 114 163T107 174T100 180T96 186Q90 202 89 218T82 250Q77 266 72 282T62 317T54 358T51 408Q51 463 52 510T60 594T77 660T109 705Q126 719 147 726T191 738T238 749T285 768Q277
786 266 797T243 823T225 863T217 932Q217 976 224 1024T243 1117T269 1197T297 1249Q314 1266 339 1278T390 1298T438 1309T471 1313Q517 1313 576 1306T696 1298Q715 1298 732 1299T766 1300Q798 1300 839 1293T920 1272T988 1239T1026 1198Q1029 1190 1029 1179T1030
1153Q1030 1111 1028 1079T1022 1019T1017 965T1014 911Q1014 856 1003 828T975 786T936 762T893 735Q915 710 939 689T984 644T1022 590T1044 514ZM766 1065Q762 1087 752 1101T728 1124T696 1135T657 1139Q642 1139 627 1138T596 1135Q585 1133 564 1130T520
1122T478 1111T451 1096Q446 1091 441 1072T432 1029T425 977T422 928Q422 902 428 886T444 861T469 849T500 846Q525 846 564 847T641 852T711 865T754 889Q763 903 766 930T770 987Q770 1010 769 1030T766 1065ZM721 535Q721 533 719 543T714 568T708 595T702
610Q697 614 683 617T649 621T607 624T563 625Q420 625 342 595T264 496Q264 463 269 433T287 381T317 345T362 332Q372 332 392 337T430 344Q463 346 498 345T565 345T626 352T676 374T710 420T723 498Q723 507 722 516T721 535Z" />
<glyph unicode="9" glyph-name="nine" horiz-adv-x="1190" d="M1135 489Q1131 470 1119 448T1091 403T1058 359T1026 321T1003 296T995 287Q981 276 966 274T938 262Q908 237 891 213T863 166T843 125T819 90Q809 80 792 70T756 53T721 40T698 35Q686 35 671 39T637
48T600 58T559 66Q534 68 494 74T408 88T313 106T224 129T152 154T111 180Q108 182 103 193T92 219T82 247T78 270Q78 280 79 291T80 313Q80 325 77 334T69 352T61 370T57 391Q57 399 58 407T59 424Q59 438 56 450T49 473T42 496T39 520Q39 568 62 592T127 625T228
634T360 633Q388 633 411 630T444 616Q450 610 454 593T460 556T464 519T465 496Q463 481 458 462T445 422T433 380T428 338Q428 326 431 314T441 292T458 275T483 268Q494 268 514 272T556 282T592 293T610 299Q621 308 626 321T633 350T638 386T647 426Q652 441
661 452T674 477Q681 511 684 545T691 609T700 666T717 711Q669 711 627 715T547 719Q524 719 508 714T480 703T455 691T426 686Q408 686 391 694T356 712T321 730T283 739Q241 739 207 759T147 811T108 886T94 973Q94 1027 117 1090Q125 1114 142 1135T168 1180Q175
1201 178 1219T187 1254T200 1285T223 1311Q235 1321 246 1324T272 1329T304 1332T350 1337Q366 1339 379 1344T408 1350Q435 1350 469 1344T540 1332T616 1319T694 1313Q722 1313 748 1314T799 1315Q842 1315 878 1311T944 1292Q971 1279 991 1249T1026 1187T1048
1128T1055 1094Q1055 1073 1060 1051T1074 1005T1090 954T1104 895Q1109 863 1115 827T1124 760Q1124 744 1123 728T1122 696Q1122 673 1124 649T1129 601T1134 556T1137 516Q1137 508 1137 502T1135 489ZM743 913Q734 938 732 965T723 1020Q714 1060 700 1084T662
1123T600 1142T508 1147Q496 1147 482 1146T453 1145Q428 1145 399 1150T350 1155Q339 1155 331 1139T317 1100T308 1054T305 1016Q305 974 317 947T351 905T401 885T463 879Q497 879 533 883T607 894T678 905T743 913Z" />
<glyph unicode=":" glyph-name="colon" horiz-adv-x="508" d="M422 231Q424 216 426 184T428 119Q428 79 420 56T391 20T337 4T250 0Q236 0 224 0T201 4Q181 7 158 20T116 49T85 83T72 111Q72 123 74 138T78 167T83 193T86 211Q87 223 89 237T93 265T97 290T104
307Q110 313 139 320T205 332T278 340T334 344H365Q383 344 392 341T406 327T414 293T422 231ZM422 903Q424 888 426 856T428 791Q428 751 420 728T391 692T337 676T250 672Q236 672 224 672T201 676Q181 679 158 692T116 721T85 754T72 782Q72 794 74 809T78 838T83
865T86 883Q87 894 89 908T93 937T97 962T104 979Q110 985 139 991T205 1003T278 1012T334 1016H365Q383 1016 392 1013T406 999T414 965T422 903Z" />
<glyph unicode=";" glyph-name="semicolon" horiz-adv-x="545" d="M498 129Q498 121 487 105T471 66Q466 42 464 26T459 -5T452 -36T440 -74Q431 -98 419 -131T392 -193T355 -243T307 -264Q287 -264 271 -259T242 -246T224 -230T217 -217Q217 -199 225 -181T233
-143Q233 -129 232 -116T231 -88Q231 -77 232 -65T238 -41Q222 -44 209 -44T182 -45Q138 -45 113 -33T73 -2T55 40T51 86Q51 111 55 136T67 184T86 224T111 250Q119 254 130 255T154 257T178 258T201 262Q220 268 232 277T256 294T278 307T307 313Q338 313 371
290T431 236T477 175T498 129ZM444 903Q446 888 448 856T451 791Q451 751 443 728T414 692T359 676T272 672Q258 672 246 672T223 676Q203 679 181 692T139 721T107 754T94 782Q94 794 96 809T100 838T105 865T109 883Q110 894 112 908T116 937T120 962T127 979Q133
985 162 991T227 1003T300 1012T356 1016H387Q405 1016 414 1013T428 999T436 965T444 903Z" />
<glyph unicode="&lt;" glyph-name="less" horiz-adv-x="813" d="M760 406Q757 392 749 381T730 361T709 343T690 324Q681 310 678 294T666 266Q656 255 642 245T614 221Q603 210 595 200T579 182T559 169T532 164Q520 164 500 171T457 190T412 219T375 254Q367
262 362 275T348 297Q337 308 317 317T279 342Q265 354 254 372T229 399Q218 406 203 407T178 418Q170 424 164 440T145 469Q137 477 124 479T102 487Q99 489 98 496T90 512Q86 516 79 522T65 536T52 551T45 563Q43 569 42 585T40 617T39 645T39 657Q43 683 62
705T104 746T151 784T190 823Q200 834 201 848T209 872Q215 881 224 888T243 903T262 919T279 936Q290 951 295 969T311 999Q324 1012 346 1023T387 1051Q393 1057 398 1068T412 1087Q433 1109 456 1133T504 1179T553 1213T600 1227Q616 1227 634 1218T667 1192T692
1156T702 1114Q702 1099 691 1078T663 1034T630 990T602 954Q594 945 580 939T557 924Q551 916 544 901T526 872Q520 864 504 846T470 808T439 770T424 745Q424 730 432 722T453 708T478 697T500 684Q506 678 511 663T532 633Q545 621 567 610T616 587T668 561T716
530T750 490T764 440Q764 431 763 423T760 406Z" />
<glyph unicode="=" glyph-name="equal" horiz-adv-x="1102" d="M1036 948Q1038 937 1038 926T1038 905Q1038 849 1019 817T948 784Q928 784 910 796T866 815Q848 820 830 820T791 823Q766 826 738 834T688 842Q664 842 638 837T584 826T527 813T467 803Q433 800
395 799T322 797Q300 797 276 806T227 815Q200 818 174 818T128 821T96 833T84 866Q84 902 96 930T127 979T169 1009T215 1020Q278 1020 341 1011T477 1001Q499 1001 520 1002T561 1006Q616 1010 666 1023T764 1050T855 1075T942 1087Q957 1087 972 1075T1001 1042T1023
998T1036 948ZM1006 481Q1006 466 1006 449T1001 416T988 391T961 381Q947 381 929 384T891 390T854 396T821 399Q803 397 784 391T744 376T702 358T657 342Q617 330 567 324T467 309Q410 300 355 292T248 283Q216 283 186 290T131 312T93 346T78 391Q78 417 86
441T100 494Q102 508 103 527T105 565T111 601T125 627Q140 642 174 647T245 654T314 655T358 653Q386 653 419 653T488 651T558 648T625 645Q663 643 700 638T764 633Q789 633 807 642T846 651Q903 651 934 642T981 613T999 561T1006 481Z" />
<glyph unicode="&gt;" glyph-name="greater" horiz-adv-x="815" d="M53 975Q56 989 64 999T83 1019T104 1038T123 1057Q132 1071 135 1087T147 1114Q157 1125 171 1136T199 1159Q209 1170 217 1180T234 1199T254 1212T281 1217Q292 1217 312 1210T355 1191T400
1162T438 1126Q446 1118 451 1105T465 1083Q476 1072 496 1063T535 1038Q549 1026 560 1008T584 981Q595 975 610 974T635 963Q643 956 649 940T668 911Q676 903 689 901T711 893Q714 891 715 884T723 868Q727 864 734 858T748 844T760 829T768 817Q770 811 771
796T773 764T774 735T774 723Q769 697 751 675T710 634T662 596T623 557Q613 546 612 532T604 508Q592 491 571 477T535 444Q524 429 519 411T502 381Q489 369 467 358T426 330Q420 324 415 313T401 293Q380 272 357 248T309 202T260 168T213 154Q197 154 179 163T146
188T121 224T111 266Q111 281 122 302T150 345T183 389T211 426Q219 435 233 442T256 457Q262 465 269 480T287 508Q293 515 309 533T343 572T374 610T389 635Q389 650 381 659T360 673T335 683T313 696Q307 703 302 718T281 748Q267 760 245 770T197 793T145 818T97
849T63 889T49 940Q49 948 49 957T53 975Z" />
<glyph unicode="?" glyph-name="question" horiz-adv-x="1171" d="M1106 864Q1108 835 1117 800T1126 729Q1126 703 1120 688T1102 662T1070 643T1024 623Q1005 613 990 603T961 586Q938 576 916 569T875 554T842 537T821 516Q816 510 816 488T809 446Q803 429
792 413T776 383Q770 363 770 343T765 307T751 280T713 270Q698 270 680 272T641 278T601 284T561 287Q538 287 515 285T471 283Q437 283 419 298T401 338Q401 361 411 383T428 426Q437 454 444 478T462 523T487 561T524 592Q555 610 602 627T694 662Q732 675 763
682T818 706T853 754T866 848Q866 886 865 924T864 989Q866 1006 872 1030T879 1075Q879 1097 864 1112T827 1136T777 1150T725 1155Q715 1155 707 1152T688 1143T663 1133T625 1122Q613 1119 598 1117T570 1114T545 1110T530 1104Q524 1098 519 1081T510 1042T502
993T497 943T493 900T492 870Q492 838 495 806T498 748Q498 706 464 683T379 648T267 635T154 633Q134 633 115 635T82 644T58 664T49 698Q49 742 56 776T63 848Q63 877 62 906T61 965Q61 1016 63 1059T75 1139T108 1204T168 1256T266 1296T410 1325Q464 1333 521
1337T625 1350Q665 1356 695 1364T750 1372Q760 1372 779 1368T821 1356T867 1339T909 1319Q926 1310 938 1293T967 1268Q991 1256 1005 1253T1030 1246T1050 1232T1073 1198Q1090 1167 1096 1128T1103 1045T1104 955T1106 864ZM776 23Q776 0 761 -28T725 -80T687
-120T662 -137Q646 -137 629 -133T594 -129Q568 -132 553 -142T520 -152Q505 -152 495 -145T475 -127T456 -104T434 -80Q426 -73 415 -67T394 -55T377 -42T369 -25Q369 -10 378 22T400 89T429 148T457 174H469Q474 174 481 175T500 176Q521 176 548 173T603 166T657
155T705 143T739 129T752 117Q752 111 751 102T750 84Q750 71 754 62T763 45T772 33T776 23Z" />
<glyph unicode="@" glyph-name="at" horiz-adv-x="1485" d="M1440 610Q1440 599 1434 585T1427 557Q1427 549 1428 536T1429 508T1431 478T1432 449Q1432 415 1421 399T1392 373T1349 353T1300 319Q1297 316 1293 309T1285 295T1275 280T1264 268Q1250 259 1218
256T1147 252Q1079 252 1036 263T968 298T932 361T915 453Q880 437 844 419T770 385T691 359T602 348Q587 348 564 351T515 361T467 379T428 408Q424 412 417 427T403 461T390 495T383 516Q380 529 377 550T370 596T364 644T362 686Q362 736 391 774T466 837T571
876T688 889Q734 889 782 883Q802 880 826 871T866 862Q876 862 884 875T906 905T940 936T999 950Q1013 950 1028 936T1056 901T1077 857T1085 815V774Q1085 757 1091 737T1098 705Q1101 668 1101 626T1103 548T1120 489T1163 465Q1188 465 1201 470T1221 485T1229
504T1231 526Q1231 549 1230 569T1227 609T1224 651T1223 700Q1223 736 1230 756T1237 786Q1237 865 1219 910T1163 981T1072 1016T946 1034Q890 1040 839 1047T735 1055Q695 1055 659 1048T588 1029T518 1004T446 977Q431 971 415 971T391 965Q350 945 323 923T278
876T254 826T246 778Q246 763 252 749T258 717Q258 703 249 687T238 655Q238 637 242 616T252 572T263 526T270 483Q270 472 267 456T264 430Q264 421 270 412T287 391T309 367T334 338Q349 319 357 301T377 270T407 248T461 240Q503 240 541 251T614 262Q628 262
645 259T682 256Q716 256 751 264T821 272Q860 272 879 259T909 223T925 172T940 111Q943 99 949 82T961 44T972 3T977 -37Q977 -61 972 -72T957 -90T935 -100T909 -111Q898 -116 891 -122T878 -132T867 -140T854 -143Q835 -143 817 -136T778 -129Q758 -129 737
-132T692 -135Q663 -135 631 -129T567 -123Q547 -123 530 -124T496 -125Q458 -125 425 -117T358 -80Q334 -58 306 -20T246 53Q224 75 205 100T162 156Q156 164 145 170T131 180Q127 188 123 205T115 240T109 275T106 297V338Q104 400 92 467T68 598Q63 627 64 657T61
717Q58 743 55 762T51 801Q51 822 56 837T69 866T85 892T100 920Q105 931 106 942T108 964T113 984T125 1001Q130 1007 135 1008T146 1011T161 1014T182 1022Q197 1029 213 1040T246 1064T276 1088T301 1104Q312 1109 323 1108T346 1110Q366 1116 391 1130T434
1155Q458 1168 473 1180T506 1202T547 1217T614 1223Q664 1223 714 1216T807 1198Q839 1190 871 1188T934 1180Q946 1177 956 1170T979 1161Q1016 1154 1061 1151T1148 1144T1226 1132T1282 1110Q1295 1100 1303 1086T1319 1055T1332 1023T1346 995Q1361 971 1377
954T1408 920T1431 880T1440 825Q1440 811 1437 798T1434 768Q1434 739 1437 706T1440 637V610ZM903 737Q891 737 870 739T822 745T769 751T717 754Q679 754 659 740T639 682Q639 670 645 666T662 662Q676 662 693 665T725 668Q736 666 752 662T786 654T823 647T858
643Q877 643 889 649T901 672Q901 683 899 694T897 717Q897 728 903 737Z" />
<glyph unicode="A" glyph-name="A" horiz-adv-x="1178" d="M1096 381Q1098 372 1099 362T1100 340Q1100 314 1095 287T1083 232T1067 181T1051 135Q1037 94 1030 73T1016 43T999 32T967 31Q952 31 928 38T879 61T833 100T803 154Q803 160 807 174T811 205Q810
216 808 237T801 283T793 335T782 384T770 420T756 434Q730 434 719 427T699 411T682 395T651 387Q631 387 607 391T554 401T489 411T412 416Q390 416 372 415T348 408Q337 399 332 373T324 316T319 254T311 205Q309 202 303 194T289 174T273 149T260 123Q248 96
240 62T220 -3T191 -55T145 -76Q126 -76 110 -67T81 -47T60 -25T51 -10Q39 11 28 24T6 49T-10 72T-16 104Q-16 111 -16 123T-14 148T-10 173T-6 193Q-4 198 1 203T12 215T22 226T27 238Q27 246 23 253T18 268Q18 270 19 271T20 274Q30 304 44 332T72 389T96 450T109
520Q109 538 109 559T111 601T116 643T127 680Q128 683 136 690T155 708T172 736T180 774Q180 785 178 797T176 821Q176 835 180 844T191 862T204 880T215 901Q223 922 224 945T225 992T226 1039T236 1083Q238 1092 245 1098T259 1111T273 1126T279 1145Q279 1153
278 1161T276 1180Q276 1203 286 1227T310 1274T333 1320T344 1362V1382Q344 1401 359 1421T402 1457T464 1484T539 1495Q561 1495 578 1490T614 1477T653 1464T702 1456Q718 1456 735 1459T771 1467T807 1475T842 1479Q851 1479 865 1474T895 1459T925 1438T950
1413Q968 1390 974 1355T984 1280T993 1200T1012 1128Q1017 1115 1024 1105T1037 1082T1048 1055T1053 1016Q1053 988 1050 960T1047 905Q1047 884 1052 870T1064 846T1075 825T1081 801Q1081 782 1075 758T1069 711Q1069 689 1076 671T1081 635Q1080 616 1074
597T1061 560T1048 524T1042 489Q1042 475 1049 462T1065 436T1083 410T1096 381ZM709 641Q715 650 715 664Q715 678 710 696T700 730T689 760T684 778Q684 788 687 798T690 819Q690 845 679 872T655 921T629 960T614 983Q607 999 605 1015T599 1047T589 1073T569
1090Q549 1030 527 972T483 855T443 733T412 602Q447 607 484 608T563 616Q569 617 592 620T640 627T686 635T709 641Z" />
<glyph unicode="B" glyph-name="B" horiz-adv-x="1274" d="M1225 483V475Q1225 452 1219 421T1212 358Q1212 334 1214 309T1217 264Q1217 234 1205 220T1179 196T1153 174T1141 135Q1141 123 1145 111T1149 88Q1149 67 1138 52T1109 26T1070 5T1030 -16Q1012 -27
996 -41T962 -67T921 -87T866 -96Q837 -96 805 -93T741 -90Q715 -90 698 -96T667 -108T637 -121T600 -127Q578 -127 556 -122T511 -112T463 -101T410 -96Q384 -96 367 -92T336 -82T309 -73T279 -68Q263 -68 247 -71T213 -74Q194 -74 165 -64T107 -42T59 -19T39
-4Q39 -1 42 2T45 14Q45 21 39 33T27 61T14 92T8 123Q8 168 24 207T61 268Q73 280 85 286T109 298T131 311T148 334T160 375T164 442Q164 457 160 478T150 526T140 583T135 645Q135 667 141 686T153 724T166 764T172 811Q172 844 169 885T161 970T154 1061T150
1153Q150 1201 157 1242T164 1317Q161 1342 149 1364T137 1407Q137 1447 153 1468T202 1501T281 1517T391 1526Q412 1527 431 1533T471 1545T514 1557T563 1561Q607 1561 657 1557T752 1552Q792 1552 831 1556T899 1561Q920 1561 933 1555T960 1540T987 1517T1024
1489Q1042 1477 1054 1471T1077 1458T1096 1444T1118 1419Q1129 1404 1144 1380T1173 1331T1196 1282T1206 1245Q1206 1224 1200 1208T1188 1165Q1185 1147 1184 1127T1180 1087T1175 1048T1163 1014Q1152 994 1128 975T1072 941T1004 917T934 907Q937 894 946
886T966 872T989 862T1010 850Q1024 839 1038 821T1067 786Q1082 771 1102 760T1130 735Q1137 726 1140 709T1149 680Q1162 653 1175 634T1198 594T1216 548T1225 483ZM858 1186Q858 1228 844 1256T805 1301T747 1326T674 1333Q652 1333 622 1332T560 1328T495
1317T438 1296T397 1264T381 1217Q381 1199 383 1179T388 1139T393 1101T397 1071Q397 1054 394 1031T391 989Q391 975 394 968T408 961Q421 961 451 966T517 979T585 991T635 997Q644 997 651 996T664 995Q663 995 673 998T698 1006T733 1018T771 1032T802 1046T821
1059Q825 1063 831 1081T843 1121T853 1161T858 1186ZM758 705Q755 710 744 715T725 729Q713 744 707 751T692 763T669 767T625 768Q602 768 566 768T496 767T435 763T403 756Q403 733 404 718T406 691T409 670T410 649Q410 606 408 582T406 541Q406 524 409 502T412
438Q412 412 410 388T408 344Q408 317 429 306T478 291T536 289T582 291Q594 291 617 295T666 306T716 323T752 344Q775 364 785 410T795 510Q795 539 792 568T784 624T772 671T758 705Z" />
<glyph unicode="C" glyph-name="C" horiz-adv-x="1153" d="M1112 1032V1026Q1112 1011 1108 979T1095 910T1073 839T1042 786Q1025 769 997 763T942 748Q921 740 898 727T851 702T804 681T758 672Q743 672 725 679T690 704T664 748T653 815Q653 840 655 867T657
920Q657 948 653 983T640 1050T622 1102T600 1124Q591 1124 580 1120T553 1116Q535 1116 526 1120T510 1128T499 1137T485 1141Q461 1141 449 1131T430 1102T421 1061T410 1014Q405 997 392 976T373 932Q365 909 360 882T346 825Q338 800 328 762T307 682T290 598T283
524Q283 478 313 435T391 362Q405 354 430 349T479 332Q501 321 517 311T551 292T593 278T657 272Q693 272 730 279T802 299T864 326T909 356Q915 361 928 377T960 412T1000 444T1047 459Q1052 459 1062 457T1083 447T1102 425T1110 389Q1110 360 1102 329T1094
270Q1094 258 1095 240T1096 205Q1096 170 1075 134T999 59Q982 47 957 38T909 14Q885 -1 858 -16T815 -31Q800 -31 784 -27T748 -23Q716 -23 686 -25T623 -27Q607 -27 588 -27T548 -25T509 -21T473 -16Q461 -15 446 -14T415 -11T389 -8T373 -4Q366 -1 360 7T348
25T334 46T315 66Q303 75 288 78T264 90Q252 106 237 125T207 160Q191 185 182 212T158 256Q152 262 142 267T119 279T96 293T76 311Q72 314 65 327T50 354T37 378T31 387Q31 393 35 402T46 422T56 442T61 459Q61 476 56 489T49 520Q49 554 52 608T61 725T77 849T100
963Q111 1003 125 1045T139 1124Q139 1137 137 1150T135 1176Q135 1203 151 1218T190 1244T239 1267T285 1298Q290 1304 293 1315T298 1337T302 1358T309 1374Q312 1378 317 1379T330 1381T347 1384T367 1393Q377 1399 382 1405T393 1417T405 1425T424 1427Q435
1427 446 1426T467 1425Q482 1425 498 1426T532 1427Q560 1427 578 1421T610 1408T637 1392T670 1380Q697 1375 724 1375T778 1374T829 1370T879 1356Q893 1350 908 1335T942 1305Q959 1292 978 1283T1006 1262Q1012 1251 1016 1229T1030 1192Q1039 1176 1052 1159T1079
1122T1101 1080T1112 1032Z" />
<glyph unicode="D" glyph-name="D" horiz-adv-x="1335" d="M1298 578V569Q1298 554 1295 537T1292 502Q1292 480 1293 463T1294 430Q1294 412 1290 383T1279 322T1260 262T1235 217Q1230 210 1214 202T1179 184T1140 166T1110 147Q1098 138 1083 123T1052 91T1019
59T989 35Q978 26 961 20T926 2Q914 -6 907 -14T892 -30T878 -41T858 -45Q839 -45 814 -43T761 -37T704 -32T647 -29Q625 -29 605 -34T566 -45T531 -56T502 -61Q471 -61 433 -49T356 -29Q340 -26 320 -24T280 -19T240 -13T205 -4Q196 -1 189 5T174 18T155 33T129
47Q96 59 73 64T34 80T11 113T4 184Q4 232 13 261T41 291Q50 291 60 288T80 280T98 272T113 268Q129 268 139 284T156 325T164 382T166 446Q166 505 163 560T160 647Q160 659 162 669T167 690T172 712T174 739Q174 781 170 832T166 932Q166 944 167 963T171 1002T174
1040T176 1071Q176 1082 166 1086T139 1093T105 1098T70 1109T44 1132T33 1174Q33 1197 50 1217T96 1256T158 1289T225 1317T287 1339T332 1356Q366 1370 395 1385T442 1401Q459 1401 472 1394T502 1386Q514 1387 526 1392T551 1404T578 1414T608 1419Q631 1419
647 1413T677 1398T704 1379T735 1362Q754 1353 774 1352T811 1343Q853 1326 886 1308T948 1267T1002 1219T1053 1159Q1071 1136 1096 1117T1135 1077Q1145 1062 1157 1038T1180 987T1203 933T1223 881Q1233 853 1245 818T1269 742T1288 660T1298 578ZM868 559Q877
596 877 629Q877 656 873 681T862 729T849 776T838 825Q833 851 831 876T825 924T815 968T799 1008Q793 1019 782 1029T762 1053Q751 1065 745 1079T729 1102Q721 1110 700 1117T659 1141Q641 1155 630 1169T608 1196T584 1215T549 1223Q534 1223 519 1220T491
1213T471 1205T463 1196Q463 1188 464 1174T466 1146T469 1120T471 1102Q468 1045 464 978T459 848Q459 810 463 779T474 717T486 656T496 590Q501 536 510 488T520 403Q520 376 517 345T514 281Q514 251 520 223Q536 225 551 225T580 225H612Q637 225 660 227T705
239T747 269T786 326Q790 333 794 345T803 374T813 408T825 444Q835 473 848 503T868 559Z" />
<glyph unicode="E" glyph-name="E" horiz-adv-x="1157" d="M1141 262Q1138 253 1131 246T1122 229Q1118 216 1117 203T1114 176T1106 151T1090 129Q1078 118 1056 111T1009 98T958 86T913 72Q898 65 884 53T855 27T824 1T786 -16Q771 -21 748 -23T705 -29Q685
-33 658 -37T599 -46T534 -54T469 -57Q437 -57 419 -53T387 -41T362 -26T332 -10Q304 -1 275 2T217 11T159 30T102 72Q99 75 96 82T90 99T84 116T78 129Q68 143 56 152T33 171T15 193T8 223Q8 236 17 250T39 277T67 297T94 305H109Q122 305 130 312T144 329T151
351T154 373Q154 394 151 421T147 483Q147 500 148 517T150 551Q150 576 144 593T135 629Q130 675 128 730T125 844Q125 871 127 900T131 957T135 1010T137 1055Q137 1067 122 1074T88 1092T55 1122T39 1180Q39 1220 67 1254T137 1313T224 1353T305 1368Q365 1368
430 1358T561 1348Q574 1348 591 1351T629 1359T677 1366T735 1370Q755 1370 767 1365T789 1353T810 1336T838 1317Q849 1311 865 1308T893 1298Q907 1292 918 1285T938 1274Q972 1262 999 1258T1046 1246T1075 1219T1085 1161Q1085 1106 1073 1077T1035 1035T973
1017T887 1008Q843 1003 801 1000T709 997Q650 997 578 1004T434 1012Q415 1012 403 1011T385 1004T376 985T373 948Q373 931 374 913T378 879T382 852T387 838Q396 828 422 823T479 815T540 812T590 811Q613 811 631 816T666 827T697 839T727 844Q743 844 751
841T765 834T772 825T780 817Q792 809 799 803T810 790T815 773T817 745Q817 688 809 657T777 611T708 591T590 584Q563 583 546 582T520 576T508 563T504 541Q504 494 504 463T511 412T540 384T604 375Q637 375 672 378T742 385T810 396T874 408Q899 413 920 421T960
436T1000 449T1042 455Q1096 455 1124 424T1153 334Q1153 317 1150 298T1141 262Z" />
<glyph unicode="F" glyph-name="F" horiz-adv-x="1141" d="M1141 1122Q1132 1094 1098 1077T1016 1051T914 1038T810 1033T724 1032T672 1032Q653 1030 636 1025T601 1014T563 1005T516 1001H502Q514 940 520 876T532 741Q557 751 579 754T624 758T671 759T723
762Q754 765 785 774T846 784Q869 784 887 771T919 736T939 690T946 643Q946 626 933 607T897 571T846 543T786 532Q774 532 764 537T745 548T726 560T705 565Q699 565 688 562T665 556T646 550T637 547Q620 547 604 551T575 555Q563 555 558 544T553 516Q553 484
559 464T573 427T591 394T608 356Q614 335 620 306T630 244T638 180T641 121Q641 109 639 86T633 37T621 -10T602 -43Q597 -48 584 -52T556 -60T525 -67T502 -74Q480 -80 453 -92T406 -104Q390 -104 366 -94T317 -80Q269 -76 242 -67T201 -40T180 6T166 78Q164
90 159 97T154 111Q154 122 157 135T165 162T174 192T178 225Q178 242 175 259T172 293Q174 311 180 329T186 367Q186 410 179 446T172 502Q175 520 182 534T197 564T211 600T217 651Q217 686 214 726T211 805Q211 827 213 852T215 901Q215 934 203 947T173 964T139
967T111 971Q99 975 85 985T59 1009T39 1038T31 1067Q31 1076 32 1087T33 1108Q33 1124 28 1140T17 1176T5 1217T0 1268Q0 1303 21 1319T75 1342T144 1355T211 1374Q238 1386 270 1386Q307 1386 345 1374T420 1346T488 1316T547 1298Q553 1296 560 1296T575 1296Q601
1296 631 1300T691 1310T748 1320T797 1325Q809 1325 824 1324T854 1323Q882 1323 909 1327T961 1337T1008 1347T1049 1352Q1078 1352 1096 1337Q1102 1331 1110 1308T1125 1256T1138 1195T1143 1143Q1143 1137 1143 1131T1141 1122Z" />
<glyph unicode="G" glyph-name="G" horiz-adv-x="1257" d="M1257 477Q1252 471 1240 467T1213 458T1185 451T1163 444Q1141 437 1124 432T1094 421T1076 406T1069 383Q1069 370 1072 355T1078 324T1084 295T1087 270Q1087 259 1086 250T1085 233Q1085 219 1090
210T1102 191T1117 171T1130 147Q1135 136 1141 114T1152 64T1161 9T1165 -43Q1165 -78 1152 -97T1118 -126T1074 -138T1030 -141Q998 -141 969 -124T918 -76T883 -7T870 78Q870 86 870 96T872 117Q851 115 843 104T830 78T823 45T809 14Q796 -4 765 -23T695 -58T618
-84T551 -94Q521 -94 505 -83T475 -60T445 -36T399 -25H373Q331 -25 299 -14T238 13T183 49T125 84Q108 93 92 105T63 135T43 181T35 248Q35 266 38 280T45 309T52 337T55 367Q55 378 54 387T53 406Q53 424 59 439T73 470T87 502T94 537Q94 558 90 577T81 617T72
659T68 705Q68 723 71 753T82 811Q84 820 91 828T100 844Q103 859 104 872T107 899T111 924T119 950Q131 981 149 1008T176 1065Q184 1091 186 1119T195 1171Q199 1186 206 1208T222 1255T244 1301T270 1337Q284 1351 298 1358T329 1369T367 1376T416 1386Q442
1392 476 1403T545 1424T613 1442T670 1450Q705 1450 738 1435T801 1400T860 1362T915 1337Q940 1331 963 1330T1008 1326T1048 1319T1081 1298Q1093 1286 1100 1265T1112 1219T1121 1165T1130 1110Q1140 1067 1150 1032T1163 971Q1163 964 1163 945T1162 903T1158
860T1151 831Q1143 818 1133 814T1108 808T1076 805T1036 799Q1018 793 1004 785T978 770T954 756T928 748Q922 748 904 753T866 762Q842 763 819 764T777 770T747 785T735 813Q735 827 738 847T741 893Q741 922 731 945T721 989Q721 1011 721 1033T714 1072T690
1101T637 1112Q618 1112 595 1110T551 1105T514 1098T492 1090Q481 1080 478 1046T467 963Q462 934 452 905T436 850Q431 830 432 812T428 774Q426 762 422 746T414 710T407 672T403 635Q403 618 409 605T416 571Q416 542 407 509T397 444Q397 430 403 422T410
397Q410 388 408 379T406 360Q406 343 419 321T450 279T485 243T512 223Q526 215 547 208T590 195T627 187T647 184Q689 184 719 201T770 246T807 309T834 381Q781 370 742 356T668 342Q644 342 625 350Q612 354 598 373T571 418T551 471T543 520Q543 542 553 565T579
607T612 637T643 649Q674 649 711 640T795 631Q850 631 907 636T1018 641Q1032 641 1045 638T1073 635Q1102 637 1131 645T1188 653Q1226 653 1248 620T1270 526Q1270 511 1267 498T1257 477Z" />
<glyph unicode="H" glyph-name="H" horiz-adv-x="1243" d="M1184 356V346Q1184 332 1181 317T1178 287Q1180 249 1188 209T1196 131Q1196 106 1189 85T1165 47Q1153 35 1129 31T1077 14Q1057 5 1042 -5T1012 -16Q993 -16 966 -8T908 13T849 40T799 66Q772 80 758
98T737 141T730 202T729 289Q729 329 730 380T731 477Q731 512 731 551T717 623Q709 631 686 633T635 635Q612 635 589 634T545 633Q517 633 497 643T455 653Q445 653 433 646T420 616Q420 605 422 592T426 566T430 545T432 532Q432 495 429 460T426 399Q426 377
430 348T438 287T447 221T451 156Q451 104 439 72T399 21T327 -5T221 -12Q192 -12 167 4T123 40T93 80T82 106Q82 118 85 130T92 156T99 183T102 209Q102 226 98 243T90 278T82 312T78 344Q78 370 84 399T90 455Q90 493 88 534T86 618Q86 640 86 661T90 705Q92
716 97 722T102 739Q102 758 96 775T90 811Q90 845 94 888T103 976T113 1067T117 1153Q117 1178 111 1204T104 1253Q104 1264 112 1282T135 1319T173 1350T225 1364Q257 1364 279 1357T316 1337T337 1311T344 1284Q344 1261 341 1238T338 1204Q340 1190 346 1176T356
1141Q362 1105 364 1062T368 981T371 917T375 887Q382 880 406 877T460 872T522 870T578 868Q595 866 616 863T657 860Q688 860 697 876T707 918Q707 944 703 971T698 1014Q698 1029 704 1041T711 1065Q711 1116 705 1168T698 1266Q698 1284 703 1310T723 1362T761
1405T823 1423Q849 1423 883 1415T950 1393T1008 1364T1044 1331Q1053 1317 1056 1298T1061 1256T1063 1210T1065 1165Q1067 1135 1070 1098T1077 1021T1089 940T1108 862Q1112 847 1119 835T1132 811T1143 789T1147 768Q1147 754 1144 741T1141 711Q1141 672 1150
627T1159 537Q1159 521 1158 506T1157 477Q1157 462 1161 447T1170 416T1179 386T1184 356Z" />
<glyph unicode="I" glyph-name="I" horiz-adv-x="561" d="M512 1014Q510 995 505 979T500 940Q500 911 502 881T504 825Q504 798 499 781T485 752T466 728T448 702T434 664T428 606Q428 535 432 460T436 299Q436 271 434 246T427 197T418 148T406 96Q399 65 393
42T374 2T335 -22T264 -31Q231 -31 216 -17T194 21T181 74T164 135Q156 153 147 163T131 185T118 214T113 264Q113 290 115 320T121 381T126 445T129 510Q129 538 125 559T117 599T108 638T104 688Q104 716 107 733T115 763T123 788T127 817Q127 835 117 851T94
883T71 912T63 940Q63 948 66 959T72 982T79 1007T82 1032Q82 1073 72 1111T61 1184Q61 1189 61 1194T63 1204Q65 1216 76 1235T101 1273T129 1305T150 1319Q156 1319 161 1318T172 1317Q192 1317 223 1321T289 1325Q314 1325 339 1324T385 1319T423 1311T449 1298Q452
1296 460 1279T479 1242T496 1203T506 1178Q509 1161 511 1130T514 1065Q514 1053 513 1040T512 1014Z" />
<glyph unicode="J" glyph-name="J" horiz-adv-x="1221" d="M1141 881Q1138 822 1138 763T1135 647Q1133 624 1128 600T1122 553Q1122 534 1125 518T1128 485Q1128 467 1122 451T1110 414Q1106 393 1105 370T1103 324T1101 280T1096 242Q1093 230 1083 216T1059
186T1034 157T1014 129Q1008 118 1004 105T997 79T991 54T983 35Q975 23 959 13T923 -4T883 -18T844 -29Q807 -39 776 -49T715 -67T655 -81T588 -86Q549 -86 509 -81T432 -68T363 -49T305 -23Q294 -16 279 -13T256 -4Q245 4 233 19T205 47Q171 72 139 97T84 166Q76
181 75 202T66 242Q59 259 49 273T35 299Q31 314 29 332T25 369T21 408T14 444Q8 473 -2 507T-12 567Q-12 584 -5 593T12 610T33 626T53 647Q62 661 66 676T74 706T85 734T104 756Q115 763 128 766T154 769T182 770T211 774Q233 779 246 786T274 793Q302 793 324
782T369 762Q397 750 418 738T457 709T490 673T520 623Q532 600 537 586T543 558T545 526T547 477Q547 452 553 428T559 377Q559 354 558 330T557 281Q557 245 561 211T577 149T611 105T672 88Q691 88 705 101T729 134T746 178T761 226T775 269T793 299Q799 305
799 326Q799 357 795 382T791 432Q791 491 799 551T807 674Q807 705 802 730T792 780T781 832T776 895V963Q776 981 771 1009T761 1073T750 1148T745 1227Q745 1266 754 1288T779 1321T813 1336T850 1343Q872 1347 896 1350T944 1354Q967 1354 980 1349T1004 1335T1025
1315T1053 1292Q1076 1277 1097 1272T1128 1255Q1144 1234 1150 1197T1157 1116Q1157 1054 1151 991T1141 881Z" />
<glyph unicode="K" glyph-name="K" horiz-adv-x="1257" d="M1245 1128Q1238 1091 1207 1064T1134 1014T1050 972T979 932Q970 925 956 916T928 896T906 874T897 854Q897 839 906 823T927 792T950 763T967 741Q971 733 973 723T978 701T983 677T991 653Q1001 631
1016 608T1047 563T1078 519T1106 477Q1118 456 1130 430T1157 381Q1166 366 1176 355T1195 333T1208 313T1214 287Q1214 255 1190 226T1129 173T1047 130T961 96Q936 88 918 80T891 72Q849 74 824 100T782 164T754 243T727 317Q719 334 703 354T676 395Q667 410
657 436T637 493T615 554T592 609T569 650T547 666Q541 666 533 661T516 649T502 636T492 629Q480 620 471 618T455 611T444 598T440 569Q440 546 450 517T467 457Q473 423 476 388T485 326Q489 295 495 262T506 196T516 133T520 78Q520 73 518 61T512 33T499 2T479
-23Q472 -28 449 -36T396 -51T340 -63T297 -68Q283 -68 260 -66T211 -59T164 -49T131 -35Q113 -23 101 3T81 58T70 112T66 147Q66 189 71 233T83 322T94 410T100 496Q100 517 99 544T94 596Q92 608 87 621T82 647Q82 671 87 702T97 766T108 834T113 901Q113 951
107 992T100 1065Q100 1077 106 1096T113 1126Q113 1136 112 1144T111 1161Q111 1186 122 1199T145 1223T169 1249T180 1292V1317Q180 1359 193 1382T230 1417T291 1430T373 1432Q391 1432 402 1425T420 1407T429 1380T432 1350Q432 1318 425 1280T416 1204Q413
1161 409 1122T402 1045T396 968T393 887Q393 868 394 858T401 848Q407 848 419 855T445 871T470 889T485 901Q539 940 585 970T675 1028T766 1080T866 1135Q892 1149 918 1167T961 1192Q973 1195 991 1195T1018 1198Q1029 1202 1047 1214T1087 1240T1132 1265T1176
1276Q1205 1276 1226 1244T1247 1161Q1247 1153 1247 1145T1245 1128Z" />
<glyph unicode="L" glyph-name="L" horiz-adv-x="969" d="M975 236Q977 228 978 220T979 203Q979 139 958 94T900 19T812 -30T702 -58T579 -71T449 -74Q411 -74 376 -73T309 -68Q271 -63 242 -49T184 -29Q161 -24 131 -23T74 -17T29 -1T10 33Q10 42 13 53T25 78V76Q26
76 33 82T47 97T59 111T63 117Q78 127 91 127T114 133T129 153T135 207Q135 241 134 277T131 345T128 399T127 428Q127 474 128 524T129 629Q129 678 125 727T117 825T108 919T104 1008Q104 1035 108 1058T118 1103T128 1146T133 1194Q133 1229 128 1261T123 1329Q123
1363 125 1388T137 1429T162 1454T205 1462Q239 1462 264 1455T310 1436T350 1413T393 1393Q424 1382 445 1380T481 1374T508 1356T530 1311Q533 1302 536 1288T543 1255T547 1216T549 1174Q549 1123 544 1066T539 958Q539 932 542 907T545 856Q542 784 536 712T523
565T511 415T506 258Q506 250 505 243T505 229T511 219T528 215Q574 215 624 223T719 242T803 261T862 270Q879 270 897 269T932 264T960 253T975 236Z" />
<glyph unicode="M" glyph-name="M" horiz-adv-x="1493" d="M1450 502Q1450 446 1442 384T1420 267T1384 172T1335 117Q1324 111 1304 105T1258 93T1205 85T1153 82Q1137 82 1114 88T1070 106T1035 137T1020 180Q1020 200 1019 221T1018 262Q1018 327 1020 396T1022
539Q1022 607 1019 676T1006 817Q983 802 965 778T930 727T898 670T866 616Q851 593 830 577T797 541Q785 521 783 502T773 469T744 446T674 438Q643 438 626 449T595 479T570 524T539 578Q528 593 516 604T494 629Q482 648 469 672T444 721T421 771T399 817Q401
779 402 739T403 655V541Q403 504 403 467T406 395Q407 374 411 352T419 307T428 261T432 217Q432 196 429 186T418 169T401 153T375 129Q360 113 348 95T320 62T287 37T244 27Q212 27 179 36T118 61T73 102T55 156Q55 194 64 249T74 367Q74 391 77 407T84 438T94
467T102 502Q107 532 109 567T114 639T117 716T121 793Q122 811 125 828T132 863T138 900T141 942Q141 963 138 981T130 1018T123 1058T119 1108Q119 1126 124 1147T138 1192T155 1241T172 1292Q176 1305 177 1318T178 1342T179 1362T184 1374Q186 1378 197 1383T220
1393T244 1402T260 1407Q274 1407 285 1399T317 1386Q346 1380 374 1378T427 1373T472 1364T506 1343Q520 1328 532 1305T555 1255T578 1202T602 1153Q613 1133 628 1117T651 1083Q657 1072 658 1058T666 1032Q669 1025 685 997T720 938T756 881T778 856Q790 856
800 873T821 915T842 968T866 1020Q882 1046 902 1069T936 1122Q945 1141 954 1171T975 1234T999 1302T1030 1363T1068 1408T1116 1425Q1129 1425 1138 1422T1156 1412T1178 1399T1208 1386Q1225 1381 1242 1378T1276 1372T1305 1365T1329 1350Q1339 1339 1345
1322T1354 1285T1359 1242T1362 1196Q1362 1162 1360 1131T1358 1071Q1358 1048 1361 1031T1369 997T1378 957T1382 903Q1382 872 1380 839T1378 774Q1378 736 1383 714T1397 676T1414 648T1430 616Q1433 608 1436 593T1442 562T1447 529T1450 502Z" />
<glyph unicode="N" glyph-name="N" horiz-adv-x="1190" d="M1106 514Q1106 506 1107 499T1108 483Q1108 440 1101 394T1094 299Q1094 282 1095 263T1096 223Q1096 198 1093 173T1079 128T1050 95T999 82Q981 82 967 87T938 99T907 111T870 117Q853 117 829 115T780
113Q746 113 731 118T710 133T702 158T690 193Q685 201 675 209T657 229Q649 242 645 253T636 273T625 292T606 311Q594 320 587 326T573 338T561 352T545 375Q529 396 516 421T487 471Q470 496 447 514T412 553Q402 568 394 586T378 625T363 666T348 705Q351 626
350 546T354 387Q356 353 361 325T367 262Q367 233 357 195T342 111Q338 77 337 53T327 14T301 -9T246 -16Q235 -16 221 -15T194 -10T169 -4T152 2Q147 5 141 20T127 47Q118 57 111 65T99 83T91 107T88 145Q88 195 94 248T100 350Q100 370 93 400T86 461Q86 501
87 539T88 616Q88 685 81 751T74 883Q74 908 79 929T91 971T103 1018T109 1077Q109 1090 108 1103T106 1128Q106 1193 143 1225T244 1257Q272 1257 307 1251T374 1236T432 1216T467 1192Q476 1181 479 1160T494 1122Q506 1102 524 1087T551 1059Q556 1051 558 1036T569
1001Q576 987 591 971T621 938Q633 923 643 905T664 874Q691 844 720 820T772 768Q789 745 802 720T825 674T844 639T860 625Q868 625 870 642T872 686Q872 705 871 727T869 769T867 806T866 831Q866 847 872 865T879 909Q879 950 875 994T870 1083Q870 1114 875
1142T887 1195T899 1245T905 1294Q905 1319 902 1339T894 1376T887 1409T883 1440Q883 1456 889 1471T905 1498T931 1517T967 1524Q971 1524 989 1522T1028 1507T1065 1468T1081 1395Q1081 1375 1078 1354T1075 1307Q1075 1259 1078 1213T1086 1123T1094 1039T1098
963Q1098 903 1092 847T1085 750Q1085 691 1093 629T1106 514Z" />
<glyph unicode="O" glyph-name="O" horiz-adv-x="1077" d="M1038 262Q1036 254 1030 244T1014 221T994 193T975 160Q962 134 953 115T936 80T916 50T887 20Q870 4 858 -2T830 -10T795 -14T741 -23Q715 -29 694 -38T657 -49Q634 -49 608 -41T547 -33Q527 -33 506
-34T463 -35Q431 -35 400 -33T336 -23Q299 -15 274 -1T221 27Q210 31 197 35T171 42T148 50T133 59Q125 68 121 91T113 143T103 203T88 262Q82 280 76 292T64 318T55 347T51 387Q51 438 58 489T66 582Q66 605 64 628T61 674Q61 714 75 759T102 856Q116 918 125
970T145 1077Q152 1108 170 1134T214 1180T274 1212T348 1229Q350 1229 351 1232T358 1235Q426 1235 490 1234T611 1221T713 1178T791 1090Q799 1077 801 1062T811 1032Q823 1007 842 989T872 950Q883 927 890 901T911 850Q927 821 945 794T978 742T1004 692T1014
645Q1014 631 1013 617T1012 588Q1012 569 1018 551T1026 514Q1026 485 1021 454T1016 391Q1016 379 1019 364T1027 332T1034 299T1038 270V262ZM684 457Q684 480 677 494T664 532Q660 551 659 570T651 610Q645 630 636 651T625 692Q625 702 626 711T627 731Q627
772 615 815T582 893T537 952T485 975Q476 975 465 974T443 972T425 971T418 971Q410 965 408 955T406 930Q406 919 407 906T408 877Q408 854 401 814T387 729Q384 711 383 693T380 656T377 623T373 596Q372 591 367 583T355 566T343 547T336 532Q330 508 330 483Q330
426 341 391T377 337T442 310T541 303Q561 303 577 304T602 311Q611 316 624 335T651 378T673 424T684 457Z" />
<glyph unicode="P" glyph-name="P" horiz-adv-x="1016" d="M1018 825Q1018 804 1011 793T999 762Q989 718 982 663T961 556T923 465T854 414Q843 411 827 410T791 408T750 406T709 401Q680 396 657 387T614 375Q598 373 576 373T535 372T501 369T487 360Q487 315
495 266T512 167T529 70T537 -20Q537 -31 536 -45T530 -74T517 -104T494 -131Q481 -140 458 -141T412 -156Q402 -161 397 -168T385 -181T369 -192T342 -197Q327 -197 316 -193T295 -184T276 -172T254 -162Q228 -153 205 -148T164 -133T136 -106T125 -53Q125 -35
129 -14T133 27Q133 75 127 117T121 186Q121 198 127 214T142 248T156 280T164 305Q166 318 167 329T168 352Q168 379 165 406T157 459T149 510T145 559Q145 627 148 700T155 849T162 1002T166 1157Q166 1174 164 1184T150 1194Q141 1194 130 1191T105 1185T78
1179T53 1176Q43 1176 39 1178Q35 1179 27 1184T10 1196T-5 1211T-12 1229Q-12 1241 -5 1256T6 1286Q12 1309 11 1323T18 1350Q26 1358 40 1363T71 1372T102 1377T127 1380Q185 1386 260 1386Q308 1386 358 1384T457 1377T551 1365T633 1350Q671 1341 705 1322T769
1278T826 1223T879 1165Q892 1150 904 1137T925 1113T940 1089T946 1063V1040Q946 1024 950 1014T959 997T970 982T981 963Q984 953 983 937T987 907Q995 879 1006 862T1018 825ZM672 856Q672 865 665 883T657 928V969Q657 1018 644 1058T609 1126T561 1170T508
1186Q492 1186 478 1184T444 1182Q432 1182 418 1184T387 1192Q388 1181 389 1152T393 1082T398 993T404 895T410 800T416 719T422 663T428 641Q440 641 450 644T470 653T490 663T512 672Q524 676 539 678T569 683T597 691T621 705Q633 717 634 741T645 799Q650
816 660 830T672 856Z" />
<glyph unicode="Q" glyph-name="Q" horiz-adv-x="1104" d="M1047 961Q1040 871 1033 781T1022 612Q1020 586 1014 568T1008 526Q1008 508 1010 490T1012 451Q1012 395 1002 353T975 276T939 215T901 164Q886 144 871 124T831 88Q826 83 814 82T788 74Q777 69 771
61T756 49Q742 44 707 38T634 24T565 7T528 -14Q534 -32 536 -52T544 -89T561 -117T596 -129Q615 -129 635 -124T674 -111T705 -98T725 -90Q740 -86 762 -80T806 -67T848 -57T881 -53Q902 -53 919 -66T947 -104T965 -160T971 -231Q971 -276 961 -314T928 -369Q922
-373 899 -380T849 -394T799 -406T770 -412Q748 -412 715 -403T643 -393Q611 -393 586 -395T539 -397Q503 -397 470 -382T410 -337T368 -268T352 -176Q352 -164 357 -146T367 -107T378 -65T383 -25Q383 2 360 13T305 30T238 37T180 49Q156 58 140 75T110 114T85
163T59 219Q50 239 40 268T29 328Q29 349 34 373T46 422T61 475T74 530Q82 584 85 642T98 752Q101 764 107 776T117 803Q125 838 128 879T134 959T142 1034T162 1094Q167 1102 177 1108T199 1119T225 1132T250 1149Q258 1156 263 1165T271 1185T279 1204T289 1219Q294
1225 306 1229T326 1239Q337 1248 340 1256T352 1270Q375 1283 413 1292T489 1315Q525 1329 555 1348T610 1378Q623 1381 642 1380T680 1384Q692 1387 701 1390T721 1395T743 1400T774 1403Q776 1403 779 1406T788 1409Q801 1409 819 1404T856 1390T889 1374T913
1358Q922 1351 929 1340T943 1315T959 1289T977 1264Q994 1245 1014 1234T1040 1212Q1048 1198 1051 1171T1055 1112Q1055 1074 1053 1033T1047 961ZM725 625Q723 642 718 657T708 688T699 722T694 766Q694 800 686 823T667 863T645 895T629 928Q622 951 620 987T614
1057T601 1116T569 1141Q515 1141 483 1118T433 1056T408 966T398 857T391 740T377 625Q375 618 371 606T361 581T350 556T344 537Q342 528 338 504T330 448T323 377T319 301Q319 277 324 265T338 244T358 229T383 213Q400 199 417 188T455 176Q474 176 501 183T556
200T605 221T635 240Q647 251 654 278T680 340Q687 355 695 365T710 385T721 407T725 440Q725 463 722 490T719 543Q719 561 722 581T725 616V625Z" />
<glyph unicode="R" glyph-name="R" horiz-adv-x="1161" d="M1112 858Q1107 847 1100 834T1084 807T1067 782T1051 764Q1036 752 1011 744T962 729T921 713T903 690Q903 676 910 656T925 615T942 578T954 555Q967 527 987 493T1018 428Q1027 403 1030 373T1042
315Q1049 286 1059 261T1069 211Q1069 189 1055 165T1021 118T978 77T936 49Q926 44 906 37T860 21T807 8T754 2Q711 2 686 37T646 128T620 250T594 379Q586 410 576 443T551 518Q542 546 537 570T524 612T507 640T479 651Q435 651 417 646T394 624T390 577T385
498Q379 450 372 395T365 281Q365 247 372 217T379 164Q379 131 367 108T333 69T285 46T229 39Q193 39 163 41T110 54T76 89T63 156Q63 215 72 267T93 370T113 471T123 575Q123 607 121 641T119 711Q119 745 121 777T126 842T131 915T133 1004Q133 1031 132 1050T128
1082T116 1107T94 1130Q88 1136 81 1139T68 1147T57 1162T53 1190Q53 1205 58 1221T75 1254T102 1285T139 1309Q158 1316 184 1316T233 1321Q258 1326 279 1334T315 1346Q367 1352 422 1352Q442 1352 461 1351T500 1350Q555 1350 608 1355T709 1366T800 1377T879
1382Q900 1382 913 1381T939 1375T966 1357T1006 1321Q1022 1306 1033 1296T1054 1276T1070 1251T1087 1212Q1095 1192 1095 1164T1100 1106Q1104 1080 1109 1058T1119 1017T1127 980T1130 944Q1130 924 1127 904T1112 858ZM924 967Q923 972 918 976T905 986T888
999T872 1018Q857 1040 854 1058T842 1085Q825 1102 792 1111T727 1120Q708 1120 683 1119T628 1115T568 1108T506 1100Q491 1098 465 1094T413 1084T369 1070T350 1051Q350 1035 354 1016T360 985Q364 950 364 919T373 864Q391 869 408 870T440 872Q460 872 480
871T524 870Q549 870 580 873T643 879T709 886T772 891Q786 891 799 890T825 889Q840 889 857 894T889 908T914 931T924 963V967Z" />
<glyph unicode="S" glyph-name="S" horiz-adv-x="1153" d="M1112 449Q1110 421 1102 396T1094 346Q1094 334 1096 315T1098 274Q1098 236 1080 206T1034 150T972 100T903 49Q879 30 863 11T826 -23T773 -47T684 -57Q653 -57 621 -53T556 -42T495 -32T440 -27Q419
-27 400 -31T362 -35Q354 -35 334 -29T291 -11T245 17T207 55Q193 74 190 95T176 137Q162 162 140 185T100 240Q85 269 74 310T49 391Q31 444 14 486T-4 557Q-4 590 5 627T29 697T63 751T104 772Q115 772 127 768T152 764Q169 766 180 774T205 782Q218 782 242
778T291 766T339 752T373 739Q389 731 407 711T440 667T465 617T475 571Q475 560 474 549T473 526Q473 506 480 486T492 440Q496 412 497 387T502 341T510 300T530 264Q550 238 586 223T657 207Q679 207 692 214T716 231T735 251T758 270Q778 282 796 288T828 305T850
334T858 387Q858 415 848 446T834 510Q831 538 830 557T827 594T818 629T797 670Q793 674 779 690T747 725T707 757T668 772Q660 772 653 771T637 770Q605 770 572 784T503 818T432 862T360 903Q330 918 293 931T222 960T167 997T145 1051Q145 1057 147 1075T154
1116T164 1167T178 1220T194 1267T213 1300Q227 1317 248 1333T291 1361T328 1381T350 1389Q359 1389 367 1388T385 1386Q404 1386 417 1390T441 1402T462 1415T485 1427Q502 1434 526 1434T575 1440Q603 1446 645 1454T731 1470T813 1483T870 1487Q880 1487 891
1482T909 1460Q922 1451 939 1447T967 1434Q982 1421 998 1400T1030 1364Q1045 1349 1056 1338T1075 1316T1086 1294T1090 1266Q1090 1234 1083 1204T1060 1151T1016 1113T946 1098Q921 1098 892 1103T840 1118Q828 1122 816 1131T792 1149T767 1168T739 1182Q724
1187 700 1191T651 1199T601 1204T561 1206Q540 1206 520 1204T485 1194T459 1173T449 1139Q449 1127 453 1118T466 1102T488 1086T518 1067Q533 1057 547 1045T576 1022T606 1001T637 985Q656 979 676 978T713 973Q772 959 823 933T919 871T998 796T1061 713Q1074
692 1082 676T1094 643T1099 607T1100 561Q1100 530 1106 501T1112 449Z" />
<glyph unicode="T" glyph-name="T" horiz-adv-x="1116" d="M1126 1143Q1128 1127 1129 1110T1130 1075Q1130 1021 1120 987T1090 932T1037 905T961 897Q941 897 925 900T892 907T852 914T799 918Q767 918 734 917T676 915Q655 915 635 915T599 910T573 898T563
874Q563 816 570 766T578 674Q578 626 576 580T573 483Q573 432 580 379T588 283Q588 263 586 248T582 222T577 203T575 188Q575 173 581 155T588 131Q586 87 578 56T551 4T497 -25T406 -35Q391 -35 372 -32T334 -24T300 -10T279 10Q273 20 272 36T270 71T268 110T260
150Q252 174 239 188T212 215T190 241T180 274Q180 310 189 360T210 463T230 566T240 651V700Q240 719 243 739T250 780T257 819T260 854Q260 889 240 900T186 911H143Q123 911 104 914T70 928Q66 932 56 952T34 996T15 1040T6 1065Q6 1082 15 1096T31 1130Q38
1156 42 1177T50 1215T61 1244T84 1265T124 1278T190 1282Q202 1282 213 1278T236 1270T258 1261T281 1257Q303 1257 313 1266T328 1288T339 1317T357 1346T394 1369T461 1378Q492 1375 505 1361T525 1328T540 1292T569 1264Q572 1262 588 1260T625 1256T663 1253T690
1251Q710 1251 730 1254T770 1257Q789 1257 805 1252T839 1239T878 1227T928 1221Q960 1221 987 1224T1038 1227Q1056 1227 1070 1224T1096 1211T1114 1186T1126 1143Z" />
<glyph unicode="U" glyph-name="U" horiz-adv-x="999" d="M956 612V600Q956 572 953 540T950 479Q950 462 951 445T952 410Q952 389 947 372T935 338T920 304T905 264Q900 246 897 228T890 191T884 158T874 131Q858 99 827 72T764 26T705 -5T672 -16Q650 -16 629
-12T584 -8Q542 -8 499 -15T412 -23Q385 -23 365 -19T320 -2T265 31T184 88Q160 105 143 117T112 149T89 199T70 283Q70 288 69 292T68 301Q68 317 70 332T72 365Q72 382 67 396T56 425T45 452T39 479Q39 487 45 503T51 535V569Q51 582 55 593T64 614T74 636T78
662Q78 694 71 726T63 791Q63 818 77 849T102 922Q110 951 114 984T127 1049Q138 1092 151 1133T178 1225Q183 1245 190 1262T197 1294Q197 1305 195 1315T193 1335Q193 1351 209 1365T254 1380Q282 1380 307 1370T352 1343T383 1308T395 1270Q395 1254 392 1234T385
1193T376 1155T369 1124Q358 1066 348 1005T329 882T315 755T311 625Q311 559 317 492Q319 476 319 456T319 416T322 379T330 352Q334 345 350 336T391 319T442 305T494 299Q530 299 546 313T569 350T574 404T575 467Q577 505 584 541T590 606Q588 643 577 688T563
782Q563 799 566 816T569 850Q569 863 568 882T564 923T561 970T559 1020Q559 1083 573 1122T633 1161Q648 1161 666 1159T702 1155Q719 1155 741 1158T784 1161Q797 1161 815 1154T850 1133T882 1096T905 1042Q911 1015 912 983T918 922Q924 888 931 854T938 791Q938
772 937 754T936 717Q936 685 945 663T956 612Z" />
<glyph unicode="V" glyph-name="V" horiz-adv-x="1092" d="M1077 1200V1194Q1077 1175 1063 1150T1038 1094Q1033 1078 1032 1064T1026 1036Q1020 1020 1012 1004T998 970T986 930T981 881Q981 858 985 834T989 788Q989 778 985 767T974 743T962 715T950 682Q944
656 941 628T932 573Q926 552 916 531T896 487T880 443T874 401Q874 392 875 384T877 367Q877 337 868 305T846 242T825 183T815 131V106Q815 97 814 90T811 74Q807 64 792 46T757 10T719 -22T690 -39Q682 -42 670 -42T641 -43Q570 -43 523 -40T443 -23T390 16T350
88Q345 97 344 113T338 143Q333 155 329 165T321 186T313 209T305 240Q300 258 292 273T277 302T264 324T258 342Q258 348 259 355T260 369Q260 400 242 448T201 548T160 650T141 733Q141 752 147 769T154 807Q154 830 143 841T117 859T84 876T53 903Q48 909 44
924T35 958T25 998T14 1036Q9 1051 5 1070T-4 1112T-11 1159T-14 1206Q-14 1244 -4 1277T33 1327Q40 1331 53 1332T82 1335T114 1339T141 1346Q158 1353 166 1364T190 1387T236 1406T328 1415Q354 1415 377 1413T414 1403Q440 1388 453 1348T475 1257T488 1148T502
1042Q506 1017 510 998T519 960T525 921T528 872V813Q528 763 538 713T562 614T587 515T602 416Q608 416 614 432T628 476T644 537T662 607T683 679T705 745Q710 759 717 770T729 795Q735 815 734 835T741 870Q751 889 770 906T799 948Q805 963 807 981T810 1018T814
1058T823 1100Q832 1131 844 1167T871 1235T908 1288T956 1309Q974 1307 994 1295T1032 1265T1062 1230T1077 1200Z" />
<glyph unicode="W" glyph-name="W" horiz-adv-x="1468" d="M1397 1176Q1397 1154 1391 1132T1384 1090Q1384 1062 1387 1036T1391 985Q1391 957 1386 931T1376 878T1365 826T1360 774Q1360 756 1363 738T1366 702Q1366 684 1363 669T1356 637T1349 604T1346 565Q1346
527 1347 491T1348 414Q1348 397 1347 379T1346 340Q1346 321 1337 297T1327 246Q1327 229 1327 203T1324 151T1316 104T1303 74Q1290 61 1263 57T1204 53Q1176 53 1150 54T1106 55Q1092 55 1078 49T1055 43Q1046 44 1027 53T989 75T952 99T930 119Q920 131 915
147T905 183T890 223T860 264Q855 269 846 270T834 276Q829 284 828 295T821 315Q819 319 810 331T790 357T770 380T758 391Q746 390 734 369T709 319T687 264T670 225Q665 217 653 209T639 195Q619 159 606 120T569 43Q553 17 543 5T520 -12T488 -17T436 -20Q415
-22 393 -27T354 -33Q336 -33 320 -25T285 -14Q251 -7 223 -3T175 13T144 48T133 113V152Q133 176 127 203T114 256T100 301T94 334Q94 339 97 348T103 367T110 388T113 408Q113 423 108 440T98 475T87 512T82 553Q82 564 85 576T88 600Q87 617 83 635T74 673T65
713T61 756Q61 771 62 787T63 817Q63 838 57 863T44 917T31 976T25 1036Q25 1053 27 1073T33 1111T41 1143T49 1163Q53 1166 66 1169T97 1175T133 1181T164 1188Q199 1199 230 1209T293 1221Q308 1221 324 1220T356 1219Q385 1219 411 1228T459 1237Q477 1237 488
1225T506 1191T514 1143T516 1087Q516 1044 514 1001T512 926Q512 903 518 879T524 831Q524 808 519 782T512 733Q509 702 507 671T500 618Q495 604 485 591T473 561Q473 549 478 533T485 498Q490 459 490 420T494 346Q509 374 521 408T545 478T568 551T594 625Q606
657 622 692T654 762T685 830T709 891Q716 915 719 936T729 973T752 998T803 1008Q853 1008 876 997T908 965T921 917T936 858Q948 821 973 784T1018 707Q1038 666 1055 625T1087 543Q1089 557 1090 569T1092 596Q1092 626 1088 655T1080 714T1071 770T1067 825Q1067
839 1068 854T1069 883Q1069 914 1059 939T1038 987T1016 1031T1006 1077Q1006 1097 1010 1130T1014 1200Q1014 1243 1006 1279T997 1341Q997 1346 997 1349T999 1358Q1005 1395 1016 1411T1043 1431T1079 1436T1124 1440Q1135 1441 1151 1444T1186 1451T1227 1457T1268
1460Q1310 1460 1335 1441T1374 1388T1392 1310T1397 1214V1176Z" />
<glyph unicode="X" glyph-name="X" horiz-adv-x="1126" d="M1087 1149V1143Q1087 1107 1079 1089T1056 1060T1022 1037T981 1004Q939 960 906 912T836 815Q828 805 815 794T790 772T769 750T760 731Q760 719 774 705T807 676T847 648T879 625Q894 612 911 597T945
564T974 527T993 485Q998 467 999 448T1000 410T1001 375T1006 346Q1012 326 1029 308T1057 264Q1060 255 1064 238T1072 201T1078 163T1081 135Q1081 117 1077 108T1067 93T1053 80T1036 61Q1021 40 1014 23T994 -6T960 -24T895 -31Q864 -31 835 -28T791 -20Q752
-7 733 13T701 60T678 121T645 195Q633 215 622 226T601 245T585 263T578 289Q578 304 575 312T567 325T558 335T551 346Q548 355 546 368T541 394T534 416T524 428Q513 428 499 411T473 371T450 329T436 303Q415 271 386 241T342 182Q324 150 309 114T275 45T231
-8T170 -31Q139 -31 109 -19T63 4Q58 8 48 20T27 47T8 75T0 96Q0 103 4 109T13 124T23 142T27 166Q27 175 25 181T23 195Q23 198 33 211T57 243T89 281T122 318T147 346T158 358Q179 381 199 393T233 428Q240 439 245 454T260 485Q267 498 284 523T318 573T348
616T358 635Q360 635 360 631Q360 640 351 653T328 683T299 717T272 752Q239 799 213 837T164 913T122 990T82 1079Q74 1099 63 1118T51 1149Q51 1180 71 1204T118 1245T170 1269T205 1278Q249 1278 285 1233Q293 1222 305 1210T331 1185T357 1160T379 1137Q393
1119 403 1102T425 1068T450 1035T481 1004Q497 991 516 983T551 961Q559 952 565 940T577 917T589 899T604 891Q619 891 629 902T647 930T664 963T684 991Q690 999 708 1005T739 1024Q765 1047 792 1081T848 1149Q862 1167 877 1187T908 1224T940 1252T971 1264Q992
1264 1012 1253T1048 1225T1074 1188T1087 1149Z" />
<glyph unicode="Y" glyph-name="Y" horiz-adv-x="1208" d="M1198 1212Q1204 1170 1204 1122Q1204 1084 1198 1045T1174 967Q1166 950 1154 935T1130 905T1108 876T1092 846Q1084 827 1081 807T1075 766T1071 726T1065 688Q1056 653 1049 632T1034 595T1018 568T997
537Q986 521 980 508T970 481T962 448T952 403Q950 397 947 393T941 384T935 373T932 358Q932 352 933 345T934 332Q934 321 927 308T909 280T887 252T870 225Q858 202 852 181T831 137Q813 108 786 71T728 0T663 -57T600 -80Q589 -80 577 -79T553 -78Q527 -78
509 -82T478 -90T453 -98T428 -102Q416 -102 407 -100T390 -93T373 -83T352 -72Q321 -59 294 -53T243 -43T197 -34T153 -16T108 22T59 88Q42 115 26 135T-4 174T-25 213T-33 262Q-33 307 -27 336T4 379Q25 389 44 413T79 466T111 527T142 585T173 629T205 647Q217
647 232 638T263 617T290 590T307 567Q310 561 311 550T312 524T314 494T319 461Q323 447 332 436T344 410Q349 394 348 377T352 346Q368 298 407 266T506 233Q543 233 592 252Q603 256 621 271T656 304T685 343T698 379Q698 398 680 407T638 421T594 428T567 434Q559
440 553 451T542 477T530 505T516 530Q508 540 494 546T465 567Q451 581 443 599T420 631Q404 646 380 655T338 682Q332 688 330 702T319 725Q311 734 299 736T283 745Q280 747 277 759T268 782Q263 792 256 799T248 815Q248 820 249 824T250 834Q250 844 245 853T234
871T222 887T217 903Q217 922 224 942T231 991Q231 1009 228 1028T221 1067T214 1106T211 1143Q211 1158 216 1170T228 1193T240 1219T246 1253Q246 1272 243 1291T240 1325Q240 1336 243 1348T255 1370T279 1388T319 1395Q346 1395 363 1384T390 1356T407 1316T416
1273T423 1234T434 1206Q441 1195 454 1188T484 1174T517 1160T547 1143Q562 1130 573 1104T598 1049Q609 1024 625 999T649 954Q657 933 657 910T668 864Q676 845 698 819T745 770T791 730T819 713Q833 717 840 744T851 805T859 875T870 934Q877 959 885 972T901
995T919 1016T940 1049Q945 1060 945 1077T952 1112Q957 1126 965 1137T977 1163Q986 1194 990 1224T1001 1279T1021 1318T1063 1333Q1085 1333 1107 1328T1143 1315Q1143 1314 1151 1300T1170 1268T1189 1234T1198 1212Z" />
<glyph unicode="Z" glyph-name="Z" horiz-adv-x="1145" d="M1167 94Q1163 71 1158 48T1141 5T1109 -27T1055 -39Q1041 -39 1027 -35T998 -27T964 -18T924 -14Q895 -14 867 -20T807 -27Q770 -27 728 -21T639 -14Q570 -14 502 -18T373 -23Q354 -23 340 -21T312 -16T286
-9T256 -2Q230 2 205 5T156 13T115 22T86 37Q73 48 67 64T57 100T52 144T47 195Q44 218 39 237T33 276Q33 274 34 284T40 309T50 340T66 365Q77 376 93 382T128 394T163 405T193 422Q201 429 206 439T214 459T221 479T231 498Q236 506 251 519T274 543Q316 594
362 646T453 753T540 870T616 1004Q584 996 555 990T498 978T444 964T389 948Q368 940 348 930T307 911T260 892T205 879Q191 875 179 868T150 860Q129 860 113 876T86 918T69 976T63 1042Q63 1073 69 1098T86 1137Q92 1145 111 1150T150 1169Q167 1182 175 1198T193
1219Q201 1224 221 1226T256 1233Q278 1238 293 1244T317 1251Q333 1251 350 1245T383 1239Q412 1239 440 1248T498 1257Q516 1257 534 1256T571 1255Q596 1255 618 1259T662 1268T703 1279T743 1288Q763 1291 780 1291T813 1293T844 1297T877 1309H883Q910 1309
937 1297T985 1265T1020 1220T1034 1169V1151Q1034 1140 1042 1133T1061 1117T1081 1095T1090 1059Q1090 1035 1080 1015T1054 977T1022 941T989 903Q975 884 965 864T946 821T925 773T895 719Q876 690 853 667T813 618Q793 588 777 562T746 508T715 450T680 385Q671
368 661 348T642 310T629 278T623 260Q623 254 640 249T683 238T742 227T803 218T856 211T889 207H901H936Q959 207 977 201T1008 195Q1034 195 1056 200T1098 205Q1132 205 1150 180T1169 115Q1169 110 1168 105T1167 94Z" />
<glyph unicode="[" glyph-name="bracketleft" horiz-adv-x="614" d="M592 -195Q581 -220 557 -231T500 -245T431 -250T358 -256Q344 -258 333 -262T309 -270T284 -276T254 -279Q182 -279 146 -266T96 -223T81 -148T80 -35Q80 18 89 70T98 174Q98 200 92 227T86
283Q86 317 89 347T92 406Q92 430 90 441T85 463T80 488T78 537Q78 598 85 663T92 793Q92 874 86 952T80 1102Q80 1139 86 1171T92 1233Q92 1253 88 1286T84 1354Q84 1387 87 1403T103 1426T137 1435T195 1444Q215 1447 233 1455T264 1464Q286 1464 302 1460T334
1456Q357 1456 372 1461T401 1472T432 1484T475 1489H498Q500 1489 507 1491T524 1493Q532 1493 542 1483T562 1453T577 1408T584 1350Q584 1316 568 1306T526 1296Q515 1296 504 1297T483 1298Q465 1298 437 1294T380 1281T328 1259T295 1229Q290 1219 288 1204T286
1172T285 1137T283 1104Q273 1019 270 932T266 754Q266 641 271 525T276 281Q276 239 281 216T298 183T333 170T389 168Q411 168 434 169T481 170Q520 170 543 164T579 144T596 107T600 51Q600 14 596 -23T592 -80Q592 -91 594 -114T596 -160Q596 -172 595 -181T592
-195Z" />
<glyph unicode="\" glyph-name="backslash" horiz-adv-x="662" d="M606 33Q603 29 595 25T575 18T551 12T524 10Q499 10 489 16T474 33T468 60T455 94Q447 108 431 120T403 152Q398 160 395 176T385 209Q379 223 369 239T358 268Q358 274 359 281T360 295Q360
307 355 319T343 343T330 363T322 379Q318 397 317 414T316 449T315 485T309 524Q300 566 285 612T252 704T214 794T176 879Q162 910 153 940T131 993Q126 1004 114 1016T94 1044Q89 1053 85 1065T77 1090T70 1118T61 1145Q52 1167 45 1180T37 1202Q39 1233 66
1255T128 1293T197 1315T246 1323Q267 1323 276 1318T290 1302T298 1278T309 1245Q316 1230 327 1215T349 1182T372 1144T391 1100Q399 1074 403 1045T410 985T415 920T422 854Q427 818 439 774T463 685T485 597T498 518Q501 497 502 481T504 451T508 422T518 393Q521
379 533 365T545 336Q545 328 543 322T541 307Q541 299 553 273T579 212T606 141T618 74Q618 48 606 33Z" />
<glyph unicode="]" glyph-name="bracketright" horiz-adv-x="629" d="M559 1280Q557 1240 548 1202T539 1128Q539 1096 545 1060T551 983Q551 928 548 868T540 745T532 621T528 500Q528 440 536 388T545 287Q545 252 543 207T538 111T533 10T530 -90Q530 -113
533 -130T540 -160T547 -182T551 -201V-207Q550 -212 537 -229T506 -265T471 -301T444 -319Q430 -326 410 -326Q384 -326 355 -320T293 -313Q253 -313 216 -318T150 -324Q144 -324 125 -320T83 -306T44 -282T27 -250Q27 -243 29 -233T33 -212T37 -189T39 -168Q39
-150 36 -127T30 -78T23 -30T20 12Q20 11 24 25T36 57T57 89T84 104Q99 104 113 97T154 90Q181 90 208 91T258 100T293 123T307 166Q307 184 306 203T305 240Q305 265 308 283T315 316T322 347T326 383Q326 409 324 432T322 479Q322 503 327 526T339 574T350 626T356
684Q356 724 353 767T350 854Q350 888 353 922T356 989Q356 1033 349 1078T342 1169Q342 1179 342 1187T344 1204Q344 1210 347 1221T353 1243T359 1265T362 1282Q362 1291 352 1294T332 1298Q324 1298 316 1297T299 1296Q287 1296 277 1298T257 1304T237 1312T211
1319Q178 1325 143 1325T78 1329T29 1353T10 1415Q10 1424 10 1449T12 1503T19 1556T33 1589Q38 1594 52 1594T86 1595Q109 1595 133 1594T178 1593Q207 1593 228 1598T274 1604Q289 1604 302 1600T329 1590T359 1580T399 1575H438Q461 1575 483 1567T522 1543T550
1508T561 1466Q561 1442 559 1411T557 1352Q557 1333 558 1315T559 1280Z" />
<glyph unicode="^" glyph-name="asciicircum" horiz-adv-x="1014" d="M940 565Q934 545 912 531T861 505T802 486T750 471Q738 466 722 459T689 445T654 433T618 428Q590 428 572 448T542 501T521 572T502 649Q495 674 486 705T468 768T452 833T440 895Q428 886
418 864T397 814T377 756T356 698Q353 690 354 680T350 662Q347 655 338 652T326 641Q321 630 320 614T313 586Q305 564 299 552T293 520Q293 509 294 496T295 469Q295 415 268 390T170 365Q107 365 74 393T41 477Q41 525 57 573T93 662T131 729T156 762Q165 773
178 782T204 802T230 823T250 850Q255 859 256 876T262 907Q271 933 283 957T308 1007T331 1060T350 1122Q356 1150 359 1173T369 1213T391 1239T436 1249Q450 1249 467 1242T510 1231Q531 1228 557 1228T610 1226T662 1222T705 1210Q733 1195 753 1161T788 1083T814
991T838 901Q854 844 872 806T906 734T931 665T940 578V565Z" />
<glyph unicode="_" glyph-name="underscore" horiz-adv-x="1030" d="M1014 -338Q1014 -353 1014 -370T1009 -403T996 -428T969 -438Q955 -438 937 -435T899 -429T862 -423T829 -420Q811 -422 792 -428T752 -443T711 -461T666 -477Q625 -490 575 -496T475 -510Q418
-519 363 -528T256 -537Q224 -537 194 -530T139 -508T101 -474T86 -428Q86 -402 95 -378T109 -326Q111 -311 112 -292T114 -254T120 -219T133 -193Q148 -178 182 -172T253 -165T322 -164T367 -166Q395 -166 428 -166T497 -168T566 -171T633 -174Q671 -176 708 -181T772
-186Q797 -186 815 -177T854 -168Q912 -168 943 -177T989 -206T1008 -258T1014 -338Z" />
<glyph unicode="`" glyph-name="grave" horiz-adv-x="416" d="M6 1413Q0 1428 0 1448Q0 1479 12 1509T41 1562T79 1600T117 1614Q144 1614 163 1605T196 1583T222 1552T248 1520Q260 1506 276 1490T309 1454Q318 1445 335 1428T371 1389T402 1347T416 1309Q416
1299 407 1289T386 1270T359 1257T334 1251Q314 1251 296 1261T257 1285T211 1308T154 1319Q139 1319 115 1329T68 1354T28 1385T6 1413Z" />
<glyph unicode="a" glyph-name="a" horiz-adv-x="1059" d="M1008 625Q1010 602 1011 579T1012 530Q1012 459 1005 387T989 246Q986 224 982 202T977 162Q977 125 984 91T991 27Q991 21 983 0T958 -43T913 -82T846 -100Q801 -100 786 -74T770 -8Q770 20 775 52T786
119Q763 114 741 100T698 74Q654 48 611 19T516 -34T405 -74T266 -90Q264 -90 251 -90T219 -90T182 -85T147 -72Q125 -50 105 -18T69 46T44 102T35 131Q33 136 33 140T33 150Q33 171 36 193T43 236T50 271T53 291Q53 316 49 339T45 391Q45 404 46 418T53 449Q53
450 58 462T69 488T82 515T92 530Q99 536 111 540T138 548T168 556T199 567Q222 578 240 595T274 618Q284 623 301 626T338 637Q351 641 370 648T410 662T454 674T496 682Q505 682 518 679T551 676Q565 676 585 682T633 688Q661 688 687 684T727 680Q738 680 740
686T743 702Q743 717 737 737T723 776T708 809T698 827Q683 846 665 856T631 866Q615 866 600 862T565 858Q551 858 537 860T508 862Q474 862 430 845T341 806T257 765T193 739Q180 736 166 734T139 731Q131 731 117 739T88 761T64 790T53 823Q53 847 66 862T98
889T139 908T180 928Q203 942 234 961T287 997Q310 1016 320 1031T344 1055Q358 1063 388 1070T444 1085Q452 1088 466 1094T496 1105T526 1114T549 1118H553Q572 1111 596 1108T646 1101T699 1095T750 1085Q758 1083 765 1077T780 1067Q817 1056 842 1045T886
1009T921 939T958 815Q962 797 973 782T989 752Q997 727 1001 692T1008 625ZM768 358Q773 363 774 380T776 420Q776 446 775 462T771 488T763 500T750 504Q744 504 740 503T731 501Q727 499 723 498Q707 500 694 500T666 500Q638 500 615 497T569 489T524 478T477
467Q441 458 411 455T359 443T325 415T313 354Q313 312 335 298T399 283Q412 283 429 287T465 298T505 310T547 322Q562 325 579 328T614 335T647 341T674 346Q681 347 696 348T726 351T753 354T768 358Z" />
<glyph unicode="b" glyph-name="b" horiz-adv-x="1182" d="M1159 719Q1161 706 1162 692T1163 662Q1163 626 1162 583T1155 497T1141 416T1114 352Q1103 335 1082 322T1038 296T992 272T956 246Q953 242 948 234T937 216T926 199T918 188Q906 180 879 170T820
150T755 135T700 129Q680 129 664 131T631 138T592 153T539 176Q531 179 509 187T461 203T413 218T383 225Q374 225 371 211T367 184Q367 156 374 124T381 70Q381 59 375 44T357 15T329 -8T291 -18Q271 -18 251 -13T214 1T184 21T166 43Q160 56 158 77T154 122T152
174T147 225Q142 257 133 286T121 334Q121 354 127 373T133 416Q133 464 129 518T115 625Q108 656 96 689T84 756Q84 765 87 774T90 791Q90 815 81 844T63 903Q60 919 60 939T51 985Q46 1000 37 1015T18 1047T1 1081T-6 1120Q-6 1130 -5 1139T-4 1157Q-4 1177 -9
1196T-20 1233T-32 1270T-37 1309Q-37 1390 -12 1434T52 1500T138 1525T229 1530Q253 1530 274 1520T312 1493T338 1457T348 1419V1384V1370Q351 1342 353 1299T355 1208T357 1110T361 1022T369 957T383 932Q399 932 406 935T417 944T424 955T438 967Q446 970 455
970T469 973Q488 985 502 996T530 1017T557 1032T586 1038Q607 1038 619 1043T638 1053T651 1064T666 1069Q672 1069 679 1068T694 1067Q706 1067 717 1071T737 1080T753 1089T766 1094Q784 1094 805 1085T849 1062T893 1034T930 1010Q937 1005 952 1001T986 990T1024
975T1060 953T1087 920T1098 874Q1098 853 1106 834T1124 795T1144 758T1159 719ZM778 700Q775 759 737 787T645 815Q618 815 598 809T559 793T518 771T469 745Q448 733 427 725T390 708T363 687T352 655Q352 629 362 602T373 543Q373 535 372 527T369 510Q378
508 387 507T406 506Q446 506 482 517T551 537Q601 549 642 555T714 574T761 616T778 700Z" />
<glyph unicode="c" glyph-name="c" horiz-adv-x="1028" d="M1014 713Q1012 687 996 667T961 631T923 606T901 594Q883 583 861 572T815 550T766 534T717 528Q673 528 648 543T610 584T591 639T580 698T567 751T541 788Q530 796 507 799T457 803Q439 803 423 802T393
800T372 797T362 795Q349 788 342 767T331 721T324 671T319 631Q313 589 302 547T291 467Q291 456 297 434T314 387T337 343T362 315Q371 310 387 309T421 307T457 307T489 303Q516 297 543 288T596 269T649 253T700 246Q747 246 778 262T844 309Q853 318 860 327T876
345T896 359T922 365Q948 365 957 342T967 285Q967 209 940 147T838 43Q825 35 810 36T780 31Q762 22 749 9T722 -16T688 -36T641 -45Q615 -45 586 -35T522 -14Q507 -10 492 -9T463 -8T437 -7T414 -2Q394 5 367 22T309 61T247 106T186 150Q162 166 147 176T122
197T102 224T78 270Q64 299 55 321T45 362Q45 391 49 428T53 504Q53 535 50 565T47 627Q47 683 59 733Q62 742 71 750T86 770Q93 785 99 802T111 837T125 869T141 897Q152 911 171 933T214 976T259 1012T299 1028Q330 1028 366 1021T434 1014Q455 1014 465 1018T482
1028T491 1040T503 1053T525 1063T567 1067Q583 1067 602 1066T641 1063Q686 1059 720 1059T780 1056T829 1042T873 1009T920 945T977 840Q983 827 989 809T1001 773T1010 739T1014 713Z" />
<glyph unicode="d" glyph-name="d" horiz-adv-x="1165" d="M1108 213Q1111 173 1116 139T1122 76Q1122 52 1115 29T1089 -11T1040 -40T963 -51Q901 -51 866 -44T813 -20T792 24T788 92Q788 109 789 127T793 164Q754 153 713 145T614 125Q594 122 576 111T541 100Q530
100 518 103T494 106Q468 106 441 97T393 88Q375 88 353 97T299 106H264Q224 106 185 124T115 164T65 207T45 233Q43 236 41 250T38 280T35 310T33 328Q31 343 31 358T31 387Q31 417 33 444T38 500T43 557T45 618Q45 634 44 650T43 684Q43 698 45 707T51 725T57
740T63 758Q68 770 67 785T72 815Q74 823 80 831T95 850T112 870T127 891Q136 907 141 922T152 951T163 975T178 991Q184 995 198 998T229 1004T264 1011T299 1018Q344 1029 408 1036T535 1044Q579 1044 613 1035T676 1015T733 991T793 973Q798 1011 800 1065T803
1176Q803 1206 801 1236T795 1294T789 1347T786 1391Q786 1404 793 1423T812 1460T842 1490T881 1503Q897 1503 915 1497T948 1481T973 1459T983 1434Q983 1421 979 1408T975 1378Q977 1363 986 1345T999 1309Q1005 1286 1005 1246T1006 1158T1009 1056T1020 954Q1023
936 1030 923T1046 896T1061 867T1067 829Q1067 811 1065 791T1063 745Q1066 687 1071 622T1082 487T1095 349T1108 213ZM811 707Q806 713 791 714T754 716T708 718T659 725Q645 728 637 732T621 739T606 745T586 748Q548 748 513 744T457 725Q447 717 438 695T421
642T410 576T406 508Q406 443 421 416T479 389Q498 389 519 393T560 403T598 414T627 422Q638 423 666 426T723 434T777 444T805 455Q808 458 809 469T811 494Q811 507 810 522T808 551T806 575T805 588Q805 589 807 598T811 620T815 648T817 676Q817 696 811 707Z"
/>
<glyph unicode="e" glyph-name="e" horiz-adv-x="985" d="M956 240Q958 220 960 203T963 172Q963 156 961 148T955 134T943 121T924 100Q912 81 901 60T874 22T838 -6T788 -18Q770 -18 750 -16T709 -10T669 -5T633 -2Q564 -2 494 0T360 18Q339 24 316 28T270 39T226
53T190 74Q147 117 122 168T82 283T61 425T51 600Q49 634 44 665T39 713Q39 721 46 738T57 770Q62 792 62 813T63 840Q66 847 75 856T96 877T119 899T139 922Q146 932 173 946T242 978T334 1011T438 1041T545 1063T645 1073Q664 1073 687 1066T734 1048T780 1021T817
991Q825 983 832 965T848 934Q870 906 878 892T889 867T891 843T893 803Q895 782 896 768T897 742T897 719T897 694Q897 665 882 647T841 614T779 585T700 551Q665 534 625 527T551 520Q546 520 543 520T535 522Q528 523 511 518T472 507T425 495T375 489Q359 489
345 485T319 473T302 459T295 446Q295 411 307 390T335 358Q353 345 375 340Q400 329 423 326T469 322Q507 322 548 328T643 334Q668 334 685 328T723 322Q744 322 765 326T805 335T841 344T874 348Q913 348 930 322T956 240ZM569 700Q571 705 572 711T573 723Q573
753 568 776T555 816T538 841T522 850Q503 850 465 843T388 824T318 800T279 776Q274 768 272 753T270 717Q270 675 275 652T295 629Q304 629 315 632T336 638T355 645T369 649Q391 653 423 655T485 661T539 674T569 700Z" />
<glyph unicode="f" glyph-name="f" horiz-adv-x="870" d="M889 1061Q882 1050 863 1039T817 1018T760 999T701 984T648 973T610 969Q580 969 565 993T544 1053T535 1130T528 1208T510 1268T471 1292Q466 1292 448 1288T410 1278Q386 1272 358 1264Q354 1259 352
1249T349 1225T347 1200T346 1178Q346 1159 357 1140T381 1099T406 1054T418 1004Q418 989 421 979T429 960T436 946T440 934Q440 932 439 924T436 904T433 882T432 862Q432 851 435 850T449 848Q463 848 487 854T535 866T581 879T610 885Q655 885 703 877T782
858Q801 851 812 850T829 840T836 811T838 745Q838 720 838 701T826 669T786 650T702 643Q670 643 650 638T611 628T575 617T528 612Q523 612 511 615T494 618Q489 618 486 612T481 597T478 578T477 559Q477 535 480 506T489 451T498 403T504 373Q507 351 507 328T510
283Q515 251 523 209T532 129Q532 69 491 37T346 -2Q335 -3 327 -5T312 -9T298 -14T281 -16Q242 -16 211 2T158 48T125 112T113 182Q113 217 116 254T119 328V367Q119 385 120 400T123 432T128 466T137 510Q137 511 140 521T148 546T156 577T160 606Q160 622 153
627T129 633Q121 633 112 632T92 631Q79 631 65 639T38 661T18 694T10 737Q10 755 21 763T51 775T89 780T127 786T156 801T168 831Q168 856 164 880T155 927T145 967T141 999Q141 1047 145 1089T150 1176Q150 1205 146 1231T141 1282Q141 1326 167 1361T234 1422T324
1468T418 1499T500 1516T551 1522Q629 1522 681 1511T768 1473T822 1402T852 1294Q856 1273 864 1250T880 1203T894 1157T901 1112Q901 1098 899 1086T889 1061Z" />
<glyph unicode="g" glyph-name="g" horiz-adv-x="1049" d="M977 150Q975 130 968 110T958 68Q956 19 955 -27T935 -118T874 -205T743 -287Q717 -297 682 -308T608 -328T533 -344T465 -350Q445 -350 422 -343T365 -336Q326 -336 285 -340T205 -344Q160 -344 131
-333T84 -300T60 -249T53 -182Q53 -134 54 -86T67 2T101 65T170 90Q203 90 240 79T312 53T379 28T434 16Q447 16 459 20T483 25Q508 22 530 14T576 -4T626 -20T686 -27Q728 -27 746 -5T764 55Q764 78 761 104T758 162Q758 173 759 183T762 207Q727 202 686 197T599
188T505 182T408 180Q310 180 239 192T121 238T52 331T29 485Q29 523 33 571T45 667T66 756T98 821Q118 846 156 875T242 928T344 969T451 985Q478 985 507 981T573 967Q625 953 673 947T768 922Q768 930 769 937T770 954Q770 967 769 979T768 1004Q768 1024 770
1040T779 1069T801 1087T838 1094Q850 1094 869 1088T907 1075T940 1060T958 1049Q965 1041 967 1025T969 989Q969 918 966 853T963 723Q963 664 964 608T965 498Q965 469 971 441T977 385Q977 356 971 328T965 276Q965 247 972 221T977 166V150ZM762 676Q760 700
753 711T734 726T704 732T662 739Q639 744 614 749T562 760T511 768T465 772Q380 772 335 734T289 625Q289 610 293 591T310 556T342 529T395 518Q414 518 434 521T473 527T508 534T535 537Q569 537 610 530T690 522Q721 522 736 524T758 535T764 561T764 608Q764
631 763 650T762 676Z" />
<glyph unicode="h" glyph-name="h" horiz-adv-x="1026" d="M1004 215Q998 188 970 168T901 134T812 113T719 106Q685 106 666 120T636 159T624 221T621 303Q621 351 623 399T625 487Q625 501 622 518T616 554T609 587T606 614Q606 628 609 646T612 682Q612 707
600 721T559 735Q542 735 525 731T491 720T461 707T440 696Q419 687 400 677T365 656T341 631T332 600Q332 580 337 552T346 494Q349 462 348 431T352 375Q356 353 360 337T367 307T373 277T375 242Q375 224 378 208T386 175T395 140T399 100Q399 58 378 35T321
1T239 -12T145 -14Q121 -14 109 -9T90 8T83 40T82 92Q82 115 83 139T87 186T91 226T94 254Q95 276 97 307T101 370T104 432T106 481Q106 494 93 502T65 521T36 547T23 590Q23 614 30 628T47 649T70 661T92 672T110 688T117 719Q117 753 108 794T98 885Q98 933 102
983T106 1081Q106 1116 99 1153T92 1221Q92 1236 99 1255T119 1291T151 1321T195 1333Q218 1333 234 1320T260 1285T276 1236T285 1180T290 1124T295 1075Q299 1043 302 1000T310 917T322 849T340 821Q350 821 366 830T401 852T437 876T467 893Q499 907 545 917T657
928Q695 928 722 923T768 907T803 884T832 856T863 824T903 791Q912 785 921 781T938 771T951 758T956 737Q956 725 954 711T952 682Q952 661 959 637T974 587T990 533T997 475Q997 465 993 451T985 424T977 402T973 391Q973 376 983 363T993 332Q993 322 992 314T991
297Q991 280 998 266T1006 233Q1006 228 1006 224T1004 215Z" />
<glyph unicode="i" glyph-name="i" horiz-adv-x="461" d="M354 1165Q346 1144 323 1131T270 1109T205 1098T141 1094Q89 1094 62 1120T35 1217Q35 1245 43 1269T61 1313T79 1348T88 1374Q100 1383 121 1390T165 1403T205 1412T229 1415Q280 1415 313 1397T346
1356Q346 1345 344 1333T342 1311Q344 1285 352 1254T360 1196Q360 1178 354 1165ZM412 70Q404 58 380 45T324 20T262 1T209 -6Q170 -2 143 12T99 50T74 106T63 178Q63 198 69 218T76 264Q76 292 72 320T68 377Q68 400 69 436T74 514T81 600T91 683T102 752T115
797Q132 832 158 848T215 864Q255 864 282 848T325 802T349 730T356 635Q356 612 354 590T352 547Q352 505 360 464T379 385T399 312T408 248Q408 239 407 228T406 207Q406 170 413 147T420 104Q420 86 412 70Z" />
<glyph unicode="j" glyph-name="j" horiz-adv-x="326" d="M254 1221Q254 1177 243 1153T209 1118T154 1104T78 1102Q47 1102 25 1112T-13 1140T-35 1179T-43 1221Q-43 1254 -31 1296Q-23 1326 -14 1344T15 1373T65 1387T150 1391Q186 1391 206 1377T237 1339T251
1285T254 1221ZM305 -31Q303 -42 297 -53T283 -76T266 -100T254 -125Q242 -159 241 -193T235 -259T220 -320T178 -373Q170 -380 158 -385T133 -395T107 -405T84 -416Q70 -424 60 -433T39 -449T19 -462T-4 -467Q-26 -467 -47 -461T-88 -455Q-116 -455 -148 -456T-210
-460T-265 -463T-305 -465Q-321 -465 -338 -457T-370 -435T-393 -403T-403 -367Q-403 -353 -399 -326T-395 -264Q-395 -236 -397 -209T-399 -164Q-399 -133 -390 -111T-364 -74T-327 -51T-283 -37Q-269 -37 -251 -43T-213 -49Q-176 -49 -137 -44T-68 -37Q-52 -37
-35 -38T0 -39Q24 -39 42 -36T72 -22T90 12T96 74Q96 143 92 200T84 309T76 411T72 518V616Q72 654 70 689T63 772Q60 797 54 823T47 872Q47 892 61 906T93 929T129 942T156 946Q171 946 179 943T192 931T203 907T217 866Q220 858 224 854T232 843T239 827T242
797Q242 775 239 755T236 717Q236 647 241 579T253 444T270 307T287 166Q292 123 299 79T307 -4Q307 -10 307 -17T305 -31Z" />
<glyph unicode="k" glyph-name="k" horiz-adv-x="1016" d="M989 709Q979 690 960 679T917 660T869 649T824 642T791 634T778 623Q778 594 789 564T818 505T856 449T893 401T922 364T934 342Q934 335 932 329T927 316T922 298T920 274Q920 255 925 239T937 208T948
180T954 154Q954 140 949 133T935 122T912 113T883 102Q868 95 847 86T802 69T753 55T702 49Q659 49 630 79T579 157T540 260T502 367Q495 384 487 410T472 463T458 509T446 532Q448 531 436 530T408 527T378 523T362 520Q359 517 358 511T356 496Q356 484 358
471T362 445T367 422T369 406Q371 373 372 340T374 274T379 213T389 160Q394 141 404 121T414 84Q412 61 395 44T355 16T308 -2T266 -8Q204 -8 164 -4T100 19T67 81T57 199Q57 232 58 265T62 329T67 386T72 430Q74 446 80 454T86 477Q86 508 81 540T76 602Q76 623
83 639T99 672T115 712T123 766V821Q123 852 126 886T134 952T143 1015T147 1071Q147 1080 145 1098T141 1138T137 1186T135 1233Q135 1270 144 1287T166 1310T194 1316T223 1317Q228 1317 243 1316T274 1313T306 1307T326 1296Q329 1292 332 1271T338 1226T342
1179T344 1151Q343 1142 338 1134T327 1116T316 1095T311 1067Q311 1044 314 1014T319 956Q319 944 316 932T313 909Q313 891 319 878T326 848Q326 825 324 808T322 774Q322 761 322 747T325 720T332 700T344 692Q356 692 371 697T401 711T432 727T459 741Q500
760 536 774T607 801T679 828T762 860Q779 868 795 876T819 887Q830 887 845 881T874 874Q888 874 903 877T930 881Q946 881 959 870T981 841T996 803T1001 764Q1001 730 989 709Z" />
<glyph unicode="l" glyph-name="l" horiz-adv-x="563" d="M580 215Q582 207 582 201T582 190Q582 167 573 150T555 115Q550 106 545 91T532 63T513 39T485 29Q467 29 443 31T399 33Q375 33 341 30T270 27H250Q212 27 175 21T111 14Q98 14 83 21T54 40T32 72T23
115Q23 136 39 146T74 166T110 186T127 219Q127 239 123 264T115 315T106 368T102 418Q102 455 103 492T104 567Q104 670 99 756T87 921T76 1076T70 1237Q70 1271 76 1298T98 1344T145 1373T225 1384Q275 1384 308 1374T362 1344T392 1292T401 1217Q401 1178 396
1143T391 1065V1010Q391 985 388 960T381 909T374 855T371 797Q371 716 377 631T383 457Q383 369 384 324T406 279Q421 279 441 285T479 291Q514 289 543 271T580 215Z" />
<glyph unicode="m" glyph-name="m" horiz-adv-x="1432" d="M1393 248Q1387 228 1371 216T1331 196T1280 187T1225 184H1202Q1199 184 1185 183T1157 182Q1130 182 1117 192T1098 217T1090 251T1081 285Q1079 290 1073 302T1058 327T1044 354T1038 377Q1038 388
1044 402T1056 433T1069 465T1075 494Q1075 509 1072 532T1069 569Q1069 603 1072 635T1075 694Q1075 725 1065 744T1020 764Q981 764 954 744T909 699T885 650T877 621Q877 599 882 573T894 518T908 458T918 393Q923 337 925 277T928 168Q928 133 916 102T872
51Q860 43 842 43T809 39Q800 37 782 32T742 21T696 12T651 8Q628 8 616 12T597 24T585 43T569 70Q560 83 551 92T535 110T523 129T518 156Q518 179 525 200T532 246Q532 269 530 294T525 346T520 397T518 444Q518 452 519 466T520 500Q520 542 513 563T477 584Q464
584 449 580T420 571T393 560T373 551Q357 544 339 536T306 517T282 488T272 444Q272 431 276 416T285 385T295 353T299 322Q299 315 298 309T297 297Q297 280 303 265T316 235T330 209T336 186Q336 133 335 92T323 22T290 -22T227 -37Q217 -37 196 -34T152 -25T109
-11T82 6Q79 12 76 26T69 60T63 100T61 141Q61 164 68 178T76 209Q76 221 75 237T72 272T69 308T68 342Q68 352 72 375T81 428T90 491T94 557Q94 619 90 676T86 788Q86 816 86 845T94 898T119 937T170 952Q195 952 214 947T247 925T267 882T274 809Q274 783 270
759T266 702Q308 708 343 718T411 742T478 770T551 797Q577 805 601 813T649 821Q671 821 688 814T720 798T746 782T770 774Q783 774 792 784T810 808T827 840T848 872T878 897T922 907Q939 907 957 906T993 905Q1021 905 1054 910T1120 921T1178 933T1217 938Q1229
938 1247 931T1284 904T1323 848T1358 755T1383 616T1393 424Q1393 412 1391 402T1385 381T1380 361T1378 342Q1378 323 1385 297T1393 254V248Z" />
<glyph unicode="n" glyph-name="n" horiz-adv-x="1030" d="M977 430Q977 396 971 363T965 299Q965 279 968 260T971 221Q971 217 967 204T955 175T933 144T901 121Q889 116 874 115T841 114T805 113T768 109Q743 104 725 98T686 92Q650 92 632 111T605 160T594
221T590 279Q587 313 582 338T575 387Q575 401 576 413T578 436Q578 462 575 484T562 523T532 548T477 557Q453 557 425 551T373 530T333 495T317 446Q317 435 321 422T326 393Q326 365 320 336T313 279Q313 237 319 201T326 139Q326 104 323 78T309 35T281 9T233
0Q187 0 162 22T137 90Q137 107 138 125T139 164Q139 191 133 209T119 244T101 280T84 330Q82 333 82 337T82 346Q82 357 83 371T84 401Q84 441 79 487T68 581T56 675T51 764Q51 801 67 825T108 863T163 882T221 887Q275 887 307 859T340 788Q340 774 338 759T336
727Q336 716 339 702T354 688Q365 688 391 695T447 713T502 731T535 741Q573 748 601 747T653 754Q676 760 690 766T717 777T743 785T778 788Q812 788 827 781T851 762T864 736T881 709Q896 692 912 681T942 660T964 638T973 608Q973 594 969 579T965 543Q965 517
971 488T977 430Z" />
<glyph unicode="o" glyph-name="o" horiz-adv-x="936" d="M903 608Q903 602 904 597T905 586Q905 563 900 539T886 491T870 443T858 393Q856 383 856 371T856 345T855 320T852 299Q847 274 832 245T803 190Q782 151 766 125T727 82T670 58T580 51Q532 51 483 56T388
70T302 90T233 115Q199 130 179 147T145 188T118 247T88 336Q79 363 70 389T53 441T42 494T39 549Q39 565 41 586T48 629T57 670T68 702Q73 714 79 722T92 738T102 754T106 774Q106 783 104 789T99 802T94 814T92 829Q92 828 96 840T109 869T128 907T153 945T183
975T217 987H240H248Q262 987 282 984T325 978T375 972T428 969Q474 969 521 972T610 975Q670 975 701 960T748 923T770 874T788 823Q796 805 816 785T852 735Q860 721 862 701T872 666Q880 644 890 633T903 608ZM664 557Q666 577 668 610T670 676Q670 692 666
714T649 757T612 792T547 807Q522 807 496 802T444 797Q432 797 419 798T393 799Q358 799 336 785T302 746T286 688T281 618Q281 570 284 538T296 485T316 452T346 430Q362 424 372 424T397 418Q406 415 411 410T420 399T430 389T444 385Q451 385 459 386T477 387Q489
387 498 383T513 374T525 364T537 360Q540 361 557 370T595 390T631 412T649 424Q654 432 656 449T660 487T662 526T664 557Z" />
<glyph unicode="p" glyph-name="p" horiz-adv-x="1026" d="M999 506Q997 495 984 466T955 403T923 342T899 305Q867 270 795 252T621 236Q593 236 563 245T502 254Q471 254 440 245T377 236Q357 236 336 242V231Q336 214 340 201T349 177T360 154T369 127Q371
109 373 86T376 39T380 -4T387 -35Q395 -56 399 -79T406 -126T411 -172T418 -213Q423 -227 432 -240T444 -268Q444 -276 442 -282T436 -294T430 -307T424 -326Q422 -340 422 -354T421 -383T419 -409T412 -428Q409 -432 394 -439T360 -455T326 -470T305 -477Q293
-480 280 -480T252 -481Q135 -481 84 -440T33 -301Q33 -280 37 -259T47 -215T56 -169T61 -123Q61 -101 60 -82T59 -43Q59 -17 63 14T72 81T82 157T86 240Q86 255 84 279T78 332T73 395T70 463Q70 503 74 547T83 641T92 743T96 854Q96 888 92 915T88 967Q88 1016
118 1043T193 1071Q213 1071 231 1063T260 1038Q269 1024 269 992T270 925T272 866T287 840Q298 840 312 848T342 868T370 890T393 905Q425 918 468 925T557 950Q578 958 602 967T653 985T706 1000T762 1006Q793 1006 833 992T909 942T970 849T995 702Q995 682
994 662T993 623Q993 603 998 583T1004 539Q1004 531 1003 523T999 506ZM766 627Q772 633 775 645T778 672Q778 703 773 724T761 758T744 776T725 782Q717 782 710 780T696 778H682Q623 778 571 764T475 731T398 691T342 659Q330 652 321 651T307 647T300 639T297
616Q297 592 301 582T324 571Q344 571 375 579T438 590Q470 593 507 594T582 598T658 603T729 614Q728 614 733 616T744 621T757 626T766 629V627Z" />
<glyph unicode="q" glyph-name="q" horiz-adv-x="1016" d="M1270 -219Q1270 -227 1265 -243T1257 -283Q1257 -295 1260 -311T1264 -340Q1264 -359 1255 -374T1245 -401Q1245 -424 1254 -439T1264 -465Q1260 -496 1241 -516T1201 -548T1161 -564T1139 -569Q1103
-569 1064 -561T988 -540T917 -513T860 -489Q809 -468 768 -452T699 -412T655 -353T639 -258Q639 -225 642 -198T649 -146T659 -96T670 -41Q673 -17 674 -1T676 29T678 58T682 96Q683 111 687 129T695 166T702 202T705 233Q705 243 703 249T696 256Q690 256 678
249T652 234T625 218T606 209Q588 204 560 204T506 203Q481 200 456 194T410 190Q388 191 364 198T316 214T267 233T221 248Q209 251 196 253T171 257T148 261T133 266Q109 279 89 313T55 389T32 476T23 553Q23 595 33 636T43 717Q43 729 42 738T41 758Q41 785
57 813T99 866T154 913T210 951T256 977T279 987Q288 989 298 990T322 991Q361 991 393 985T458 970T524 947T600 918Q612 913 628 910T664 899Q675 893 692 884T719 874Q731 874 736 888T744 920T750 958T764 987Q768 991 777 994T798 1000T822 1004T844 1006Q867
1006 882 981T906 916T918 824T923 722T925 624T924 545Q924 509 927 471T933 392T939 313T942 236Q942 219 941 202T940 170Q940 154 944 142T953 119T963 100T967 84Q967 75 964 66T956 46T948 22T944 -6Q944 -63 961 -90T1006 -117Q1020 -117 1032 -114T1059
-111Q1077 -111 1101 -118T1151 -129Q1173 -133 1193 -136T1230 -148T1256 -173T1270 -219ZM745 666Q742 672 728 679T693 694T649 709T603 722T563 731T537 735Q506 735 487 725T456 693T440 639T436 561Q436 516 442 491T463 453T500 437T555 434Q561 434 565
435T575 436Q582 437 606 440T656 448T704 457T727 463Q732 467 736 482T744 520T750 566T752 612Q752 631 751 645T745 666Z" />
<glyph unicode="r" glyph-name="r" horiz-adv-x="975" d="M973 659Q972 649 968 643T958 628T948 607T944 575Q944 567 945 561T946 547Q946 517 933 501T897 474T844 459T782 444Q759 438 733 430T682 422Q640 422 623 446T600 506T597 585T597 663T582 724T535
748Q521 748 506 743T478 732T453 719T434 709Q419 702 400 695T362 679T332 660T319 635Q319 612 329 577T352 506T374 443T385 408Q385 401 382 395T379 379Q379 365 382 349T390 316T399 280T403 242Q403 236 402 217T399 175T394 132T385 102Q380 94 373 90T358
84T341 79T322 70Q300 56 290 45T271 25T247 11T201 6Q158 6 129 16T82 49T57 107T49 190Q49 223 54 255T67 321T82 387T94 457Q99 505 102 560T106 664Q106 704 100 754Q98 766 93 778T88 801Q88 816 91 833T99 867T108 901T113 936Q113 953 109 963T104 985Q104
1013 115 1028T138 1050T159 1058T164 1059Q202 1059 223 1044T255 1005T269 956T274 906T279 868T295 852Q303 852 315 859T339 874T356 887T358 889L356 887Q357 887 358 888Q361 891 365 893Q361 891 361 891H360Q373 901 386 911Q397 919 410 928T434 944Q451
955 472 959T510 975Q525 986 540 999T567 1020Q579 1025 596 1030T634 1038T673 1044T707 1047Q721 1047 731 1043T750 1031T769 1017T795 1006Q814 1000 839 998T885 986T922 957T936 893Q936 874 940 859T948 832T957 809T961 786Q961 775 960 763T958 737Q958
717 965 695T973 659Z" />
<glyph unicode="s" glyph-name="s" horiz-adv-x="934" d="M918 172Q914 163 906 155T889 139T869 123T848 102Q831 82 821 58T797 20Q797 19 788 12T767 -4T746 -19T739 -25Q730 -30 720 -30T696 -31Q672 -31 644 -28T588 -25Q560 -25 532 -34T475 -43Q450 -43
426 -44T377 -45Q319 -45 270 -38T179 -11T106 46T51 139Q46 151 45 165T43 196T42 228T39 260Q31 300 24 329T16 383Q16 410 30 432T68 469T125 493T195 502Q215 502 228 501T255 496T284 481T324 451Q333 441 347 433T367 418Q374 409 377 397T385 372T395 348T412
330Q422 319 434 314T456 304T474 289T481 262Q481 253 480 245T479 229Q479 213 487 201T508 181T536 168T565 164Q583 164 601 170T636 188T662 219T672 262Q672 281 665 305T657 358Q657 372 658 387T659 416Q659 439 640 455T588 485T516 508T434 528T353 549T285
575Q269 583 254 598T221 627Q200 643 181 656T148 689T125 735T117 805Q117 883 138 928T198 999T293 1034T418 1051Q449 1054 484 1057T555 1061Q580 1061 615 1051T685 1021T753 971T803 899Q808 887 813 879T821 863T827 848T829 829Q825 805 817 791T794 769T761
760T715 758Q704 758 696 758T684 760Q663 764 638 780T587 814T537 847T494 866Q465 872 442 872Q396 872 369 854T342 809Q342 793 358 774T396 739T437 710T463 696Q471 693 485 694T512 690Q521 687 528 681T545 672Q570 664 598 662T651 651Q727 628 773 602T846
536T886 435T911 285Q914 259 920 242T926 207Q926 191 918 172Z" />
<glyph unicode="t" glyph-name="t" horiz-adv-x="819" d="M811 963Q854 938 854 889Q854 871 847 852T828 815T797 787T758 776Q748 776 738 777T719 778Q704 778 689 775T661 769T636 763T618 760Q603 760 586 763T551 766Q523 766 509 760T488 741T482 708T481
659Q481 612 477 560T468 456T459 353T455 260Q455 234 457 211T459 166Q459 160 458 153T457 139Q455 132 447 108T426 56T402 5T381 -25Q373 -30 362 -31T336 -33Q268 -33 237 -12T205 55Q205 74 207 94T209 131Q209 187 203 256T188 402T173 564T166 735Q137
729 113 729Q84 729 59 736T16 758T-14 794T-25 842Q-25 876 -10 895T29 925T86 942T152 956V993Q152 1038 146 1077T133 1151T119 1219T113 1284Q113 1315 117 1336T133 1371T162 1396T209 1417Q221 1422 240 1427T281 1436T328 1443T377 1446Q405 1446 432 1442T480
1421T515 1371T528 1280Q528 1249 527 1217T520 1165Q517 1152 510 1140T497 1117T485 1096T481 1075Q481 1064 484 1048T487 1020Q487 1004 481 992T475 969Q475 955 490 952T535 948Q576 948 607 951T664 959T715 967T766 971Q778 971 790 970T811 963Z" />
<glyph unicode="u" glyph-name="u" horiz-adv-x="1104" d="M1065 348Q1073 316 1077 295T1081 258Q1081 244 1078 234T1066 215T1043 195T1008 172Q987 159 974 149T948 131T923 119T891 115Q851 115 824 140T797 213Q797 227 798 246T799 285Q799 311 796 332T782
354Q775 354 757 348T715 331T665 309T617 287T578 269T559 260Q551 258 543 257T524 256Q510 256 494 257T461 258Q426 258 394 251T331 235T271 219T213 211Q174 211 148 232T103 288T75 366T59 454T53 539T51 608Q51 626 55 645T65 682T75 716T80 748Q80 771
78 795T76 844Q76 881 89 924T117 1012Q127 1043 133 1066T149 1106T178 1130T231 1139Q239 1139 258 1136T301 1128T352 1117T402 1102T443 1086T465 1069Q471 1058 473 1045T475 1018Q475 997 472 975T464 933T457 896T453 868Q453 857 456 844T459 817Q457 802
452 787T444 760Q444 738 448 709T453 651Q453 636 451 624T445 600T440 579T438 563Q439 542 440 529T446 509T458 500T477 498Q519 498 561 500T641 507T712 519T768 539Q777 548 780 570T784 616T784 662T782 692Q782 794 775 864T768 969Q768 978 773 993T787
1022T812 1046T848 1057Q869 1057 888 1051T921 1034T945 1010T954 981Q954 969 952 953T950 922Q950 895 955 863T966 798T978 736T983 684Q983 661 979 641T975 600Q975 576 983 557T1001 522T1023 491T1040 463Q1048 443 1052 411T1065 348Z" />
<glyph unicode="v" glyph-name="v" horiz-adv-x="928" d="M922 944Q920 930 913 919T903 893Q897 874 898 857T895 829Q889 811 872 794T846 754Q841 744 840 730T834 702Q829 693 823 684T813 666Q810 653 811 637T807 608Q801 591 790 577T776 545Q771 526 772
505T770 463Q768 452 761 440T748 416T736 392T731 369Q731 361 732 354T733 340Q733 323 724 306T703 272T682 238T672 203Q672 190 674 181T676 162Q676 152 669 133T639 94T577 60T471 45Q420 45 398 59T367 98T352 159T326 236Q315 258 301 272T274 298T249
319T231 342Q228 348 227 358T224 380T220 405T213 430Q204 451 192 472T168 512T146 549T131 582Q125 599 125 618T119 659Q108 694 88 733T49 815T15 899T2 983Q2 1005 9 1024T35 1057Q46 1065 72 1067T131 1081Q163 1091 188 1105T236 1120Q286 1120 310 1110T347
1081T366 1032T389 963Q397 946 408 928T428 887Q434 865 436 840T446 791Q460 748 475 716T503 652T529 587T549 506Q573 541 588 584T617 674T645 767T680 854Q688 868 698 880T713 905Q720 928 721 958T728 1016T752 1062T811 1081Q835 1081 855 1072T890 1046T913
1008T922 961V944Z" />
<glyph unicode="w" glyph-name="w" horiz-adv-x="1319" d="M1290 987Q1290 969 1284 953T1272 911Q1266 882 1262 843T1251 760Q1248 738 1243 720T1234 685T1226 651T1223 612Q1223 591 1220 576T1212 548T1204 523T1200 496Q1200 486 1201 477T1202 459Q1202
432 1195 408T1178 361T1161 317T1153 274Q1153 263 1154 253T1155 233Q1155 191 1142 168T1107 134T1057 118T999 109Q978 105 952 101T899 96Q861 96 838 115T790 175T734 275T645 418Q626 395 617 368T601 311T590 248T575 178Q573 170 566 163T557 145Q552
131 546 115T529 85T498 61T449 51Q432 51 411 54T358 57Q338 57 323 55T293 53Q273 53 265 60T252 81T245 116T233 166Q225 191 214 212T197 254Q189 278 184 304T175 357T165 409T152 457Q141 483 125 498T100 532Q92 551 85 576T70 628T55 682T37 735Q34 743
28 757T17 788T7 823T2 860Q2 891 17 907T56 932T106 946T158 963Q185 975 201 987T234 1010T270 1027T322 1034Q357 1034 377 1030T408 1015T420 990T423 953T424 904T430 842Q441 780 451 717T467 596Q492 615 506 646T529 711T547 781T574 844T619 889T696 907Q727
907 748 890T786 847T815 791T842 735Q870 683 897 639T954 557Q962 607 964 655T967 754Q967 774 966 794T965 834Q965 882 965 936T973 1038T1001 1116T1061 1147Q1080 1147 1104 1143T1151 1134T1193 1121T1221 1108Q1225 1104 1236 1090T1259 1056T1280 1018T1290
987Z" />
<glyph unicode="x" glyph-name="x" horiz-adv-x="963" d="M979 184Q977 168 963 146T931 103T892 64T860 39Q837 25 815 19T770 12Q719 12 676 45Q668 51 660 67T639 96Q625 108 607 123T571 154T537 188T512 221Q502 239 491 265T468 315T445 356T422 373Q414
373 407 360T385 324Q380 314 372 311T360 299Q355 287 356 277T354 260Q349 254 339 252T322 242Q314 232 305 214T286 175T266 137T246 109Q238 101 224 95T195 76Q178 63 157 49T109 35Q98 35 83 41T53 57T28 83T18 117Q18 128 26 141T37 172Q45 222 66 269T133
354Q144 365 158 370T182 387Q205 410 219 439T252 506Q255 511 260 519T271 535T281 550T285 563Q284 571 282 575T275 582T265 589T252 602Q243 613 237 622T225 642T212 662T195 684Q188 692 176 697T158 709Q145 726 138 750T119 797Q105 820 90 835T61 864T40
892T31 926Q31 958 54 976T113 995Q153 995 180 976T228 929T270 873T315 823Q324 816 336 808T361 791T385 778T403 772Q401 772 414 782T446 809T481 848T506 893Q511 912 511 929T518 963Q521 970 540 989T582 1031T629 1072T664 1096Q684 1104 705 1104T741
1106Q782 1106 802 1087T823 1024Q823 1020 821 1006T814 973T802 936T784 905Q778 898 764 892T729 869T678 821T612 735Q605 724 599 710T587 683T578 659T575 645Q578 637 586 633T603 627T623 623T639 614Q651 603 659 580T682 539Q722 490 756 464T818 423T868
400T908 377T939 336T961 260Q966 237 972 219T979 184Z" />
<glyph unicode="y" glyph-name="y" horiz-adv-x="1038" d="M973 668Q971 653 967 625T959 569T952 520T948 496Q943 485 930 473T909 444Q906 436 907 424T903 401Q901 393 894 388T885 375Q871 333 858 280T833 176T809 79T784 8Q779 -2 771 -10T754 -28T735
-46T721 -68Q718 -74 716 -87T709 -111Q705 -119 701 -124T694 -135T688 -145T686 -158Q686 -164 687 -169T688 -180Q688 -196 673 -214T634 -249T577 -282T512 -310T446 -329T387 -336Q348 -336 297 -313T197 -258T106 -192T43 -137Q40 -134 36 -118T18 -86Q7
-74 -4 -68T-20 -55Q-39 -23 -39 6Q-39 29 -30 60T-3 126T36 194T85 253T139 296T195 313Q219 313 240 302T279 268Q284 259 286 243T297 211Q305 197 321 186T346 160Q362 138 368 115T385 78Q393 68 405 56T430 33T456 15T479 8Q493 10 503 24T521 57T536 93T549
123Q553 131 562 145T582 176T599 209T606 238Q606 251 590 260T551 278T501 294T455 313Q394 345 358 380T298 453T255 535T209 629Q201 643 190 656T170 686Q160 703 153 718T139 748T125 780T106 819Q99 832 90 848T71 881T56 916T49 950Q49 982 71 998T119
1014Q154 1014 178 999T221 958T259 899T303 831Q315 815 329 804T359 785T394 768T430 750Q438 743 445 733T461 717Q472 711 486 707T506 698Q521 683 536 660T568 612T600 562T634 516T667 484T700 471Q703 472 706 487T713 524T719 574T724 628T728 676T729
709Q729 720 726 738T719 776T712 811T709 834Q711 839 711 845T711 860Q711 876 710 894T709 924Q709 947 722 960T756 983T801 999T846 1018Q854 1022 867 1027T893 1038T920 1047T942 1051Q950 1051 958 1039T973 1006T986 962T996 914T1003 870T1006 838Q1006
821 1002 798T992 751T981 705T973 668Z" />
<glyph unicode="z" glyph-name="z" horiz-adv-x="1014" d="M989 47Q989 30 982 15T963 -11T939 -28T915 -35Q891 -35 860 -29T797 -23Q744 -23 679 -28T552 -40T440 -51T367 -57Q348 -57 329 -55T291 -53Q246 -53 215 -63T162 -74Q135 -71 116 -61T82 -34T57 3T35
47Q29 59 22 73T9 102T-1 134T-6 168Q-6 197 7 213T40 239T84 257T129 281Q163 304 192 332T248 393T304 459T365 528Q379 544 399 555T434 584Q442 593 448 610T465 641Q475 654 492 675T527 719T556 761T569 791Q569 799 553 799Q544 799 530 798T498 797Q483
797 464 799T423 805T378 810T332 813Q301 813 267 807T199 801Q182 801 166 804T138 816T119 844T111 895Q112 917 129 937T172 973T231 998T299 1008Q330 1008 370 1004T451 996T529 987T594 983Q616 983 642 985T695 989T750 993T801 995Q828 995 841 994T863
987T883 966T913 926Q922 914 935 901T960 872T980 839T989 803Q989 780 972 752T930 695T880 638T838 590Q818 564 799 537T762 483Q754 471 741 461T719 438Q710 426 707 408T692 375Q683 362 668 353T643 332Q626 313 612 294T585 254T558 210T528 160Q559 154
589 149T649 141T711 135T778 133Q792 133 804 134T831 135Q864 135 893 130T943 115T977 88T989 47Z" />
<glyph unicode="{" glyph-name="braceleft" horiz-adv-x="690" d="M705 1331Q702 1290 702 1256T694 1196T666 1156T604 1141Q579 1141 553 1150T496 1159Q479 1159 459 1152T421 1131T391 1097T379 1053Q379 1039 383 1024T393 990T403 952T408 909Q408 898 407
889T406 870Q406 843 415 813T424 758Q424 751 422 741T414 721T398 705T371 698Q368 698 364 699T356 700Q348 700 337 690T316 669T300 649T293 641Q293 635 302 626T322 607T343 592T356 584Q363 581 369 581T381 580H403Q422 580 433 561T450 518T457 469T459
432Q446 406 436 371T414 305Q405 284 395 265T376 225T361 182T356 133Q356 111 359 90T362 51Q362 27 357 11T344 -19T332 -46T326 -74Q326 -116 345 -135T395 -165T460 -180T528 -201Q551 -212 562 -225T573 -264Q573 -304 564 -325T541 -355T510 -364T477 -365Q451
-365 434 -358T399 -340T360 -314T305 -283Q273 -268 245 -257T195 -231T160 -192T147 -125Q147 -109 150 -94T154 -61Q154 -46 148 -30T141 4Q141 35 147 73T154 143Q154 163 153 181T152 217Q152 240 157 263T168 308T179 350T184 389Q184 417 171 430T138 450T93
461T47 477Q32 484 22 489T4 505T-6 538T-10 598Q-10 611 2 622T34 643T76 662T122 681T161 703T186 729Q194 745 198 770T203 821Q203 846 199 862T187 893T169 921T147 958Q141 971 139 987T129 1014Q123 1024 112 1031T90 1048T71 1070T63 1104Q63 1120 69 1131T85
1151T104 1169T123 1192Q132 1207 140 1229T157 1274T176 1321T199 1362Q208 1376 226 1391T256 1425Q268 1446 272 1461T286 1487T316 1503T385 1509Q417 1509 454 1507T520 1501Q554 1498 588 1493T651 1477T697 1450T715 1411Q715 1391 711 1369T705 1331Z"
/>
<glyph unicode="|" glyph-name="bar" horiz-adv-x="467" d="M403 127Q403 104 400 80T397 33Q397 -9 402 -55T408 -135Q408 -173 396 -183T360 -193Q342 -193 319 -189T276 -182Q224 -180 191 -180T138 -171T105 -137T80 -63Q77 -51 77 -40T76 -18Q76 6 78 31T80
92Q80 137 76 182T72 268Q72 294 76 315T85 355T94 395T98 440Q98 484 94 521T90 598Q90 639 92 686T96 782T100 883T102 983Q102 1006 102 1030T100 1075Q98 1100 90 1121T80 1163Q80 1172 82 1188T86 1222T90 1256T92 1284Q92 1316 89 1350T82 1422T75 1501T72
1591Q72 1612 76 1625T87 1645T102 1654T117 1657H119Q134 1663 152 1663Q181 1663 219 1645T290 1599T347 1536T371 1468Q371 1458 368 1445T362 1417T355 1386T352 1354Q352 1329 358 1305T365 1266Q365 1248 362 1230T355 1193T348 1153T344 1106Q344 1030 350
951T364 794T378 640T385 494Q385 462 380 432T375 375Q375 362 378 352T386 332T393 312T397 289Q397 272 394 254T391 217Q391 192 397 171T403 127Z" />
<glyph unicode="}" glyph-name="braceright" horiz-adv-x="707" d="M690 983Q690 975 686 967T678 950T670 930T666 909Q666 901 669 892T672 877Q672 874 665 856T649 815T630 770T614 735Q609 727 599 719T584 698Q577 686 577 671T569 641Q557 616 544 600T530
569Q530 554 538 549T558 543T584 542T611 537T631 517T639 473Q639 442 632 425T613 400T585 391T551 389H500Q480 387 473 381T465 365Q465 355 471 343T486 318T503 294T514 274Q521 254 525 233T532 190T540 149T551 111Q555 99 560 90T571 72T580 57T584 43Q584
18 571 -9T545 -68Q534 -99 529 -131T514 -186Q509 -197 501 -208T485 -229T469 -248T457 -264Q437 -292 427 -310T400 -340T354 -355T262 -360Q233 -360 187 -359T97 -347T20 -312T-12 -244Q-12 -233 -8 -226T1 -212T10 -196T14 -170Q14 -162 11 -154T8 -135Q8
-118 19 -99T39 -55Q45 -33 45 -17T49 12T60 31T90 41Q94 41 109 40T143 38T183 34T215 29Q225 26 231 21T244 12T260 4T285 0Q316 0 332 2T354 8T360 16T360 27Q360 45 351 67T342 109V135Q342 151 334 175T314 225T292 276T279 319Q277 324 277 337T276 367Q276
390 279 401T289 418T305 428T324 444Q332 459 340 470Q346 480 352 488T360 496Q358 509 340 518T301 537T262 560T244 594Q244 612 251 628T268 659T288 688T305 717Q314 738 319 763T336 811Q344 829 350 841T362 862T370 880T375 901Q375 920 365 943T348 995Q344
1014 343 1027T341 1052T337 1075T330 1104Q324 1119 320 1141T308 1186T291 1223T262 1239Q248 1239 230 1237T194 1231T160 1226T133 1223Q109 1224 91 1228T59 1243T38 1270T31 1315Q31 1336 40 1345T62 1357T91 1362T121 1368Q136 1372 159 1385T206 1411T253
1435T289 1446Q295 1446 302 1445T317 1444Q329 1444 338 1447T355 1454T370 1461T387 1464Q402 1462 425 1448T473 1414T518 1371T551 1331Q559 1319 561 1300T575 1262Q591 1232 611 1196T648 1123T678 1049T690 983Z" />
<glyph unicode="~" glyph-name="asciitilde" horiz-adv-x="1260" d="M1176 983Q1178 971 1178 960T1178 938Q1178 875 1166 821T1151 717Q1148 676 1147 633T1140 552T1120 485T1075 440Q1051 424 1019 406T950 372T871 346T788 336Q752 336 726 344T678 367T635
403T588 453Q562 479 533 503T487 547Q478 559 471 575T456 607T440 632T422 643Q420 643 419 641T412 639Q399 639 386 645T365 651Q339 651 323 628T295 571T275 497T256 422T229 365T188 342Q158 342 137 354T101 382T81 416T74 444Q74 499 84 540T110 619T141
694T170 780Q177 811 180 837T188 885T205 926T240 958Q255 968 275 974T320 987T370 999T424 1016Q452 1027 474 1037T520 1047Q547 1047 573 1031T624 990T675 939T727 889Q746 873 769 853T821 807Q827 801 840 790T868 766T898 746T926 737Q934 737 943 745T959
765T970 790T975 813Q975 832 972 849T967 889V958Q967 987 966 1015T965 1063Q965 1082 968 1096T983 1121T1014 1136T1069 1141Q1123 1141 1145 1101T1176 983Z" />
<glyph unicode="&#xa0;" glyph-name="nbspace" horiz-adv-x="471" />
<glyph unicode="&#xa1;" glyph-name="exclamdown" horiz-adv-x="569" d="M39 47V51Q39 76 47 121T55 225Q55 259 56 293T63 356Q66 371 72 382T84 403T98 423T109 444Q112 453 114 466T117 493T120 521T121 547Q121 559 120 572T119 600Q119 612 122 621T129 639T136
656T139 676Q139 685 136 696T133 717Q133 735 141 756T152 799Q156 837 158 868T174 920T218 953T311 965Q343 965 363 960T395 945T411 925T416 901Q416 883 411 864T406 825Q406 811 409 796T412 762Q412 737 410 710T408 657Q408 633 411 609T424 565Q431 550
442 541T463 520T480 489T487 434V375V338Q489 318 495 288T509 221T522 147T528 74Q528 46 523 23T506 -16Q498 -26 485 -30T451 -49Q431 -64 421 -76T399 -96T369 -110T317 -115Q301 -115 290 -112T268 -103T247 -92T221 -80Q205 -74 188 -70T154 -64T126 -59T109
-55Q99 -50 88 -40T66 -15T48 15T39 47ZM90 1331Q92 1335 111 1351T152 1385T194 1417T215 1432Q224 1435 233 1435T252 1436Q272 1436 293 1432T334 1420T372 1402T406 1380Q412 1377 423 1366T446 1342T466 1315T475 1294Q475 1281 474 1258T472 1210T468 1165T463
1141Q457 1132 444 1127T412 1118T373 1111T330 1102Q315 1099 305 1095T284 1087T262 1080T236 1077Q224 1077 199 1090T147 1130T100 1195T80 1286Q80 1311 90 1331Z" />
<glyph unicode="&#xa2;" glyph-name="cent" horiz-adv-x="741" d="M492 -10Q492 -23 493 -40T494 -78Q494 -104 489 -125T463 -147Q457 -147 448 -145T430 -143Q418 -145 404 -146T375 -147Q360 -147 347 -144T323 -134T307 -113T301 -78Q301 -58 303 -33T305
16Q305 36 301 48T297 80Q297 98 298 122T301 160Q302 168 302 181T304 209T307 239T311 268Q309 268 308 269T305 270Q291 272 271 273T246 276Q236 281 230 294T211 319Q203 324 195 326T180 334Q172 343 164 354T145 375Q136 390 131 406T117 434Q109 440 93
447T68 467Q65 468 61 476T52 492T44 507T41 512Q41 520 50 533T59 555Q59 566 56 573T51 592Q51 613 53 645T58 715T68 789T82 858Q88 881 96 907T104 954Q104 962 103 969T102 985Q102 1002 111 1011T135 1026T165 1040T193 1059Q196 1063 197 1069T200 1082T203
1095T207 1104Q212 1109 220 1109T242 1116Q254 1122 257 1129T276 1137Q283 1137 289 1136T301 1135Q307 1135 313 1135T328 1137Q322 1158 322 1192Q322 1218 323 1245T324 1296Q324 1324 320 1340T310 1369T300 1390T295 1413V1427Q295 1438 292 1443T289 1456Q289
1481 297 1492T319 1508T348 1512T379 1518Q387 1520 395 1524T414 1528Q426 1528 437 1527T457 1519T471 1498T477 1456Q477 1444 473 1428T469 1391Q469 1369 471 1348T473 1309Q473 1293 470 1283T464 1265T456 1253T451 1241Q449 1232 449 1222T449 1202Q449
1185 450 1169T451 1137Q451 1127 450 1120T446 1104Q472 1102 498 1102T549 1094Q557 1089 566 1080T588 1063Q597 1055 608 1049T625 1036Q630 1030 632 1018T639 995Q645 985 653 975T668 953T681 928T688 899V895Q688 886 686 866T678 825T666 783T647 752Q636
741 620 738T588 729Q575 724 561 717T533 701T504 688T477 682Q468 682 457 686T437 701T421 728T414 768Q414 783 415 799T416 831Q416 848 413 869T405 909T394 941T381 954Q376 954 370 952T354 950Q343 950 337 952T328 957T322 962T313 965Q298 965 291 959T280
942T274 918T268 889Q265 878 257 866T246 840Q241 826 239 810T229 774Q224 759 218 737T205 689T195 638T190 594Q190 566 209 541T256 498Q265 493 280 489T309 479Q322 472 331 466T352 454T378 445T416 442Q437 442 460 447T503 459T540 476T567 494Q571 497
579 507T597 527T621 546T649 555Q652 555 658 554T671 548T683 535T688 514Q688 495 683 477T678 442Q678 434 679 424T680 403Q680 382 667 360T621 315Q611 307 596 302T567 289Q552 279 536 271T510 262Q501 262 492 264T471 266H459Q465 248 465 221Q465 207
464 192T463 160Q463 146 463 131T469 102Q471 90 475 82T484 66T491 52T494 35Q494 22 493 12T492 -10Z" />
<glyph unicode="&#xa3;" glyph-name="sterling" horiz-adv-x="1303" d="M1262 399V389Q1262 367 1249 346T1223 297Q1210 268 1203 241T1186 197Q1148 130 1119 91T1056 31T979 4T872 -2Q849 -2 826 -1T780 0Q748 0 719 -4T663 -12T611 -21T563 -25Q511 -25 460
-19T360 -12Q337 -12 306 -15T240 -18Q220 -18 204 -16T174 -7T154 13T147 47V96Q147 130 140 163T133 227Q133 257 141 272T162 297T193 319T229 354Q235 362 245 378T264 412T280 445T287 467Q287 472 275 474T245 476T209 477T180 481Q165 485 144 493T104 513T72
538T59 563Q59 588 59 608T67 642T96 663T158 670Q173 670 197 666T238 662Q249 662 252 667T256 684Q256 700 251 722T239 767T226 808T217 836Q212 856 209 880T199 924Q189 952 179 971T168 1004Q168 1021 178 1041T199 1081Q202 1091 204 1104T211 1126Q216
1134 224 1138T236 1151Q251 1187 260 1227T284 1300T326 1356T406 1378Q448 1378 491 1369T578 1360Q596 1360 613 1364T646 1375T680 1388T717 1399Q746 1405 782 1408T848 1411Q866 1411 890 1408T938 1399T982 1384T1014 1360Q1024 1347 1031 1326T1044 1280T1055
1228T1065 1176Q1074 1133 1083 1101T1100 1039T1111 981T1116 913Q1116 898 1115 874T1110 825T1102 778T1090 745Q1086 740 1070 731T1034 713T996 695T971 684Q949 675 923 670T874 657Q844 646 826 637T786 627Q775 627 760 635T731 654T706 679T696 702Q696
712 700 723T705 745Q704 764 698 787T685 836T670 889T659 942Q654 977 650 1004T637 1054T611 1093T565 1126Q561 1127 553 1131T534 1141T512 1149T492 1153Q482 1153 475 1143T462 1119T455 1091T451 1069V1047Q451 1020 453 979T458 896T463 818T465 764V717Q465
696 468 686T478 671T493 666T514 666Q519 666 524 667T535 668Q552 668 570 662T603 642T627 604T637 545Q637 508 628 486T592 463Q575 463 558 467T526 471Q516 471 513 465T509 448T507 425T502 399Q501 395 494 380T479 346T464 306T457 274Q457 258 485 258Q493
258 502 259T520 260Q526 260 545 255T588 244T632 233T666 227Q681 225 697 225T731 225Q777 225 795 231T819 248T824 276T831 315Q833 325 841 340T856 373Q865 395 878 416T911 454T953 481T1006 492Q1027 492 1047 484T1096 469Q1120 463 1147 461T1197 452T1238
435T1262 399Z" />
<glyph unicode="&#xa4;" glyph-name="currency" horiz-adv-x="1028" d="M621 950Q615 971 608 981T585 994T544 998T477 997Q451 997 436 987T412 959T402 912T399 848Q399 823 400 802T406 766Q413 752 416 737T426 708T443 685T477 676Q520 676 549 686T596
718T621 775T629 860Q629 888 628 912T621 950ZM950 662Q956 642 956 610Q956 588 952 565T939 522T914 491T874 479Q859 479 845 484T817 498Q794 478 761 468T678 457Q655 457 626 463T565 469Q530 469 496 465T432 461Q424 461 417 461T403 463Q382 440 358
425T309 410Q286 410 276 419T260 438T250 458T236 467Q231 467 225 466T213 465Q195 465 171 478T124 512T87 558T72 606Q72 618 86 637T119 677T157 716T186 745Q210 769 242 795Q242 807 245 819T248 842Q248 847 245 855T239 874T232 893T229 911Q229 924 236
957T254 1024Q242 1036 229 1036Q223 1036 219 1035T209 1034Q200 1034 190 1041T171 1060T158 1088T152 1124Q152 1143 164 1164T193 1203T231 1233T270 1245Q288 1245 306 1237T342 1216T374 1191T401 1167Q403 1165 411 1157T432 1137Q467 1140 501 1141T561
1145Q563 1145 563 1146T565 1149Q571 1158 596 1170T647 1206Q662 1219 670 1230T687 1251T710 1265T750 1270Q760 1270 789 1257T849 1222T904 1173T928 1120Q928 1111 923 1095T909 1060T893 1027T881 1004L866 985Q866 981 868 981Q873 970 880 962T887 950Q889
944 889 939T889 928Q889 896 882 867T874 809V768Q882 759 893 745T916 716T937 687T950 662Z" />
<glyph unicode="&#xa5;" glyph-name="yen" horiz-adv-x="1403" d="M1348 643Q1352 635 1352 604Q1352 558 1340 536T1286 514Q1263 514 1236 519T1186 524Q1161 524 1137 518T1098 512Q1087 512 1077 512T1055 514Q1045 497 1040 481T1030 442H1044Q1077 442 1113
440T1181 432T1234 418T1262 399Q1268 384 1268 367Q1268 325 1256 307T1218 282T1156 276T1067 274Q1056 274 1046 269T1024 264Q1015 264 1004 267T985 270Q980 268 977 268T971 268Q963 256 955 246T942 225Q930 202 924 181T903 137Q885 108 858 71T800 0T735
-57T672 -80Q661 -80 649 -79T625 -78Q599 -78 581 -82T550 -90T525 -98T500 -102Q488 -102 479 -100T462 -93T445 -83T424 -72Q377 -52 340 -48T269 -34T202 0T131 88Q114 115 98 135T68 174T47 213T39 262Q39 307 45 336T76 379Q97 389 116 413T151 466T183 527T214
585T244 629T276 647Q288 647 303 638T334 617T362 590T379 567Q382 561 383 550T384 524T386 494T391 461Q394 447 403 436T416 410Q421 394 420 377T424 346Q439 298 479 266T578 233Q615 233 664 252Q674 256 692 271T727 304T757 343T770 379Q770 398 752 407T710
421T665 428T639 434Q630 440 624 451T613 477T601 505T588 530Q580 540 566 546T537 567Q523 581 515 599T492 631Q476 646 452 655T410 682Q403 688 401 702T391 725Q383 734 370 736T354 745Q351 747 349 759T340 782Q335 792 327 799T319 815Q319 820 320 824T322
834Q322 844 317 853T306 871T294 887T289 903Q289 922 296 942T303 991Q303 1009 300 1028T293 1067T286 1106T283 1143Q283 1158 288 1170T300 1193T311 1219T317 1253Q317 1272 314 1291T311 1325Q311 1336 314 1348T327 1370T351 1388T391 1395Q418 1395 435
1384T462 1356T478 1316T488 1273T495 1234T506 1206Q513 1195 526 1188T556 1174T588 1160T618 1143Q634 1130 645 1104T670 1049Q681 1024 697 999T721 954Q729 933 729 910T739 864Q748 845 770 819T817 770T863 730T891 713Q905 717 912 744T923 805T931 875T942
934Q949 959 957 972T973 995T991 1016T1012 1049Q1017 1060 1017 1077T1024 1112Q1029 1126 1037 1137T1049 1163Q1058 1194 1062 1224T1073 1279T1093 1318T1135 1333Q1156 1333 1179 1328T1214 1315Q1214 1314 1222 1300T1241 1268T1261 1234T1270 1212Q1276
1170 1276 1122Q1276 1084 1269 1045T1245 967Q1237 950 1226 935T1202 905T1180 876T1163 846Q1155 828 1152 809T1148 770T1145 731T1139 694Q1160 700 1180 700Q1198 700 1224 696T1276 685T1321 667T1348 643Z" />
<glyph unicode="&#xa6;" glyph-name="brokenbar" horiz-adv-x="479" d="M356 1481Q356 1459 349 1431T342 1370Q342 1333 345 1298T348 1233Q348 1207 344 1190T333 1161T321 1140T313 1120Q308 1105 308 1089T307 1057Q307 1028 309 1000T311 946Q311 926 308
909T297 879T273 859T233 852Q195 852 169 865T126 902T103 961T96 1040Q96 1082 98 1127T100 1214Q100 1260 93 1288T76 1335T59 1370T51 1407Q51 1412 52 1418T53 1432Q53 1450 47 1458T41 1481Q41 1522 55 1540T91 1565T140 1573T193 1581Q207 1584 220 1591T250
1599Q271 1599 290 1597T323 1584T347 1549T356 1481ZM420 121Q422 101 424 71T426 8Q426 -13 424 -33T417 -70T401 -96T375 -106Q362 -106 349 -103T319 -100Q298 -103 273 -106T225 -109Q200 -109 178 -104T139 -87T112 -51T102 8Q102 42 106 83T111 166Q111
182 109 194T105 219T100 243T98 272Q98 303 99 342T104 406Q107 427 110 464T117 539T127 607T141 645Q148 651 163 654T194 657T220 658T231 657H250Q315 657 346 622T377 508Q377 483 375 458T373 406Q373 381 375 357T383 309Q387 288 394 274T408 248T419
224T424 195Q424 175 422 157T420 121Z" />
<glyph unicode="&#xa7;" glyph-name="section" horiz-adv-x="1198" d="M1151 348Q1148 325 1139 299T1118 245T1097 192T1081 145Q1076 122 1075 104T1074 70T1072 40T1064 11T1046 -20T1012 -57Q1006 -64 995 -66T975 -76Q966 -84 962 -93T948 -106Q914 -125
866 -133T762 -141Q684 -141 606 -130T469 -106Q405 -93 361 -81T280 -50T208 -2T127 76Q102 101 90 116T73 146T68 179T68 227Q68 256 71 279T78 323T85 365T88 412Q88 430 84 447T76 482T67 518T63 557Q63 579 69 597T90 629T132 649T197 657Q209 657 220 654T244
647T272 640T305 637H332Q368 637 400 622T456 584T494 532T508 479Q508 458 505 433T502 381Q502 369 507 334T525 259T558 180T608 121Q618 114 631 103T660 80T694 61T731 53Q742 53 773 75T838 136T898 225T924 330Q924 351 912 377T887 430Q872 461 858 492T820
552T756 609T651 657Q606 671 557 683T457 715Q434 723 414 735T373 754Q350 760 327 762T282 765T240 770T203 784Q171 803 146 842T121 932Q121 952 124 964T135 989T155 1014T184 1051Q189 1058 197 1069T214 1093T228 1114T233 1126Q231 1132 215 1139T178
1154T139 1170T115 1184Q96 1204 89 1229T82 1284Q82 1321 90 1359T111 1434T139 1503T166 1560T188 1599T197 1614Q210 1629 236 1640T291 1658T344 1668T379 1671Q408 1671 452 1667T546 1658T648 1649T748 1645Q766 1645 779 1647T807 1649Q825 1649 836 1645T859
1634T881 1620T911 1606Q935 1597 969 1591T1036 1575T1091 1548T1114 1499Q1114 1486 1111 1481T1103 1473T1093 1467T1081 1454Q1073 1442 1072 1426T1063 1399Q1041 1364 1024 1350T981 1335Q969 1335 946 1339T895 1348T840 1360T791 1372Q772 1376 754 1384T716
1402T678 1420T639 1436Q617 1442 594 1445T551 1454Q537 1458 519 1464T481 1477T438 1487T393 1491Q375 1491 354 1486T314 1466T283 1422T270 1348Q270 1333 294 1322T355 1302T433 1288T512 1279T571 1274T594 1272Q638 1264 689 1253T778 1227Q801 1217 824
1200T872 1169Q900 1153 918 1144T948 1125T972 1104T999 1069Q1013 1049 1023 1037T1034 1001Q1034 955 1012 915T964 842T915 787T893 754Q893 748 901 738T923 716T950 694T975 678Q982 674 990 673T1007 671T1025 667T1044 657Q1051 652 1057 635T1075 600Q1086
584 1099 562T1125 513T1145 454T1153 387Q1153 378 1153 368T1151 348ZM784 905Q797 935 797 958Q797 994 772 1010T711 1034T633 1045T557 1057Q543 1060 526 1067T491 1080T456 1092T424 1098Q419 1098 415 1097T406 1094Q399 1091 384 1069T354 1018T328 962T317
922Q317 912 329 902T358 884T395 870T430 860Q448 856 470 856T516 855T563 854T608 848Q617 846 627 841T647 830T668 820T690 815Q696 815 710 825T739 851T767 881T784 905Z" />
<glyph unicode="&#xa8;" glyph-name="dieresis" horiz-adv-x="612" d="M610 1464Q610 1461 611 1458T612 1450Q612 1436 607 1420T598 1389Q593 1353 588 1327T567 1283T521 1257T436 1249Q403 1249 384 1254T354 1273T341 1307T338 1360Q338 1413 346 1442T374
1485T424 1502T502 1505Q542 1505 571 1496T610 1464ZM260 1343Q255 1329 239 1313T201 1282T152 1259T100 1249Q95 1249 79 1253T46 1269T14 1297T0 1341Q0 1372 6 1400T28 1449T68 1482T129 1495Q155 1495 180 1489T224 1469T254 1435T266 1386Q266 1368 260
1343Z" />
<glyph unicode="&#xa9;" glyph-name="copyright" horiz-adv-x="1319" d="M920 862Q920 854 918 838T911 804T900 769T885 743Q875 734 862 731T834 723Q823 719 812 713T788 701T765 691T741 686Q733 686 725 690T708 702T695 724T690 758Q690 770 691 783T692
809Q692 824 690 841T683 874T674 900T664 911Q659 911 653 909T639 907Q630 907 625 909T618 913T613 918T606 920Q594 920 588 915T578 900T573 880T567 856Q565 848 559 838T549 815Q546 804 544 791T537 762Q533 750 528 731T517 691T508 649T504 612Q504 589
519 568T559 530Q565 527 578 524T602 516Q613 511 621 506T638 496T659 488T692 485Q710 485 728 489T764 499T795 512T817 528Q820 531 826 539T842 557T863 573T887 580Q889 580 894 579T904 573T914 562T918 545Q918 529 914 514T909 485Q909 479 910 470T911
453Q911 434 901 417T862 379Q854 373 842 369T817 356Q805 348 792 341T770 334Q762 334 755 336T737 338Q720 338 706 337T674 336Q658 336 637 337T600 342Q588 344 571 344T549 348Q543 351 537 362T520 383Q514 388 508 389T496 395Q489 403 481 412T467 430Q459
442 455 455T442 477Q436 483 423 489T401 506Q399 507 395 514T388 527T382 539T379 543Q379 549 386 560T393 580Q393 588 391 594T387 610Q387 627 388 654T393 712T402 774T414 831Q419 851 425 872T432 911Q432 918 431 925T430 938Q430 952 438 959T458 972T483
983T506 999Q511 1006 512 1018T518 1036Q521 1041 528 1041T547 1047Q556 1053 559 1059T575 1063H596H629Q644 1063 653 1060T668 1053T681 1045T698 1040Q712 1037 725 1037T752 1036T778 1035T803 1028Q809 1025 816 1017T834 1001Q843 995 852 991T866 981Q869
975 871 965T879 946Q883 938 890 929T903 910T914 889T920 866V862ZM1098 772Q1096 784 1086 796T1067 829Q1059 845 1057 865T1047 899Q1031 928 1011 948T983 987Q976 1003 971 1020T960 1055T943 1087T916 1113T872 1132T805 1139Q763 1139 716 1136T623 1133Q597
1133 571 1136T520 1142T476 1148T442 1151H434H412Q394 1151 378 1139T349 1110T324 1072T304 1034T292 1004T287 993Q287 985 289 979T294 966T299 954T301 938Q301 926 297 918T287 902T274 886T262 866Q257 854 252 835T242 794T236 751T233 713Q232 685 236
659T248 606T264 553T283 500Q301 447 313 412T339 352T374 311T428 279Q457 266 497 255T582 234T677 220T774 215Q830 215 864 222T921 245T960 288T997 354Q1011 380 1026 409T1047 463Q1049 471 1050 483T1051 508T1051 534T1053 557Q1057 582 1065 606T1081
655T1094 703T1100 750Q1100 756 1099 761T1098 772ZM51 555Q51 564 50 571T49 588Q49 620 57 653T75 721T97 789T115 858Q117 872 117 890T118 926T119 960T123 989Q129 1024 151 1065T193 1143Q222 1197 245 1234T299 1294T379 1327T506 1337Q573 1337 642 1330T775
1311T894 1283T991 1249Q1039 1228 1067 1205T1116 1147T1154 1063T1196 938Q1209 900 1222 864T1245 790T1261 716T1266 639Q1266 617 1263 587T1253 527T1240 469T1225 424Q1217 408 1208 397T1190 374T1175 352T1169 324Q1169 312 1172 303T1179 284T1186 266T1190
246Q1190 246 1184 230T1167 190T1139 136T1104 83T1061 42T1014 25H983H971Q952 25 924 28T863 36T793 45T719 49Q654 49 588 45T463 41Q407 41 369 50T307 76T268 113T245 158T230 206T213 254Q208 267 197 280T174 309T148 340T123 377Q118 387 115 399T109
425T103 451T94 475Q83 506 69 522T51 555Z" />
<glyph unicode="&#xaa;" glyph-name="ordfeminine" horiz-adv-x="739" d="M711 1145V1110Q711 1085 709 1062T705 1013T700 960T698 899V836Q698 812 695 793T679 760T645 739T586 731Q566 731 552 741T537 780Q537 786 538 793T541 809Q507 795 469 782T389 757T305
740T223 733Q185 733 152 741T94 769T54 819T39 895Q39 906 40 918T41 942Q41 953 40 967T39 993Q39 1001 51 1016T83 1049T128 1083T180 1108Q208 1115 246 1117T324 1120T405 1123T476 1130T527 1147T547 1178Q547 1241 442 1241Q416 1241 388 1240T328 1239Q297
1239 269 1246T219 1253Q193 1253 163 1245T109 1237Q87 1237 75 1250T63 1284Q63 1314 79 1332T121 1362T178 1379T240 1386T297 1388T338 1391Q358 1393 377 1394T416 1395Q477 1395 530 1382T622 1338T685 1261T711 1145ZM674 481Q674 476 675 473T676 467Q676
445 664 429T631 400T584 380T533 367T484 360T444 358Q427 358 408 359T369 360Q341 360 295 354T197 348Q163 348 135 356T85 378T53 412T41 459Q41 475 47 495T62 534T85 565T113 578Q131 578 151 574T193 565T240 555T295 551Q335 551 376 560T465 569Q494
569 529 562T596 543T649 515T674 481ZM553 1006Q548 1012 534 1014T502 1016Q412 1016 369 1001T326 942Q326 914 339 904T371 893Q387 893 418 902T480 927T534 959T557 993Q557 996 557 999T553 1006Z" />
<glyph unicode="&#xab;" glyph-name="guillemotleft" horiz-adv-x="1309" d="M614 492Q619 482 621 474T623 457Q623 435 614 416T596 379Q582 347 569 306T538 227T498 165T444 139Q418 139 396 151T353 183T307 227T254 276Q236 291 215 306T173 339T131 376T96
416Q92 420 82 437T61 474T42 514T33 543Q34 564 56 585T106 627T158 664T190 694Q194 700 196 710T200 729T202 744T203 752Q210 760 223 767T256 788T298 823T348 885Q359 901 365 918T381 949T408 972T461 981Q471 981 487 966T519 928T546 876T557 821Q557
795 545 779T508 746T451 706T375 643Q375 644 369 638T356 624T342 607T336 590Q336 589 351 582T386 567T427 552T457 543Q465 541 472 541T487 541H512Q524 541 539 537T570 526T597 510T614 492ZM1243 492Q1248 482 1249 474T1251 457Q1251 435 1242 416T1225
379Q1211 347 1198 306T1167 227T1127 165T1073 139Q1047 139 1025 151T982 183T936 227T883 276Q865 291 844 306T802 339T760 376T725 416Q721 420 711 437T690 474T671 514T662 543Q663 564 685 585T735 627T787 664T819 694Q823 700 825 710T828 729T830 744T831
752Q838 760 852 767T885 788T927 823T977 885Q988 901 994 918T1009 949T1037 972T1090 981Q1100 981 1116 966T1148 928T1175 876T1186 821Q1186 795 1174 779T1137 746T1080 706T1004 643Q1004 644 998 638T985 624T971 607T965 590Q965 589 980 582T1015 567T1055
552T1085 543Q1093 541 1100 541T1116 541H1141Q1152 541 1168 537T1199 526T1226 510T1243 492Z" />
<glyph unicode="&#xac;" glyph-name="logicalnot" horiz-adv-x="1051" d="M975 666Q969 618 967 589T965 530Q965 503 964 492T961 471T958 450T956 408Q956 386 949 368T938 326Q936 306 936 289T933 257T919 235T887 227Q852 227 824 235T776 257T744 286T733
317Q733 339 736 354T742 384T749 415T752 457Q752 500 739 522T705 545Q692 545 673 540T627 526Q586 514 536 508T436 494Q379 484 324 476T217 467Q185 467 155 474T100 496T62 530T47 575Q47 601 56 625T70 678Q72 693 73 712T75 750T81 785T94 811Q103 820
120 826T157 835T201 839T246 840Q329 840 415 837T594 829Q632 827 669 822T733 817Q758 817 776 826T815 836Q873 836 904 827T950 798T969 746T975 666Z" />
<glyph unicode="&#xad;" glyph-name="uni00AD" horiz-adv-x="1032" d="M975 707Q975 692 975 674T970 641T957 616T930 606Q916 606 898 609T860 615T823 622T791 625Q772 623 753 617T713 602T672 584T627 567Q586 555 536 549T436 535Q379 525 324 517T217 508Q185
508 155 515T100 537T62 571T47 616Q47 642 56 666T70 719Q72 734 73 753T75 791T81 826T94 852Q109 867 143 873T214 880T283 881T328 879Q356 879 389 878T458 876T527 873T594 870Q632 868 669 863T733 858Q758 858 776 867T815 877Q873 877 904 868T950 839T969
786T975 707Z" />
<glyph unicode="&#xae;" glyph-name="registered" horiz-adv-x="834" d="M575 1094Q573 1087 568 1078T557 1065Q552 1061 545 1059T531 1055T519 1050T514 1042Q514 1034 520 1020T528 1001Q531 993 537 984T549 965Q551 957 551 949T555 932Q557 923 560 915T563
899Q563 887 549 872T524 852Q516 849 500 843T469 836Q456 836 449 847T436 874T428 911T420 950Q418 960 416 969T408 991Q403 1008 400 1020T385 1032Q373 1032 368 1030T361 1023T359 1009T358 985Q352 958 352 920Q352 910 354 902T356 885Q356 865 342 857T311
848Q290 848 276 852T262 883Q262 918 270 947T279 1008V1049Q279 1070 281 1089T283 1137Q283 1154 281 1161T270 1176Q267 1179 263 1180T258 1192Q258 1201 265 1212T285 1229Q290 1232 297 1231T311 1233Q319 1235 326 1237T336 1239Q345 1241 353 1241T369
1241H391Q425 1241 454 1246T506 1251Q513 1251 517 1251T524 1249T532 1244T545 1233Q554 1224 558 1219T569 1200Q571 1194 571 1186T573 1167Q575 1152 578 1142T582 1118Q582 1108 575 1094ZM520 1126Q518 1129 514 1132T504 1141Q499 1147 499 1153T496 1161Q481
1171 461 1171Q448 1171 431 1170T395 1165Q390 1165 383 1164T367 1161T354 1157T348 1151Q348 1146 349 1141T350 1130Q352 1121 352 1112T354 1096Q359 1098 364 1098T375 1098H399Q415 1098 436 1101T475 1104H489Q499 1104 509 1108T520 1124V1126ZM678 1092Q678
1100 671 1107T659 1126Q654 1136 653 1147T647 1167Q638 1186 627 1198T610 1221Q603 1236 599 1252T586 1281T557 1304T502 1313Q477 1313 449 1311T393 1309Q362 1309 332 1314T285 1319H281H266Q251 1319 238 1304T214 1271T199 1239T193 1225Q193 1214 197
1208T201 1192Q201 1178 193 1171T176 1149Q173 1141 170 1129T165 1104T162 1079T160 1057Q158 1023 167 992T188 928Q199 896 206 875T223 840T244 816T276 797Q294 788 318 781T369 769T426 761T483 758Q517 758 537 762T572 776T596 802T618 842Q626 857 635
874T647 907Q650 917 650 933T651 963Q657 992 668 1021T680 1079Q680 1082 679 1085T678 1092ZM51 963Q51 968 50 972T49 981Q49 1000 53 1020T64 1060T77 1101T88 1143Q89 1151 89 1162T90 1184T91 1205T94 1223Q97 1244 110 1268T135 1315Q153 1347 166 1369T199
1406T247 1426T324 1432Q364 1432 405 1428T484 1416T556 1399T614 1378Q642 1365 659 1351T689 1317T712 1267T737 1192Q753 1145 766 1102T778 1012Q778 999 776 981T771 945T763 910T754 883Q744 864 733 853T721 823Q721 808 727 799T733 776Q733 777 725 756T703
710T669 664T629 643H610H602Q590 643 574 645T537 650T495 655T451 657Q412 657 372 655T297 653Q246 653 220 665T180 696T162 737T147 780Q141 797 124 814T94 854Q86 866 84 883T76 913Q70 932 62 942T51 963Z" />
<glyph unicode="&#xaf;" glyph-name="overscore" horiz-adv-x="438" d="M428 1307Q420 1292 405 1282T374 1264T342 1253T317 1249Q297 1249 276 1253T234 1263T189 1273T143 1280Q124 1282 99 1281T52 1283T15 1298T0 1337Q0 1385 13 1411T48 1450T102 1465T170
1468Q176 1466 183 1466T199 1466Q233 1466 275 1472T352 1479Q394 1479 416 1450T438 1358Q438 1330 428 1307Z" />
<glyph unicode="&#xb0;" glyph-name="degree" horiz-adv-x="575" d="M537 1280Q537 1275 538 1272T539 1264Q539 1241 534 1218T528 1171V1108Q528 1066 522 1033T499 976T453 939T375 926Q356 926 334 930T289 934Q263 934 237 932T188 930Q152 930 131 943T96
977T76 1025T63 1079Q58 1101 49 1123T39 1163Q39 1173 41 1182T43 1200Q43 1209 36 1225T29 1253Q29 1259 33 1278T44 1318T57 1359T68 1384Q74 1392 93 1398T137 1408T190 1414T244 1418T289 1420T315 1421Q347 1421 379 1411T440 1385T489 1347T522 1303Q527
1295 532 1289T537 1280ZM332 1280Q326 1302 322 1306T307 1311H295Q278 1311 259 1313T223 1315Q182 1315 171 1289T160 1208Q160 1191 161 1175T166 1147Q166 1122 181 1103T219 1083Q252 1083 274 1089T311 1112T332 1153T338 1217Q338 1237 337 1254T332 1280Z"
/>
<glyph unicode="&#xb1;" glyph-name="plusminus" horiz-adv-x="948" d="M887 872Q889 866 890 859T891 842Q891 815 886 778T871 704T851 638T829 600Q806 580 779 570T728 555T687 550T668 549Q646 549 632 549T610 547T598 537T594 516Q594 498 599 474T610
428T622 387T627 360Q626 355 610 332T568 281T508 233T436 211Q405 211 384 220T350 245T330 281T324 324Q324 350 327 381T330 446Q330 475 329 492T324 517T312 528T291 530H260Q249 532 232 535T203 539Q189 537 173 533T139 528Q106 528 89 545T65 589T58
649T57 715Q57 738 53 757T49 791Q49 804 53 809T65 816T80 820T96 829Q102 835 104 842T109 854T114 862T127 866Q132 866 141 865T164 864Q179 864 192 872T217 891T242 909T270 918Q283 918 302 913T336 907Q351 907 355 921T360 954Q360 969 358 986T354 1020T350
1051T348 1077Q348 1091 353 1109T370 1144T397 1172T434 1184Q453 1184 469 1175T506 1157Q521 1150 533 1146T553 1135T565 1113T569 1071Q569 1048 566 1019T563 963Q563 938 568 927T598 915Q615 915 635 916T666 918Q678 918 691 917T717 915Q743 915 767
919T811 924Q836 924 855 914T887 872ZM897 47Q899 36 899 25T899 4Q899 -52 880 -84T809 -117Q789 -117 771 -105T727 -86Q708 -81 691 -81T651 -78Q609 -72 585 -73T541 -78T499 -88T438 -98Q404 -101 366 -102T293 -104Q271 -104 247 -95T199 -86Q171 -83 145
-83T99 -80T67 -68T55 -35Q55 0 67 28T98 77T140 108T186 119Q249 119 312 110T449 100Q543 100 629 107T803 115Q818 115 833 114T862 106T884 86T897 47Z" />
<glyph unicode="&#xb2;" glyph-name="twosuperior" horiz-adv-x="571" d="M512 1233Q512 1195 501 1168T472 1121T432 1083T385 1049T338 1010T297 961Q321 961 344 965T388 975T427 984T461 989Q474 989 485 985T503 971T515 941T520 893Q520 850 515 824T497
785T459 767T395 762Q357 762 330 764T289 766H215Q173 766 144 768T96 785T68 833T59 928Q59 949 61 959T72 978T100 999T152 1038Q160 1043 162 1050T170 1063Q185 1072 202 1077T233 1094Q255 1110 278 1129T319 1167T348 1201T360 1225Q360 1243 351 1250T326
1257Q299 1257 274 1246T226 1221T180 1196T137 1184Q114 1184 104 1195T94 1223Q94 1229 95 1236T96 1251Q96 1263 87 1275T66 1301T45 1330T35 1362Q35 1385 51 1400T89 1425T137 1441T182 1454Q211 1463 232 1472T281 1481Q299 1481 328 1475Q340 1471 365 1463T417
1444T466 1424T494 1405Q497 1399 500 1376T506 1326T510 1272T512 1233Z" />
<glyph unicode="&#xb3;" glyph-name="threesuperior" horiz-adv-x="530" d="M453 1348Q465 1313 465 1278Q465 1236 451 1194T416 1108Q434 1101 447 1085T468 1047T481 999T485 946Q485 892 475 856T443 799T386 768T301 758Q261 758 222 761T156 766Q140 766
124 764T94 762Q68 762 56 794T43 883Q43 935 58 956T119 977Q134 977 151 976T186 975Q193 975 209 976T242 984T272 1002T285 1038Q285 1044 284 1050T278 1060T262 1066T229 1069H195Q156 1074 134 1083T111 1118Q111 1163 130 1179T172 1196Q183 1196 196 1194T225
1192Q239 1192 256 1196T288 1211T313 1238T324 1280Q324 1294 311 1298T281 1303Q263 1303 242 1300T200 1293T161 1286T129 1282Q124 1282 113 1287T89 1304T68 1331T59 1368Q59 1383 69 1395T96 1417T134 1432T180 1438Q199 1438 219 1437T258 1436Q293 1436
320 1439T377 1442Q379 1442 391 1428T416 1397T441 1365T453 1348Z" />
<glyph unicode="&#xb4;" glyph-name="acute" horiz-adv-x="416" d="M410 1413Q402 1389 376 1372T321 1343T266 1326T233 1317Q208 1312 188 1302T150 1280T116 1260T82 1251Q70 1251 56 1256T30 1270T9 1288T0 1309Q0 1325 13 1346T44 1389T79 1427T106 1454Q123
1473 139 1489T168 1520Q182 1535 193 1552T219 1582T252 1605T299 1614Q315 1614 335 1600T374 1563T404 1509T416 1448Q416 1428 410 1413Z" />
<glyph unicode="&#xb5;" glyph-name="mu" horiz-adv-x="1157" d="M1085 348Q1093 316 1097 295T1102 258Q1102 244 1098 234T1086 215T1063 195T1028 172Q1007 159 994 149T968 131T943 119T911 115Q871 115 844 140T817 213Q817 227 818 246T819 285Q819 298
819 310T817 332T812 348T803 354Q796 354 778 348T736 331T686 309T638 287T599 269T580 260Q572 258 564 257T545 256Q531 256 515 257T481 258Q446 258 414 251T351 235T291 219T233 211Q195 211 168 232T123 288T95 366T80 454T74 539T72 608Q72 626 76 645T86
682T95 716T100 748Q100 771 98 795T96 844Q96 881 109 924T137 1012Q147 1043 153 1066T170 1106T199 1130T252 1139Q260 1139 279 1136T322 1128T373 1117T423 1102T463 1086T485 1069Q492 1058 494 1045T496 1018Q496 997 493 975T485 933T477 896T473 868Q473
857 476 844T479 817Q477 802 472 787T465 760Q465 738 469 709T473 651Q473 636 471 624T465 600T460 579T459 563Q460 542 461 529T467 509T479 500T498 498Q539 498 581 500T661 507T732 519T788 539Q797 548 800 570T804 616T804 662T803 692Q803 794 796 864T788
969Q788 978 793 993T807 1022T832 1046T868 1057Q889 1057 908 1051T942 1034T966 1010T975 981Q975 969 973 953T971 922Q971 895 976 863T987 798T999 736T1004 684Q1004 661 1000 641T995 600Q995 576 1003 557T1021 522T1043 491T1061 463Q1069 443 1073 411T1085
348Z" />
<glyph unicode="&#xb6;" glyph-name="paragraph" horiz-adv-x="1522" d="M1454 1122Q1445 1101 1415 1090T1354 1079H1339Q1337 1065 1336 1053T1335 1028Q1335 1000 1339 975T1347 924T1356 872T1360 815Q1360 795 1359 775T1358 735Q1358 721 1361 712T1368
694T1375 679T1378 662Q1378 654 1372 643T1366 623Q1369 594 1376 562T1390 496T1403 429T1409 365Q1409 345 1399 326T1389 279Q1389 256 1392 229T1400 175T1407 121T1411 72Q1411 43 1402 24T1370 4Q1359 4 1347 7T1321 10Q1309 8 1294 5T1266 2Q1251 2 1240
16T1222 53T1210 101T1206 152Q1206 179 1207 206T1208 262Q1208 355 1200 439T1188 592Q1167 581 1147 581T1109 578T1082 563T1071 516Q1071 461 1073 418T1078 335T1086 258T1095 180T1104 89T1112 -23Q1114 -44 1119 -65T1124 -98Q1124 -119 1110 -133T1076
-156T1035 -172T999 -186Q964 -203 941 -215T889 -227Q878 -227 867 -226T840 -219Q835 -216 834 -212T821 -205Q816 -205 815 -206T811 -207Q809 -207 797 -199T769 -179T740 -151T721 -123Q715 -108 711 -87T705 -40T701 9T700 55Q700 110 708 166T727 279T748
391T764 502Q724 500 687 495T614 489Q594 489 576 495T540 508T503 522T463 528H434Q399 528 366 539T303 553Q265 557 239 566T191 590T150 628T106 680Q95 695 83 709T60 740T44 777T37 821Q37 843 46 865T66 911T87 964T96 1026V1051Q96 1058 99 1072T107 1102T120
1134T139 1161Q147 1169 158 1169T182 1180Q195 1188 200 1197T215 1210Q238 1222 264 1226T318 1233T373 1238T424 1249Q439 1254 449 1261T472 1276T504 1289T557 1294Q588 1294 618 1286T677 1269T733 1251T786 1243Q801 1243 811 1253T829 1277T845 1309T865
1341T895 1366T942 1376Q963 1376 981 1362T1012 1328T1034 1290T1042 1262Q1059 1251 1090 1251Q1110 1251 1131 1253T1172 1259T1205 1265T1225 1268Q1253 1268 1285 1260T1346 1249Q1365 1247 1384 1247T1420 1241T1446 1218T1456 1165Q1456 1151 1456 1138T1454
1122ZM1169 750Q1164 768 1163 795T1160 853T1157 916T1151 977Q1142 995 1141 1013T1136 1047T1125 1073T1092 1083Q1084 1083 1076 1082T1059 1081Q1051 1081 1044 1082T1030 1085Q1036 1051 1038 1018T1040 950Q1040 919 1039 889T1038 827Q1038 804 1038 782T1042
737Q1078 737 1110 740T1169 750ZM803 1071Q782 1067 752 1065T689 1062T623 1057T564 1047T522 1028T506 997Q506 989 509 978T512 950Q512 927 503 912T494 883Q494 876 497 867T505 847T515 826T524 807Q537 773 546 754T574 726T630 715T737 713Q762 713 775
717T792 729T797 752T797 786V831Q797 875 802 925T807 1018Q807 1033 806 1046T803 1071Z" />
<glyph unicode="&#xb7;" glyph-name="middot" horiz-adv-x="465" d="M397 760Q399 744 401 712T403 647Q403 607 395 584T367 548T312 532T225 528Q211 528 199 528T176 532Q156 535 134 548T92 577T60 611T47 639Q47 651 49 666T53 695T58 721T61 739Q63 751
64 765T68 793T73 818T80 836Q86 842 115 848T180 860T253 868T309 872H340Q358 872 367 869T381 855T389 822T397 760Z" />
<glyph unicode="&#xb8;" glyph-name="cedilla" horiz-adv-x="512" d="M512 -330Q512 -338 508 -353T496 -384T479 -410T461 -422H446Q438 -422 432 -425T421 -432T411 -440T399 -446Q368 -456 333 -458T260 -467Q238 -472 219 -482T178 -492H156Q140 -492 128
-499T104 -506Q82 -506 63 -492T30 -457T8 -409T0 -356Q0 -323 15 -305T53 -278T107 -266T167 -261T226 -254T274 -236Q263 -227 251 -224T226 -220T203 -219T182 -213Q174 -210 163 -199T140 -175T121 -149T113 -129Q113 -118 117 -99T127 -63Q133 -51 144 -41T162
-16Q167 -8 167 4T172 25Q177 32 187 40T211 57T237 70T260 76Q266 75 274 68T290 50T303 29T309 10Q309 -10 299 -23T276 -50T253 -78T242 -115Q242 -121 248 -124T260 -127Q276 -127 302 -123T356 -119Q426 -119 462 -144T502 -240Q502 -251 499 -259T496 -276Q496
-290 504 -304T512 -330Z" />
<glyph unicode="&#xb9;" glyph-name="onesuperior" horiz-adv-x="516" d="M489 848Q489 770 438 770Q418 770 399 774T377 778Q346 778 322 779T274 781T223 783T160 784Q137 784 118 785T83 793T60 813T51 852Q51 900 73 921T147 942Q158 942 174 937T203 932Q218
932 223 946T228 983T229 1035T231 1094Q231 1098 233 1108T237 1131T242 1154T244 1171Q244 1182 228 1186T197 1190Q175 1190 152 1187T109 1184Q84 1184 72 1190T59 1219Q59 1240 65 1263T72 1303Q72 1333 65 1357T57 1401Q57 1416 68 1429T113 1442Q137 1442
168 1439T231 1436Q254 1436 279 1439T326 1442Q349 1442 364 1438T390 1422T404 1392T408 1341Q408 1261 399 1185T377 1024Q374 1002 370 987T365 958Q365 945 374 939T398 929T428 924T459 918T482 904T492 877Q492 870 492 864T489 848Z" />
<glyph unicode="&#xba;" glyph-name="ordmasculine" horiz-adv-x="735" d="M666 1253Q668 1247 668 1242T668 1231Q668 1199 661 1170T653 1112Q653 1090 654 1068T655 1022Q655 961 648 913T620 830T560 778T457 760Q434 760 405 766T344 772Q309 772 275 768T211
764Q166 764 139 783T96 832T70 899T53 975Q50 990 44 1004T33 1033T23 1061T20 1087Q20 1103 23 1117T27 1145Q27 1150 24 1158T18 1177T11 1196T8 1214Q8 1225 13 1251T27 1307T43 1363T59 1399Q67 1411 91 1419T148 1432T218 1441T288 1445T346 1447T381 1448Q421
1448 461 1435T538 1399T602 1347T647 1284Q652 1273 659 1265T666 1253ZM653 385Q651 385 638 382T608 376T579 370T565 367Q550 367 534 372T499 383T461 394T420 399Q391 397 368 392T322 380T273 370T217 365Q185 365 152 368T92 382T48 412T31 463Q31 461
34 478T51 516T88 555T154 573H186Q213 573 240 579T293 592T342 606T387 614Q401 614 413 611T438 608Q466 608 491 614T540 626T584 639T623 645Q644 645 662 632T692 597T712 550T719 500Q719 463 703 432T653 385ZM399 1253Q394 1274 386 1284T363 1297T323
1301T256 1300Q230 1300 215 1290T191 1262T181 1215T178 1151Q178 1100 184 1069Q191 1055 195 1040T205 1011T222 988T256 979Q299 979 328 989T375 1021T400 1078T408 1163Q408 1191 406 1215T399 1253Z" />
<glyph unicode="&#xbb;" glyph-name="guillemotright" horiz-adv-x="1313" d="M696 616Q688 633 688 651Q688 671 697 691T715 729Q729 761 742 802T773 881T812 943T866 969Q891 969 913 957T958 925T1004 881T1057 831Q1075 816 1096 801T1138 768T1179 732T1214
692Q1217 687 1227 670T1249 632T1269 592T1278 565Q1276 544 1254 523T1205 481T1152 444T1120 414Q1116 408 1114 398T1111 379T1109 364T1108 356Q1101 348 1087 341T1054 320T1012 285T963 223Q952 207 946 190T930 159T902 136T850 127Q838 127 822 142T790
180T763 231T752 287Q752 312 765 327T802 360T860 400T936 465Q936 464 942 469T955 483T969 501T975 516Q975 517 960 524T925 540T884 556T854 565Q846 567 839 567T823 567H799Q787 567 772 571T741 582T714 598T696 616ZM68 616Q63 626 61 634T59 651Q59 671
68 691T86 729Q100 761 113 802T144 881T184 943T238 969Q263 969 285 957T329 925T375 881T428 831Q446 816 467 801T509 768T551 732T586 692Q589 687 599 670T620 632T640 592T649 565Q647 544 625 523T576 481T524 444T492 414Q488 408 486 398T482 379T480
364T479 356Q472 348 458 341T425 320T383 285T334 223Q323 207 317 190T301 159T273 136T221 127Q209 127 193 142T161 180T134 231T123 287Q123 312 136 327T173 360T231 400T307 465Q307 464 313 469T326 483T340 501T346 516Q346 517 331 524T296 540T255 556T225
565Q217 567 210 567T195 567H170Q158 567 143 571T112 582T85 598T68 616Z" />
<glyph unicode="&#xbc;" glyph-name="onequarter" horiz-adv-x="1210" d="M926 1339Q928 1335 928 1327Q928 1311 920 1289T900 1240T872 1187T843 1135T818 1092T801 1061Q783 1010 770 980T746 927T724 884T700 829Q690 790 670 744T628 651T583 558T547 475Q529
424 513 380T481 294T445 215T401 137Q386 116 373 94T350 53T333 18T319 -2Q305 -16 295 -18T281 -23Q269 -23 253 -19T220 -4T193 22T182 61Q182 73 196 105T230 176T271 250T307 307Q324 332 338 365T373 430Q399 472 425 519T478 616T527 713T571 807Q591 850
600 885T623 958Q632 971 646 992T674 1040Q684 1060 692 1086T723 1139Q736 1170 747 1188T767 1218T785 1240T803 1264Q815 1285 823 1302T839 1331T858 1349T887 1356Q902 1356 913 1351T926 1339ZM498 848Q498 770 446 770Q426 770 407 774T385 778Q354 778
330 779T282 781T231 783T168 784Q146 784 126 785T91 793T68 813T59 852Q59 900 82 921T156 942Q167 942 183 937T211 932Q226 932 231 946T237 983T238 1035T240 1094Q240 1098 242 1108T246 1131T250 1154T252 1171Q252 1182 236 1186T205 1190Q183 1190 160
1187T117 1184Q92 1184 80 1190T68 1219Q68 1240 74 1263T80 1303Q80 1333 73 1357T66 1401Q66 1416 76 1429T121 1442Q146 1442 177 1439T240 1436Q263 1436 287 1439T334 1442Q357 1442 372 1438T398 1422T412 1392T416 1341Q416 1261 407 1185T385 1024Q382
1002 378 987T373 958Q373 945 382 939T406 929T436 924T467 918T490 904T500 877Q500 870 500 864T498 848ZM1169 279Q1166 263 1157 259T1138 252T1120 241T1112 207Q1112 188 1115 166T1118 121Q1118 103 1111 82T1092 42T1064 12T1028 0Q1017 0 1007 6T990
22T978 43T973 63Q973 76 977 87T986 110T995 136T999 170Q999 198 997 211T990 230T975 236T952 236Q934 236 912 233T867 226T824 219T788 215Q765 215 743 218T702 229T673 251T662 289Q662 312 667 335T676 373Q678 397 679 435T683 512T688 581T700 621Q706
627 716 630T737 634T755 635T766 635Q787 635 810 631T853 617T886 596T899 567Q899 532 893 501T887 430Q887 400 891 384T906 359T932 350T973 348Q1002 348 1008 358T1014 391Q1014 416 1008 449T1001 510Q1001 520 1003 533T1014 558T1038 578T1081 586Q1109
586 1119 568T1130 526Q1130 510 1127 492T1119 454T1112 417T1108 383Q1108 358 1117 348T1138 331T1159 316T1169 289V279Z" />
<glyph unicode="&#xbd;" glyph-name="onehalf" horiz-adv-x="1225" d="M915 1339Q918 1335 918 1327Q918 1311 910 1289T890 1240T862 1187T833 1135T808 1092T791 1061Q773 1010 760 980T736 927T714 884T690 829Q680 790 660 744T617 651T572 558T537 475Q518
424 502 380T470 294T435 215T391 137Q376 116 363 94T340 53T323 18T309 -2Q295 -16 284 -18T270 -23Q259 -23 242 -19T210 -4T183 22T172 61Q172 73 186 105T220 176T261 250T297 307Q314 332 328 365T362 430Q388 472 415 519T468 616T517 713T561 807Q571 828
578 847T590 885T600 922T612 958Q622 971 636 992T664 1040Q674 1060 682 1086T713 1139Q726 1170 737 1188T757 1218T775 1240T793 1264Q805 1285 812 1302T828 1331T847 1349T877 1356Q892 1356 902 1351T915 1339ZM487 848Q487 770 436 770Q416 770 397 774T375
778Q344 778 320 779T272 781T221 783T158 784Q135 784 116 785T81 793T58 813T49 852Q49 900 71 921T145 942Q156 942 172 937T201 932Q216 932 221 946T226 983T227 1035T229 1094Q229 1098 231 1108T235 1131T240 1154T242 1171Q242 1182 226 1186T195 1190Q173
1190 150 1187T106 1184Q82 1184 70 1190T57 1219Q57 1240 63 1263T70 1303Q70 1333 63 1357T55 1401Q55 1416 66 1429T111 1442Q135 1442 166 1439T229 1436Q252 1436 277 1439T324 1442Q347 1442 362 1438T388 1422T402 1392T406 1341Q406 1261 397 1185T375
1024Q372 1002 367 987T362 958Q362 945 371 939T395 929T425 924T456 918T479 904T489 877Q489 870 489 864T487 848ZM1171 461Q1171 423 1160 396T1131 348T1091 311T1044 276T997 238T956 188Q981 188 1004 192T1047 202T1086 212T1120 217Q1133 217 1144 213T1163
199T1175 169T1180 121Q1180 78 1175 52T1157 13T1119 -5T1055 -10Q1017 -10 990 -8T948 -6H874Q833 -6 804 -4T755 13T728 61T719 156Q719 177 721 187T732 206T759 227T811 266Q819 271 821 278T829 291Q845 300 862 305T893 322Q915 338 937 357T978 395T1008
429T1020 453Q1020 471 1011 478T985 485Q958 485 933 474T885 449T840 424T797 412Q774 412 764 423T754 451Q754 457 755 464T756 479Q756 491 747 503T725 529T704 558T694 590Q694 613 710 628T749 653T797 669T842 682Q871 691 891 700T940 709Q949 709 961
708T987 702Q999 698 1024 690T1077 672T1126 652T1153 633Q1156 627 1159 604T1165 553T1169 499T1171 461Z" />
<glyph unicode="&#xbe;" glyph-name="threequarters" horiz-adv-x="1206" d="M922 1339Q924 1335 924 1327Q924 1311 916 1289T896 1240T868 1187T839 1135T814 1092T797 1061Q779 1010 766 980T742 927T720 884T696 829Q686 790 666 744T624 651T579 558T543
475Q525 424 509 380T477 294T441 215T397 137Q382 116 369 94T346 53T329 18T315 -2Q301 -16 291 -18T276 -23Q265 -23 248 -19T216 -4T189 22T178 61Q178 73 192 105T226 176T267 250T303 307Q320 332 334 365T369 430Q395 472 421 519T474 616T523 713T567 807Q577
828 584 847T596 885T606 922T618 958Q628 971 642 992T670 1040Q680 1060 688 1086T719 1139Q732 1170 743 1188T763 1218T781 1240T799 1264Q811 1285 818 1302T834 1331T854 1349T883 1356Q898 1356 909 1351T922 1339ZM1165 279Q1162 263 1153 259T1134 252T1116
241T1108 207Q1108 188 1111 166T1114 121Q1114 103 1107 82T1088 42T1060 12T1024 0Q1013 0 1003 6T986 22T974 43T969 63Q969 76 973 87T982 110T991 136T995 170Q995 198 993 211T986 230T971 236T948 236Q930 236 908 233T863 226T820 219T784 215Q761 215
739 218T698 229T669 251T657 289Q657 312 663 335T672 373Q674 397 675 435T679 512T684 581T696 621Q702 627 712 630T733 634T751 635T762 635Q783 635 806 631T849 617T882 596T895 567Q895 532 889 501T883 430Q883 400 887 384T902 359T928 350T969 348Q998
348 1004 358T1010 391Q1010 416 1004 449T997 510Q997 520 999 533T1010 558T1034 578T1077 586Q1105 586 1115 568T1126 526Q1126 510 1123 492T1115 454T1108 417T1104 383Q1104 358 1113 348T1134 331T1155 316T1165 289V279ZM465 1348Q477 1313 477 1278Q477
1236 464 1194T428 1108Q446 1101 459 1085T480 1047T493 999T498 946Q498 892 488 856T456 799T398 768T313 758Q273 758 234 761T168 766Q152 766 136 764T106 762Q80 762 68 794T55 883Q55 935 71 956T131 977Q147 977 164 976T199 975Q206 975 222 976T254
984T284 1002T297 1038Q297 1044 296 1050T290 1060T274 1066T242 1069H207Q169 1074 146 1083T123 1118Q123 1163 143 1179T184 1196Q195 1196 208 1194T238 1192Q251 1192 268 1196T300 1211T325 1238T336 1280Q336 1294 323 1298T293 1303Q275 1303 254 1300T213
1293T173 1286T141 1282Q136 1282 125 1287T102 1304T81 1331T72 1368Q72 1383 82 1395T108 1417T147 1432T193 1438Q211 1438 231 1437T270 1436Q305 1436 332 1439T389 1442Q391 1442 403 1428T428 1397T453 1365T465 1348Z" />
<glyph unicode="&#xbf;" glyph-name="questiondown" horiz-adv-x="1171" d="M66 356Q64 385 55 420T45 492Q45 518 51 533T70 558T102 577T147 598Q166 607 181 618T211 635Q234 645 256 652T296 667T329 684T350 705Q354 711 355 732T362 774Q369 791 379 807T395
838Q401 858 402 878T406 914T421 940T459 950Q474 950 492 948T530 942T570 937T610 934Q633 934 656 936T700 938Q734 938 752 923T770 883Q770 860 760 838T743 795Q735 767 728 743T710 698T684 660T647 629Q616 610 569 593T477 559Q439 546 408 539T354 515T318
466T305 373Q305 335 306 296T307 231Q305 214 299 190T293 145Q293 124 308 109T345 85T395 71T446 66Q456 66 464 69T483 77T509 87T547 98Q559 101 574 103T602 106T626 110T641 117Q650 126 657 158T670 227T677 300T680 350Q680 382 677 414T674 473Q674 515
708 538T793 573T905 586T1018 588Q1038 588 1056 586T1089 577T1113 557T1122 522Q1122 479 1115 445T1108 373Q1108 344 1109 315T1110 256Q1110 204 1108 161T1096 82T1064 17T1004 -35T906 -75T762 -104Q708 -112 651 -116T547 -129Q507 -135 477 -143T422
-152Q411 -152 392 -148T350 -136T304 -118T262 -98Q254 -94 247 -87T233 -72T219 -58T205 -47Q181 -35 166 -32T141 -25T121 -11T98 23Q81 53 75 92T68 175T68 265T66 356ZM395 1198Q395 1221 410 1249T446 1301T485 1341T510 1358Q525 1358 543 1354T578 1350Q604
1353 619 1362T651 1372Q666 1372 676 1365T696 1347T715 1324T737 1300Q745 1293 756 1288T777 1276T795 1263T803 1245Q803 1230 794 1198T772 1132T743 1073T715 1047H702Q697 1047 690 1046T672 1044Q640 1044 597 1050T515 1065T448 1084T420 1104Q420 1110
421 1118T422 1137Q422 1150 418 1159T409 1176T399 1188T395 1198Z" />
<glyph unicode="&#xc0;" glyph-name="Agrave" horiz-adv-x="1176" d="M1096 381Q1098 372 1099 362T1100 340Q1100 314 1095 287T1083 232T1067 181T1051 135Q1037 94 1030 73T1016 43T999 32T967 31Q952 31 928 38T879 61T833 100T803 154Q803 160 807 174T811
205Q810 216 808 237T801 283T793 335T782 384T770 420T756 434Q730 434 719 427T699 411T682 395T651 387Q631 387 607 391T554 401T489 411T412 416Q390 416 372 415T348 408Q337 399 332 373T324 316T319 254T311 205Q309 202 303 194T289 174T273 149T260 123Q248
96 240 62T220 -3T191 -55T145 -76Q126 -76 110 -67T81 -47T60 -25T51 -10Q39 11 28 24T6 49T-10 72T-16 104Q-16 111 -16 123T-14 148T-10 173T-6 193Q-4 198 1 203T12 215T22 226T27 238Q27 246 23 253T18 268Q18 270 19 271T20 274Q30 304 44 332T72 389T96
450T109 520Q109 538 109 559T111 601T116 643T127 680Q128 683 136 690T155 708T172 736T180 774Q180 785 178 797T176 821Q176 835 180 844T191 862T204 880T215 901Q223 922 224 945T225 992T226 1039T236 1083Q238 1092 245 1098T259 1111T273 1126T279 1145Q279
1153 278 1161T276 1180Q276 1203 286 1227T310 1274T333 1320T344 1362V1382Q344 1401 359 1421T402 1457T464 1484T539 1495Q561 1495 578 1490T614 1477T653 1464T702 1456Q718 1456 735 1459T771 1467T807 1475T842 1479Q851 1479 865 1474T895 1459T925 1438T950
1413Q968 1390 974 1355T984 1280T993 1200T1012 1128Q1017 1115 1024 1105T1037 1082T1048 1055T1053 1016Q1053 988 1050 960T1047 905Q1047 884 1052 870T1064 846T1075 825T1081 801Q1081 782 1075 758T1069 711Q1069 689 1076 671T1081 635Q1080 616 1074
597T1061 560T1048 524T1042 489Q1042 475 1049 462T1065 436T1083 410T1096 381ZM709 641Q715 650 715 664Q715 678 710 696T700 730T689 760T684 778Q684 788 687 798T690 819Q690 845 679 872T655 921T629 960T614 983Q607 999 605 1015T599 1047T589 1073T569
1090Q549 1030 527 972T483 855T443 733T412 602Q447 607 484 608T563 616Q569 617 592 620T640 627T686 635T709 641ZM332 1722Q326 1737 326 1757Q326 1788 338 1818T367 1871T405 1909T443 1923Q470 1923 489 1914T522 1892T548 1861T574 1829Q586 1815 602
1799T635 1763Q644 1754 661 1737T697 1698T728 1656T742 1618Q742 1608 733 1598T712 1579T685 1566T660 1560Q640 1560 622 1570T583 1594T537 1617T480 1628Q465 1628 441 1638T394 1663T354 1694T332 1722Z" />
<glyph unicode="&#xc1;" glyph-name="Aacute" horiz-adv-x="1176" d="M1096 381Q1098 372 1099 362T1100 340Q1100 314 1095 287T1083 232T1067 181T1051 135Q1037 94 1030 73T1016 43T999 32T967 31Q952 31 928 38T879 61T833 100T803 154Q803 160 807 174T811
205Q810 216 808 237T801 283T793 335T782 384T770 420T756 434Q730 434 719 427T699 411T682 395T651 387Q631 387 607 391T554 401T489 411T412 416Q390 416 372 415T348 408Q337 399 332 373T324 316T319 254T311 205Q309 202 303 194T289 174T273 149T260 123Q248
96 240 62T220 -3T191 -55T145 -76Q126 -76 110 -67T81 -47T60 -25T51 -10Q39 11 28 24T6 49T-10 72T-16 104Q-16 111 -16 123T-14 148T-10 173T-6 193Q-4 198 1 203T12 215T22 226T27 238Q27 246 23 253T18 268Q18 270 19 271T20 274Q30 304 44 332T72 389T96
450T109 520Q109 538 109 559T111 601T116 643T127 680Q128 683 136 690T155 708T172 736T180 774Q180 785 178 797T176 821Q176 835 180 844T191 862T204 880T215 901Q223 922 224 945T225 992T226 1039T236 1083Q238 1092 245 1098T259 1111T273 1126T279 1145Q279
1153 278 1161T276 1180Q276 1203 286 1227T310 1274T333 1320T344 1362V1382Q344 1401 359 1421T402 1457T464 1484T539 1495Q561 1495 578 1490T614 1477T653 1464T702 1456Q718 1456 735 1459T771 1467T807 1475T842 1479Q851 1479 865 1474T895 1459T925 1438T950
1413Q968 1390 974 1355T984 1280T993 1200T1012 1128Q1017 1115 1024 1105T1037 1082T1048 1055T1053 1016Q1053 988 1050 960T1047 905Q1047 884 1052 870T1064 846T1075 825T1081 801Q1081 782 1075 758T1069 711Q1069 689 1076 671T1081 635Q1080 616 1074
597T1061 560T1048 524T1042 489Q1042 475 1049 462T1065 436T1083 410T1096 381ZM709 641Q715 650 715 664Q715 678 710 696T700 730T689 760T684 778Q684 788 687 798T690 819Q690 845 679 872T655 921T629 960T614 983Q607 999 605 1015T599 1047T589 1073T569
1090Q549 1030 527 972T483 855T443 733T412 602Q447 607 484 608T563 616Q569 617 592 620T640 627T686 635T709 641ZM1004 1714Q996 1690 970 1673T915 1644T860 1627T827 1618Q802 1613 782 1603T744 1581T710 1561T676 1552Q664 1552 650 1557T624 1571T603
1589T594 1610Q594 1626 607 1647T638 1690T673 1728T700 1755Q717 1774 733 1790T762 1821Q776 1836 787 1853T813 1883T846 1906T893 1915Q909 1915 929 1901T968 1864T998 1810T1010 1749Q1010 1729 1004 1714Z" />
<glyph unicode="&#xc2;" glyph-name="Acircumflex" horiz-adv-x="1176" d="M1096 381Q1098 372 1099 362T1100 340Q1100 314 1095 287T1083 232T1067 181T1051 135Q1037 94 1030 73T1016 43T999 32T967 31Q952 31 928 38T879 61T833 100T803 154Q803 160 807 174T811
205Q810 216 808 237T801 283T793 335T782 384T770 420T756 434Q730 434 719 427T699 411T682 395T651 387Q631 387 607 391T554 401T489 411T412 416Q390 416 372 415T348 408Q337 399 332 373T324 316T319 254T311 205Q309 202 303 194T289 174T273 149T260 123Q248
96 240 62T220 -3T191 -55T145 -76Q126 -76 110 -67T81 -47T60 -25T51 -10Q39 11 28 24T6 49T-10 72T-16 104Q-16 111 -16 123T-14 148T-10 173T-6 193Q-4 198 1 203T12 215T22 226T27 238Q27 246 23 253T18 268Q18 270 19 271T20 274Q30 304 44 332T72 389T96
450T109 520Q109 538 109 559T111 601T116 643T127 680Q128 683 136 690T155 708T172 736T180 774Q180 785 178 797T176 821Q176 835 180 844T191 862T204 880T215 901Q223 922 224 945T225 992T226 1039T236 1083Q238 1092 245 1098T259 1111T273 1126T279 1145Q279
1153 278 1161T276 1180Q276 1203 286 1227T310 1274T333 1320T344 1362V1382Q344 1401 359 1421T402 1457T464 1484T539 1495Q561 1495 578 1490T614 1477T653 1464T702 1456Q718 1456 735 1459T771 1467T807 1475T842 1479Q851 1479 865 1474T895 1459T925 1438T950
1413Q968 1390 974 1355T984 1280T993 1200T1012 1128Q1017 1115 1024 1105T1037 1082T1048 1055T1053 1016Q1053 988 1050 960T1047 905Q1047 884 1052 870T1064 846T1075 825T1081 801Q1081 782 1075 758T1069 711Q1069 689 1076 671T1081 635Q1080 616 1074
597T1061 560T1048 524T1042 489Q1042 475 1049 462T1065 436T1083 410T1096 381ZM709 641Q715 650 715 664Q715 678 710 696T700 730T689 760T684 778Q684 788 687 798T690 819Q690 845 679 872T655 921T629 960T614 983Q607 999 605 1015T599 1047T589 1073T569
1090Q549 1030 527 972T483 855T443 733T412 602Q447 607 484 608T563 616Q569 617 592 620T640 627T686 635T709 641ZM936 1635Q936 1615 919 1597T876 1564T817 1542T755 1534Q731 1534 719 1542T701 1566T690 1600T678 1641Q678 1642 674 1656T664 1686T651
1717T639 1733Q624 1733 607 1709T570 1656T534 1603T501 1579Q493 1579 483 1582T463 1590T447 1602T440 1618Q440 1628 447 1645T465 1680T485 1717T501 1747Q521 1793 538 1815T567 1858Q572 1866 575 1875T581 1894T588 1910T602 1923Q609 1928 621 1931T647
1935T675 1938T698 1940Q705 1940 719 1940T748 1937T778 1932T798 1923Q815 1893 832 1863Q846 1837 862 1809T891 1758Q899 1745 899 1730T905 1700Q913 1683 924 1667T936 1635Z" />
<glyph unicode="&#xc3;" glyph-name="Atilde" horiz-adv-x="1176" d="M1096 381Q1098 372 1099 362T1100 340Q1100 314 1095 287T1083 232T1067 181T1051 135Q1037 94 1030 73T1016 43T999 32T967 31Q952 31 928 38T879 61T833 100T803 154Q803 160 807 174T811
205Q810 216 808 237T801 283T793 335T782 384T770 420T756 434Q730 434 719 427T699 411T682 395T651 387Q631 387 607 391T554 401T489 411T412 416Q390 416 372 415T348 408Q337 399 332 373T324 316T319 254T311 205Q309 202 303 194T289 174T273 149T260 123Q248
96 240 62T220 -3T191 -55T145 -76Q126 -76 110 -67T81 -47T60 -25T51 -10Q39 11 28 24T6 49T-10 72T-16 104Q-16 111 -16 123T-14 148T-10 173T-6 193Q-4 198 1 203T12 215T22 226T27 238Q27 246 23 253T18 268Q18 270 19 271T20 274Q30 304 44 332T72 389T96
450T109 520Q109 538 109 559T111 601T116 643T127 680Q128 683 136 690T155 708T172 736T180 774Q180 785 178 797T176 821Q176 835 180 844T191 862T204 880T215 901Q223 922 224 945T225 992T226 1039T236 1083Q238 1092 245 1098T259 1111T273 1126T279 1145Q279
1153 278 1161T276 1180Q276 1203 286 1227T310 1274T333 1320T344 1362V1382Q344 1401 359 1421T402 1457T464 1484T539 1495Q561 1495 578 1490T614 1477T653 1464T702 1456Q718 1456 735 1459T771 1467T807 1475T842 1479Q851 1479 865 1474T895 1459T925 1438T950
1413Q968 1390 974 1355T984 1280T993 1200T1012 1128Q1017 1115 1024 1105T1037 1082T1048 1055T1053 1016Q1053 988 1050 960T1047 905Q1047 884 1052 870T1064 846T1075 825T1081 801Q1081 782 1075 758T1069 711Q1069 689 1076 671T1081 635Q1080 616 1074
597T1061 560T1048 524T1042 489Q1042 475 1049 462T1065 436T1083 410T1096 381ZM709 641Q715 650 715 664Q715 678 710 696T700 730T689 760T684 778Q684 788 687 798T690 819Q690 845 679 872T655 921T629 960T614 983Q607 999 605 1015T599 1047T589 1073T569
1090Q549 1030 527 972T483 855T443 733T412 602Q447 607 484 608T563 616Q569 617 592 620T640 627T686 635T709 641ZM909 1878Q911 1873 911 1871T911 1866Q911 1860 909 1853T905 1827Q903 1812 902 1789T899 1742T892 1696T882 1661Q874 1635 858 1615T821
1580T780 1557T743 1549Q726 1549 706 1554T666 1568T630 1586T604 1606Q599 1611 596 1621T585 1637Q583 1638 570 1645T542 1660T514 1674T499 1680Q481 1678 472 1661T457 1622T442 1584T418 1567Q405 1567 393 1572T372 1584T358 1600T352 1616Q352 1624 352
1636T354 1661T358 1686T362 1706Q365 1716 375 1723T393 1741Q414 1778 422 1798T437 1831T459 1856T510 1885Q521 1888 540 1890T573 1893Q601 1893 627 1872T676 1826T721 1779T760 1758Q773 1758 777 1777T783 1822T788 1873T803 1909Q809 1914 824 1914T846
1915Q866 1915 884 1905T909 1878Z" />
<glyph unicode="&#xc4;" glyph-name="Adieresis" horiz-adv-x="1176" d="M1096 381Q1098 372 1099 362T1100 340Q1100 314 1095 287T1083 232T1067 181T1051 135Q1037 94 1030 73T1016 43T999 32T967 31Q952 31 928 38T879 61T833 100T803 154Q803 160 807 174T811
205Q810 216 808 237T801 283T793 335T782 384T770 420T756 434Q730 434 719 427T699 411T682 395T651 387Q631 387 607 391T554 401T489 411T412 416Q390 416 372 415T348 408Q337 399 332 373T324 316T319 254T311 205Q309 202 303 194T289 174T273 149T260 123Q248
96 240 62T220 -3T191 -55T145 -76Q126 -76 110 -67T81 -47T60 -25T51 -10Q39 11 28 24T6 49T-10 72T-16 104Q-16 111 -16 123T-14 148T-10 173T-6 193Q-4 198 1 203T12 215T22 226T27 238Q27 246 23 253T18 268Q18 270 19 271T20 274Q30 304 44 332T72 389T96
450T109 520Q109 538 109 559T111 601T116 643T127 680Q128 683 136 690T155 708T172 736T180 774Q180 785 178 797T176 821Q176 835 180 844T191 862T204 880T215 901Q223 922 224 945T225 992T226 1039T236 1083Q238 1092 245 1098T259 1111T273 1126T279 1145Q279
1153 278 1161T276 1180Q276 1203 286 1227T310 1274T333 1320T344 1362V1382Q344 1401 359 1421T402 1457T464 1484T539 1495Q561 1495 578 1490T614 1477T653 1464T702 1456Q718 1456 735 1459T771 1467T807 1475T842 1479Q851 1479 865 1474T895 1459T925 1438T950
1413Q968 1390 974 1355T984 1280T993 1200T1012 1128Q1017 1115 1024 1105T1037 1082T1048 1055T1053 1016Q1053 988 1050 960T1047 905Q1047 884 1052 870T1064 846T1075 825T1081 801Q1081 782 1075 758T1069 711Q1069 689 1076 671T1081 635Q1080 616 1074
597T1061 560T1048 524T1042 489Q1042 475 1049 462T1065 436T1083 410T1096 381ZM709 641Q715 650 715 664Q715 678 710 696T700 730T689 760T684 778Q684 788 687 798T690 819Q690 845 679 872T655 921T629 960T614 983Q607 999 605 1015T599 1047T589 1073T569
1090Q549 1030 527 972T483 855T443 733T412 602Q447 607 484 608T563 616Q569 617 592 620T640 627T686 635T709 641ZM966 1765Q966 1762 967 1759T968 1751Q968 1737 963 1721T954 1690Q949 1654 944 1628T923 1584T877 1558T792 1550Q759 1550 740 1555T710
1574T697 1608T694 1661Q694 1714 702 1743T730 1786T780 1803T858 1806Q898 1806 927 1797T966 1765ZM616 1644Q611 1630 595 1614T557 1583T508 1560T456 1550Q451 1550 435 1554T402 1570T370 1598T356 1642Q356 1673 362 1701T384 1750T424 1783T485 1796Q511
1796 536 1790T580 1770T610 1736T622 1687Q622 1669 616 1644Z" />
<glyph unicode="&#xc5;" glyph-name="Aring" horiz-adv-x="1176" d="M1096 381Q1098 372 1099 362T1100 340Q1100 314 1095 287T1083 232T1067 181T1051 135Q1037 94 1030 73T1016 43T999 32T967 31Q952 31 928 38T879 61T833 100T803 154Q803 160 807 174T811
205Q810 216 808 237T801 283T793 335T782 384T770 420T756 434Q730 434 719 427T699 411T682 395T651 387Q631 387 607 391T554 401T489 411T412 416Q390 416 372 415T348 408Q337 399 332 373T324 316T319 254T311 205Q309 202 303 194T289 174T273 149T260 123Q248
96 240 62T220 -3T191 -55T145 -76Q126 -76 110 -67T81 -47T60 -25T51 -10Q39 11 28 24T6 49T-10 72T-16 104Q-16 111 -16 123T-14 148T-10 173T-6 193Q-4 198 1 203T12 215T22 226T27 238Q27 246 23 253T18 268Q18 270 19 271T20 274Q30 304 44 332T72 389T96
450T109 520Q109 538 109 559T111 601T116 643T127 680Q128 683 136 690T155 708T172 736T180 774Q180 785 178 797T176 821Q176 835 180 844T191 862T204 880T215 901Q223 922 224 945T225 992T226 1039T236 1083Q238 1092 245 1098T259 1111T273 1126T279 1145Q279
1153 278 1161T276 1180Q276 1203 286 1227T310 1274T333 1320T344 1362V1382Q344 1401 359 1421T402 1457T464 1484T539 1495Q561 1495 578 1490T614 1477T653 1464T702 1456Q718 1456 735 1459T771 1467T807 1475T842 1479Q851 1479 865 1474T895 1459T925 1438T950
1413Q968 1390 974 1355T984 1280T993 1200T1012 1128Q1017 1115 1024 1105T1037 1082T1048 1055T1053 1016Q1053 988 1050 960T1047 905Q1047 884 1052 870T1064 846T1075 825T1081 801Q1081 782 1075 758T1069 711Q1069 689 1076 671T1081 635Q1080 616 1074
597T1061 560T1048 524T1042 489Q1042 475 1049 462T1065 436T1083 410T1096 381ZM709 641Q715 650 715 664Q715 678 710 696T700 730T689 760T684 778Q684 788 687 798T690 819Q690 845 679 872T655 921T629 960T614 983Q607 999 605 1015T599 1047T589 1073T569
1090Q549 1030 527 972T483 855T443 733T412 602Q447 607 484 608T563 616Q569 617 592 620T640 627T686 635T709 641ZM887 1818Q887 1815 888 1811T889 1804Q889 1785 885 1768T880 1732V1681Q880 1647 875 1620T857 1575T819 1546T755 1536Q741 1536 724 1539T690
1542Q668 1542 649 1540T610 1538Q580 1538 563 1548T535 1576T519 1614T510 1658Q503 1675 496 1694T489 1726Q489 1735 491 1744T493 1761Q491 1767 486 1777T481 1798Q481 1803 485 1818T494 1850T504 1882T512 1902Q519 1911 545 1917T603 1926T664 1931T706
1933Q733 1933 764 1923T823 1896T869 1859T887 1818ZM723 1818Q718 1835 716 1839T706 1843H684Q673 1845 661 1846T637 1847Q605 1847 596 1827T587 1763Q587 1748 587 1731T592 1698T605 1673T633 1663Q686 1663 706 1685T727 1767Q727 1784 726 1797T723 1818Z"
/>
<glyph unicode="&#xc6;" glyph-name="AE" horiz-adv-x="1833" d="M1817 309Q1813 300 1807 293T1798 276Q1794 263 1793 250T1790 223T1782 198T1765 176Q1754 165 1732 158T1685 145T1633 133T1589 119Q1574 112 1560 100T1531 74T1500 48T1462 31Q1447 26 1424
24T1380 18Q1360 14 1333 10T1274 1T1210 -7T1145 -10Q1113 -10 1095 -6T1063 6T1038 21T1008 37H1006Q999 31 990 31T963 31Q948 31 924 38T875 61T829 100T799 154Q799 160 803 174T807 205Q806 216 804 237T797 283T789 335T778 384T766 420T752 434Q726 434
715 427T695 411T677 395T647 387Q627 387 603 391T550 401T485 411T408 416Q386 416 368 415T344 408Q333 399 328 373T320 316T315 254T307 205Q305 202 299 194T285 174T269 149T256 123Q244 96 236 62T216 -3T187 -55T141 -76Q122 -76 106 -67T77 -47T56 -25T47
-10Q35 11 24 24T2 49T-14 72T-20 104Q-20 111 -20 123T-18 148T-14 173T-10 193Q-8 198 -3 203T8 215T18 226T23 238Q23 246 19 253T14 268Q14 270 15 271T16 274Q26 304 40 332T68 389T92 450T104 520Q104 538 104 559T106 601T112 643T123 680Q124 683 132 690T151
708T168 736T176 774Q176 785 174 797T172 821Q172 835 176 844T187 862T200 880T211 901Q218 922 219 945T221 992T222 1039T231 1083Q234 1092 241 1098T255 1111T268 1126T274 1145Q274 1153 273 1161T272 1180Q272 1203 282 1227T306 1274T329 1320T340 1362V1382Q340
1401 355 1421T398 1457T460 1484T535 1495Q557 1495 574 1490T610 1477T649 1464T698 1456Q714 1456 731 1459T767 1467T803 1475T838 1479Q847 1479 861 1474T891 1459T921 1438T946 1413V1411Q955 1413 964 1414T981 1415Q1041 1415 1106 1405T1237 1395Q1250
1395 1267 1398T1305 1406T1353 1413T1411 1417Q1431 1417 1443 1412T1465 1400T1485 1383T1513 1364Q1524 1358 1540 1355T1569 1346Q1583 1339 1594 1332T1614 1321Q1648 1309 1675 1305T1722 1293T1751 1266T1761 1208Q1761 1153 1749 1124T1711 1082T1649 1064T1563
1055Q1519 1050 1477 1047T1384 1044Q1326 1044 1254 1051T1110 1059Q1092 1059 1081 1059T1063 1054T1053 1040T1049 1012V995Q1049 978 1050 960T1054 926T1058 899T1063 885Q1072 875 1097 870T1154 862T1215 859T1266 858Q1289 858 1307 863T1342 874T1373
886T1403 891Q1419 891 1427 888T1441 881T1448 872T1456 864Q1468 856 1475 850T1486 837T1491 820T1493 793Q1493 736 1485 705T1453 658T1384 638T1266 631Q1239 630 1222 629T1196 623T1184 610T1180 588Q1180 541 1180 510T1187 459T1216 431T1280 422Q1346
422 1418 432T1550 455Q1575 460 1596 468T1636 483T1676 496T1718 502Q1772 502 1800 471T1829 381Q1829 364 1826 345T1817 309ZM705 641Q711 650 711 664Q711 678 706 696T696 730T685 760T680 778Q680 788 683 798T686 819Q686 845 675 872T651 921T625 960T610
983Q603 999 601 1015T595 1047T585 1073T565 1090Q545 1030 523 972T479 855T439 733T408 602Q443 607 480 608T559 616Q564 617 587 620T635 627T682 635T705 641Z" />
<glyph unicode="&#xc7;" glyph-name="Ccedilla" horiz-adv-x="1153" d="M827 -330Q827 -338 823 -353T811 -384T795 -410T776 -422H762Q753 -422 748 -425T737 -432T727 -440T715 -446Q684 -456 649 -458T575 -467Q554 -472 535 -482T494 -492H471Q456 -492 444
-499T420 -506Q397 -506 378 -492T345 -457T323 -409T315 -356Q315 -323 330 -305T368 -278T422 -266T483 -261T542 -254T590 -236Q578 -227 566 -224T541 -220T518 -219T498 -213Q490 -210 478 -199T455 -175T436 -149T428 -129Q428 -118 432 -99T442 -63Q449
-51 460 -41T477 -16H473Q461 -15 446 -14T415 -11T389 -8T373 -4Q366 -1 360 7T348 25T334 46T315 66Q303 75 288 78T264 90Q252 106 237 125T207 160Q191 185 182 212T158 256Q152 262 142 267T119 279T96 293T76 311Q72 314 65 327T50 354T37 378T31 387Q31
393 35 402T46 422T56 442T61 459Q61 476 56 489T49 520Q49 554 52 608T61 725T77 849T100 963Q111 1003 125 1045T139 1124Q139 1137 137 1150T135 1176Q135 1203 151 1218T190 1244T239 1267T285 1298Q290 1304 293 1315T298 1337T302 1358T309 1374Q312 1378
317 1379T330 1381T347 1384T367 1393Q377 1399 382 1405T393 1417T405 1425T424 1427Q435 1427 446 1426T467 1425Q482 1425 498 1426T532 1427Q560 1427 578 1421T610 1408T637 1392T670 1380Q697 1375 724 1375T778 1374T829 1370T879 1356Q893 1350 908 1335T942
1305Q959 1292 978 1283T1006 1262Q1012 1251 1016 1229T1030 1192Q1039 1176 1052 1159T1079 1122T1101 1080T1112 1032V1026Q1112 1011 1108 979T1095 910T1073 839T1042 786Q1025 769 997 763T942 748Q921 740 898 727T851 702T804 681T758 672Q743 672 725
679T690 704T664 748T653 815Q653 840 655 867T657 920Q657 948 653 983T640 1050T622 1102T600 1124Q591 1124 580 1120T553 1116Q535 1116 526 1120T510 1128T499 1137T485 1141Q461 1141 449 1131T430 1102T421 1061T410 1014Q405 997 392 976T373 932Q365 909
360 882T346 825Q338 800 328 762T307 682T290 598T283 524Q283 478 313 435T391 362Q405 354 430 349T479 332Q501 321 517 311T551 292T593 278T657 272Q693 272 730 279T802 299T864 326T909 356Q915 361 928 377T960 412T1000 444T1047 459Q1052 459 1062 457T1083
447T1102 425T1110 389Q1110 360 1102 329T1094 270Q1094 258 1095 240T1096 205Q1096 170 1075 134T999 59Q982 47 957 38T909 14Q885 -1 858 -16T815 -31Q800 -31 784 -27T748 -23Q716 -23 686 -25T623 -27H612Q604 -37 595 -46T577 -65T563 -87T557 -115Q557
-121 563 -124T575 -127Q591 -127 617 -123T672 -119Q741 -119 777 -144T817 -240Q817 -251 814 -259T811 -276Q811 -290 819 -304T827 -330Z" />
<glyph unicode="&#xc8;" glyph-name="Egrave" horiz-adv-x="1157" d="M1141 262Q1138 253 1131 246T1122 229Q1118 216 1117 203T1114 176T1106 151T1090 129Q1078 118 1056 111T1009 98T958 86T913 72Q898 65 884 53T855 27T824 1T786 -16Q771 -21 748 -23T705
-29Q685 -33 658 -37T599 -46T534 -54T469 -57Q437 -57 419 -53T387 -41T362 -26T332 -10Q304 -1 275 2T217 11T159 30T102 72Q99 75 96 82T90 99T84 116T78 129Q68 143 56 152T33 171T15 193T8 223Q8 236 17 250T39 277T67 297T94 305H109Q122 305 130 312T144
329T151 351T154 373Q154 394 151 421T147 483Q147 500 148 517T150 551Q150 576 144 593T135 629Q130 675 128 730T125 844Q125 871 127 900T131 957T135 1010T137 1055Q137 1067 122 1074T88 1092T55 1122T39 1180Q39 1220 67 1254T137 1313T224 1353T305 1368Q365
1368 430 1358T561 1348Q574 1348 591 1351T629 1359T677 1366T735 1370Q755 1370 767 1365T789 1353T810 1336T838 1317Q849 1311 865 1308T893 1298Q907 1292 918 1285T938 1274Q972 1262 999 1258T1046 1246T1075 1219T1085 1161Q1085 1106 1073 1077T1035 1035T973
1017T887 1008Q843 1003 801 1000T709 997Q650 997 578 1004T434 1012Q415 1012 403 1011T385 1004T376 985T373 948Q373 931 374 913T378 879T382 852T387 838Q396 828 422 823T479 815T540 812T590 811Q613 811 631 816T666 827T697 839T727 844Q743 844 751
841T765 834T772 825T780 817Q792 809 799 803T810 790T815 773T817 745Q817 688 809 657T777 611T708 591T590 584Q563 583 546 582T520 576T508 563T504 541Q504 494 504 463T511 412T540 384T604 375Q637 375 672 378T742 385T810 396T874 408Q899 413 920 421T960
436T1000 449T1042 455Q1096 455 1124 424T1153 334Q1153 317 1150 298T1141 262ZM186 1599Q180 1614 180 1634Q180 1665 192 1695T221 1748T259 1786T297 1800Q324 1800 343 1791T376 1769T402 1738T428 1706Q440 1692 456 1676T489 1640Q498 1631 515 1614T551
1575T582 1533T596 1495Q596 1485 587 1475T566 1456T539 1443T514 1437Q494 1437 476 1447T437 1471T391 1494T334 1505Q319 1505 295 1515T248 1540T208 1571T186 1599Z" />
<glyph unicode="&#xc9;" glyph-name="Eacute" horiz-adv-x="1157" d="M1141 262Q1138 253 1131 246T1122 229Q1118 216 1117 203T1114 176T1106 151T1090 129Q1078 118 1056 111T1009 98T958 86T913 72Q898 65 884 53T855 27T824 1T786 -16Q771 -21 748 -23T705
-29Q685 -33 658 -37T599 -46T534 -54T469 -57Q437 -57 419 -53T387 -41T362 -26T332 -10Q304 -1 275 2T217 11T159 30T102 72Q99 75 96 82T90 99T84 116T78 129Q68 143 56 152T33 171T15 193T8 223Q8 236 17 250T39 277T67 297T94 305H109Q122 305 130 312T144
329T151 351T154 373Q154 394 151 421T147 483Q147 500 148 517T150 551Q150 576 144 593T135 629Q130 675 128 730T125 844Q125 871 127 900T131 957T135 1010T137 1055Q137 1067 122 1074T88 1092T55 1122T39 1180Q39 1220 67 1254T137 1313T224 1353T305 1368Q365
1368 430 1358T561 1348Q574 1348 591 1351T629 1359T677 1366T735 1370Q755 1370 767 1365T789 1353T810 1336T838 1317Q849 1311 865 1308T893 1298Q907 1292 918 1285T938 1274Q972 1262 999 1258T1046 1246T1075 1219T1085 1161Q1085 1106 1073 1077T1035 1035T973
1017T887 1008Q843 1003 801 1000T709 997Q650 997 578 1004T434 1012Q415 1012 403 1011T385 1004T376 985T373 948Q373 931 374 913T378 879T382 852T387 838Q396 828 422 823T479 815T540 812T590 811Q613 811 631 816T666 827T697 839T727 844Q743 844 751
841T765 834T772 825T780 817Q792 809 799 803T810 790T815 773T817 745Q817 688 809 657T777 611T708 591T590 584Q563 583 546 582T520 576T508 563T504 541Q504 494 504 463T511 412T540 384T604 375Q637 375 672 378T742 385T810 396T874 408Q899 413 920 421T960
436T1000 449T1042 455Q1096 455 1124 424T1153 334Q1153 317 1150 298T1141 262ZM873 1595Q865 1571 839 1554T784 1525T729 1508T696 1499Q671 1494 651 1484T613 1462T579 1442T545 1433Q533 1433 519 1438T493 1452T472 1470T463 1491Q463 1507 476 1528T507
1571T542 1609T569 1636Q586 1655 602 1671T631 1702Q645 1717 656 1734T682 1764T715 1787T762 1796Q778 1796 798 1782T837 1745T867 1691T879 1630Q879 1610 873 1595Z" />
<glyph unicode="&#xca;" glyph-name="Ecircumflex" horiz-adv-x="1157" d="M1141 262Q1138 253 1131 246T1122 229Q1118 216 1117 203T1114 176T1106 151T1090 129Q1078 118 1056 111T1009 98T958 86T913 72Q898 65 884 53T855 27T824 1T786 -16Q771 -21 748 -23T705
-29Q685 -33 658 -37T599 -46T534 -54T469 -57Q437 -57 419 -53T387 -41T362 -26T332 -10Q304 -1 275 2T217 11T159 30T102 72Q99 75 96 82T90 99T84 116T78 129Q68 143 56 152T33 171T15 193T8 223Q8 236 17 250T39 277T67 297T94 305H109Q122 305 130 312T144
329T151 351T154 373Q154 394 151 421T147 483Q147 500 148 517T150 551Q150 576 144 593T135 629Q130 675 128 730T125 844Q125 871 127 900T131 957T135 1010T137 1055Q137 1067 122 1074T88 1092T55 1122T39 1180Q39 1220 67 1254T137 1313T224 1353T305 1368Q365
1368 430 1358T561 1348Q574 1348 591 1351T629 1359T677 1366T735 1370Q755 1370 767 1365T789 1353T810 1336T838 1317Q849 1311 865 1308T893 1298Q907 1292 918 1285T938 1274Q972 1262 999 1258T1046 1246T1075 1219T1085 1161Q1085 1106 1073 1077T1035 1035T973
1017T887 1008Q843 1003 801 1000T709 997Q650 997 578 1004T434 1012Q415 1012 403 1011T385 1004T376 985T373 948Q373 931 374 913T378 879T382 852T387 838Q396 828 422 823T479 815T540 812T590 811Q613 811 631 816T666 827T697 839T727 844Q743 844 751
841T765 834T772 825T780 817Q792 809 799 803T810 790T815 773T817 745Q817 688 809 657T777 611T708 591T590 584Q563 583 546 582T520 576T508 563T504 541Q504 494 504 463T511 412T540 384T604 375Q637 375 672 378T742 385T810 396T874 408Q899 413 920 421T960
436T1000 449T1042 455Q1096 455 1124 424T1153 334Q1153 317 1150 298T1141 262ZM795 1544Q795 1524 778 1506T735 1473T676 1451T614 1443Q590 1443 578 1451T560 1475T549 1509T537 1550Q537 1551 533 1565T523 1595T510 1626T498 1642Q483 1642 466 1618T429
1565T393 1512T360 1488Q352 1488 342 1491T322 1499T306 1511T299 1527Q299 1537 306 1554T324 1589T344 1626T360 1656Q380 1702 397 1724T426 1767Q431 1775 434 1784T440 1803T447 1819T461 1832Q468 1837 480 1840T506 1844T534 1847T557 1849Q564 1849 578
1849T607 1846T637 1841T657 1832Q674 1802 691 1772Q705 1746 721 1718T750 1667Q758 1654 758 1639T764 1609Q772 1592 783 1576T795 1544Z" />
<glyph unicode="&#xcb;" glyph-name="Edieresis" horiz-adv-x="1157" d="M1141 262Q1138 253 1131 246T1122 229Q1118 216 1117 203T1114 176T1106 151T1090 129Q1078 118 1056 111T1009 98T958 86T913 72Q898 65 884 53T855 27T824 1T786 -16Q771 -21 748 -23T705
-29Q685 -33 658 -37T599 -46T534 -54T469 -57Q437 -57 419 -53T387 -41T362 -26T332 -10Q304 -1 275 2T217 11T159 30T102 72Q99 75 96 82T90 99T84 116T78 129Q68 143 56 152T33 171T15 193T8 223Q8 236 17 250T39 277T67 297T94 305H109Q122 305 130 312T144
329T151 351T154 373Q154 394 151 421T147 483Q147 500 148 517T150 551Q150 576 144 593T135 629Q130 675 128 730T125 844Q125 871 127 900T131 957T135 1010T137 1055Q137 1067 122 1074T88 1092T55 1122T39 1180Q39 1220 67 1254T137 1313T224 1353T305 1368Q365
1368 430 1358T561 1348Q574 1348 591 1351T629 1359T677 1366T735 1370Q755 1370 767 1365T789 1353T810 1336T838 1317Q849 1311 865 1308T893 1298Q907 1292 918 1285T938 1274Q972 1262 999 1258T1046 1246T1075 1219T1085 1161Q1085 1106 1073 1077T1035 1035T973
1017T887 1008Q843 1003 801 1000T709 997Q650 997 578 1004T434 1012Q415 1012 403 1011T385 1004T376 985T373 948Q373 931 374 913T378 879T382 852T387 838Q396 828 422 823T479 815T540 812T590 811Q613 811 631 816T666 827T697 839T727 844Q743 844 751
841T765 834T772 825T780 817Q792 809 799 803T810 790T815 773T817 745Q817 688 809 657T777 611T708 591T590 584Q563 583 546 582T520 576T508 563T504 541Q504 494 504 463T511 412T540 384T604 375Q637 375 672 378T742 385T810 396T874 408Q899 413 920 421T960
436T1000 449T1042 455Q1096 455 1124 424T1153 334Q1153 317 1150 298T1141 262ZM876 1640Q876 1637 877 1634T878 1626Q878 1612 873 1596T864 1565Q859 1529 854 1503T833 1459T787 1433T702 1425Q669 1425 650 1430T620 1449T607 1483T604 1536Q604 1589 612
1618T640 1661T690 1678T768 1681Q808 1681 837 1672T876 1640ZM526 1519Q521 1505 505 1489T467 1458T418 1435T366 1425Q361 1425 345 1429T312 1445T280 1473T266 1517Q266 1548 272 1576T294 1625T334 1658T395 1671Q421 1671 446 1665T490 1645T520 1611T532
1562Q532 1544 526 1519Z" />
<glyph unicode="&#xcc;" glyph-name="Igrave" horiz-adv-x="561" d="M512 1014Q510 995 505 979T500 940Q500 911 502 881T504 825Q504 798 499 781T485 752T466 728T448 702T434 664T428 606Q428 535 432 460T436 299Q436 271 434 246T427 197T418 148T406 96Q399
65 393 42T374 2T335 -22T264 -31Q231 -31 216 -17T194 21T181 74T164 135Q156 153 147 163T131 185T118 214T113 264Q113 290 115 320T121 381T126 445T129 510Q129 538 125 559T117 599T108 638T104 688Q104 716 107 733T115 763T123 788T127 817Q127 835 117
851T94 883T71 912T63 940Q63 948 66 959T72 982T79 1007T82 1032Q82 1073 72 1111T61 1184Q61 1189 61 1194T63 1204Q65 1216 76 1235T101 1273T129 1305T150 1319Q156 1319 161 1318T172 1317Q192 1317 223 1321T289 1325Q314 1325 339 1324T385 1319T423 1311T449
1298Q452 1296 460 1279T479 1242T496 1203T506 1178Q509 1161 511 1130T514 1065Q514 1053 513 1040T512 1014ZM-67 1552Q-73 1567 -73 1587Q-73 1618 -61 1648T-32 1701T6 1739T44 1753Q71 1753 90 1744T123 1722T149 1691T175 1659Q187 1645 203 1629T236 1593Q245
1584 262 1567T298 1528T329 1486T343 1448Q343 1438 334 1428T313 1409T286 1396T261 1390Q241 1390 223 1400T184 1424T138 1447T81 1458Q66 1458 42 1468T-5 1493T-45 1524T-67 1552Z" />
<glyph unicode="&#xcd;" glyph-name="Iacute" horiz-adv-x="561" d="M512 1014Q510 995 505 979T500 940Q500 911 502 881T504 825Q504 798 499 781T485 752T466 728T448 702T434 664T428 606Q428 535 432 460T436 299Q436 271 434 246T427 197T418 148T406 96Q399
65 393 42T374 2T335 -22T264 -31Q231 -31 216 -17T194 21T181 74T164 135Q156 153 147 163T131 185T118 214T113 264Q113 290 115 320T121 381T126 445T129 510Q129 538 125 559T117 599T108 638T104 688Q104 716 107 733T115 763T123 788T127 817Q127 835 117
851T94 883T71 912T63 940Q63 948 66 959T72 982T79 1007T82 1032Q82 1073 72 1111T61 1184Q61 1189 61 1194T63 1204Q65 1216 76 1235T101 1273T129 1305T150 1319Q156 1319 161 1318T172 1317Q192 1317 223 1321T289 1325Q314 1325 339 1324T385 1319T423 1311T449
1298Q452 1296 460 1279T479 1242T496 1203T506 1178Q509 1161 511 1130T514 1065Q514 1053 513 1040T512 1014ZM650 1550Q642 1526 616 1509T561 1480T506 1463T473 1454Q448 1449 428 1439T390 1417T356 1397T322 1388Q310 1388 296 1393T270 1407T249 1425T240
1446Q240 1462 253 1483T284 1526T319 1564T346 1591Q363 1610 379 1626T408 1657Q422 1672 433 1689T459 1719T492 1742T539 1751Q555 1751 575 1737T614 1700T644 1646T656 1585Q656 1565 650 1550Z" />
<glyph unicode="&#xce;" glyph-name="Icircumflex" horiz-adv-x="561" d="M512 1014Q510 995 505 979T500 940Q500 911 502 881T504 825Q504 798 499 781T485 752T466 728T448 702T434 664T428 606Q428 535 432 460T436 299Q436 271 434 246T427 197T418 148T406
96Q399 65 393 42T374 2T335 -22T264 -31Q231 -31 216 -17T194 21T181 74T164 135Q156 153 147 163T131 185T118 214T113 264Q113 290 115 320T121 381T126 445T129 510Q129 538 125 559T117 599T108 638T104 688Q104 716 107 733T115 763T123 788T127 817Q127
835 117 851T94 883T71 912T63 940Q63 948 66 959T72 982T79 1007T82 1032Q82 1073 72 1111T61 1184Q61 1189 61 1194T63 1204Q65 1216 76 1235T101 1273T129 1305T150 1319Q156 1319 161 1318T172 1317Q192 1317 223 1321T289 1325Q314 1325 339 1324T385 1319T423
1311T449 1298Q452 1296 460 1279T479 1242T496 1203T506 1178Q509 1161 511 1130T514 1065Q514 1053 513 1040T512 1014ZM537 1467Q537 1447 520 1429T477 1396T418 1374T356 1366Q332 1366 320 1374T302 1398T291 1432T279 1473Q279 1474 275 1488T265 1518T252
1549T240 1565Q225 1565 208 1541T171 1488T135 1435T102 1411Q94 1411 84 1414T64 1422T48 1434T41 1450Q41 1460 48 1477T66 1512T86 1549T102 1579Q122 1625 139 1647T168 1690Q173 1698 176 1707T182 1726T189 1742T203 1755Q210 1760 222 1763T248 1767T276
1770T299 1772Q306 1772 320 1772T349 1769T379 1764T399 1755Q416 1725 433 1695Q447 1669 463 1641T492 1590Q500 1577 500 1562T506 1532Q514 1515 525 1499T537 1467Z" />
<glyph unicode="&#xcf;" glyph-name="Idieresis" horiz-adv-x="561" d="M512 1014Q510 995 505 979T500 940Q500 911 502 881T504 825Q504 798 499 781T485 752T466 728T448 702T434 664T428 606Q428 535 432 460T436 299Q436 271 434 246T427 197T418 148T406
96Q399 65 393 42T374 2T335 -22T264 -31Q231 -31 216 -17T194 21T181 74T164 135Q156 153 147 163T131 185T118 214T113 264Q113 290 115 320T121 381T126 445T129 510Q129 538 125 559T117 599T108 638T104 688Q104 716 107 733T115 763T123 788T127 817Q127
835 117 851T94 883T71 912T63 940Q63 948 66 959T72 982T79 1007T82 1032Q82 1073 72 1111T61 1184Q61 1189 61 1194T63 1204Q65 1216 76 1235T101 1273T129 1305T150 1319Q156 1319 161 1318T172 1317Q192 1317 223 1321T289 1325Q314 1325 339 1324T385 1319T423
1311T449 1298Q452 1296 460 1279T479 1242T496 1203T506 1178Q509 1161 511 1130T514 1065Q514 1053 513 1040T512 1014ZM593 1616Q593 1613 594 1610T595 1602Q595 1588 590 1572T581 1541Q576 1505 571 1479T550 1435T504 1409T419 1401Q386 1401 367 1406T337
1425T324 1459T321 1512Q321 1565 329 1594T357 1637T407 1654T485 1657Q525 1657 554 1648T593 1616ZM243 1495Q238 1481 222 1465T184 1434T135 1411T83 1401Q78 1401 62 1405T29 1421T-3 1449T-17 1493Q-17 1524 -11 1552T11 1601T51 1634T112 1647Q138 1647
163 1641T207 1621T237 1587T249 1538Q249 1520 243 1495Z" />
<glyph unicode="&#xd0;" glyph-name="Eth" horiz-adv-x="1511" d="M1475 578V569Q1475 554 1472 537T1468 502Q1468 480 1469 463T1470 430Q1470 412 1466 383T1455 322T1436 262T1411 217Q1406 210 1390 202T1355 184T1316 166T1286 147Q1274 138 1259 123T1228
91T1195 59T1165 35Q1154 26 1137 20T1102 2Q1090 -6 1083 -14T1068 -30T1054 -41T1034 -45Q1015 -45 990 -43T937 -37T880 -32T823 -29Q801 -29 781 -34T742 -45T707 -56T678 -61Q647 -61 609 -49T532 -29Q516 -26 496 -24T456 -19T416 -13T381 -4Q372 -1 365
5T350 18T331 33T305 47Q272 59 249 64T210 80T187 113T180 184Q180 232 189 261T217 291Q226 291 236 288T256 280T274 272T289 268Q305 268 315 284T332 325T340 382T342 446Q342 466 342 488T340 530Q289 521 240 515T143 508Q111 508 81 515T26 537T-12 571T-27
616Q-27 642 -18 666T-4 719Q-2 734 -1 753T1 791T7 826T20 852Q35 867 69 873T140 880T209 881T254 879Q274 879 296 879T342 877V932Q342 944 343 963T347 1002T350 1040T352 1071Q352 1082 342 1086T315 1093T281 1098T246 1109T220 1132T209 1174Q209 1197
226 1217T272 1256T334 1289T401 1317T463 1339T508 1356Q542 1370 571 1385T618 1401Q635 1401 648 1394T678 1386Q690 1387 702 1392T727 1404T754 1414T784 1419Q807 1419 823 1413T853 1398T880 1379T911 1362Q930 1353 950 1352T987 1343Q1029 1326 1062 1308T1124
1267T1178 1219T1229 1159Q1247 1136 1272 1117T1311 1077Q1321 1062 1333 1038T1356 987T1379 933T1399 881Q1409 853 1421 818T1445 742T1465 660T1475 578ZM901 707Q901 692 901 674T896 641T883 616T856 606Q842 606 824 609T787 615T749 622T717 625Q704 623
693 620T670 612Q670 607 670 602T672 590Q677 536 686 488T696 403Q696 376 693 345T690 281Q690 251 696 223Q712 225 727 225T756 225H788Q813 225 836 227T881 239T923 269T963 326Q967 333 971 345T979 374T989 408T1001 444Q1011 473 1024 503T1044 559Q1049
578 1051 595T1053 629Q1053 656 1049 681T1038 729T1025 776T1014 825Q1009 851 1007 876T1001 924T992 968T975 1008Q969 1019 958 1029T938 1053Q927 1065 921 1079T905 1102Q897 1110 877 1117T836 1141Q818 1155 807 1169T784 1196T760 1215T725 1223Q710
1223 695 1220T667 1213T647 1205T639 1196Q639 1188 640 1174T642 1146T645 1120T647 1102Q644 1046 640 982T635 858H659Q684 858 702 867T741 877Q799 877 830 868T876 839T895 786T901 707Z" />
</font>
</defs>
</svg>
